<?xml version="1.0" standalone="no"?>
<!DOCTYPE svg PUBLIC "-//W3C//DTD SVG 1.1//EN" "http://www.w3.org/Graphics/SVG/1.1/DTD/svg11.dtd" >
<svg xmlns="http://www.w3.org/2000/svg" xmlns:xlink="http://www.w3.org/1999/xlink" version="1.1">
<metadata>
Created by FontForge 20170731 at Mon Apr 17 22:44:23 2023
 By Aleksey,,,
Copyright (c) 2011 by EasyJet. All rights reserved.
</metadata>
<defs>
<font id="EJRounded-Light" horiz-adv-x="1153" >
  <font-face 
    font-family="EJ Rounded Light"
    font-weight="300"
    font-stretch="normal"
    units-per-em="2048"
    panose-1="0 0 0 0 0 0 0 0 0 0"
    ascent="1638"
    descent="-410"
    x-height="1022"
    cap-height="1434"
    bbox="-63 -410 2126 1841"
    underline-thickness="102"
    underline-position="-307"
    unicode-range="U+000D-FB02"
  />
<missing-glyph horiz-adv-x="1024" 
d="M164 1065v-696h696v696h-696zM102 307v819h820v-819h-820z" />
    <glyph glyph-name="fi" unicode="fi" horiz-adv-x="1095" 
d="M647 1024q20 0 33.5 -13t13.5 -32q0 -20 -13.5 -33.5t-33.5 -13.5h-278q-12 0 -20.5 -8.5t-8.5 -20.5v-852q0 -22 -14.5 -36.5t-34.5 -14.5q-22 0 -35.5 14.5t-13.5 36.5v852q0 12 -8.5 20.5t-20.5 8.5h-94q-20 0 -33.5 13.5t-13.5 33.5q0 19 13.5 32t33.5 13h94
q12 0 20.5 8.5t8.5 20.5v133q0 141 66.5 219t189.5 78q45 0 99.5 -12.5t86.5 -34.5q21 -14 21 -35q0 -19 -12 -32t-31 -13q-9 0 -17 4q-65 29 -139 29q-81 0 -123.5 -52.5t-42.5 -150.5v-133q0 -12 8.5 -20.5t20.5 -8.5h278zM854 51v922q0 22 14.5 36.5t34.5 14.5
t34.5 -14.5t14.5 -36.5v-922q0 -22 -14.5 -36.5t-34.5 -14.5t-34.5 14.5t-14.5 36.5zM836 1411q0 30 19 50t48 20q28 0 48 -20.5t20 -49.5t-20 -48.5t-48 -19.5q-29 0 -48 19.5t-19 48.5z" />
    <glyph glyph-name="fl" unicode="fl" horiz-adv-x="1097" 
d="M647 1024q20 0 33.5 -13t13.5 -32q0 -20 -13.5 -33.5t-33.5 -13.5h-278q-12 0 -20.5 -8.5t-8.5 -20.5v-852q0 -22 -14.5 -36.5t-34.5 -14.5q-22 0 -35.5 14.5t-13.5 36.5v852q0 12 -8.5 20.5t-20.5 8.5h-94q-20 0 -33.5 13.5t-13.5 33.5q0 19 13.5 32t33.5 13h94
q12 0 20.5 8.5t8.5 20.5v133q0 141 66.5 219t189.5 78q45 0 99.5 -12.5t86.5 -34.5q21 -14 21 -35q0 -19 -12 -32t-31 -13q-9 0 -17 4q-65 29 -139 29q-81 0 -123.5 -52.5t-42.5 -150.5v-133q0 -12 8.5 -20.5t20.5 -8.5h278zM856 51v1403q0 22 14.5 36.5t34.5 14.5
t34.5 -14.5t14.5 -36.5v-1403q0 -22 -14.5 -36.5t-34.5 -14.5t-34.5 14.5t-14.5 36.5z" />
    <glyph glyph-name=".notdef" horiz-adv-x="1024" 
d="M164 1065v-696h696v696h-696zM102 307v819h820v-819h-820z" />
    <glyph glyph-name=".null" horiz-adv-x="0" 
 />
    <glyph glyph-name=".null" horiz-adv-x="0" 
 />
    <glyph glyph-name="nonmarkingreturn" horiz-adv-x="682" 
 />
    <glyph glyph-name="CR" unicode="&#xd;" horiz-adv-x="602" 
 />
    <glyph glyph-name="space" unicode=" " horiz-adv-x="602" 
 />
    <glyph glyph-name="exclam" unicode="!" horiz-adv-x="423" 
d="M268 1370l-20 -954q0 -19 -12 -31t-29 -12t-29 12t-12 31l-21 954q0 26 18.5 45t43.5 19t43 -19t18 -45zM143 59q0 29 21 49.5t49 20.5t48 -20.5t20 -49.5t-20 -49t-48 -20t-49 20t-21 49z" />
    <glyph glyph-name="quotedbl" unicode="&#x22;" horiz-adv-x="632" 
d="M74 979l92 426q3 23 21 34.5t40 6.5q17 -5 28.5 -23t8.5 -37l-94 -428q-3 -23 -20 -34t-39 -6q-19 5 -30 22.5t-7 38.5zM369 979l94 426q3 23 20 34.5t39 6.5q17 -5 28.5 -23t8.5 -37l-92 -428q-3 -23 -21 -34t-40 -6q-19 5 -30 22.5t-7 38.5z" />
    <glyph glyph-name="numbersign" unicode="#" horiz-adv-x="1435" 
d="M707 66l81 317h-333l-88 -342q-6 -20 -24.5 -31t-37.5 -6q-20 4 -30 22t-5 40l82 317h-145q-21 1 -36 16.5t-15 34.5q-1 20 13 33.5t36 15.5h172l123 475h-205q-21 1 -36 17t-15 35q-1 20 13 33.5t36 15.5h233l88 338q4 21 22.5 32t37.5 5q20 -5 30.5 -22.5t4.5 -39.5
l-82 -313h336l88 338q4 21 22 32t37 5q20 -5 30.5 -22.5t4.5 -39.5l-82 -313h168q22 0 36.5 -14.5t12.5 -34.5q2 -20 -12.5 -34.5t-36.5 -14.5l-193 -3l-123 -475h175q22 0 36 -14.5t13 -34.5q1 -20 -13 -34.5t-36 -14.5l-199 -2l-88 -342q-6 -20 -24.5 -31t-37.5 -6
q-20 4 -29.5 22t-4.5 40zM602 958l-123 -475h334l123 475h-334z" />
    <glyph glyph-name="dollar" unicode="$" horiz-adv-x="1142" 
d="M545 -82v59q0 13 -8.5 20t-16.5 7q-206 22 -379 199q-39 45 -39 65q0 21 11 36t30 15q31 0 56 -28q131 -164 317 -189q10 -2 19.5 5t9.5 24v526q0 22 -25 29q-87 24 -149.5 52.5t-114 71.5t-77 104.5t-25.5 142.5q0 145 98 248.5t268 124.5q8 0 16.5 7.5t8.5 20.5v25
q0 22 13.5 37.5t33.5 15.5q21 0 35 -15.5t14 -37.5v-25q0 -13 9.5 -20.5t17.5 -7.5q68 -6 130.5 -29.5t91.5 -41.5t83 -56q49 -37 49 -74q0 -13 -12.5 -30t-26.5 -17q-26 0 -59 26q-40 32 -61 47t-76.5 41t-112.5 35q-10 2 -21.5 -4.5t-11.5 -19.5v-519q0 -21 23 -28
q192 -47 284 -142.5t92 -248.5q0 -157 -100 -251.5t-272 -113.5q-27 -3 -27 -27v-59q0 -22 -14 -37.5t-35 -15.5q-20 0 -33.5 15.5t-13.5 37.5zM940 358q0 56 -11.5 96t-41 77t-84 66t-137.5 54q-25 8 -25 -20v-500q0 -17 9.5 -24t19.5 -5q127 15 198.5 81t71.5 175z
M256 1059q0 -97 57 -155t195 -101q15 -5 26 2t11 26v476q0 13 -11.5 19.5t-21.5 4.5q-123 -20 -189.5 -92.5t-66.5 -179.5z" />
    <glyph glyph-name="percent" unicode="%" horiz-adv-x="1644" 
d="M102 1075q0 165 84.5 272t214.5 107q133 0 218.5 -107t85.5 -272t-85.5 -273t-218.5 -108q-130 0 -214.5 108t-84.5 273zM195 1073q0 -121 61 -207t147 -86q88 0 149.5 85.5t61.5 207.5q0 120 -62 206.5t-149 86.5q-89 0 -149 -83t-59 -210zM330 84l909 1327
q10 17 30.5 21t35.5 -7t18.5 -30.5t-6.5 -36.5l-909 -1327q-12 -17 -32.5 -21.5t-35.5 6.5t-18.5 31t8.5 37zM940 356q0 165 84.5 272t214.5 107q133 0 218 -107t85 -272t-85 -273t-218 -108q-130 0 -214.5 108t-84.5 273zM1032 354q0 -121 61.5 -207t147.5 -86
q88 0 149.5 85.5t61.5 207.5q0 120 -62 206.5t-149 86.5q-89 0 -149.5 -83t-59.5 -210z" />
    <glyph glyph-name="ampersand" unicode="&#x26;" horiz-adv-x="1474" 
d="M1114 602q2 23 14 37t33 14t34 -13t13 -34q-1 -61 -41 -151t-88 -162q-4 -4 -5 -11t3 -12q86 -73 158 -123q82 -55 131 -55q47 0 47 -47q0 -20 -12.5 -32.5t-32.5 -12.5q-88 0 -188 68q-115 79 -158 120q-9 6 -17 5t-12 -5q-195 -211 -448 -211q-190 0 -312.5 102
t-128.5 300q-3 131 75.5 224.5t248.5 178.5q15 8 0 27q-149 195 -149 328q0 143 85 227t238 84q77 0 140.5 -27t102.5 -70t60 -92.5t21 -97.5q0 -72 -24.5 -132.5t-71 -108t-99 -83t-123.5 -71.5q-4 -2 -4.5 -8.5t4.5 -12.5q149 -178 373 -387q13 -10 23 4q36 48 71.5 122
t38.5 118zM543 70q117 0 206.5 45t174.5 139q8 10 -4 25q-234 215 -408 423q-13 16 -31 7q-156 -75 -215 -152t-59 -178q0 -143 97.5 -226t238.5 -83zM381 1137q1 -56 39.5 -132t101.5 -155q10 -12 16.5 -13t18.5 5q129 64 197.5 138t68.5 181q0 73 -60 134t-161 61
q-107 0 -165.5 -59.5t-55.5 -159.5z" />
    <glyph glyph-name="quotesingle" unicode="'" horiz-adv-x="450" 
d="M129 979l94 426q3 23 20.5 34.5t39.5 6.5q19 -4 30.5 -22.5t8.5 -37.5l-95 -428q-3 -23 -20 -34t-39 -6q-21 5 -32 22.5t-7 38.5z" />
    <glyph glyph-name="parenleft" unicode="(" horiz-adv-x="761" 
d="M154 569q0 309 103.5 559t262.5 347q19 14 41 14q21 0 34 -15.5t13 -37.5q0 -31 -35 -52q-142 -87 -229.5 -309t-87.5 -506q0 -285 92.5 -511t233.5 -310q26 -15 26 -47q0 -22 -15.5 -37.5t-37.5 -15.5q-16 0 -33 10q-164 97 -266 347.5t-102 563.5z" />
    <glyph glyph-name="parenright" unicode=")" horiz-adv-x="761" 
d="M608 569q0 -313 -102 -563.5t-266 -347.5q-17 -10 -33 -10q-22 0 -37.5 15.5t-15.5 37.5q0 32 26 47q141 84 233.5 310t92.5 511q0 283 -88 505.5t-230 309.5q-34 20 -34 52q0 22 13 37.5t34 15.5q22 0 41 -14q159 -97 262.5 -347t103.5 -559z" />
    <glyph glyph-name="asterisk" unicode="*" horiz-adv-x="948" 
d="M821 1178l-278 -86l174 -226q6 -9 6 -18q0 -19 -17.5 -35t-37.5 -16q-16 0 -27 14l-166 236l-164 -238q-15 -21 -35 -21t-36.5 15.5t-16.5 34.5q0 13 10 26l181 228q-50 14 -144.5 44t-136.5 42q-14 4 -22.5 16.5t-8.5 26.5q0 20 12.5 35.5t30.5 15.5q11 0 17 -2l276 -99
l-8 293q0 19 14.5 29t34.5 10t33.5 -10t13.5 -29l-8 -293l275 99q4 2 10 2q19 0 31 -16.5t12 -38.5q0 -31 -25 -39z" />
    <glyph glyph-name="plus" unicode="+" horiz-adv-x="1038" 
d="M469 246v313h-315q-22 0 -37 15.5t-15 35.5t15 34.5t37 14.5h315v318q0 22 14.5 36.5t34.5 14.5q21 0 36 -15t15 -36v-318h316q22 0 36.5 -14.5t14.5 -34.5q0 -21 -15 -36t-36 -15h-316v-313q0 -21 -15 -36t-36 -15q-20 0 -34.5 14.5t-14.5 36.5z" />
    <glyph glyph-name="comma" unicode="," horiz-adv-x="450" 
d="M172 70q0 34 23 58t57 24t57 -25.5t23 -69.5q0 -120 -43 -203t-96 -83q-35 0 -35 28q0 21 16 31q37 23 50.5 62.5t13.5 99.5q-29 5 -47.5 26t-18.5 52z" />
    <glyph glyph-name="hyphen" unicode="-" horiz-adv-x="671" 
d="M121 666h430q25 0 42 -17t17 -41q0 -23 -17 -40t-42 -17h-430q-25 0 -42.5 17t-17.5 40t17.5 40.5t42.5 17.5z" />
    <glyph glyph-name="period" unicode="." horiz-adv-x="450" 
d="M143 70q0 34 24 58t58 24q32 0 55 -24t23 -58t-23 -58t-55 -24q-34 0 -58 24t-24 58z" />
    <glyph glyph-name="slash" unicode="/" horiz-adv-x="770" 
d="M-25 49l732 1428q9 20 28.5 26.5t36.5 -2.5q19 -9 25 -29t-4 -40l-730 -1428q-10 -19 -30 -25t-37 3q-19 9 -24.5 28t3.5 39z" />
    <glyph glyph-name="zero" unicode="0" horiz-adv-x="1368" 
d="M102 719q0 212 73.5 380.5t206.5 263.5t302 95q168 0 301 -95t207 -263.5t74 -380.5t-74 -381.5t-207.5 -266t-300.5 -96.5q-168 0 -301.5 96.5t-207 266t-73.5 381.5zM213 715q0 -175 63 -323.5t172 -235t238 -86.5q128 0 237 86.5t172.5 235t63.5 323.5t-63.5 324
t-172.5 236t-237 87q-98 0 -185.5 -48.5t-151.5 -132.5t-100.5 -205.5t-35.5 -260.5z" />
    <glyph glyph-name="one" unicode="1" horiz-adv-x="593" 
d="M88 1317l274 117q20 10 35 10q25 0 39.5 -13.5t14.5 -37.5v-1342q0 -21 -15.5 -36t-36.5 -15q-20 0 -35.5 15.5t-15.5 35.5v1256q0 6 -4 9.5t-10 0.5l-209 -86q-12 -4 -16 -4q-19 0 -33.5 13.5t-14.5 31.5q0 33 27 45z" />
    <glyph glyph-name="two" unicode="2" horiz-adv-x="1148" 
d="M670 494l-389 -377q-5 -5 -4 -10t8 -5h710q21 0 36.5 -15t15.5 -36q0 -22 -15 -36.5t-37 -14.5h-839q-23 0 -38.5 14.5t-15.5 36.5q0 17 6 29t25 29l475 456q71 68 105.5 102.5t82 89.5t69 95t37.5 92.5t16 108.5q0 147 -82 227t-234 80q-234 0 -389 -234
q-10 -17 -30.5 -21t-37.5 7q-15 11 -18.5 31t6.5 37q180 274 469 274q197 0 311.5 -103t114.5 -298q0 -63 -16.5 -120.5t-40.5 -102.5t-69 -98.5t-83.5 -92.5t-101.5 -100q-10 -10 -16 -15.5t-15 -14t-16 -15.5z" />
    <glyph glyph-name="three" unicode="3" horiz-adv-x="1105" 
d="M459 743q-18 0 -30.5 16t-12.5 38q0 12 12 32l434 492q4 3 2.5 7.5t-8.5 4.5h-688q-24 0 -38.5 13t-14.5 34q0 23 15 38.5t38 15.5h788q22 0 37 -15.5t15 -38.5q0 -30 -11 -41l-430 -487q-4 -4 -3 -7t5 -3q218 -19 341.5 -131.5t123.5 -300.5q0 -196 -125.5 -315.5
t-343.5 -119.5q-283 0 -477 226q-15 17 -16.5 35.5t8.5 30.5t24 18.5t32 2.5t32 -20q86 -95 179 -145.5t220 -50.5q175 0 267 90.5t92 247.5q0 142 -103.5 237.5t-283.5 95.5h-80z" />
    <glyph glyph-name="four" unicode="4" horiz-adv-x="1232" 
d="M844 51v283q0 14 -15 14h-727q-41 0 -41 39q0 20 15 43l778 995q15 19 41 19q19 0 33 -15t14 -36v-938q0 -15 12 -15h170q20 0 33.5 -13.5t13.5 -33.5q0 -19 -13.5 -32t-33.5 -13h-170q-12 0 -12 -14v-283q0 -21 -14 -36t-33 -15q-22 0 -36.5 14.5t-14.5 36.5zM213 440
h616q15 0 15 15v796q0 12 -10 2l-625 -800q-3 -3 -2.5 -8t6.5 -5z" />
    <glyph glyph-name="five" unicode="5" horiz-adv-x="1130" 
d="M299 1434h659q22 0 37 -15t15 -37q0 -20 -15 -35.5t-37 -15.5h-612q-10 0 -12 -12l-64 -510q0 -6 4 -8t7 0q152 71 292 71q233 0 359.5 -116.5t126.5 -333.5q0 -207 -131.5 -327t-347.5 -120q-280 0 -494 228q-12 12 -13.5 29t6.5 30.5t20.5 22.5t30 7t32.5 -18
q93 -96 192.5 -149t225.5 -53q174 0 274 92.5t100 257.5q0 174 -96.5 264t-284.5 90q-164 0 -299 -76q-27 -16 -59 -16q-48 0 -45 57l80 643q1 23 16.5 36.5t32.5 13.5z" />
    <glyph glyph-name="six" unicode="6" horiz-adv-x="1138" 
d="M172 686v-41q0 -9 4.5 -9.5t7.5 5.5q67 109 175 176.5t229 67.5q205 0 342 -126.5t137 -328.5q0 -124 -65 -229t-175.5 -165.5t-238.5 -60.5q-247 0 -381.5 188t-134.5 523q0 153 38 292t107.5 246t176 170.5t233.5 63.5q98 0 191 -37t165 -100q23 -18 17.5 -47.5
t-28 -40.5t-46.5 4q-147 125 -299 125q-104 0 -191 -56t-144 -150t-88.5 -215.5t-31.5 -254.5zM213 430q0 -157 109 -257.5t266 -100.5q155 0 266 105t111 253q0 158 -108 259.5t-269 101.5q-154 0 -264.5 -106.5t-110.5 -254.5z" />
    <glyph glyph-name="seven" unicode="7" horiz-adv-x="1046" 
d="M92 1434h862q22 0 37 -15.5t15 -38.5q0 -26 -9 -41l-616 -1308q-9 -19 -30 -26.5t-40 1.5t-25 29t3 39l585 1233q12 24 -14 24h-768q-22 0 -36.5 13.5t-14.5 35.5q0 23 14.5 38.5t36.5 15.5z" />
    <glyph glyph-name="eight" unicode="8" horiz-adv-x="1155" 
d="M72 377q0 129 57 217t182 139q8 3 6 9t-8 8q-101 48 -144.5 127t-43.5 200q0 174 120 275.5t337 101.5q216 0 336 -101.5t120 -275.5q0 -115 -45 -199.5t-139 -125.5q-23 -10 -2 -19q124 -53 179.5 -139.5t55.5 -216.5q0 -183 -133 -290t-370 -107q-238 0 -373 107
t-135 290zM176 385q0 -154 106.5 -231.5t295.5 -77.5q186 0 293.5 77.5t107.5 231.5q0 141 -109.5 222t-291.5 81q-184 0 -293 -81t-109 -222zM223 1067q0 -134 97 -209.5t260 -75.5q161 0 256.5 76t95.5 209q0 146 -93 218.5t-259 72.5q-167 0 -262 -72.5t-95 -218.5z" />
    <glyph glyph-name="nine" unicode="9" horiz-adv-x="1140" 
d="M969 733v43q0 10 -5 10.5t-8 -6.5q-67 -109 -175 -177t-230 -68q-203 0 -341 130t-138 332q0 124 65 230.5t175.5 168.5t238.5 62q248 0 383 -187.5t135 -522.5q0 -122 -24 -236t-71.5 -211.5t-113 -170t-155.5 -114t-193 -41.5q-96 0 -190 38t-166 100
q-22 18 -16.5 47.5t27.5 40.5t46 -4q75 -62 146 -93.5t153 -31.5q104 0 191 53.5t144.5 145t89.5 211t32 251.5zM928 989q0 158 -110.5 265.5t-266.5 107.5q-154 0 -263.5 -108t-109.5 -257q0 -159 106.5 -263.5t266.5 -104.5q155 0 266 106t111 254z" />
    <glyph glyph-name="colon" unicode=":" horiz-adv-x="450" 
d="M143 70q0 34 24 58t58 24q32 0 55 -24t23 -58t-23 -58t-55 -24q-34 0 -58 24t-24 58zM143 780q0 34 24 57t58 23q32 0 55 -23t23 -57t-23 -58t-55 -24q-34 0 -58 24t-24 58z" />
    <glyph glyph-name="semicolon" unicode=";" horiz-adv-x="450" 
d="M172 780q0 34 23 57t57 23q33 0 56.5 -23.5t23.5 -56.5q0 -34 -24 -58t-56 -24q-34 0 -57 24t-23 58zM172 70q0 34 23 58t57 24t57 -25.5t23 -69.5q0 -120 -43 -203t-96 -83q-35 0 -35 28q0 21 16 31q37 23 50.5 62.5t13.5 99.5q-29 5 -47.5 26t-18.5 52z" />
    <glyph glyph-name="less" unicode="&#x3c;" horiz-adv-x="1087" 
d="M860 174l-676 352q-30 13 -30 45t30 47l676 353q12 6 25 6q22 0 35.5 -13.5t13.5 -33.5q0 -33 -29 -49l-594 -310l594 -307q29 -16 29 -49q0 -20 -13.5 -33.5t-35.5 -13.5q-13 0 -25 6z" />
    <glyph glyph-name="equal" unicode="=" horiz-adv-x="1046" 
d="M160 764h735q22 0 36.5 -14.5t14.5 -34.5q0 -22 -14.5 -36.5t-36.5 -14.5h-735q-22 0 -36.5 14.5t-14.5 36.5q0 20 14.5 34.5t36.5 14.5zM160 465h735q21 0 36 -15t15 -36q0 -20 -14.5 -34.5t-36.5 -14.5h-735q-22 0 -36.5 14.5t-14.5 34.5q0 21 15 36t36 15z" />
    <glyph glyph-name="greater" unicode="&#x3e;" horiz-adv-x="1087" 
d="M903 526l-676 -352q-12 -6 -24 -6q-22 0 -35.5 13.5t-13.5 33.5q0 33 28 49l594 307l-594 310q-28 16 -28 49q0 20 13.5 33.5t35.5 13.5q12 0 24 -6l676 -353q31 -16 31 -47t-31 -45z" />
    <glyph glyph-name="question" unicode="?" horiz-adv-x="1044" 
d="M530 416q0 -47 -45 -47q-41 0 -41 47q0 54 4 93.5t17 79.5t35.5 69t60.5 54.5t92 43.5q100 34 156.5 111t56.5 182q0 126 -99 216.5t-232 90.5q-124 0 -212.5 -51.5t-172.5 -141.5q-13 -16 -39 -16q-23 0 -36.5 14t-13.5 35q0 17 13 33q189 223 461 223q178 0 308 -116.5
t130 -286.5q0 -265 -285 -373q-89 -34 -123.5 -89t-34.5 -171zM420 59q0 29 20.5 49.5t48.5 20.5t48 -20.5t20 -49.5t-20 -49t-48 -20t-48.5 20t-20.5 49z" />
    <glyph glyph-name="at" unicode="@" horiz-adv-x="1984" 
d="M1493 139q-101 0 -175 48.5t-95 140.5q-70 -77 -163 -124.5t-186 -47.5q-149 0 -242 100.5t-93 251.5q0 133 63 250t173.5 188.5t240.5 71.5q91 0 164 -38.5t118 -107.5l15 72q6 35 47 35q23 0 39 -12.5t16 -34.5v-8l-69 -373q-23 -115 -23 -160q0 -68 49 -107.5
t121 -39.5q107 0 196 107t89 270q0 58 -13 123t-42.5 136t-72.5 138t-108 127.5t-143.5 106t-184.5 72t-227 26.5q-173 0 -321.5 -65t-248.5 -174t-156 -252t-56 -298q0 -170 64 -318.5t171 -250.5t248.5 -160.5t294.5 -58.5q146 0 291 44t219 89q25 14 37 14q21 0 34 -14.5
t13 -36.5q0 -15 -7.5 -25t-35.5 -30q-89 -62 -242.5 -104t-308.5 -42q-173 0 -333.5 66.5t-281.5 182.5t-193.5 284.5t-72.5 359.5q0 175 63.5 336.5t176.5 285t281 197.5t364 74q136 0 256 -30.5t209 -82.5t162.5 -121.5t122.5 -146t82.5 -158t48 -155t14.5 -139.5
q0 -104 -35.5 -196.5t-91.5 -153.5t-125 -96.5t-137 -35.5zM1249 659q0 111 -64.5 182.5t-168.5 71.5q-97 0 -184.5 -58.5t-139 -152.5t-51.5 -194q0 -109 64 -178.5t169 -69.5q102 0 189.5 57.5t136.5 149t49 192.5z" />
    <glyph glyph-name="A" unicode="A" horiz-adv-x="1437" 
d="M66 76l596 1337q13 31 59 31t57 -31l594 -1337q4 -16 4 -23q0 -23 -13 -38t-36 -15q-15 0 -29 9t-20 24l-191 434q-10 20 -20 20h-700q-11 0 -21 -20l-188 -434q-16 -33 -49 -33q-21 0 -34.5 16t-13.5 37q0 13 5 23zM696 1272l-290 -666q-13 -26 16 -26h590q27 0 14 26
l-291 666q-8 17 -20.5 16t-18.5 -16z" />
    <glyph glyph-name="B" unicode="B" horiz-adv-x="1366" 
d="M797 0h-549q-37 0 -60.5 23.5t-23.5 58.5v1268q0 35 24 59.5t58 24.5h465q212 0 321 -95.5t109 -271.5q0 -116 -47 -203.5t-148 -126.5q140 -36 223.5 -125.5t83.5 -230.5q0 -172 -123 -276.5t-333 -104.5zM758 680h-465q-27 0 -27 -29v-524q0 -29 27 -29h504
q167 0 259.5 77t92.5 206q0 105 -50.5 173.5t-135.5 97t-205 28.5zM293 778h438q165 0 236 76.5t71 212.5q0 268 -327 268h-418q-27 0 -27 -28v-500q0 -29 27 -29z" />
    <glyph glyph-name="C" unicode="C" horiz-adv-x="1392" 
d="M1221 266q13 13 32 13t33 -15t14 -37q0 -20 -14 -34q-115 -110 -230.5 -163t-279.5 -53q-194 0 -348 95t-240 264t-86 381t86 381.5t240 264.5t348 95q154 0 269 -46t231 -148q22 -18 22 -47q0 -21 -15 -36.5t-38 -15.5q-20 0 -33 13q-184 184 -436 184
q-165 0 -294.5 -84t-200 -231t-70.5 -330t70.5 -329.5t200 -230t294.5 -83.5q142 0 243 47t202 145z" />
    <glyph glyph-name="D" unicode="D" horiz-adv-x="1443" 
d="M293 98h364q136 0 247.5 49.5t183 135t110.5 197t39 237.5t-38 237.5t-109.5 196.5t-182.5 134.5t-248 49.5h-366q-27 0 -27 -28v-1180q0 -29 27 -29zM246 1434h411q161 0 292 -56.5t216 -154t130.5 -227.5t45.5 -279t-46.5 -279t-132 -227.5t-216 -154t-289.5 -56.5
h-409q-37 0 -60.5 23.5t-23.5 58.5v1268q0 35 24 59.5t58 24.5z" />
    <glyph glyph-name="E" unicode="E" horiz-adv-x="1216" 
d="M1065 0h-815q-38 0 -62 23t-24 59v1268q0 35 24.5 59.5t59.5 24.5h807q20 0 34.5 -15t14.5 -35t-14.5 -34.5t-34.5 -14.5h-758q-29 0 -29 -28v-500q0 -29 29 -29h608q19 0 33 -14.5t14 -34.5t-14 -34.5t-33 -14.5h-608q-29 0 -29 -29v-524q0 -29 29 -29h768
q20 0 34.5 -14.5t14.5 -34.5t-14.5 -34.5t-34.5 -14.5z" />
    <glyph glyph-name="F" unicode="F" horiz-adv-x="1206" 
d="M248 1434h807q20 0 34.5 -15t14.5 -35t-14.5 -34.5t-34.5 -14.5h-758q-29 0 -29 -28v-521q0 -28 29 -28h627q20 0 34.5 -14.5t14.5 -34.5t-14.5 -35t-34.5 -15h-627q-29 0 -29 -28v-578q0 -22 -15.5 -37.5t-37.5 -15.5q-20 0 -35.5 15.5t-15.5 37.5v1297q0 35 24.5 59.5
t59.5 24.5z" />
    <glyph glyph-name="G" unicode="G" horiz-adv-x="1486" 
d="M1233 207v444q0 29 -29 29h-370q-20 0 -35 14.5t-15 34.5t15 34.5t35 14.5h417q38 0 60 -25t22 -61v-504q0 -48 -28 -65q-244 -146 -527 -146q-195 0 -349.5 95t-240.5 264t-86 381q0 213 86 382t240.5 264t349.5 95q152 0 268.5 -46.5t229.5 -147.5q24 -17 24 -47
q0 -21 -16 -36.5t-37 -15.5q-20 0 -33 13q-184 184 -436 184q-165 0 -295 -84t-201 -231t-71 -330t71 -329.5t201 -230t295 -83.5q141 0 257 31.5t186 76.5q12 6 12 25z" />
    <glyph glyph-name="H" unicode="H" horiz-adv-x="1431" 
d="M1163 807v573q0 22 16 38t38 16q20 0 35.5 -16t15.5 -38v-1327q0 -22 -15.5 -37.5t-35.5 -15.5q-22 0 -38 15.5t-16 37.5v602q0 29 -28 29h-838q-29 0 -29 -29v-602q0 -22 -15.5 -37.5t-37.5 -15.5q-20 0 -35.5 15.5t-15.5 37.5v1327q0 22 15.5 38t35.5 16q22 0 37.5 -16
t15.5 -38v-573q0 -29 29 -29h838q28 0 28 29z" />
    <glyph glyph-name="I" unicode="I" horiz-adv-x="421" 
d="M164 53v1327q0 22 15.5 38t35.5 16q22 0 37.5 -16t15.5 -38v-1327q0 -22 -15.5 -37.5t-37.5 -15.5q-20 0 -35.5 15.5t-15.5 37.5z" />
    <glyph glyph-name="J" unicode="J" horiz-adv-x="989" 
d="M41 162q0 22 14.5 36.5t34.5 14.5t43 -23q107 -116 279 -116q141 0 225 80.5t84 220.5v1005q0 22 15.5 38t35.5 16q22 0 37.5 -16t15.5 -38v-997q0 -199 -111 -302.5t-304 -103.5q-108 0 -202.5 40.5t-158.5 115.5q-8 11 -8 29z" />
    <glyph glyph-name="K" unicode="K" horiz-adv-x="1177" 
d="M399 748l699 -664q17 -15 18 -35t-14 -37q-14 -12 -34 -13t-34 11l-735 701q-9 8 -20 2.5t-11 -17.5v-643q0 -22 -15.5 -37.5t-37.5 -15.5q-20 0 -35.5 15.5t-15.5 37.5v1327q0 22 15.5 38t35.5 16q22 0 37.5 -16t15.5 -38v-549q0 -13 9.5 -15t21.5 7l719 598
q14 12 34.5 11t32.5 -15q14 -15 13.5 -36.5t-17.5 -34.5l-682 -558q-23 -20 0 -40z" />
    <glyph glyph-name="L" unicode="L" horiz-adv-x="1011" 
d="M268 1380v-1253q0 -29 29 -29h606q19 0 33 -14.5t14 -34.5t-14 -34.5t-33 -14.5h-690q-21 0 -35 14t-14 39v1327q0 22 15.5 38t35.5 16q22 0 37.5 -16t15.5 -38z" />
    <glyph glyph-name="M" unicode="M" horiz-adv-x="1703" 
d="M788 393l-475 785q-3 5 -7 6.5t-6.5 -0.5t-2.5 -6l-70 -1125q0 -22 -15.5 -37.5t-37.5 -15.5q-20 0 -35.5 15.5t-15.5 37.5l82 1327q0 24 15 39t36 15q28 0 47 -29l520 -875q3 -4 8.5 -4t8.5 4l524 875q18 29 45 29q22 0 37.5 -16t15.5 -38l82 -1327q0 -22 -15.5 -37.5
t-37.5 -15.5t-36.5 15.5t-14.5 37.5l-72 1118q0 5 -5.5 5t-8.5 -5l-475 -778q-17 -28 -45 -28t-46 28z" />
    <glyph glyph-name="N" unicode="N" horiz-adv-x="1515" 
d="M1260 18l-971 1196q-4 5 -9 6.5t-8.5 -0.5t-3.5 -8v-1159q0 -22 -15.5 -37.5t-37.5 -15.5q-20 0 -35.5 15.5t-15.5 37.5v1327q0 24 15 39t36 15t45 -27l965 -1190q5 -7 10 -9t8.5 0.5t3.5 8.5v1163q0 22 15.5 38t37.5 16q20 0 36 -16t16 -38v-1327q0 -23 -14 -38t-35 -15
q-29 0 -43 18z" />
    <glyph glyph-name="O" unicode="O" horiz-adv-x="1574" 
d="M102 717q0 214 84.5 382t240.5 263.5t359 95.5q204 0 361 -95.5t241.5 -263.5t84.5 -382q0 -220 -87 -388.5t-243 -260t-357 -91.5q-198 0 -354 95t-243 263.5t-87 381.5zM209 717q0 -182 72 -328.5t204.5 -230.5t300.5 -84q259 0 419.5 178t160.5 465q0 184 -70.5 330
t-203.5 230.5t-306 84.5q-172 0 -304 -84t-202.5 -230.5t-70.5 -330.5z" />
    <glyph glyph-name="P" unicode="P" horiz-adv-x="1247" 
d="M696 1335h-403q-27 0 -27 -28v-615q0 -28 27 -28h377q195 0 293 88.5t98 246.5q0 160 -94 248t-271 88zM266 537v-484q0 -22 -15.5 -37.5t-37.5 -15.5q-19 0 -34 16t-15 37v1297q0 35 24 59.5t58 24.5h452q224 0 345.5 -115.5t121.5 -319.5q0 -196 -128 -315t-369 -119
h-375q-27 0 -27 -28z" />
    <glyph glyph-name="Q" unicode="Q" horiz-adv-x="1574" 
d="M1380 -37l-145 143q-15 15 -33 3q-166 -132 -416 -132q-198 0 -354 95t-243 263.5t-87 381.5q0 214 84.5 382t240.5 263.5t359 95.5q204 0 361 -95.5t241.5 -263.5t84.5 -382q0 -310 -162 -504q-6 -6 -7 -17.5t9 -23.5l135 -129q14 -15 15.5 -36.5t-11.5 -39.5
q-12 -15 -34.5 -17t-37.5 13zM209 717q0 -182 72 -328.5t204.5 -230.5t300.5 -84q199 0 334 100q25 21 0 43l-174 174q-15 14 -16 36.5t12 37.5q13 17 34 18.5t36 -12.5l184 -184q13 -11 23.5 -10t17.5 10q62 78 95.5 197t33.5 251q0 175 -70 317t-203.5 226t-306.5 84
q-172 0 -304 -84t-202.5 -230.5t-70.5 -330.5z" />
    <glyph glyph-name="R" unicode="R" horiz-adv-x="1267" 
d="M592 565h-299q-27 0 -27 -28v-484q0 -22 -15.5 -37.5t-37.5 -15.5q-19 0 -34 16t-15 37v1297q0 35 24 59.5t58 24.5h452q229 0 348 -113t119 -322q0 -186 -108.5 -296t-306.5 -132q-4 0 -7 -3t0 -9l347 -469q14 -17 14 -39t-14 -37q-15 -14 -37 -13.5t-35 15.5l-404 537
q-9 12 -22 12zM293 664h377q195 0 293 88.5t98 246.5q0 165 -91 250.5t-270 85.5h-407q-27 0 -27 -28v-615q0 -28 27 -28z" />
    <glyph glyph-name="S" unicode="S" horiz-adv-x="1163" 
d="M563 1458q134 0 225 -35.5t175 -95.5q49 -37 49 -74q0 -20 -12 -33.5t-27 -13.5q-17 0 -28.5 5.5t-31.5 21.5q-156 129 -354 129q-159 0 -246.5 -76.5t-87.5 -202.5q0 -125 87 -194.5t311 -118.5q239 -52 343.5 -144t104.5 -259q0 -178 -124 -284t-329 -106
q-259 0 -487 203q-39 34 -39 66q0 21 11.5 36t31.5 15q12 0 21.5 -4t14.5 -8.5t17 -16.5q194 -194 435 -194q161 0 254.5 76.5t93.5 205.5q0 87 -33 142.5t-116.5 97t-237.5 74.5q-114 24 -194 54.5t-143 78t-93.5 116.5t-30.5 162q0 163 119 270t321 107z" />
    <glyph glyph-name="T" unicode="T" horiz-adv-x="1206" 
d="M551 53v1254q0 28 -29 28h-411q-20 0 -35 14.5t-15 34.5t15 35t35 15h987q20 0 33.5 -14.5t13.5 -35.5q0 -20 -13.5 -34.5t-33.5 -14.5h-414q-29 0 -29 -28v-1254q0 -22 -14.5 -37.5t-36.5 -15.5t-37.5 15.5t-15.5 37.5z" />
    <glyph glyph-name="U" unicode="U" horiz-adv-x="1456" 
d="M164 604v776q0 22 15.5 38t35.5 16t35.5 -16t15.5 -38v-786q0 -244 124 -382t337 -138q215 0 340 142.5t125 377.5v786q0 22 14 38t35 16t36 -16t15 -38v-770q0 -184 -66 -326.5t-195.5 -224.5t-303.5 -82q-258 0 -410.5 167t-152.5 460z" />
    <glyph glyph-name="V" unicode="V" horiz-adv-x="1359" 
d="M1292 1358l-557 -1338q-7 -17 -23 -25t-34 -5q-18 -3 -34.5 5t-22.5 25l-555 1338q-8 22 -1 42.5t25 29.5q20 8 39.5 -0.5t28.5 -28.5l518 -1270q1 -3 3 -4.5t4.5 -0.5t4.5 5l512 1270q9 20 29.5 28.5t40.5 0.5q18 -9 24.5 -29.5t-2.5 -42.5z" />
    <glyph glyph-name="W" unicode="W" horiz-adv-x="2031" 
d="M1446 29l-416 1188q-2 5 -6 5t-6 -5l-434 -1192q-6 -16 -19.5 -25.5t-27.5 -9.5q-18 -2 -33 7.5t-19 27.5l-419 1339q-5 15 -5 16q0 22 16 38t36 16q16 0 30.5 -9.5t18.5 -23.5l370 -1217q2 -3 4.5 -3.5t4.5 3.5l432 1202q13 41 51 41q37 0 47 -34l424 -1209q1 -3 2.5 -4
t3 0t2.5 4l371 1217q13 33 47 33q21 0 35 -16t14 -38q0 -10 -2 -16l-424 -1337q-13 -37 -49 -37q-35 0 -49 39z" />
    <glyph glyph-name="X" unicode="X" horiz-adv-x="1290" 
d="M1167 1346l-446 -596q-12 -12 -12 -21q0 -10 12 -22l465 -617q12 -16 12 -35q0 -21 -15.5 -39t-35.5 -18q-23 0 -39 22l-453 615h2q-6 6 -14 6q-7 0 -10 -6l-455 -615q-16 -22 -37 -22q-20 0 -35.5 17t-15.5 40q0 20 12 35l463 623q6 12 6 16t-6 16l-446 601
q-10 20 -10 34q0 22 15 40t34 18q21 0 37 -23l436 -588q8 -8 10 -8q8 0 16 8h-2l437 588q15 23 36 23q20 0 36 -18t16 -40q0 -12 -13 -34z" />
    <glyph glyph-name="Y" unicode="Y" horiz-adv-x="1286" 
d="M1214 1350l-516 -803q-6 -8 -6 -23v-471q0 -22 -15.5 -37.5t-35.5 -15.5q-21 0 -35 15.5t-14 37.5v473q0 14 -6 23l-516 801q-11 17 -7 39t21 34t37.5 8.5t32.5 -20.5l473 -760q13 -21 28 0l475 760q10 17 32.5 20.5t37.5 -8.5q18 -12 22 -34t-8 -39z" />
    <glyph glyph-name="Z" unicode="Z" horiz-adv-x="1294" 
d="M186 1434h940q21 0 35.5 -12.5t14.5 -32.5q0 -19 -15 -39l-899 -1221q-6 -9 -0.5 -21t17.5 -12h868q20 0 32.5 -14t12.5 -35q0 -20 -12.5 -33.5t-32.5 -13.5h-1000q-19 0 -32 13.5t-13 33.5q0 11 13 37l897 1221q6 8 -0.5 20t-20.5 12h-805q-20 0 -34.5 13.5t-14.5 33.5
t14.5 35t34.5 15z" />
    <glyph glyph-name="bracketleft" unicode="[" horiz-adv-x="768" 
d="M565 -305h-325q-38 0 -62 23t-24 59v1593q0 35 24.5 59.5t59.5 24.5h317q20 0 34.5 -14.5t14.5 -34.5t-14.5 -34.5t-34.5 -14.5h-268q-29 0 -29 -29v-1505q0 -29 29 -29h278q20 0 34.5 -14.5t14.5 -34.5t-14.5 -34.5t-34.5 -14.5z" />
    <glyph glyph-name="backslash" unicode="\" horiz-adv-x="770" 
d="M63 1477l732 -1428q9 -20 3.5 -39t-24.5 -28q-17 -9 -37 -3t-30 25l-730 1428q-10 20 -4 40t25 29q17 9 36.5 2.5t28.5 -26.5z" />
    <glyph glyph-name="bracketright" unicode="]" horiz-adv-x="768" 
d="M528 -305h-325q-20 0 -34.5 14.5t-14.5 34.5t14.5 34.5t34.5 14.5h278q29 0 29 29v1505q0 29 -29 29h-268q-20 0 -34.5 14.5t-14.5 34.5t14.5 34.5t34.5 14.5h317q35 0 59.5 -24.5t24.5 -59.5v-1593q0 -36 -24 -59t-62 -23z" />
    <glyph glyph-name="asciicircum" unicode="^" horiz-adv-x="1003" 
d="M516 1417l236 -305q10 -13 10 -33q0 -21 -14 -36t-35 -15q-26 0 -41 21l-199 256l-197 -256q-15 -21 -43 -21q-20 0 -33.5 15t-13.5 36q0 19 11 33l235 305q16 19 41 19q24 0 43 -19z" />
    <glyph glyph-name="underscore" unicode="_" horiz-adv-x="1204" 
d="M0 -233l1217 -3v-106l-1217 2v107z" />
    <glyph glyph-name="grave" unicode="`" horiz-adv-x="301" 
d="M215 1229l-188 137q-21 12 -25.5 34t6.5 42q12 17 35.5 21t42.5 -7l186 -139q21 -10 26 -33t-9 -43q-10 -17 -33 -20t-41 8z" />
    <glyph glyph-name="a" unicode="a" horiz-adv-x="1099" 
d="M82 311q0 158 113.5 245t334.5 87q130 0 310 -27q28 -6 28 23q0 169 -80.5 247.5t-255.5 78.5q-166 0 -296 -109q-8 -8 -25 -8q-19 0 -34 14.5t-15 34.5q0 18 18 33q168 129 352 129q225 0 330 -105.5t105 -314.5v-588q0 -21 -14 -36t-33 -15q-22 0 -37 14.5t-15 36.5v88
q0 25 -16 6q-67 -80 -164.5 -124t-214.5 -44q-176 0 -283.5 87t-107.5 247zM186 322q0 -123 80.5 -187.5t214.5 -64.5q126 0 236.5 68t150.5 186v172q0 27 -26 32q-129 25 -305 25q-351 0 -351 -231z" />
    <glyph glyph-name="b" unicode="b" horiz-adv-x="1222" 
d="M143 51v1403q0 22 15 36.5t37 14.5q18 0 31.5 -15t13.5 -36v-596q0 -10 5 -11.5t9 5.5q55 93 151.5 150t215.5 57q230 0 369.5 -148.5t139.5 -394.5q0 -248 -139 -393.5t-358 -145.5q-124 0 -219.5 55.5t-157.5 149.5q-4 8 -10 7t-6 -11v-127q0 -21 -13.5 -36t-31.5 -15
q-22 0 -37 14.5t-15 36.5zM233 522q0 -188 115 -320t283 -132q177 0 286 116.5t109 329.5q0 201 -110.5 325t-284.5 124q-175 0 -286.5 -126.5t-111.5 -316.5z" />
    <glyph glyph-name="c" unicode="c" horiz-adv-x="1095" 
d="M938 244q13 18 33 18q17 0 30 -13t13 -30q0 -10 -6 -22q-66 -103 -171.5 -161.5t-226.5 -58.5q-227 0 -372.5 149.5t-145.5 389.5t145.5 391.5t372.5 151.5q112 0 212.5 -51t166.5 -142q10 -15 10 -35q0 -21 -13.5 -36t-31.5 -15t-34 19q-136 166 -314 166
q-184 0 -296.5 -124.5t-112.5 -324.5q0 -201 115 -323.5t298 -122.5q96 0 182 46t146 128z" />
    <glyph glyph-name="d" unicode="d" horiz-adv-x="1222" 
d="M1079 1454v-1403q0 -22 -14.5 -36.5t-36.5 -14.5q-18 0 -31.5 15t-13.5 36v131q0 7 -3 8.5t-6.5 -1t-6.5 -7.5q-58 -94 -155.5 -149.5t-221.5 -55.5q-217 0 -357.5 150t-140.5 395q0 248 138 392.5t372 144.5q119 0 215.5 -57t151.5 -150q5 -7 9.5 -5.5t4.5 11.5v596
q0 21 13.5 36t31.5 15q22 0 36.5 -14.5t14.5 -36.5zM989 522q0 190 -111 316.5t-286 126.5q-176 0 -285.5 -121t-109.5 -322q0 -211 110.5 -331.5t284.5 -120.5q110 0 201.5 60.5t143.5 164.5t52 227z" />
    <glyph glyph-name="e" unicode="e" horiz-adv-x="1128" 
d="M938 215q18 18 39 18q20 0 34.5 -13t14.5 -32q0 -18 -14 -32q-78 -84 -185.5 -131.5t-228.5 -47.5q-224 0 -365 151.5t-141 393.5q0 240 136 388.5t352 148.5q217 0 342 -141.5t125 -393.5q0 -19 -13 -32t-33 -13h-772q-16 0 -23 -12t-5 -23q25 -172 130 -273t267 -101
q192 0 340 145zM580 965q-153 0 -250 -95t-127 -266q-2 -12 4.5 -23.5t21.5 -11.5h680q18 0 25.5 11.5t5.5 21.5q-25 176 -115.5 269.5t-244.5 93.5z" />
    <glyph glyph-name="f" unicode="f" horiz-adv-x="714" 
d="M627 1024q20 0 33.5 -13t13.5 -32q0 -20 -13.5 -33.5t-33.5 -13.5h-279q-12 0 -20.5 -8.5t-8.5 -20.5v-852q0 -22 -14.5 -36.5t-34.5 -14.5q-22 0 -35.5 14.5t-13.5 36.5v852q0 12 -8 20.5t-20 8.5h-95q-20 0 -33.5 13.5t-13.5 33.5q0 19 13.5 32t33.5 13h95q12 0 20 8.5
t8 20.5v133q0 141 66.5 219t189.5 78q46 0 100.5 -12.5t86.5 -34.5q20 -13 20 -35q0 -19 -12 -32t-31 -13q-8 0 -16 4q-65 29 -140 29q-81 0 -123.5 -52.5t-42.5 -150.5v-133q0 -12 8.5 -20.5t20.5 -8.5h279z" />
    <glyph glyph-name="g" unicode="g" horiz-adv-x="1222" 
d="M197 569q0 -167 112 -283t275 -116q162 0 283.5 119t121.5 278q0 164 -121.5 281t-287.5 117q-163 0 -273 -114.5t-110 -281.5zM985 150v131q0 8 -6 8q-4 0 -12 -8q-68 -95 -171 -149t-221 -54q-131 0 -242 65.5t-176 178.5t-65 247t65 247t176 178t242 65
q119 0 222.5 -52t169.5 -147q8 -12 12 -12q6 0 6 10v115q0 22 13 36.5t34 14.5q20 0 33.5 -14.5t13.5 -36.5v-823q0 -222 -132 -357t-353 -135q-228 0 -389 115q-23 16 -23 41q0 18 12.5 30.5t30.5 12.5q19 0 35 -13q121 -92 334 -92q179 0 285 105.5t106 292.5z" />
    <glyph glyph-name="h" unicode="h" 
d="M242 616v-565q0 -21 -14 -36t-33 -15q-22 0 -37 14.5t-15 36.5v1403q0 22 15 36.5t37 14.5q19 0 33 -15t14 -36v-588q0 -6 2 -8t5 -0.5t5 4.5q55 91 147 144t199 53q185 0 297.5 -122.5t112.5 -324.5v-561q0 -22 -13.5 -36.5t-33.5 -14.5q-22 0 -37 14.5t-15 36.5v561
q0 165 -87 259t-240 94q-81 0 -148.5 -35t-108.5 -88.5t-63 -112.5t-22 -113z" />
    <glyph glyph-name="i" unicode="i" horiz-adv-x="385" 
d="M143 51v922q0 21 14.5 36t35.5 15q20 0 34.5 -14.5t14.5 -36.5v-922q0 -22 -14.5 -36.5t-34.5 -14.5q-21 0 -35.5 15t-14.5 36zM125 1411q0 29 19.5 49.5t48.5 20.5q28 0 47.5 -20.5t19.5 -49.5t-19.5 -48.5t-47.5 -19.5q-29 0 -48.5 19.5t-19.5 48.5z" />
    <glyph glyph-name="j" unicode="j" horiz-adv-x="344" 
d="M-63 -297q0 20 11.5 33.5t28.5 13.5q86 0 116 37t30 113v1073q0 22 14.5 36.5t34.5 14.5t34.5 -14.5t14.5 -36.5v-1073q0 -36 -3.5 -64t-18 -63.5t-39.5 -58.5t-72.5 -39.5t-112.5 -16.5q-15 0 -26.5 12.5t-11.5 32.5zM104 1411q0 29 19.5 49.5t48.5 20.5q28 0 48 -20.5
t20 -49.5t-20 -48.5t-48 -19.5q-29 0 -48.5 19.5t-19.5 48.5z" />
    <glyph glyph-name="k" unicode="k" horiz-adv-x="1032" 
d="M254 623l590 409q15 17 34.5 17.5t32.5 -13.5q15 -15 16 -35.5t-14 -37.5l-534 -367q-13 -9 -12.5 -21.5t12.5 -23.5l557 -469q13 -17 12 -37.5t-16 -32.5q-17 -14 -38 -12.5t-34 18.5l-608 508q-3 3 -6.5 2.5t-3.5 -6.5v-471q0 -21 -14 -36t-33 -15q-22 0 -37 14.5
t-15 36.5v1395q0 22 15 36.5t37 14.5q19 0 33 -15t14 -36v-817q0 -15 12 -6z" />
    <glyph glyph-name="l" unicode="l" horiz-adv-x="385" 
d="M143 51v1403q0 22 14.5 36.5t35.5 14.5q20 0 34.5 -14.5t14.5 -36.5v-1403q0 -22 -14.5 -36.5t-34.5 -14.5q-21 0 -35.5 15t-14.5 36z" />
    <glyph glyph-name="m" unicode="m" horiz-adv-x="1835" 
d="M242 51q0 -21 -14 -36t-33 -15q-22 0 -37 14.5t-15 36.5v922q0 22 15 36.5t37 14.5q19 0 33 -15t14 -36v-113q0 -11 9 -2q3 3 5 6q56 90 140 142.5t184 52.5q124 0 213.5 -57.5t132.5 -161.5q6 -13 14 0q58 105 152.5 162t207.5 57q183 0 287.5 -121.5t104.5 -325.5v-561
q0 -21 -15 -36t-35 -15q-22 0 -35.5 14.5t-13.5 36.5v561q0 167 -79 260t-230 93q-76 0 -138 -32.5t-99 -85t-56.5 -113.5t-19.5 -122v-561q0 -22 -14.5 -36.5t-34.5 -14.5t-35 15t-15 36v561q0 167 -79 260t-230 93q-76 0 -139.5 -35t-101.5 -88.5t-59 -112.5t-21 -113
v-565z" />
    <glyph glyph-name="n" unicode="n" 
d="M242 51q0 -21 -14 -36t-33 -15q-22 0 -37 14.5t-15 36.5v922q0 22 15 36.5t37 14.5q19 0 33 -15t14 -36v-105q0 -7 3 -8t6.5 1.5t6.5 6.5q59 91 147.5 141t194.5 50q185 0 297.5 -122.5t112.5 -324.5v-561q0 -22 -13.5 -36.5t-33.5 -14.5q-22 0 -37 14.5t-15 36.5v561
q0 165 -87 259t-240 94q-81 0 -148 -35t-107.5 -88.5t-62.5 -112.5t-24 -113v-565z" />
    <glyph glyph-name="o" unicode="o" horiz-adv-x="1204" 
d="M92 516q0 240 144.5 391.5t367.5 151.5q220 0 364 -151.5t144 -391.5q0 -239 -144 -389t-364 -150q-223 0 -367.5 150t-144.5 389zM197 516q0 -200 114 -323t293 -123q176 0 290 123t114 323t-114.5 324.5t-289.5 124.5q-179 0 -293 -124t-114 -325z" />
    <glyph glyph-name="p" unicode="p" horiz-adv-x="1222" 
d="M143 -291v1264q0 22 15 36.5t37 14.5q18 0 31.5 -15t13.5 -36v-119q0 -7 3 -8.5t6.5 1t6.5 7.5q58 94 155.5 149.5t221.5 55.5q222 0 359.5 -147t137.5 -398q0 -248 -137.5 -392.5t-371.5 -144.5q-119 0 -215.5 57t-151.5 150q-4 7 -9 5.5t-5 -11.5v-469q0 -21 -13.5 -36
t-31.5 -15q-22 0 -37 14.5t-15 36.5zM233 514q0 -190 111.5 -317t286.5 -127q176 0 285.5 121.5t109.5 322.5q0 218 -107.5 334.5t-287.5 116.5q-168 0 -283 -131.5t-115 -319.5z" />
    <glyph glyph-name="q" unicode="q" horiz-adv-x="1222" 
d="M1079 973v-1264q0 -22 -14.5 -36.5t-36.5 -14.5q-18 0 -31.5 15t-13.5 36v469q0 10 -4.5 11.5t-9.5 -5.5q-55 -93 -151.5 -150t-215.5 -57q-234 0 -372 144.5t-138 392.5q0 251 138 398t360 147q124 0 221.5 -55.5t155.5 -149.5q3 -5 6.5 -7.5t6.5 -1t3 8.5v119
q0 21 13.5 36t31.5 15q22 0 36.5 -14.5t14.5 -36.5zM989 514q0 188 -114.5 319.5t-282.5 131.5q-180 0 -287.5 -116.5t-107.5 -334.5q0 -201 109.5 -322.5t285.5 -121.5q175 0 286 127t111 317z" />
    <glyph glyph-name="r" unicode="r" horiz-adv-x="690" 
d="M600 958q-81 0 -151 -32t-114 -82.5t-68.5 -110t-24.5 -117.5v-565q0 -21 -14 -36t-33 -15q-22 0 -37 14.5t-15 36.5v922q0 22 15 36.5t37 14.5q19 0 33 -15t14 -36v-113q0 -6 3.5 -7.5t6.5 3.5q52 92 145.5 147.5t202.5 55.5q21 0 35 -14t14 -35q0 -23 -14 -37.5
t-35 -14.5z" />
    <glyph glyph-name="s" unicode="s" horiz-adv-x="929" 
d="M504 590q191 -62 267.5 -132.5t76.5 -176.5q0 -135 -93.5 -219.5t-256.5 -84.5q-106 0 -217 50t-183 118q-16 16 -16 33q0 20 15 34.5t34 14.5t29 -10q178 -147 338 -147q119 0 183 58t64 153q0 70 -57 116.5t-213 96.5q-55 17 -85.5 27.5t-73 27.5t-65.5 31t-50 35
t-40.5 44t-22.5 53t-9 66q0 125 93 203t243 78q174 0 348 -123q25 -19 25 -43q0 -18 -13.5 -30.5t-33.5 -12.5q-17 0 -35 12q-141 103 -291 103q-109 0 -172.5 -51t-63.5 -136q0 -49 35 -83t73.5 -49.5t135.5 -45.5q6 -2 10 -3.5t10 -3t11 -3.5z" />
    <glyph glyph-name="t" unicode="t" horiz-adv-x="747" 
d="M666 98q13 0 21.5 -10t8.5 -25q0 -32 -32 -49q-68 -37 -154 -37q-268 0 -268 297v629q0 12 -8 20.5t-21 8.5h-94q-20 0 -33.5 13t-13.5 32q0 20 13.5 33.5t33.5 13.5h94q13 0 21 8.5t8 20.5v290q0 22 14 37t35 15q20 0 34.5 -15t14.5 -37v-290q0 -12 8 -20.5t21 -8.5h256
q20 0 33.5 -13.5t13.5 -33.5q0 -19 -13.5 -32t-33.5 -13h-256q-13 0 -21 -8.5t-8 -20.5v-637q0 -93 48.5 -144.5t139.5 -51.5q54 0 93.5 14t44.5 14z" />
    <glyph glyph-name="u" unicode="u" 
d="M1010 51q0 -22 -13.5 -36.5t-35.5 -14.5q-21 0 -35.5 15t-14.5 36v125q0 4 -1.5 5t-4 -0.5t-4.5 -4.5q-55 -92 -146.5 -145.5t-199.5 -53.5q-186 0 -299 121.5t-113 323.5v551q0 21 14.5 36t35.5 15q20 0 34.5 -14.5t14.5 -36.5v-551q0 -164 87.5 -258t241.5 -94
q65 0 122 23t95.5 60t67 83.5t41.5 93t14 88.5v555q0 21 14.5 36t35.5 15q22 0 35.5 -14.5t13.5 -36.5v-922z" />
    <glyph glyph-name="v" unicode="v" horiz-adv-x="1036" 
d="M979 952l-408 -929q-13 -31 -57 -31q-40 0 -53 31l-404 931q-9 20 -2 39.5t27 28.5q17 8 40 0t30 -27l354 -860q3 -7 8 -6.5t8 6.5l363 858q7 20 30 27.5t41 -0.5q19 -9 25.5 -28.5t-2.5 -39.5z" />
    <glyph glyph-name="w" unicode="w" horiz-adv-x="1574" 
d="M1102 23l-307 790q-3 6 -8.5 6t-8.5 -6l-309 -790q-11 -31 -53 -31q-46 0 -54 31l-309 931q-2 6 -2 17q0 21 13.5 37t35.5 16q15 0 30.5 -10t19.5 -23l264 -835q2 -5 4.5 -6.5t5 0t4.5 6.5l313 813q10 30 47 30q40 0 52 -30l305 -813q3 -9 9 -8.5t9 8.5l267 837
q4 12 17.5 21.5t25.5 9.5q23 0 37 -15t14 -36q0 -11 -2 -17l-316 -933q-11 -31 -51 -31q-45 0 -53 31z" />
    <glyph glyph-name="x" unicode="x" horiz-adv-x="1007" 
d="M899 950l-324 -399q-12 -16 0 -31l347 -438q13 -17 12 -38.5t-16 -33.5q-17 -14 -38 -11.5t-34 19.5l-324 418q-8 10 -19 10t-20 -10l-329 -420q-12 -15 -32.5 -17.5t-35.5 9.5q-12 12 -13 31.5t11 34.5l350 438q12 16 0 31l-317 399q-12 17 -10.5 38t18.5 34
q15 12 36.5 9.5t33.5 -17.5l294 -379q20 -24 39 0l301 381q10 13 30 16t32 -8q15 -13 17 -32t-9 -34z" />
    <glyph glyph-name="y" unicode="y" horiz-adv-x="1048" 
d="M991 956l-411 -1001q-62 -154 -142 -225.5t-194 -71.5q-105 0 -158 16q-35 11 -35 50q0 18 13 31.5t28 13.5q8 0 51 -9.5t111 -9.5q69 0 123.5 49t101.5 154l17 37q6 17 -4 39l-433 923q-9 20 -2 39.5t27 28.5q17 8 40 0t30 -27l387 -858q5 -9 11 -8.5t9 8.5l336 862
q7 20 30.5 27.5t41.5 -0.5q19 -9 25 -28.5t-3 -39.5z" />
    <glyph glyph-name="z" unicode="z" horiz-adv-x="1077" 
d="M940 0h-807q-17 0 -29 13.5t-12 31.5q0 19 10 31l707 842q5 4 2 10t-10 6h-660q-17 0 -30 13t-13 32t13 32t30 13h787q19 0 32 -13t13 -32q0 -15 -12 -31l-705 -835q-6 -7 -3.5 -15t11.5 -8h676q19 0 32 -13t13 -32t-13 -32t-32 -13z" />
    <glyph glyph-name="braceleft" unicode="{" horiz-adv-x="835" 
d="M631 -279q-125 0 -222.5 78.5t-97.5 200.5v408q0 60 -29.5 101.5t-70.5 41.5q-25 0 -41 14.5t-16 36.5t16 36.5t41 14.5q41 0 70.5 42t29.5 102v407q0 122 97.5 200.5t222.5 78.5q22 0 36.5 -14.5t14.5 -36.5t-14.5 -37t-36.5 -15q-86 0 -151.5 -49t-65.5 -127v-407
q0 -124 -78 -195q78 -75 78 -194v-408q0 -78 65.5 -127t151.5 -49q22 0 36.5 -14.5t14.5 -36.5t-14.5 -37t-36.5 -15z" />
    <glyph glyph-name="bar" unicode="|" horiz-adv-x="421" 
d="M164 -225v1655q0 22 15.5 37.5t35.5 15.5q22 0 37.5 -15.5t15.5 -37.5v-1655q0 -22 -15.5 -38t-37.5 -16q-20 0 -35.5 16t-15.5 38z" />
    <glyph glyph-name="braceright" unicode="}" horiz-adv-x="835" 
d="M205 -279q-22 0 -36.5 15t-14.5 37t14.5 36.5t36.5 14.5q86 0 151.5 49t65.5 127v408q0 119 78 194q-78 71 -78 195v407q0 78 -65.5 127t-151.5 49q-22 0 -36.5 15t-14.5 37t14.5 36.5t36.5 14.5q125 0 222 -78.5t97 -200.5v-407q0 -60 30 -102t71 -42q25 0 41 -14.5
t16 -36.5t-16 -36.5t-41 -14.5q-42 0 -71.5 -41.5t-29.5 -101.5v-408q0 -122 -97 -200.5t-222 -78.5z" />
    <glyph glyph-name="asciitilde" unicode="~" horiz-adv-x="1024" 
d="M164 1065v-696h696v696h-696zM102 307v819h820v-819h-820z" />
    <glyph glyph-name="nbspace" unicode="&#xa0;" horiz-adv-x="602" 
 />
    <glyph glyph-name="exclamdown" unicode="&#xa1;" horiz-adv-x="430" 
d="M162 -346l20 954q0 19 12 31t29 12t29 -12t12 -31l21 -954q0 -26 -18.5 -45t-43.5 -19t-43 19t-18 45zM287 965q0 -29 -21 -49.5t-49 -20.5t-47.5 20.5t-19.5 49.5t19.5 49t47.5 20t49 -20t21 -49z" />
    <glyph glyph-name="cent" unicode="&#xa2;" horiz-adv-x="1150" 
d="M537 51v125q0 20 -21 25q-182 34 -292.5 175t-110.5 355q0 205 111 349.5t292 181.5q21 3 21 26v105q0 22 14.5 36.5t34.5 14.5t34.5 -14.5t14.5 -36.5v-97q0 -22 20 -22q104 -6 198 -57t157 -136q10 -15 10 -34q0 -21 -13.5 -36.5t-31.5 -15.5q-19 0 -35 19
q-56 70 -132.5 117t-154.5 47q-18 0 -18 -23v-846q0 -24 20 -24q84 0 164.5 48.5t138.5 125.5q13 18 33 18q17 0 30 -13t13 -30q0 -10 -6 -22q-63 -99 -161 -157.5t-210 -64.5q-22 0 -22 -24v-115q0 -22 -14.5 -36.5t-34.5 -14.5t-34.5 14.5t-14.5 36.5zM215 731
q0 -164 81 -278.5t216 -151.5q2 -2 6 -2q19 0 19 27v819q0 18 -17 18h-8q-136 -35 -216.5 -151t-80.5 -281z" />
    <glyph glyph-name="sterling" unicode="&#xa3;" horiz-adv-x="1259" 
d="M348 748q-31 152 -31 260q0 205 121 326.5t334 121.5q106 0 206 -43.5t165 -120.5q14 -17 14 -37t-14 -33.5t-33 -13.5t-31 15q-126 139 -309 139q-166 0 -257 -96.5t-91 -255.5q0 -154 39 -279q5 -18 33 -18h448q22 0 36.5 -14.5t14.5 -34.5t-14.5 -35t-36.5 -15h-453
q-22 0 -22 -28q0 -106 -19.5 -229t-52.5 -224q-5 -23 0 -29t19 -6h696q19 0 33 -14.5t14 -34.5t-14 -34.5t-33 -14.5h-909q-22 0 -36.5 14.5t-14.5 34.5t14.5 34.5t36.5 14.5h47q24 0 35 25q37 95 59.5 223.5t22.5 239.5q0 28 -25 28h-139q-21 0 -36 15t-15 35t14.5 34.5
t36.5 14.5h129q24 0 18 35z" />
    <glyph glyph-name="yen" unicode="&#xa5;" horiz-adv-x="1357" 
d="M270 725h185q18 0 26 15t-2 30l-373 580q-11 17 -6.5 39t21.5 34t37 8.5t32 -20.5l474 -760q13 -21 28 0l475 760q10 17 32.5 20.5t37.5 -8.5q18 -12 22 -34t-8 -39l-370 -578q-11 -17 -5 -32t27 -15h189q23 0 38 -15t15 -36t-15 -36t-38 -15h-287q-22 0 -33 -19l-37 -57
q-6 -8 -6 -23v-71q0 -29 29 -29h334q23 0 38 -14t15 -35q0 -22 -15 -36.5t-38 -14.5h-334q-13 0 -21 -8.5t-8 -20.5v-242q0 -22 -15.5 -37.5t-35.5 -15.5q-21 0 -35 15.5t-14 37.5v242q0 13 -8.5 21t-20.5 8h-330q-23 0 -38 14.5t-15 36.5q0 21 15 35t38 14h330
q12 0 20.5 7.5t8.5 21.5v73q0 14 -6 23l-33 53q-12 21 -37 21h-283q-23 0 -38 15t-15 36t15 36t38 15z" />
    <glyph glyph-name="section" unicode="&#xa7;" horiz-adv-x="970" 
d="M152 498q0 93 54 163t148 99q-87 46 -124 102t-37 133q0 135 93.5 219t256.5 84q86 0 169.5 -29t147.5 -79q23 -18 16.5 -42.5t-30 -33t-47.5 3.5q-135 88 -256 88q-120 0 -185 -58t-65 -153q0 -69 58 -116t214 -97q55 -17 85.5 -27.5t73 -27.5t65.5 -31t50 -35t40.5 -44
t22.5 -53t9 -66q0 -95 -54 -164t-150 -98q88 -46 125.5 -103t37.5 -133q0 -135 -93.5 -219t-256.5 -84q-106 0 -216.5 50t-182.5 118q-21 20 -13.5 46t29.5 33.5t45 -7.5q179 -148 338 -148q120 0 185 58t65 153q0 69 -58 116t-214 97q-54 17 -85 28t-73 27.5t-65.5 31
t-50.5 35.5t-40.5 44t-22.5 53t-9 66zM250 498q0 -52 51.5 -97t126 -69.5t147.5 -24.5q109 0 173.5 52.5t64.5 138.5q0 59 -50.5 104t-123.5 65.5t-152 20.5q-109 0 -173 -52t-64 -138z" />
    <glyph glyph-name="dieresis" unicode="&#xa8;" horiz-adv-x="460" 
d="M0 1298q0 33 23.5 56.5t56.5 23.5q32 0 56 -24t24 -56q0 -33 -23.5 -56t-56.5 -23q-34 0 -57 22.5t-23 56.5zM301 1298q0 32 23 56t55 24q34 0 58 -24t24 -56q0 -33 -24 -56t-58 -23q-33 0 -55.5 22.5t-22.5 56.5z" />
    <glyph glyph-name="copyright" unicode="&#xa9;" horiz-adv-x="1837" 
d="M154 739q0 155 60.5 297t163 244.5t244 163.5t296.5 61t297 -61t244.5 -163.5t163 -244.5t60.5 -297t-60.5 -296.5t-163 -244t-244.5 -163t-297 -60.5t-296.5 60.5t-244 163t-163 244t-60.5 296.5zM236 739q0 -139 54 -265.5t145 -217.5t217.5 -145t265.5 -54t265.5 54
t218 145t146 217.5t54.5 265.5t-54.5 265.5t-146 218t-218 146t-265.5 54.5t-265.5 -54.5t-217.5 -146t-145 -218t-54 -265.5zM1221 430v-2q9 12 28 12q17 0 29 -12t12 -31t-14 -30h2q-84 -79 -165 -116.5t-198 -37.5q-209 0 -344 149t-135 377q0 229 135 378t344 149
q109 0 192 -33t165 -105q18 -22 18 -41q0 -16 -14 -29.5t-33 -13.5q-16 0 -29 13q-130 127 -299 127q-172 0 -280.5 -126.5t-108.5 -318.5t108.5 -317t280.5 -125q96 0 166.5 32.5t139.5 100.5z" />
    <glyph glyph-name="ordfeminine" unicode="&#xaa;" horiz-adv-x="790" 
d="M63 971q0 114 81 176.5t237 62.5q113 0 223 -20v6q0 113 -52 164t-169 51q-106 0 -199 -72q-8 -8 -22 -8q-16 0 -30.5 13t-14.5 32q0 21 20 31l-2 -2q117 90 248 90q159 0 233 -74.5t74 -224.5v-403q0 -19 -12 -31t-31 -12q-20 0 -31.5 12t-11.5 31v51
q-47 -51 -116.5 -81t-145.5 -30q-125 0 -202 62t-77 176zM156 979q0 -79 52.5 -121.5t137.5 -42.5q77 0 151.5 48t106.5 122v125q-110 18 -219 18q-229 0 -229 -149z" />
    <glyph glyph-name="guillemotleft" unicode="&#xab;" horiz-adv-x="1142" 
d="M121 477l371 285q15 12 34 12q18 0 32.5 -15.5t14.5 -35.5q3 -27 -22 -45l-322 -244l326 -250q18 -12 18 -43q0 -17 -14.5 -30t-32.5 -13q-23 0 -34 8l-371 285q-19 15 -19 43q0 30 19 43zM586 477l370 285q15 12 35 12q18 0 32.5 -15.5t14.5 -35.5q3 -27 -22 -45
l-322 -244l326 -250q18 -12 18 -43q0 -17 -14.5 -30t-32.5 -13q-24 0 -35 8l-370 285q-19 15 -19 43q0 30 19 43z" />
    <glyph glyph-name="registered" unicode="&#xae;" horiz-adv-x="1185" 
d="M143 1047q0 122 60.5 225t164 163t224.5 60q187 0 318.5 -131t131.5 -317t-131.5 -317.5t-318.5 -131.5q-121 0 -224.5 60t-164 163.5t-60.5 225.5zM211 1047q0 -157 112 -269t269 -112q158 0 270.5 112t112.5 269q0 158 -112.5 270.5t-270.5 112.5q-157 0 -269 -112.5
t-112 -270.5zM590 961h-105v-158q0 -33 -30 -33q-15 0 -25 9.5t-10 23.5v477q0 20 13 32.5t32 12.5h168q93 0 140.5 -45.5t47.5 -132.5q0 -66 -39 -116.5t-110 -61.5l125 -154q7 -10 -11 -39q-12 -8 -24 -9t-17 5zM487 1028h142q66 0 93.5 33.5t27.5 85.5q0 115 -117 115
l-148 -2q0 -40 1 -116t1 -116z" />
    <glyph glyph-name="macron" unicode="&#xaf;" horiz-adv-x="550" 
d="M55 1329h400q24 0 39.5 -13.5t15.5 -35.5t-16 -36.5t-39 -14.5h-400q-23 0 -39 14.5t-16 36.5t15.5 35.5t39.5 13.5z" />
    <glyph glyph-name="degree" unicode="&#xb0;" horiz-adv-x="913" 
d="M154 1149q0 125 88.5 213t214.5 88t214.5 -88t88.5 -213t-88.5 -213t-214.5 -88t-214.5 88t-88.5 213zM256 1149q0 -82 59 -143.5t142 -61.5q82 0 141 61t59 144t-59 144t-141 61q-83 0 -142 -61.5t-59 -143.5z" />
    <glyph glyph-name="plusminus" unicode="&#xb1;" horiz-adv-x="1124" 
d="M516 246v313h-315q-21 0 -36 15t-15 36q0 20 14.5 34.5t36.5 14.5h315v318q0 22 14.5 36.5t34.5 14.5q21 0 36 -15t15 -36v-318h316q22 0 36.5 -14.5t14.5 -34.5q0 -21 -15 -36t-36 -15h-316v-313q0 -21 -15 -36t-36 -15q-20 0 -34.5 14.5t-14.5 36.5zM201 100h731
q22 0 36.5 -14.5t14.5 -36.5q0 -20 -14.5 -34.5t-36.5 -14.5h-731q-22 0 -36.5 14.5t-14.5 34.5q0 22 14.5 36.5t36.5 14.5z" />
    <glyph glyph-name="acute" unicode="&#xb4;" horiz-adv-x="301" 
d="M274 1366l-188 -137q-18 -11 -41 -8t-33 20q-14 20 -9 43t26 33l186 139q19 11 42.5 7t35.5 -21q11 -20 6.5 -42t-25.5 -34z" />
    <glyph glyph-name="paragraph" unicode="&#xb6;" horiz-adv-x="1265" 
d="M862 53v1276h-203v-1276q0 -22 -15.5 -37.5t-37.5 -15.5q-20 0 -35.5 15.5t-15.5 37.5v439q-170 20 -285.5 153.5t-115.5 315.5q0 129 60.5 238t164.5 172t227 63h453q22 0 37.5 -16t15.5 -38q0 -20 -15.5 -35.5t-37.5 -15.5h-92v-1276q0 -22 -16 -37.5t-38 -15.5
q-20 0 -35.5 15.5t-15.5 37.5z" />
    <glyph glyph-name="periodcentered" unicode="&#xb7;" horiz-adv-x="450" 
d="M143 780q0 34 24 57t58 23q32 0 55 -23t23 -57t-23 -58t-55 -24q-34 0 -58 24t-24 58z" />
    <glyph glyph-name="cedilla" unicode="&#xb8;" horiz-adv-x="303" 
d="M12 -299q-12 9 -12 23q0 12 9.5 21t21.5 9q9 0 41 -17.5t59 -17.5q45 0 72.5 25t27.5 63q0 34 -30 61.5t-80 33.5q-6 0 -12.5 6.5t-6.5 15.5t2 13l25 63h59l-14 -43q57 -12 93 -54.5t36 -95.5q0 -61 -50.5 -105t-121.5 -44q-70 0 -119 43z" />
    <glyph glyph-name="ordmasculine" unicode="&#xba;" horiz-adv-x="876" 
d="M76 1112q0 169 101 276t259 107q155 0 257 -107t102 -276q0 -167 -102 -273t-257 -106q-158 0 -259 105.5t-101 273.5zM166 1112q0 -132 76 -213.5t194 -81.5q117 0 191.5 81.5t74.5 213.5q0 134 -74.5 216.5t-191.5 82.5q-118 0 -194 -82.5t-76 -216.5z" />
    <glyph glyph-name="guillemotright" unicode="&#xbb;" horiz-adv-x="1142" 
d="M651 762l371 -285q18 -12 18 -43q0 -29 -18 -43l-371 -285q-11 -8 -35 -8q-18 0 -32.5 13t-14.5 30q0 30 19 43l325 250l-321 244q-26 18 -23 45q0 20 14.5 35.5t32.5 15.5q20 0 35 -12zM186 762l371 -285q18 -12 18 -43q0 -29 -18 -43l-371 -285q-11 -8 -34 -8
q-18 0 -33 13t-15 30q0 30 19 43l326 250l-322 244q-26 18 -23 45q0 20 15 35.5t33 15.5q19 0 34 -12z" />
    <glyph glyph-name="questiondown" unicode="&#xbf;" horiz-adv-x="1056" 
d="M514 629q0 47 45 47q41 0 41 -47q0 -54 -4 -93.5t-17 -79.5t-35.5 -69t-60.5 -54.5t-92 -43.5q-100 -34 -156.5 -111t-56.5 -182q0 -126 99.5 -216.5t232.5 -90.5q66 0 123.5 15.5t105.5 45.5t82.5 59.5t73.5 71.5q14 17 39 17q22 0 35.5 -14.5t13.5 -35.5q0 -17 -12 -32
q-190 -224 -461 -224q-116 0 -216 52t-161 145.5t-61 206.5q0 265 284 373q89 34 123.5 89t34.5 171zM625 985q0 -29 -21 -49.5t-49 -20.5t-48 20.5t-20 49.5t20 49.5t48 20.5t49 -20.5t21 -49.5z" />
    <glyph glyph-name="Agrave" unicode="&#xc0;" horiz-adv-x="1437" 
d="M66 76l596 1337q13 31 59 31t57 -31l594 -1337q4 -16 4 -23q0 -23 -13 -38t-36 -15q-15 0 -29 9t-20 24l-191 434q-10 20 -20 20h-700q-11 0 -21 -20l-188 -434q-16 -33 -49 -33q-21 0 -34.5 16t-13.5 37q0 13 5 23zM696 1272l-290 -666q-13 -26 16 -26h590q27 0 14 26
l-291 666q-8 17 -20.5 16t-18.5 -16zM782 1550l-188 138q-21 12 -25.5 33.5t6.5 41.5q12 17 35.5 21.5t42.5 -6.5l187 -140q21 -10 25.5 -32.5t-9.5 -42.5q-10 -17 -32.5 -20.5t-41.5 7.5z" />
    <glyph glyph-name="Aacute" unicode="&#xc1;" horiz-adv-x="1437" 
d="M66 76l596 1337q13 31 59 31t57 -31l594 -1337q4 -16 4 -23q0 -23 -13 -38t-36 -15q-15 0 -29 9t-20 24l-191 434q-10 20 -20 20h-700q-11 0 -21 -20l-188 -434q-16 -33 -49 -33q-21 0 -34.5 16t-13.5 37q0 13 5 23zM696 1272l-290 -666q-13 -26 16 -26h590q27 0 14 26
l-291 666q-8 17 -20.5 16t-18.5 -16zM846 1657l-189 -137q-18 -11 -40.5 -8t-32.5 20q-14 20 -9.5 43t25.5 33l186 139q19 11 42.5 7t35.5 -21q11 -20 7 -42.5t-25 -33.5z" />
    <glyph glyph-name="Acircumflex" unicode="&#xc2;" horiz-adv-x="1437" 
d="M66 76l596 1337q13 31 59 31t57 -31l594 -1337q4 -16 4 -23q0 -23 -13 -38t-36 -15q-15 0 -29 9t-20 24l-191 434q-10 20 -20 20h-700q-11 0 -21 -20l-188 -434q-16 -33 -49 -33q-21 0 -34.5 16t-13.5 37q0 13 5 23zM696 1272l-290 -666q-13 -26 16 -26h590q27 0 14 26
l-291 666q-8 17 -20.5 16t-18.5 -16zM844 1526l-123 127l-117 -127q-24 -21 -49 -21q-22 0 -35.5 17t-13.5 39q0 17 12 32l154 144q26 22 47 22q28 0 53 -22l154 -144q12 -15 12 -32q0 -22 -12.5 -39t-34.5 -17q-26 0 -47 21z" />
    <glyph glyph-name="Atilde" unicode="&#xc3;" horiz-adv-x="1437" 
d="M66 76l596 1337q13 31 59 31t57 -31l594 -1337q4 -16 4 -23q0 -23 -13 -38t-36 -15q-15 0 -29 9t-20 24l-191 434q-10 20 -20 20h-700q-11 0 -21 -20l-188 -434q-16 -33 -49 -33q-21 0 -34.5 16t-13.5 37q0 13 5 23zM696 1272l-290 -666q-13 -26 16 -26h590q27 0 14 26
l-291 666q-8 17 -20.5 16t-18.5 -16zM852 1546h-2q-50 0 -136 49.5t-130 49.5q-29 0 -50 -24.5t-32 -57.5q-9 -27 -39 -27q-15 0 -27 9.5t-12 25.5q0 8 4 20q10 31 16 46.5t19.5 41.5t28 38.5t38.5 23t54 10.5q48 0 134 -49t134 -49q30 0 51.5 25t30.5 57q8 26 39 26
q15 0 27 -9.5t12 -25.5q0 -8 -2 -16q-17 -73 -52.5 -118.5t-105.5 -45.5z" />
    <glyph glyph-name="Adieresis" unicode="&#xc4;" horiz-adv-x="1437" 
d="M66 76l596 1337q13 31 59 31t57 -31l594 -1337q4 -16 4 -23q0 -23 -13 -38t-36 -15q-15 0 -29 9t-20 24l-191 434q-10 20 -20 20h-700q-11 0 -21 -20l-188 -434q-16 -33 -49 -33q-21 0 -34.5 16t-13.5 37q0 13 5 23zM696 1272l-290 -666q-13 -26 16 -26h590q27 0 14 26
l-291 666q-8 17 -20.5 16t-18.5 -16zM487 1616q0 33 23.5 56.5t56.5 23.5q32 0 56 -24t24 -56q0 -33 -23.5 -56.5t-56.5 -23.5q-34 0 -57 23t-23 57zM788 1616q0 32 23 56t55 24q34 0 58 -24t24 -56q0 -34 -24 -57t-58 -23q-32 0 -55 23t-23 57z" />
    <glyph glyph-name="Aring" unicode="&#xc5;" horiz-adv-x="1437" 
d="M66 76l596 1337q13 31 59 31t57 -31l594 -1337q4 -16 4 -23q0 -23 -13 -38t-36 -15q-15 0 -29 9t-20 24l-191 434q-10 20 -20 20h-700q-11 0 -21 -20l-188 -434q-16 -33 -49 -33q-21 0 -34.5 16t-13.5 37q0 13 5 23zM696 1272l-290 -666q-13 -26 16 -26h590q27 0 14 26
l-291 666q-8 17 -20.5 16t-18.5 -16zM526 1647q0 83 56.5 137.5t134.5 54.5t135 -54.5t57 -137.5t-56.5 -137t-135.5 -54q-78 0 -134.5 54t-56.5 137zM596 1647q0 -54 36 -89.5t85 -35.5t86 35.5t37 89.5t-37 90.5t-86 36.5t-85 -36.5t-36 -90.5z" />
    <glyph glyph-name="AE" unicode="&#xc6;" horiz-adv-x="2121" 
d="M1913 0h-815q-38 0 -62 23t-24 59v391q0 14 -17 14h-501q-12 0 -25 -20l-270 -434q-23 -33 -56 -33q-22 0 -37.5 16.5t-11.5 36.5q0 12 8 23l848 1327q16 27 60 31h893q20 0 34.5 -15t14.5 -35t-14.5 -34.5t-34.5 -14.5h-756q-29 0 -29 -28v-500q0 -29 29 -29h606
q19 0 33 -14.5t14 -34.5t-14 -34.5t-33 -14.5h-606q-29 0 -29 -29v-524q0 -29 29 -29h766q20 0 34.5 -14.5t14.5 -34.5t-14.5 -34.5t-34.5 -14.5zM971 1272l-416 -666q-19 -26 10 -26h426q21 0 21 14v678q0 11 -7.5 14.5t-17.5 -0.5t-16 -14z" />
    <glyph glyph-name="Ccedilla" unicode="&#xc7;" horiz-adv-x="1392" 
d="M1221 266q13 13 32 13t33 -15t14 -37q0 -20 -14 -34q-115 -110 -230.5 -163t-279.5 -53q-194 0 -348 95t-240 264t-86 381t86 381.5t240 264.5t348 95q154 0 269 -46t231 -148q22 -18 22 -47q0 -21 -15 -36.5t-38 -15.5q-20 0 -33 13q-184 184 -436 184
q-165 0 -294.5 -84t-200 -231t-70.5 -330t70.5 -329.5t200 -230t294.5 -83.5q142 0 243 47t202 145zM629 -299q-13 10 -13 23q0 12 9.5 21t21.5 9q9 0 42 -17.5t59 -17.5q45 0 72.5 25t27.5 63q0 34 -30.5 61.5t-80.5 33.5q-5 0 -11.5 6t-6.5 16q0 9 2 13l24 63h60l-14 -43
q57 -12 93 -54.5t36 -95.5q0 -61 -50.5 -105t-121.5 -44q-70 0 -119 43z" />
    <glyph glyph-name="Egrave" unicode="&#xc8;" horiz-adv-x="1216" 
d="M1065 0h-815q-38 0 -62 23t-24 59v1268q0 35 24.5 59.5t59.5 24.5h807q20 0 34.5 -15t14.5 -35t-14.5 -34.5t-34.5 -14.5h-758q-29 0 -29 -28v-500q0 -29 29 -29h608q19 0 33 -14.5t14 -34.5t-14 -34.5t-33 -14.5h-608q-29 0 -29 -29v-524q0 -29 29 -29h768
q20 0 34.5 -14.5t14.5 -34.5t-14.5 -34.5t-34.5 -14.5zM672 1520l-189 137q-21 11 -25 33.5t7 42.5q12 17 35.5 21t42.5 -7l186 -139q21 -10 25.5 -33t-9.5 -43q-10 -17 -32.5 -20t-40.5 8z" />
    <glyph glyph-name="Eacute" unicode="&#xc9;" horiz-adv-x="1216" 
d="M1065 0h-815q-38 0 -62 23t-24 59v1268q0 35 24.5 59.5t59.5 24.5h807q20 0 34.5 -15t14.5 -35t-14.5 -34.5t-34.5 -14.5h-758q-29 0 -29 -28v-500q0 -29 29 -29h608q19 0 33 -14.5t14 -34.5t-14 -34.5t-33 -14.5h-608q-29 0 -29 -29v-524q0 -29 29 -29h768
q20 0 34.5 -14.5t14.5 -34.5t-14.5 -34.5t-34.5 -14.5zM823 1688l-188 -138q-19 -11 -41.5 -7.5t-32.5 20.5q-14 20 -9 42.5t26 32.5l186 140q19 11 42.5 6.5t35.5 -21.5q11 -20 6.5 -41.5t-25.5 -33.5z" />
    <glyph glyph-name="Ecircumflex" unicode="&#xca;" horiz-adv-x="1216" 
d="M1065 0h-815q-38 0 -62 23t-24 59v1268q0 35 24.5 59.5t59.5 24.5h807q20 0 34.5 -15t14.5 -35t-14.5 -34.5t-34.5 -14.5h-758q-29 0 -29 -28v-500q0 -29 29 -29h608q19 0 33 -14.5t14 -34.5t-14 -34.5t-33 -14.5h-608q-29 0 -29 -29v-524q0 -29 29 -29h768
q20 0 34.5 -14.5t14.5 -34.5t-14.5 -34.5t-34.5 -14.5zM735 1526l-123 127l-116 -127q-24 -21 -50 -21q-22 0 -35.5 17t-13.5 39q0 16 13 32l153 144q26 22 47 22q29 0 54 -22l153 -144q12 -15 12 -32q0 -22 -12.5 -39t-34.5 -17q-26 0 -47 21z" />
    <glyph glyph-name="Edieresis" unicode="&#xcb;" horiz-adv-x="1216" 
d="M1065 0h-815q-38 0 -62 23t-24 59v1268q0 35 24.5 59.5t59.5 24.5h807q20 0 34.5 -15t14.5 -35t-14.5 -34.5t-34.5 -14.5h-758q-29 0 -29 -28v-500q0 -29 29 -29h608q19 0 33 -14.5t14 -34.5t-14 -34.5t-33 -14.5h-608q-29 0 -29 -29v-524q0 -29 29 -29h768
q20 0 34.5 -14.5t14.5 -34.5t-14.5 -34.5t-34.5 -14.5zM377 1585q0 33 23.5 56.5t56.5 23.5q32 0 56 -24t24 -56q0 -33 -23.5 -56.5t-56.5 -23.5q-34 0 -57 23t-23 57zM678 1585q0 32 23 56t55 24q34 0 58 -24t24 -56q0 -34 -24 -57t-58 -23q-32 0 -55 23t-23 57z" />
    <glyph glyph-name="Igrave" unicode="&#xcc;" horiz-adv-x="421" 
d="M164 53v1327q0 22 15.5 38t35.5 16q22 0 37.5 -16t15.5 -38v-1327q0 -22 -15.5 -37.5t-37.5 -15.5q-20 0 -35.5 15.5t-15.5 37.5zM231 1520l-188 137q-21 11 -25 33.5t7 42.5q12 17 35 21t42 -7l187 -139q21 -10 25.5 -33t-9.5 -43q-10 -17 -33 -20t-41 8z" />
    <glyph glyph-name="Iacute" unicode="&#xcd;" horiz-adv-x="421" 
d="M164 53v1327q0 22 15.5 38t35.5 16q22 0 37.5 -16t15.5 -38v-1327q0 -22 -15.5 -37.5t-37.5 -15.5q-20 0 -35.5 15.5t-15.5 37.5zM385 1657l-188 -137q-18 -11 -41 -8t-33 20q-14 20 -9.5 43t25.5 33l187 139q19 11 42 7t35 -21q11 -20 7 -42.5t-25 -33.5z" />
    <glyph glyph-name="Icircumflex" unicode="&#xce;" horiz-adv-x="421" 
d="M164 53v1327q0 22 15.5 38t35.5 16q22 0 37.5 -16t15.5 -38v-1327q0 -22 -15.5 -37.5t-37.5 -15.5q-20 0 -35.5 15.5t-15.5 37.5zM334 1526l-123 127l-117 -127q-24 -21 -49 -21q-22 0 -35.5 17t-13.5 39q0 17 12 32l154 144q26 22 47 22q28 0 53 -22l154 -144
q12 -15 12 -32q0 -22 -12.5 -39t-34.5 -17q-26 0 -47 21z" />
    <glyph glyph-name="Idieresis" unicode="&#xcf;" horiz-adv-x="421" 
d="M164 53v1327q0 22 15.5 38t35.5 16q22 0 37.5 -16t15.5 -38v-1327q0 -22 -15.5 -37.5t-37.5 -15.5q-20 0 -35.5 15.5t-15.5 37.5zM-18 1585q0 33 23 56.5t56 23.5q32 0 56 -24t24 -56q0 -33 -23.5 -56.5t-56.5 -23.5q-34 0 -56.5 23t-22.5 57zM283 1585q0 33 22.5 56.5
t54.5 23.5q34 0 58 -24t24 -56q0 -34 -24 -57t-58 -23q-32 0 -54.5 23t-22.5 57z" />
    <glyph glyph-name="Eth" unicode="&#xd0;" horiz-adv-x="1443" 
d="M57 756h107v594q0 35 24 59.5t58 24.5h411q161 0 292 -56.5t216 -154t130.5 -227.5t45.5 -279t-46.5 -279t-132 -227.5t-216 -154t-289.5 -56.5h-409q-37 0 -60.5 23.5t-23.5 58.5v584h-107q-20 0 -33.5 13t-13.5 32t13.5 32t33.5 13zM293 98h364q136 0 247.5 49.5
t183 135t110.5 197t39 237.5t-38 237.5t-109.5 196.5t-182.5 134.5t-248 49.5h-366q-27 0 -27 -28v-551h127q20 0 33.5 -13t13.5 -32t-13.5 -32t-33.5 -13h-127v-539q0 -29 27 -29z" />
    <glyph glyph-name="Ntilde" unicode="&#xd1;" horiz-adv-x="1515" 
d="M1260 18l-971 1196q-4 5 -9 6.5t-8.5 -0.5t-3.5 -8v-1159q0 -22 -15.5 -37.5t-37.5 -15.5q-20 0 -35.5 15.5t-15.5 37.5v1327q0 24 15 39t36 15t45 -27l965 -1190q5 -7 10 -9t8.5 0.5t3.5 8.5v1163q0 22 15.5 38t37.5 16q20 0 36 -16t16 -38v-1327q0 -23 -14 -38t-35 -15
q-29 0 -43 18zM891 1546h-2q-50 0 -136 49.5t-130 49.5q-29 0 -50 -24.5t-32 -57.5q-9 -27 -39 -27q-15 0 -27 9.5t-12 25.5q0 8 4 20q10 31 16 46.5t19.5 41.5t28 38.5t38.5 23t54 10.5q48 0 134 -49t134 -49q30 0 51.5 25t30.5 57q8 26 39 26q15 0 27 -9.5t12 -25.5
q0 -8 -2 -16q-17 -73 -52.5 -118.5t-105.5 -45.5z" />
    <glyph glyph-name="Ograve" unicode="&#xd2;" horiz-adv-x="1574" 
d="M102 717q0 214 84.5 382t240.5 263.5t359 95.5q204 0 361 -95.5t241.5 -263.5t84.5 -382q0 -220 -87 -388.5t-243 -260t-357 -91.5q-198 0 -354 95t-243 263.5t-87 381.5zM209 717q0 -182 72 -328.5t204.5 -230.5t300.5 -84q259 0 419.5 178t160.5 465q0 184 -70.5 330
t-203.5 230.5t-306 84.5q-172 0 -304 -84t-202.5 -230.5t-70.5 -330.5zM862 1520l-188 137q-21 12 -25.5 34t6.5 42q12 17 35.5 21t42.5 -7l187 -139q21 -10 25.5 -33t-9.5 -43q-10 -17 -33 -20t-41 8z" />
    <glyph glyph-name="Oacute" unicode="&#xd3;" horiz-adv-x="1574" 
d="M102 717q0 214 84.5 382t240.5 263.5t359 95.5q204 0 361 -95.5t241.5 -263.5t84.5 -382q0 -220 -87 -388.5t-243 -260t-357 -91.5q-198 0 -354 95t-243 263.5t-87 381.5zM209 717q0 -182 72 -328.5t204.5 -230.5t300.5 -84q259 0 419.5 178t160.5 465q0 184 -70.5 330
t-203.5 230.5t-306 84.5q-172 0 -304 -84t-202.5 -230.5t-70.5 -330.5zM911 1657l-188 -137q-18 -11 -41 -8t-33 20q-14 20 -9 43t26 33l186 139q19 11 42.5 7t35.5 -21q11 -20 6.5 -42t-25.5 -34z" />
    <glyph glyph-name="Ocircumflex" unicode="&#xd4;" horiz-adv-x="1574" 
d="M102 717q0 214 84.5 382t240.5 263.5t359 95.5q204 0 361 -95.5t241.5 -263.5t84.5 -382q0 -220 -87 -388.5t-243 -260t-357 -91.5q-198 0 -354 95t-243 263.5t-87 381.5zM209 717q0 -182 72 -328.5t204.5 -230.5t300.5 -84q259 0 419.5 178t160.5 465q0 184 -70.5 330
t-203.5 230.5t-306 84.5q-172 0 -304 -84t-202.5 -230.5t-70.5 -330.5zM909 1526l-123 127l-116 -127q-24 -21 -49 -21q-22 0 -36 17t-14 39q0 16 13 32l153 144q26 22 47 22q29 0 54 -22l153 -144q13 -16 13 -32q0 -22 -13 -39t-35 -17q-26 0 -47 21z" />
    <glyph glyph-name="Otilde" unicode="&#xd5;" horiz-adv-x="1574" 
d="M102 717q0 214 84.5 382t240.5 263.5t359 95.5q204 0 361 -95.5t241.5 -263.5t84.5 -382q0 -220 -87 -388.5t-243 -260t-357 -91.5q-198 0 -354 95t-243 263.5t-87 381.5zM209 717q0 -182 72 -328.5t204.5 -230.5t300.5 -84q259 0 419.5 178t160.5 465q0 184 -70.5 330
t-203.5 230.5t-306 84.5q-172 0 -304 -84t-202.5 -230.5t-70.5 -330.5zM922 1546h-2q-50 0 -136.5 49.5t-130.5 49.5q-29 0 -50 -24.5t-32 -57.5q-9 -27 -39 -27q-15 0 -26.5 9.5t-11.5 25.5q0 8 4 20q11 32 16 47t19 41t28 38.5t38 23t54 10.5q48 0 134.5 -49t134.5 -49
q30 0 51.5 25t30.5 57q8 26 38 26q15 0 27 -9.5t12 -25.5q0 -8 -2 -16q-17 -73 -52 -118.5t-105 -45.5z" />
    <glyph glyph-name="Odieresis" unicode="&#xd6;" horiz-adv-x="1574" 
d="M102 717q0 214 84.5 382t240.5 263.5t359 95.5q204 0 361 -95.5t241.5 -263.5t84.5 -382q0 -220 -87 -388.5t-243 -260t-357 -91.5q-198 0 -354 95t-243 263.5t-87 381.5zM209 717q0 -182 72 -328.5t204.5 -230.5t300.5 -84q259 0 419.5 178t160.5 465q0 184 -70.5 330
t-203.5 230.5t-306 84.5q-172 0 -304 -84t-202.5 -230.5t-70.5 -330.5zM557 1616q0 33 23.5 56.5t56.5 23.5q32 0 56 -24t24 -56q0 -33 -23.5 -56.5t-56.5 -23.5q-34 0 -57 23t-23 57zM858 1616q0 32 23 56t55 24q34 0 58 -24t24 -56q0 -34 -24 -57t-58 -23q-32 0 -55 23
t-23 57z" />
    <glyph glyph-name="Oslash" unicode="&#xd8;" horiz-adv-x="1574" 
d="M121 86l135 143q-154 200 -154 488q0 214 84.5 382t240.5 263.5t359 95.5q279 0 465 -176l125 131q13 18 35 20.5t35 -10.5q17 -13 18 -34.5t-14 -38.5l-133 -142q156 -198 156 -491q0 -220 -87 -388.5t-243 -260t-357 -91.5q-277 0 -464 181l-127 -135
q-14 -15 -35 -17.5t-35 10.5q-17 12 -17.5 32.5t13.5 37.5zM1368 717q0 241 -123 416l-852 -902q157 -157 393 -157q260 0 421 178t161 465zM207 717q0 -237 123 -412l852 901q-159 156 -396 156q-172 0 -304.5 -84t-203.5 -230.5t-71 -330.5z" />
    <glyph glyph-name="Ugrave" unicode="&#xd9;" horiz-adv-x="1456" 
d="M164 604v776q0 22 15.5 38t35.5 16t35.5 -16t15.5 -38v-786q0 -244 124 -382t337 -138q215 0 340 142.5t125 377.5v786q0 22 14 38t35 16t36 -16t15 -38v-770q0 -184 -66 -326.5t-195.5 -224.5t-303.5 -82q-258 0 -410.5 167t-152.5 460zM793 1520l-189 137
q-21 11 -25 33.5t7 42.5q12 17 35.5 21t42.5 -7l186 -139q21 -10 25.5 -33t-9.5 -43q-10 -17 -32.5 -20t-40.5 8z" />
    <glyph glyph-name="Uacute" unicode="&#xda;" horiz-adv-x="1456" 
d="M164 604v776q0 22 15.5 38t35.5 16t35.5 -16t15.5 -38v-786q0 -244 124 -382t337 -138q215 0 340 142.5t125 377.5v786q0 22 14 38t35 16t36 -16t15 -38v-770q0 -184 -66 -326.5t-195.5 -224.5t-303.5 -82q-258 0 -410.5 167t-152.5 460zM848 1657l-189 -137
q-18 -11 -40.5 -8t-32.5 20q-14 20 -9.5 43t25.5 33l186 139q19 11 42.5 7t35.5 -21q11 -20 7 -42.5t-25 -33.5z" />
    <glyph glyph-name="Ucircumflex" unicode="&#xdb;" horiz-adv-x="1456" 
d="M164 604v776q0 22 15.5 38t35.5 16t35.5 -16t15.5 -38v-786q0 -244 124 -382t337 -138q215 0 340 142.5t125 377.5v786q0 22 14 38t35 16t36 -16t15 -38v-770q0 -184 -66 -326.5t-195.5 -224.5t-303.5 -82q-258 0 -410.5 167t-152.5 460zM844 1526l-123 127l-117 -127
q-24 -21 -49 -21q-22 0 -35.5 17t-13.5 39q0 17 12 32l154 144q26 22 47 22q28 0 53 -22l154 -144q12 -15 12 -32q0 -22 -12.5 -39t-34.5 -17q-26 0 -47 21z" />
    <glyph glyph-name="Udieresis" unicode="&#xdc;" horiz-adv-x="1456" 
d="M164 604v776q0 22 15.5 38t35.5 16t35.5 -16t15.5 -38v-786q0 -244 124 -382t337 -138q215 0 340 142.5t125 377.5v786q0 22 14 38t35 16t36 -16t15 -38v-770q0 -184 -66 -326.5t-195.5 -224.5t-303.5 -82q-258 0 -410.5 167t-152.5 460zM498 1616q0 33 23.5 56.5
t56.5 23.5q32 0 55.5 -24t23.5 -56q0 -34 -23.5 -57t-55.5 -23q-34 0 -57 23t-23 57zM799 1616q0 32 23 56t55 24q33 0 57 -24t24 -56q0 -34 -23.5 -57t-57.5 -23q-32 0 -55 23t-23 57z" />
    <glyph glyph-name="Yacute" unicode="&#xdd;" horiz-adv-x="1286" 
d="M1214 1350l-516 -803q-6 -8 -6 -23v-471q0 -22 -15.5 -37.5t-35.5 -15.5q-21 0 -35 15.5t-14 37.5v473q0 14 -6 23l-516 801q-11 17 -7 39t21 34t37.5 8.5t32.5 -20.5l473 -760q13 -21 28 0l475 760q10 17 32.5 20.5t37.5 -8.5q18 -12 22 -34t-8 -39zM766 1657l-188 -137
q-18 -11 -41 -8t-33 20q-14 20 -9.5 43t25.5 33l187 139q19 11 42 7t35 -21q11 -20 7 -42.5t-25 -33.5z" />
    <glyph glyph-name="Thorn" unicode="&#xde;" horiz-adv-x="1247" 
d="M696 1049h-401q-27 0 -27 -29v-614q0 -29 27 -29h375q195 0 293 89t98 247q0 160 -94 248t-271 88zM295 1147h403q225 0 346 -115t121 -319q0 -196 -128 -315t-369 -119h-373q-27 0 -27 -29v-197q0 -22 -16.5 -37.5t-38.5 -15.5q-19 0 -34 16t-15 37v1256q0 22 15.5 37.5
t35.5 15.5q22 0 37.5 -15.5t15.5 -37.5v-133q0 -29 27 -29z" />
    <glyph glyph-name="germandbls" unicode="&#xdf;" horiz-adv-x="1218" 
d="M516 53q-18 9 -25 28t1 38q9 18 27.5 25t37.5 -3q125 -71 229 -71q120 0 185 58t65 153q0 69 -58 116t-214 97q-53 17 -84.5 28t-72 27.5t-64 31t-49 35t-38.5 43.5t-21.5 53t-8.5 66q0 66 19 115.5t50.5 76t71 47t81.5 30t81.5 23.5t71 29t50.5 45t19 73q0 75 -69.5 121
t-175.5 46q-148 0 -227 -75.5t-79 -206.5v-1051q0 -22 -14.5 -36.5t-34.5 -14.5q-22 0 -35.5 14.5t-13.5 36.5v881h-123q-20 0 -33.5 13.5t-13.5 33.5q0 19 13.5 32t33.5 13h123v78q0 170 107 275.5t297 105.5q82 0 158.5 -29t131 -92t54.5 -145q0 -54 -15 -94.5t-41 -65
t-59.5 -41t-70.5 -27.5t-73.5 -21t-70 -23.5t-59.5 -33.5t-41 -53.5t-15 -79.5q0 -74 72 -115q41 -24 184 -69q7 -2 13 -4q191 -62 267.5 -132.5t76.5 -176.5q0 -135 -94 -219.5t-257 -84.5q-125 0 -270 76z" />
    <glyph glyph-name="agrave" unicode="&#xe0;" horiz-adv-x="1099" 
d="M82 311q0 158 113.5 245t334.5 87q130 0 310 -27q28 -6 28 23q0 169 -80.5 247.5t-255.5 78.5q-166 0 -296 -109q-8 -8 -25 -8q-19 0 -34 14.5t-15 34.5q0 18 18 33q168 129 352 129q225 0 330 -105.5t105 -314.5v-588q0 -21 -14 -36t-33 -15q-22 0 -37 14.5t-15 36.5v88
q0 25 -16 6q-67 -80 -164.5 -124t-214.5 -44q-176 0 -283.5 87t-107.5 247zM186 322q0 -123 80.5 -187.5t214.5 -64.5q126 0 236.5 68t150.5 186v172q0 27 -26 32q-129 25 -305 25q-351 0 -351 -231zM614 1229l-188 137q-21 11 -25 33.5t7 42.5q12 17 35 21t42 -7l187 -139
q21 -10 25.5 -33t-9.5 -43q-10 -17 -33 -20t-41 8z" />
    <glyph glyph-name="aacute" unicode="&#xe1;" horiz-adv-x="1099" 
d="M82 311q0 158 113.5 245t334.5 87q130 0 310 -27q28 -6 28 23q0 169 -80.5 247.5t-255.5 78.5q-166 0 -296 -109q-8 -8 -25 -8q-19 0 -34 14.5t-15 34.5q0 18 18 33q168 129 352 129q225 0 330 -105.5t105 -314.5v-588q0 -21 -14 -36t-33 -15q-22 0 -37 14.5t-15 36.5v88
q0 25 -16 6q-67 -80 -164.5 -124t-214.5 -44q-176 0 -283.5 87t-107.5 247zM186 322q0 -123 80.5 -187.5t214.5 -64.5q126 0 236.5 68t150.5 186v172q0 27 -26 32q-129 25 -305 25q-351 0 -351 -231zM674 1366l-189 -137q-18 -11 -40.5 -8t-32.5 20q-14 20 -9.5 43t25.5 33
l186 139q19 11 42.5 7t35.5 -21q11 -20 7 -42.5t-25 -33.5z" />
    <glyph glyph-name="acircumflex" unicode="&#xe2;" horiz-adv-x="1099" 
d="M82 311q0 158 113.5 245t334.5 87q130 0 310 -27q28 -6 28 23q0 169 -80.5 247.5t-255.5 78.5q-166 0 -296 -109q-8 -8 -25 -8q-19 0 -34 14.5t-15 34.5q0 18 18 33q168 129 352 129q225 0 330 -105.5t105 -314.5v-588q0 -21 -14 -36t-33 -15q-22 0 -37 14.5t-15 36.5v88
q0 25 -16 6q-67 -80 -164.5 -124t-214.5 -44q-176 0 -283.5 87t-107.5 247zM186 322q0 -123 80.5 -187.5t214.5 -64.5q126 0 236.5 68t150.5 186v172q0 27 -26 32q-129 25 -305 25q-351 0 -351 -231zM672 1239l-123 127l-117 -127q-23 -20 -49 -20q-22 0 -35.5 16.5
t-13.5 38.5q0 18 12 33l154 143q28 23 47 23q27 0 53 -23l154 -143q12 -15 12 -33q0 -22 -12.5 -38.5t-34.5 -16.5q-27 0 -47 20z" />
    <glyph glyph-name="atilde" unicode="&#xe3;" horiz-adv-x="1099" 
d="M82 311q0 158 113.5 245t334.5 87q130 0 310 -27q28 -6 28 23q0 169 -80.5 247.5t-255.5 78.5q-166 0 -296 -109q-8 -8 -25 -8q-19 0 -34 14.5t-15 34.5q0 18 18 33q168 129 352 129q225 0 330 -105.5t105 -314.5v-588q0 -21 -14 -36t-33 -15q-22 0 -37 14.5t-15 36.5v88
q0 25 -16 6q-67 -80 -164.5 -124t-214.5 -44q-176 0 -283.5 87t-107.5 247zM186 322q0 -123 80.5 -187.5t214.5 -64.5q126 0 236.5 68t150.5 186v172q0 27 -26 32q-129 25 -305 25q-351 0 -351 -231zM684 1206h-2q-50 0 -136 49.5t-130 49.5q-29 0 -50 -24.5t-32 -57.5
q-9 -27 -39 -27q-15 0 -27 9.5t-12 25.5q0 8 4 20q10 31 16 46.5t19.5 41.5t28 38.5t38.5 23t54 10.5q48 0 134 -49t134 -49q30 0 51.5 25t30.5 57q8 26 39 26q15 0 27 -9.5t12 -25.5q0 -8 -2 -16q-17 -73 -52.5 -118.5t-105.5 -45.5z" />
    <glyph glyph-name="adieresis" unicode="&#xe4;" horiz-adv-x="1099" 
d="M82 311q0 158 113.5 245t334.5 87q130 0 310 -27q28 -6 28 23q0 169 -80.5 247.5t-255.5 78.5q-166 0 -296 -109q-8 -8 -25 -8q-19 0 -34 14.5t-15 34.5q0 18 18 33q168 129 352 129q225 0 330 -105.5t105 -314.5v-588q0 -21 -14 -36t-33 -15q-22 0 -37 14.5t-15 36.5v88
q0 25 -16 6q-67 -80 -164.5 -124t-214.5 -44q-176 0 -283.5 87t-107.5 247zM186 322q0 -123 80.5 -187.5t214.5 -64.5q126 0 236.5 68t150.5 186v172q0 27 -26 32q-129 25 -305 25q-351 0 -351 -231zM319 1298q0 33 23.5 56.5t56.5 23.5q32 0 56 -24t24 -56q0 -33 -23.5 -56
t-56.5 -23q-34 0 -57 22.5t-23 56.5zM621 1298q0 33 22.5 56.5t54.5 23.5q34 0 58 -24t24 -56q0 -33 -24 -56t-58 -23q-32 0 -54.5 22.5t-22.5 56.5z" />
    <glyph glyph-name="aring" unicode="&#xe5;" horiz-adv-x="1099" 
d="M82 311q0 158 113.5 245t334.5 87q130 0 310 -27q28 -6 28 23q0 169 -80.5 247.5t-255.5 78.5q-166 0 -296 -109q-8 -8 -25 -8q-19 0 -34 14.5t-15 34.5q0 18 18 33q168 129 352 129q225 0 330 -105.5t105 -314.5v-588q0 -21 -14 -36t-33 -15q-22 0 -37 14.5t-15 36.5v88
q0 25 -16 6q-67 -80 -164.5 -124t-214.5 -44q-176 0 -283.5 87t-107.5 247zM186 322q0 -123 80.5 -187.5t214.5 -64.5q126 0 236.5 68t150.5 186v172q0 27 -26 32q-129 25 -305 25q-351 0 -351 -231zM358 1401q0 83 56.5 137.5t134.5 54.5t135 -54.5t57 -137.5t-56.5 -137
t-135.5 -54q-78 0 -134.5 54t-56.5 137zM428 1401q0 -54 36 -89.5t85 -35.5t86 35.5t37 89.5t-37 90.5t-86 36.5t-85 -36.5t-36 -90.5z" />
    <glyph glyph-name="ae" unicode="&#xe6;" horiz-adv-x="1941" 
d="M1731 215q18 18 38 18t35 -13t15 -32q0 -17 -15 -32q-78 -85 -185 -132t-228 -47q-149 0 -263.5 70.5t-175.5 194.5q-76 -117 -193 -191t-265 -74q-83 0 -153 17.5t-124 52.5t-84.5 93t-30.5 134q0 146 121 220.5t348 74.5h318v70q0 169 -80.5 247.5t-255.5 78.5
q-167 0 -297 -109q-8 -8 -25 -8q-19 0 -34 14.5t-15 34.5q0 17 19 33q168 129 352 129q330 0 408 -238q62 114 168 176t243 62q217 0 342 -141.5t125 -393.5q0 -19 -12.5 -32t-32.5 -13h-807q22 -188 128 -297.5t276 -109.5q194 0 340 143zM1372 967q-161 0 -261 -105.5
t-124 -292.5h750q-21 192 -112 295t-253 103zM207 285q0 -113 81.5 -165t213.5 -52q126 0 236.5 69t150.5 187v157l-311 -2q-185 -2 -278 -47t-93 -147z" />
    <glyph glyph-name="ccedilla" unicode="&#xe7;" horiz-adv-x="1095" 
d="M938 244q13 18 33 18q17 0 30 -13t13 -30q0 -10 -6 -22q-66 -103 -171.5 -161.5t-226.5 -58.5q-227 0 -372.5 149.5t-145.5 389.5t145.5 391.5t372.5 151.5q112 0 212.5 -51t166.5 -142q10 -15 10 -35q0 -21 -13.5 -36t-31.5 -15t-34 19q-136 166 -314 166
q-184 0 -296.5 -124.5t-112.5 -324.5q0 -201 115 -323.5t298 -122.5q96 0 182 46t146 128zM459 -299q-13 10 -13 23q0 12 9.5 21t21.5 9q9 0 42 -17.5t59 -17.5q45 0 72.5 25t27.5 63q0 34 -30.5 61.5t-80.5 33.5q-5 0 -11.5 6t-6.5 16q0 9 2 13l24 63h60l-14 -43
q57 -12 93 -54.5t36 -95.5q0 -61 -50.5 -105t-121.5 -44q-70 0 -119 43z" />
    <glyph glyph-name="egrave" unicode="&#xe8;" horiz-adv-x="1128" 
d="M938 215q18 18 39 18q20 0 34.5 -13t14.5 -32q0 -18 -14 -32q-78 -84 -185.5 -131.5t-228.5 -47.5q-224 0 -365 151.5t-141 393.5q0 240 136 388.5t352 148.5q217 0 342 -141.5t125 -393.5q0 -19 -13 -32t-33 -13h-772q-16 0 -23 -12t-5 -23q25 -172 130 -273t267 -101
q192 0 340 145zM580 965q-153 0 -250 -95t-127 -266q-2 -12 4.5 -23.5t21.5 -11.5h680q18 0 25.5 11.5t5.5 21.5q-25 176 -115.5 269.5t-244.5 93.5zM629 1229l-189 137q-21 11 -25 33.5t7 42.5q12 17 35.5 21t42.5 -7l186 -139q21 -10 25.5 -33t-9.5 -43q-10 -17 -32.5 -20
t-40.5 8z" />
    <glyph glyph-name="eacute" unicode="&#xe9;" horiz-adv-x="1128" 
d="M938 215q18 18 39 18q20 0 34.5 -13t14.5 -32q0 -18 -14 -32q-78 -84 -185.5 -131.5t-228.5 -47.5q-224 0 -365 151.5t-141 393.5q0 240 136 388.5t352 148.5q217 0 342 -141.5t125 -393.5q0 -19 -13 -32t-33 -13h-772q-16 0 -23 -12t-5 -23q25 -172 130 -273t267 -101
q192 0 340 145zM580 965q-153 0 -250 -95t-127 -266q-2 -12 4.5 -23.5t21.5 -11.5h680q18 0 25.5 11.5t5.5 21.5q-25 176 -115.5 269.5t-244.5 93.5zM688 1366l-188 -137q-18 -11 -41 -8t-33 20q-14 20 -9.5 43t25.5 33l187 139q19 11 42.5 7t35.5 -21q11 -20 6.5 -42
t-25.5 -34z" />
    <glyph glyph-name="ecircumflex" unicode="&#xea;" horiz-adv-x="1128" 
d="M938 215q18 18 39 18q20 0 34.5 -13t14.5 -32q0 -18 -14 -32q-78 -84 -185.5 -131.5t-228.5 -47.5q-224 0 -365 151.5t-141 393.5q0 240 136 388.5t352 148.5q217 0 342 -141.5t125 -393.5q0 -19 -13 -32t-33 -13h-772q-16 0 -23 -12t-5 -23q25 -172 130 -273t267 -101
q192 0 340 145zM580 965q-153 0 -250 -95t-127 -266q-2 -12 4.5 -23.5t21.5 -11.5h680q18 0 25.5 11.5t5.5 21.5q-25 176 -115.5 269.5t-244.5 93.5zM686 1239l-123 127l-117 -127q-23 -20 -49 -20q-22 0 -35.5 16.5t-13.5 38.5q0 18 12 33l154 143q28 23 47 23q27 0 53 -23
l154 -143q12 -15 12 -33q0 -22 -12.5 -38.5t-34.5 -16.5q-27 0 -47 20z" />
    <glyph glyph-name="edieresis" unicode="&#xeb;" horiz-adv-x="1128" 
d="M938 215q18 18 39 18q20 0 34.5 -13t14.5 -32q0 -18 -14 -32q-78 -84 -185.5 -131.5t-228.5 -47.5q-224 0 -365 151.5t-141 393.5q0 240 136 388.5t352 148.5q217 0 342 -141.5t125 -393.5q0 -19 -13 -32t-33 -13h-772q-16 0 -23 -12t-5 -23q25 -172 130 -273t267 -101
q192 0 340 145zM580 965q-153 0 -250 -95t-127 -266q-2 -12 4.5 -23.5t21.5 -11.5h680q18 0 25.5 11.5t5.5 21.5q-25 176 -115.5 269.5t-244.5 93.5zM334 1298q0 33 23.5 56.5t56.5 23.5q32 0 56 -24t24 -56q0 -33 -23.5 -56t-56.5 -23q-34 0 -57 22.5t-23 56.5zM635 1298
q0 32 23 56t55 24q34 0 58 -24t24 -56q0 -33 -24 -56t-58 -23q-33 0 -55.5 22.5t-22.5 56.5z" />
    <glyph glyph-name="igrave" unicode="&#xec;" horiz-adv-x="385" 
d="M143 51v922q0 21 14.5 36t35.5 15q20 0 34.5 -14.5t14.5 -36.5v-922q0 -22 -14.5 -36.5t-34.5 -14.5q-21 0 -35.5 15t-14.5 36zM256 1229l-188 137q-21 12 -25.5 34t6.5 42q12 17 35.5 21t42.5 -7l186 -139q21 -10 26 -33t-9 -43q-10 -17 -33 -20t-41 8z" />
    <glyph glyph-name="iacute" unicode="&#xed;" horiz-adv-x="385" 
d="M143 51v922q0 21 14.5 36t35.5 15q20 0 34.5 -14.5t14.5 -36.5v-922q0 -22 -14.5 -36.5t-34.5 -14.5q-21 0 -35.5 15t-14.5 36zM315 1366l-188 -137q-18 -11 -41 -8t-33 20q-14 20 -9 43t26 33l186 139q19 11 42.5 7t35.5 -21q11 -20 6.5 -42t-25.5 -34z" />
    <glyph glyph-name="icircumflex" unicode="&#xee;" horiz-adv-x="385" 
d="M143 51v922q0 21 14.5 36t35.5 15q20 0 34.5 -14.5t14.5 -36.5v-922q0 -22 -14.5 -36.5t-34.5 -14.5q-21 0 -35.5 15t-14.5 36zM315 1239l-122 127l-117 -127q-23 -20 -49 -20q-22 0 -36 16.5t-14 38.5q0 17 13 33l153 143q28 23 47 23q28 0 54 -23l153 -143
q13 -16 13 -33q0 -22 -13 -38.5t-35 -16.5q-27 0 -47 20z" />
    <glyph glyph-name="idieresis" unicode="&#xef;" horiz-adv-x="385" 
d="M143 51v922q0 21 14.5 36t35.5 15q20 0 34.5 -14.5t14.5 -36.5v-922q0 -22 -14.5 -36.5t-34.5 -14.5q-21 0 -35.5 15t-14.5 36zM-37 1298q0 33 23.5 56.5t56.5 23.5q32 0 56 -24t24 -56q0 -33 -23.5 -56t-56.5 -23q-34 0 -57 22.5t-23 56.5zM264 1298q0 32 23 56t55 24
q34 0 58 -24t24 -56q0 -33 -24 -56t-58 -23q-32 0 -55 22.5t-23 56.5z" />
    <glyph glyph-name="eth" unicode="&#xf0;" horiz-adv-x="1073" 
d="M496 1255l63 86q-9 5 -27 13.5t-29 14.5t-23.5 14t-18.5 17t-6 19q0 18 14 31.5t35 13.5q20 0 110 -49l56 76q8 14 32 14q37 0 37 -39q0 -13 -6 -22l-51 -70q182 -119 286.5 -296t104.5 -380q0 -379 -133.5 -551t-386.5 -172q-134 0 -244.5 69.5t-173.5 190t-63 265.5
q0 218 138.5 356.5t342.5 138.5q139 0 252 -80t156 -210q3 -7 8 -7q8 0 8 11q0 158 -92.5 319t-259.5 272l-68 -90q-10 -16 -33 -16q-17 0 -27 11.5t-10 27.5q0 13 9 22zM932 479q0 185 -110 300.5t-269 115.5q-161 0 -268 -112t-107 -283q0 -183 107 -301.5t268 -118.5
q157 0 268 109.5t111 261.5v28z" />
    <glyph glyph-name="ntilde" unicode="&#xf1;" 
d="M242 51q0 -21 -14 -36t-33 -15q-22 0 -37 14.5t-15 36.5v922q0 22 15 36.5t37 14.5q19 0 33 -15t14 -36v-105q0 -7 3 -8t6.5 1.5t6.5 6.5q59 91 147.5 141t194.5 50q185 0 297.5 -122.5t112.5 -324.5v-561q0 -22 -13.5 -36.5t-33.5 -14.5q-22 0 -37 14.5t-15 36.5v561
q0 165 -87 259t-240 94q-81 0 -148 -35t-107.5 -88.5t-62.5 -112.5t-24 -113v-565zM711 1206h-2q-50 0 -136.5 49.5t-130.5 49.5q-29 0 -50 -24.5t-32 -57.5q-9 -27 -38 -27q-15 0 -27 9.5t-12 25.5q0 8 4 20q11 32 16 47t19 41t28 38.5t38 23t54 10.5q48 0 134.5 -49
t134.5 -49q30 0 51.5 25t30.5 57q8 26 38 26q15 0 27 -9.5t12 -25.5q0 -8 -2 -16q-17 -73 -52 -118.5t-105 -45.5z" />
    <glyph glyph-name="ograve" unicode="&#xf2;" horiz-adv-x="1204" 
d="M92 516q0 240 144.5 391.5t367.5 151.5q220 0 364 -151.5t144 -391.5q0 -239 -144 -389t-364 -150q-223 0 -367.5 150t-144.5 389zM197 516q0 -200 114 -323t293 -123q176 0 290 123t114 323t-114.5 324.5t-289.5 124.5q-179 0 -293 -124t-114 -325zM666 1229l-189 137
q-21 11 -25 33.5t7 42.5q12 17 35.5 21t42.5 -7l186 -139q21 -10 25.5 -33t-9.5 -43q-10 -17 -32.5 -20t-40.5 8z" />
    <glyph glyph-name="oacute" unicode="&#xf3;" horiz-adv-x="1204" 
d="M92 516q0 240 144.5 391.5t367.5 151.5q220 0 364 -151.5t144 -391.5q0 -239 -144 -389t-364 -150q-223 0 -367.5 150t-144.5 389zM197 516q0 -200 114 -323t293 -123q176 0 290 123t114 323t-114.5 324.5t-289.5 124.5q-179 0 -293 -124t-114 -325zM725 1366l-188 -137
q-18 -11 -41 -8t-33 20q-14 20 -9.5 43t25.5 33l187 139q19 11 42 7t35 -21q11 -20 7 -42.5t-25 -33.5z" />
    <glyph glyph-name="ocircumflex" unicode="&#xf4;" horiz-adv-x="1204" 
d="M92 516q0 240 144.5 391.5t367.5 151.5q220 0 364 -151.5t144 -391.5q0 -239 -144 -389t-364 -150q-223 0 -367.5 150t-144.5 389zM197 516q0 -200 114 -323t293 -123q176 0 290 123t114 323t-114.5 324.5t-289.5 124.5q-179 0 -293 -124t-114 -325zM723 1239l-123 127
l-117 -127q-23 -20 -49 -20q-22 0 -35.5 16.5t-13.5 38.5q0 18 12 33l154 143q28 23 47 23q27 0 53 -23l154 -143q12 -15 12 -33q0 -22 -12.5 -38.5t-34.5 -16.5q-27 0 -47 20z" />
    <glyph glyph-name="otilde" unicode="&#xf5;" horiz-adv-x="1204" 
d="M92 516q0 240 144.5 391.5t367.5 151.5q220 0 364 -151.5t144 -391.5q0 -239 -144 -389t-364 -150q-223 0 -367.5 150t-144.5 389zM197 516q0 -200 114 -323t293 -123q176 0 290 123t114 323t-114.5 324.5t-289.5 124.5q-179 0 -293 -124t-114 -325zM735 1206h-2
q-50 0 -136 49.5t-130 49.5q-29 0 -50 -24.5t-32 -57.5q-9 -27 -39 -27q-15 0 -27 9.5t-12 25.5q0 8 4 20q10 31 16 46.5t19.5 41.5t28 38.5t38.5 23t54 10.5q48 0 134 -49t134 -49q30 0 51.5 25t30.5 57q8 26 39 26q15 0 27 -9.5t12 -25.5q0 -8 -2 -16
q-17 -73 -52.5 -118.5t-105.5 -45.5z" />
    <glyph glyph-name="odieresis" unicode="&#xf6;" horiz-adv-x="1204" 
d="M92 516q0 240 144.5 391.5t367.5 151.5q220 0 364 -151.5t144 -391.5q0 -239 -144 -389t-364 -150q-223 0 -367.5 150t-144.5 389zM197 516q0 -200 114 -323t293 -123q176 0 290 123t114 323t-114.5 324.5t-289.5 124.5q-179 0 -293 -124t-114 -325zM371 1298
q0 33 23.5 56.5t56.5 23.5q32 0 55.5 -24t23.5 -56q0 -33 -23 -56t-56 -23q-34 0 -57 22.5t-23 56.5zM672 1298q0 32 23 56t55 24q34 0 57.5 -24t23.5 -56q0 -34 -23.5 -56.5t-57.5 -22.5q-32 0 -55 22.5t-23 56.5z" />
    <glyph glyph-name="divide" unicode="&#xf7;" horiz-adv-x="1046" 
d="M160 465h735q21 0 36 -15t15 -36q0 -20 -14.5 -34.5t-36.5 -14.5h-735q-22 0 -36.5 14.5t-14.5 34.5q0 21 15 36t36 15zM455 53q0 32 21 54t52 22q30 0 51 -22t21 -54q0 -31 -21 -52t-51 -21q-31 0 -52 21t-21 52zM455 776q0 31 21 52.5t52 21.5q29 0 50.5 -21.5
t21.5 -52.5t-21.5 -53.5t-50.5 -22.5q-30 0 -51.5 22.5t-21.5 53.5z" />
    <glyph glyph-name="oslash" unicode="&#xf8;" horiz-adv-x="1204" 
d="M121 74l86 86q-115 143 -115 356q0 240 144.5 391.5t367.5 151.5q208 0 350 -139l88 90q15 15 36.5 15.5t33.5 -13.5q15 -15 15 -37t-17 -37l-92 -94q94 -140 94 -328q0 -239 -144 -389t-364 -150q-196 0 -330 113l-84 -86q-17 -14 -38 -14t-33 14q-14 15 -13.5 35
t15.5 35zM197 516q0 -164 82 -283l606 617q-115 115 -281 115q-179 0 -293 -124t-114 -325zM1008 516q0 145 -64 254l-600 -610q104 -90 260 -90q176 0 290 123t114 323z" />
    <glyph glyph-name="ugrave" unicode="&#xf9;" 
d="M1010 51q0 -22 -13.5 -36.5t-35.5 -14.5q-21 0 -35.5 15t-14.5 36v125q0 4 -1.5 5t-4 -0.5t-4.5 -4.5q-55 -92 -146.5 -145.5t-199.5 -53.5q-186 0 -299 121.5t-113 323.5v551q0 21 14.5 36t35.5 15q20 0 34.5 -14.5t14.5 -36.5v-551q0 -164 87.5 -258t241.5 -94
q65 0 122 23t95.5 60t67 83.5t41.5 93t14 88.5v555q0 21 14.5 36t35.5 15q22 0 35.5 -14.5t13.5 -36.5v-922zM641 1229l-188 137q-21 12 -25.5 34t6.5 42q12 17 35.5 21t42.5 -7l186 -139q21 -10 26 -33t-9 -43q-10 -17 -33 -20t-41 8z" />
    <glyph glyph-name="uacute" unicode="&#xfa;" 
d="M1010 51q0 -22 -13.5 -36.5t-35.5 -14.5q-21 0 -35.5 15t-14.5 36v125q0 4 -1.5 5t-4 -0.5t-4.5 -4.5q-55 -92 -146.5 -145.5t-199.5 -53.5q-186 0 -299 121.5t-113 323.5v551q0 21 14.5 36t35.5 15q20 0 34.5 -14.5t14.5 -36.5v-551q0 -164 87.5 -258t241.5 -94
q65 0 122 23t95.5 60t67 83.5t41.5 93t14 88.5v555q0 21 14.5 36t35.5 15q22 0 35.5 -14.5t13.5 -36.5v-922zM700 1366l-188 -137q-18 -11 -41 -8t-33 20q-14 20 -9 43t26 33l186 139q19 11 42.5 7t35.5 -21q11 -20 6.5 -42t-25.5 -34z" />
    <glyph glyph-name="ucircumflex" unicode="&#xfb;" 
d="M1010 51q0 -22 -13.5 -36.5t-35.5 -14.5q-21 0 -35.5 15t-14.5 36v125q0 4 -1.5 5t-4 -0.5t-4.5 -4.5q-55 -92 -146.5 -145.5t-199.5 -53.5q-186 0 -299 121.5t-113 323.5v551q0 21 14.5 36t35.5 15q20 0 34.5 -14.5t14.5 -36.5v-551q0 -164 87.5 -258t241.5 -94
q65 0 122 23t95.5 60t67 83.5t41.5 93t14 88.5v555q0 21 14.5 36t35.5 15q22 0 35.5 -14.5t13.5 -36.5v-922zM698 1239l-123 127l-116 -127q-23 -20 -49 -20q-22 0 -36 16.5t-14 38.5q0 17 13 33l153 143q28 23 47 23q28 0 54 -23l153 -143q13 -16 13 -33q0 -22 -13 -38.5
t-35 -16.5q-27 0 -47 20z" />
    <glyph glyph-name="udieresis" unicode="&#xfc;" 
d="M1010 51q0 -22 -13.5 -36.5t-35.5 -14.5q-21 0 -35.5 15t-14.5 36v125q0 4 -1.5 5t-4 -0.5t-4.5 -4.5q-55 -92 -146.5 -145.5t-199.5 -53.5q-186 0 -299 121.5t-113 323.5v551q0 21 14.5 36t35.5 15q20 0 34.5 -14.5t14.5 -36.5v-551q0 -164 87.5 -258t241.5 -94
q65 0 122 23t95.5 60t67 83.5t41.5 93t14 88.5v555q0 21 14.5 36t35.5 15q22 0 35.5 -14.5t13.5 -36.5v-922zM346 1298q0 33 23.5 56.5t56.5 23.5q32 0 56 -24t24 -56q0 -33 -23.5 -56t-56.5 -23q-34 0 -57 22.5t-23 56.5zM647 1298q0 32 23 56t55 24q34 0 58 -24t24 -56
q0 -33 -24 -56t-58 -23q-33 0 -55.5 22.5t-22.5 56.5z" />
    <glyph glyph-name="yacute" unicode="&#xfd;" horiz-adv-x="1048" 
d="M991 956l-411 -1001q-62 -154 -142 -225.5t-194 -71.5q-105 0 -158 16q-35 11 -35 50q0 18 13 31.5t28 13.5q8 0 51 -9.5t111 -9.5q69 0 123.5 49t101.5 154l17 37q6 17 -4 39l-433 923q-9 20 -2 39.5t27 28.5q17 8 40 0t30 -27l387 -858q5 -9 11 -8.5t9 8.5l336 862
q7 20 30.5 27.5t41.5 -0.5q19 -9 25 -28.5t-3 -39.5zM647 1366l-188 -137q-18 -11 -41 -8t-33 20q-14 20 -9.5 43t25.5 33l187 139q19 11 42.5 7t35.5 -21q11 -20 6.5 -42t-25.5 -34z" />
    <glyph glyph-name="thorn" unicode="&#xfe;" horiz-adv-x="1222" 
d="M143 -291v1745q0 22 15 36.5t37 14.5q18 0 31.5 -15t13.5 -36v-600q0 -7 3 -8.5t6.5 1t6.5 7.5q58 94 155.5 149.5t221.5 55.5q222 0 359.5 -147t137.5 -398q0 -248 -137.5 -392.5t-371.5 -144.5q-119 0 -215.5 57t-151.5 150q-4 7 -9 5.5t-5 -11.5v-469q0 -21 -13.5 -36
t-31.5 -15q-22 0 -37 14.5t-15 36.5zM233 514q0 -190 111.5 -317t286.5 -127q176 0 285.5 121.5t109.5 322.5q0 218 -107.5 334.5t-287.5 116.5q-168 0 -283 -131.5t-115 -319.5z" />
    <glyph glyph-name="ydieresis" unicode="&#xff;" horiz-adv-x="1048" 
d="M991 956l-411 -1001q-62 -154 -142 -225.5t-194 -71.5q-105 0 -158 16q-35 11 -35 50q0 18 13 31.5t28 13.5q8 0 51 -9.5t111 -9.5q69 0 123.5 49t101.5 154l17 37q6 17 -4 39l-433 923q-9 20 -2 39.5t27 28.5q17 8 40 0t30 -27l387 -858q5 -9 11 -8.5t9 8.5l336 862
q7 20 30.5 27.5t41.5 -0.5q19 -9 25 -28.5t-3 -39.5zM293 1298q0 33 23.5 56.5t56.5 23.5q32 0 56 -24t24 -56q0 -33 -23.5 -56t-56.5 -23q-34 0 -57 22.5t-23 56.5zM594 1298q0 32 23 56t55 24q34 0 58 -24t24 -56q0 -33 -24 -56t-58 -23q-32 0 -55 22.5t-23 56.5z" />
    <glyph glyph-name="Amacron" unicode="&#x100;" horiz-adv-x="1437" 
d="M66 76l596 1337q13 31 59 31t57 -31l594 -1337q4 -16 4 -23q0 -23 -13 -38t-36 -15q-15 0 -29 9t-20 24l-191 434q-10 20 -20 20h-700q-11 0 -21 -20l-188 -434q-16 -33 -49 -33q-21 0 -34.5 16t-13.5 37q0 13 5 23zM696 1272l-290 -666q-13 -26 16 -26h590q27 0 14 26
l-291 666q-8 17 -20.5 16t-18.5 -16zM498 1606h399q23 0 39 -14t16 -36t-16 -36.5t-39 -14.5h-399q-23 0 -39.5 14.5t-16.5 36.5t16 36t40 14z" />
    <glyph glyph-name="amacron" unicode="&#x101;" horiz-adv-x="1099" 
d="M82 311q0 158 113.5 245t334.5 87q130 0 310 -27q28 -6 28 23q0 169 -80.5 247.5t-255.5 78.5q-166 0 -296 -109q-8 -8 -25 -8q-19 0 -34 14.5t-15 34.5q0 18 18 33q168 129 352 129q225 0 330 -105.5t105 -314.5v-588q0 -21 -14 -36t-33 -15q-22 0 -37 14.5t-15 36.5v88
q0 25 -16 6q-67 -80 -164.5 -124t-214.5 -44q-176 0 -283.5 87t-107.5 247zM186 322q0 -123 80.5 -187.5t214.5 -64.5q126 0 236.5 68t150.5 186v172q0 27 -26 32q-129 25 -305 25q-351 0 -351 -231zM330 1329h399q24 0 39.5 -13.5t15.5 -35.5t-16 -36.5t-39 -14.5h-399
q-23 0 -39.5 14.5t-16.5 36.5q0 21 16 35t40 14z" />
    <glyph glyph-name="Abreve" unicode="&#x102;" horiz-adv-x="1437" 
d="M66 76l596 1337q13 31 59 31t57 -31l594 -1337q4 -16 4 -23q0 -23 -13 -38t-36 -15q-15 0 -29 9t-20 24l-191 434q-10 20 -20 20h-700q-11 0 -21 -20l-188 -434q-16 -33 -49 -33q-21 0 -34.5 16t-13.5 37q0 13 5 23zM696 1272l-290 -666q-13 -26 16 -26h590q27 0 14 26
l-291 666q-8 17 -20.5 16t-18.5 -16zM432 1753q0 19 11.5 30t27.5 11q15 0 27.5 -11t15.5 -30q10 -70 67 -107.5t136 -37.5q80 0 138 37.5t67 107.5q3 19 15 30t28 11q15 0 27 -11t12 -30q0 -103 -84 -175.5t-203 -72.5q-118 0 -201.5 73.5t-83.5 174.5z" />
    <glyph glyph-name="abreve" unicode="&#x103;" horiz-adv-x="1099" 
d="M82 311q0 158 113.5 245t334.5 87q130 0 310 -27q28 -6 28 23q0 169 -80.5 247.5t-255.5 78.5q-166 0 -296 -109q-8 -8 -25 -8q-19 0 -34 14.5t-15 34.5q0 18 18 33q168 129 352 129q225 0 330 -105.5t105 -314.5v-588q0 -21 -14 -36t-33 -15q-22 0 -37 14.5t-15 36.5v88
q0 25 -16 6q-67 -80 -164.5 -124t-214.5 -44q-176 0 -283.5 87t-107.5 247zM186 322q0 -123 80.5 -187.5t214.5 -64.5q126 0 236.5 68t150.5 186v172q0 27 -26 32q-129 25 -305 25q-351 0 -351 -231zM264 1454q0 19 11.5 30t27.5 11q15 0 27.5 -11t15.5 -30
q10 -70 67 -107.5t136 -37.5q80 0 138 37.5t67 107.5q3 19 15 30t28 11q15 0 27 -11t12 -30q0 -103 -84 -175.5t-203 -72.5q-118 0 -201.5 73.5t-83.5 174.5z" />
    <glyph glyph-name="Aogonek" unicode="&#x104;" horiz-adv-x="1437" 
d="M66 76l596 1337q13 31 59 31t57 -31l594 -1337q4 -16 4 -23q0 -286 127 -286q43 0 70 24q12 11 26.5 5.5t17.5 -19.5t-9 -29q-43 -43 -105 -43q-211 0 -219 315l-6 13l-191 434q-10 20 -20 20h-700q-11 0 -21 -20l-188 -434q-16 -33 -49 -33q-21 0 -34.5 16t-13.5 37
q0 13 5 23zM696 1272l-290 -666q-13 -26 16 -26h590q27 0 14 26l-291 666q-8 17 -20.5 16t-18.5 -16z" />
    <glyph glyph-name="aogonek" unicode="&#x105;" horiz-adv-x="1099" 
d="M82 311q0 158 113.5 245t334.5 87q130 0 310 -27q28 -6 28 23q0 169 -80.5 247.5t-255.5 78.5q-166 0 -296 -109q-8 -8 -25 -8q-19 0 -34 14.5t-15 34.5q0 18 18 33q168 129 352 129q225 0 330 -105.5t105 -314.5v-596q0 -141 36.5 -206.5t90.5 -65.5q42 0 69 24
q12 11 26.5 5.5t17.5 -19.5t-9 -29q-43 -43 -104 -43q-223 0 -226 334v96q0 25 -16 6q-67 -80 -164.5 -124t-214.5 -44q-176 0 -283.5 87t-107.5 247zM186 322q0 -123 80.5 -187.5t214.5 -64.5q126 0 236.5 68t150.5 186v172q0 27 -26 32q-129 25 -305 25q-351 0 -351 -231z
" />
    <glyph glyph-name="Cacute" unicode="&#x106;" horiz-adv-x="1392" 
d="M1221 266q13 13 32 13t33 -15t14 -37q0 -20 -14 -34q-115 -110 -230.5 -163t-279.5 -53q-194 0 -348 95t-240 264t-86 381t86 381.5t240 264.5t348 95q154 0 269 -46t231 -148q22 -18 22 -47q0 -21 -15 -36.5t-38 -15.5q-20 0 -33 13q-184 184 -436 184
q-165 0 -294.5 -84t-200 -231t-70.5 -330t70.5 -329.5t200 -230t294.5 -83.5q142 0 243 47t202 145zM930 1657l-189 -137q-18 -11 -40.5 -8t-32.5 20q-14 20 -9.5 43t25.5 33l186 139q19 11 42.5 7t35.5 -21q11 -20 7 -42.5t-25 -33.5z" />
    <glyph glyph-name="cacute" unicode="&#x107;" horiz-adv-x="1095" 
d="M938 244q13 18 33 18q17 0 30 -13t13 -30q0 -10 -6 -22q-66 -103 -171.5 -161.5t-226.5 -58.5q-227 0 -372.5 149.5t-145.5 389.5t145.5 391.5t372.5 151.5q112 0 212.5 -51t166.5 -142q10 -15 10 -35q0 -21 -13.5 -36t-31.5 -15t-34 19q-136 166 -314 166
q-184 0 -296.5 -124.5t-112.5 -324.5q0 -201 115 -323.5t298 -122.5q96 0 182 46t146 128zM733 1366l-188 -137q-18 -11 -41 -8t-33 20q-14 20 -9.5 43t25.5 33l187 139q19 11 42.5 7t35.5 -21q11 -20 6.5 -42t-25.5 -34z" />
    <glyph glyph-name="Ccaron" unicode="&#x10c;" horiz-adv-x="1392" 
d="M1221 266q13 13 32 13t33 -15t14 -37q0 -20 -14 -34q-115 -110 -230.5 -163t-279.5 -53q-194 0 -348 95t-240 264t-86 381t86 381.5t240 264.5t348 95q154 0 269 -46t231 -148q22 -18 22 -47q0 -21 -15 -36.5t-38 -15.5q-20 0 -33 13q-184 184 -436 184
q-165 0 -294.5 -84t-200 -231t-70.5 -330t70.5 -329.5t200 -230t294.5 -83.5q142 0 243 47t202 145zM662 1739l122 -127l117 127q23 20 49 20q22 0 35.5 -16.5t13.5 -38.5q0 -18 -12 -33l-153 -143q-28 -23 -48 -23q-27 0 -53 23l-153 143q-13 16 -13 33q0 22 12.5 38.5
t34.5 16.5q28 0 48 -20z" />
    <glyph glyph-name="ccaron" unicode="&#x10d;" horiz-adv-x="1095" 
d="M938 244q13 18 33 18q17 0 30 -13t13 -30q0 -10 -6 -22q-66 -103 -171.5 -161.5t-226.5 -58.5q-227 0 -372.5 149.5t-145.5 389.5t145.5 391.5t372.5 151.5q112 0 212.5 -51t166.5 -142q10 -15 10 -35q0 -21 -13.5 -36t-31.5 -15t-34 19q-136 166 -314 166
q-184 0 -296.5 -124.5t-112.5 -324.5q0 -201 115 -323.5t298 -122.5q96 0 182 46t146 128zM494 1452l122 -127l117 127q25 21 49 21q22 0 35.5 -17t13.5 -39q0 -18 -12 -33l-153 -143q-26 -22 -48 -22q-28 0 -53 22l-153 143q-13 16 -13 33q0 22 12.5 39t34.5 17
q27 0 48 -21z" />
    <glyph glyph-name="Dcaron" unicode="&#x10e;" horiz-adv-x="1443" 
d="M293 98h364q136 0 247.5 49.5t183 135t110.5 197t39 237.5t-38 237.5t-109.5 196.5t-182.5 134.5t-248 49.5h-366q-27 0 -27 -28v-1180q0 -29 27 -29zM246 1434h411q161 0 292 -56.5t216 -154t130.5 -227.5t45.5 -279t-46.5 -279t-132 -227.5t-216 -154t-289.5 -56.5
h-409q-37 0 -60.5 23.5t-23.5 58.5v1268q0 35 24 59.5t58 24.5zM543 1739l123 -127l116 127q23 20 49 20q22 0 36 -16.5t14 -38.5q0 -17 -13 -33l-153 -143q-28 -23 -47 -23q-28 0 -54 23l-153 143q-12 15 -12 33q0 22 12.5 38.5t34.5 16.5q27 0 47 -20z" />
    <glyph glyph-name="dcaron" unicode="&#x10f;" horiz-adv-x="1243" 
d="M1079 1454v-1403q0 -22 -14.5 -36.5t-36.5 -14.5q-18 0 -31.5 15t-13.5 36v131q0 7 -3 8.5t-6.5 -1t-6.5 -7.5q-58 -94 -155.5 -149.5t-221.5 -55.5q-217 0 -357.5 150t-140.5 395q0 248 138 392.5t372 144.5q119 0 215.5 -57t151.5 -150q5 -7 9.5 -5.5t4.5 11.5v596
q0 21 13.5 36t31.5 15q22 0 36.5 -14.5t14.5 -36.5zM989 522q0 190 -111 316.5t-286 126.5q-176 0 -285.5 -121t-109.5 -322q0 -211 110.5 -331.5t284.5 -120.5q110 0 201.5 60.5t143.5 164.5t52 227zM1147 1497q0 29 20.5 49.5t49.5 20.5q28 0 47.5 -21.5t19.5 -58.5
q0 -102 -37 -173t-82 -71q-30 0 -30 25q0 16 14 26q55 33 55 138q-26 3 -41.5 21t-15.5 44z" />
    <glyph glyph-name="Dcroat" unicode="&#x110;" horiz-adv-x="1443" 
d="M57 756h107v594q0 35 24 59.5t58 24.5h411q161 0 292 -56.5t216 -154t130.5 -227.5t45.5 -279t-46.5 -279t-132 -227.5t-216 -154t-289.5 -56.5h-409q-37 0 -60.5 23.5t-23.5 58.5v584h-107q-20 0 -33.5 13t-13.5 32t13.5 32t33.5 13zM293 98h364q136 0 247.5 49.5
t183 135t110.5 197t39 237.5t-38 237.5t-109.5 196.5t-182.5 134.5t-248 49.5h-366q-27 0 -27 -28v-551h127q20 0 33.5 -13t13.5 -32t-13.5 -32t-33.5 -13h-127v-539q0 -29 27 -29z" />
    <glyph glyph-name="dcroat" unicode="&#x111;" horiz-adv-x="1222" 
d="M868 1360h115v94q0 21 13.5 36t31.5 15q22 0 36.5 -14.5t14.5 -36.5v-94h95q21 0 36 -15t15 -34q0 -20 -14.5 -34.5t-36.5 -14.5h-95v-1211q0 -22 -14.5 -36.5t-36.5 -14.5q-18 0 -31.5 15t-13.5 36v131q0 7 -3 8.5t-6.5 -1t-6.5 -7.5q-58 -94 -155.5 -149.5
t-221.5 -55.5q-217 0 -357.5 150t-140.5 395q0 248 138 392.5t372 144.5q119 0 215.5 -57t151.5 -150q5 -7 9.5 -5.5t4.5 11.5v404h-115q-20 0 -34.5 14.5t-14.5 34.5q0 19 14.5 34t34.5 15zM989 522q0 190 -111 316.5t-286 126.5q-176 0 -285.5 -121t-109.5 -322
q0 -211 110.5 -331.5t284.5 -120.5q110 0 201.5 60.5t143.5 164.5t52 227z" />
    <glyph glyph-name="Emacron" unicode="&#x112;" horiz-adv-x="1216" 
d="M1065 0h-815q-38 0 -62 23t-24 59v1268q0 35 24.5 59.5t59.5 24.5h807q20 0 34.5 -15t14.5 -35t-14.5 -34.5t-34.5 -14.5h-758q-29 0 -29 -28v-500q0 -29 29 -29h608q19 0 33 -14.5t14 -34.5t-14 -34.5t-33 -14.5h-608q-29 0 -29 -29v-524q0 -29 29 -29h768
q20 0 34.5 -14.5t14.5 -34.5t-14.5 -34.5t-34.5 -14.5zM408 1606h399q23 0 39 -14t16 -36t-16 -36.5t-39 -14.5h-399q-23 0 -39.5 14.5t-16.5 36.5t16 36t40 14z" />
    <glyph glyph-name="emacron" unicode="&#x113;" horiz-adv-x="1128" 
d="M938 215q18 18 39 18q20 0 34.5 -13t14.5 -32q0 -18 -14 -32q-78 -84 -185.5 -131.5t-228.5 -47.5q-224 0 -365 151.5t-141 393.5q0 240 136 388.5t352 148.5q217 0 342 -141.5t125 -393.5q0 -19 -13 -32t-33 -13h-772q-16 0 -23 -12t-5 -23q25 -172 130 -273t267 -101
q192 0 340 145zM580 965q-153 0 -250 -95t-127 -266q-2 -12 4.5 -23.5t21.5 -11.5h680q18 0 25.5 11.5t5.5 21.5q-25 176 -115.5 269.5t-244.5 93.5zM344 1329h399q24 0 40 -14t16 -35q0 -22 -16.5 -36.5t-39.5 -14.5h-399q-23 0 -39 14.5t-16 36.5t15.5 35.5t39.5 13.5z
" />
    <glyph glyph-name="Edotaccent" unicode="&#x116;" horiz-adv-x="1216" 
d="M1065 0h-815q-38 0 -62 23t-24 59v1268q0 35 24.5 59.5t59.5 24.5h807q20 0 34.5 -15t14.5 -35t-14.5 -34.5t-34.5 -14.5h-758q-29 0 -29 -28v-500q0 -29 29 -29h608q19 0 33 -14.5t14 -34.5t-14 -34.5t-33 -14.5h-608q-29 0 -29 -29v-524q0 -29 29 -29h768
q20 0 34.5 -14.5t14.5 -34.5t-14.5 -34.5t-34.5 -14.5zM539 1593q0 37 25.5 63.5t62.5 26.5t63.5 -26.5t26.5 -63.5t-26.5 -62.5t-63.5 -25.5t-62.5 25.5t-25.5 62.5z" />
    <glyph glyph-name="edotaccent" unicode="&#x117;" horiz-adv-x="1128" 
d="M938 215q18 18 39 18q20 0 34.5 -13t14.5 -32q0 -18 -14 -32q-78 -84 -185.5 -131.5t-228.5 -47.5q-224 0 -365 151.5t-141 393.5q0 240 136 388.5t352 148.5q217 0 342 -141.5t125 -393.5q0 -19 -13 -32t-33 -13h-772q-16 0 -23 -12t-5 -23q25 -172 130 -273t267 -101
q192 0 340 145zM580 965q-153 0 -250 -95t-127 -266q-2 -12 4.5 -23.5t21.5 -11.5h680q18 0 25.5 11.5t5.5 21.5q-25 176 -115.5 269.5t-244.5 93.5zM475 1298q0 37 26 64t62 27q37 0 63.5 -27t26.5 -64t-26.5 -62.5t-63.5 -25.5t-62.5 25.5t-25.5 62.5z" />
    <glyph glyph-name="Eogonek" unicode="&#x118;" horiz-adv-x="1216" 
d="M1114 49v-6q0 -142 37.5 -208t91.5 -66q43 0 70 24q12 11 26.5 5.5t17.5 -19.5t-9 -29q-43 -43 -105 -43q-203 0 -219 293h-774q-38 0 -62 23t-24 59v1268q0 35 24.5 59.5t59.5 24.5h807q20 0 34.5 -15t14.5 -35t-14.5 -34.5t-34.5 -14.5h-758q-29 0 -29 -28v-500
q0 -29 29 -29h608q19 0 33 -14.5t14 -34.5t-14 -34.5t-33 -14.5h-608q-29 0 -29 -29v-524q0 -29 29 -29h768q20 0 34.5 -14.5t14.5 -34.5z" />
    <glyph glyph-name="eogonek" unicode="&#x119;" horiz-adv-x="1128" 
d="M938 215q18 18 39 18q20 0 34.5 -13t14.5 -32q0 -18 -14 -32q-71 -76 -166 -121.5t-203 -54.5q7 -120 43 -176t86 -56q41 0 70 25q12 11 26.5 5.5t17.5 -19.5t-9 -29q-43 -43 -105 -43q-203 0 -219 293q-206 15 -333.5 164.5t-127.5 377.5q0 240 136 388.5t352 148.5
q217 0 342 -141.5t125 -393.5q0 -19 -13 -32t-33 -13h-772q-16 0 -23 -12t-5 -23q25 -172 130 -273t267 -101q192 0 340 145zM580 965q-153 0 -250 -95t-127 -266q-2 -12 4.5 -23.5t21.5 -11.5h680q18 0 25.5 11.5t5.5 21.5q-25 176 -115.5 269.5t-244.5 93.5z" />
    <glyph glyph-name="Ecaron" unicode="&#x11a;" horiz-adv-x="1216" 
d="M1065 0h-815q-38 0 -62 23t-24 59v1268q0 35 24.5 59.5t59.5 24.5h807q20 0 34.5 -15t14.5 -35t-14.5 -34.5t-34.5 -14.5h-758q-29 0 -29 -28v-500q0 -29 29 -29h608q19 0 33 -14.5t14 -34.5t-14 -34.5t-33 -14.5h-608q-29 0 -29 -29v-524q0 -29 29 -29h768
q20 0 34.5 -14.5t14.5 -34.5t-14.5 -34.5t-34.5 -14.5zM547 1739l123 -127l116 127q23 20 50 20q22 0 35.5 -16.5t13.5 -38.5q0 -17 -13 -33l-153 -143q-28 -23 -47 -23q-28 0 -54 23l-153 143q-12 15 -12 33q0 22 12.5 38.5t34.5 16.5q27 0 47 -20z" />
    <glyph glyph-name="ecaron" unicode="&#x11b;" horiz-adv-x="1128" 
d="M938 215q18 18 39 18q20 0 34.5 -13t14.5 -32q0 -18 -14 -32q-78 -84 -185.5 -131.5t-228.5 -47.5q-224 0 -365 151.5t-141 393.5q0 240 136 388.5t352 148.5q217 0 342 -141.5t125 -393.5q0 -19 -13 -32t-33 -13h-772q-16 0 -23 -12t-5 -23q25 -172 130 -273t267 -101
q192 0 340 145zM580 965q-153 0 -250 -95t-127 -266q-2 -12 4.5 -23.5t21.5 -11.5h680q18 0 25.5 11.5t5.5 21.5q-25 176 -115.5 269.5t-244.5 93.5zM442 1452l123 -127l117 127q24 21 49 21q22 0 35.5 -17t13.5 -39q0 -18 -12 -33l-154 -143q-26 -22 -47 -22q-28 0 -53 22
l-154 143q-12 15 -12 33q0 22 12.5 39t34.5 17q26 0 47 -21z" />
    <glyph glyph-name="Gbreve" unicode="&#x11e;" horiz-adv-x="1486" 
d="M1233 207v444q0 29 -29 29h-370q-20 0 -35 14.5t-15 34.5t15 34.5t35 14.5h417q38 0 60 -25t22 -61v-504q0 -48 -28 -65q-244 -146 -527 -146q-195 0 -349.5 95t-240.5 264t-86 381q0 213 86 382t240.5 264t349.5 95q152 0 268.5 -46.5t229.5 -147.5q24 -17 24 -47
q0 -21 -16 -36.5t-37 -15.5q-20 0 -33 13q-184 184 -436 184q-165 0 -295 -84t-201 -231t-71 -330t71 -329.5t201 -230t295 -83.5q141 0 257 31.5t186 76.5q12 6 12 25zM504 1753q0 19 11.5 30t27.5 11q15 0 27.5 -11t15.5 -30q10 -70 66.5 -107.5t135.5 -37.5
q80 0 138 37.5t67 107.5q3 19 15 30t28 11q15 0 27 -11t12 -30q0 -103 -84 -175.5t-203 -72.5q-118 0 -201 73.5t-83 174.5z" />
    <glyph glyph-name="gbreve" unicode="&#x11f;" horiz-adv-x="1222" 
d="M197 569q0 -167 112 -283t275 -116q162 0 283.5 119t121.5 278q0 164 -121.5 281t-287.5 117q-163 0 -273 -114.5t-110 -281.5zM985 150v131q0 8 -6 8q-4 0 -12 -8q-68 -95 -171 -149t-221 -54q-131 0 -242 65.5t-176 178.5t-65 247t65 247t176 178t242 65
q119 0 222.5 -52t169.5 -147q8 -12 12 -12q6 0 6 10v115q0 22 13 36.5t34 14.5q20 0 33.5 -14.5t13.5 -36.5v-823q0 -222 -132 -357t-353 -135q-228 0 -389 115q-23 16 -23 41q0 18 12.5 30.5t30.5 12.5q19 0 35 -13q121 -92 334 -92q179 0 285 105.5t106 292.5zM326 1454
q0 19 11.5 30t27.5 11q15 0 27.5 -11t15.5 -30q10 -70 66.5 -107.5t135.5 -37.5q80 0 138 37.5t67 107.5q3 19 15 30t28 11q15 0 27 -11t12 -30q0 -103 -84 -175.5t-203 -72.5q-118 0 -201 73.5t-83 174.5z" />
    <glyph glyph-name="uni0122" unicode="&#x122;" horiz-adv-x="1486" 
d="M1233 207v444q0 29 -29 29h-370q-20 0 -35 14.5t-15 34.5t15 34.5t35 14.5h417q38 0 60 -25t22 -61v-504q0 -48 -28 -65q-244 -146 -527 -146q-195 0 -349.5 95t-240.5 264t-86 381q0 213 86 382t240.5 264t349.5 95q152 0 268.5 -46.5t229.5 -147.5q24 -17 24 -47
q0 -21 -16 -36.5t-37 -15.5q-20 0 -33 13q-184 184 -436 184q-165 0 -295 -84t-201 -231t-71 -330t71 -329.5t201 -230t295 -83.5q141 0 257 31.5t186 76.5q12 6 12 25zM729 -152q0 29 20.5 49.5t49.5 20.5q28 0 47.5 -21.5t19.5 -58.5q0 -102 -36.5 -173t-81.5 -71
q-31 0 -31 25q0 17 14 27q55 33 55 137q-26 3 -41.5 21t-15.5 44z" />
    <glyph glyph-name="uni0123" unicode="&#x123;" horiz-adv-x="1222" 
d="M197 569q0 -167 112 -283t275 -116q162 0 283.5 119t121.5 278q0 164 -121.5 281t-287.5 117q-163 0 -273 -114.5t-110 -281.5zM985 150v131q0 8 -6 8q-4 0 -12 -8q-68 -95 -171 -149t-221 -54q-131 0 -242 65.5t-176 178.5t-65 247t65 247t176 178t242 65
q119 0 222.5 -52t169.5 -147q8 -12 12 -12q6 0 6 10v115q0 22 13 36.5t34 14.5q20 0 33.5 -14.5t13.5 -36.5v-823q0 -222 -132 -357t-353 -135q-228 0 -389 115q-23 16 -23 41q0 18 12.5 30.5t30.5 12.5q19 0 35 -13q121 -92 334 -92q179 0 285 105.5t106 292.5zM649 1206
q0 -29 -20 -49t-49 -20q-28 0 -48 21.5t-20 58.5q0 102 37 172.5t82 70.5q31 0 31 -24q0 -16 -15 -27q-55 -33 -55 -137q26 -3 41.5 -21t15.5 -45z" />
    <glyph glyph-name="Imacron" unicode="&#x12a;" horiz-adv-x="421" 
d="M164 53v1327q0 22 15.5 38t35.5 16q22 0 37.5 -16t15.5 -38v-1327q0 -22 -15.5 -37.5t-37.5 -15.5q-20 0 -35.5 15.5t-15.5 37.5zM-8 1606h399q23 0 39 -14t16 -36t-16 -36.5t-39 -14.5h-399q-23 0 -39 14.5t-16 36.5t16 36t39 14z" />
    <glyph glyph-name="imacron" unicode="&#x12b;" horiz-adv-x="385" 
d="M143 51v922q0 21 14.5 36t35.5 15q20 0 34.5 -14.5t14.5 -36.5v-922q0 -22 -14.5 -36.5t-34.5 -14.5q-21 0 -35.5 15t-14.5 36zM-6 1288h399q24 0 40 -14t16 -35q0 -22 -16.5 -36.5t-39.5 -14.5h-399q-23 0 -39 14.5t-16 36.5t15.5 35.5t39.5 13.5z" />
    <glyph glyph-name="Iogonek" unicode="&#x12e;" horiz-adv-x="421" 
d="M164 53v1327q0 22 15.5 38t35.5 16q22 0 37.5 -16t15.5 -38v-1333q0 -143 35 -208.5t88 -65.5q43 0 70 24q12 11 26.5 5.5t17.5 -19.5t-9 -29q-43 -43 -105 -43q-104 0 -165.5 81.5t-61.5 260.5z" />
    <glyph glyph-name="iogonek" unicode="&#x12f;" horiz-adv-x="385" 
d="M143 49v924q0 21 14.5 36t35.5 15q20 0 34.5 -14.5t14.5 -36.5v-930q0 -142 37.5 -208t91.5 -66q42 0 69 24q12 11 26.5 5.5t17.5 -19.5t-9 -29q-43 -43 -104 -43q-104 0 -166 81.5t-62 260.5zM125 1411q0 29 19.5 49.5t48.5 20.5q28 0 47.5 -20.5t19.5 -49.5
t-19.5 -48.5t-47.5 -19.5q-29 0 -48.5 19.5t-19.5 48.5z" />
    <glyph glyph-name="Idotaccent" unicode="&#x130;" horiz-adv-x="421" 
d="M164 53v1327q0 22 15.5 38t35.5 16q22 0 37.5 -16t15.5 -38v-1327q0 -22 -15.5 -37.5t-37.5 -15.5q-20 0 -35.5 15.5t-15.5 37.5zM121 1593q0 37 25.5 63.5t62.5 26.5t63.5 -26.5t26.5 -63.5t-26.5 -62.5t-63.5 -25.5t-62.5 25.5t-25.5 62.5z" />
    <glyph glyph-name="dotlessi" unicode="&#x131;" horiz-adv-x="385" 
d="M143 51v922q0 21 14.5 36t35.5 15q20 0 34.5 -14.5t14.5 -36.5v-922q0 -22 -14.5 -36.5t-34.5 -14.5q-21 0 -35.5 15t-14.5 36z" />
    <glyph glyph-name="uni0136" unicode="&#x136;" horiz-adv-x="1177" 
d="M399 748l699 -664q17 -15 18 -35t-14 -37q-14 -12 -34 -13t-34 11l-735 701q-9 8 -20 2.5t-11 -17.5v-643q0 -22 -15.5 -37.5t-37.5 -15.5q-20 0 -35.5 15.5t-15.5 37.5v1327q0 22 15.5 38t35.5 16q22 0 37.5 -16t15.5 -38v-549q0 -13 9.5 -15t21.5 7l719 598
q14 12 34.5 11t32.5 -15q14 -15 13.5 -36.5t-17.5 -34.5l-682 -558q-23 -20 0 -40zM524 -152q0 29 20.5 49.5t49.5 20.5q28 0 48 -21.5t20 -58.5q0 -102 -37 -173t-82 -71q-31 0 -31 25q0 17 14 27q56 34 56 137q-26 3 -42 21t-16 44z" />
    <glyph glyph-name="uni0137" unicode="&#x137;" horiz-adv-x="1032" 
d="M254 623l590 409q15 17 34.5 17.5t32.5 -13.5q15 -15 16 -35.5t-14 -37.5l-534 -367q-13 -9 -12.5 -21.5t12.5 -23.5l557 -469q13 -17 12 -37.5t-16 -32.5q-17 -14 -38 -12.5t-34 18.5l-608 508q-3 3 -6.5 2.5t-3.5 -6.5v-471q0 -21 -14 -36t-33 -15q-22 0 -37 14.5
t-15 36.5v1395q0 22 15 36.5t37 14.5q19 0 33 -15t14 -36v-817q0 -15 12 -6zM449 -152q0 29 20 49.5t49 20.5q28 0 48 -21.5t20 -58.5q0 -102 -37 -173t-82 -71q-31 0 -31 25q0 16 15 27q55 33 55 137q-26 3 -41.5 21t-15.5 44z" />
    <glyph glyph-name="Lacute" unicode="&#x139;" horiz-adv-x="1011" 
d="M268 1380v-1253q0 -29 29 -29h606q19 0 33 -14.5t14 -34.5t-14 -34.5t-33 -14.5h-690q-21 0 -35 14t-14 39v1327q0 22 15.5 38t35.5 16q22 0 37.5 -16t15.5 -38zM440 1657l-188 -137q-18 -11 -41 -8t-33 20q-14 20 -9 43t26 33l186 139q19 11 42.5 7t35.5 -21
q11 -20 6.5 -42t-25.5 -34z" />
    <glyph glyph-name="lacute" unicode="&#x13a;" horiz-adv-x="385" 
d="M143 51v1403q0 22 14.5 36.5t35.5 14.5q20 0 34.5 -14.5t14.5 -36.5v-1403q0 -22 -14.5 -36.5t-34.5 -14.5q-21 0 -35.5 15t-14.5 36zM354 1686l-188 -138q-19 -11 -41.5 -7.5t-32.5 20.5q-14 20 -9 42.5t26 32.5l186 140q19 11 42.5 6.5t35.5 -21.5q11 -20 6.5 -41.5
t-25.5 -33.5z" />
    <glyph glyph-name="uni013B" unicode="&#x13b;" horiz-adv-x="1011" 
d="M268 1380v-1253q0 -29 29 -29h606q19 0 33 -14.5t14 -34.5t-14 -34.5t-33 -14.5h-690q-21 0 -35 14t-14 39v1327q0 22 15.5 38t35.5 16q22 0 37.5 -16t15.5 -38zM487 -152q0 29 20.5 49.5t49.5 20.5q28 0 48 -21.5t20 -58.5q0 -102 -37 -173t-82 -71q-31 0 -31 25
q0 17 14 27q56 34 56 137q-26 3 -42 21t-16 44z" />
    <glyph glyph-name="uni013C" unicode="&#x13c;" horiz-adv-x="385" 
d="M143 51v1403q0 22 14.5 36.5t35.5 14.5q20 0 34.5 -14.5t14.5 -36.5v-1403q0 -22 -14.5 -36.5t-34.5 -14.5q-21 0 -35.5 15t-14.5 36zM129 -152q0 29 20.5 49.5t49.5 20.5q28 0 47.5 -21.5t19.5 -58.5q0 -102 -37 -173t-82 -71q-30 0 -30 25q0 17 14 27q55 33 55 137
q-26 3 -41.5 21t-15.5 44z" />
    <glyph glyph-name="Lcaron" unicode="&#x13d;" horiz-adv-x="1011" 
d="M268 1380v-1253q0 -29 29 -29h606q19 0 33 -14.5t14 -34.5t-14 -34.5t-33 -14.5h-690q-21 0 -35 14t-14 39v1327q0 22 15.5 38t35.5 16q22 0 37.5 -16t15.5 -38zM344 1436q0 29 20.5 49t49.5 20q28 0 47.5 -21.5t19.5 -58.5q0 -102 -37 -172.5t-82 -70.5q-30 0 -30 24
q0 16 14 27q55 33 55 137q-26 3 -41.5 21t-15.5 45z" />
    <glyph glyph-name="lcaron" unicode="&#x13e;" horiz-adv-x="403" 
d="M143 51v1403q0 22 14.5 36.5t35.5 14.5q20 0 34.5 -14.5t14.5 -36.5v-1403q0 -22 -14.5 -36.5t-34.5 -14.5q-21 0 -35.5 15t-14.5 36zM307 1436q0 29 20.5 49t49.5 20q28 0 47.5 -21.5t19.5 -58.5q0 -102 -36.5 -172.5t-81.5 -70.5q-31 0 -31 24q0 16 14 27q56 34 56 137
q-26 3 -42 21.5t-16 44.5z" />
    <glyph glyph-name="Lslash" unicode="&#x141;" horiz-adv-x="1011" 
d="M12 498l152 77v805q0 22 15.5 38t35.5 16q22 0 37.5 -16t15.5 -38v-749l133 69q9 4 20 -3.5t19 -22.5t8 -28.5t-8 -18.5l-172 -90v-410q0 -29 29 -29h606q19 0 33 -14.5t14 -34.5t-14 -34.5t-33 -14.5h-690q-21 0 -35 14t-14 39v428l-113 -57q-9 -4 -20 4t-19 23t-8 29
t8 18z" />
    <glyph glyph-name="lslash" unicode="&#x142;" horiz-adv-x="385" 
d="M143 51v420l-92 -47q-9 -4 -20 4t-19 23t-8 29t8 18l131 65v891q0 22 14.5 36.5t35.5 14.5q20 0 34.5 -14.5t14.5 -36.5v-840l88 45q9 4 20 -3.5t19 -22.5q7 -15 7 -29t-7 -18l-127 -66v-469q0 -22 -14.5 -36.5t-34.5 -14.5q-21 0 -35.5 15t-14.5 36z" />
    <glyph glyph-name="Nacute" unicode="&#x143;" horiz-adv-x="1515" 
d="M1260 18l-971 1196q-4 5 -9 6.5t-8.5 -0.5t-3.5 -8v-1159q0 -22 -15.5 -37.5t-37.5 -15.5q-20 0 -35.5 15.5t-15.5 37.5v1327q0 24 15 39t36 15t45 -27l965 -1190q5 -7 10 -9t8.5 0.5t3.5 8.5v1163q0 22 15.5 38t37.5 16q20 0 36 -16t16 -38v-1327q0 -23 -14 -38t-35 -15
q-29 0 -43 18zM952 1657l-188 -137q-18 -11 -41 -8t-33 20q-14 20 -9 43t26 33l186 139q19 11 42.5 7t35.5 -21q11 -20 6.5 -42t-25.5 -34z" />
    <glyph glyph-name="nacute" unicode="&#x144;" 
d="M242 51q0 -21 -14 -36t-33 -15q-22 0 -37 14.5t-15 36.5v922q0 22 15 36.5t37 14.5q19 0 33 -15t14 -36v-105q0 -7 3 -8t6.5 1.5t6.5 6.5q59 91 147.5 141t194.5 50q185 0 297.5 -122.5t112.5 -324.5v-561q0 -22 -13.5 -36.5t-33.5 -14.5q-22 0 -37 14.5t-15 36.5v561
q0 165 -87 259t-240 94q-81 0 -148 -35t-107.5 -88.5t-62.5 -112.5t-24 -113v-565zM700 1366l-188 -137q-18 -11 -41 -8t-33 20q-14 20 -9 43t26 33l186 139q19 11 42.5 7t35.5 -21q11 -20 6.5 -42t-25.5 -34z" />
    <glyph glyph-name="uni0145" unicode="&#x145;" horiz-adv-x="1515" 
d="M1260 18l-971 1196q-4 5 -9 6.5t-8.5 -0.5t-3.5 -8v-1159q0 -22 -15.5 -37.5t-37.5 -15.5q-20 0 -35.5 15.5t-15.5 37.5v1327q0 24 15 39t36 15t45 -27l965 -1190q5 -7 10 -9t8.5 0.5t3.5 8.5v1163q0 22 15.5 38t37.5 16q20 0 36 -16t16 -38v-1327q0 -23 -14 -38t-35 -15
q-29 0 -43 18zM686 -152q0 29 20.5 49.5t49.5 20.5q28 0 47.5 -21.5t19.5 -58.5q0 -102 -36.5 -173t-81.5 -71q-31 0 -31 25q0 17 14 27q55 33 55 137q-26 3 -41.5 21t-15.5 44z" />
    <glyph glyph-name="uni0146" unicode="&#x146;" 
d="M242 51q0 -21 -14 -36t-33 -15q-22 0 -37 14.5t-15 36.5v922q0 22 15 36.5t37 14.5q19 0 33 -15t14 -36v-105q0 -7 3 -8t6.5 1.5t6.5 6.5q59 91 147.5 141t194.5 50q185 0 297.5 -122.5t112.5 -324.5v-561q0 -22 -13.5 -36.5t-33.5 -14.5q-22 0 -37 14.5t-15 36.5v561
q0 165 -87 259t-240 94q-81 0 -148 -35t-107.5 -88.5t-62.5 -112.5t-24 -113v-565zM535 -152q0 29 20 49.5t49 20.5q28 0 48 -21.5t20 -58.5q0 -102 -37 -173t-82 -71q-31 0 -31 25q0 16 15 27q55 33 55 137q-26 3 -41.5 21t-15.5 44z" />
    <glyph glyph-name="Ncaron" unicode="&#x147;" horiz-adv-x="1515" 
d="M1260 18l-971 1196q-4 5 -9 6.5t-8.5 -0.5t-3.5 -8v-1159q0 -22 -15.5 -37.5t-37.5 -15.5q-20 0 -35.5 15.5t-15.5 37.5v1327q0 24 15 39t36 15t45 -27l965 -1190q5 -7 10 -9t8.5 0.5t3.5 8.5v1163q0 22 15.5 38t37.5 16q20 0 36 -16t16 -38v-1327q0 -23 -14 -38t-35 -15
q-29 0 -43 18zM672 1739l123 -127l116 127q23 20 50 20q22 0 35.5 -16.5t13.5 -38.5q0 -17 -13 -33l-153 -143q-28 -23 -47 -23q-28 0 -54 23l-153 143q-12 15 -12 33q0 22 12.5 38.5t34.5 16.5q27 0 47 -20z" />
    <glyph glyph-name="ncaron" unicode="&#x148;" 
d="M242 51q0 -21 -14 -36t-33 -15q-22 0 -37 14.5t-15 36.5v922q0 22 15 36.5t37 14.5q19 0 33 -15t14 -36v-105q0 -7 3 -8t6.5 1.5t6.5 6.5q59 91 147.5 141t194.5 50q185 0 297.5 -122.5t112.5 -324.5v-561q0 -22 -13.5 -36.5t-33.5 -14.5q-22 0 -37 14.5t-15 36.5v561
q0 165 -87 259t-240 94q-81 0 -148 -35t-107.5 -88.5t-62.5 -112.5t-24 -113v-565zM455 1452l123 -127l116 127q24 21 49 21q22 0 36 -17t14 -39q0 -17 -13 -33l-153 -143q-26 -22 -47 -22q-29 0 -54 22l-153 143q-13 16 -13 33q0 22 13 39t35 17q26 0 47 -21z" />
    <glyph glyph-name="Omacron" unicode="&#x14c;" horiz-adv-x="1574" 
d="M102 717q0 214 84.5 382t240.5 263.5t359 95.5q204 0 361 -95.5t241.5 -263.5t84.5 -382q0 -220 -87 -388.5t-243 -260t-357 -91.5q-198 0 -354 95t-243 263.5t-87 381.5zM209 717q0 -182 72 -328.5t204.5 -230.5t300.5 -84q259 0 419.5 178t160.5 465q0 184 -70.5 330
t-203.5 230.5t-306 84.5q-172 0 -304 -84t-202.5 -230.5t-70.5 -330.5zM567 1606h400q23 0 39 -14t16 -36t-16 -36.5t-39 -14.5h-400q-23 0 -39 14.5t-16 36.5t16 36t39 14z" />
    <glyph glyph-name="omacron" unicode="&#x14d;" horiz-adv-x="1204" 
d="M92 516q0 240 144.5 391.5t367.5 151.5q220 0 364 -151.5t144 -391.5q0 -239 -144 -389t-364 -150q-223 0 -367.5 150t-144.5 389zM197 516q0 -200 114 -323t293 -123q176 0 290 123t114 323t-114.5 324.5t-289.5 124.5q-179 0 -293 -124t-114 -325zM381 1329h399
q24 0 40 -14t16 -35q0 -22 -16.5 -36.5t-39.5 -14.5h-399q-23 0 -39 14.5t-16 36.5t15.5 35.5t39.5 13.5z" />
    <glyph glyph-name="Ohungarumlaut" unicode="&#x150;" horiz-adv-x="1574" 
d="M102 717q0 214 84.5 382t240.5 263.5t359 95.5q204 0 361 -95.5t241.5 -263.5t84.5 -382q0 -220 -87 -388.5t-243 -260t-357 -91.5q-198 0 -354 95t-243 263.5t-87 381.5zM209 717q0 -182 72 -328.5t204.5 -230.5t300.5 -84q259 0 419.5 178t160.5 465q0 184 -70.5 330
t-203.5 230.5t-306 84.5q-172 0 -304 -84t-202.5 -230.5t-70.5 -330.5zM809 1710l-121 -176q-11 -18 -31.5 -24.5t-38.5 3.5q-22 10 -28 33t6 43l119 174q12 19 35.5 26t40.5 -3q21 -12 26.5 -33t-8.5 -43zM1116 1710l-121 -176q-11 -18 -31 -24.5t-38 3.5q-22 10 -28.5 33
t5.5 43l119 174q12 19 35.5 26t40.5 -3q21 -12 26.5 -33t-8.5 -43z" />
    <glyph glyph-name="ohungarumlaut" unicode="&#x151;" horiz-adv-x="1204" 
d="M92 516q0 240 144.5 391.5t367.5 151.5q220 0 364 -151.5t144 -391.5q0 -239 -144 -389t-364 -150q-223 0 -367.5 150t-144.5 389zM197 516q0 -200 114 -323t293 -123q176 0 290 123t114 323t-114.5 324.5t-289.5 124.5q-179 0 -293 -124t-114 -325zM608 1413l-121 -176
q-11 -18 -31.5 -24t-37.5 4q-22 10 -28.5 32.5t5.5 42.5l119 174q12 19 35.5 26t40.5 -3q21 -12 26.5 -33t-8.5 -43zM915 1413l-120 -176q-11 -18 -32 -24t-38 4q-22 10 -28.5 32.5t5.5 42.5l119 174q12 19 35.5 26t40.5 -3q21 -12 26.5 -33t-8.5 -43z" />
    <glyph glyph-name="OE" unicode="&#x152;" horiz-adv-x="2228" 
d="M2077 0h-1291q-161 0 -292 56.5t-216 154t-130.5 227.5t-45.5 279t46.5 279t132 227.5t216 154t289.5 56.5h1280q20 0 35 -15t15 -35t-15 -34.5t-35 -14.5h-757q-29 0 -29 -28v-500q0 -29 29 -29h608q19 0 33 -14.5t14 -34.5t-14 -34.5t-33 -14.5h-608q-29 0 -29 -29
v-524q0 -29 29 -29h768q20 0 34.5 -14.5t14.5 -34.5t-14.5 -34.5t-34.5 -14.5zM1151 1335h-365q-136 0 -247 -49.5t-183 -134.5t-110.5 -196.5t-38.5 -237.5t38 -237.5t109 -197t182 -135t248 -49.5h367q27 0 27 29v1180q0 28 -27 28z" />
    <glyph glyph-name="oe" unicode="&#x153;" horiz-adv-x="2111" 
d="M1880 215q18 18 39 18q20 0 34.5 -13t14.5 -32q0 -18 -14 -32q-78 -84 -185.5 -131.5t-228.5 -47.5q-157 0 -276.5 77.5t-178.5 213.5q-60 -136 -181 -213.5t-275 -77.5q-223 0 -367.5 150t-144.5 389q0 240 144.5 391.5t367.5 151.5q153 0 272.5 -77t179.5 -212
q58 135 173.5 212t267.5 77q217 0 342 -141.5t125 -393.5q0 -19 -12.5 -32t-32.5 -13h-807q22 -189 127.5 -298t275.5 -109q194 0 340 143zM221 516q0 -200 114.5 -323t293.5 -123q176 0 289.5 123t113.5 323t-114 324.5t-289 124.5q-179 0 -293.5 -124t-114.5 -325z
M1522 967q-161 0 -261 -105.5t-124 -292.5h749q-21 193 -112 295.5t-252 102.5z" />
    <glyph glyph-name="Racute" unicode="&#x154;" horiz-adv-x="1267" 
d="M592 565h-299q-27 0 -27 -28v-484q0 -22 -15.5 -37.5t-37.5 -15.5q-19 0 -34 16t-15 37v1297q0 35 24 59.5t58 24.5h452q229 0 348 -113t119 -322q0 -186 -108.5 -296t-306.5 -132q-4 0 -7 -3t0 -9l347 -469q14 -17 14 -39t-14 -37q-15 -14 -37 -13.5t-35 15.5l-404 537
q-9 12 -22 12zM293 664h377q195 0 293 88.5t98 246.5q0 165 -91 250.5t-270 85.5h-407q-27 0 -27 -28v-615q0 -28 27 -28zM801 1651l-189 -138q-19 -11 -41 -7.5t-32 20.5q-14 20 -9.5 43t25.5 33l186 139q19 11 42.5 6.5t35.5 -21.5q11 -20 7 -42t-25 -33z" />
    <glyph glyph-name="racute" unicode="&#x155;" horiz-adv-x="690" 
d="M600 958q-81 0 -151 -32t-114 -82.5t-68.5 -110t-24.5 -117.5v-565q0 -21 -14 -36t-33 -15q-22 0 -37 14.5t-15 36.5v922q0 22 15 36.5t37 14.5q19 0 33 -15t14 -36v-113q0 -6 3.5 -7.5t6.5 3.5q52 92 145.5 147.5t202.5 55.5q21 0 35 -14t14 -35q0 -23 -14 -37.5
t-35 -14.5zM573 1366l-188 -137q-18 -11 -41 -8t-33 20q-14 20 -9 43t26 33l186 139q19 11 42.5 7t35.5 -21q11 -20 6.5 -42t-25.5 -34z" />
    <glyph glyph-name="uni0156" unicode="&#x156;" horiz-adv-x="1267" 
d="M592 565h-299q-27 0 -27 -28v-484q0 -22 -15.5 -37.5t-37.5 -15.5q-19 0 -34 16t-15 37v1297q0 35 24 59.5t58 24.5h452q229 0 348 -113t119 -322q0 -186 -108.5 -296t-306.5 -132q-4 0 -7 -3t0 -9l347 -469q14 -17 14 -39t-14 -37q-15 -14 -37 -13.5t-35 15.5l-404 537
q-9 12 -22 12zM293 664h377q195 0 293 88.5t98 246.5q0 165 -91 250.5t-270 85.5h-407q-27 0 -27 -28v-615q0 -28 27 -28zM549 -152q0 29 20 49.5t49 20.5q28 0 48 -21.5t20 -58.5q0 -102 -37 -173t-82 -71q-30 0 -30 25q0 17 14 27q55 33 55 137q-26 3 -41.5 21t-15.5 44z
" />
    <glyph glyph-name="uni0157" unicode="&#x157;" horiz-adv-x="690" 
d="M600 958q-81 0 -151 -32t-114 -82.5t-68.5 -110t-24.5 -117.5v-565q0 -21 -14 -36t-33 -15q-22 0 -37 14.5t-15 36.5v922q0 22 15 36.5t37 14.5q19 0 33 -15t14 -36v-113q0 -6 3.5 -7.5t6.5 3.5q52 92 145.5 147.5t202.5 55.5q21 0 35 -14t14 -35q0 -23 -14 -37.5
t-35 -14.5zM127 -152q0 29 20.5 49.5t49.5 20.5q28 0 47.5 -21.5t19.5 -58.5q0 -102 -37 -173t-82 -71q-30 0 -30 25q0 17 14 27q55 33 55 137q-26 3 -41.5 21t-15.5 44z" />
    <glyph glyph-name="Rcaron" unicode="&#x158;" horiz-adv-x="1267" 
d="M592 565h-299q-27 0 -27 -28v-484q0 -22 -15.5 -37.5t-37.5 -15.5q-19 0 -34 16t-15 37v1297q0 35 24 59.5t58 24.5h452q229 0 348 -113t119 -322q0 -186 -108.5 -296t-306.5 -132q-4 0 -7 -3t0 -9l347 -469q14 -17 14 -39t-14 -37q-15 -14 -37 -13.5t-35 15.5l-404 537
q-9 12 -22 12zM293 664h377q195 0 293 88.5t98 246.5q0 165 -91 250.5t-270 85.5h-407q-27 0 -27 -28v-615q0 -28 27 -28zM512 1739l123 -127l117 127q23 20 49 20q22 0 35.5 -16.5t13.5 -38.5q0 -18 -12 -33l-154 -143q-28 -23 -47 -23q-27 0 -53 23l-154 143
q-12 15 -12 33q0 22 12.5 38.5t34.5 16.5q27 0 47 -20z" />
    <glyph glyph-name="rcaron" unicode="&#x159;" horiz-adv-x="690" 
d="M600 958q-81 0 -151 -32t-114 -82.5t-68.5 -110t-24.5 -117.5v-565q0 -21 -14 -36t-33 -15q-22 0 -37 14.5t-15 36.5v922q0 22 15 36.5t37 14.5q19 0 33 -15t14 -36v-113q0 -6 3.5 -7.5t6.5 3.5q52 92 145.5 147.5t202.5 55.5q21 0 35 -14t14 -35q0 -23 -14 -37.5
t-35 -14.5zM289 1452l123 -127l116 127q24 21 50 21q22 0 35.5 -17t13.5 -39q0 -17 -13 -33l-153 -143q-26 -22 -47 -22q-29 0 -54 22l-153 143q-12 15 -12 33q0 22 12.5 39t34.5 17q26 0 47 -21z" />
    <glyph glyph-name="Sacute" unicode="&#x15a;" horiz-adv-x="1163" 
d="M563 1458q134 0 225 -35.5t175 -95.5q49 -37 49 -74q0 -20 -12 -33.5t-27 -13.5q-17 0 -28.5 5.5t-31.5 21.5q-156 129 -354 129q-159 0 -246.5 -76.5t-87.5 -202.5q0 -125 87 -194.5t311 -118.5q239 -52 343.5 -144t104.5 -259q0 -178 -124 -284t-329 -106
q-259 0 -487 203q-39 34 -39 66q0 21 11.5 36t31.5 15q12 0 21.5 -4t14.5 -8.5t17 -16.5q194 -194 435 -194q161 0 254.5 76.5t93.5 205.5q0 87 -33 142.5t-116.5 97t-237.5 74.5q-114 24 -194 54.5t-143 78t-93.5 116.5t-30.5 162q0 163 119 270t321 107zM768 1657
l-188 -137q-18 -11 -41 -8t-33 20q-14 20 -9.5 43t25.5 33l187 139q19 11 42 7t35 -21q11 -20 7 -42.5t-25 -33.5z" />
    <glyph glyph-name="sacute" unicode="&#x15b;" horiz-adv-x="929" 
d="M504 590q191 -62 267.5 -132.5t76.5 -176.5q0 -135 -93.5 -219.5t-256.5 -84.5q-106 0 -217 50t-183 118q-16 16 -16 33q0 20 15 34.5t34 14.5t29 -10q178 -147 338 -147q119 0 183 58t64 153q0 70 -57 116.5t-213 96.5q-55 17 -85.5 27.5t-73 27.5t-65.5 31t-50 35
t-40.5 44t-22.5 53t-9 66q0 125 93 203t243 78q174 0 348 -123q25 -19 25 -43q0 -18 -13.5 -30.5t-33.5 -12.5q-17 0 -35 12q-141 103 -291 103q-109 0 -172.5 -51t-63.5 -136q0 -49 35 -83t73.5 -49.5t135.5 -45.5q6 -2 10 -3.5t10 -3t11 -3.5zM643 1366l-188 -137
q-18 -11 -41 -8t-33 20q-14 20 -9.5 43t25.5 33l187 139q19 11 42.5 7t35.5 -21q11 -20 6.5 -42t-25.5 -34z" />
    <glyph glyph-name="Scedilla" unicode="&#x15e;" horiz-adv-x="1163" 
d="M467 -299q-12 9 -12 23q0 12 9 21t21 9q9 0 42 -17.5t59 -17.5q45 0 72.5 25t27.5 63q0 34 -30.5 61.5t-80.5 33.5q-5 0 -11.5 6t-6.5 16q0 9 2 13l16 43q-239 15 -444 200q-39 34 -39 66q0 21 11.5 36t31.5 15q12 0 21.5 -4t14.5 -8.5t17 -16.5q194 -194 435 -194
q161 0 254.5 76.5t93.5 205.5q0 87 -33 142.5t-116.5 97t-237.5 74.5q-114 24 -194 54.5t-143 78t-93.5 116.5t-30.5 162q0 163 119 270t321 107q134 0 225 -35.5t175 -95.5q49 -37 49 -74q0 -20 -12 -33.5t-27 -13.5q-17 0 -28.5 5.5t-31.5 21.5q-156 129 -354 129
q-159 0 -246.5 -76.5t-87.5 -202.5q0 -125 87 -194.5t311 -118.5q239 -52 343.5 -144t104.5 -259q0 -174 -118.5 -279.5t-317.5 -110.5l-6 -20q57 -12 93 -54.5t36 -95.5q0 -61 -50.5 -105t-121.5 -44q-70 0 -119 43z" />
    <glyph glyph-name="scedilla" unicode="&#x15f;" horiz-adv-x="929" 
d="M356 -299q-12 9 -12 23q0 12 9.5 21t21.5 9q9 0 41 -17.5t59 -17.5q45 0 72.5 25t27.5 63q0 34 -30 61.5t-80 33.5q-6 0 -12.5 6.5t-6.5 15.5q0 7 3 13l16 43q-100 7 -200.5 54.5t-166.5 110.5q-16 16 -16 33q0 20 15 34.5t34 14.5t29 -10q178 -147 338 -147
q119 0 183 58t64 153q0 70 -57 116.5t-213 96.5q-55 17 -85.5 27.5t-73 27.5t-65.5 31t-50 35t-40.5 44t-22.5 53t-9 66q0 125 93 203t243 78q174 0 348 -123q25 -19 25 -43q0 -18 -13.5 -30.5t-33.5 -12.5q-17 0 -35 12q-141 103 -291 103q-109 0 -172.5 -51t-63.5 -136
q0 -49 35 -83t73.5 -49.5t135.5 -45.5q6 -2 10 -3.5t10 -3t11 -3.5q191 -62 267.5 -132.5t76.5 -176.5q0 -129 -86 -211.5t-238 -89.5l-6 -23q57 -12 93 -54.5t36 -95.5q0 -61 -50.5 -105t-121.5 -44q-70 0 -119 43z" />
    <glyph glyph-name="Scaron" unicode="&#x160;" horiz-adv-x="1163" 
d="M563 1458q134 0 225 -35.5t175 -95.5q49 -37 49 -74q0 -20 -12 -33.5t-27 -13.5q-17 0 -28.5 5.5t-31.5 21.5q-156 129 -354 129q-159 0 -246.5 -76.5t-87.5 -202.5q0 -125 87 -194.5t311 -118.5q239 -52 343.5 -144t104.5 -259q0 -178 -124 -284t-329 -106
q-259 0 -487 203q-39 34 -39 66q0 21 11.5 36t31.5 15q12 0 21.5 -4t14.5 -8.5t17 -16.5q194 -194 435 -194q161 0 254.5 76.5t93.5 205.5q0 87 -33 142.5t-116.5 97t-237.5 74.5q-114 24 -194 54.5t-143 78t-93.5 116.5t-30.5 162q0 163 119 270t321 107zM459 1739
l123 -127l116 127q23 20 50 20q22 0 35.5 -16.5t13.5 -38.5q0 -17 -13 -33l-153 -143q-28 -23 -47 -23q-28 0 -54 23l-153 143q-12 15 -12 33q0 22 12.5 38.5t34.5 16.5q27 0 47 -20z" />
    <glyph glyph-name="scaron" unicode="&#x161;" horiz-adv-x="929" 
d="M504 590q191 -62 267.5 -132.5t76.5 -176.5q0 -135 -93.5 -219.5t-256.5 -84.5q-106 0 -217 50t-183 118q-16 16 -16 33q0 20 15 34.5t34 14.5t29 -10q178 -147 338 -147q119 0 183 58t64 153q0 70 -57 116.5t-213 96.5q-55 17 -85.5 27.5t-73 27.5t-65.5 31t-50 35
t-40.5 44t-22.5 53t-9 66q0 125 93 203t243 78q174 0 348 -123q25 -19 25 -43q0 -18 -13.5 -30.5t-33.5 -12.5q-17 0 -35 12q-141 103 -291 103q-109 0 -172.5 -51t-63.5 -136q0 -49 35 -83t73.5 -49.5t135.5 -45.5q6 -2 10 -3.5t10 -3t11 -3.5zM342 1452l123 -127l117 127
q25 21 49 21q22 0 35.5 -17t13.5 -39q0 -18 -12 -33l-154 -143q-26 -22 -47 -22q-28 0 -53 22l-154 143q-12 15 -12 33q0 22 12.5 39t34.5 17q26 0 47 -21z" />
    <glyph glyph-name="Tcaron" unicode="&#x164;" horiz-adv-x="1206" 
d="M551 53v1254q0 28 -29 28h-411q-20 0 -35 14.5t-15 34.5t15 35t35 15h987q20 0 33.5 -14.5t13.5 -35.5q0 -20 -13.5 -34.5t-33.5 -14.5h-414q-29 0 -29 -28v-1254q0 -22 -14.5 -37.5t-36.5 -15.5t-37.5 15.5t-15.5 37.5zM481 1739l123 -127l117 127q23 20 49 20
q22 0 35.5 -16.5t13.5 -38.5q0 -18 -12 -33l-154 -143q-28 -23 -47 -23q-27 0 -53 23l-154 143q-12 15 -12 33q0 22 12.5 38.5t34.5 16.5q27 0 47 -20z" />
    <glyph glyph-name="tcaron" unicode="&#x165;" horiz-adv-x="747" 
d="M666 98q13 0 21.5 -10t8.5 -25q0 -32 -32 -49q-68 -37 -154 -37q-268 0 -268 297v629q0 12 -8 20.5t-21 8.5h-94q-20 0 -33.5 13t-13.5 32q0 20 13.5 33.5t33.5 13.5h94q13 0 21 8.5t8 20.5v290q0 22 14 37t35 15q20 0 34.5 -15t14.5 -37v-290q0 -12 8 -20.5t21 -8.5h256
q20 0 33.5 -13.5t13.5 -33.5q0 -19 -13.5 -32t-33.5 -13h-256q-13 0 -21 -8.5t-8 -20.5v-637q0 -93 48.5 -144.5t139.5 -51.5q54 0 93.5 14t44.5 14zM512 1436q0 29 20.5 49t49.5 20q28 0 47.5 -21.5t19.5 -58.5q0 -102 -37 -172.5t-82 -70.5q-30 0 -30 24q0 16 14 27
q55 33 55 137q-26 3 -41.5 21t-15.5 45z" />
    <glyph glyph-name="Umacron" unicode="&#x16a;" horiz-adv-x="1456" 
d="M164 604v776q0 22 15.5 38t35.5 16t35.5 -16t15.5 -38v-786q0 -244 124 -382t337 -138q215 0 340 142.5t125 377.5v786q0 22 14 38t35 16t36 -16t15 -38v-770q0 -184 -66 -326.5t-195.5 -224.5t-303.5 -82q-258 0 -410.5 167t-152.5 460zM508 1606h399q24 0 40 -14
t16 -36t-16.5 -36.5t-39.5 -14.5h-399q-23 0 -39 14.5t-16 36.5t16 36t39 14z" />
    <glyph glyph-name="umacron" unicode="&#x16b;" 
d="M1010 51q0 -22 -13.5 -36.5t-35.5 -14.5q-21 0 -35.5 15t-14.5 36v125q0 4 -1.5 5t-4 -0.5t-4.5 -4.5q-55 -92 -146.5 -145.5t-199.5 -53.5q-186 0 -299 121.5t-113 323.5v551q0 21 14.5 36t35.5 15q20 0 34.5 -14.5t14.5 -36.5v-551q0 -164 87.5 -258t241.5 -94
q65 0 122 23t95.5 60t67 83.5t41.5 93t14 88.5v555q0 21 14.5 36t35.5 15q22 0 35.5 -14.5t13.5 -36.5v-922zM356 1329h400q24 0 39.5 -13.5t15.5 -35.5t-16 -36.5t-39 -14.5h-400q-23 0 -39 14.5t-16 36.5t15.5 35.5t39.5 13.5z" />
    <glyph glyph-name="Uring" unicode="&#x16e;" horiz-adv-x="1456" 
d="M164 604v776q0 22 15.5 38t35.5 16t35.5 -16t15.5 -38v-786q0 -244 124 -382t337 -138q215 0 340 142.5t125 377.5v786q0 22 14 38t35 16t36 -16t15 -38v-770q0 -184 -66 -326.5t-195.5 -224.5t-303.5 -82q-258 0 -410.5 167t-152.5 460zM537 1649q0 83 56 137.5
t134 54.5q79 0 136 -54.5t57 -137.5t-57 -137t-136 -54q-78 0 -134 54t-56 137zM606 1649q0 -54 36 -89.5t85 -35.5t86 35.5t37 89.5t-37 90.5t-86 36.5t-85 -36.5t-36 -90.5z" />
    <glyph glyph-name="uring" unicode="&#x16f;" 
d="M1010 51q0 -22 -13.5 -36.5t-35.5 -14.5q-21 0 -35.5 15t-14.5 36v125q0 4 -1.5 5t-4 -0.5t-4.5 -4.5q-55 -92 -146.5 -145.5t-199.5 -53.5q-186 0 -299 121.5t-113 323.5v551q0 21 14.5 36t35.5 15q20 0 34.5 -14.5t14.5 -36.5v-551q0 -164 87.5 -258t241.5 -94
q65 0 122 23t95.5 60t67 83.5t41.5 93t14 88.5v555q0 21 14.5 36t35.5 15q22 0 35.5 -14.5t13.5 -36.5v-922zM385 1401q0 83 56 137.5t134 54.5q79 0 136 -54.5t57 -137.5t-57 -137t-136 -54q-78 0 -134 54t-56 137zM455 1401q0 -54 35.5 -89.5t84.5 -35.5t86 35.5t37 89.5
t-37 90.5t-86 36.5q-48 0 -84 -36.5t-36 -90.5z" />
    <glyph glyph-name="Uhungarumlaut" unicode="&#x170;" horiz-adv-x="1456" 
d="M164 604v776q0 22 15.5 38t35.5 16t35.5 -16t15.5 -38v-786q0 -244 124 -382t337 -138q215 0 340 142.5t125 377.5v786q0 22 14 38t35 16t36 -16t15 -38v-770q0 -184 -66 -326.5t-195.5 -224.5t-303.5 -82q-258 0 -410.5 167t-152.5 460zM678 1706l-121 -176
q-11 -18 -31.5 -24.5t-38.5 3.5q-22 10 -28 33t6 43l119 174q12 19 35 26t40 -3q21 -13 27 -33.5t-8 -42.5zM985 1706l-121 -176q-11 -18 -31 -24.5t-38 3.5q-22 10 -28.5 33t5.5 43l119 174q12 19 35.5 26t40.5 -3q21 -12 26.5 -33t-8.5 -43z" />
    <glyph glyph-name="uhungarumlaut" unicode="&#x171;" 
d="M1010 51q0 -22 -13.5 -36.5t-35.5 -14.5q-21 0 -35.5 15t-14.5 36v125q0 4 -1.5 5t-4 -0.5t-4.5 -4.5q-55 -92 -146.5 -145.5t-199.5 -53.5q-186 0 -299 121.5t-113 323.5v551q0 21 14.5 36t35.5 15q20 0 34.5 -14.5t14.5 -36.5v-551q0 -164 87.5 -258t241.5 -94
q65 0 122 23t95.5 60t67 83.5t41.5 93t14 88.5v555q0 21 14.5 36t35.5 15q22 0 35.5 -14.5t13.5 -36.5v-922zM575 1413l-120 -176q-11 -18 -32 -24t-38 4q-22 10 -28.5 32.5t5.5 42.5l119 174q12 19 35.5 26t40.5 -3q21 -12 26.5 -33t-8.5 -43zM883 1413l-121 -176
q-11 -18 -32 -24t-38 4q-22 10 -28 32.5t6 42.5l118 174q12 19 35.5 26t40.5 -3q21 -13 27 -33.5t-8 -42.5z" />
    <glyph glyph-name="Uogonek" unicode="&#x172;" horiz-adv-x="1456" 
d="M164 604v776q0 22 15.5 38t35.5 16t35.5 -16t15.5 -38v-786q0 -244 124 -382t337 -138q215 0 340 142.5t125 377.5v786q0 22 14 38t35 16t36 -16t15 -38v-770q0 -179 -63.5 -319.5t-186.5 -224t-290 -89.5q3 -134 40 -196t89 -62q40 0 69 25q12 11 26.5 5.5t17.5 -19.5
t-9 -29q-43 -43 -104 -43q-214 0 -219 324q-230 21 -364 184t-134 438z" />
    <glyph glyph-name="uogonek" unicode="&#x173;" 
d="M1010 973v-922q0 -147 35.5 -213.5t89.5 -66.5q42 0 69 24q12 11 26.5 5.5t17.5 -19.5t-9 -29q-43 -43 -104 -43q-224 0 -224 342v125q0 4 -1.5 5t-4 -0.5t-4.5 -4.5q-55 -92 -146.5 -145.5t-199.5 -53.5q-186 0 -299 121.5t-113 323.5v551q0 21 14.5 36t35.5 15
q20 0 34.5 -14.5t14.5 -36.5v-551q0 -164 87.5 -258t241.5 -94q65 0 122 23t95.5 60t67 83.5t41.5 93t14 88.5v555q0 21 14.5 36t35.5 15q22 0 35.5 -14.5t13.5 -36.5z" />
    <glyph glyph-name="Ydieresis" unicode="&#x178;" horiz-adv-x="1286" 
d="M1214 1350l-516 -803q-6 -8 -6 -23v-471q0 -22 -15.5 -37.5t-35.5 -15.5q-21 0 -35 15.5t-14 37.5v473q0 14 -6 23l-516 801q-11 17 -7 39t21 34t37.5 8.5t32.5 -20.5l473 -760q13 -21 28 0l475 760q10 17 32.5 20.5t37.5 -8.5q18 -12 22 -34t-8 -39zM412 1616
q0 33 23.5 56.5t56.5 23.5q32 0 55.5 -24t23.5 -56q0 -34 -23.5 -57t-55.5 -23q-34 0 -57 23t-23 57zM713 1616q0 32 23 56t55 24q33 0 57 -24t24 -56q0 -34 -23.5 -57t-57.5 -23q-32 0 -55 23t-23 57z" />
    <glyph glyph-name="Zacute" unicode="&#x179;" horiz-adv-x="1294" 
d="M186 1434h940q21 0 35.5 -12.5t14.5 -32.5q0 -19 -15 -39l-899 -1221q-6 -9 -0.5 -21t17.5 -12h868q20 0 32.5 -14t12.5 -35q0 -20 -12.5 -33.5t-32.5 -13.5h-1000q-19 0 -32 13.5t-13 33.5q0 11 13 37l897 1221q6 8 -0.5 20t-20.5 12h-805q-20 0 -34.5 13.5t-14.5 33.5
t14.5 35t34.5 15zM850 1657l-188 -137q-18 -11 -41 -8t-33 20q-14 20 -9.5 43t25.5 33l187 139q19 11 42 7t35 -21q11 -20 7 -42.5t-25 -33.5z" />
    <glyph glyph-name="zacute" unicode="&#x17a;" horiz-adv-x="1077" 
d="M940 0h-807q-17 0 -29 13.5t-12 31.5q0 19 10 31l707 842q5 4 2 10t-10 6h-660q-17 0 -30 13t-13 32t13 32t30 13h787q19 0 32 -13t13 -32q0 -15 -12 -31l-705 -835q-6 -7 -3.5 -15t11.5 -8h676q19 0 32 -13t13 -32t-13 -32t-32 -13zM731 1366l-188 -137q-18 -11 -41 -8
t-33 20q-14 20 -9.5 43t25.5 33l187 139q19 11 42.5 7t35.5 -21q11 -20 6.5 -42t-25.5 -34z" />
    <glyph glyph-name="Zdotaccent" unicode="&#x17b;" horiz-adv-x="1294" 
d="M186 1434h940q21 0 35.5 -12.5t14.5 -32.5q0 -19 -15 -39l-899 -1221q-6 -9 -0.5 -21t17.5 -12h868q20 0 32.5 -14t12.5 -35q0 -20 -12.5 -33.5t-32.5 -13.5h-1000q-19 0 -32 13.5t-13 33.5q0 11 13 37l897 1221q6 8 -0.5 20t-20.5 12h-805q-20 0 -34.5 13.5t-14.5 33.5
t14.5 35t34.5 15zM557 1593q0 37 25.5 63.5t62.5 26.5t63.5 -26.5t26.5 -63.5t-26.5 -62.5t-63.5 -25.5t-62.5 25.5t-25.5 62.5z" />
    <glyph glyph-name="zdotaccent" unicode="&#x17c;" horiz-adv-x="1077" 
d="M940 0h-807q-17 0 -29 13.5t-12 31.5q0 19 10 31l707 842q5 4 2 10t-10 6h-660q-17 0 -30 13t-13 32t13 32t30 13h787q19 0 32 -13t13 -32q0 -15 -12 -31l-705 -835q-6 -7 -3.5 -15t11.5 -8h676q19 0 32 -13t13 -32t-13 -32t-32 -13zM449 1298q0 37 26 64t62 27
q37 0 63.5 -27t26.5 -64t-26.5 -62.5t-63.5 -25.5t-62.5 25.5t-25.5 62.5z" />
    <glyph glyph-name="Zcaron" unicode="&#x17d;" horiz-adv-x="1294" 
d="M186 1434h940q21 0 35.5 -12.5t14.5 -32.5q0 -19 -15 -39l-899 -1221q-6 -9 -0.5 -21t17.5 -12h868q20 0 32.5 -14t12.5 -35q0 -20 -12.5 -33.5t-32.5 -13.5h-1000q-19 0 -32 13.5t-13 33.5q0 11 13 37l897 1221q6 8 -0.5 20t-20.5 12h-805q-20 0 -34.5 13.5t-14.5 33.5
t14.5 35t34.5 15zM524 1739l123 -127l117 127q23 20 49 20q22 0 35.5 -16.5t13.5 -38.5q0 -18 -12 -33l-154 -143q-28 -23 -47 -23q-27 0 -53 23l-154 143q-12 15 -12 33q0 22 12.5 38.5t34.5 16.5q27 0 47 -20z" />
    <glyph glyph-name="zcaron" unicode="&#x17e;" horiz-adv-x="1077" 
d="M940 0h-807q-17 0 -29 13.5t-12 31.5q0 19 10 31l707 842q5 4 2 10t-10 6h-660q-17 0 -30 13t-13 32t13 32t30 13h787q19 0 32 -13t13 -32q0 -15 -12 -31l-705 -835q-6 -7 -3.5 -15t11.5 -8h676q19 0 32 -13t13 -32t-13 -32t-32 -13zM416 1452l123 -127l116 127
q25 21 50 21q22 0 35.5 -17t13.5 -39q0 -17 -13 -33l-153 -143q-26 -22 -47 -22q-29 0 -54 22l-153 143q-12 15 -12 33q0 22 12.5 39t34.5 17q26 0 47 -21z" />
    <glyph glyph-name="uni0218" unicode="&#x218;" horiz-adv-x="1163" 
d="M563 1458q134 0 225 -35.5t175 -95.5q49 -37 49 -74q0 -20 -12 -33.5t-27 -13.5q-17 0 -28.5 5.5t-31.5 21.5q-156 129 -354 129q-159 0 -246.5 -76.5t-87.5 -202.5q0 -125 87 -194.5t311 -118.5q239 -52 343.5 -144t104.5 -259q0 -178 -124 -284t-329 -106
q-259 0 -487 203q-39 34 -39 66q0 21 11.5 36t31.5 15q12 0 21.5 -4t14.5 -8.5t17 -16.5q194 -194 435 -194q161 0 254.5 76.5t93.5 205.5q0 87 -33 142.5t-116.5 97t-237.5 74.5q-114 24 -194 54.5t-143 78t-93.5 116.5t-30.5 162q0 163 119 270t321 107zM561 -152
q0 29 20.5 49.5t49.5 20.5q28 0 47.5 -21.5t19.5 -58.5q0 -102 -36.5 -173t-81.5 -71q-31 0 -31 25q0 17 14 27q55 33 55 137q-26 3 -41.5 21t-15.5 44z" />
    <glyph glyph-name="uni0219" unicode="&#x219;" horiz-adv-x="929" 
d="M504 590q191 -62 267.5 -132.5t76.5 -176.5q0 -135 -93.5 -219.5t-256.5 -84.5q-106 0 -217 50t-183 118q-16 16 -16 33q0 20 15 34.5t34 14.5t29 -10q178 -147 338 -147q119 0 183 58t64 153q0 70 -57 116.5t-213 96.5q-55 17 -85.5 27.5t-73 27.5t-65.5 31t-50 35
t-40.5 44t-22.5 53t-9 66q0 125 93 203t243 78q174 0 348 -123q25 -19 25 -43q0 -18 -13.5 -30.5t-33.5 -12.5q-17 0 -35 12q-141 103 -291 103q-109 0 -172.5 -51t-63.5 -136q0 -49 35 -83t73.5 -49.5t135.5 -45.5q6 -2 10 -3.5t10 -3t11 -3.5zM440 -152q0 29 20.5 49.5
t49.5 20.5q28 0 48 -21.5t20 -58.5q0 -102 -37 -173t-82 -71q-31 0 -31 25q0 17 14 27q56 34 56 137q-26 3 -42 21t-16 44z" />
    <glyph glyph-name="uni021A" unicode="&#x21a;" horiz-adv-x="1206" 
d="M551 53v1254q0 28 -29 28h-411q-20 0 -35 14.5t-15 34.5t15 35t35 15h987q20 0 33.5 -14.5t13.5 -35.5q0 -20 -13.5 -34.5t-33.5 -14.5h-414q-29 0 -29 -28v-1254q0 -22 -14.5 -37.5t-36.5 -15.5t-37.5 15.5t-15.5 37.5zM545 -152q0 29 20 49.5t49 20.5q28 0 48 -21.5
t20 -58.5q0 -102 -37 -173t-82 -71q-31 0 -31 25q0 16 15 27q55 33 55 137q-26 3 -41.5 21t-15.5 44z" />
    <glyph glyph-name="uni021B" unicode="&#x21b;" horiz-adv-x="747" 
d="M666 98q13 0 21.5 -10t8.5 -25q0 -32 -32 -49q-68 -37 -154 -37q-268 0 -268 297v629q0 12 -8 20.5t-21 8.5h-94q-20 0 -33.5 13t-13.5 32q0 20 13.5 33.5t33.5 13.5h94q13 0 21 8.5t8 20.5v290q0 22 14 37t35 15q20 0 34.5 -15t14.5 -37v-290q0 -12 8 -20.5t21 -8.5h256
q20 0 33.5 -13.5t13.5 -33.5q0 -19 -13.5 -32t-33.5 -13h-256q-13 0 -21 -8.5t-8 -20.5v-637q0 -93 48.5 -144.5t139.5 -51.5q54 0 93.5 14t44.5 14zM412 -152q0 29 20 49.5t49 20.5q28 0 48 -21.5t20 -58.5q0 -102 -37 -173t-82 -71q-31 0 -31 25q0 16 15 27q55 33 55 137
q-26 3 -41.5 21t-15.5 44z" />
    <glyph glyph-name="circumflex" unicode="&#x2c6;" horiz-adv-x="432" 
d="M338 1239l-123 127l-117 -127q-23 -20 -49 -20q-22 0 -35.5 16.5t-13.5 38.5q0 18 12 33l154 143q28 23 47 23q27 0 53 -23l154 -143q12 -15 12 -33q0 -22 -12.5 -38.5t-34.5 -16.5q-27 0 -47 20z" />
    <glyph glyph-name="caron" unicode="&#x2c7;" horiz-adv-x="432" 
d="M92 1452l123 -127l117 127q24 21 49 21q22 0 35.5 -17t13.5 -39q0 -18 -12 -33l-154 -143q-26 -22 -47 -22q-28 0 -53 22l-154 143q-12 15 -12 33q0 22 12.5 39t34.5 17q26 0 47 -21z" />
    <glyph glyph-name="breve" unicode="&#x2d8;" horiz-adv-x="571" 
d="M0 1454q0 19 11.5 30t27.5 11q15 0 27.5 -11t15.5 -30q10 -70 67 -107.5t136 -37.5q80 0 137.5 37.5t66.5 107.5q3 19 15 30t28 11q15 0 27 -11t12 -30q0 -103 -84 -175.5t-202 -72.5t-201.5 73.5t-83.5 174.5z" />
    <glyph glyph-name="dotaccent" unicode="&#x2d9;" horiz-adv-x="178" 
d="M0 1298q0 37 26 64t62 27q37 0 63.5 -27t26.5 -64t-26.5 -62.5t-63.5 -25.5t-62.5 25.5t-25.5 62.5z" />
    <glyph glyph-name="ring" unicode="&#x2da;" horiz-adv-x="382" 
d="M0 1401q0 83 56 137.5t134 54.5q79 0 136 -54.5t57 -137.5t-57 -137t-136 -54q-78 0 -134 54t-56 137zM70 1401q0 -54 35.5 -89.5t84.5 -35.5t86 35.5t37 89.5t-37 90.5t-86 36.5q-48 0 -84 -36.5t-36 -90.5z" />
    <glyph glyph-name="ogonek" unicode="&#x2db;" horiz-adv-x="346" 
d="M0 0h90q0 -146 37.5 -213.5t91.5 -67.5q41 0 70 25q12 11 26.5 5.5t17.5 -19.5t-9 -29q-43 -43 -105 -43q-219 0 -219 342z" />
    <glyph glyph-name="tilde" unicode="&#x2dc;" horiz-adv-x="591" 
d="M428 1206h-2q-50 0 -136 49.5t-130 49.5q-29 0 -50 -24.5t-32 -57.5q-9 -27 -39 -27q-15 0 -27 9.5t-12 25.5q0 8 4 20q10 31 16 46.5t19.5 41.5t28 38.5t38.5 23t54 10.5q48 0 134 -49t134 -49q30 0 51.5 25t30.5 57q8 26 39 26q15 0 27 -9.5t12 -25.5q0 -8 -2 -16
q-17 -73 -52.5 -118.5t-105.5 -45.5z" />
    <glyph glyph-name="hungarumlaut" unicode="&#x2dd;" horiz-adv-x="540" 
d="M221 1413l-121 -176q-11 -18 -31.5 -24t-37.5 4q-22 10 -28.5 32.5t5.5 42.5l119 174q12 19 35.5 26t40.5 -3q21 -12 26.5 -33t-8.5 -43zM528 1413l-120 -176q-11 -18 -32 -24t-38 4q-22 10 -28.5 32.5t5.5 42.5l119 174q12 19 35.5 26t40.5 -3q21 -12 26.5 -33t-8.5 -43
z" />
    <glyph glyph-name="endash" unicode="&#x2013;" horiz-adv-x="1189" 
d="M51 651h1084q22 0 37.5 -14.5t15.5 -34.5q0 -22 -15.5 -36.5t-37.5 -14.5h-1084q-22 0 -36.5 14.5t-14.5 36.5q0 20 14.5 34.5t36.5 14.5z" />
    <glyph glyph-name="emdash" unicode="&#x2014;" horiz-adv-x="1419" 
d="M51 651h1315q22 0 37.5 -14.5t15.5 -34.5q0 -22 -15.5 -36.5t-37.5 -14.5h-1315q-22 0 -36.5 14.5t-14.5 36.5q0 20 14.5 34.5t36.5 14.5z" />
    <glyph glyph-name="quoteleft" unicode="&#x2018;" horiz-adv-x="313" 
d="M219 1180q0 -29 -20 -49.5t-49 -20.5q-28 0 -48 21.5t-20 58.5q0 102 37 173t82 71q30 0 30 -25q0 -17 -14 -27q-55 -33 -55 -137q26 -3 41.5 -21t15.5 -44z" />
    <glyph glyph-name="quoteright" unicode="&#x2019;" horiz-adv-x="313" 
d="M94 1364q0 29 20.5 49.5t49.5 20.5q28 0 47.5 -21.5t19.5 -58.5q0 -102 -36.5 -173t-81.5 -71q-31 0 -31 25q0 15 14 26q56 34 56 137q-26 3 -42 21.5t-16 44.5z" />
    <glyph glyph-name="quotesinglbase" unicode="&#x201a;" horiz-adv-x="401" 
d="M135 66q0 29 20.5 49t49.5 20q28 0 47.5 -21.5t19.5 -58.5q0 -102 -36.5 -172.5t-81.5 -70.5q-31 0 -31 24q0 16 14 27q56 34 56 137q-26 3 -42 21.5t-16 44.5z" />
    <glyph glyph-name="quotedblleft" unicode="&#x201c;" horiz-adv-x="491" 
d="M219 1180q0 -29 -20 -49.5t-49 -20.5q-28 0 -48 21.5t-20 58.5q0 102 37 173t82 71q30 0 30 -25q0 -17 -14 -27q-55 -33 -55 -137q26 -3 41.5 -21t15.5 -44zM397 1180q0 -29 -20 -49.5t-49 -20.5q-28 0 -48 21.5t-20 58.5q0 102 37 173t82 71q31 0 31 -25q0 -16 -15 -27
q-55 -33 -55 -137q26 -3 41.5 -21t15.5 -44z" />
    <glyph glyph-name="quotedblright" unicode="&#x201d;" horiz-adv-x="491" 
d="M272 1364q0 29 20.5 49.5t49.5 20.5q28 0 48 -21.5t20 -58.5q0 -102 -37 -173t-82 -71q-31 0 -31 25q0 15 14 26q56 34 56 137q-26 3 -42 21.5t-16 44.5zM94 1364q0 29 20.5 49.5t49.5 20.5q28 0 47.5 -21.5t19.5 -58.5q0 -102 -36.5 -173t-81.5 -71q-31 0 -31 25
q0 15 14 26q56 34 56 137q-26 3 -42 21.5t-16 44.5z" />
    <glyph glyph-name="quotedblbase" unicode="&#x201e;" horiz-adv-x="567" 
d="M309 66q0 29 20.5 49t49.5 20q28 0 47.5 -21.5t19.5 -58.5q0 -102 -36.5 -172.5t-81.5 -70.5q-31 0 -31 24q0 16 14 27q56 34 56 137q-26 3 -42 21.5t-16 44.5zM131 66q0 29 20.5 49t49.5 20q28 0 47.5 -21.5t19.5 -58.5q0 -102 -36.5 -172.5t-81.5 -70.5q-31 0 -31 24
q0 16 14 27q55 33 55 137q-26 3 -41.5 21t-15.5 45z" />
    <glyph glyph-name="dagger" unicode="&#x2020;" horiz-adv-x="696" 
d="M154 1024h116q13 0 21 8.5t8 20.5v186q0 22 14.5 36.5t34.5 14.5t34.5 -14.5t14.5 -36.5v-186q0 -12 8.5 -20.5t20.5 -8.5h117q22 0 36.5 -14.5t14.5 -34.5t-14.5 -34.5t-36.5 -14.5h-117q-13 0 -21 -9t-8 -20v-846q0 -22 -14.5 -36.5t-34.5 -14.5t-34.5 14.5t-14.5 36.5
v846q0 11 -8 20t-21 9h-116q-22 0 -37 14.5t-15 34.5t15 34.5t37 14.5z" />
    <glyph glyph-name="daggerdbl" unicode="&#x2021;" horiz-adv-x="696" 
d="M299 51v484q0 11 -8 19.5t-21 8.5h-116q-22 0 -37 14.5t-15 34.5t15 35t37 15h116q13 0 21 8t8 20v207q0 11 -8 20t-21 9h-116q-22 0 -37 14.5t-15 34.5t15 34.5t37 14.5h116q13 0 21 8.5t8 20.5v186q0 22 14.5 36.5t34.5 14.5t34.5 -14.5t14.5 -36.5v-186
q0 -12 8.5 -20.5t20.5 -8.5h117q22 0 36.5 -14.5t14.5 -34.5t-14.5 -34.5t-36.5 -14.5h-117q-13 0 -21 -9t-8 -20v-207q0 -12 8.5 -20t20.5 -8h117q21 0 36 -15t15 -35t-14.5 -34.5t-36.5 -14.5h-117q-13 0 -21 -8.5t-8 -19.5v-484q0 -22 -14.5 -36.5t-34.5 -14.5
t-34.5 14.5t-14.5 36.5z" />
    <glyph glyph-name="bullet" unicode="&#x2022;" horiz-adv-x="913" 
d="M154 610q0 125 88.5 213t214.5 88t214.5 -88t88.5 -213t-88.5 -213t-214.5 -88t-214.5 88t-88.5 213z" />
    <glyph glyph-name="ellipsis" unicode="&#x2026;" horiz-adv-x="1351" 
d="M143 70q0 34 24 58t58 24q32 0 55 -24t23 -58t-23 -58t-55 -24q-34 0 -58 24t-24 58zM594 70q0 34 24 58t58 24q32 0 55 -24t23 -58t-23 -58t-55 -24q-34 0 -58 24t-24 58zM1044 70q0 34 24 58t58 24q32 0 55 -24t23 -58t-23 -58t-55 -24q-34 0 -58 24t-24 58z" />
    <glyph glyph-name="perthousand" unicode="&#x2030;" horiz-adv-x="2183" 
d="M61 1075q0 165 84.5 272t214.5 107q133 0 218.5 -107t85.5 -272t-85.5 -273t-218.5 -108q-130 0 -214.5 108t-84.5 273zM154 1073q0 -121 61 -207t147 -86q88 0 149.5 85.5t61.5 207.5q0 120 -62 206.5t-149 86.5q-89 0 -149 -83t-59 -210zM240 74l917 1337
q10 17 30.5 21t35.5 -7t18.5 -30.5t-6.5 -36.5l-918 -1338q-12 -17 -32 -21t-35 7t-18.5 31t8.5 37zM838 356q0 165 84.5 272t214.5 107q133 0 218 -107t85 -272t-85 -273t-218 -108q-130 0 -214.5 108t-84.5 273zM930 354q0 -121 61.5 -207t147.5 -86q88 0 149.5 85.5
t61.5 207.5q0 120 -62 206.5t-149 86.5q-89 0 -149.5 -83t-59.5 -210zM1520 356q0 165 84.5 272t214.5 107q133 0 218 -107t85 -272t-85 -273t-218 -108q-130 0 -214.5 108t-84.5 273zM1612 354q0 -121 61.5 -207t147.5 -86q88 0 149.5 85.5t61.5 207.5q0 120 -62 206.5
t-149 86.5q-89 0 -149.5 -83t-59.5 -210z" />
    <glyph glyph-name="guilsinglleft" unicode="&#x2039;" horiz-adv-x="675" 
d="M121 477l371 285q15 12 34 12q18 0 32.5 -15.5t14.5 -35.5q3 -27 -22 -45l-322 -244l326 -250q18 -12 18 -43q0 -17 -14.5 -30t-32.5 -13q-23 0 -34 8l-371 285q-19 15 -19 43q0 30 19 43z" />
    <glyph glyph-name="guilsinglright" unicode="&#x203a;" horiz-adv-x="675" 
d="M186 762l371 -285q18 -12 18 -43q0 -29 -18 -43l-371 -285q-11 -8 -34 -8q-18 0 -33 13t-15 30q0 30 19 43l326 250l-322 244q-26 18 -23 45q0 20 15 35.5t33 15.5q19 0 34 -12z" />
    <glyph glyph-name="fraction" unicode="&#x2044;" horiz-adv-x="923" 
d="M-31 84l910 1327q10 17 30 21t35 -7t18.5 -30.5t-6.5 -36.5l-909 -1327q-12 -17 -32 -21.5t-35 6.5t-19 30.5t8 37.5z" />
    <glyph glyph-name="Euro" unicode="&#x20ac;" horiz-adv-x="1427" 
d="M168 913h117q18 0 24 25q52 239 205 379.5t383 140.5q163 0 293 -96q29 -19 29 -53q0 -35 -26.5 -46t-43.5 5q-115 94 -252 94q-185 0 -309.5 -112.5t-173.5 -305.5q-8 -31 24 -31h451q22 0 37.5 -15.5t15.5 -35.5t-15.5 -35.5t-37.5 -15.5h-469q-12 0 -20.5 -9t-8.5 -18
q-2 -23 -2 -67q0 -30 4 -84q3 -27 29 -27h467q22 0 37.5 -15.5t15.5 -35.5t-15.5 -35.5t-37.5 -15.5h-440q-15 0 -23 -11.5t-6 -21.5q112 -397 457 -397q114 0 191.5 47t150.5 145q14 19 32 19q19 0 35.5 -15.5t16.5 -36.5q0 -8 -19 -40q-66 -99 -169 -157.5t-238 -58.5
q-223 0 -365 133t-201 369q-7 25 -28 25h-115q-22 0 -37.5 15.5t-15.5 35.5t15.5 35.5t37.5 15.5h90q13 0 21.5 8t7.5 21q-2 27 -2 82q0 43 2 63q0 11 -7 21t-22 10h-90q-22 0 -37.5 15.5t-15.5 35.5t15.5 35.5t37.5 15.5z" />
    <glyph glyph-name="trademark" unicode="&#x2122;" horiz-adv-x="1619" 
d="M293 670v667q0 11 -10 11h-213q-18 0 -29.5 11t-11.5 27q0 15 11.5 26t29.5 11h530q14 0 24.5 -11t10.5 -26t-10.5 -26.5t-24.5 -11.5h-217q-10 0 -10 -11v-667q0 -15 -12 -27t-27 -12t-28 12t-13 27zM1092 848l-232 377q-3 6 -8.5 6t-5.5 -6l-35 -555
q-2 -16 -12.5 -27.5t-26.5 -11.5q-17 0 -29.5 12t-11.5 27l43 714q1 17 13.5 28t27.5 11q22 0 35 -20l266 -451q6 -9 12 0l271 451q12 20 35 20q17 0 28 -11.5t13 -27.5l45 -714q1 -17 -10 -28t-29 -11q-17 0 -28 11.5t-13 27.5l-37 555q0 6 -5.5 6t-8.5 -6l-230 -377
q-15 -23 -35 -23q-19 0 -32 23z" />
    <glyph glyph-name="notequal" unicode="&#x2260;" horiz-adv-x="1046" 
d="M162 469h215l123 188h-338q-25 0 -42.5 15.5t-17.5 38.5t17.5 38t42.5 15h405l264 410q9 20 33 27t41 -3q20 -10 29 -29.5t0 -40.5l-236 -364h187q25 0 42 -15t17 -38t-17 -38.5t-42 -15.5h-254l-121 -188h375q25 0 42 -15t17 -38t-17 -38.5t-42 -15.5h-443l-231 -358
q-10 -18 -34.5 -24.5t-41.5 2.5q-20 9 -29 28t0 39l203 313h-147q-25 0 -42.5 15.5t-17.5 38.5t17.5 38t42.5 15z" />
    <glyph glyph-name="lessequal" unicode="&#x2264;" horiz-adv-x="1087" 
d="M860 256l-676 352q-30 13 -30 45t30 47l676 353q12 6 25 6q22 0 35.5 -13.5t13.5 -33.5q0 -33 -29 -49l-594 -310l594 -307q29 -16 29 -49q0 -20 -13.5 -33.5t-35.5 -13.5q-13 0 -25 6zM205 100h676q22 0 37.5 -14.5t15.5 -34.5q0 -22 -15.5 -36.5t-37.5 -14.5h-676
q-22 0 -36.5 14.5t-14.5 36.5q0 20 14.5 34.5t36.5 14.5z" />
    <glyph glyph-name="greaterequal" unicode="&#x2265;" horiz-adv-x="1087" 
d="M903 608l-676 -352q-12 -6 -24 -6q-22 0 -35.5 13.5t-13.5 33.5q0 33 28 49l594 307l-594 310q-28 16 -28 49q0 20 13.5 33.5t35.5 13.5q12 0 24 -6l676 -353q31 -16 31 -47t-31 -45zM207 100h676q22 0 36.5 -14.5t14.5 -34.5q0 -22 -14.5 -36.5t-36.5 -14.5h-676
q-22 0 -37.5 14.5t-15.5 36.5q0 20 15.5 34.5t37.5 14.5z" />
    <glyph glyph-name="commaaccent" unicode="&#xf6c3;" horiz-adv-x="401" 
d="M135 -152q0 29 20.5 49.5t49.5 20.5q28 0 47.5 -21.5t19.5 -58.5q0 -102 -36.5 -173t-81.5 -71q-31 0 -31 25q0 17 14 27q56 34 56 137q-26 3 -42 21t-16 44z" />
    </font>
</defs>
</svg>
