<svg xmlns="http://www.w3.org/2000/svg" xmlns:xlink="http://www.w3.org/1999/xlink" viewBox="0 0 286.56 257.9"><defs><style>.cls-1{isolation:isolate;}.cls-2,.cls-55,.cls-56,.cls-57,.cls-58{mix-blend-mode:multiply;}.cls-3,.cls-64{fill:#fff;}.cls-3{opacity:0;}.cls-4{fill:#f9f9f9;}.cls-32,.cls-4{opacity:0.05;}.cls-5{fill:#f3f3f3;}.cls-33,.cls-5{opacity:0.1;}.cls-6{fill:#ededed;}.cls-34,.cls-6{opacity:0.14;}.cls-7{fill:#e7e7e7;}.cls-35,.cls-7{opacity:0.19;}.cls-8{fill:#e1e1e1;}.cls-36,.cls-8{opacity:0.24;}.cls-9{fill:#dadada;}.cls-37,.cls-9{opacity:0.29;}.cls-10{fill:#d4d4d4;}.cls-10,.cls-38{opacity:0.33;}.cls-11{fill:#cecece;}.cls-11,.cls-39{opacity:0.38;}.cls-12{fill:#c8c8c8;}.cls-12,.cls-40{opacity:0.43;}.cls-13,.cls-39{fill:#c2c2c2;}.cls-13,.cls-41{opacity:0.48;}.cls-14{fill:#bcbcbc;}.cls-14,.cls-42{opacity:0.52;}.cls-15{fill:#b6b6b6;}.cls-15,.cls-43{opacity:0.57;}.cls-16{fill:#b0b0b0;}.cls-16,.cls-44{opacity:0.62;}.cls-17{fill:#aaa;}.cls-17,.cls-45{opacity:0.67;}.cls-18{fill:#a4a4a4;}.cls-18,.cls-46{opacity:0.71;}.cls-19{fill:#9d9d9d;}.cls-19,.cls-47{opacity:0.76;}.cls-20{fill:#979797;}.cls-20,.cls-48{opacity:0.81;}.cls-21{fill:#919191;}.cls-21,.cls-49{opacity:0.86;}.cls-22{fill:#8b8b8b;}.cls-22,.cls-50{opacity:0.9;}.cls-23{fill:#858585;}.cls-23,.cls-51{opacity:0.95;}.cls-24{fill:#7f7f7f;}.cls-25{fill:#ed7000;}.cls-26{fill:#ea9600;}.cls-27{fill:#ffc022;}.cls-28,.cls-29{opacity:0.42;}.cls-28,.cls-29,.cls-30,.cls-31,.cls-59,.cls-60,.cls-61,.cls-69,.cls-70,.cls-71,.cls-72{mix-blend-mode:overlay;}.cls-28{fill:url(#linear-gradient);}.cls-29{fill:url(#linear-gradient-2);}.cls-30,.cls-31,.cls-72{opacity:0.48;}.cls-30{fill:url(#linear-gradient-3);}.cls-31{fill:url(#linear-gradient-4);}.cls-32{fill:#f7f7f7;}.cls-33{fill:#f0f0f0;}.cls-34{fill:#e8e8e8;}.cls-35{fill:#e0e0e0;}.cls-36{fill:#d9d9d9;}.cls-37{fill:#d1d1d1;}.cls-38{fill:#c9c9c9;}.cls-40{fill:#bababa;}.cls-41{fill:#b2b2b2;}.cls-42{fill:#ababab;}.cls-43{fill:#a3a3a3;}.cls-44{fill:#9b9b9b;}.cls-45{fill:#949494;}.cls-46{fill:#8c8c8c;}.cls-47{fill:#848484;}.cls-48{fill:#7d7d7d;}.cls-49{fill:#757575;}.cls-50{fill:#6d6d6d;}.cls-51{fill:#666;}.cls-52{fill:#5e5e5e;}.cls-53{fill:#1783f5;}.cls-54{fill:#72b7ff;}.cls-55,.cls-56,.cls-57,.cls-58{opacity:0.51;}.cls-55{fill:url(#linear-gradient-5);}.cls-56{fill:url(#linear-gradient-6);}.cls-57{fill:url(#linear-gradient-7);}.cls-58{fill:url(#linear-gradient-8);}.cls-59,.cls-60{opacity:0.57;}.cls-59{fill:url(#linear-gradient-9);}.cls-60{fill:url(#linear-gradient-10);}.cls-61,.cls-71{opacity:0.5;}.cls-61{fill:url(#linear-gradient-11);}.cls-62{fill:#1162b8;}.cls-63{fill:#0c4683;}.cls-65{fill:none;stroke:#fff;stroke-linecap:round;stroke-linejoin:round;stroke-width:0;}.cls-66{fill:#b5391a;}.cls-67{fill:#f4704f;}.cls-68{fill:#f14c23;}.cls-69{opacity:0.56;fill:url(#linear-gradient-12);}.cls-70{opacity:0.66;fill:url(#linear-gradient-13);}.cls-71{fill:url(#linear-gradient-14);}.cls-72{fill:url(#linear-gradient-15);}.cls-73{fill:#0c427b;}</style><linearGradient id="linear-gradient" x1="0.07" y1="155.32" x2="285.32" y2="155.32" gradientUnits="userSpaceOnUse"><stop offset="0" stop-color="#4c4c4c"/><stop offset="0.7" stop-color="#fff"/></linearGradient><linearGradient id="linear-gradient-2" x1="10.42" y1="149.48" x2="275" y2="149.48" xlink:href="#linear-gradient"/><linearGradient id="linear-gradient-3" x1="10.35" y1="191" x2="275" y2="191" gradientUnits="userSpaceOnUse"><stop offset="0" stop-color="#4c4c4c"/><stop offset="0" stop-color="#4d4d4d"/><stop offset="0.1" stop-color="#828282"/><stop offset="0.2" stop-color="#afafaf"/><stop offset="0.29" stop-color="#d2d2d2"/><stop offset="0.37" stop-color="#ebebeb"/><stop offset="0.45" stop-color="#fafafa"/><stop offset="0.52" stop-color="#fff"/><stop offset="0.57" stop-color="#f7f7f7"/><stop offset="0.65" stop-color="#e1e1e1"/><stop offset="0.75" stop-color="#bebebe"/><stop offset="0.87" stop-color="#8c8c8c"/><stop offset="1" stop-color="#4e4e4e"/><stop offset="1" stop-color="#4c4c4c"/></linearGradient><linearGradient id="linear-gradient-4" x1="0" y1="201.11" x2="285.32" y2="201.11" xlink:href="#linear-gradient-3"/><linearGradient id="linear-gradient-5" x1="86.43" y1="48.65" x2="100.2" y2="48.65" xlink:href="#linear-gradient"/><linearGradient id="linear-gradient-6" x1="56.4" y1="46.46" x2="67.44" y2="46.46" xlink:href="#linear-gradient"/><linearGradient id="linear-gradient-7" x1="67.43" y1="59.13" x2="72.68" y2="59.13" xlink:href="#linear-gradient"/><linearGradient id="linear-gradient-8" x1="72.67" y1="56.64" x2="86.44" y2="56.64" xlink:href="#linear-gradient"/><linearGradient id="linear-gradient-9" x1="56.4" y1="42.64" x2="100.2" y2="42.64" xlink:href="#linear-gradient"/><linearGradient id="linear-gradient-10" x1="56.4" y1="46.64" x2="86.44" y2="46.64" xlink:href="#linear-gradient"/><linearGradient id="linear-gradient-11" x1="132.06" y1="84.12" x2="136.75" y2="76" gradientUnits="userSpaceOnUse"><stop offset="0" stop-color="#4c4c4c"/><stop offset="0.04" stop-color="#696969"/><stop offset="0.13" stop-color="#969696"/><stop offset="0.21" stop-color="#bcbcbc"/><stop offset="0.29" stop-color="#d9d9d9"/><stop offset="0.36" stop-color="#eee"/><stop offset="0.44" stop-color="#fbfbfb"/><stop offset="0.52" stop-color="#fff"/><stop offset="0.57" stop-color="#f9f9f9"/><stop offset="0.65" stop-color="#e7e7e7"/><stop offset="0.74" stop-color="#cacaca"/><stop offset="0.83" stop-color="#a1a1a1"/><stop offset="0.94" stop-color="#6e6e6e"/><stop offset="1" stop-color="#4c4c4c"/></linearGradient><linearGradient id="linear-gradient-12" x1="79.79" y1="89.65" x2="207.62" y2="89.65" xlink:href="#linear-gradient-11"/><linearGradient id="linear-gradient-13" x1="89.01" y1="94.67" x2="227.88" y2="94.67" xlink:href="#linear-gradient"/><linearGradient id="linear-gradient-14" x1="194.3" y1="120.34" x2="198.97" y2="112.25" xlink:href="#linear-gradient-11"/><linearGradient id="linear-gradient-15" x1="233.82" y1="147.74" x2="242.08" y2="133.43" xlink:href="#linear-gradient-11"/></defs><g class="cls-1"><g id="Layer_2" data-name="Layer 2"><g id="Layer_1-2" data-name="Layer 1"><g class="cls-2"><path class="cls-3" d="M285.29,167.47v-1c0,.32,0,.64,0,.95.49-21.55-13.45-43.21-41.94-59.66-27.9-16.11-64.37-24.16-100.81-24.16S69.69,91.68,42,107.78.6,144.84.63,165.88c0-.07,0-.14,0-.21v1c0-.25,0-.51,0-.76,0-.07,0-.14,0-.21l0,9.36c-.06,21.24,14,42.51,42,58.72C70.48,249.85,107,257.9,143.4,257.9s72.83-8,100.54-24.15c27.53-16,41.31-36.93,41.37-57.9l0-9.35C285.33,166.82,285.31,167.15,285.29,167.47Z"/><path class="cls-4" d="M285.29,167v-1c0,.31,0,.63,0,.95.49-21.55-13.45-43.21-41.94-59.66-27.9-16.11-64.37-24.16-100.81-24.16S69.69,91.17,42,107.27.6,144.33.63,165.37c0-.07,0-.14,0-.21v1c0-.26,0-.51,0-.76,0-.07,0-.14,0-.21l0,9.35c-.06,21.24,14,42.51,42,58.73,27.89,16.1,64.38,24.15,100.81,24.15s72.83-8,100.54-24.16c27.53-16,41.31-36.93,41.37-57.89l0-9.35C285.33,166.31,285.31,166.64,285.29,167Z"/><path class="cls-5" d="M285.29,166.45v-1c0,.31,0,.63,0,1,.49-21.55-13.45-43.22-41.94-59.67C215.41,90.66,178.94,82.6,142.5,82.6S69.69,90.66,42,106.75.6,143.82.63,164.85c0-.06,0-.13,0-.2v1c0-.26,0-.51,0-.76,0-.07,0-.14,0-.21l0,9.35c-.06,21.24,14,42.51,42,58.72C70.48,248.83,107,256.88,143.4,256.88s72.83-8,100.54-24.16c27.53-16,41.31-36.93,41.37-57.89l0-9.35C285.33,165.8,285.31,166.12,285.29,166.45Z"/><path class="cls-6" d="M285.29,165.94v-1c0,.32,0,.64,0,1,.49-21.56-13.45-43.22-41.94-59.67-27.9-16.1-64.37-24.16-100.81-24.16S69.69,90.14,42,106.24.6,143.31.63,164.34c0-.07,0-.14,0-.2v1c0-.25,0-.5,0-.76,0-.07,0-.14,0-.2l0,9.35c-.06,21.24,14,42.51,42,58.72C70.48,248.32,107,256.37,143.4,256.36s72.83-8.05,100.54-24.15c27.53-16,41.31-36.93,41.37-57.9l0-9.35C285.33,165.29,285.31,165.61,285.29,165.94Z"/><path class="cls-7" d="M285.29,165.43v-1c0,.32,0,.64,0,1,.49-21.56-13.45-43.22-41.94-59.67-27.9-16.11-64.37-24.16-100.81-24.16S69.69,89.63,42,105.73.6,142.8.63,163.83c0-.07,0-.14,0-.21v1c0-.25,0-.51,0-.76,0-.07,0-.14,0-.21l0,9.36c-.06,21.24,14,42.51,42,58.72C70.48,247.8,107,255.86,143.4,255.85s72.83-8,100.54-24.15c27.53-16,41.31-36.93,41.37-57.9l0-9.35C285.33,164.77,285.31,165.1,285.29,165.43Z"/><path class="cls-8" d="M285.29,164.91v-1c0,.32,0,.63,0,.95.49-21.55-13.45-43.21-41.94-59.66-27.9-16.11-64.37-24.16-100.81-24.16S69.69,89.12,42,105.22.6,142.28.63,163.32c0-.07,0-.14,0-.21v1c0-.26,0-.51,0-.76,0-.07,0-.14,0-.21l0,9.36c-.06,21.23,14,42.51,42,58.72,27.89,16.1,64.38,24.15,100.81,24.15s72.83-8.05,100.54-24.15c27.53-16,41.31-36.94,41.37-57.9l0-9.35C285.33,164.26,285.31,164.59,285.29,164.91Z"/><path class="cls-9" d="M285.29,164.4v-1c0,.31,0,.63,0,.95.49-21.55-13.45-43.22-41.94-59.67-27.9-16.1-64.37-24.15-100.81-24.15S69.69,88.61,42,104.7.6,141.77.63,162.8c0-.06,0-.13,0-.2v1c0-.26,0-.51,0-.76,0-.07,0-.14,0-.21l0,9.35c-.06,21.24,14,42.51,42,58.73,27.89,16.1,64.38,24.15,100.81,24.15s72.83-8.05,100.54-24.16c27.53-16,41.31-36.93,41.37-57.89l0-9.35C285.33,163.75,285.31,164.07,285.29,164.4Z"/><path class="cls-10" d="M285.29,163.89v-1c0,.32,0,.64,0,1,.49-21.56-13.45-43.22-41.94-59.67C215.41,88.1,178.94,80,142.5,80S69.69,88.09,42,104.19.6,141.26.63,162.29c0-.07,0-.13,0-.2v1c0-.25,0-.5,0-.76,0-.07,0-.13,0-.2l0,9.35c-.06,21.24,14,42.51,42,58.72C70.48,246.27,107,254.32,143.4,254.31s72.83-8,100.54-24.15c27.53-16,41.31-36.93,41.37-57.9l0-9.35C285.33,163.24,285.31,163.56,285.29,163.89Z"/><path class="cls-11" d="M285.29,163.38v-1c0,.32,0,.64,0,1,.49-21.56-13.45-43.22-41.94-59.67-27.9-16.11-64.37-24.16-100.81-24.16S69.69,87.58,42,103.68.6,140.75.63,161.78c0-.07,0-.14,0-.2v1c0-.25,0-.51,0-.76,0-.07,0-.14,0-.2l0,9.35c-.06,21.24,14,42.51,42,58.72C70.48,245.76,107,253.81,143.4,253.8s72.83-8.05,100.54-24.15c27.53-16,41.31-36.93,41.37-57.9l0-9.35C285.33,162.73,285.31,163.05,285.29,163.38Z"/><path class="cls-12" d="M285.29,162.87v-1c0,.32,0,.64,0,1,.49-21.55-13.45-43.21-41.94-59.66C215.41,87.07,178.94,79,142.5,79S69.69,87.07,42,103.17.6,140.24.63,161.27c0-.07,0-.14,0-.21v1c0-.25,0-.51,0-.76,0-.07,0-.14,0-.21l0,9.36c-.06,21.24,14,42.51,42,58.72,27.89,16.1,64.38,24.15,100.81,24.15s72.83-8,100.54-24.15c27.53-16,41.31-36.93,41.37-57.9l0-9.35C285.33,162.21,285.31,162.54,285.29,162.87Z"/><path class="cls-13" d="M285.29,162.35v-1c0,.32,0,.63,0,1,.49-21.55-13.45-43.21-41.94-59.66-27.9-16.11-64.37-24.16-100.81-24.16S69.69,86.56,42,102.66.6,139.72.63,160.76c0-.07,0-.14,0-.21v1c0-.26,0-.51,0-.76,0-.07,0-.14,0-.21l0,9.35c-.06,21.24,14,42.51,42,58.73,27.89,16.1,64.38,24.15,100.81,24.15s72.83-8.05,100.54-24.16c27.53-16,41.31-36.93,41.37-57.89l0-9.35C285.33,161.7,285.31,162,285.29,162.35Z"/><path class="cls-14" d="M285.29,161.84v-1c0,.31,0,.63,0,.95.49-21.55-13.45-43.22-41.94-59.67C215.41,86.05,178.94,78,142.5,78S69.69,86,42,102.14.6,139.21.63,160.24c0-.07,0-.13,0-.2v1c0-.26,0-.51,0-.77,0-.06,0-.13,0-.2l0,9.35c-.06,21.24,14,42.51,42,58.72C70.48,244.22,107,252.27,143.4,252.26s72.83-8,100.54-24.15c27.53-16,41.31-36.93,41.37-57.89l0-9.35C285.33,161.19,285.31,161.51,285.29,161.84Z"/><path class="cls-15" d="M285.29,161.33v-1c0,.32,0,.64,0,1,.49-21.56-13.45-43.22-41.94-59.67-27.9-16.1-64.37-24.16-100.81-24.16S69.69,85.53,42,101.63.6,138.7.63,159.73c0-.07,0-.14,0-.2v1c0-.25,0-.51,0-.76,0-.07,0-.14,0-.2l0,9.35c-.06,21.24,14,42.51,42,58.72C70.48,243.71,107,251.76,143.4,251.75s72.83-8,100.54-24.15c27.53-16,41.31-36.93,41.37-57.9l0-9.35C285.33,160.68,285.31,161,285.29,161.33Z"/><path class="cls-16" d="M285.29,160.82v-1c0,.32,0,.64,0,1,.49-21.56-13.45-43.22-41.94-59.67C215.41,85,178.94,77,142.5,77S69.69,85,42,101.12.6,138.19.63,159.22c0-.07,0-.14,0-.2v1c0-.25,0-.51,0-.76,0-.07,0-.14,0-.2l0,9.35c-.06,21.24,14,42.51,42,58.72,27.89,16.1,64.38,24.15,100.81,24.15s72.83-8.05,100.54-24.15c27.53-16,41.31-36.93,41.37-57.9l0-9.35C285.33,160.17,285.31,160.49,285.29,160.82Z"/><path class="cls-17" d="M285.29,160.3v-1c0,.32,0,.63,0,.95.49-21.55-13.45-43.21-41.94-59.66-27.9-16.11-64.37-24.16-100.81-24.16S69.69,84.51,42,100.61.6,137.67.63,158.71c0-.07,0-.14,0-.21v1c0-.26,0-.51,0-.76,0-.07,0-.14,0-.21l0,9.35c-.06,21.24,14,42.52,42,58.73,27.89,16.1,64.38,24.15,100.81,24.15s72.83-8,100.54-24.15c27.53-16,41.31-36.94,41.37-57.9l0-9.35C285.33,159.65,285.31,160,285.29,160.3Z"/><path class="cls-18" d="M285.29,159.79v-1c0,.31,0,.63,0,1,.49-21.55-13.45-43.21-41.94-59.66C215.41,84,178.94,76,142.5,75.94S69.69,84,42,100.1.6,137.16.63,158.19c0-.06,0-.13,0-.2v1c0-.26,0-.51,0-.77,0-.06,0-.13,0-.2l0,9.35c-.06,21.24,14,42.51,42,58.72C70.48,242.17,107,250.22,143.4,250.21s72.83-8,100.54-24.15c27.53-16,41.31-36.93,41.37-57.89l0-9.35C285.33,159.14,285.31,159.46,285.29,159.79Z"/><path class="cls-19" d="M285.29,159.28v-1c0,.32,0,.64,0,1,.49-21.55-13.45-43.22-41.94-59.67-27.9-16.1-64.37-24.15-100.81-24.16S69.69,83.48,42,99.58.6,136.65.63,157.68c0-.07,0-.14,0-.2v1c0-.25,0-.5,0-.76,0-.06,0-.14,0-.2l0,9.35c-.06,21.24,14,42.51,42,58.72C70.48,241.66,107,249.71,143.4,249.7s72.83-8,100.54-24.15c27.53-16,41.31-36.93,41.37-57.9l0-9.35C285.33,158.63,285.31,159,285.29,159.28Z"/><path class="cls-20" d="M285.29,158.77v-1c0,.32,0,.64,0,1,.49-21.56-13.45-43.22-41.94-59.67C215.41,83,178.94,74.92,142.5,74.92S69.69,83,42,99.07.6,136.14.63,157.17c0-.07,0-.14,0-.2v1c0-.25,0-.51,0-.76,0-.07,0-.14,0-.2l0,9.35c-.06,21.24,14,42.51,42,58.72C70.48,241.15,107,249.2,143.4,249.19s72.83-8.05,100.54-24.15c27.53-16,41.31-36.93,41.37-57.9l0-9.35C285.33,158.12,285.31,158.44,285.29,158.77Z"/><path class="cls-21" d="M285.29,158.26v-1c0,.32,0,.63,0,.95.49-21.55-13.45-43.21-41.94-59.66-27.9-16.11-64.37-24.16-100.81-24.16S69.69,82.46,42,98.56.6,135.63.63,156.66c0-.07,0-.14,0-.21v1c0-.25,0-.51,0-.76,0-.07,0-.14,0-.21l0,9.36c-.06,21.23,14,42.51,42,58.72,27.89,16.1,64.38,24.15,100.81,24.15s72.83-8.05,100.54-24.15c27.53-16,41.31-36.93,41.37-57.9l0-9.35C285.33,157.6,285.31,157.93,285.29,158.26Z"/><path class="cls-22" d="M285.29,157.74v-1c0,.32,0,.63,0,.95.49-21.55-13.45-43.21-41.94-59.66C215.41,82,178.94,73.9,142.5,73.9S69.69,82,42,98.05.6,135.11.63,156.14c0-.06,0-.13,0-.2v1c0-.26,0-.51,0-.76,0-.07,0-.14,0-.21l0,9.35c-.06,21.24,14,42.51,42,58.73,27.89,16.1,64.38,24.15,100.81,24.14s72.83-8,100.54-24.14c27.53-16,41.31-36.94,41.37-57.9l0-9.35C285.33,157.09,285.31,157.42,285.29,157.74Z"/><path class="cls-23" d="M285.29,157.23v-1c0,.32,0,.64,0,1,.49-21.55-13.45-43.22-41.94-59.67-27.9-16.1-64.37-24.15-100.81-24.16S69.69,81.43,42,97.54.6,134.6.63,155.63c0-.07,0-.13,0-.2v1c0-.25,0-.5,0-.76,0-.06,0-.13,0-.2l0,9.35c-.06,21.24,14,42.51,42,58.72C70.48,239.61,107,247.66,143.4,247.65s72.83-8,100.54-24.15c27.53-16,41.31-36.93,41.37-57.89l0-9.36C285.33,156.58,285.31,156.9,285.29,157.23Z"/><path class="cls-24" d="M285.29,156.72v-1c0,.32,0,.64,0,1,.49-21.56-13.45-43.22-41.94-59.67-27.9-16.1-64.37-24.16-100.81-24.16S69.69,80.92,42,97,.6,134.09.63,155.12c0-.07,0-.14,0-.2v1c0-.25,0-.51,0-.76,0-.07,0-.14,0-.2l0,9.35c-.06,21.24,14,42.51,42,58.72C70.48,239.1,107,247.15,143.4,247.14s72.83-8,100.54-24.15c27.53-16,41.31-36.93,41.37-57.9l0-9.35C285.33,156.07,285.31,156.39,285.29,156.72Z"/></g><path class="cls-25" d="M262.06,200.83c-.74.65-1.54,1.28-2.31,1.93C260.52,202.11,261.32,201.48,262.06,200.83Z"/><path class="cls-25" d="M265.79,197.36c-.66.65-1.37,1.28-2.06,1.91C264.42,198.64,265.13,198,265.79,197.36Z"/><path class="cls-25" d="M258,204.21c-.86.68-1.77,1.33-2.67,2C256.24,205.54,257.15,204.89,258,204.21Z"/><path class="cls-25" d="M20,197.24c-.54-.53-1-1.07-1.56-1.61C19,196.17,19.46,196.71,20,197.24Z"/><path class="cls-25" d="M253.63,207.49c-1,.73-2.1,1.44-3.17,2.15C251.53,208.93,252.61,208.22,253.63,207.49Z"/><path class="cls-25" d="M23.79,200.74c-.6-.53-1.15-1.06-1.73-1.59C22.64,199.68,23.19,200.21,23.79,200.74Z"/><path class="cls-25" d="M267.34,195.74l1-1.08h0Z"/><path class="cls-25" d="M32.33,207.45c-.62-.44-1.2-.9-1.8-1.34C31.13,206.55,31.71,207,32.33,207.45Z"/><path class="cls-25" d="M248.93,210.67c-1.62,1.05-3.29,2.07-5,3.08C245.64,212.74,247.31,211.72,248.93,210.67Z"/><path class="cls-25" d="M37.09,210.65c-.54-.35-1-.7-1.57-1.06C36.05,210,36.55,210.3,37.09,210.65Z"/><path class="cls-25" d="M27.89,204.14c-.62-.49-1.2-1-1.8-1.49C26.69,203.14,27.27,203.65,27.89,204.14Z"/><path class="cls-25" d="M10.49,151.18c0,.42,0,.84,0,1.26a.13.13,0,0,0,0-.06C10.52,152,10.51,151.58,10.49,151.18Z"/><path class="cls-25" d="M274.88,153.4s0,0,0-.06v.06Z"/><path class="cls-26" d="M.24,159.09c.06.68.17,1.36.25,2s.15,1.28.25,1.93.28,1.36.42,2,.25,1.28.41,1.91.39,1.35.59,2,.35,1.27.57,1.91.5,1.35.76,2,.45,1.26.72,1.88.63,1.36,1,2,.54,1.22.86,1.82.75,1.35,1.13,2,.65,1.2,1,1.8.87,1.34,1.3,2,.76,1.19,1.17,1.77,1,1.33,1.49,2,.84,1.16,1.3,1.73,1.12,1.32,1.69,2,.93,1.13,1.44,1.68,1.26,1.31,1.89,2,1,1.08,1.56,1.61,1.37,1.28,2.06,1.91,1.13,1.06,1.73,1.59,1.53,1.27,2.3,1.91c.6.49,1.18,1,1.8,1.49.85.66,1.75,1.31,2.64,2,.6.44,1.18.9,1.8,1.34,1,.72,2.11,1.43,3.19,2.14.53.36,1,.71,1.57,1.06,1.65,1,3.35,2.09,5.1,3.1,55.89,32.26,146.18,32.26,201.72,0,1.73-1,3.4-2,5-3.08.53-.34,1-.69,1.53-1,1.07-.71,2.15-1.42,3.17-2.15.59-.42,1.13-.85,1.71-1.28.9-.67,1.81-1.32,2.67-2,.6-.48,1.16-1,1.74-1.45.77-.65,1.57-1.28,2.31-1.93.58-.51,1.11-1,1.67-1.56s1.4-1.26,2.06-1.91,1-1.08,1.55-1.62l1.05-1.09c.26-.28.54-.55.79-.84.51-.55,1-1.12,1.43-1.68s1.13-1.28,1.65-1.94.86-1.15,1.29-1.72,1-1.3,1.47-2,.76-1.17,1.14-1.76.88-1.32,1.28-2,.68-1.2,1-1.8.76-1.32,1.1-2,.57-1.22.85-1.84.64-1.33.92-2,.47-1.24.7-1.86.53-1.34.76-2,.36-1.24.54-1.87.42-1.35.58-2,.27-1.26.4-1.89.3-1.36.41-2,.16-1.26.24-1.89.19-1.37.24-2.05.06-1.27.09-1.9c.9-21.89-13.1-44-42-60.67-55.91-32.28-146.2-32.28-201.74,0C13.84,113,0,134,.07,155.11c0,.68,0,1.37.08,2S.19,158.45.24,159.09Zm10.18-10v.19c0-19.55,12.77-39.09,38.44-54,51.49-29.93,135.27-29.93,187.12,0,26.83,15.48,39.82,36,39,56.26,0-.57.07-1.13.07-1.69l0,6.78c0,.57,0,1.13-.07,1.7s0,1.18-.08,1.78-.15,1.26-.22,1.88-.13,1.18-.23,1.78-.25,1.25-.38,1.89-.22,1.17-.37,1.75-.35,1.25-.53,1.88-.32,1.16-.51,1.75-.46,1.23-.69,1.85-.42,1.16-.66,1.74-.57,1.24-.86,1.86-.5,1.14-.79,1.7-.68,1.24-1,1.87-.59,1.1-.92,1.65-.79,1.23-1.19,1.85-.69,1.08-1.06,1.62-.9,1.22-1.36,1.84-.78,1.06-1.19,1.58-1,1.21-1.54,1.82-.86,1-1.31,1.54-1.16,1.21-1.74,1.81-.93,1-1.42,1.48-1.29,1.21-1.94,1.81-1,.94-1.52,1.4c-.71.63-1.47,1.24-2.21,1.85-.51.43-1,.87-1.54,1.29-.78.61-1.61,1.21-2.43,1.82-.55.4-1.07.82-1.63,1.22-.95.68-1.95,1.34-2.95,2-.47.31-.92.64-1.41,1-1.51,1-3.06,1.93-4.66,2.86-51.5,29.92-135.28,29.93-187.11,0-1.63-.94-3.2-1.9-4.73-2.87-.53-.34-1-.69-1.54-1-1-.64-2-1.28-2.88-1.93-.59-.42-1.12-.84-1.69-1.26-.81-.6-1.64-1.2-2.43-1.81-.57-.45-1.09-.91-1.65-1.37-.72-.59-1.46-1.18-2.16-1.79-.54-.48-1.05-1-1.57-1.45s-1.32-1.19-1.93-1.79-1-1-1.48-1.52-1.18-1.19-1.73-1.79-.9-1-1.36-1.59-1.05-1.19-1.53-1.8-.81-1.07-1.22-1.6-.95-1.23-1.38-1.84-.72-1.1-1.08-1.65-.83-1.23-1.21-1.85-.63-1.12-.95-1.68-.71-1.24-1-1.87-.53-1.12-.8-1.68-.62-1.27-.89-1.91-.44-1.14-.65-1.71-.51-1.27-.72-1.91-.35-1.16-.52-1.75-.39-1.26-.55-1.89-.25-1.18-.38-1.77-.28-1.27-.39-1.9-.15-1.19-.23-1.78-.18-1.27-.23-1.9-.06-1.19-.08-1.79-.07-1.27-.08-1.91c0-.06,0-.12,0-.18Z"/><path class="cls-25" d="M10.48,158c0,.6,0,1.19.08,1.79s.15,1.26.23,1.9.13,1.18.23,1.78.26,1.26.39,1.9.23,1.18.38,1.77.36,1.26.55,1.89.32,1.17.52,1.75.48,1.27.72,1.91.41,1.14.65,1.71.59,1.28.89,1.91.51,1.12.8,1.68.69,1.25,1,1.87.61,1.13.95,1.68.8,1.23,1.21,1.85.7,1.1,1.08,1.65.92,1.23,1.38,1.84.79,1.07,1.22,1.6,1,1.2,1.53,1.8.89,1.07,1.36,1.59,1.15,1.19,1.73,1.79,1,1,1.48,1.52,1.28,1.19,1.93,1.79,1,1,1.57,1.45c.7.61,1.44,1.2,2.16,1.79.56.46,1.08.92,1.65,1.37.79.61,1.62,1.21,2.43,1.81.57.42,1.1.84,1.69,1.26.93.65,1.91,1.29,2.88,1.93.52.35,1,.7,1.54,1,1.53,1,3.1,1.93,4.73,2.87,51.83,29.93,135.61,29.92,187.11,0,1.6-.93,3.15-1.89,4.66-2.86.49-.31.94-.64,1.41-1,1-.66,2-1.32,2.95-2,.56-.4,1.08-.82,1.63-1.22.82-.61,1.65-1.21,2.43-1.82.53-.42,1-.86,1.54-1.29.74-.61,1.5-1.22,2.21-1.85.53-.46,1-.93,1.52-1.4s1.32-1.2,1.94-1.81.94-1,1.42-1.48,1.18-1.2,1.74-1.81.87-1,1.31-1.54,1.05-1.21,1.54-1.82.79-1.06,1.19-1.58.93-1.22,1.36-1.84.71-1.08,1.06-1.62.82-1.23,1.19-1.85.61-1.1.92-1.65.72-1.24,1-1.87.53-1.13.79-1.7.6-1.24.86-1.86.44-1.16.66-1.74.48-1.24.69-1.85.34-1.17.51-1.75.38-1.26.53-1.88.25-1.17.37-1.75.28-1.26.38-1.89.15-1.19.23-1.78.16-1.25.22-1.88.05-1.19.08-1.78.07-1.13.07-1.7l0-6.78c0,.56-.05,1.12-.07,1.69s0,1.18-.08,1.78c0,0,0,0,0,.06-.05.61-.14,1.21-.21,1.82s-.13,1.18-.23,1.78-.25,1.25-.38,1.88-.22,1.18-.36,1.76-.36,1.25-.54,1.87-.32,1.17-.51,1.76-.46,1.23-.69,1.85-.42,1.16-.66,1.74-.57,1.24-.86,1.86-.5,1.13-.79,1.7-.68,1.24-1,1.86-.59,1.11-.92,1.66-.78,1.22-1.18,1.83-.69,1.1-1.07,1.65-.89,1.2-1.34,1.8-.79,1.08-1.22,1.61-1,1.2-1.51,1.79-.87,1-1.34,1.57-1.13,1.18-1.69,1.77-1,1-1.46,1.52-1.26,1.18-1.89,1.76-1,1-1.57,1.45-1.42,1.19-2.13,1.79c-.55.45-1.06.9-1.63,1.35-.76.6-1.57,1.19-2.37,1.78-.56.42-1.1.85-1.69,1.27-.94.67-2,1.33-2.94,2-.47.32-.92.64-1.41,1-1.51,1-3.06,1.91-4.67,2.84-51.5,29.93-135.27,29.94-187.1,0q-2.45-1.41-4.73-2.87c-.5-.32-1-.66-1.46-1-1-.66-2-1.32-3-2-.54-.39-1-.78-1.57-1.17-.86-.64-1.73-1.26-2.55-1.9-.56-.45-1.08-.91-1.63-1.36-.73-.6-1.48-1.19-2.18-1.8-.54-.48-1-1-1.57-1.45s-1.32-1.19-1.94-1.79-.95-1-1.43-1.48-1.21-1.22-1.77-1.84-.89-1-1.34-1.56-1.06-1.2-1.55-1.82-.82-1.08-1.23-1.62-.94-1.21-1.37-1.82-.72-1.11-1.09-1.66-.82-1.22-1.2-1.84-.63-1.12-1-1.68-.71-1.24-1-1.87-.53-1.14-.8-1.71-.61-1.25-.88-1.87-.44-1.16-.66-1.74-.5-1.26-.71-1.88-.35-1.17-.52-1.75-.39-1.27-.55-1.9-.25-1.18-.38-1.77-.28-1.27-.39-1.9-.15-1.19-.23-1.79-.18-1.26-.23-1.89c0-.18,0-.36,0-.54,0-.42,0-.84,0-1.26,0-.63-.07-1.26-.07-1.89v-.19l0,6.79c0,.06,0,.12,0,.18C10.41,156.71,10.45,157.35,10.48,158Z"/><path class="cls-27" d="M10.49,151.18c0,.4,0,.8.06,1.2,0,.2,0,.4,0,.6.05.63.15,1.26.23,1.89s.13,1.2.23,1.79.26,1.27.39,1.9.23,1.18.38,1.77.36,1.26.55,1.9.32,1.16.52,1.75.47,1.25.71,1.88.42,1.16.66,1.74.58,1.25.88,1.87.51,1.15.8,1.71.7,1.24,1,1.87.61,1.12,1,1.68.8,1.23,1.2,1.84.71,1.11,1.09,1.66.91,1.22,1.37,1.82.79,1.09,1.23,1.62,1,1.21,1.55,1.82.87,1,1.34,1.56,1.18,1.23,1.77,1.84.93,1,1.43,1.48,1.29,1.19,1.94,1.79,1,1,1.57,1.45c.7.61,1.45,1.2,2.18,1.8.55.45,1.07.91,1.63,1.36.82.64,1.69,1.26,2.55,1.9.53.39,1,.78,1.57,1.17.95.67,2,1.33,3,2,.49.32,1,.66,1.46,1q2.28,1.45,4.73,2.87c51.83,29.93,135.6,29.92,187.1,0,1.61-.93,3.16-1.88,4.67-2.84.49-.32.94-.64,1.41-1,1-.66,2-1.32,2.94-2,.59-.42,1.13-.85,1.69-1.27.8-.59,1.61-1.18,2.37-1.78.57-.45,1.08-.9,1.63-1.35.71-.6,1.45-1.18,2.13-1.79s1-1,1.57-1.45,1.28-1.17,1.89-1.76,1-1,1.46-1.52,1.15-1.17,1.69-1.77.89-1.05,1.34-1.57,1-1.19,1.51-1.79.81-1.07,1.22-1.61.91-1.2,1.34-1.8.71-1.1,1.07-1.65.81-1.22,1.18-1.83.62-1.11.92-1.66.71-1.24,1-1.86.53-1.13.79-1.7.6-1.24.86-1.86.44-1.16.66-1.74.48-1.24.69-1.85.34-1.17.51-1.76.38-1.25.54-1.87.24-1.17.36-1.76.28-1.25.38-1.88.15-1.19.23-1.78.16-1.23.21-1.85v0c.05-.6.05-1.19.08-1.78.83-20.3-12.16-40.78-39-56.26-51.85-29.94-135.63-29.94-187.12,0-25.67,14.91-38.47,34.45-38.44,54C10.42,149.92,10.47,150.55,10.49,151.18Z"/><path class="cls-28" d="M.24,159.09c.06.68.17,1.36.25,2s.15,1.28.25,1.93.28,1.36.42,2,.25,1.28.41,1.91.39,1.35.59,2,.35,1.27.57,1.91.5,1.35.76,2,.45,1.26.72,1.88.63,1.36,1,2,.54,1.22.86,1.82.75,1.35,1.13,2,.65,1.2,1,1.8.87,1.34,1.3,2,.76,1.19,1.17,1.77,1,1.33,1.49,2,.84,1.16,1.3,1.73,1.12,1.32,1.69,2,.93,1.13,1.44,1.68,1.26,1.31,1.89,2,1,1.08,1.56,1.61,1.37,1.28,2.06,1.91,1.13,1.06,1.73,1.59,1.53,1.27,2.3,1.91c.6.49,1.18,1,1.8,1.49.85.66,1.75,1.31,2.64,2,.6.44,1.18.9,1.8,1.34,1,.72,2.11,1.43,3.19,2.14.53.36,1,.71,1.57,1.06,1.65,1,3.35,2.09,5.1,3.1,55.89,32.26,146.18,32.26,201.72,0,1.73-1,3.4-2,5-3.08.53-.34,1-.69,1.53-1,1.07-.71,2.15-1.42,3.17-2.15.59-.42,1.13-.85,1.71-1.28.9-.67,1.81-1.32,2.67-2,.6-.48,1.16-1,1.74-1.45.77-.65,1.57-1.28,2.31-1.93.58-.51,1.11-1,1.67-1.56s1.4-1.26,2.06-1.91,1-1.08,1.55-1.62l1.05-1.09c.26-.28.54-.55.79-.84.51-.55,1-1.12,1.43-1.68s1.13-1.28,1.65-1.94.86-1.15,1.29-1.72,1-1.3,1.47-2,.76-1.17,1.14-1.76.88-1.32,1.28-2,.68-1.2,1-1.8.76-1.32,1.1-2,.57-1.22.85-1.84.64-1.33.92-2,.47-1.24.7-1.86.53-1.34.76-2,.36-1.24.54-1.87.42-1.35.58-2,.27-1.26.4-1.89.3-1.36.41-2,.16-1.26.24-1.89.19-1.37.24-2.05.06-1.27.09-1.9c.9-21.89-13.1-44-42-60.67-55.91-32.28-146.2-32.28-201.74,0C13.84,113,0,134,.07,155.11c0,.68,0,1.37.08,2S.19,158.45.24,159.09Zm10.18-10v.19c0-19.55,12.77-39.09,38.44-54,51.49-29.93,135.27-29.93,187.12,0,26.83,15.48,39.82,36,39,56.26,0-.57.07-1.13.07-1.69l0,6.78c0,.57,0,1.13-.07,1.7s0,1.18-.08,1.78-.15,1.26-.22,1.88-.13,1.18-.23,1.78-.25,1.25-.38,1.89-.22,1.17-.37,1.75-.35,1.25-.53,1.88-.32,1.16-.51,1.75-.46,1.23-.69,1.85-.42,1.16-.66,1.74-.57,1.24-.86,1.86-.5,1.14-.79,1.7-.68,1.24-1,1.87-.59,1.1-.92,1.65-.79,1.23-1.19,1.85-.69,1.08-1.06,1.62-.91,1.22-1.36,1.84-.78,1.06-1.19,1.58-1,1.21-1.54,1.82-.86,1-1.32,1.54-1.15,1.21-1.73,1.81-.93,1-1.42,1.48-1.29,1.21-1.94,1.81-1,.94-1.52,1.4c-.71.63-1.47,1.24-2.21,1.85-.51.43-1,.87-1.54,1.29-.78.61-1.61,1.21-2.43,1.82-.55.4-1.07.82-1.63,1.22-.95.68-1.95,1.34-2.95,2-.47.31-.92.64-1.41,1-1.51,1-3.06,1.93-4.66,2.86-51.5,29.92-135.28,29.93-187.11,0-1.63-.94-3.2-1.9-4.73-2.87-.53-.34-1-.69-1.54-1-1-.64-2-1.28-2.88-1.93-.59-.42-1.12-.84-1.69-1.26-.81-.6-1.64-1.2-2.43-1.81-.57-.45-1.09-.91-1.65-1.37-.72-.59-1.46-1.18-2.16-1.79-.54-.48-1.05-1-1.57-1.45s-1.32-1.19-1.93-1.79-1-1-1.48-1.52-1.18-1.19-1.73-1.79-.9-1-1.36-1.59-1.05-1.19-1.53-1.8-.81-1.07-1.22-1.6-.95-1.23-1.38-1.84-.72-1.1-1.08-1.65-.83-1.23-1.21-1.85-.63-1.12-.95-1.68-.71-1.24-1-1.87-.53-1.12-.8-1.68-.62-1.27-.89-1.91-.44-1.14-.65-1.71-.51-1.27-.72-1.91-.35-1.16-.52-1.75-.39-1.26-.55-1.89-.25-1.18-.38-1.77-.28-1.27-.39-1.9-.15-1.19-.23-1.78-.18-1.27-.23-1.9-.06-1.19-.08-1.79-.07-1.27-.08-1.91c0-.06,0-.12,0-.18Z"/><path class="cls-29" d="M10.49,151.18c0,.4,0,.8.06,1.2,0,.2,0,.4,0,.6.05.63.15,1.26.23,1.89s.13,1.2.23,1.79.26,1.27.39,1.9.23,1.18.38,1.77.36,1.26.55,1.9.32,1.16.52,1.75.47,1.25.71,1.88.42,1.16.66,1.74.58,1.25.88,1.87.51,1.15.8,1.71.7,1.24,1,1.87.61,1.12,1,1.68.8,1.23,1.2,1.84.71,1.11,1.09,1.66.91,1.22,1.37,1.82.79,1.09,1.23,1.62,1,1.21,1.55,1.82.87,1,1.34,1.56,1.18,1.23,1.77,1.84.93,1,1.43,1.48,1.29,1.19,1.94,1.79,1,1,1.57,1.45c.7.61,1.45,1.2,2.18,1.8.55.45,1.07.91,1.63,1.36.82.64,1.69,1.26,2.55,1.9.53.39,1,.78,1.57,1.17.95.67,2,1.33,3,2,.49.32,1,.66,1.46,1q2.28,1.45,4.73,2.87c51.83,29.93,135.6,29.92,187.1,0,1.61-.93,3.16-1.88,4.67-2.84.49-.32.94-.64,1.41-1,1-.66,2-1.32,2.94-2,.59-.42,1.13-.85,1.69-1.27.8-.59,1.61-1.18,2.37-1.78.57-.45,1.08-.9,1.63-1.35.71-.6,1.45-1.18,2.13-1.79s1-1,1.57-1.45,1.28-1.17,1.89-1.76,1-1,1.46-1.52,1.15-1.17,1.69-1.77.89-1.05,1.34-1.57,1-1.19,1.51-1.79.81-1.07,1.22-1.61.91-1.2,1.34-1.8.71-1.1,1.07-1.65.81-1.22,1.18-1.83.62-1.11.92-1.66.71-1.24,1-1.86.53-1.13.79-1.7.6-1.24.86-1.86.44-1.16.66-1.74.48-1.24.69-1.85.34-1.17.51-1.76.38-1.25.54-1.87.24-1.17.36-1.76.28-1.25.38-1.88.15-1.19.23-1.78.16-1.23.21-1.85v0c.05-.6.05-1.19.08-1.78.83-20.3-12.16-40.78-39-56.26-51.85-29.94-135.63-29.94-187.12,0-25.67,14.91-38.47,34.45-38.44,54C10.42,149.92,10.47,150.55,10.49,151.18Z"/><path class="cls-25" d="M285.28,157.58c0,.63,0,1.26-.09,1.9s-.16,1.36-.24,2.05-.14,1.26-.24,1.89-.27,1.36-.41,2-.24,1.26-.4,1.89-.38,1.35-.58,2-.33,1.25-.54,1.87-.5,1.35-.76,2-.44,1.24-.7,1.86-.61,1.34-.92,2-.55,1.23-.85,1.84-.73,1.33-1.1,2-.65,1.2-1,1.8-.85,1.33-1.28,2-.74,1.17-1.14,1.76-1,1.31-1.47,2-.83,1.15-1.29,1.72-1.09,1.3-1.65,1.94-.92,1.13-1.43,1.68c-.25.29-.54.57-.8.85l-1,1.08c-.52.54-1,1.09-1.55,1.62s-1.37,1.28-2.06,1.91-1.09,1-1.67,1.56c-.74.65-1.54,1.28-2.31,1.93-.58.48-1.14,1-1.74,1.45-.86.68-1.77,1.33-2.67,2-.58.43-1.12.86-1.71,1.28-1,.73-2.1,1.44-3.17,2.15-.51.34-1,.69-1.53,1-1.62,1.05-3.29,2.07-5,3.08C188.37,246,98.08,246,42.19,213.75c-1.75-1-3.45-2.05-5.1-3.1-.54-.35-1-.7-1.57-1.06-1.08-.71-2.16-1.42-3.19-2.14-.62-.44-1.2-.9-1.8-1.34-.89-.66-1.79-1.31-2.64-2-.62-.49-1.2-1-1.8-1.49-.77-.64-1.57-1.27-2.3-1.91s-1.15-1.06-1.73-1.59-1.4-1.26-2.06-1.91-1-1.07-1.56-1.61-1.29-1.3-1.89-2-1-1.12-1.44-1.68-1.16-1.3-1.69-2-.87-1.15-1.3-1.73-1-1.31-1.49-2-.78-1.18-1.17-1.77-.89-1.33-1.3-2-.68-1.2-1-1.8-.78-1.35-1.13-2-.58-1.21-.86-1.82-.66-1.36-1-2-.48-1.25-.72-1.88-.53-1.34-.76-2-.39-1.27-.57-1.91-.42-1.35-.59-2-.27-1.28-.41-1.91-.3-1.36-.42-2-.17-1.29-.25-1.93-.19-1.36-.25-2-.06-1.29-.09-1.94-.08-1.36-.08-2v-.2l0,9.37C0,185.56,14,206.87,42.16,223.12c55.9,32.26,146.19,32.26,201.72,0,27.58-16,41.39-37,41.45-58l0-9.37C285.35,156.35,285.3,157,285.28,157.58Z"/><path class="cls-30" d="M10.44,158c0,.6,0,1.19.08,1.79s.15,1.26.23,1.9.13,1.18.23,1.78.26,1.26.39,1.9.23,1.18.38,1.77.36,1.26.55,1.89.33,1.17.52,1.75.48,1.27.72,1.91.41,1.14.66,1.71.58,1.28.88,1.91.51,1.12.8,1.68.69,1.25,1,1.87.61,1.13.94,1.68.8,1.23,1.21,1.85.7,1.1,1.08,1.65.92,1.23,1.39,1.84.78,1.07,1.2,1.6,1,1.2,1.55,1.8.88,1.07,1.35,1.59,1.15,1.19,1.73,1.79,1,1,1.48,1.52,1.28,1.19,1.93,1.79,1,1,1.58,1.45,1.43,1.2,2.15,1.79c.56.46,1.08.92,1.65,1.37.78.61,1.62,1.21,2.43,1.81.57.42,1.11.84,1.69,1.26.93.65,1.91,1.29,2.88,1.93.52.35,1,.7,1.54,1q2.29,1.46,4.72,2.87c51.84,29.93,135.62,29.92,187.12,0,1.6-.93,3.15-1.89,4.66-2.86.48-.31.94-.64,1.42-1,1-.66,2-1.32,2.94-2,.56-.4,1.09-.82,1.63-1.22.82-.61,1.65-1.21,2.43-1.82.53-.42,1-.86,1.54-1.29.74-.61,1.5-1.22,2.21-1.85.53-.46,1-.93,1.52-1.4s1.32-1.2,1.94-1.81.95-1,1.42-1.48,1.18-1.2,1.73-1.81.88-1,1.32-1.54,1.05-1.21,1.54-1.82.79-1.06,1.19-1.58.93-1.22,1.36-1.84.71-1.08,1.05-1.62.83-1.23,1.2-1.85.62-1.1.92-1.65.72-1.24,1-1.87.53-1.13.79-1.7.6-1.24.86-1.86.44-1.16.66-1.74.48-1.24.69-1.85.34-1.17.51-1.75.38-1.26.54-1.88.24-1.17.36-1.75.28-1.26.38-1.89.15-1.19.23-1.78.17-1.25.22-1.88.05-1.19.08-1.78.07-1.13.07-1.7l0-6.78c0,.56-.05,1.12-.07,1.69s0,1.18-.08,1.78a.13.13,0,0,0,0,.06c0,.61-.14,1.21-.21,1.82s-.13,1.18-.23,1.78-.25,1.25-.38,1.88-.22,1.18-.36,1.76-.36,1.25-.54,1.87-.32,1.17-.51,1.76-.46,1.23-.69,1.85-.42,1.16-.66,1.74-.57,1.24-.86,1.86-.51,1.13-.79,1.7-.68,1.24-1,1.86-.6,1.11-.93,1.66-.78,1.22-1.18,1.83-.69,1.1-1.07,1.65-.89,1.2-1.34,1.8-.79,1.08-1.22,1.61-1,1.2-1.51,1.79-.87,1-1.34,1.57-1.13,1.18-1.69,1.77-.95,1-1.46,1.52-1.26,1.18-1.89,1.76-1,1-1.57,1.45-1.41,1.19-2.13,1.79c-.54.45-1.06.9-1.63,1.35-.76.6-1.57,1.19-2.37,1.78-.56.42-1.1.85-1.69,1.27-.94.67-1.94,1.33-2.93,2-.48.32-.93.64-1.42,1-1.51,1-3.06,1.91-4.67,2.84-51.49,29.93-135.27,29.94-187.1,0q-2.45-1.41-4.73-2.87c-.5-.32-1-.66-1.46-1-1-.66-2-1.32-3-2-.54-.39-1-.78-1.57-1.17-.86-.64-1.73-1.26-2.55-1.9-.56-.45-1.08-.91-1.63-1.36-.73-.6-1.48-1.19-2.17-1.8s-1.05-1-1.58-1.45-1.32-1.19-1.94-1.79-.95-1-1.43-1.48-1.21-1.22-1.77-1.84-.89-1-1.34-1.56-1.06-1.2-1.55-1.82-.82-1.08-1.23-1.62-.94-1.21-1.37-1.82-.73-1.11-1.09-1.66-.82-1.22-1.2-1.84-.63-1.12-.94-1.68-.72-1.24-1-1.87-.54-1.14-.81-1.71-.61-1.25-.88-1.87-.44-1.16-.66-1.74-.5-1.26-.71-1.88-.35-1.17-.52-1.75-.39-1.27-.55-1.9-.26-1.18-.38-1.77-.28-1.27-.39-1.9-.15-1.19-.23-1.79-.17-1.26-.23-1.89c0-.18,0-.36,0-.54,0-.42,0-.84,0-1.26,0-.63-.08-1.26-.08-1.89v-.19l0,6.79c0,.06,0,.12,0,.18C10.37,156.71,10.41,157.35,10.44,158Z"/><path class="cls-31" d="M285.23,157.58c0,.63,0,1.26-.08,1.9s-.16,1.36-.24,2.05-.14,1.26-.24,1.89-.27,1.36-.41,2-.24,1.26-.39,1.89-.39,1.35-.59,2-.34,1.25-.55,1.87-.49,1.35-.74,2-.45,1.24-.71,1.86-.61,1.34-.92,2-.55,1.23-.85,1.84-.73,1.33-1.1,2-.65,1.2-1,1.8-.85,1.33-1.28,2-.74,1.17-1.14,1.76-1,1.31-1.47,2-.84,1.15-1.29,1.72-1.09,1.3-1.64,1.94-.93,1.13-1.43,1.68c-.26.29-.55.57-.81.85s-.69.72-1,1.08c-.52.54-1,1.09-1.56,1.62s-1.36,1.28-2.05,1.91-1.09,1-1.67,1.56c-.74.65-1.54,1.28-2.31,1.93-.58.48-1.14,1-1.74,1.45-.86.68-1.77,1.33-2.67,2-.57.43-1.12.86-1.71,1.28-1,.73-2.1,1.44-3.16,2.15-.52.34-1,.69-1.54,1-1.62,1.05-3.29,2.07-5,3.08C188.33,246,98,246,42.15,213.75c-1.75-1-3.45-2.05-5.1-3.1-.54-.35-1-.7-1.57-1.06-1.08-.71-2.16-1.42-3.19-2.14-.63-.44-1.2-.9-1.8-1.34-.89-.66-1.79-1.31-2.64-2-.62-.49-1.2-1-1.81-1.49-.77-.64-1.56-1.27-2.3-1.91-.59-.53-1.14-1.06-1.72-1.59s-1.4-1.26-2.06-1.91-1-1.07-1.56-1.61-1.29-1.3-1.89-2-1-1.12-1.44-1.68-1.15-1.3-1.69-2-.87-1.15-1.3-1.73-1-1.31-1.49-2-.78-1.18-1.17-1.77-.89-1.33-1.3-2-.68-1.2-1-1.8-.78-1.35-1.13-2-.57-1.21-.86-1.82-.66-1.36-1-2-.48-1.25-.72-1.88-.54-1.34-.77-2-.38-1.27-.56-1.91-.42-1.35-.59-2-.28-1.28-.41-1.91-.3-1.36-.42-2-.17-1.29-.25-1.93-.19-1.36-.25-2-.06-1.29-.09-1.94-.07-1.36-.07-2c0-.07,0-.13,0-.2l0,9.37c-.06,21.28,14,42.59,42.12,58.84,55.9,32.26,146.19,32.26,201.72,0,27.58-16,41.39-37,41.45-58l0-9.37C285.32,156.35,285.26,157,285.23,157.58Z"/><g class="cls-2"><path class="cls-3" d="M218,176.07c0,22.56-38.11,40.85-85.11,40.85s-85.1-18.29-85.1-40.85,38.11-40.85,85.1-40.85S218,153.51,218,176.07Z"/><path class="cls-32" d="M214.54,176.07c0,21.65-36.57,39.2-81.68,39.2s-81.67-17.55-81.67-39.2,36.57-39.2,81.67-39.2S214.54,154.42,214.54,176.07Z"/><path class="cls-33" d="M211.11,176.07c0,20.74-35,37.56-78.25,37.56s-78.24-16.82-78.24-37.56,35-37.55,78.24-37.55S211.11,155.33,211.11,176.07Z"/><path class="cls-34" d="M207.67,176.07c0,19.83-33.49,35.91-74.81,35.91S58.05,195.9,58.05,176.07s33.5-35.91,74.81-35.91S207.67,156.24,207.67,176.07Z"/><path class="cls-35" d="M204.24,176.07c0,18.92-32,34.26-71.38,34.26S61.49,195,61.49,176.07s32-34.26,71.37-34.26S204.24,157.15,204.24,176.07Z"/><path class="cls-36" d="M200.81,176.07c0,18-30.42,32.62-67.95,32.62s-67.94-14.61-67.94-32.62,30.42-32.61,67.94-32.61S200.81,158.06,200.81,176.07Z"/><path class="cls-37" d="M197.38,176.07c0,17.1-28.89,31-64.52,31s-64.51-13.87-64.51-31,28.89-31,64.51-31S197.38,159,197.38,176.07Z"/><path class="cls-38" d="M194,176.07c0,16.19-27.35,29.32-61.09,29.32s-61.08-13.13-61.08-29.32,27.35-29.32,61.08-29.32S194,159.88,194,176.07Z"/><path class="cls-39" d="M190.52,176.07c0,15.28-25.82,27.67-57.66,27.67s-57.65-12.39-57.65-27.67S101,148.4,132.86,148.4,190.52,160.79,190.52,176.07Z"/><path class="cls-40" d="M187.08,176.07c0,14.37-24.27,26-54.22,26s-54.22-11.66-54.22-26,24.28-26,54.22-26S187.08,161.7,187.08,176.07Z"/><path class="cls-41" d="M183.65,176.07c0,13.46-22.74,24.38-50.79,24.38s-50.78-10.92-50.78-24.38,22.73-24.38,50.78-24.38S183.65,162.61,183.65,176.07Z"/><path class="cls-42" d="M180.22,176.07c0,12.55-21.2,22.73-47.36,22.73s-47.35-10.18-47.35-22.73,21.2-22.73,47.35-22.73S180.22,163.52,180.22,176.07Z"/><path class="cls-43" d="M176.79,176.07c0,11.64-19.67,21.09-43.93,21.09s-43.92-9.45-43.92-21.09S108.6,155,132.86,155,176.79,164.43,176.79,176.07Z"/><path class="cls-44" d="M173.36,176.07c0,10.73-18.13,19.44-40.5,19.44s-40.49-8.71-40.49-19.44,18.13-19.44,40.49-19.44S173.36,165.34,173.36,176.07Z"/><path class="cls-45" d="M169.93,176.07c0,9.82-16.6,17.79-37.07,17.79s-37.06-8-37.06-17.79,16.59-17.79,37.06-17.79S169.93,166.25,169.93,176.07Z"/><path class="cls-46" d="M166.49,176.07c0,8.91-15.05,16.14-33.63,16.14S99.23,185,99.23,176.07s15.06-16.14,33.63-16.14S166.49,167.16,166.49,176.07Z"/><path class="cls-47" d="M163.06,176.07c0,8-13.52,14.5-30.2,14.5s-30.19-6.5-30.19-14.5,13.51-14.49,30.19-14.49S163.06,168.07,163.06,176.07Z"/><path class="cls-48" d="M159.63,176.07c0,7.1-12,12.85-26.77,12.85s-26.76-5.75-26.76-12.85,12-12.85,26.76-12.85S159.63,169,159.63,176.07Z"/><path class="cls-49" d="M156.2,176.07c0,6.19-10.45,11.2-23.34,11.2s-23.33-5-23.33-11.2,10.44-11.2,23.33-11.2S156.2,169.89,156.2,176.07Z"/><path class="cls-50" d="M152.77,176.07c0,5.28-8.91,9.56-19.91,9.56s-19.9-4.28-19.9-9.56,8.91-9.55,19.9-9.55S152.77,170.8,152.77,176.07Z"/><path class="cls-51" d="M149.34,176.07c0,4.37-7.38,7.91-16.48,7.91s-16.47-3.54-16.47-7.91,7.37-7.91,16.47-7.91S149.34,171.71,149.34,176.07Z"/><path class="cls-52" d="M145.9,176.07c0,3.46-5.83,6.26-13,6.26s-13-2.8-13-6.26,5.84-6.26,13-6.26S145.9,172.62,145.9,176.07Z"/></g><polygon class="cls-53" points="86.44 51.32 86.43 53.98 100.19 45.98 100.2 43.32 86.44 51.32"/><polygon class="cls-53" points="100.2 43.32 94.96 40.3 56.4 33.97 86.44 51.32 100.2 43.32"/><polygon class="cls-54" points="56.4 33.97 56.4 36.64 67.44 58.95 67.44 56.29 56.4 33.97"/><polygon class="cls-54" points="67.44 56.29 67.44 58.95 72.67 61.97 72.68 59.31 67.44 56.29"/><polygon class="cls-54" points="72.68 59.31 72.67 61.97 86.43 53.98 86.44 51.32 72.68 59.31"/><polygon class="cls-55" points="86.44 51.32 86.43 53.98 100.19 45.98 100.2 43.32 86.44 51.32"/><polygon class="cls-56" points="56.4 33.97 56.4 36.64 67.44 58.95 67.44 56.29 56.4 33.97"/><polygon class="cls-57" points="67.44 56.29 67.44 58.95 72.67 61.97 72.68 59.31 67.44 56.29"/><polygon class="cls-58" points="72.68 59.31 72.67 61.97 86.43 53.98 86.44 51.32 72.68 59.31"/><polygon class="cls-54" points="67.44 56.29 72.68 59.31 86.44 51.32 56.4 33.97 67.44 56.29"/><polygon class="cls-59" points="100.2 43.32 94.96 40.3 56.4 33.97 86.44 51.32 100.2 43.32"/><polygon class="cls-60" points="67.44 56.29 72.68 59.31 86.44 51.32 56.4 33.97 67.44 56.29"/><path class="cls-53" d="M89.47,48.7a2.28,2.28,0,0,0-2.29.22A7.07,7.07,0,0,0,84,54.47a2.23,2.23,0,0,0,.94,2.06l96.7,56.2a1.63,1.63,0,0,1-.45-.52c-.07-.09-.18-.14-.23-.26a2.86,2.86,0,0,1-.26-1.28,7.1,7.1,0,0,1,3.2-5.55,3.31,3.31,0,0,1,1.26-.43c.12,0,.21.06.33.07a1.73,1.73,0,0,1,.69.13Z"/><path class="cls-61" d="M89.47,48.7a2.28,2.28,0,0,0-2.29.22A7.07,7.07,0,0,0,84,54.47a2.23,2.23,0,0,0,.94,2.06l96.7,56.2a1.63,1.63,0,0,1-.45-.52c-.07-.09-.18-.14-.23-.26a2.86,2.86,0,0,1-.26-1.28,7.1,7.1,0,0,1,3.2-5.55,3.31,3.31,0,0,1,1.26-.43c.12,0,.21.06.33.07a1.73,1.73,0,0,1,.69.13Z"/><polygon class="cls-62" points="259.84 129.28 229.45 129.28 229.44 131.95 259.84 131.95 259.84 129.28"/><polygon class="cls-63" points="224.44 126.32 224.44 128.98 229.44 131.95 229.45 129.28 224.44 126.32"/><polygon class="cls-53" points="259.84 129.28 254.84 126.32 224.44 126.32 229.45 129.28 259.84 129.28"/><polygon class="cls-53" points="273.05 136.91 268.06 133.95 237.64 133.94 242.65 136.91 273.05 136.91"/><polygon class="cls-62" points="273.05 136.91 242.65 136.91 242.65 139.57 273.04 139.57 273.05 136.91"/><polygon class="cls-63" points="237.64 133.94 237.64 136.6 242.65 139.57 242.65 136.91 237.64 133.94"/><polygon class="cls-62" points="256.17 144.71 256.16 147.37 286.56 147.37 286.56 144.71 256.17 144.71"/><polygon class="cls-63" points="251.16 141.74 251.16 144.41 256.16 147.37 256.17 144.71 251.16 141.74"/><polygon class="cls-53" points="286.56 144.71 281.57 141.76 251.16 141.74 256.17 144.71 286.56 144.71"/><path class="cls-64" d="M211.36,116l.43-.8h0Q211.56,115.6,211.36,116Z"/><path class="cls-64" d="M211.78,115.2h0c.14-.28.28-.56.43-.84-.15.28-.3.55-.44.83Z"/><path class="cls-64" d="M211.89,115c.1-.21.22-.4.33-.61h0C212.1,114.57,212,114.77,211.89,115Z"/><path class="cls-64" d="M212.22,114.37l.55-1.1h0c-.19.39-.38.73-.57,1.1Z"/><path class="cls-64" d="M192.9,144.25l.85-1c-.14.18-.29.34-.43.52Z"/><polygon class="cls-64" points="187.78 150.28 187.79 150.28 187.78 150.28 187.78 150.28"/><path class="cls-64" d="M198.89,136.41s0,0,0,0S198.89,136.42,198.89,136.41Z"/><path class="cls-64" d="M203.37,129.77c.2-.32.41-.62.62-.93l-.52.77A.86.86,0,0,0,203.37,129.77Z"/><path class="cls-64" d="M187.76,150.3l0,0s0,0,0,0h0A0,0,0,0,1,187.76,150.3Z"/><path class="cls-64" d="M185.06,153.19h0c.89-.94,1.77-1.9,2.65-2.88l0,0C186.88,151.29,186,152.23,185.06,153.19Z"/><path class="cls-64" d="M184.81,153.46h0l.27-.27h0Z"/><path class="cls-64" d="M184.16,154.17l.66-.7h0l-.66.7Z"/><path class="cls-64" d="M183.92,154.41l.24-.24h0Z"/><path class="cls-64" d="M183.7,154.63a.68.68,0,0,0,.12-.12,1.36,1.36,0,0,1-.12.12Z"/><path class="cls-64" d="M183.09,155.23h0l.6-.61h0C183.5,154.84,183.29,155,183.09,155.23Z"/><path class="cls-64" d="M182.53,155.78l0,0,.55-.56h0Z"/><path class="cls-64" d="M182,156.32l0,0,.54-.54,0,0Z"/><path class="cls-64" d="M181.33,157h0l.66-.64,0,0Z"/><path class="cls-64" d="M180.88,157.41l0,0,.45-.45h0Z"/><path class="cls-64" d="M179.77,158.5l1.13-1.07,0,0C180.51,157.77,180.15,158.15,179.77,158.5Z"/><path class="cls-64" d="M179.71,158.56l0,0h0l0,0Z"/><path class="cls-64" d="M178.94,159.28l.77-.72h0Z"/><path class="cls-64" d="M178.9,159.32h0l-.74.69Z"/><path class="cls-64" d="M177,161l.12-.11h0L177,161Z"/><path class="cls-64" d="M176.91,161.13,177,161h0Z"/><path class="cls-64" d="M174.38,163.32l.18-.15h0l-.18.15Z"/><path class="cls-64" d="M174,163.62l.35-.3h0Z"/><path class="cls-64" d="M172.84,164.6h0l-.17.14Z"/><path class="cls-64" d="M168.91,167.67l.45-.33-.45.33Z"/><path class="cls-64" d="M164.51,170.79l.44-.29-.44.29Z"/><path class="cls-64" d="M164.12,83.35h0a5.71,5.71,0,0,0-.58-.21h0A3.66,3.66,0,0,1,164.12,83.35Z"/><path class="cls-64" d="M165.53,84.15h0a4.27,4.27,0,0,0-.63-.51h0A4.27,4.27,0,0,1,165.53,84.15Z"/><path class="cls-64" d="M167.38,87.49a9.64,9.64,0,0,1,.19,2,9.64,9.64,0,0,0-.19-2Z"/><path class="cls-64" d="M167.2,86.91h0a7,7,0,0,0-.34-1.07h0A8,8,0,0,1,167.2,86.91Z"/><path class="cls-65" d="M183.7,154.63a.68.68,0,0,0,.12-.12Z"/><path class="cls-65" d="M183.92,154.41l.24-.24Z"/><path class="cls-65" d="M179.77,158.5l1.13-1.07Z"/><path class="cls-66" d="M130.74,163.84h0c.68.08,1.33.21,2,.24h0C132.09,164.05,131.43,163.92,130.74,163.84Z"/><path class="cls-66" d="M118.44,159.25h0c.61.42,1.19.89,1.84,1.26h0C119.64,160.15,119.05,159.68,118.44,159.25Z"/><path class="cls-66" d="M126.4,163h0c.64.18,1.25.41,1.91.54h0C127.66,163.39,127,163.16,126.4,163Z"/><path class="cls-66" d="M115.91,157.27h0c.31.27.58.59.9.85h0C116.49,157.86,116.22,157.54,115.91,157.27Z"/><path class="cls-66" d="M122.36,161.5h0c.59.27,1.16.59,1.77.82h0C123.52,162.1,123,161.78,122.36,161.5Z"/><path class="cls-66" d="M140.39,163.55h0c.7-.11,1.38-.17,2.09-.32h0C141.79,163.38,141.1,163.43,140.39,163.55Z"/><path class="cls-66" d="M145.68,162.33h0c.66-.19,1.31-.33,2-.55h0C147,162,146.36,162.13,145.68,162.33Z"/><path class="cls-67" d="M163.54,83.13h0Z"/><path class="cls-67" d="M164.9,83.64h0a4.33,4.33,0,0,0-.78-.3h0A4.3,4.3,0,0,1,164.9,83.64Z"/><path class="cls-64" d="M180.17,82.12c0-13.81-9.79-19.36-21.8-12.43s-21.71,23.72-21.67,37.52,9.79,19.39,21.81,12.46c6.44-3.73,12.21-10.32,16.18-17.75a49.44,49.44,0,0,0,4.44-11.42A35.66,35.66,0,0,0,180.17,82.12ZM160.31,104a14.41,14.41,0,0,1-1.84,1.27c-5.05,2.92-9.13.57-9.15-5.23s4-12.83,9.09-15.74a7.55,7.55,0,0,1,5.11-1.17h0a5.71,5.71,0,0,1,.58.21,4.33,4.33,0,0,1,.78.3,4.27,4.27,0,0,1,.63.51,4.12,4.12,0,0,1,.47.38,5.13,5.13,0,0,1,.84,1.29,0,0,0,0,0,0,0,7,7,0,0,1,.34,1.07,5.8,5.8,0,0,1,.19.59,9.64,9.64,0,0,1,.19,2C167.59,94.56,164.47,100.6,160.31,104Z"/><path class="cls-64" d="M111,151.65c.37.57.81,1,1.21,1.58v0C111.83,152.69,111.4,152.21,111,151.65Z"/><path class="cls-64" d="M104.71,132h0c.06.65.19,1.23.27,1.86v0C104.9,133.22,104.77,132.65,104.71,132Z"/><path class="cls-64" d="M105.54,137.68h0c.15.75.38,1.42.56,2.14v0C105.92,139.09,105.69,138.42,105.54,137.68Z"/><path class="cls-64" d="M113.7,155.14h0c.45.5,1,.93,1.45,1.39h0C114.66,156.06,114.15,155.64,113.7,155.14Z"/><path class="cls-64" d="M106.89,142.84s0,0,0,0,0,0,0,0Z"/><path class="cls-64" d="M116.81,158.12l.07.07-.07-.07Z"/><path class="cls-64" d="M116.88,158.19c.49.4,1.05.71,1.57,1.07h0C117.92,158.9,117.37,158.59,116.88,158.19Z"/><path class="cls-64" d="M184,25.24c-.83,0-1.71,0-2.56.06h0C182.31,25.28,183.18,25.2,184,25.24Z"/><path class="cls-64" d="M179.34,25.35h0Z"/><path class="cls-67" d="M167.2,86.91a8,8,0,0,0-.35-1.08,0,0,0,0,1,0,0,5.13,5.13,0,0,0-.84-1.29,5.58,5.58,0,0,0-.47-.38,2.54,2.54,0,0,0-1.41-.8,3.66,3.66,0,0,0-.58-.22h0a7.55,7.55,0,0,0-5.11,1.17c-5,2.91-9.1,9.93-9.09,15.74s4.1,8.15,9.15,5.23a14.41,14.41,0,0,0,1.84-1.27c4.16-3.39,7.28-9.43,7.26-14.5a9.64,9.64,0,0,0-.19-2C167.34,87.28,167.25,87.11,167.2,86.91Z"/><path class="cls-68" d="M158.31,49.22c-21.8,12.59-39.49,43.23-39.42,68.28s17.88,35.19,39.68,22.61c11.34-6.55,21.57-18,28.76-31a93.66,93.66,0,0,0,5.19-11A72,72,0,0,0,198,71.84C197.91,46.79,180.12,36.63,158.31,49.22Zm.2,70.45c-12,6.93-21.77,1.35-21.81-12.46s9.65-30.58,21.67-37.52,21.76-1.38,21.8,12.43a35.66,35.66,0,0,1-1,8.38,49.44,49.44,0,0,1-4.44,11.42C170.72,109.35,165,115.94,158.51,119.67Z"/><path class="cls-64" d="M105.48,112.73a82.31,82.31,0,0,0-1.07,13.13q0-3.21.27-6.5C104.86,117.17,105.12,115,105.48,112.73Z"/><path class="cls-64" d="M108.6,99.26q-1,3.39-1.81,6.76.79-3.37,1.81-6.76Z"/><path class="cls-64" d="M113,87.34c.21-.5.39-1,.61-1.5h0a120.17,120.17,0,0,0-5,13.42h0A122.09,122.09,0,0,1,113,87.34Z"/><path class="cls-64" d="M113.56,85.84c1-2.21,2-4.41,3.09-6.58-1.09,2.17-2.13,4.37-3.09,6.58Z"/><path class="cls-66" d="M194.48,142.28c.14-.19.3-.37.45-.57l-.3.37Z"/><path class="cls-66" d="M204.55,127.9c.64-1,1.27-2.05,1.89-3.08-.25.41-.53.81-.78,1.22C205.29,126.66,204.93,127.29,204.55,127.9Z"/><path class="cls-66" d="M211.78,115.2h0c-1,2-2.11,4-3.23,6,.94-1.67,1.87-3.4,2.81-5.2q.19-.41.42-.81Z"/><path class="cls-66" d="M207.71,122.64c.28-.48.57-1,.84-1.43-.22.38-.46.75-.67,1.13Z"/><path class="cls-66" d="M199.59,135.4l1.14-1.67c-.12.17-.25.34-.37.52C200.09,134.63,199.85,135,199.59,135.4Z"/><path class="cls-66" d="M207.49,10c-.4-.23-.82-.43-1.23-.65s-.78-.42-1.18-.61-.87-.37-1.3-.55-.81-.36-1.23-.52l-1.35-.45c-.43-.14-.85-.29-1.29-.41s-.93-.24-1.4-.35l-1.33-.32c-.48-.09-1-.16-1.45-.24s-.91-.16-1.38-.22-1-.09-1.53-.13-.92-.09-1.39-.12-1.06,0-1.59,0-.94,0-1.41,0-1.09,0-1.64.08l-1.45.09c-.55,0-1.12.13-1.68.2s-1,.11-1.49.19-1.14.21-1.72.32-1,.17-1.52.28-1.22.3-1.83.46-1,.23-1.47.37-1.25.38-1.87.58-1,.3-1.51.47-1.28.47-1.91.71-1,.36-1.52.56c-.73.3-1.47.63-2.21,1-.43.18-.85.34-1.27.54-.83.38-1.67.81-2.51,1.23-.34.17-.68.32-1,.51-1.19.61-2.39,1.27-3.59,2a107.59,107.59,0,0,0-14,9.7,132.58,132.58,0,0,0-13,12.18,154.85,154.85,0,0,0-11.78,14.16A166.29,166.29,0,0,0,109.17,66.6q-2.34,4.07-4.46,8.25a163.58,163.58,0,0,0-7.44,17q-1.59,4.32-2.9,8.67a124.89,124.89,0,0,0-5,25.84c-.23,2.82-.35,5.61-.34,8.36,0,1.38,0,2.72.1,4.05,0,.48.07.95.11,1.43.05.82.09,1.65.17,2.45.06.57.13,1.12.2,1.67s.15,1.39.25,2.06.18,1.05.27,1.58.22,1.34.35,2,.23,1,.34,1.5.28,1.28.44,1.9.29,1,.44,1.52.32,1.16.5,1.72.34,1,.51,1.45.38,1.1.59,1.62.38.91.58,1.36.43,1,.66,1.54.44.85.65,1.28.49,1,.74,1.45.49.81.72,1.21.53.91.82,1.34.53.76.79,1.14.58.84.88,1.24.57.7.86,1.05.62.77.94,1.14.62.65.94,1,.65.71,1,1,.66.6,1,.9.69.63,1.05.92.71.54,1.06.81.74.57,1.12.84.74.47,1.11.7c12.7,8,30.62,7.3,50.47-4.17.31-.17.61-.35,1.25-.73l1-.58.91-.57.92-.58.9-.58.46-.31.45-.31h0l.44-.29.45-.31.44-.3.45-.31.43-.31.88-.63,1.31-1h0l.45-.33.43-.33.85-.66c.16-.12.31-.23.86-.67l.84-.67.33-.27.17-.14.35-.29.84-.69.35-.3.18-.15.31-.27.82-.7.83-.73.39-.34L177,161l.12-.11.18-.16.82-.74.74-.69.05,0,.77-.72,0,0,0,0c.38-.35.74-.73,1.11-1.09l.45-.44.66-.65.54-.54.56-.55c.2-.2.41-.39.61-.6a1.36,1.36,0,0,0,.12-.12l.1-.1.23-.25.66-.7h0l.25-.27c.91-1,1.82-1.9,2.7-2.89l.16-.17c.35-.39.68-.79,1-1.19,1.95-2.21,3.84-4.51,5.69-6.86.69-.89,1.36-1.81,2-2.72,1.26-1.68,2.5-3.38,3.7-5.11.76-1.12,1.52-2.24,2.26-3.37q1.56-2.4,3-4.84c.75-1.23,1.5-2.45,2.22-3.7,1.39-2.43,2.74-4.88,4-7.36.1-.21.21-.41.31-.62.19-.37.38-.71.57-1.1.06-.13.12-.24.19-.37l.36-.74.3-.63c.14-.27.27-.54.69-1.44.12-.27.25-.54.42-.9,7.18-15.52,11.79-31.83,12.89-47.3,0-.33,0-.66.07-1.09,0-.68.08-1.35.1-2.16,0-.28,0-.56,0-1.11,0-.23,0-.46,0-1,0-.24,0-.47,0-1v-1C227.81,32.61,220,17.18,207.49,10ZM145.72,162.32c-1.07.32-2.16.67-3.21.9-.71.15-1.39.21-2.09.32-.94.16-1.9.36-2.83.45a35.86,35.86,0,0,1-4.73.1h-.07c-.7,0-1.35-.16-2-.24s-1.65-.15-2.44-.31-1.27-.36-1.91-.54-1.48-.35-2.18-.61l-.09,0c-.61-.23-1.18-.55-1.77-.82s-1.42-.61-2.08-1-1.23-.84-1.84-1.26-1.08-.67-1.57-1.07l-.07-.07c-.32-.26-.59-.58-.9-.85s-.51-.49-.76-.74c-.49-.46-1-.89-1.45-1.39s-1-1.27-1.46-1.91-.84-1-1.21-1.58a36.16,36.16,0,0,1-4.13-8.76s0,0,0,0c-.31-1-.54-2-.79-3-.18-.72-.41-1.39-.56-2.14-.24-1.22-.39-2.52-.56-3.81-.08-.63-.21-1.21-.27-1.86q-.28-3-.3-6.15a82.31,82.31,0,0,1,1.07-13.13q.52-3.35,1.31-6.71t1.81-6.76a120.17,120.17,0,0,1,5-13.42c1-2.21,2-4.41,3.09-6.58,9.88-19.52,24.86-37,41.61-46.67,7.45-4.3,14.55-6.65,21-7.24h.06c.72-.07,1.41,0,2.11-.05.85,0,1.73-.1,2.56-.06a32.17,32.17,0,0,1,4.46.54A26.37,26.37,0,0,1,200,31.15a28.11,28.11,0,0,1,5.85,6.53c4.19,6.4,6.59,15.1,6.62,25.8a83.22,83.22,0,0,1-1.4,15,113.07,113.07,0,0,1-8,25.62c-1.62,3.67-3.44,7.3-5.42,10.84a127.33,127.33,0,0,1-17.42,24.13,93.89,93.89,0,0,1-21.57,17.63,62.5,62.5,0,0,1-10.87,5h0C147,162,146.38,162.13,145.72,162.32Z"/><path class="cls-66" d="M202.62,130.88c-.28.43-.54.88-.82,1.3.53-.79,1-1.6,1.57-2.41a.86.86,0,0,1,.1-.16C203.19,130,202.9,130.45,202.62,130.88Z"/><path class="cls-66" d="M187.76,150.3a0,0,0,0,0,0,0h0l.13-.15Z"/><path class="cls-66" d="M196.66,139.36c-.46.63-.9,1.29-1.38,1.91q1.84-2.39,3.6-4.84s0,0,0,0l.2-.3C198.31,137.22,197.48,138.28,196.66,139.36Z"/><path class="cls-66" d="M189.11,148.75q1.94-2.2,3.79-4.5l.42-.52Q191.25,146.3,189.11,148.75Z"/><path class="cls-65" d="M185.09,153.2l.89-1,.43-.45.45-.5.53-.57.32-.37,0,0Z"/><path class="cls-65" d="M187.74,150.32l0,0Z"/><path class="cls-65" d="M187.92,150.13l-.16.17Z"/><path class="cls-65" d="M187.92,150.13l.39-.44.19-.22Z"/><path class="cls-64" d="M188.94,148.94c-.15.18-.29.36-.44.53.21-.23.4-.49.61-.72q2.14-2.46,4.21-5c.14-.18.29-.34.43-.52l.73-.93.15-.2C192.78,144.43,190.89,146.73,188.94,148.94Z"/><path class="cls-64" d="M196.66,139.36c.82-1.08,1.65-2.14,2.43-3.25.17-.23.33-.47.5-.71s.5-.77.77-1.15C199.16,136,197.92,137.68,196.66,139.36Z"/><path class="cls-64" d="M194.63,142.08l.3-.37c.12-.15.24-.29.35-.44.48-.62.92-1.28,1.38-1.91C196,140.27,195.32,141.19,194.63,142.08Z"/><path class="cls-64" d="M202.62,130.88c.28-.43.57-.84.85-1.27l.52-.77.56-.94c.38-.61.74-1.24,1.11-1.86Q204.18,128.49,202.62,130.88Z"/><path class="cls-64" d="M205.66,126c.25-.41.53-.81.78-1.22l1.27-2.18.17-.3C207.16,123.59,206.41,124.81,205.66,126Z"/><path class="cls-64" d="M207.88,122.34c.21-.38.45-.75.67-1.13,1.12-2,2.19-4,3.23-6,.14-.28.29-.55.44-.83-.11.21-.23.4-.33.61C210.62,117.46,209.27,119.91,207.88,122.34Z"/><path class="cls-64" d="M202.62,130.88c-.74,1.13-1.5,2.25-2.26,3.37.12-.18.25-.35.37-.52.36-.52.72-1,1.07-1.55S202.34,131.31,202.62,130.88Z"/><path class="cls-66" d="M198.41,4.68C185.79-2.65,168.3-1.61,149,9.53,110.64,31.67,79.67,85.33,79.79,129.4c.06,21.9,7.79,37.3,20.25,44.54l9.21,5.36c-.36-.21-.7-.45-1.06-.68s-.75-.46-1.11-.7-.74-.56-1.12-.84-.71-.52-1.06-.81-.7-.61-1.05-.92-.68-.59-1-.9-.67-.69-1-1-.64-.63-.94-1-.63-.76-.94-1.14-.58-.69-.86-1.05-.59-.83-.88-1.24-.54-.75-.79-1.14-.55-.89-.82-1.34-.49-.8-.72-1.21-.49-1-.74-1.45-.44-.84-.65-1.28-.44-1-.66-1.54-.4-.89-.58-1.36-.39-1.08-.59-1.62-.35-.95-.51-1.45-.34-1.15-.5-1.72-.31-1-.44-1.52-.3-1.26-.44-1.9-.24-1-.34-1.5-.23-1.32-.35-2-.19-1-.27-1.58-.17-1.37-.25-2.06-.14-1.1-.2-1.67c-.08-.8-.12-1.63-.17-2.45,0-.48-.08-.95-.11-1.43-.06-1.33-.09-2.67-.1-4.05,0-2.75.11-5.54.34-8.36a124.89,124.89,0,0,1,5-25.84q1.3-4.35,2.9-8.67a163.58,163.58,0,0,1,7.44-17q2.12-4.18,4.46-8.25a166.29,166.29,0,0,1,10.25-15.68A154.85,154.85,0,0,1,131.2,36.76a132.58,132.58,0,0,1,13-12.18,107.59,107.59,0,0,1,14-9.7c1.2-.69,2.4-1.35,3.59-2,.35-.19.69-.34,1-.51.84-.42,1.68-.85,2.51-1.23.42-.2.84-.36,1.27-.54.74-.33,1.48-.66,2.21-1,.51-.2,1-.37,1.52-.56s1.28-.5,1.91-.71,1-.31,1.51-.47,1.25-.41,1.87-.58,1-.25,1.47-.37,1.23-.33,1.83-.46,1-.19,1.52-.28,1.15-.24,1.72-.32,1-.13,1.49-.19,1.13-.15,1.68-.2l1.45-.09c.55,0,1.1-.07,1.64-.08s.94,0,1.41,0,1.07,0,1.59,0,.93.08,1.39.12,1,.07,1.53.13.92.15,1.38.22,1,.15,1.45.24l1.33.32c.47.11.94.22,1.4.35s.86.27,1.29.41l1.35.45c.42.16.82.34,1.23.52s.87.35,1.3.55.78.4,1.18.61.83.42,1.23.65l.13.07Z"/><path class="cls-69" d="M198.41,4.68C185.79-2.65,168.3-1.61,149,9.53,110.64,31.67,79.67,85.33,79.79,129.4c.06,21.9,7.79,37.3,20.25,44.54l9.21,5.36c-.36-.21-.7-.45-1.06-.68s-.75-.46-1.11-.7-.74-.56-1.12-.84-.71-.52-1.06-.81-.7-.61-1.05-.92-.68-.59-1-.9-.67-.69-1-1-.64-.63-.94-1-.63-.76-.94-1.14-.58-.69-.86-1.05-.59-.83-.88-1.24-.54-.75-.79-1.14-.55-.89-.82-1.34-.49-.8-.72-1.21-.49-1-.74-1.45-.44-.84-.65-1.28-.44-1-.66-1.54-.4-.89-.58-1.36-.39-1.08-.59-1.62-.35-.95-.51-1.45-.34-1.15-.5-1.72-.31-1-.44-1.52-.3-1.26-.44-1.9-.24-1-.34-1.5-.23-1.32-.35-2-.19-1-.27-1.58-.17-1.37-.25-2.06-.14-1.1-.2-1.67c-.08-.8-.12-1.63-.17-2.45,0-.48-.08-.95-.11-1.43-.06-1.33-.09-2.67-.1-4.05,0-2.75.11-5.54.34-8.36a124.89,124.89,0,0,1,5-25.84q1.3-4.35,2.9-8.67a163.58,163.58,0,0,1,7.44-17q2.12-4.18,4.46-8.25a166.29,166.29,0,0,1,10.25-15.68A154.85,154.85,0,0,1,131.2,36.76a132.58,132.58,0,0,1,13-12.18,107.59,107.59,0,0,1,14-9.7c1.2-.69,2.4-1.35,3.59-2,.35-.19.69-.34,1-.51.84-.42,1.68-.85,2.51-1.23.42-.2.84-.36,1.27-.54.74-.33,1.48-.66,2.21-1,.51-.2,1-.37,1.52-.56s1.28-.5,1.91-.71,1-.31,1.51-.47,1.25-.41,1.87-.58,1-.25,1.47-.37,1.23-.33,1.83-.46,1-.19,1.52-.28,1.15-.24,1.72-.32,1-.13,1.49-.19,1.13-.15,1.68-.2l1.45-.09c.55,0,1.1-.07,1.64-.08s.94,0,1.41,0,1.07,0,1.59,0,.93.08,1.39.12,1,.07,1.53.13.92.15,1.38.22,1,.15,1.45.24l1.33.32c.47.11.94.22,1.4.35s.86.27,1.29.41l1.35.45c.42.16.82.34,1.23.52s.87.35,1.3.55.78.4,1.18.61.83.42,1.23.65l.13.07Z"/><path class="cls-64" d="M142.51,163.22c1-.23,2.11-.58,3.17-.89.68-.2,1.34-.33,2-.56h0a62.5,62.5,0,0,0,10.87-5,93.89,93.89,0,0,0,21.57-17.63A127.33,127.33,0,0,0,197.6,115c2-3.54,3.8-7.17,5.42-10.84a113.07,113.07,0,0,0,8-25.62,83.22,83.22,0,0,0,1.4-15c0-10.7-2.43-19.4-6.62-25.8A28.11,28.11,0,0,0,200,31.15a26.37,26.37,0,0,0-11.52-5.37,32.17,32.17,0,0,0-4.46-.54c-.83,0-1.7,0-2.56.06-.7,0-1.39,0-2.11.05h-.06c-6.47.59-13.57,2.94-21,7.24-16.75,9.68-31.73,27.15-41.61,46.67-1.09,2.17-2.13,4.37-3.09,6.58-.22.5-.4,1-.61,1.5a122.09,122.09,0,0,0-4.35,11.92q-1,3.39-1.81,6.76t-1.31,6.71c-.36,2.23-.62,4.44-.8,6.63s-.27,4.36-.27,6.5.11,4.18.3,6.15c.06.64.19,1.21.27,1.83.17,1.3.32,2.61.56,3.84.15.74.38,1.41.55,2.12.26,1,.48,2.08.8,3,0,0,0,0,0,0a36.16,36.16,0,0,0,4.13,8.76c.37.56.8,1,1.2,1.56s.94,1.33,1.47,1.93,1,.92,1.44,1.38c.26.26.51.51.77.75s.58.59.9.85l.07.07c.49.4,1,.71,1.56,1.06s1.2.9,1.85,1.27,1.37.66,2.07,1,1.16.6,1.78.83l.09,0c.7.25,1.44.4,2.17.61s1.26.4,1.92.54,1.61.21,2.42.31,1.35.21,2,.24h.07a35.86,35.86,0,0,0,4.73-.1c.91-.09,1.86-.29,2.8-.44C141.1,163.43,141.79,163.38,142.51,163.22ZM198,71.84a72,72,0,0,1-5.46,26.31,93.66,93.66,0,0,1-5.19,11c-7.19,13-17.42,24.44-28.76,31-21.8,12.58-39.61,2.46-39.68-22.61s17.62-55.69,39.42-68.28S197.91,46.79,198,71.84Z"/><path class="cls-70" d="M207.51,10c-.41-.23-.83-.43-1.24-.65s-.78-.42-1.18-.61-.87-.37-1.3-.55-.81-.36-1.24-.52-.89-.3-1.34-.45-.85-.29-1.29-.41-.93-.24-1.4-.35l-1.33-.32c-.48-.09-1-.16-1.45-.24s-.91-.16-1.38-.22-1-.09-1.53-.13-.92-.09-1.38-.12-1.07,0-1.6,0-.93,0-1.41,0-1.09,0-1.64.08l-1.45.09c-.55,0-1.12.13-1.68.2s-1,.11-1.49.19-1.14.21-1.72.32-1,.17-1.52.28-1.21.3-1.83.46-1,.23-1.47.37-1.25.38-1.87.58-1,.3-1.51.47-1.28.47-1.91.71-1,.36-1.52.56c-.73.3-1.47.63-2.21,1-.43.18-.85.34-1.27.54-.83.38-1.67.81-2.5,1.23-.35.17-.69.32-1,.51-1.19.61-2.39,1.27-3.59,2a108.27,108.27,0,0,0-14,9.7,132.58,132.58,0,0,0-13,12.18,154.85,154.85,0,0,0-11.78,14.16A168.19,168.19,0,0,0,109.19,66.6q-2.35,4.07-4.47,8.25a163.58,163.58,0,0,0-7.44,17q-1.59,4.32-2.9,8.67a125.55,125.55,0,0,0-5,25.84c-.23,2.82-.35,5.61-.34,8.36,0,1.38,0,2.72.1,4.05,0,.48.08.95.1,1.43.06.82.11,1.65.18,2.45.06.57.14,1.12.2,1.67s.15,1.39.25,2.06.19,1.05.27,1.58.22,1.34.35,2,.23,1,.34,1.5.28,1.28.44,1.9.29,1,.44,1.52.32,1.16.5,1.72.34,1,.51,1.45.38,1.1.59,1.62.39.91.58,1.36.43,1,.66,1.54.44.85.65,1.28.49,1,.75,1.45.48.81.72,1.21.53.91.81,1.34.53.76.79,1.14.58.84.88,1.24.57.7.86,1.05.62.77.94,1.14.62.65.94,1,.65.71,1,1,.66.6,1,.9.69.63,1,.92.71.54,1.06.81.74.57,1.12.84l1.11.7c12.7,8,30.62,7.3,50.47-4.17.31-.17.61-.35,1.25-.73l1-.58.91-.57.92-.58.9-.58.46-.31.46-.31h0l.43-.29.45-.31.44-.3.45-.31.43-.31.88-.63,1.31-1h0l.45-.33.43-.33.85-.66c.16-.12.31-.23.86-.67l.84-.67.33-.27.17-.14h0l.35-.29.84-.69.35-.3.18-.15h0l.31-.27c.19-.15.37-.31.82-.7l.83-.73.39-.34L177,161l.12-.11h0l.18-.16.82-.74.75-.69h0l0,0,.78-.72v0h0l0,0,1.13-1.07.45-.45.66-.64.54-.54.55-.56.6-.61.12-.12.1-.1.24-.24.66-.7h0l.26-.27c.9-.94,1.79-1.9,2.66-2.88a.08.08,0,0,0,0,0h0l.13-.15c.13-.15.26-.3.4-.44l.18-.22c.21-.23.41-.49.61-.72q1.94-2.2,3.79-4.5l.85-1c.25-.31.48-.62.72-.93s.31-.37.46-.57.24-.29.35-.44q1.85-2.39,3.6-4.84v0l.21-.3.49-.71c.38-.55.76-1.12,1.15-1.67l1.06-1.55c.53-.79,1-1.6,1.57-2.41.2-.32.41-.62.61-.93s.38-.63.57-.94c.64-1,1.27-2.05,1.89-3.08l1.27-2.18c.28-.48.57-1,.84-1.43.94-1.67,1.87-3.4,2.81-5.2l.43-.8.43-.84.55-1.1h0c.06-.13.12-.24.19-.37l.36-.74c.1-.21.2-.42.31-.63s.26-.54.68-1.44l.42-.9c7.18-15.52,11.79-31.83,12.89-47.3,0-.33,0-.66.07-1.09,0-.68.08-1.35.11-2.16,0-.28,0-.56,0-1.11,0-.23,0-.46,0-1,0-.24,0-.47,0-1v-1C227.82,32.61,220,17.18,207.51,10Z"/><polygon class="cls-53" points="238.54 135.43 238.53 135.43 238.54 135.43 238.54 135.43"/><path class="cls-53" d="M161.55,90.64a2.28,2.28,0,0,0-2.29.22,7.07,7.07,0,0,0-3.2,5.55,2.26,2.26,0,0,0,.93,2.06l77,44.79a1.65,1.65,0,0,1-.45-.52c-.07-.09-.17-.14-.23-.25a3.09,3.09,0,0,1-.25-1.29,7.07,7.07,0,0,1,3.2-5.55,3.27,3.27,0,0,1,1.25-.43c.13,0,.22.06.34.07a1.56,1.56,0,0,1,.68.14Z"/><path class="cls-71" d="M161.55,90.64a2.28,2.28,0,0,0-2.29.22,7.07,7.07,0,0,0-3.2,5.55,2.26,2.26,0,0,0,.93,2.06l77,44.79a1.65,1.65,0,0,1-.45-.52c-.07-.09-.17-.14-.23-.25a3.09,3.09,0,0,1-.25-1.29,7.07,7.07,0,0,1,3.2-5.55,3.27,3.27,0,0,1,1.25-.43c.13,0,.22.06.34.07a1.56,1.56,0,0,1,.68.14Z"/><path class="cls-53" d="M238.54,135.43h0a1.56,1.56,0,0,0-.68-.14c-.12,0-.21-.08-.34-.07a3.27,3.27,0,0,0-1.25.43,7.07,7.07,0,0,0-3.2,5.55,3.09,3.09,0,0,0,.25,1.29c.06.11.16.16.23.25.56.78,1.56,1,2.74.3a7.07,7.07,0,0,0,3.2-5.55A2.22,2.22,0,0,0,238.54,135.43Z"/><path class="cls-54" d="M259.64,146.63h0l-.27.05h0Z"/><path class="cls-54" d="M260.55,146.52h0a2.83,2.83,0,0,0-.3,0h0C260.34,146.49,260.44,146.52,260.55,146.52Z"/><path class="cls-54" d="M254.82,157.9h0a2.51,2.51,0,0,0,.31.26h0A2.08,2.08,0,0,1,254.82,157.9Z"/><path class="cls-54" d="M254.3,157.29h0a2.26,2.26,0,0,0,.25.4h0A4.15,4.15,0,0,1,254.3,157.29Z"/><path class="cls-53" d="M261,146.54a2.23,2.23,0,0,0-.45,0h0A2.07,2.07,0,0,1,261,146.54Z"/><polygon class="cls-53" points="259.35 146.69 259.35 146.7 259.35 146.69 259.35 146.69"/><path class="cls-53" d="M259.35,146.7a5.2,5.2,0,0,0-.94.43h0A5.2,5.2,0,0,1,259.35,146.7Z"/><path class="cls-53" d="M260.23,146.5h0a3.79,3.79,0,0,0-.61.14h0A4.49,4.49,0,0,1,260.23,146.5Z"/><polygon class="cls-54" points="262.54 145.39 262.52 145.38 262.53 145.38 262.54 145.39"/><path class="cls-53" d="M258.41,147.13h0a9.94,9.94,0,0,0-3.85,4.58A9.94,9.94,0,0,1,258.41,147.13Z"/><path class="cls-53" d="M254.13,152.87a8.09,8.09,0,0,0-.36,2.29A8.09,8.09,0,0,1,254.13,152.87Z"/><path class="cls-53" d="M254.57,157.7h0a1.71,1.71,0,0,0,.26.21h0A2.43,2.43,0,0,1,254.57,157.7Z"/><path class="cls-53" d="M254.14,157a1.7,1.7,0,0,0,.18.26h0C254.25,157.2,254.19,157.13,254.14,157Z"/><path class="cls-53" d="M252.69,156.74a6.37,6.37,0,0,1-.09-.91,6.37,6.37,0,0,0,.09.91Z"/><path class="cls-53" d="M261,146.54a2.07,2.07,0,0,0-.43,0c-.11,0-.21,0-.32,0a4.49,4.49,0,0,0-.59.13l-.29.06h0a5.2,5.2,0,0,0-.94.43,9.94,9.94,0,0,0-3.85,4.58,10.14,10.14,0,0,0-.43,1.16,8.09,8.09,0,0,0-.36,2.29,4.4,4.4,0,0,0,.37,1.88c.05.09.11.16.16.25a4.15,4.15,0,0,0,.27.41,2.43,2.43,0,0,0,.25.2,2.08,2.08,0,0,0,.32.27h0a3.29,3.29,0,0,0,3.29-.33,10.31,10.31,0,0,0,4.66-8.06C263.09,147.92,262.25,146.77,261,146.54Z"/><path class="cls-54" d="M225.7,124c-1.06-.62-2.52-.53-4.13.4a12.81,12.81,0,0,0-5.81,10.05,4.1,4.1,0,0,0,1.7,3.73l36.84,21.4a3,3,0,0,1-.4-.32c-.09-.09-.21-.15-.3-.25a2.84,2.84,0,0,1-.32-.5,2.92,2.92,0,0,1-.21-.32,5.2,5.2,0,0,1-.24-.73,3.18,3.18,0,0,1-.1-.33c0-.11,0-.25,0-.37a6.37,6.37,0,0,1-.09-.91,12.83,12.83,0,0,1,5.8-10,6.42,6.42,0,0,1,1.18-.54c.11,0,.21,0,.32-.07a3.83,3.83,0,0,1,.77-.17c.14,0,.26,0,.39,0a3.08,3.08,0,0,1,.61,0,3.62,3.62,0,0,1,.35.13,2.72,2.72,0,0,1,.5.19Z"/><path class="cls-72" d="M225.7,124c-1.06-.62-2.52-.53-4.13.4a12.81,12.81,0,0,0-5.81,10.05,4.1,4.1,0,0,0,1.7,3.73l36.84,21.4a3,3,0,0,1-.4-.32c-.09-.09-.21-.15-.3-.25a2.84,2.84,0,0,1-.32-.5,2.92,2.92,0,0,1-.21-.32,5.2,5.2,0,0,1-.24-.73,3.18,3.18,0,0,1-.1-.33c0-.11,0-.25,0-.37a6.37,6.37,0,0,1-.09-.91,12.83,12.83,0,0,1,5.8-10,6.42,6.42,0,0,1,1.18-.54c.11,0,.21,0,.32-.07a3.83,3.83,0,0,1,.77-.17c.14,0,.26,0,.39,0a3.08,3.08,0,0,1,.61,0,3.62,3.62,0,0,1,.35.13,2.72,2.72,0,0,1,.5.19Z"/><path class="cls-54" d="M262.53,145.39h0a2.72,2.72,0,0,0-.5-.19,3.62,3.62,0,0,0-.35-.13,3.08,3.08,0,0,0-.61,0c-.13,0-.25,0-.39,0a3.83,3.83,0,0,0-.77.17c-.11,0-.21,0-.32.07a6.42,6.42,0,0,0-1.18.54,12.83,12.83,0,0,0-5.8,10,6.37,6.37,0,0,0,.09.91h0c0,.12,0,.26,0,.37a3.18,3.18,0,0,0,.1.33,5.2,5.2,0,0,0,.24.73,2.92,2.92,0,0,0,.21.32,2.84,2.84,0,0,0,.32.5c.09.1.21.16.3.25,1.08.92,2.7,1,4.54-.08a12.77,12.77,0,0,0,5.8-10A4,4,0,0,0,262.53,145.39Zm-4.09,12.45a3.29,3.29,0,0,1-3.29.33h0a2.51,2.51,0,0,1-.31-.26,1.71,1.71,0,0,1-.26-.21,2.26,2.26,0,0,1-.25-.4,1.7,1.7,0,0,1-.18-.26,4.4,4.4,0,0,1-.37-1.88,8.09,8.09,0,0,1,.36-2.29,10.14,10.14,0,0,1,.43-1.16,9.94,9.94,0,0,1,3.85-4.58h0a5.2,5.2,0,0,1,.94-.43h0l.27-.05a3.79,3.79,0,0,1,.61-.14,2.83,2.83,0,0,1,.3,0,2.23,2.23,0,0,1,.45,0c1.27.23,2.11,1.38,2.12,3.24A10.31,10.31,0,0,1,258.44,157.84Z"/><polygon class="cls-73" points="217.84 134.65 217.84 137.31 217.94 154.91 217.94 152.25 217.84 134.65"/><polygon class="cls-53" points="217.84 134.65 217.94 152.25 224.78 156.2 224.68 138.59 217.84 134.65"/><polygon class="cls-62" points="217.94 154.91 224.78 158.86 224.78 156.2 217.94 152.25 217.94 154.91"/><polygon class="cls-73" points="231.36 142.45 231.35 145.11 231.45 162.72 231.46 160.06 231.36 142.45"/><polygon class="cls-62" points="231.45 162.72 238.29 166.67 238.3 164 231.46 160.06 231.45 162.72"/><polygon class="cls-53" points="231.36 142.45 231.46 160.06 238.3 164 238.2 146.4 231.36 142.45"/><polygon class="cls-73" points="244.58 150.08 244.58 152.75 244.67 170.35 244.68 167.69 244.58 150.08"/><polygon class="cls-53" points="251.52 171.64 251.4 154.02 244.58 150.08 244.68 167.69 251.52 171.64"/><polygon class="cls-62" points="244.68 167.69 244.67 170.35 251.52 174.3 251.52 171.64 244.68 167.69"/></g></g></g></svg>