<svg xmlns="http://www.w3.org/2000/svg" viewBox="0 0 530.11 137"><defs><style>.cls-1{fill:#ecc935;}</style></defs><g id="Layer_2" data-name="Layer 2"><g id="Layer_1-2" data-name="Layer 1"><path class="cls-1" d="M105.07,24.81a.19.19,0,0,0-.37,0L91.48,61.08a1.56,1.56,0,0,1-1.43,1.06,1.42,1.42,0,0,1-1.56-1.06L75.71,20.32a1.52,1.52,0,0,1-.12-.5,1.64,1.64,0,0,1,1.56-1.62,1.55,1.55,0,0,1,1.49,1l11.28,37c.07.13.19.19.25,0l13.16-36.59a1.7,1.7,0,0,1,1.55-1.24,1.37,1.37,0,0,1,1.44,1.06l12.9,36.77c.06.19.19.19.25,0l11.28-37a1.51,1.51,0,0,1,2.93.62,1.43,1.43,0,0,1-.06.5L120.72,61a1.55,1.55,0,0,1-3-.06Z"/><path class="cls-1" d="M142.28,60.27a1.51,1.51,0,0,1-1.43,1.56,1.54,1.54,0,0,1-1.56-1.56V17.58A1.54,1.54,0,0,1,140.85,16a1.51,1.51,0,0,1,1.43,1.56V35.47c0,.37.25.31.38.12a12.3,12.3,0,0,1,10.53-6c7.48,0,12.47,5.36,12.47,13.58V60.27a1.48,1.48,0,0,1-1.44,1.56,1.54,1.54,0,0,1-1.56-1.56V43.19c0-6.66-3.73-10.72-10-10.72-6.92,0-10.41,6.42-10.41,10.6Z"/><path class="cls-1" d="M187,63.2c-2.5,6.17-5.55,9-10.23,9a17.46,17.46,0,0,1-4.8-.5A1.51,1.51,0,0,1,171,70.25a1.37,1.37,0,0,1,1.25-1.37c1.12,0,1.37.56,4.93.56,2.8,0,4.92-1.87,6.85-6.17l.5-1.13a1.68,1.68,0,0,0-.12-1.18L171.2,32.85a1.51,1.51,0,0,1,.75-2.06,1.67,1.67,0,0,1,2.12.81l11.78,26.12c.19.37.5.31.63,0L196.7,31.48a1.71,1.71,0,0,1,2.18-.81,1.52,1.52,0,0,1,.69,2Z"/><path class="cls-1" d="M256.54,53.35A1.53,1.53,0,0,1,258,54.91a1.5,1.5,0,0,1-.44,1.06c-4.3,4.12-8.47,6.55-15.52,6.55-12,0-20.5-9.41-20.5-22.5S230,17.45,242,17.45c6.42,0,10.66,1.93,15.21,5.92a1.87,1.87,0,0,1,.69,1.44,1.6,1.6,0,0,1-1.62,1.56,1.41,1.41,0,0,1-1-.38A18.27,18.27,0,0,0,242,20.38c-10.22,0-17.2,8.42-17.2,19.64s7,19.57,17.2,19.57c6.11,0,9.73-2.18,13.53-5.86A1.41,1.41,0,0,1,256.54,53.35Z"/><path class="cls-1" d="M267.51,60.27a1.52,1.52,0,0,1-1.44,1.56,1.54,1.54,0,0,1-1.56-1.56V17.58A1.54,1.54,0,0,1,266.07,16a1.52,1.52,0,0,1,1.44,1.56V35.47c0,.37.24.31.37.12a12.31,12.31,0,0,1,10.53-6c7.48,0,12.47,5.36,12.47,13.58V60.27a1.47,1.47,0,0,1-1.43,1.56,1.54,1.54,0,0,1-1.56-1.56V43.19c0-6.66-3.74-10.72-10-10.72-6.91,0-10.4,6.42-10.4,10.6Z"/><path class="cls-1" d="M313,29.61c8.85,0,15.46,6.73,15.46,16.51s-6.61,16.4-15.46,16.4-15.59-6.61-15.59-16.4S304,29.61,313,29.61Zm0,30.1c7,0,12.28-5.36,12.28-13.59S320.05,32.47,313,32.47,300.6,37.9,300.6,46.12,305.84,59.71,313,59.71Z"/><path class="cls-1" d="M349,29.61c8.85,0,15.45,6.73,15.45,16.51s-6.6,16.4-15.45,16.4-15.59-6.61-15.59-16.4S340.06,29.61,349,29.61Zm0,30.1c7,0,12.27-5.36,12.27-13.59S356.08,32.47,349,32.47s-12.41,5.43-12.41,13.65S341.87,59.71,349,59.71Z"/><path class="cls-1" d="M392.48,53.29c0,5.36-3.93,9.23-10.66,9.23-4.55,0-9.47-2.56-12.15-5.11a1.54,1.54,0,0,1-.5-1,1.56,1.56,0,0,1,1.49-1.5,1.18,1.18,0,0,1,.88.32c2.43,2,6.35,4.48,10.28,4.48,5,0,7.54-2.68,7.54-6.42,0-2.74-1.74-4.42-8.22-6.48-6.3-2-10.54-3.49-10.54-8.66s4.12-8.54,10.22-8.54a18.59,18.59,0,0,1,10.6,3.74,1.7,1.7,0,0,1,.75,1.31,1.38,1.38,0,0,1-1.43,1.3,1.94,1.94,0,0,1-1.06-.37,14.46,14.46,0,0,0-8.86-3.12c-4.48,0-7.16,2.25-7.16,5.68s3.24,4.11,8.35,5.73C389.93,46.44,392.48,49.05,392.48,53.29Z"/><path class="cls-1" d="M424.08,54.73a1.37,1.37,0,0,1,1.06,2.37,17.06,17.06,0,0,1-12.59,5.42c-9.1,0-15.39-6.8-15.39-16.58s6.1-16.33,14.83-16.33,14.21,6,14.21,16.27a1.35,1.35,0,0,1-1.37,1.37h-23.5a.92.92,0,0,0-.87,1.06c1,6.92,5.42,11.4,12.09,11.4a14.73,14.73,0,0,0,10.35-4.42A1.71,1.71,0,0,1,424.08,54.73ZM400.52,43.44a.87.87,0,0,0,.81,1.06H422a.87.87,0,0,0,.93-1c-1-7-4.61-11-11-11S401.71,36.59,400.52,43.44Z"/><path class="cls-1" d="M451,51.9c-1.91,0-3.42-1.1-3.42-3.72,0-7.14,2-13,10.76-16a12.43,12.43,0,0,0,8.75-12.07c0-7-6.43-12.68-13.78-12.68-7.94,0-12.77,4.23-16.69,8.35a4.07,4.07,0,0,1-2.92,1.31A3.62,3.62,0,0,1,430,13.28a3.83,3.83,0,0,1,.9-2.42C435.55,5.43,442.29,0,453.35,0c11.57,0,21.73,8.55,21.73,20.12,0,9.25-5.83,15.29-14.08,18.61-4.63,1.81-6.34,4.12-6.34,9.45A3.35,3.35,0,0,1,451,51.9Zm.2,9.16a4.63,4.63,0,0,1,4.63,4.72,4.7,4.7,0,0,1-4.63,4.73,4.86,4.86,0,0,1-4.73-4.73A4.79,4.79,0,0,1,451.24,61.06Z"/><path class="cls-1" d="M17.81,92.54c-.6-.9-1.81-.6-1.91.61L14.29,129a7,7,0,0,1-7.54,6.74A6.93,6.93,0,0,1,0,128.25l2.61-56a7.18,7.18,0,0,1,7.45-6.84c3.42,0,6.13.9,8.15,4.12l18.7,29.67c.61.91,1.31,1,2,0L57.75,69.41a8.28,8.28,0,0,1,7.54-4c3.92,0,7.54,2.61,7.74,6.84l2.62,56a7.15,7.15,0,0,1-14.28.71L59.76,93.15c-.1-1.61-1.21-1.41-2.11,0l-14,21.32a6.62,6.62,0,0,1-11.36,0Z"/><path class="cls-1" d="M111,84.1c15,0,27.16,10.86,27.16,26.45S127,137,111,137,83.9,126.14,83.9,110.55,96.07,84.1,111,84.1Zm0,42c8.15,0,13.58-5.73,13.58-15.59S119.11,95,111,95s-13.48,5.73-13.48,15.59S102.91,126.14,111,126.14Z"/><path class="cls-1" d="M193.74,128.86A6.66,6.66,0,0,1,187,135.8a6.77,6.77,0,0,1-6.94-6.94V108.44c0-7.55-3.52-11.87-10.36-11.87-6,0-9.75,3.92-9.75,11.46v20.83a6.67,6.67,0,0,1-6.74,6.94,6.85,6.85,0,0,1-7-6.94V92.44a6.85,6.85,0,0,1,7-6.94,6.49,6.49,0,0,1,6.54,5.33c.2.91.9,1.31,1.4.61,3.12-4.23,7.65-7.34,13.58-7.34,7.14,0,12.68,2.81,15.9,7.94.4.71,1.2.71,1.81,0,3.72-4.52,10.26-7.94,16.29-7.94,11.77,0,19,7.64,19,19.71v25.05a6.84,6.84,0,1,1-13.68,0V108.44c0-7.55-3.52-11.87-10.36-11.87-6,0-10,4.32-10,11.87Z"/><path class="cls-1" d="M278.94,120.71a5.43,5.43,0,0,1,5.54,5.43,5.51,5.51,0,0,1-2.32,4.33c-6.54,5.33-12.47,6.53-19.71,6.53-15.79,0-26.66-11.87-26.66-26.45,0-16.2,10.87-26.56,26-26.56,16.6,0,24.95,13.58,24.95,23.24,0,5.23-2.72,6.74-6.34,6.74H251.18a1.24,1.24,0,0,0-1.31,1.51c1.92,7.24,6.54,10.76,13.58,10.76a18.35,18.35,0,0,0,11.27-3.82A6.89,6.89,0,0,1,278.94,120.71Zm-28.86-17.2c-.21.9,0,1.51,1.3,1.51H273c1.31,0,1.51-.81,1.31-1.51-1.81-6.44-6.34-9.86-12.37-9.86S251.38,97.27,250.08,103.51Z"/><path class="cls-1" d="M308.52,128.86a6.67,6.67,0,0,1-6.74,6.94,6.85,6.85,0,0,1-7-6.94V92.44a6.85,6.85,0,0,1,7-6.94,6.51,6.51,0,0,1,6.54,5.13c.2.91,1.1,1.21,1.91.2a18.75,18.75,0,0,1,14.08-6.73c11.77,0,19,7.64,19,19.71v25.05a6.67,6.67,0,0,1-6.74,6.94,6.77,6.77,0,0,1-6.94-6.94V108.44c0-7.55-3.72-11.87-10.56-11.87-6,0-10.56,4.32-10.56,11.87Z"/><path class="cls-1" d="M355.29,98.08c0-.81-.4-1.31-1.2-1.31a5.51,5.51,0,0,1-5.74-5.53,5.62,5.62,0,0,1,5.74-5.74,1.06,1.06,0,0,0,1.2-1.2V78.36a6.77,6.77,0,0,1,6.94-6.94A6.67,6.67,0,0,1,369,78.36V84.3c0,.9.61,1.2,1.41,1.2h6.24a5.67,5.67,0,0,1,5.73,5.74,5.56,5.56,0,0,1-5.73,5.53h-6.34A1.17,1.17,0,0,0,369,98.08v19.41c0,4.32,1.71,6.34,6.64,6.64,5.33.3,7.34,2.21,7.34,5.73,0,3.12-2,5.94-9.45,5.94H371c-9.15,0-15.69-6.24-15.69-18.31Z"/><path class="cls-1" d="M423.69,92.44a6.67,6.67,0,0,1,6.74-6.94,6.85,6.85,0,0,1,7,6.94v36.42a6.85,6.85,0,0,1-7,6.94,6.59,6.59,0,0,1-6.54-5.13c-.2-.91-1-1.21-1.91-.2A18.57,18.57,0,0,1,407.9,137c-11.77,0-18.91-7.64-18.91-19.71V92.44a6.59,6.59,0,0,1,6.64-6.94,6.77,6.77,0,0,1,6.94,6.94v20.22c0,7.55,3.72,11.87,10.66,11.87,6,0,10.46-4.12,10.46-11.67Z"/><path class="cls-1" d="M496.11,128.86a6.66,6.66,0,0,1-6.73,6.94,6.76,6.76,0,0,1-6.94-6.94V108.44c0-7.55-3.53-11.87-10.37-11.87-6,0-9.75,3.92-9.75,11.46v20.83a6.67,6.67,0,0,1-6.74,6.94,6.85,6.85,0,0,1-7-6.94V92.44a6.85,6.85,0,0,1,7-6.94,6.49,6.49,0,0,1,6.54,5.33c.2.91.9,1.31,1.41.61,3.11-4.23,7.64-7.34,13.57-7.34,7.15,0,12.68,2.81,15.9,7.94.4.71,1.2.71,1.81,0,3.72-4.52,10.26-7.94,16.29-7.94,11.77,0,19,7.64,19,19.71v25.05a6.84,6.84,0,1,1-13.68,0V108.44c0-7.55-3.52-11.87-10.36-11.87-6,0-10,4.32-10,11.87Z"/></g></g></svg>