<svg xmlns="http://www.w3.org/2000/svg" viewBox="0 0 50.84 50.84"><defs><style>.cls-1{fill:#fff;}.cls-2{fill:none;stroke:#fff;stroke-miterlimit:10;}</style></defs><g id="Layer_2" data-name="Layer 2"><g id="Layer_1-2" data-name="Layer 1"><path class="cls-1" d="M15.28,31.1c0-1.69,0-3.39,0-5.09A1.23,1.23,0,0,1,15.74,25c3.06-2.62,6.12-5.23,9.16-7.86a.58.58,0,0,1,.9,0q4.53,3.9,9.08,7.78a1.48,1.48,0,0,1,.56,1.26c0,3.34,0,6.68,0,10,0,1.09-.23,1.31-1.3,1.31H29.86c-.91,0-1.19-.27-1.2-1.19,0-2.54,0-5.08,0-7.62,0-1-.18-1.19-1.2-1.19H23.13c-.86,0-1.08.22-1.08,1.08,0,2.52,0,5,0,7.56,0,1.14-.23,1.36-1.37,1.37H16.4c-.85,0-1.11-.27-1.12-1.13V31.1Z"/><path class="cls-1" d="M38.74,22.36a1.56,1.56,0,0,1-1,1.54,1.55,1.55,0,0,1-1.8-.24l-6.23-5.34c-1.34-1.14-2.68-2.27-4-3.43a.5.5,0,0,0-.79,0q-4.87,4.2-9.78,8.39c-.18.15-.35.31-.54.44a1.68,1.68,0,0,1-2.32-.26,1.7,1.7,0,0,1,.2-2.33c2.06-1.8,4.14-3.57,6.21-5.35l5.34-4.57a1.7,1.7,0,0,1,2.56,0q5.75,4.91,11.47,9.85a4.83,4.83,0,0,1,.78,1.21Z"/><circle class="cls-2" cx="25.42" cy="25.42" r="24.92"/></g></g></svg>