<svg xmlns="http://www.w3.org/2000/svg" viewBox="0 0 948.65 170.51"><defs><style>.cls-1{isolation:isolate;}.cls-2,.cls-4{fill:#fff;}.cls-3{fill:#919396;mix-blend-mode:multiply;}.cls-4{font-size:39.18px;font-family:EJRounded-Book, EJ Rounded;}</style></defs><g class="cls-1"><g id="Layer_1" data-name="Layer 1"><path class="cls-2" d="M492.78,157.27a11.61,11.61,0,1,0,23.21,0V145.85q-11.75,1.17-23.21,2Zm-136.43-9.5.44,10a11.37,11.37,0,0,0,12.27,11A11.24,11.24,0,0,0,380,156.62l-.34-7.42Q367.63,148.62,356.35,147.77ZM106.09,54.47c-5.71,0-9.48,2.28-12.25,6.53L63.27,109.38c-1.15,1.64-2.28,1.47-3.27,0L29.6,61.16c-3.27-5.22-7.68-6.69-13.23-6.69-6.22,0-11.78,4.24-12.1,11.11L0,156.62A11.24,11.24,0,0,0,11,168.72a11.37,11.37,0,0,0,12.27-11l2.62-58.19c.16-1.95,2.12-2.45,3.1-1l23.53,35.63a10.77,10.77,0,0,0,18.47,0L93.67,99.57c1.47-2.29,3.27-2.61,3.44,0l2.61,58.19a11.62,11.62,0,0,0,23.21-1.14l-4.25-91C118.35,58.71,112.47,54.47,106.09,54.47Zm151,102.15a11.25,11.25,0,0,0,11,12.1,11.36,11.36,0,0,0,12.26-11l.83-18.57c-8.58-1.36-16.29-2.7-23-4Zm216.15-7.52c-27.07,1.4-52.8,1.51-76.74.77v7.4a11.35,11.35,0,0,0,11.61,11.61h61.46a10.22,10.22,0,0,0,3.67-19.78ZM798.42,61.64Q792.22,65,786,68.21v54.9c0,16.35-8.66,26.32-26.48,26.32s-26.31-10-26.31-26.32V92.66q-11.55,4.75-23.11,9l.06,21.24c.17,31.38,19,47.56,49.53,47.56s49.52-16.51,49.52-47.89V66.07a11.43,11.43,0,0,0-3.56-8.45C803.32,58.94,800.93,60.27,798.42,61.64Zm146,3.94c-.33-6.87-6.21-11.11-12.58-11.11-5.72,0-9.48,2.28-12.26,6.53L889,109.38c-1.14,1.64-2.29,1.47-3.27,0L855.3,61.16c-3.26-5.22-7.68-6.69-13.24-6.69-6.2,0-11.77,4.24-12.09,11.11l-4.26,91a11.62,11.62,0,0,0,23.21,1.14l2.62-58.19c.17-1.95,2.13-2.45,3.11-1l23.54,35.63a10.77,10.77,0,0,0,18.47,0l22.72-34.66c1.46-2.29,3.26-2.61,3.43,0l2.61,58.19a11.36,11.36,0,0,0,12.26,11,11.25,11.25,0,0,0,11-12.1ZM574.17,164.46a12,12,0,0,0,9.16,4.42,11.39,11.39,0,0,0,11.77-11.61V134.11q-20.62,4.09-40.76,7Zm66.69-7.19a11.61,11.61,0,1,0,23.21,0V117.06q-11.64,3.45-23.21,6.5Z"/><path class="cls-2" d="M469.57,54.47H408.11a11.35,11.35,0,0,0-11.61,11.6v65.78c7.7.79,15.45,1.43,23.21,2v-9.58c0-1.48.66-2.29,2-2.29H463a10.22,10.22,0,1,0,0-20.43H421.68c-1.31,0-2-.82-2-2.29V77.18c0-1.47.66-2.29,2-2.29h47.89a10.21,10.21,0,1,0,0-20.42Zm-106.4,0c-5.72,0-9.48,2.28-12.26,6.53l-30.56,48.38c-1.15,1.64-2.29,1.47-3.27,0L286.67,61.16c-3.26-5.22-7.68-6.69-13.23-6.69-6.22,0-11.77,4.24-12.1,11.11l-1.83,39.23q11.37,3.38,22.88,6.41l.53-11.65c.16-1.95,2.12-2.45,3.1-1l10.69,16.19q19.16,4.6,38.66,8.24l15.38-23.46c1.47-2.29,3.26-2.61,3.43,0l1.21,26.91c7.75,1.22,15.54,2.36,23.36,3.34l-3-64.24C375.43,58.71,369.54,54.47,363.17,54.47Zm220.16,0a11.31,11.31,0,0,0-11.44,11.6v56.06c0,2.45-2.46,2.62-3.6,1.15L513.7,58.87a12.11,12.11,0,0,0-9.32-4.4,11.34,11.34,0,0,0-11.6,11.6v69.51c7.76-.18,15.5-.51,23.21-.92V101.37c0-2,2-2.77,3.59-1.14l27.29,32.1q24.35-2.31,48.23-6.16V66.07A11.39,11.39,0,0,0,583.33,54.47Zm214.28,0A11.35,11.35,0,0,0,786,66.07v2.74c7-3.17,13.93-6.48,20.81-9.86A11.58,11.58,0,0,0,797.61,54.47Zm-107.72,0H615.2c-6.21,0-10.46,4.4-10.46,10.13A10,10,0,0,0,615,74.89h23.69c1.48,0,2.13.82,2.13,2.29v40.2c7.78-1.75,15.52-3.59,23.21-5.57V77.18c0-1.47.66-2.29,2.13-2.29h23.69A10.09,10.09,0,0,0,700.36,64.6C700.36,58.87,696.11,54.47,689.89,54.47Zm31.72,0A11.34,11.34,0,0,0,710,66.07l.09,32.22c7.76-2.55,15.48-5.17,23.12-8V66.07A11.34,11.34,0,0,0,721.61,54.47Z"/><ellipse class="cls-3" cx="189.58" cy="164.5" rx="48.68" ry="6.01"/><text class="cls-4" transform="translate(602.86 33.3)">CREATIVE AGENCY</text></g></g></svg>