<svg xmlns="http://www.w3.org/2000/svg" xmlns:xlink="http://www.w3.org/1999/xlink" viewBox="0 0 399.65 351.81"><defs><style>.cls-1{isolation:isolate;}.cls-2{mix-blend-mode:multiply;}.cls-3,.cls-40{fill:#fff;}.cls-3{opacity:0;}.cls-4{fill:#f9f9f9;opacity:0.05;}.cls-5{fill:#f3f3f3;opacity:0.1;}.cls-6,.cls-65{fill:#ededed;}.cls-6{opacity:0.14;}.cls-7{fill:#e7e7e7;opacity:0.19;}.cls-8{fill:#e1e1e1;opacity:0.24;}.cls-9{fill:#dadada;opacity:0.29;}.cls-10{fill:#d4d4d4;opacity:0.33;}.cls-11,.cls-37{fill:#cecece;}.cls-11{opacity:0.38;}.cls-12{fill:#c8c8c8;opacity:0.43;}.cls-13{fill:#c2c2c2;opacity:0.48;}.cls-14{fill:#bcbcbc;opacity:0.52;}.cls-15{fill:#b6b6b6;opacity:0.57;}.cls-16{fill:#b0b0b0;opacity:0.62;}.cls-17,.cls-47{fill:#aaa;}.cls-17{opacity:0.67;}.cls-18{fill:#a4a4a4;opacity:0.71;}.cls-19{fill:#9d9d9d;opacity:0.76;}.cls-20{fill:#979797;opacity:0.81;}.cls-21{fill:#919191;opacity:0.86;}.cls-22{fill:#8b8b8b;opacity:0.9;}.cls-23{fill:#858585;opacity:0.95;}.cls-24{fill:#7f7f7f;}.cls-25{fill:#ed7000;}.cls-26{fill:#f14c23;}.cls-27{fill:#b5391a;}.cls-28{fill:#f4704f;}.cls-29,.cls-30{opacity:0.42;}.cls-29,.cls-30,.cls-31,.cls-32{mix-blend-mode:overlay;}.cls-29{fill:url(#linear-gradient);}.cls-30{fill:url(#linear-gradient-2);}.cls-31,.cls-32{opacity:0.48;}.cls-31{fill:url(#linear-gradient-3);}.cls-32{fill:url(#linear-gradient-4);}.cls-33{fill:#2d2d2d;}.cls-34{fill:#3f3f3f;}.cls-35{fill:#565656;}.cls-36{fill:#c1c1c1;}.cls-38{fill:#d8d8d8;}.cls-39{fill:#e2e2e2;}.cls-41,.cls-44,.cls-45,.cls-46{mix-blend-mode:screen;}.cls-41{fill:url(#linear-gradient-5);}.cls-42{fill:#ef2929;}.cls-43{fill:#ff4848;}.cls-44{fill:url(#linear-gradient-6);}.cls-45{fill:url(#linear-gradient-7);}.cls-46{fill:url(#linear-gradient-8);}.cls-48{fill:#191919;}.cls-49{fill:#2b2b2b;}.cls-50{fill:#383838;}.cls-51{fill:#b7b7b7;}.cls-52{fill:#6d6d6d;}.cls-53{fill:#ecc935;}.cls-54{fill:#cc680e;}.cls-55{fill:#ceaca7;}.cls-56{fill:#ffa9b3;}.cls-57{fill:#f48282;}.cls-58{fill:#ff7171;}.cls-59{fill:#ffc9b6;}.cls-60{fill:#ffa4a4;}.cls-61{fill:#afafaf;}.cls-62{fill:#c19a91;}.cls-63{fill:#232323;}.cls-64{fill:#ffd5ca;}</style><linearGradient id="linear-gradient" x1="0.09" y1="206.46" x2="337.62" y2="206.46" gradientUnits="userSpaceOnUse"><stop offset="0" stop-color="#4c4c4c"/><stop offset="0.7" stop-color="#fff"/></linearGradient><linearGradient id="linear-gradient-2" x1="12.33" y1="199.55" x2="325.41" y2="199.55" xlink:href="#linear-gradient"/><linearGradient id="linear-gradient-3" x1="12.25" y1="248.68" x2="325.41" y2="248.68" gradientUnits="userSpaceOnUse"><stop offset="0" stop-color="#4c4c4c"/><stop offset="0" stop-color="#4d4d4d"/><stop offset="0.1" stop-color="#828282"/><stop offset="0.2" stop-color="#afafaf"/><stop offset="0.29" stop-color="#d2d2d2"/><stop offset="0.37" stop-color="#ebebeb"/><stop offset="0.45" stop-color="#fafafa"/><stop offset="0.52" stop-color="#fff"/><stop offset="0.57" stop-color="#f7f7f7"/><stop offset="0.65" stop-color="#e1e1e1"/><stop offset="0.75" stop-color="#bebebe"/><stop offset="0.87" stop-color="#8c8c8c"/><stop offset="1" stop-color="#4e4e4e"/><stop offset="1" stop-color="#4c4c4c"/></linearGradient><linearGradient id="linear-gradient-4" x1="0" y1="260.64" x2="337.61" y2="260.64" xlink:href="#linear-gradient-3"/><linearGradient id="linear-gradient-5" x1="194.51" y1="162.12" x2="194.51" y2="104.18" gradientUnits="userSpaceOnUse"><stop offset="0.03" stop-color="#ff4848"/><stop offset="0.05" stop-color="#f14444"/><stop offset="0.16" stop-color="#b93434"/><stop offset="0.28" stop-color="#882626"/><stop offset="0.39" stop-color="#5e1b1b"/><stop offset="0.51" stop-color="#3c1111"/><stop offset="0.62" stop-color="#220909"/><stop offset="0.74" stop-color="#0f0404"/><stop offset="0.87" stop-color="#040101"/><stop offset="1"/></linearGradient><linearGradient id="linear-gradient-6" x1="96.21" y1="218.1" x2="96.21" y2="160.16" xlink:href="#linear-gradient-5"/><linearGradient id="linear-gradient-7" x1="145.4" y1="189.63" x2="145.4" y2="131.69" xlink:href="#linear-gradient-5"/><linearGradient id="linear-gradient-8" x1="243.6" y1="134.15" x2="243.6" y2="76.21" xlink:href="#linear-gradient-5"/></defs><g class="cls-1"><g id="Layer_2" data-name="Layer 2"><g id="Layer_1-2" data-name="Layer 1"><g class="cls-2"><path class="cls-3" d="M337.59,220.84v-1.15c0,.37,0,.75,0,1.13.58-25.51-15.92-51.14-49.63-70.6-33-19.06-76.18-28.59-119.28-28.59S82.47,131.15,49.68,150.2.71,194.07.74,219c0-.08,0-.16,0-.24v1.15c0-.3,0-.6,0-.91,0-.08,0-.16,0-.24l0,11.07c-.07,25.13,16.52,50.3,49.75,69.49,33,19.05,76.17,28.57,119.29,28.57s86.17-9.52,119-28.58c32.57-18.93,48.87-43.7,48.95-68.51l0-11.06C337.64,220.07,337.61,220.46,337.59,220.84Z"/><path class="cls-4" d="M337.59,220.24v-1.16c0,.38,0,.76,0,1.13.58-25.5-15.92-51.13-49.63-70.6C254.9,130.55,211.73,121,168.63,121S82.47,130.55,49.68,149.6.71,193.46.74,218.35c0-.08,0-.16,0-.25v1.15c0-.3,0-.6,0-.9,0-.08,0-.16,0-.25l0,11.07c-.07,25.13,16.52,50.3,49.75,69.49,33,19.06,76.17,28.58,119.29,28.58s86.17-9.53,119-28.58c32.57-18.93,48.87-43.71,48.95-68.51l0-11.07C337.64,219.47,337.61,219.85,337.59,220.24Z"/><path class="cls-5" d="M337.59,219.63v-1.16c0,.38,0,.76,0,1.14.58-25.51-15.92-51.14-49.63-70.61-33-19.05-76.18-28.58-119.28-28.58S82.47,129.94,49.68,149,.71,192.85.74,217.74c0-.08,0-.16,0-.24v1.14c0-.3,0-.6,0-.9,0-.08,0-.16,0-.24l0,11.07c-.07,25.13,16.52,50.3,49.75,69.48,33,19.06,76.17,28.58,119.29,28.58s86.17-9.52,119-28.58c32.57-18.93,48.87-43.7,48.95-68.51l0-11.07C337.64,218.86,337.61,219.24,337.59,219.63Z"/><path class="cls-6" d="M337.59,219v-1.16c0,.37,0,.75,0,1.13.58-25.5-15.92-51.14-49.63-70.6-33-19.06-76.18-28.59-119.28-28.59s-86.16,9.52-118.95,28.58S.71,192.25.74,217.13c0-.08,0-.16,0-.24V218c0-.3,0-.6,0-.91,0-.08,0-.16,0-.24L.65,228c-.07,25.13,16.52,50.3,49.75,69.49C83.41,316.5,126.57,326,169.69,326s86.17-9.53,119-28.59c32.57-18.93,48.87-43.7,48.95-68.5l0-11.07C337.64,218.25,337.61,218.64,337.59,219Z"/><path class="cls-7" d="M337.59,218.42v-1.16c0,.38,0,.76,0,1.13.58-25.5-15.92-51.13-49.63-70.6-33-19.06-76.18-28.59-119.28-28.59s-86.16,9.53-118.95,28.58S.71,191.64.74,216.53c0-.08,0-.16,0-.24v1.14c0-.3,0-.6,0-.9,0-.08,0-.16,0-.24l0,11.06c-.07,25.13,16.52,50.31,49.75,69.49,33,19.06,76.17,28.58,119.29,28.58s86.17-9.53,119-28.58c32.57-18.93,48.87-43.7,48.95-68.51l0-11.07C337.64,217.65,337.61,218,337.59,218.42Z"/><path class="cls-8" d="M337.59,217.81v-1.15c0,.37,0,.75,0,1.13.58-25.51-15.92-51.14-49.63-70.6-33-19.06-76.18-28.59-119.28-28.59s-86.16,9.52-118.95,28.57S.71,191,.74,215.92c0-.08,0-.16,0-.24v1.14c0-.29,0-.59,0-.9,0-.08,0-.16,0-.24l0,11.07c-.07,25.13,16.52,50.3,49.75,69.48,33,19.06,76.17,28.58,119.29,28.58s86.17-9.52,119-28.58c32.57-18.93,48.87-43.7,48.95-68.51l0-11.06C337.64,217,337.61,217.43,337.59,217.81Z"/><path class="cls-9" d="M337.59,217.21v-1.16c0,.38,0,.75,0,1.13.58-25.5-15.92-51.14-49.63-70.6C254.9,127.52,211.73,118,168.63,118s-86.16,9.53-118.95,28.58S.71,190.43.74,215.31c0-.08,0-.16,0-.24v1.15c0-.3,0-.6,0-.9,0-.08,0-.17,0-.25l0,11.07c-.07,25.13,16.52,50.3,49.75,69.49,33,19.05,76.17,28.58,119.29,28.58s86.17-9.53,119-28.58c32.57-18.93,48.87-43.71,48.95-68.51l0-11.07C337.64,216.44,337.61,216.82,337.59,217.21Z"/><path class="cls-10" d="M337.59,216.6v-1.16c0,.38,0,.76,0,1.13.58-25.5-15.92-51.13-49.63-70.6-33-19.06-76.18-28.58-119.28-28.58S82.47,126.91,49.68,146,.71,189.82.74,214.71c0-.08,0-.16,0-.24v1.14c0-.3,0-.6,0-.9,0-.08,0-.16,0-.24l0,11.07C.58,250.67,17.17,275.84,50.4,295c33,19.06,76.17,28.58,119.29,28.58s86.17-9.52,119-28.58c32.57-18.93,48.87-43.7,48.95-68.51l0-11.07C337.64,215.83,337.61,216.21,337.59,216.6Z"/><path class="cls-11" d="M337.59,216v-1.15c0,.37,0,.75,0,1.13.58-25.5-15.92-51.14-49.63-70.6-33-19.06-76.18-28.59-119.28-28.59S82.47,126.3,49.68,145.36.71,189.22.74,214.1c0-.08,0-.16,0-.24V215c0-.3,0-.6,0-.91,0-.08,0-.16,0-.24l0,11.07c-.07,25.13,16.52,50.3,49.75,69.49,33,19.05,76.17,28.58,119.29,28.57s86.17-9.52,119-28.58c32.57-18.93,48.87-43.7,48.95-68.51l0-11.06C337.64,215.22,337.61,215.61,337.59,216Z"/><path class="cls-12" d="M337.59,215.39v-1.16c0,.38,0,.76,0,1.13.58-25.5-15.92-51.13-49.63-70.6-33-19.06-76.18-28.59-119.28-28.59S82.47,125.7,49.68,144.75.71,188.61.74,213.5c0-.08,0-.16,0-.25v1.15c0-.3,0-.6,0-.9,0-.08,0-.16,0-.25l0,11.07c-.07,25.13,16.52,50.31,49.75,69.49,33,19.06,76.17,28.58,119.29,28.58s86.17-9.53,119-28.58c32.57-18.93,48.87-43.71,48.95-68.51l0-11.07C337.64,214.62,337.61,215,337.59,215.39Z"/><path class="cls-13" d="M337.59,214.78v-1.16c0,.38,0,.76,0,1.14.58-25.51-15.92-51.14-49.63-70.61-33-19.05-76.18-28.58-119.28-28.58s-86.16,9.52-118.95,28.57S.71,188,.74,212.89c0-.08,0-.16,0-.24v1.14c0-.3,0-.6,0-.9,0-.08,0-.16,0-.24l0,11.07C.58,248.85,17.17,274,50.4,293.2c33,19.06,76.17,28.58,119.29,28.58s86.17-9.52,119-28.58c32.57-18.93,48.87-43.7,48.95-68.51l0-11.07C337.64,214,337.61,214.4,337.59,214.78Z"/><path class="cls-14" d="M337.59,214.18V213c0,.38,0,.75,0,1.13.58-25.5-15.92-51.14-49.63-70.6C254.9,124.49,211.73,115,168.63,115s-86.16,9.52-118.95,28.58S.71,187.4.74,212.28c0-.08,0-.16,0-.24v1.15c0-.3,0-.6,0-.9,0-.08,0-.17,0-.25l0,11.07c-.07,25.13,16.52,50.3,49.75,69.49,33,19,76.17,28.58,119.29,28.58s86.17-9.53,119-28.58c32.57-18.94,48.87-43.71,48.95-68.51l0-11.07C337.64,213.41,337.61,213.79,337.59,214.18Z"/><path class="cls-15" d="M337.59,213.57v-1.16c0,.38,0,.76,0,1.13.58-25.5-15.92-51.13-49.63-70.6-33-19.06-76.18-28.59-119.28-28.59s-86.16,9.53-118.95,28.58S.71,186.79.74,211.68c0-.08,0-.16,0-.24v1.14c0-.3,0-.6,0-.9,0-.08,0-.16,0-.24l0,11.06C.58,247.63,17.17,272.81,50.4,292c33,19.06,76.17,28.58,119.29,28.58s86.17-9.52,119-28.58c32.57-18.93,48.87-43.7,48.95-68.51l0-11.07C337.64,212.8,337.61,213.18,337.59,213.57Z"/><path class="cls-16" d="M337.59,213v-1.15c0,.37,0,.75,0,1.13.58-25.51-15.92-51.14-49.63-70.61-33-19.05-76.18-28.58-119.28-28.58s-86.16,9.52-118.95,28.58S.71,186.18.74,211.07c0-.08,0-.16,0-.24V212c0-.29,0-.59,0-.9,0-.08,0-.16,0-.24l0,11.07C.58,247,17.17,272.2,50.4,291.39c33,19.05,76.17,28.58,119.29,28.57s86.17-9.52,119-28.58c32.57-18.93,48.87-43.7,48.95-68.51l0-11.06C337.64,212.19,337.61,212.58,337.59,213Z"/><path class="cls-17" d="M337.59,212.36V211.2c0,.38,0,.75,0,1.13.58-25.5-15.92-51.14-49.63-70.6-33-19.06-76.18-28.59-119.28-28.59s-86.16,9.53-118.95,28.58S.71,185.58.74,210.46c0-.08,0-.16,0-.24v1.15c0-.3,0-.6,0-.9,0-.08,0-.17,0-.25l0,11.07C.58,246.42,17.17,271.6,50.4,290.78c33,19.06,76.17,28.58,119.29,28.58s86.17-9.53,119-28.58c32.57-18.93,48.87-43.71,48.95-68.51l0-11.07C337.64,211.59,337.61,212,337.59,212.36Z"/><path class="cls-18" d="M337.59,211.75v-1.16c0,.38,0,.76,0,1.13.58-25.5-15.92-51.13-49.63-70.6-33-19.05-76.18-28.58-119.28-28.58s-86.16,9.52-118.95,28.57S.71,185,.74,209.86c0-.08,0-.16,0-.24v1.14c0-.3,0-.6,0-.9,0-.08,0-.16,0-.24l0,11.07C.58,245.82,17.17,271,50.4,290.17c33,19.06,76.17,28.58,119.29,28.58s86.17-9.52,119-28.58c32.57-18.93,48.87-43.7,48.95-68.51l0-11.07C337.64,211,337.61,211.37,337.59,211.75Z"/><path class="cls-19" d="M337.59,211.15V210c0,.38,0,.75,0,1.13.58-25.5-15.92-51.14-49.63-70.6-33-19.06-76.18-28.59-119.28-28.59s-86.16,9.52-118.95,28.58S.71,184.37.74,209.25c0-.08,0-.16,0-.24v1.15c0-.3,0-.6,0-.9,0-.08,0-.17,0-.25l0,11.07c-.07,25.13,16.52,50.3,49.75,69.49,33,19.05,76.17,28.58,119.29,28.57s86.17-9.52,119-28.57c32.57-18.94,48.87-43.71,48.95-68.52l0-11.06C337.64,210.38,337.61,210.76,337.59,211.15Z"/><path class="cls-20" d="M337.59,210.54v-1.16c0,.38,0,.76,0,1.13.58-25.5-15.92-51.14-49.63-70.6-33-19.06-76.18-28.59-119.28-28.59S82.47,120.85,49.68,139.9.71,183.76.74,208.65c0-.08,0-.16,0-.24v1.14c0-.3,0-.6,0-.9,0-.08,0-.16,0-.24l0,11.06C.58,244.6,17.17,269.78,50.4,289c33,19.06,76.17,28.58,119.29,28.58s86.17-9.52,119-28.58c32.57-18.93,48.87-43.71,48.95-68.51l0-11.07C337.64,209.77,337.61,210.15,337.59,210.54Z"/><path class="cls-21" d="M337.59,209.93v-1.16c0,.38,0,.76,0,1.14.58-25.51-15.92-51.14-49.63-70.61-33-19.05-76.18-28.58-119.28-28.58S82.47,120.24,49.68,139.3.71,183.15.74,208c0-.08,0-.16,0-.24v1.14c0-.3,0-.6,0-.9,0-.08,0-.16,0-.24l0,11.07C.58,244,17.17,269.17,50.4,288.35c33,19.06,76.17,28.58,119.29,28.58s86.17-9.52,119-28.58c32.57-18.93,48.87-43.7,48.95-68.51l0-11.07C337.64,209.16,337.61,209.55,337.59,209.93Z"/><path class="cls-22" d="M337.59,209.33v-1.16c0,.38,0,.75,0,1.13.58-25.5-15.92-51.14-49.63-70.6-33-19.06-76.18-28.59-119.28-28.59s-86.16,9.52-118.95,28.58S.71,182.55.74,207.43c0-.08,0-.16,0-.24v1.15c0-.3,0-.6,0-.9,0-.08,0-.17,0-.25l0,11.07c-.07,25.13,16.52,50.31,49.75,69.49,33,19.05,76.17,28.58,119.29,28.58s86.17-9.53,119-28.58c32.57-18.93,48.87-43.71,48.95-68.52l0-11.06C337.64,208.56,337.61,208.94,337.59,209.33Z"/><path class="cls-23" d="M337.59,208.72v-1.16c0,.38,0,.76,0,1.13.58-25.5-15.92-51.13-49.63-70.6-33-19.06-76.18-28.58-119.28-28.58S82.47,119,49.68,138.08.71,181.94.74,206.83c0-.08,0-.16,0-.24v1.14c0-.3,0-.6,0-.9,0-.08,0-.16,0-.24l0,11.07C.58,242.79,17.17,268,50.4,287.14c33,19.06,76.17,28.58,119.29,28.58s86.17-9.52,119-28.58c32.57-18.93,48.87-43.7,48.95-68.51l0-11.07C337.64,208,337.61,208.34,337.59,208.72Z"/><path class="cls-24" d="M337.59,208.11V207c0,.38,0,.75,0,1.13.58-25.51-15.92-51.14-49.63-70.61-33-19-76.18-28.58-119.28-28.58s-86.16,9.52-118.95,28.58S.71,181.33.74,206.22c0-.08,0-.16,0-.24v1.15c0-.31,0-.6,0-.9,0-.08,0-.17,0-.25l0,11.07c-.07,25.13,16.52,50.3,49.75,69.49,33,19,76.17,28.58,119.29,28.57s86.17-9.52,119-28.57c32.57-18.94,48.87-43.71,48.95-68.52l0-11.06C337.64,207.35,337.61,207.73,337.59,208.11Z"/></g><path class="cls-25" d="M310.09,260.31c-.87.77-1.81,1.52-2.73,2.28C308.28,261.83,309.22,261.08,310.09,260.31Z"/><path class="cls-25" d="M314.5,256.21c-.77.76-1.61,1.51-2.43,2.26C312.89,257.72,313.73,257,314.5,256.21Z"/><path class="cls-25" d="M305.3,264.31c-1,.8-2.09,1.58-3.16,2.37C303.21,265.89,304.29,265.11,305.3,264.31Z"/><path class="cls-25" d="M23.67,256.07c-.64-.63-1.23-1.27-1.85-1.91C22.44,254.8,23,255.44,23.67,256.07Z"/><path class="cls-25" d="M300.12,268.19c-1.2.87-2.48,1.7-3.74,2.54C297.64,269.89,298.92,269.06,300.12,268.19Z"/><path class="cls-25" d="M28.14,260.2c-.7-.62-1.35-1.25-2-1.87C26.79,259,27.44,259.58,28.14,260.2Z"/><path class="cls-25" d="M316.35,254.29c.41-.43.83-.85,1.23-1.28h0C317.18,253.43,316.76,253.86,316.35,254.29Z"/><path class="cls-25" d="M38.26,268.14c-.74-.52-1.42-1.06-2.14-1.58C36.84,267.08,37.52,267.62,38.26,268.14Z"/><path class="cls-25" d="M294.56,272c-1.92,1.23-3.9,2.45-5.95,3.63C290.66,274.41,292.64,273.19,294.56,272Z"/><path class="cls-25" d="M43.89,271.93c-.64-.4-1.23-.83-1.86-1.25C42.66,271.1,43.25,271.53,43.89,271.93Z"/><path class="cls-25" d="M33,264.23c-.75-.58-1.43-1.18-2.14-1.77C31.58,263.05,32.26,263.65,33,264.23Z"/><path class="cls-25" d="M12.42,201.56c0,.5,0,1,.06,1.49,0,0,0-.05,0-.07C12.45,202.5,12.44,202,12.42,201.56Z"/><path class="cls-25" d="M325.27,204.18a.2.2,0,0,1,0-.07.08.08,0,0,0,0,0Z"/><path class="cls-26" d="M.29,210.92c.06.8.19,1.61.29,2.41s.17,1.53.3,2.29.33,1.61.49,2.41.3,1.51.49,2.27.46,1.59.7,2.4.41,1.5.66,2.25.6,1.6.91,2.4.54,1.48.85,2.22.74,1.61,1.12,2.41.65,1.45,1,2.16.89,1.6,1.33,2.4.78,1.42,1.2,2.13,1,1.58,1.55,2.36.89,1.41,1.38,2.1,1.16,1.57,1.76,2.35,1,1.37,1.55,2,1.32,1.56,2,2.34,1.11,1.33,1.7,2,1.49,1.55,2.24,2.32,1.21,1.28,1.85,1.91,1.62,1.51,2.44,2.26,1.33,1.25,2,1.87c.88.77,1.82,1.51,2.73,2.26.71.59,1.39,1.19,2.14,1.77,1,.78,2.07,1.55,3.11,2.33.72.52,1.4,1.06,2.14,1.58,1.21.86,2.5,1.7,3.77,2.54.63.42,1.22.85,1.86,1.25q2.93,1.88,6,3.66c66.14,38.18,173,38.18,238.69,0,2.05-1.18,4-2.4,5.95-3.63.63-.4,1.2-.82,1.82-1.23,1.26-.84,2.54-1.67,3.74-2.54.7-.49,1.35-1,2-1.51,1.07-.79,2.15-1.57,3.16-2.37.71-.57,1.37-1.15,2.06-1.72.92-.76,1.86-1.51,2.73-2.28.69-.61,1.32-1.23,2-1.84.82-.75,1.66-1.5,2.43-2.26s1.23-1.28,1.85-1.92c.41-.43.83-.86,1.23-1.29s.65-.66.95-1c.59-.66,1.13-1.33,1.69-2s1.33-1.52,1.95-2.29,1-1.37,1.53-2,1.18-1.54,1.73-2.32.9-1.38,1.35-2.08,1-1.56,1.51-2.35.8-1.42,1.2-2.13.9-1.57,1.3-2.36.67-1.44,1-2.17.76-1.58,1.09-2.37.56-1.46.83-2.2.63-1.59.89-2.38.43-1.48.65-2.22.49-1.61.69-2.41.31-1.48.46-2.23.36-1.61.49-2.42.19-1.49.28-2.24.22-1.61.29-2.42.06-1.5.1-2.25c1.06-25.9-15.5-52-49.73-71.79-66.16-38.19-173-38.19-238.72,0-32.74,19-49.07,43.95-49,68.88,0,.81.06,1.62.09,2.42S.22,210.16.29,210.92Zm12-11.83c0,.08,0,.16,0,.23,0-23.13,15.11-46.25,45.47-63.9,60.94-35.41,160.07-35.41,221.43,0C311,153.76,326.35,178,325.37,202c0-.67.08-1.34.08-2l0,8c0,.66-.06,1.34-.09,2s0,1.41-.09,2.11-.17,1.49-.26,2.23-.15,1.4-.27,2.1-.29,1.49-.44,2.23-.27,1.39-.44,2.08-.42,1.48-.63,2.22-.38,1.38-.61,2.07-.54,1.46-.82,2.19-.48,1.38-.77,2.06-.67,1.47-1,2.2-.6,1.35-.93,2-.81,1.48-1.22,2.21-.7,1.31-1.09,2-.94,1.46-1.41,2.19-.81,1.28-1.26,1.92-1.07,1.44-1.61,2.17-.91,1.25-1.41,1.87-1.21,1.44-1.82,2.16-1,1.21-1.55,1.82-1.37,1.43-2.06,2.15-1.09,1.16-1.68,1.74-1.52,1.43-2.29,2.14c-.6.56-1.17,1.12-1.79,1.67-.84.73-1.74,1.45-2.62,2.18-.61.51-1.2,1-1.83,1.52-.92.73-1.9,1.44-2.87,2.16-.65.48-1.27,1-1.93,1.45-1.13.8-2.31,1.58-3.48,2.36-.57.37-1.1.76-1.68,1.13q-2.67,1.73-5.52,3.37c-60.94,35.42-160.07,35.42-221.41,0q-2.88-1.66-5.59-3.39c-.62-.4-1.21-.82-1.82-1.22-1.15-.76-2.31-1.52-3.41-2.3-.69-.49-1.33-1-2-1.49-1-.71-2-1.41-2.87-2.14-.68-.53-1.3-1.08-2-1.62-.86-.7-1.74-1.4-2.56-2.12-.64-.56-1.24-1.14-1.86-1.71s-1.56-1.4-2.29-2.11S33,252.4,32.44,251.8s-1.4-1.4-2-2.12-1.07-1.24-1.6-1.87-1.25-1.41-1.83-2.13-.95-1.27-1.43-1.9-1.12-1.45-1.64-2.18-.85-1.3-1.28-1.95-1-1.45-1.43-2.19-.74-1.32-1.11-2-.86-1.47-1.24-2.22-.62-1.32-.93-2-.73-1.5-1.06-2.25-.51-1.36-.77-2-.6-1.5-.85-2.26-.42-1.38-.62-2.07-.46-1.49-.65-2.24-.3-1.4-.45-2.09-.33-1.5-.46-2.25-.18-1.41-.27-2.11-.21-1.5-.28-2.25-.06-1.41-.09-2.11-.09-1.51-.09-2.26c0-.07,0-.14,0-.22Z"/><path class="cls-27" d="M12.4,209.61c0,.7,0,1.41.09,2.11s.19,1.5.28,2.25.15,1.41.27,2.11.31,1.5.46,2.25.27,1.39.45,2.09.43,1.49.65,2.24.39,1.38.62,2.07.56,1.51.85,2.26.49,1.35.77,2,.7,1.5,1.06,2.25.6,1.33.93,2,.82,1.48,1.24,2.22.71,1.33,1.11,2,.95,1.46,1.43,2.19.83,1.31,1.28,1.95,1.09,1.45,1.64,2.18.93,1.27,1.43,1.9,1.21,1.42,1.83,2.13,1,1.26,1.6,1.87,1.36,1.42,2,2.12,1.13,1.21,1.74,1.81,1.52,1.41,2.29,2.11,1.22,1.15,1.86,1.71c.82.72,1.7,1.42,2.56,2.12.65.54,1.27,1.09,2,1.62.92.73,1.91,1.43,2.87,2.14.67.5,1.31,1,2,1.49,1.1.78,2.26,1.54,3.41,2.3.61.4,1.2.82,1.82,1.22q2.72,1.73,5.59,3.39c61.34,35.42,160.47,35.42,221.41,0q2.85-1.65,5.52-3.37c.58-.37,1.11-.76,1.68-1.13,1.17-.78,2.35-1.56,3.48-2.36.66-.48,1.28-1,1.93-1.45,1-.72,1.95-1.43,2.87-2.16.63-.5,1.22-1,1.83-1.52.88-.73,1.78-1.45,2.62-2.18.62-.55,1.19-1.11,1.79-1.67.77-.71,1.56-1.42,2.29-2.14s1.12-1.16,1.68-1.74,1.41-1.43,2.06-2.15,1-1.22,1.55-1.82,1.25-1.43,1.82-2.16.94-1.25,1.41-1.87,1.11-1.44,1.61-2.17.84-1.28,1.26-1.92,1-1.46,1.41-2.19.72-1.31,1.09-2,.84-1.47,1.22-2.21.62-1.34.93-2,.71-1.46,1-2.2.52-1.37.77-2.06.58-1.46.82-2.19.41-1.38.61-2.07.45-1.48.63-2.22.29-1.39.44-2.08.33-1.48.44-2.23.19-1.4.27-2.1.2-1.49.26-2.23.06-1.41.09-2.11.09-1.34.09-2l0-8c0,.67-.05,1.34-.08,2s0,1.4-.09,2.1a.2.2,0,0,0,0,.07c-.06.72-.17,1.44-.26,2.16s-.15,1.4-.26,2.1-.3,1.49-.45,2.23-.27,1.39-.43,2.08-.42,1.48-.64,2.22-.38,1.38-.6,2.07-.55,1.46-.82,2.2-.49,1.37-.78,2.06-.67,1.46-1,2.19-.6,1.35-.94,2-.81,1.46-1.21,2.2-.71,1.31-1.1,2-.93,1.45-1.4,2.17-.81,1.3-1.26,1.94-1.06,1.43-1.59,2.14-.93,1.28-1.44,1.91-1.18,1.41-1.79,2.12-1,1.24-1.58,1.85-1.34,1.4-2,2.1-1.12,1.21-1.73,1.8-1.48,1.39-2.23,2.08-1.21,1.16-1.85,1.72c-.81.72-1.68,1.41-2.53,2.11-.64.53-1.25,1.07-1.92,1.6-.9.71-1.86,1.4-2.8,2.11-.67.5-1.31,1-2,1.49-1.12.8-2.31,1.58-3.48,2.36-.57.38-1.1.76-1.68,1.14-1.78,1.14-3.62,2.27-5.52,3.37-60.93,35.41-160.07,35.41-221.4,0Q55.67,262,53,260.29c-.6-.38-1.15-.78-1.73-1.17-1.18-.78-2.38-1.55-3.5-2.35-.65-.46-1.24-.92-1.86-1.38-1-.75-2.05-1.49-3-2.25-.67-.53-1.29-1.07-1.93-1.6-.86-.71-1.75-1.42-2.57-2.14-.65-.56-1.25-1.14-1.87-1.72-.77-.7-1.56-1.4-2.29-2.11s-1.13-1.17-1.69-1.76-1.43-1.44-2.1-2.16-1.05-1.24-1.59-1.86-1.25-1.42-1.83-2.15-1-1.27-1.45-1.91-1.11-1.44-1.62-2.16-.87-1.31-1.29-2-1-1.45-1.42-2.18-.75-1.33-1.13-2-.84-1.47-1.22-2.21-.64-1.35-1-2-.72-1.47-1-2.21-.53-1.38-.79-2.06-.59-1.49-.84-2.23-.41-1.38-.61-2.07-.47-1.5-.66-2.25-.3-1.39-.44-2.09-.34-1.5-.46-2.25-.19-1.4-.28-2.11-.21-1.49-.27-2.24c0-.21,0-.42,0-.64,0-.49,0-1-.06-1.49,0-.75-.08-1.49-.08-2.24,0-.07,0-.15,0-.23l0,8c0,.08,0,.15,0,.22C12.31,208.1,12.36,208.86,12.4,209.61Z"/><path class="cls-28" d="M12.42,201.56c0,.47,0,.94.07,1.42,0,.24,0,.47,0,.71.06.75.18,1.49.27,2.24s.16,1.41.28,2.11.3,1.5.46,2.25.27,1.39.44,2.09.43,1.5.66,2.25.38,1.38.61,2.07.56,1.49.84,2.23.5,1.37.79,2.06.68,1.48,1,2.21.61,1.36,1,2,.81,1.47,1.22,2.21.72,1.33,1.13,2,.94,1.45,1.42,2.18.83,1.31,1.29,2S25,235,25.54,235.73s.94,1.28,1.45,1.91,1.22,1.44,1.83,2.15,1,1.24,1.59,1.86,1.39,1.44,2.1,2.16,1.1,1.18,1.69,1.76,1.52,1.41,2.29,2.11c.62.58,1.22,1.16,1.87,1.72.82.72,1.71,1.43,2.57,2.14.64.53,1.26,1.07,1.93,1.6,1,.76,2,1.5,3,2.25.62.46,1.21.92,1.86,1.38,1.12.8,2.32,1.57,3.5,2.35.58.39,1.13.79,1.73,1.17q2.7,1.72,5.59,3.39c61.33,35.41,160.47,35.41,221.4,0,1.9-1.1,3.74-2.23,5.52-3.37.58-.38,1.11-.76,1.68-1.14,1.17-.78,2.36-1.56,3.48-2.36.69-.49,1.33-1,2-1.49.94-.71,1.9-1.4,2.8-2.11.67-.53,1.28-1.07,1.92-1.6.85-.7,1.72-1.39,2.53-2.11.64-.56,1.23-1.15,1.85-1.72s1.52-1.38,2.23-2.08,1.15-1.2,1.73-1.8,1.37-1.39,2-2.1,1.05-1.23,1.58-1.85,1.23-1.41,1.79-2.12,1-1.27,1.44-1.91,1.09-1.42,1.59-2.14.84-1.29,1.26-1.94,1-1.44,1.4-2.17.73-1.31,1.1-2,.83-1.47,1.21-2.2.62-1.34.94-2,.7-1.46,1-2.19.52-1.38.78-2.06.57-1.46.82-2.2.4-1.38.6-2.07.45-1.48.64-2.22.29-1.38.43-2.08.33-1.48.45-2.23.18-1.4.26-2.1.2-1.46.26-2.19a.08.08,0,0,1,0,0c.05-.7.06-1.4.09-2.1,1-24-14.38-48.25-46.13-66.58C217.88,100,118.75,100,57.81,135.42c-30.36,17.65-45.51,40.77-45.47,63.9C12.34,200.07,12.39,200.81,12.42,201.56Z"/><path class="cls-29" d="M.29,210.92c.06.8.19,1.61.29,2.41s.17,1.53.3,2.29.33,1.61.49,2.41.3,1.51.49,2.27.46,1.59.7,2.4.41,1.5.66,2.25.6,1.6.91,2.4.54,1.48.85,2.22.74,1.61,1.12,2.41.65,1.45,1,2.16.89,1.6,1.33,2.4.78,1.42,1.2,2.13,1,1.58,1.55,2.36.89,1.41,1.38,2.1,1.16,1.57,1.76,2.35,1,1.37,1.55,2,1.32,1.56,2,2.34,1.11,1.33,1.7,2,1.49,1.55,2.24,2.32,1.21,1.28,1.85,1.91,1.62,1.51,2.44,2.26,1.33,1.25,2,1.87c.88.77,1.82,1.51,2.73,2.26.71.59,1.39,1.19,2.14,1.77,1,.78,2.07,1.55,3.11,2.33.72.52,1.4,1.06,2.14,1.58,1.21.86,2.5,1.7,3.77,2.54.63.42,1.22.85,1.86,1.25q2.93,1.88,6,3.66c66.14,38.18,173,38.18,238.69,0,2.05-1.18,4-2.4,5.95-3.63.63-.4,1.2-.82,1.82-1.23,1.26-.84,2.54-1.67,3.74-2.54.7-.49,1.35-1,2-1.51,1.07-.79,2.15-1.57,3.16-2.37.71-.57,1.37-1.15,2.06-1.72.92-.76,1.86-1.51,2.73-2.28.69-.61,1.32-1.23,2-1.84.82-.75,1.66-1.5,2.43-2.26s1.23-1.28,1.85-1.92c.41-.43.83-.86,1.23-1.29s.65-.66.95-1c.59-.66,1.13-1.33,1.69-2s1.33-1.52,1.95-2.29,1-1.37,1.53-2,1.18-1.54,1.73-2.32.9-1.38,1.35-2.08,1-1.56,1.51-2.35.8-1.42,1.2-2.13.9-1.57,1.3-2.36.67-1.44,1-2.17.76-1.58,1.09-2.37.56-1.46.83-2.2.63-1.59.89-2.38.43-1.48.65-2.22.49-1.61.69-2.41.31-1.48.46-2.23.36-1.61.49-2.42.19-1.49.28-2.24.22-1.61.29-2.42.06-1.5.1-2.25c1.06-25.9-15.5-52-49.73-71.79-66.16-38.19-173-38.19-238.72,0-32.74,19-49.07,43.95-49,68.88,0,.81.06,1.62.09,2.42S.22,210.16.29,210.92Zm12-11.83c0,.08,0,.16,0,.23,0-23.13,15.11-46.25,45.47-63.9,60.94-35.41,160.07-35.41,221.43,0C311,153.76,326.35,178,325.37,202c0-.67.08-1.34.08-2l0,8c0,.66-.06,1.34-.09,2s0,1.41-.09,2.11-.17,1.49-.26,2.23-.15,1.4-.27,2.1-.29,1.49-.44,2.23-.27,1.39-.44,2.08-.42,1.48-.63,2.22-.38,1.38-.61,2.07-.54,1.46-.82,2.19-.48,1.38-.77,2.06-.67,1.47-1,2.2-.6,1.35-.93,2-.81,1.48-1.22,2.21-.7,1.31-1.09,2-.94,1.46-1.41,2.19-.81,1.28-1.26,1.92-1.07,1.44-1.61,2.17-.91,1.25-1.41,1.87-1.21,1.44-1.82,2.16-1,1.21-1.55,1.82-1.37,1.43-2.06,2.15-1.09,1.16-1.68,1.74-1.52,1.43-2.29,2.14c-.6.56-1.17,1.12-1.79,1.67-.84.73-1.74,1.45-2.62,2.18-.61.51-1.2,1-1.83,1.52-.92.73-1.9,1.44-2.87,2.16-.65.48-1.27,1-1.93,1.45-1.13.8-2.31,1.58-3.48,2.36-.57.37-1.1.76-1.68,1.13q-2.67,1.73-5.52,3.37c-60.94,35.42-160.07,35.42-221.41,0q-2.88-1.66-5.59-3.39c-.62-.4-1.21-.82-1.82-1.22-1.15-.76-2.31-1.52-3.41-2.3-.69-.49-1.33-1-2-1.49-1-.71-2-1.41-2.87-2.14-.68-.53-1.3-1.08-2-1.62-.86-.7-1.74-1.4-2.56-2.12-.64-.56-1.24-1.14-1.86-1.71s-1.56-1.4-2.29-2.11S33,252.4,32.44,251.8s-1.4-1.4-2-2.12-1.07-1.24-1.6-1.87-1.25-1.41-1.83-2.13-.95-1.27-1.43-1.9-1.12-1.45-1.64-2.18-.85-1.3-1.28-1.95-1-1.45-1.43-2.19-.74-1.32-1.11-2-.86-1.47-1.24-2.22-.62-1.32-.93-2-.73-1.5-1.06-2.25-.51-1.36-.77-2-.6-1.5-.85-2.26-.42-1.38-.62-2.07-.46-1.49-.65-2.24-.3-1.4-.45-2.09-.33-1.5-.46-2.25-.18-1.41-.27-2.11-.21-1.5-.28-2.25-.06-1.41-.09-2.11-.09-1.51-.09-2.26c0-.07,0-.14,0-.22Z"/><path class="cls-30" d="M12.42,201.56c0,.47,0,.94.07,1.42,0,.24,0,.47,0,.71.06.75.18,1.49.27,2.24s.16,1.41.28,2.11.3,1.5.46,2.25.27,1.39.44,2.09.43,1.5.66,2.25.38,1.38.61,2.07.56,1.49.84,2.23.5,1.37.79,2.06.68,1.48,1,2.21.61,1.36,1,2,.81,1.47,1.22,2.21.72,1.33,1.13,2,.94,1.45,1.42,2.18.83,1.31,1.29,2S25,235,25.54,235.73s.94,1.28,1.45,1.91,1.22,1.44,1.83,2.15,1,1.24,1.59,1.86,1.39,1.44,2.1,2.16,1.1,1.18,1.69,1.76,1.52,1.41,2.29,2.11c.62.58,1.22,1.16,1.87,1.72.82.72,1.71,1.43,2.57,2.14.64.53,1.26,1.07,1.93,1.6,1,.76,2,1.5,3,2.25.62.46,1.21.92,1.86,1.38,1.12.8,2.32,1.57,3.5,2.35.58.39,1.13.79,1.73,1.17q2.7,1.72,5.59,3.39c61.33,35.41,160.47,35.41,221.4,0,1.9-1.1,3.74-2.23,5.52-3.37.58-.38,1.11-.76,1.68-1.14,1.17-.78,2.36-1.56,3.48-2.36.69-.49,1.33-1,2-1.49.94-.71,1.9-1.4,2.8-2.11.67-.53,1.28-1.07,1.92-1.6.85-.7,1.72-1.39,2.53-2.11.64-.56,1.23-1.15,1.85-1.72s1.52-1.38,2.23-2.08,1.15-1.2,1.73-1.8,1.37-1.39,2-2.1,1.05-1.23,1.58-1.85,1.23-1.41,1.79-2.12,1-1.27,1.44-1.91,1.09-1.42,1.59-2.14.84-1.29,1.26-1.94,1-1.44,1.4-2.17.73-1.31,1.1-2,.83-1.47,1.21-2.2.62-1.34.94-2,.7-1.46,1-2.19.52-1.38.78-2.06.57-1.46.82-2.2.4-1.38.6-2.07.45-1.48.64-2.22.29-1.38.43-2.08.33-1.48.45-2.23.18-1.4.26-2.1.2-1.46.26-2.19a.08.08,0,0,1,0,0c.05-.7.06-1.4.09-2.1,1-24-14.38-48.25-46.13-66.58C217.88,100,118.75,100,57.81,135.42c-30.36,17.65-45.51,40.77-45.47,63.9C12.34,200.07,12.39,200.81,12.42,201.56Z"/><path class="cls-27" d="M337.57,209.13c0,.75,0,1.5-.1,2.25s-.19,1.61-.29,2.42-.16,1.5-.28,2.24-.32,1.62-.49,2.42-.28,1.49-.46,2.23-.46,1.61-.69,2.41-.41,1.48-.65,2.22-.59,1.59-.89,2.38-.52,1.47-.83,2.2-.72,1.58-1.09,2.37-.65,1.45-1,2.17-.86,1.57-1.3,2.36-.77,1.42-1.2,2.13-1,1.57-1.51,2.35-.87,1.39-1.35,2.08-1.15,1.55-1.73,2.32-1,1.37-1.53,2-1.3,1.53-1.95,2.29-1.1,1.33-1.69,2c-.31.34-.64.66-.95,1s-.82.85-1.23,1.28c-.62.64-1.2,1.28-1.85,1.92s-1.61,1.51-2.43,2.26c-.66.61-1.29,1.23-2,1.84-.87.77-1.81,1.52-2.73,2.28-.69.57-1.35,1.15-2.06,1.72-1,.8-2.09,1.58-3.16,2.37-.67.5-1.32,1-2,1.51-1.2.87-2.48,1.7-3.74,2.54-.62.41-1.19.83-1.82,1.23-1.92,1.23-3.9,2.45-5.95,3.63-65.71,38.18-172.55,38.18-238.69,0q-3.11-1.79-6-3.66c-.64-.4-1.23-.83-1.86-1.25-1.27-.84-2.56-1.68-3.77-2.54-.74-.52-1.42-1.06-2.14-1.58-1-.78-2.12-1.55-3.11-2.33-.75-.58-1.43-1.18-2.14-1.77C30,261.71,29,261,28.14,260.2c-.7-.62-1.35-1.25-2-1.87s-1.66-1.5-2.44-2.26-1.23-1.27-1.85-1.91-1.53-1.54-2.24-2.32-1.13-1.32-1.7-2-1.37-1.55-2-2.34-1-1.36-1.55-2-1.21-1.56-1.76-2.35-.92-1.39-1.38-2.1-1.06-1.56-1.55-2.36-.79-1.42-1.2-2.13-.92-1.59-1.33-2.4-.68-1.44-1-2.16-.78-1.6-1.12-2.41-.57-1.48-.85-2.22-.64-1.6-.91-2.4-.45-1.5-.66-2.25-.5-1.6-.7-2.4-.33-1.52-.49-2.27S1,216.42.88,215.62s-.2-1.53-.3-2.29-.23-1.61-.29-2.41-.07-1.53-.11-2.29S.09,207,.09,206.21c0-.08,0-.16,0-.24l0,11.09C0,242.24,16.6,267.46,49.89,286.68c66.14,38.19,173,38.18,238.69,0,32.64-19,49-43.79,49.05-68.64l0-11.09C337.66,207.67,337.6,208.4,337.57,209.13Z"/><path class="cls-31" d="M12.35,209.61c0,.7,0,1.41.1,2.11s.18,1.5.27,2.25.16,1.41.28,2.11.3,1.5.46,2.25.27,1.39.45,2.09.43,1.49.65,2.24.38,1.38.61,2.07.56,1.51.85,2.26.49,1.35.78,2,.69,1.5,1.05,2.25.6,1.33.94,2,.82,1.48,1.23,2.22.72,1.33,1.12,2,.94,1.46,1.42,2.19.83,1.31,1.28,1.95,1.09,1.45,1.64,2.18.93,1.27,1.43,1.9,1.22,1.42,1.83,2.13,1,1.26,1.61,1.87,1.35,1.42,2,2.12,1.14,1.21,1.74,1.81,1.53,1.41,2.29,2.11,1.22,1.15,1.86,1.71c.82.72,1.7,1.42,2.56,2.12.65.54,1.28,1.09,2,1.62.91.73,1.9,1.43,2.86,2.14.68.5,1.31,1,2,1.49,1.09.78,2.26,1.54,3.4,2.3.62.4,1.2.82,1.82,1.22,1.81,1.15,3.67,2.28,5.6,3.39,61.33,35.42,160.47,35.42,221.4,0q2.85-1.65,5.52-3.37c.58-.37,1.11-.76,1.68-1.13,1.17-.78,2.36-1.56,3.48-2.36.67-.48,1.29-1,1.94-1.45,1-.72,1.94-1.43,2.86-2.16.64-.5,1.22-1,1.83-1.52.88-.73,1.78-1.45,2.62-2.18.62-.55,1.19-1.11,1.79-1.67.77-.71,1.56-1.42,2.3-2.14.58-.58,1.12-1.16,1.68-1.74s1.39-1.43,2.05-2.15,1-1.22,1.55-1.82,1.25-1.43,1.83-2.16.94-1.25,1.4-1.87,1.11-1.44,1.62-2.17.83-1.28,1.25-1.92,1-1.46,1.41-2.19.73-1.31,1.09-2,.84-1.47,1.22-2.21.63-1.34.94-2,.7-1.46,1-2.2.52-1.37.78-2.06.57-1.46.81-2.19.41-1.38.61-2.07.45-1.48.64-2.22.29-1.39.43-2.08.33-1.48.45-2.23.17-1.4.26-2.1.2-1.49.26-2.23.07-1.41.1-2.11.08-1.34.09-2l0-8c0,.67-.06,1.34-.09,2s0,1.4-.09,2.1v.07c-.06.72-.18,1.44-.27,2.16s-.14,1.4-.26,2.1-.29,1.49-.45,2.23-.26,1.39-.43,2.08-.42,1.48-.64,2.22-.37,1.38-.6,2.07-.54,1.46-.82,2.2-.49,1.37-.78,2.06-.67,1.46-1,2.19-.6,1.35-.94,2-.81,1.46-1.21,2.2-.71,1.31-1.1,2-.93,1.45-1.4,2.17-.81,1.3-1.26,1.94-1.06,1.43-1.59,2.14-.93,1.28-1.43,1.91-1.2,1.41-1.8,2.12-1,1.24-1.58,1.85-1.33,1.4-2,2.1-1.12,1.21-1.72,1.8-1.49,1.39-2.24,2.08-1.21,1.16-1.85,1.72c-.81.72-1.68,1.41-2.52,2.11-.65.53-1.26,1.07-1.93,1.6-.9.71-1.86,1.4-2.8,2.11-.67.5-1.31,1-2,1.49-1.12.8-2.3,1.58-3.48,2.36-.57.38-1.1.76-1.68,1.14-1.78,1.14-3.61,2.27-5.51,3.37-60.94,35.41-160.08,35.41-221.41,0-1.92-1.11-3.79-2.24-5.59-3.39-.59-.38-1.14-.78-1.73-1.17-1.18-.78-2.37-1.55-3.5-2.35-.64-.46-1.23-.92-1.86-1.38-1-.75-2-1.49-3-2.25-.68-.53-1.29-1.07-1.94-1.6-.86-.71-1.75-1.42-2.57-2.14-.65-.56-1.25-1.14-1.87-1.72s-1.55-1.4-2.28-2.11-1.14-1.17-1.71-1.76-1.42-1.44-2.08-2.16-1.06-1.24-1.59-1.86-1.26-1.42-1.84-2.15-1-1.27-1.45-1.91-1.11-1.44-1.62-2.16-.86-1.31-1.29-2-1-1.45-1.42-2.18-.75-1.33-1.12-2-.85-1.47-1.23-2.21-.64-1.35-1-2-.72-1.47-1-2.21-.53-1.38-.79-2.06-.58-1.49-.84-2.23-.41-1.38-.61-2.07-.46-1.5-.65-2.25-.3-1.39-.45-2.09-.34-1.5-.46-2.25-.19-1.4-.28-2.11-.2-1.49-.27-2.24c0-.21,0-.42,0-.64,0-.49,0-1-.06-1.49,0-.75-.08-1.49-.08-2.24,0-.07,0-.15,0-.23l0,8c0,.08,0,.15,0,.22C12.26,208.1,12.32,208.86,12.35,209.61Z"/><path class="cls-32" d="M337.52,209.13c0,.75,0,1.5-.1,2.25s-.19,1.61-.29,2.42-.16,1.5-.28,2.24-.32,1.62-.48,2.42-.29,1.49-.47,2.23-.46,1.61-.69,2.41-.4,1.48-.65,2.22-.58,1.59-.89,2.38-.52,1.47-.83,2.2-.72,1.58-1.09,2.37-.65,1.45-1,2.17-.86,1.57-1.3,2.36-.76,1.42-1.19,2.13-1,1.57-1.52,2.35-.87,1.39-1.35,2.08-1.15,1.55-1.73,2.32-1,1.37-1.53,2-1.29,1.53-1.94,2.29-1.11,1.33-1.7,2c-.3.34-.64.66-1,1s-.82.85-1.23,1.28c-.62.64-1.2,1.28-1.85,1.92s-1.61,1.51-2.42,2.26-1.3,1.23-2,1.84c-.88.77-1.82,1.52-2.74,2.28-.69.57-1.34,1.15-2.06,1.72-1,.8-2.09,1.58-3.15,2.37-.68.5-1.33,1-2,1.51-1.21.87-2.49,1.7-3.75,2.54-.61.41-1.19.83-1.82,1.23-1.91,1.23-3.89,2.45-5.94,3.63-65.71,38.18-172.55,38.18-238.69,0q-3.12-1.79-6-3.66c-.65-.4-1.24-.83-1.87-1.25-1.27-.84-2.55-1.68-3.77-2.54-.74-.52-1.42-1.06-2.14-1.58C35,265.78,34,265,33,264.23c-.74-.58-1.42-1.18-2.14-1.77-.91-.75-1.85-1.49-2.72-2.26-.71-.62-1.36-1.25-2-1.87s-1.66-1.5-2.44-2.26-1.23-1.27-1.85-1.91-1.52-1.54-2.24-2.32-1.13-1.32-1.7-2-1.36-1.55-2-2.34-1-1.36-1.55-2-1.21-1.56-1.76-2.35-.92-1.39-1.38-2.1-1.06-1.56-1.54-2.36-.8-1.42-1.2-2.13-.92-1.59-1.34-2.4-.68-1.44-1-2.16-.78-1.6-1.12-2.41-.57-1.48-.85-2.22-.63-1.6-.9-2.4-.45-1.5-.67-2.25-.5-1.6-.7-2.4-.32-1.52-.48-2.27-.36-1.61-.5-2.41-.2-1.53-.29-2.29-.23-1.61-.3-2.41-.07-1.53-.1-2.29S0,207,0,206.21c0-.08,0-.16,0-.24l0,11.09c-.07,25.18,16.55,50.4,49.84,69.62,66.15,38.19,173,38.18,238.7,0,32.63-19,49-43.79,49-68.64l0-11.09C337.61,207.67,337.55,208.4,337.52,209.13Z"/><polygon class="cls-33" points="257.99 0 60.89 113.8 60.89 247.44 257.99 133.64 257.99 0"/><polygon class="cls-34" points="261.53 1.9 64.43 115.7 64.43 249.34 261.53 135.54 261.53 1.9"/><polygon class="cls-35" points="261.53 1.9 257.99 0 60.89 113.8 64.43 115.7 261.53 1.9"/><polygon class="cls-33" points="64.43 249.47 60.89 247.44 60.89 113.8 64.43 115.7 64.43 249.47"/><path class="cls-36" d="M290.43,171.36h-.69C287.27,158,278,145.65,261.47,136.13l-.38-.21L71.42,245.43l.16-1.84H64.43v5.88l.36.22c44.62,25.76,125,21.24,179.26-10.06,30.31-17.5,46.11-39.73,46.36-60.43h0Z"/><path class="cls-37" d="M64.43,243.59l.36.22c44.62,25.76,125,21.25,179.26-10.06s62-77.74,17.42-103.5l-.38-.2Z"/><path class="cls-36" d="M278.54,171.48v-6h-.59c-2.11-11.7-10.12-22.43-24.38-30.66-.12-.08-.26-.14-.38-.21L82.49,233.1l-10.14-.65V239l.36.22c39.57,22.85,112.34,18,162.2-10.77,28.84-16.64,43.76-37.71,43.59-56.94Z"/><path class="cls-38" d="M72.35,232.45l.36.22c39.57,22.85,112.34,18,162.2-10.77s58.23-70.8,18.65-93.65l-.38-.2Z"/><path class="cls-36" d="M266.72,164.14c0-.11,0-.22,0-.33V157.3l-.76.23c-2.14-9.47-8.8-18.06-20.31-24.71l-.39-.2-154,88.9h-11v6.36l.36.22c34.59,20,99.58,14.84,145.15-11.47,26.52-15.31,40.59-34.41,40.93-51.64h0Z"/><path class="cls-39" d="M80.26,221.52l.36.22c34.59,20,99.58,14.84,145.15-11.47s54.47-63.83,19.88-83.8c-.13-.08-.26-.14-.39-.21Z"/><polygon class="cls-40" points="221.51 42.57 105.01 109.83 105.01 188.82 221.51 121.56 221.51 42.57"/><polygon class="cls-41" points="191.69 161.91 179.98 104.18 209.05 104.18 197.43 162.12 191.69 161.91"/><path class="cls-40" d="M194.46,160.16c-2.14-.07-3.87.92-3.87,2.06s1.73,2.06,3.87,2.06,3.88-.92,3.88-2.06S197.33,160.26,194.46,160.16Z"/><path class="cls-42" d="M197.33,161.78a2.93,2.93,0,0,0-5.74-.21,1.47,1.47,0,0,0,0,.21c0,.84,1.29,1.53,2.87,1.53s2.86-.68,2.87-1.52Z"/><path class="cls-43" d="M194.41,160a1,1,0,0,1-.47,1.31A.86.86,0,1,1,193,160,1,1,0,0,1,194.41,160Z"/><polygon class="cls-44" points="93.39 217.89 81.68 160.16 110.75 160.16 99.13 218.1 93.39 217.89"/><polygon class="cls-45" points="142.58 189.42 130.87 131.69 159.94 131.69 148.32 189.63 142.58 189.42"/><polygon class="cls-46" points="240.78 133.94 229.07 76.21 258.13 76.21 246.52 134.15 240.78 133.94"/><path class="cls-40" d="M96.26,216.48c-2.14-.07-3.87.93-3.87,2.06s1.73,2.07,3.87,2.07,3.88-.93,3.88-2.07S99.13,216.58,96.26,216.48Z"/><path class="cls-42" d="M99.13,218.1a2.93,2.93,0,0,0-5.74-.21,1.47,1.47,0,0,0,0,.21c0,.84,1.29,1.53,2.87,1.53s2.86-.68,2.87-1.52Z"/><path class="cls-43" d="M96.21,216.36a1.17,1.17,0,1,1-1.39-.06A1,1,0,0,1,96.21,216.36Z"/><path class="cls-40" d="M145.41,188.45c-2.14-.07-3.88.92-3.88,2.06s1.74,2.06,3.88,2.06,3.87-.92,3.87-2.06S148.28,188.55,145.41,188.45Z"/><path class="cls-42" d="M148.28,190.07a2.93,2.93,0,0,0-5.74-.21,1.47,1.47,0,0,0,0,.21c0,.84,1.28,1.53,2.87,1.53s2.86-.68,2.86-1.52Z"/><path class="cls-43" d="M145.35,188.32a1,1,0,0,1-.47,1.31.86.86,0,1,1-.92-1.36A1,1,0,0,1,145.35,188.32Z"/><path class="cls-40" d="M243.55,132c-2.14-.07-3.88.92-3.88,2.06s1.74,2.06,3.88,2.06,3.87-.92,3.87-2.06S246.42,132.1,243.55,132Z"/><path class="cls-42" d="M246.42,133.62a2.93,2.93,0,0,0-5.74-.21,1.47,1.47,0,0,0,0,.21c0,.84,1.28,1.53,2.87,1.53s2.86-.68,2.87-1.52Z"/><path class="cls-43" d="M243.49,131.87a1.17,1.17,0,1,1-1.38-.05A1,1,0,0,1,243.49,131.87Z"/><polygon class="cls-35" points="217.19 201.66 227.27 195.84 219.78 191.52 209.7 197.34 217.19 201.66"/><polygon class="cls-34" points="227.27 195.84 228.72 197.02 217.18 203.68 217.19 201.66 227.27 195.84"/><polygon class="cls-33" points="209.7 197.34 208.59 198.73 217.18 203.68 217.19 201.66 209.7 197.34"/><polygon class="cls-36" points="225.57 177.14 224.03 196.12 217.67 199.79 217.67 181.4 225.57 177.14"/><polygon class="cls-47" points="217.67 182.1 217.67 199.79 212.94 197.06 211.51 178.55 217.67 182.1"/><polygon class="cls-35" points="217.18 182.95 228.72 176.28 220.14 171.33 208.59 178 217.18 182.95"/><polygon class="cls-34" points="228.72 176.28 228.72 178.14 217.18 184.81 217.18 182.95 228.72 176.28"/><polygon class="cls-33" points="208.59 178 208.59 179.85 217.18 184.81 217.18 182.95 208.59 178"/><polygon class="cls-35" points="220.14 168.09 219.77 168.31 219.77 170.06 210.78 175.25 209.08 174.48 208.59 174.76 217.18 178.62 228.72 171.95 220.14 168.09"/><polygon class="cls-33" points="208.59 174.76 208.59 177.38 217.18 182.33 217.18 178.62 208.59 174.76"/><polygon class="cls-34" points="228.72 171.95 228.72 175.66 217.18 182.33 217.18 178.62 228.72 171.95"/><polygon class="cls-43" points="228.18 172.9 228.18 175.45 217.78 181.45 217.78 178.9 228.18 172.9"/><polygon class="cls-34" points="225.81 173.12 220.14 169.84 210.78 175.25 217.16 178.11 225.81 173.12"/><polygon class="cls-33" points="219.77 168.31 219.77 170.06 225.68 173.19 227.85 171.94 219.77 168.31"/><path class="cls-48" d="M221.22,172.78c.9,0,1.63.44,1.63,1s-.73,1-1.63,1-1.63-.44-1.63-1S220.32,172.78,221.22,172.78Z"/><path class="cls-49" d="M221.22,172.79c.71,0,1.28.35,1.28.77s-.57.77-1.28.77-1.28-.34-1.28-.77S220.51,172.79,221.22,172.79Z"/><path class="cls-48" d="M221.5,173.54v.22c0,.13.17.23.38.23s.38-.1.38-.23v-.22Z"/><path class="cls-50" d="M221.88,173.31c.21,0,.38.1.38.23s-.17.22-.38.22-.38-.1-.38-.22S221.67,173.31,221.88,173.31Z"/><path class="cls-49" d="M217.76,164c-.16.24-.6.22-1,0s-.58-.67-.42-.91.61-.21,1,.05S217.92,163.78,217.76,164Z"/><path class="cls-50" d="M217.81,163.9l.05-.07-.1-.09c-.07-.07-.21,0-.31.07a.22.22,0,0,0,0,.31l.11.11.07-.09a.26.26,0,0,0,.13-.08A.3.3,0,0,0,217.81,163.9Z"/><path class="cls-49" d="M217.86,163.83a.23.23,0,0,1,0,.32.23.23,0,0,1-.31.06.22.22,0,0,1,0-.31C217.65,163.79,217.79,163.76,217.86,163.83Z"/><path class="cls-48" d="M221.35,168.74a6,6,0,0,0-2-3.46c-.58-.51-1.16-1-1.55-1.32,0,0-.09,0-.13,0a.1.1,0,0,0,0,.13c.4.33,1,.81,1.55,1.32a5.74,5.74,0,0,1,2,3.36,27,27,0,0,1,.64,4.72s.05.06.11.06.1,0,.1-.06A25.54,25.54,0,0,0,221.35,168.74Z"/><polygon class="cls-40" points="221.22 175.77 217.53 177.9 212.54 175.02 216.22 172.89 221.22 175.77"/><polygon class="cls-47" points="380.18 138.22 376.26 140.5 376.26 142.16 380.18 139.88 380.18 138.22"/><polygon class="cls-51" points="376.26 142.16 358.36 131.81 358.36 130.16 376.26 140.5 376.26 142.16"/><polygon class="cls-37" points="380.18 138.22 362.28 127.87 358.36 130.16 376.26 140.5 380.18 138.22"/><polygon class="cls-47" points="359.5 150.44 355.58 152.72 355.58 154.37 359.5 152.1 359.5 150.44"/><polygon class="cls-51" points="355.58 154.37 337.68 144.03 337.68 142.38 355.58 152.72 355.58 154.37"/><polygon class="cls-37" points="359.5 150.44 341.6 140.09 337.68 142.38 355.58 152.72 359.5 150.44"/><polygon class="cls-37" points="372.05 45.28 367.31 48.02 367.31 38.42 372.05 35.66 372.05 45.28"/><polygon class="cls-47" points="366.04 37.69 367.31 38.42 367.31 48.02 366.04 47.28 366.04 37.69"/><polygon class="cls-38" points="366.04 37.69 367.31 38.42 372.05 35.66 370.77 34.93 366.04 37.69"/><polygon class="cls-37" points="350.96 57.56 346.22 60.3 346.22 50.7 350.96 47.94 350.96 57.56"/><polygon class="cls-47" points="344.95 49.97 346.22 50.7 346.22 60.3 344.95 59.56 344.95 49.97"/><polygon class="cls-38" points="344.95 49.97 346.22 50.7 350.96 47.94 349.68 47.21 344.95 49.97"/><polygon class="cls-34" points="341.04 145.48 344.08 147.23 344.08 152.05 341.04 150.3 341.04 145.48"/><polygon class="cls-35" points="344.08 152.05 379.09 131.83 379.09 127.02 344.08 147.23 344.08 152.05"/><polygon class="cls-52" points="341.04 145.48 376.06 125.26 379.09 127.02 344.08 147.23 341.04 145.48"/><path class="cls-53" d="M367.49,51.92a41.72,41.72,0,0,0-.44-6.09l10.52-6.07v51C364.81,100.64,355,121,355,138.67c0,.16,0,.32,0,.49l-12.46,7.19V101.52C356.46,92.44,367.49,70.72,367.49,51.92Z"/><path class="cls-54" d="M377.57,90.76v35.38l-22.55,13c0-.17,0-.33,0-.49C355,121,364.81,100.64,377.57,90.76Z"/><path class="cls-54" d="M367.05,45.83a41.72,41.72,0,0,1,.44,6.09c0,18.8-11,40.52-24.93,49.6V60Z"/><polygon class="cls-34" points="341.04 56.26 344.08 58.01 344.08 62.82 341.04 61.07 341.04 56.26"/><polygon class="cls-35" points="344.08 62.82 379.09 42.61 379.09 37.79 344.08 58.01 344.08 62.82"/><polygon class="cls-52" points="341.04 56.26 376.06 36.03 379.09 37.79 344.08 58.01 341.04 56.26"/><polygon class="cls-40" points="353.64 137.03 367.5 129.03 367.5 127.12 353.64 135.13 353.64 137.03"/><polygon class="cls-40" points="353.64 62.95 367.5 54.94 367.5 53.04 353.64 61.04 353.64 62.95"/><path class="cls-40" d="M346.37,70.69l1-.58.3,2.55c.05.58.12,1.16.17,1.75l0,0c.09-.67.17-1.33.26-2l.47-3,.84-.49.47,2.46c.09.54.18,1.11.26,1.69h0q.09-1,.18-2l.3-2.91.95-.54-.78,6.28-1.24.72-.43-2.4c-.08-.41-.13-.85-.18-1.25h0c-.06.46-.11,1-.18,1.46l-.41,2.88-1.23.71Z"/><path class="cls-40" d="M352.25,67.3,355,65.72v1.11l-1.75,1V69l1.49-.86v1.1l-1.49.86v1.35l1.82-1.06v1.11l-2.81,1.62Z"/><path class="cls-40" d="M355.93,65.18l1-.58v4.73l1.73-1v1.11L355.93,71Z"/><path class="cls-40" d="M359,66.38A5,5,0,0,1,361,62.12a1.1,1.1,0,0,1,1.31,0l-.52,1.14a.67.67,0,0,0-.77,0,2.94,2.94,0,0,0-1.08,2.5c0,1.2.42,1.66,1.06,1.28a2.4,2.4,0,0,0,.86-1l.52.52A3.62,3.62,0,0,1,361,68.19C359.88,68.83,359,68.34,359,66.38Z"/><path class="cls-40" d="M362.62,64.21a4.68,4.68,0,0,1,2-4.15c1.19-.68,2-.05,2,1.85a4.76,4.76,0,0,1-2,4.2C363.42,66.79,362.62,66.11,362.62,64.21Zm3-1.71c0-1.17-.38-1.65-1-1.3a2.76,2.76,0,0,0-1,2.42c0,1.17.38,1.7,1,1.35A2.83,2.83,0,0,0,365.58,62.5Z"/><path class="cls-40" d="M367.42,58.54l1.08-.62.7,2.19c.09.29.17.62.26.92h0c.08-.41.16-.83.25-1.22l.69-3,1.07-.62V62l-.9.52V60.4c0-.57.08-1.47.13-2.06l0,0L370.35,60l-.63,2.59-.54.31L368.55,61l-.35-1.18h0c0,.54.12,1.35.12,1.92v2.14l-.88.51Z"/><path class="cls-40" d="M372.53,55.59,375.27,54v1.11l-1.75,1V57.3l1.49-.86v1.1l-1.49.86v1.35l1.82-1.06V59.8l-2.81,1.63Z"/><path class="cls-40" d="M356,81.24l1.24-.74s0,0,0,0a4.67,4.67,0,0,1-1.07.9c-.71.54-1.1.83-1.15.89a12.36,12.36,0,0,0-.61,1.51,6.43,6.43,0,0,0-.44,1.67c0,.29.15.34.44.18a2.67,2.67,0,0,0,.54-.49,5.49,5.49,0,0,0,.52-.62,13.25,13.25,0,0,0,1-1.78.72.72,0,0,1,.17-.25s0,0,0,0a1.36,1.36,0,0,1-.12.35,10.15,10.15,0,0,1-1,1.76,4.52,4.52,0,0,1-1.29,1.3.53.53,0,0,1-.43.09c-.11,0-.17-.21-.17-.53a6,6,0,0,1,.31-1.47c.21-.66.37-1.16.48-1.49a1.44,1.44,0,0,1-.21.15c-.17.1-.25.06-.25-.12a.57.57,0,0,1,.2-.39l.08-.06.5-.29c.11-.23.22-.51.36-.81a2.1,2.1,0,0,1,.32-.6.31.31,0,0,1,.22,0,.14.14,0,0,1,.13.15,5,5,0,0,1-.42,1Z"/><path class="cls-40" d="M358.55,81A5.74,5.74,0,0,1,358,82.7a4.2,4.2,0,0,1-1.16,1.78l-.14.08a.22.22,0,0,1-.35-.1.77.77,0,0,1-.11-.42,6.92,6.92,0,0,1,.76-2.37,4.79,4.79,0,0,1,1.21-2c.3-.17.44,0,.44.36a2.73,2.73,0,0,1,0,.44s.06,0,.16-.06a2,2,0,0,0,.48-.49,2.82,2.82,0,0,1-.68,1S358.55,81,358.55,81Zm-.56-.27a3.46,3.46,0,0,0-.83,1.4,5.33,5.33,0,0,0-.54,1.66c0,.29.07.4.2.32a3.52,3.52,0,0,0,.94-1.44,5.16,5.16,0,0,0,.57-1.61C358.24,81.06,358.12,81,358,80.75Z"/><path class="cls-40" d="M362.67,77.38l1.24-.74s0,0,0,0a5,5,0,0,1-1.07.9c-.72.54-1.1.83-1.16.89A14,14,0,0,0,361.1,80a6.09,6.09,0,0,0-.43,1.67c0,.28.14.34.43.17a2.62,2.62,0,0,0,.55-.49,6.48,6.48,0,0,0,.51-.62,12.57,12.57,0,0,0,1-1.78c.08-.15.13-.24.16-.25s0,0,0,0a1.43,1.43,0,0,1-.13.35,10.26,10.26,0,0,1-1,1.77A4.71,4.71,0,0,1,361,82.13a.56.56,0,0,1-.44.09c-.11,0-.17-.21-.17-.52a6,6,0,0,1,.31-1.48c.21-.66.37-1.16.48-1.49a1.05,1.05,0,0,1-.21.15c-.17.1-.25.06-.25-.12a.55.55,0,0,1,.21-.39l.08-.06.49-.29q.16-.34.36-.81a2.1,2.1,0,0,1,.32-.6.31.31,0,0,1,.22,0c.09,0,.13,0,.13.14a5.32,5.32,0,0,1-.41,1Z"/><path class="cls-40" d="M365,79.67c-.34.2-.51,0-.51-.5a3.58,3.58,0,0,1,.24-1.13c.16-.45.35-1,.58-1.61a16,16,0,0,0-2,3.32,7,7,0,0,1-.58,1.34c-.17.09-.25.08-.25,0a1.76,1.76,0,0,1,.1-.43c.56-1.65,1-2.86,1.27-3.64a13.42,13.42,0,0,1,1.44-3.21l0,0c.07,0,.13,0,.15.15a15.75,15.75,0,0,1-.89,2.26,21.4,21.4,0,0,0-1,2.59l1.11-1.68a6.53,6.53,0,0,1,1.13-1.45c.19-.1.28-.06.28.13a.15.15,0,0,1,0,.07s-.2.49-.59,1.43a6.3,6.3,0,0,0-.6,1.91q0,.27.15.18A6.66,6.66,0,0,0,366.44,77c.05-.1.09-.16.12-.17s0,0,0,0a8,8,0,0,1-.85,1.73A3.75,3.75,0,0,1,365,79.67Z"/><path class="cls-40" d="M366.66,78.92a.47.47,0,0,1-.17.07c-.37.07-.55-.1-.55-.51a5.73,5.73,0,0,1,.75-2.3,4.56,4.56,0,0,1,1.36-1.84.32.32,0,0,1,.33,0c.08,0,.12.14.12.28a3.07,3.07,0,0,1-.73,1.64,4.63,4.63,0,0,1-1.18,1.27l-.12.05a2.21,2.21,0,0,0-.13.73c0,.4.14.51.43.35a4.1,4.1,0,0,0,1.1-1.41,15.73,15.73,0,0,0,.9-1.71.56.56,0,0,1,.13-.22s.06,0,.06,0a.93.93,0,0,1-.07.24,13.59,13.59,0,0,1-1.12,2.09A4.1,4.1,0,0,1,366.66,78.92Zm1.63-4.24c0-.1-.08-.1-.22,0a2.62,2.62,0,0,0-.63.81,10.54,10.54,0,0,0-.84,1.74.3.3,0,0,0,.11,0,3.48,3.48,0,0,0,.87-1,4,4,0,0,0,.69-1.41A.65.65,0,0,0,368.29,74.68Z"/><path class="cls-48" d="M22.11,334.15h.6c1.52-2.54,5.94-4.39,11.23-4.39s9.7,1.85,11.22,4.39h.61v1.9c0,3.47-5.3,6.29-11.83,6.29s-11.83-2.82-11.83-6.29v-1.9Z"/><path class="cls-34" d="M33.94,327.86c6.53,0,11.83,2.82,11.83,6.29s-5.3,6.3-11.83,6.3-11.83-2.82-11.83-6.3S27.4,327.86,33.94,327.86Z"/><ellipse class="cls-40" cx="33.94" cy="333.86" rx="9.75" ry="5.19"/><path class="cls-55" d="M30.91,331.76v1.6c0,.89,1.36,1.61,3,1.61s3-.72,3-1.61v-1.6Z"/><path class="cls-37" d="M33.94,330.15c-1.67,0-3,.72-3,1.61s1.36,1.6,3,1.6,3-.72,3-1.6S35.61,330.15,33.94,330.15Z"/><path class="cls-48" d="M32.83,224.93V331.42c0,.33.5.59,1.11.59s1.1-.26,1.1-.59V224.93Z"/><path class="cls-34" d="M33.94,224.42c-.61,0-1.11.27-1.11.59s.5.59,1.11.59,1.1-.27,1.1-.59S34.55,224.42,33.94,224.42Z"/><polygon class="cls-53" points="23.39 325.22 45.71 312.34 45.71 227.68 23.39 240.56 23.39 325.22"/><path class="cls-37" d="M47.78,227.12a1.5,1.5,0,0,0-.63-1.2.4.4,0,0,0-.42,0h0L21.54,240.39l.81,1.74,25.23-14.51h0A.57.57,0,0,0,47.78,227.12Z"/><path class="cls-55" d="M22.57,241.62c0,.47-.28.68-.63.48a1.52,1.52,0,0,1-.62-1.2c0-.46.28-.68.62-.48A1.5,1.5,0,0,1,22.57,241.62Z"/><path class="cls-37" d="M47.78,312a1.5,1.5,0,0,0-.63-1.2.38.38,0,0,0-.42,0h0L21.54,325.27l.81,1.74,25.23-14.52h0A.57.57,0,0,0,47.78,312Z"/><path class="cls-55" d="M22.57,326.5c0,.46-.28.68-.63.48a1.52,1.52,0,0,1-.62-1.2c0-.47.28-.68.62-.48A1.5,1.5,0,0,1,22.57,326.5Z"/><path class="cls-54" d="M45.77,260a68.62,68.62,0,0,0-8.46,16.26c-2.36,6.39-3.17,12.46-5.49,16.46a23.41,23.41,0,0,1-8.43,8.8v5.22s7.71-2.53,11.84-13.16c2.17-5.58,5-15.4,7.14-20a24.54,24.54,0,0,1,3.4-5.73Z"/><path class="cls-54" d="M45.77,279.83s-3.7,3.43-6.44,12.86-2.83,24-2.83,24l9.21-5.3Z"/><path class="cls-54" d="M23.39,257.58s4.77-1.53,9.44-10.15,5.06-14.19,5.06-14.19l-14.5,8.3Z"/><path class="cls-54" d="M23.39,268.63s8-12.4,12.68-17.14a43.08,43.08,0,0,1,9.64-7.28l.06,5.69S37.81,255.19,35,260s-11.65,16.26-11.65,16.26Z"/><path class="cls-56" d="M41.41,240.51a2.47,2.47,0,0,0-1.87,2.14,10.79,10.79,0,0,0,.22,2.14,6.94,6.94,0,0,0,.39,1.77c-.66-.16-1.45-.17-1.8.62-.14-.07-.75-.39-1-.34a.87.87,0,0,0-.31.15,1.3,1.3,0,0,0-.45.74,12.51,12.51,0,0,1-1.2-.8,28,28,0,0,1-.82-2.9,10.45,10.45,0,0,0-.75-2.49c-.48-.93-2-2.3-3-1.69s-.69,4.28,0,5.66A4.36,4.36,0,0,0,35.48,248a8.18,8.18,0,0,0,1.12.66,3.19,3.19,0,0,0,.25.84.91.91,0,0,0,.41.61,3,3,0,0,0,1,.06c.15,1.12,1.42,1.37,2.22,1.34,1-.05,1.35-1.18,1.45-2.3s-.18-2.09-1.13-2.44l-.39-.13c-.17-1.11-.45-3.46-.43-3.91a2.29,2.29,0,0,1,1.38-1.61C41.73,241,41.81,240.35,41.41,240.51Zm-10-.12,0-.06c1.76.56,2.33,1.91,2.77,4.13.1.55.21,1.13.36,1.68a9.76,9.76,0,0,1-.74-.81A20.23,20.23,0,0,1,31.39,240.39Zm.11,5.23a5.07,5.07,0,0,1-.72-2.94,5.56,5.56,0,0,1,.4-1.71,10.76,10.76,0,0,0,3.62,6.47A4.27,4.27,0,0,1,31.5,245.62Zm5.38,2.26a.77.77,0,0,1,.08-.19c.12-.26.25-.51.7-.27.2.11.28.57.32.85,0,.06,0,.15,0,.24Zm1.43.25a3.58,3.58,0,0,0-.11-.53,1.13,1.13,0,0,1,.7,1.12,1.1,1.1,0,0,1-.67,1.05l-.11,0A3.08,3.08,0,0,0,38.31,248.13Zm-1.37.66a4.71,4.71,0,0,0,1,.31h0c-.06.46-.22.85-.62.61S37,249.15,36.94,248.79Zm3.71-1.57c.78.3,1,1,.88,2a5,5,0,0,1-.15,1c-.14.4-.31.71-.79.8a2,2,0,0,1-.6,0,1.89,1.89,0,0,1-1.57-.93,1.5,1.5,0,0,0,.82-1.08,1.58,1.58,0,0,0-.58-1.65C39,246.62,40.26,247.07,40.65,247.22Z"/><path class="cls-56" d="M40.8,251.19c0-.07-.16,0-.16.1a10.88,10.88,0,0,0,.58,2.81c.05.17.22.27.35.09A6.43,6.43,0,0,0,42.79,252c.06-.26-.19-.36-.32-.15s-.32.65-.5,1a7.06,7.06,0,0,1-.42.64A7.74,7.74,0,0,0,40.8,251.19Z"/><polygon class="cls-40" points="28.91 277.69 30.64 276.69 30.64 257.29 28.91 258.29 28.91 277.69"/><path class="cls-57" d="M349.65,305.92a1.54,1.54,0,0,0-.85,2.85,10.64,10.64,0,0,0,3.85,2.41,4.2,4.2,0,0,0,2.62-.12l.2.85s2,.68,2.81-.33a8,8,0,0,0-.53-4.79c-.74-1.18-1.35-.84-3.28-.53C353.62,306.4,350.26,305.85,349.65,305.92Z"/><path class="cls-57" d="M358.73,301.43a1.54,1.54,0,0,0-.85,2.85,10.64,10.64,0,0,0,3.85,2.41,4.2,4.2,0,0,0,2.62-.12l.2.85s2,.68,2.81-.33a7.92,7.92,0,0,0-.53-4.78c-.74-1.19-1.35-.85-3.28-.54C362.7,301.91,359.34,301.36,358.73,301.43Z"/><path class="cls-33" d="M366.18,286.34c-2.2.65-4.38-.55-6.78-1,.15.77.31,2.68.69,4.08,1.15,4.28,1.54,10.79,2.09,13.47.77.92,4.43,1.52,4.66-.31.52-4.27,1.23-9.56.12-13.57C366.61,287.69,366.39,287,366.18,286.34Z"/><path class="cls-34" d="M357.49,289.5c-2.06.69-2.57-4.1-4.7-4.77-1.37,1.85-1.58,6.13-1.32,8.35.51,4.4,1.07,10.78,1.41,13.49.7,1,4.68,1.75,5-.06.84-4.21.54-9.11.07-13.24A23.41,23.41,0,0,0,357.49,289.5Z"/><path class="cls-37" d="M378.63,280.57s-1.44-.32-1.89,1.66-.12,10.2-.18,12.14a6.46,6.46,0,0,0,2.07,5.38c1.64,1.36,13.28,7.57,13.28,7.57l1.61-.7s-10.67-5.31-12.65-7.07-2.83-2.09-2.83-6.27,0-9.56.06-10.61A7.14,7.14,0,0,1,378.63,280.57Z"/><path class="cls-37" d="M394.56,306.89c-.12-.05-1.51-.89-1.64-1l-12-6.89a4.47,4.47,0,0,1-1.55-1.64,6.31,6.31,0,0,1-.84-3V282.77c0-2,.64-3.23,2.13-2.37l19,10.85v-.79c-.12-.09-5.33-3.09-5.45-3.16l-13.31-7.68c-1.71-1-3.11.05-3.11,2.32v11.6a9.33,9.33,0,0,0,.86,3.91,6.35,6.35,0,0,0,2.61,2.63l12.55,7.24Z"/><path class="cls-37" d="M377.61,280.88l-.32-.52,1.51-.87,2.11.62,18.74,10.35-1.49.86-18.27-10a4.83,4.83,0,0,0-1.26-.71A1.35,1.35,0,0,0,377.61,280.88Z"/><path class="cls-37" d="M393.07,307.75a2.14,2.14,0,0,1-.35-.16l-13.31-7.68a4.45,4.45,0,0,1-1.56-1.65,6.25,6.25,0,0,1-.84-3V283.63c0-2,.65-3.22,2.14-2.36l19,10.85v-.8c-.12-.08-5.32-3.08-5.44-3.15l-13.31-7.69c-1.72-1-3.11,0-3.11,2.32v11.61a9.31,9.31,0,0,0,.85,3.9,6.28,6.28,0,0,0,2.62,2.63l13.3,7.69Z"/><path class="cls-58" d="M355.61,298.06l21.09-12.18s4.62,15.15-2.91,19.32S355.61,298.06,355.61,298.06Z"/><path class="cls-33" d="M359.66,287.08c.15,0,4.59.84,4.76.82,2.95,2.39,5.94,7.27,9.16,8.27,2.56,3,4.88.45,5.83-.53a8.71,8.71,0,0,0,1.69-8.56c-.23-.51-2.75-.07-4.23-.69-1-.41-5.43-2.64-10-4.57-.72-.3-6-1.72-7.06-.07C358.51,283.77,358.85,284.77,359.66,287.08Z"/><path class="cls-34" d="M377.3,291.92c1.42-6.59-7.95-2.4-9.35-3.21-.91-.53-5.91-2.36-10.3-4.73a4.48,4.48,0,0,0-4.86.75c-1.81,1.78,2.18,2.8,2.64,5.18a.44.44,0,0,1,0,.26,16.28,16.28,0,0,0,9.66,7.83c2.16,1.91,6.27,2.67,8.23,1.73C376.21,298.32,376.71,294.63,377.3,291.92Z"/><path class="cls-57" d="M369.61,266.8s3.46-3.77,6.87.52a9.36,9.36,0,0,1,1.49,3.15,66.35,66.35,0,0,1,4.12,7.34,3.52,3.52,0,0,1-.14,2.55c-.52.71-6.22,2.89-8,.9C370.25,277.25,369.61,266.8,369.61,266.8Z"/><path class="cls-59" d="M364,267.77l2.15,2.87c1.57-.16,3.1-1.6,4.13-3.09-.43-.55-2-2.09-2-2.69.94-1.43.42-3-.68-4.72a4.88,4.88,0,0,0-5.88-1.62,2.67,2.67,0,0,0-1.92,2.15c-.22,1.71-.26,5.94,1,7C361.62,268.43,363,267.89,364,267.77Z"/><path class="cls-33" d="M369.87,260.68a3.8,3.8,0,0,0-1.44-3.58c-1.37-1.08-4.08-1.86-5.66-.78a.8.8,0,0,0,0-.15,1,1,0,0,0-1.44-.43,2.62,2.62,0,0,0-1.06.9,1.28,1.28,0,0,0-.82-.19c-1,.15-1.27,1.42-1.13,2.24.27,1.69,2.28,4,4.16,4a2.16,2.16,0,0,0,.58,2.22,3.85,3.85,0,0,0,3.9,1.32,4.75,4.75,0,0,0,3.62-3.37A2.45,2.45,0,0,0,369.87,260.68Z"/><path class="cls-59" d="M361.72,262.92a.81.81,0,0,1,1.4-.07c.83.9-.83,2.56-.83,2.56Z"/><path class="cls-60" d="M370.67,266.18c-1.7.73-1.58,1-5.11,3.76s-3.72,4.31-3.4,6a24.42,24.42,0,0,0,1.94,5.83,59.58,59.58,0,0,1,2.33,6.28,5.68,5.68,0,0,0-.52,3.22,12.49,12.49,0,0,0,7.7,2.11,12.87,12.87,0,0,0,8.29-4.16c-.27-4.67-2.68-11.83-3.88-15.51C376.66,269.53,372.16,265.53,370.67,266.18Z"/><path class="cls-57" d="M367.78,289.35s1.86.44,3.89,1a35.51,35.51,0,0,0,3.74.74,19.33,19.33,0,0,1-4.51.07A7.59,7.59,0,0,1,367.78,289.35Z"/><path class="cls-57" d="M375.41,288.26a4.26,4.26,0,0,1-2.92.79c-1.74-.17-2.84-.38-2.84-.38a10.14,10.14,0,0,1,2.84-.41A22.24,22.24,0,0,0,375.41,288.26Z"/><path class="cls-57" d="M357.3,283.46a34,34,0,0,1,3.42-6.3c.47-4.12,1.84-5.61,3.3-5.92,2.05-.44,3.76,1.52,4.19,4.34.64,4.31.26,7.06-2.39,6.78.07,1.87-3.74,5.58-5.76,5.88C358.21,287.35,357.47,285.47,357.3,283.46Z"/><path class="cls-59" d="M347.92,279.71c.35.33.28.31.81.36,0-.56-.32-1.88.42-2.33.39-.25.34,1.05.6,2A3.44,3.44,0,0,0,351,281.5s.53,2.12-.24,2.43-3.47-.54-4.2-.93-1.12-.61-.93-2.24a1.18,1.18,0,0,1,1.07-1.21c.31-1.13.63-1.26,1.19-1.11Z"/><path class="cls-60" d="M352.7,282.1l-1.67-.6s-.7.14-1.33,1.33a2.35,2.35,0,0,0-.23,1.44l1.78.82Z"/><path class="cls-57" d="M352.24,281.9c1.5-.64,4.08.73,6.14,1.36-.09,1.89,4.42,2.94,3.5,4.16s-2.74,2-4,1.52a29.61,29.61,0,0,1-7.18-4A3.26,3.26,0,0,1,352.24,281.9Z"/><path class="cls-57" d="M365,270.41a7.53,7.53,0,0,1,2.08-3.66,13.58,13.58,0,0,1,3.21-1.87l1,1.24a4.93,4.93,0,0,1-1.88,2.61A20.28,20.28,0,0,1,365,270.41Z"/><path class="cls-53" d="M354.89,299.11a1.13,1.13,0,0,1,1.75-.95c2.44,1.59,6.46,4.06,8.3,5.12a4.58,4.58,0,0,0,4.75-.2c1.34-1.12,2.41-3.16,2.54-6.13.25-5.86.22-14,.68-24.5.15-3.36,3-5.87,6.8-7.94,4-2.15,9-3.79,10.38-3.83,2.73-.09,4.56.62,5.07,8.85s.33,24.84-2.16,28.15c-1.33,1.76-3.13,2.65-8.15,5.9a73.08,73.08,0,0,1-8.91,4.95c-2.12,1-5,1.85-10.21-1.14-3.59-2.06-7.85-4.64-9.78-5.86a2.28,2.28,0,0,1-1.06-1.93Z"/><path class="cls-42" d="M390.09,260.68c-1.39,0-6.4,1.68-10.38,3.83-3.82,2.07-6.65,4.58-6.8,7.94-.46,10.49-.43,18.64-.68,24.5-.13,3-1.2,5-2.54,6.13a4.58,4.58,0,0,1-4.75.2c-.79-.45-.15,0,.8.57a4.55,4.55,0,0,0,4.75-.2c1.34-1.12,2.41-3.16,2.54-6.13.26-5.86.23-14,.69-24.5.14-3.35,3-5.87,6.79-7.94,4-2.15,9-3.79,10.38-3.83a4.73,4.73,0,0,1,2.23.33A3.72,3.72,0,0,0,390.09,260.68Z"/><path class="cls-37" d="M358.52,306.14c-.35.09.1-14.6-.13-14.5a3.35,3.35,0,0,0-1.3,2.3c-.31,3.37,0,12.95,0,12.95a6.86,6.86,0,0,0,1.11,3.15,11.41,11.41,0,0,0,3.68,2.81c2.22,1.27,10.36,6.25,11.61,6.09s1.12-.81,1.12-.81a66.14,66.14,0,0,1-6.8-3.52c-1.65-1.1-5.57-3.64-7.1-4.63A6.62,6.62,0,0,1,358.52,306.14Z"/><polygon class="cls-37" points="373.02 317.33 374.67 318.29 394.56 306.89 392.93 305.93 373.02 317.33"/><path class="cls-37" d="M374.94,318.07a1.89,1.89,0,0,1-.36-.16l-13.31-7.69a4.42,4.42,0,0,1-1.56-1.64,6.24,6.24,0,0,1-.83-3V294c0-2,.64-3.22,2.13-2.36l19,10.85v-.8c-.12-.09-5.32-3.08-5.44-3.15l-13.31-7.69c-1.72-1-3.11.05-3.11,2.32v11.61a9.17,9.17,0,0,0,.86,3.9,6.22,6.22,0,0,0,2.61,2.63L374.94,319Z"/><path class="cls-37" d="M358,292.06l-.31-.51,1.5-.88,2.12.63L380,301.64l-1.48.87-18.27-10a5.2,5.2,0,0,0-1.27-.72A1.37,1.37,0,0,0,358,292.06Z"/><path class="cls-36" d="M373.45,318.94a2.83,2.83,0,0,1-.36-.16l-13.31-7.69a4.48,4.48,0,0,1-1.55-1.64,6.25,6.25,0,0,1-.84-3V294.82c0-2,.64-3.23,2.13-2.37l19,10.86v-.8c-.12-.09-5.33-3.09-5.45-3.15l-13.31-7.69c-1.71-1-3.11.05-3.11,2.32V305.6a9.32,9.32,0,0,0,.86,3.9,6.28,6.28,0,0,0,2.61,2.63l13.31,7.68Z"/><polygon class="cls-61" points="373.45 319.81 373.45 318.94 394.56 306.89 394.56 307.75 373.45 319.81"/><polygon class="cls-37" points="377.13 301.69 378.54 302.51 399.65 290.45 398.13 289.66 377.13 301.69"/><polygon class="cls-62" points="378.54 303.31 378.54 302.51 399.65 290.45 399.65 291.25 378.54 303.31"/><path class="cls-63" d="M324.53,319.55a1.41,1.41,0,0,0-.79,2.6,9.84,9.84,0,0,0,3.52,2.2,3.83,3.83,0,0,0,2.39-.12l.18.78s1.84.62,2.56-.3a7.23,7.23,0,0,0-.48-4.36c-.68-1.09-1.23-.78-3-.49C328.14,320,325.08,319.49,324.53,319.55Z"/><path class="cls-63" d="M333,314.67a1.4,1.4,0,0,0-.78,2.59,9.7,9.7,0,0,0,3.52,2.2,3.8,3.8,0,0,0,2.39-.11l.18.78s1.83.62,2.56-.3a7.35,7.35,0,0,0-.48-4.37c-.68-1.08-1.23-.77-3-.48C336.61,315.1,333.55,314.6,333,314.67Z"/><path class="cls-48" d="M339.79,300.9c-2.52-1.84-5.09-2.75-6.69-1.19-.51.5-.9,3-.55,4.26,1.05,3.9,3.09,9.54,3.58,12,.71.84,4.05,1.39,4.26-.28.47-3.89,1.12-8.73.1-12.38C340.17,302.13,340,301.46,339.79,300.9Z"/><path class="cls-33" d="M331.68,304.57c-.54-3.37-1.61-2.36-3.54-3-1.66.49-2.2,4.2-2,6.23.47,4,1,9.83,1.29,12.31.64.88,4.27,1.59,4.59-.06a40.78,40.78,0,0,0,.07-12.08A20.63,20.63,0,0,0,331.68,304.57Z"/><path class="cls-37" d="M351.32,296.77s-1.44-.32-1.89,1.66-.12,10.21-.18,12.14a6.45,6.45,0,0,0,2.07,5.38c1.64,1.36,13.27,7.58,13.27,7.58l1.61-.71s-10.66-5.3-12.64-7.07-2.83-2.08-2.83-6.26,0-9.57.06-10.62A6.91,6.91,0,0,1,351.32,296.77Z"/><path class="cls-37" d="M367.25,323.09c-.12,0-1.52-.89-1.64-1l-12-6.89A4.5,4.5,0,0,1,352,313.6a6.24,6.24,0,0,1-.83-3V299c0-2,.64-3.23,2.13-2.37l19,10.86v-.8c-.11-.09-5.32-3.08-5.44-3.15l-13.31-7.69c-1.72-1-3.11.05-3.11,2.32v11.61a9.32,9.32,0,0,0,.86,3.9,6.28,6.28,0,0,0,2.61,2.63l12.55,7.25Z"/><path class="cls-37" d="M350.29,297.08l-.31-.51,1.5-.88,2.12.62,18.73,10.35-1.48.86-18.27-10a5.28,5.28,0,0,0-1.26-.72A1.38,1.38,0,0,0,350.29,297.08Z"/><path class="cls-37" d="M365.76,324l-.36-.17-13.31-7.68a4.51,4.51,0,0,1-1.55-1.65,6.25,6.25,0,0,1-.84-3v-11.6c0-2,.65-3.23,2.14-2.37l19,10.85v-.8c-.12-.08-5.33-3.08-5.45-3.15l-13.31-7.68c-1.71-1-3.11.05-3.11,2.32v11.6a9.25,9.25,0,0,0,.86,3.9,6.44,6.44,0,0,0,2.61,2.64l13.31,7.68Z"/><path class="cls-58" d="M328.29,314.27l21.1-12.19s4.62,15.15-2.91,19.32S328.29,314.27,328.29,314.27Z"/><path class="cls-37" d="M351.05,285a4.55,4.55,0,0,0-4.82,0l-.88,1.57a24.81,24.81,0,0,0-.24,6,29,29,0,0,0,.8,4.09c1.84.69,4.65,1.18,6.32-1.37C354.86,291.32,353.2,286.4,351.05,285Z"/><path class="cls-48" d="M335.55,307.77c.14,0,1.88.26,2,.24a25.75,25.75,0,0,0,8.25,5,3.84,3.84,0,0,0,5.89.23c2.45-2.54,1.81-6.49,1.2-7.82-.22-.46-1.79.75-3.14.18-.88-.37-5.14-1.07-9.34-2.82-.66-.28-4.41-.45-4.89.24C334.3,304.76,334.81,305.67,335.55,307.77Z"/><path class="cls-33" d="M351,308c-.09-6.15-8-1-9.42-1.4-.92-.28-7.53-4.07-12-5-3.13-.64-3.08,2.59-2.83,4.55.29,2.3,13,9.77,14.63,9.78,2.32,1.25,6.16,1.13,7.67-.17C350.84,314.24,351.08,310.49,351,308Z"/><path class="cls-59" d="M340.85,275.58a3.92,3.92,0,0,1,4.31-.27,3.49,3.49,0,0,1,2.13,2.7,10.8,10.8,0,0,1-.05,2.33,10.53,10.53,0,0,1-1.34,3c-.73,1.08-2.83,2.27-4.28,1.93-1.29-.3-2.29-2.08-2.24-4.83C339.42,278.52,339.23,276.87,340.85,275.58Z"/><path class="cls-39" d="M344.45,287.44c3.34-1.63,4.38-3.33,6.69-1.3,1.43,1.26,1.67,6.4,1.48,8.54-.15,1.6.69,11.43.87,12.31-1.11,1.39-5.18,3-8.18,3s-4.74-.94-5.83-2c0-2.31.61-3.33.5-4.7-.31-4-.87-7.17-1-9.63C338.8,290.33,340.57,289.33,344.45,287.44Z"/><path class="cls-59" d="M346.8,281.63s.79,1.89,1.07,2.77a17.63,17.63,0,0,0,.81,2.11,1.61,1.61,0,0,1-.74,2.49c-1.86.8-4.07-.84-4.07-.84a24.5,24.5,0,0,0-1.12-3.82C342.24,283.06,346.8,281.63,346.8,281.63Z"/><path class="cls-33" d="M337.93,276.88a2.12,2.12,0,0,0,3.16,1.51,5,5,0,0,0,2.37,2.35,3.1,3.1,0,0,0,1.55,2.51,8.56,8.56,0,0,0,2.86,1.15s2.74-3.59,1.71-5.69a2.66,2.66,0,0,0-2.35-4.5c.37-1.86-2.14-2.29-3-.84a2.46,2.46,0,0,0-3.63,1.49C339.7,273.73,337.93,275.08,337.93,276.88Z"/><path class="cls-59" d="M343.8,280.54a1.69,1.69,0,0,1-1.22,2.12l-1-1.78S343.25,278.67,343.8,280.54Z"/><path class="cls-37" d="M349.5,304.38s-2.23,2.28-4.33,2.45a10.68,10.68,0,0,1-2.91,0,8,8,0,0,1,3-1.34C346.8,305.18,349.5,304.38,349.5,304.38Z"/><path class="cls-37" d="M337,305.23c-.32.09-6.74.48-7.19-.1-.8-1.05-1.68-2.15-.35-3.19,1.72-1.33,4.3-.87,6.35-2.38,1-2.54,3.1-8.49,3.62-9.06,2-2.26,3.11-1.83,4.11-.61s1.38,3.49,1.43,5.57-.28,3.72-1.37,4.21a4.12,4.12,0,0,1-2.22.51C341.11,300.56,339.27,304.58,337,305.23Z"/><path class="cls-37" d="M348.62,285.84c.71.25,1.62,1.68-.07,3s-3.46.21-4.14-.12a6.21,6.21,0,0,0-1.58-.47s.31-1,2-1c1,0,2.52-.29,3-.91S348.22,285.69,348.62,285.84Z"/><path class="cls-53" d="M327.58,315.31a1.13,1.13,0,0,1,1.75-.95c2.44,1.6,6.45,4.06,8.3,5.12a4.56,4.56,0,0,0,4.75-.2c1.34-1.12,2.4-3.16,2.53-6.13.26-5.86.23-14,.69-24.5.15-3.35,3-5.87,6.8-7.94,4-2.15,9-3.79,10.38-3.83,2.73-.09,4.55.63,5.07,8.85s.33,24.84-2.17,28.15c-1.32,1.76-3.12,2.65-8.14,5.91a74.32,74.32,0,0,1-8.91,4.94c-2.12,1-5,1.86-10.21-1.13-3.59-2.07-7.85-4.64-9.78-5.86a2.27,2.27,0,0,1-1.06-1.93Z"/><path class="cls-42" d="M362.78,276.88c-1.4,0-6.4,1.68-10.38,3.83-3.82,2.07-6.65,4.59-6.8,7.94-.46,10.49-.43,18.64-.69,24.5-.13,3-1.19,5-2.53,6.13a4.56,4.56,0,0,1-4.75.2c-.79-.45-.15,0,.8.58a4.58,4.58,0,0,0,4.75-.21c1.34-1.11,2.41-3.16,2.54-6.12.26-5.87.22-14,.68-24.51.15-3.35,3-5.87,6.8-7.93,4-2.16,9-3.8,10.38-3.84a4.73,4.73,0,0,1,2.23.34A3.72,3.72,0,0,0,362.78,276.88Z"/><path class="cls-37" d="M331.21,322.35c-.35.08.1-14.61-.13-14.51a3.37,3.37,0,0,0-1.3,2.3c-.31,3.37,0,12.95,0,12.95a7,7,0,0,0,1.12,3.16,11.23,11.23,0,0,0,3.68,2.8c2.22,1.27,10.36,6.25,11.61,6.09s1.12-.81,1.12-.81a67,67,0,0,1-6.81-3.52c-1.64-1.1-5.56-3.64-7.09-4.63A6.57,6.57,0,0,1,331.21,322.35Z"/><polygon class="cls-37" points="345.71 333.54 347.36 334.49 367.25 323.09 365.61 322.13 345.71 333.54"/><path class="cls-37" d="M347.62,334.28a3.7,3.7,0,0,1-.35-.17L334,326.43a4.51,4.51,0,0,1-1.55-1.65,6.25,6.25,0,0,1-.84-3v-11.6c0-2,.65-3.23,2.14-2.37l19,10.85v-.8c-.12-.08-5.32-3.08-5.44-3.15L334,307c-1.71-1-3.1.05-3.1,2.32v11.6a9.28,9.28,0,0,0,.85,3.9,6.39,6.39,0,0,0,2.62,2.64l13.3,7.68Z"/><path class="cls-37" d="M330.67,308.27l-.31-.52,1.5-.87,2.12.62,18.73,10.34-1.48.87-18.27-10a5.2,5.2,0,0,0-1.27-.72A1.38,1.38,0,0,0,330.67,308.27Z"/><path class="cls-36" d="M346.14,335.14a1.89,1.89,0,0,1-.36-.16l-13.31-7.69a4.4,4.4,0,0,1-1.55-1.64,6.15,6.15,0,0,1-.84-3V311c0-2,.64-3.22,2.13-2.36l19,10.85v-.8c-.12-.09-5.33-3.08-5.45-3.15l-13.31-7.69c-1.72-1-3.11.05-3.11,2.32V321.8a9.32,9.32,0,0,0,.86,3.9,6.22,6.22,0,0,0,2.61,2.63L346.14,336Z"/><polygon class="cls-61" points="346.14 336.02 346.14 335.14 367.25 323.09 367.25 323.95 346.14 336.02"/><polygon class="cls-37" points="349.82 317.89 351.23 318.71 372.33 306.66 370.81 305.87 349.82 317.89"/><polygon class="cls-62" points="351.23 319.51 351.23 318.71 372.33 306.66 372.33 307.46 351.23 319.51"/><path class="cls-37" d="M323.37,312.56s-1.44-.32-1.89,1.66-.12,10.2-.18,12.14a6.45,6.45,0,0,0,2.07,5.38c1.64,1.36,13.28,7.57,13.28,7.57l1.6-.7s-10.66-5.3-12.64-7.07-2.83-2.08-2.83-6.27,0-9.56.06-10.61A7.14,7.14,0,0,1,323.37,312.56Z"/><path class="cls-37" d="M339.3,338.88c-.12-.05-1.51-.89-1.64-1l-12-6.89a4.47,4.47,0,0,1-1.55-1.64,6.18,6.18,0,0,1-.84-3V314.76c0-2,.64-3.23,2.13-2.37l19,10.85v-.79c-.12-.09-5.33-3.09-5.45-3.16l-13.31-7.68c-1.71-1-3.11.05-3.11,2.32v11.61a9.32,9.32,0,0,0,.86,3.9,6.35,6.35,0,0,0,2.61,2.63l12.55,7.24Z"/><path class="cls-37" d="M322.35,312.87l-.32-.51,1.5-.88,2.12.62,18.74,10.35-1.49.86-18.27-10a5,5,0,0,0-1.26-.72A1.35,1.35,0,0,0,322.35,312.87Z"/><path class="cls-37" d="M337.81,339.74a2.14,2.14,0,0,1-.35-.16l-13.32-7.68a4.51,4.51,0,0,1-1.55-1.65,6.25,6.25,0,0,1-.84-3v-11.6c0-2,.65-3.23,2.14-2.37l19,10.85v-.8c-.12-.08-5.32-3.08-5.44-3.15l-13.32-7.68c-1.71-1-3.11,0-3.11,2.31V326.4a9.32,9.32,0,0,0,.86,3.9,6.44,6.44,0,0,0,2.61,2.64l13.31,7.68Z"/><path class="cls-48" d="M305.18,329.89s-3.52-.28-4.55.1-.93,1.85-.29,2.54a5.25,5.25,0,0,0,2.79,1.68,9,9,0,0,0,2.47.11v.82s1.86.53,2.69,0,1-1.35.85-3a2.4,2.4,0,0,0-1.21-2.05Z"/><path class="cls-48" d="M298.43,333.54s-3.52-.28-4.55.1-.93,1.84-.3,2.53a5.32,5.32,0,0,0,2.8,1.69,9.16,9.16,0,0,0,2.46.1v.83s1.86.52,2.69,0,1.05-1.36.85-3a2.38,2.38,0,0,0-1.21-2.06Z"/><path class="cls-63" d="M305.7,321.18a24,24,0,0,1-2.77-1.18v10.18s.23.82,2,1.23c2.6.6,3.79-.54,3.79-.54s.34-6.49.5-8.36C308,322.13,306.78,321.58,305.7,321.18Z"/><path class="cls-63" d="M309,312.48a4.67,4.67,0,0,0-3.67.36,3.92,3.92,0,0,0-1.67,2.27c-.82,2.3-.7,4.32-.69,7.51a38.25,38.25,0,0,0,3.93,1.41c.77.22,1.64.38,2.49.58.1-1.54.19-3.59.19-3.59a38.48,38.48,0,0,0,6.36,3.78V314.18C313.33,313.53,310.26,312.75,309,312.48Z"/><path class="cls-34" d="M313.19,318.31s-8.57-2.24-11-2.75a4.65,4.65,0,0,0-3.66.36c-.76.35-2.1,1.24-2.1,4.7,0,2.47-.27,13.2-.27,13.2s.23.83,2,1.23c2.61.6,3.79-.54,3.79-.54s.39-7.31.53-8.64a10.31,10.31,0,0,1,.28-1.77,23.34,23.34,0,0,0,3.85,3.89c1.51.95,2.2-.1,3.51.23,2.63.66,8,0,9.53-2.32s.87-9.67.87-9.67Z"/><path class="cls-58" d="M300.35,330.05l21.09-12.18s4.62,15.15-2.91,19.32S300.35,330.05,300.35,330.05Z"/><path class="cls-64" d="M302.9,314.54a7.52,7.52,0,0,0-3.69,0,4.13,4.13,0,0,0-2.09,2.51c-.18.58,1.92-.39,1.92-.39s1.43,1.23,2.64.57S302.9,314.54,302.9,314.54Z"/><path class="cls-34" d="M309.23,322.51l-4.69,3.28s3.36,4,6.85,5.8c3,1.56,7.49,2.59,11.1,1.52s4.78-5.56,3.5-8.07-14.57-1.82-14.57-1.82Z"/><path class="cls-57" d="M320.47,308.14a8.57,8.57,0,0,0,3.32,3.09s0-.05,0-.08c1.89-1.42,1.26-6.13.64-7.52s-2.78-5.71-6-3.63A14.5,14.5,0,0,0,320.47,308.14Z"/><path class="cls-64" d="M312.6,299.51l.87,3.48c1.49.05,3.88-1.63,5-2.9-.33-.57-1.65-2.22-1.57-2.78a5.12,5.12,0,0,0,1-5.19,5,5,0,0,0-5.94-2.85,4,4,0,0,0-2.69,2.72c-.43,1.58-.8,5.88.23,7C310.27,299.83,311.61,299.5,312.6,299.51Z"/><path class="cls-65" d="M318,292.12a3.46,3.46,0,0,1-3,1.75,7.15,7.15,0,0,1-4.26-.91,4.7,4.7,0,0,0,.07,1.88c.1.46.64.51.66.26,0-.66.69-.72.78-.21a6.51,6.51,0,0,0,1.76,3.17,5.75,5.75,0,0,0,3.75,1.16c-.38-1.52,1.23-3.23,1.23-4.78A3.18,3.18,0,0,0,318,292.12Z"/><path class="cls-64" d="M311.46,294.77a.76.76,0,0,1,1.32.12c.66.94-1.1,2.28-1.1,2.28Z"/><path class="cls-60" d="M318.29,300c-1.7.42-2.39.37-5.73,2.93s-3,4-2.7,5.58-.37,1.52.66,4.72c.61,1.87.44,4.13,1.13,5.83-.66,2.49-2,1.4-1.89,3.53.07,1.85,4.5,6.44,8.12,6.74a10,10,0,0,0,8.35-3s0-2.31,0-2.38c-.09-1.23-.89-13.25-2-16.66C323,303.3,321.43,299.18,318.29,300Z"/><path class="cls-57" d="M310.76,304.38c-1.31.53-2.12,1.41-3.05,5-.43,1.64-2.06,6-2.41,6.83-.09,0-.91,3.25,3,2.74,4.91-.64,6.8-5.35,6.73-9.46C315,307.39,312.78,303.56,310.76,304.38Z"/><path class="cls-57" d="M318.93,299.87s-.67-.6-1-.63c-1.94-.24-4.26,1.52-5,2.52a5.67,5.67,0,0,0-.87,1.55s2.28-1.54,3.18-2C316,300.89,318.93,299.87,318.93,299.87Z"/><path class="cls-57" d="M307.26,314.57s-6.91-1.78-6.91,1.76c0,3.25,4.87,3.81,6.54,3.67,2.26-.19,5.17-2.95,5.17-2.95Z"/><path class="cls-53" d="M299.63,331.1a1.13,1.13,0,0,1,1.75-1c2.44,1.59,6.46,4.06,8.3,5.12a4.58,4.58,0,0,0,4.75-.2c1.34-1.12,2.41-3.16,2.54-6.13.25-5.86.22-14,.68-24.5.15-3.36,3-5.87,6.8-7.94,4-2.15,9-3.79,10.38-3.83,2.73-.09,4.55.63,5.07,8.85s.33,24.84-2.17,28.15c-1.32,1.76-3.12,2.65-8.14,5.9a73.08,73.08,0,0,1-8.91,4.95c-2.12,1-5,1.86-10.21-1.13-3.59-2.07-7.85-4.64-9.78-5.87a2.28,2.28,0,0,1-1.06-1.93Z"/><path class="cls-42" d="M334.83,292.67c-1.39,0-6.4,1.68-10.38,3.83-3.82,2.07-6.65,4.58-6.8,7.94-.46,10.49-.43,18.64-.68,24.5-.13,3-1.2,5-2.54,6.13a4.58,4.58,0,0,1-4.75.2c-.79-.45-.15,0,.8.57a4.55,4.55,0,0,0,4.75-.2c1.34-1.12,2.41-3.16,2.54-6.13.26-5.86.22-14,.69-24.5.14-3.35,3-5.87,6.79-7.93,4-2.16,9-3.8,10.38-3.84a4.73,4.73,0,0,1,2.23.33A3.75,3.75,0,0,0,334.83,292.67Z"/><path class="cls-37" d="M303.26,338.14c-.35.08.1-14.61-.13-14.51a3.37,3.37,0,0,0-1.3,2.3c-.31,3.37,0,12.95,0,12.95A6.86,6.86,0,0,0,302.9,342a11.41,11.41,0,0,0,3.68,2.81c2.22,1.27,10.36,6.25,11.61,6.09s1.12-.81,1.12-.81a66.14,66.14,0,0,1-6.8-3.52c-1.65-1.1-5.57-3.64-7.1-4.63A6.57,6.57,0,0,1,303.26,338.14Z"/><polygon class="cls-37" points="317.76 349.32 319.41 350.28 339.3 338.88 337.66 337.92 317.76 349.32"/><path class="cls-37" d="M319.68,350.06a1.89,1.89,0,0,1-.36-.16L306,342.22a4.45,4.45,0,0,1-1.56-1.65,6.24,6.24,0,0,1-.83-3V326c0-2,.64-3.23,2.13-2.37l19,10.85v-.8c-.12-.08-5.32-3.08-5.44-3.15L306,322.8c-1.72-1-3.11.05-3.11,2.31v11.61a9.17,9.17,0,0,0,.86,3.9,6.33,6.33,0,0,0,2.61,2.64l13.31,7.68Z"/><path class="cls-37" d="M302.72,324.06l-.31-.52,1.5-.88,2.12.63,18.73,10.34-1.48.87-18.27-10a5.2,5.2,0,0,0-1.27-.72A1.36,1.36,0,0,0,302.72,324.06Z"/><path class="cls-36" d="M318.19,350.93a2.83,2.83,0,0,1-.36-.16l-13.31-7.69a4.4,4.4,0,0,1-1.55-1.64,6.25,6.25,0,0,1-.84-3V326.81c0-2,.64-3.23,2.13-2.37l19,10.86v-.8c-.12-.09-5.33-3.08-5.45-3.15l-13.31-7.69c-1.71-1-3.11,0-3.11,2.32v11.61a9.32,9.32,0,0,0,.86,3.9,6.28,6.28,0,0,0,2.61,2.63l13.31,7.69Z"/><polygon class="cls-61" points="318.19 351.81 318.19 350.93 339.3 338.88 339.3 339.74 318.19 351.81"/><polygon class="cls-37" points="321.88 333.68 323.28 334.5 344.39 322.45 342.86 321.65 321.88 333.68"/><polygon class="cls-62" points="323.28 335.3 323.28 334.5 344.39 322.45 344.39 323.24 323.28 335.3"/></g></g></g></svg>