<svg xmlns="http://www.w3.org/2000/svg" xmlns:xlink="http://www.w3.org/1999/xlink" viewBox="0 0 381.4 323.92"><defs><style>.cls-1,.cls-112,.cls-113,.cls-117,.cls-119,.cls-130,.cls-139,.cls-142{fill:none;}.cls-2{isolation:isolate;}.cls-3{mix-blend-mode:multiply;}.cls-105,.cls-4{fill:#fff;}.cls-4,.cls-55{opacity:0;}.cls-5{fill:#f9f9f9;}.cls-34,.cls-5{opacity:0.05;}.cls-6{fill:#f3f3f3;}.cls-35,.cls-6{opacity:0.1;}.cls-7{fill:#ededed;}.cls-36,.cls-7{opacity:0.14;}.cls-8{fill:#e7e7e7;}.cls-37,.cls-8{opacity:0.19;}.cls-9{fill:#e1e1e1;}.cls-38,.cls-9{opacity:0.24;}.cls-10{fill:#dadada;}.cls-10,.cls-39{opacity:0.29;}.cls-11{fill:#d4d4d4;}.cls-11,.cls-40{opacity:0.33;}.cls-12{fill:#cecece;}.cls-12,.cls-41{opacity:0.38;}.cls-13{fill:#c8c8c8;}.cls-13,.cls-42{opacity:0.43;}.cls-14,.cls-41{fill:#c2c2c2;}.cls-14,.cls-43{opacity:0.48;}.cls-15{fill:#bcbcbc;}.cls-15,.cls-44{opacity:0.52;}.cls-16{fill:#b6b6b6;}.cls-16,.cls-45{opacity:0.57;}.cls-17{fill:#b0b0b0;}.cls-17,.cls-46{opacity:0.62;}.cls-18{fill:#aaa;}.cls-18,.cls-47{opacity:0.67;}.cls-19{fill:#a4a4a4;}.cls-19,.cls-48{opacity:0.71;}.cls-20{fill:#9d9d9d;}.cls-20,.cls-49{opacity:0.76;}.cls-21{fill:#979797;}.cls-21,.cls-50{opacity:0.81;}.cls-22{fill:#919191;}.cls-22,.cls-51{opacity:0.86;}.cls-23{fill:#8b8b8b;}.cls-23,.cls-52{opacity:0.9;}.cls-24{fill:#858585;}.cls-24,.cls-53{opacity:0.95;}.cls-25{fill:#7f7f7f;}.cls-26{fill:#ed7000;}.cls-27{fill:#b5391a;}.cls-28{fill:#7b1d06;}.cls-29{fill:#f14c23;}.cls-30,.cls-31{opacity:0.42;}.cls-30,.cls-31,.cls-32,.cls-33{mix-blend-mode:overlay;}.cls-30{fill:url(#linear-gradient);}.cls-31{fill:url(#linear-gradient-2);}.cls-32,.cls-33{opacity:0.48;}.cls-32{fill:url(#linear-gradient-3);}.cls-33{fill:url(#linear-gradient-4);}.cls-34{fill:#f7f7f7;}.cls-35{fill:#f0f0f0;}.cls-36{fill:#e8e8e8;}.cls-37,.cls-93{fill:#e0e0e0;}.cls-38{fill:#d9d9d9;}.cls-39{fill:#d1d1d1;}.cls-40{fill:#c9c9c9;}.cls-42{fill:#bababa;}.cls-43{fill:#b2b2b2;}.cls-44{fill:#ababab;}.cls-45{fill:#a3a3a3;}.cls-46{fill:#9b9b9b;}.cls-47{fill:#949494;}.cls-48{fill:#8c8c8c;}.cls-49{fill:#848484;}.cls-50{fill:#7d7d7d;}.cls-51{fill:#757575;}.cls-52{fill:#6d6d6d;}.cls-53{fill:#666;}.cls-54{fill:#5e5e5e;}.cls-55,.cls-56,.cls-57,.cls-58,.cls-59,.cls-60,.cls-61,.cls-62,.cls-63,.cls-64,.cls-65,.cls-66,.cls-67,.cls-68,.cls-69,.cls-70,.cls-71,.cls-72,.cls-73,.cls-74,.cls-75,.cls-76,.cls-77,.cls-78,.cls-79,.cls-80,.cls-81,.cls-82,.cls-83,.cls-84,.cls-85,.cls-86,.cls-87,.cls-88,.cls-89,.cls-90,.cls-91{fill:#005692;}.cls-56{opacity:0.03;}.cls-57{opacity:0.06;}.cls-58{opacity:0.08;}.cls-59{opacity:0.11;}.cls-60{opacity:0.14;}.cls-61{opacity:0.17;}.cls-62{opacity:0.19;}.cls-63{opacity:0.22;}.cls-64{opacity:0.25;}.cls-65{opacity:0.28;}.cls-66{opacity:0.31;}.cls-67{opacity:0.33;}.cls-68{opacity:0.36;}.cls-69{opacity:0.39;}.cls-70{opacity:0.42;}.cls-71{opacity:0.44;}.cls-72{opacity:0.47;}.cls-73{opacity:0.5;}.cls-74{opacity:0.53;}.cls-75{opacity:0.56;}.cls-76{opacity:0.58;}.cls-77{opacity:0.61;}.cls-78{opacity:0.64;}.cls-79{opacity:0.67;}.cls-80{opacity:0.69;}.cls-81{opacity:0.72;}.cls-82{opacity:0.75;}.cls-83{opacity:0.78;}.cls-84{opacity:0.81;}.cls-85{opacity:0.83;}.cls-86{opacity:0.86;}.cls-87{opacity:0.89;}.cls-88{opacity:0.92;}.cls-89{opacity:0.94;}.cls-90{opacity:0.97;}.cls-92{fill:url(#linear-gradient-5);}.cls-94{fill:#1d1d1b;}.cls-95{fill:url(#linear-gradient-6);}.cls-96{fill:#727271;}.cls-97{fill:url(#linear-gradient-7);}.cls-98{fill:url(#linear-gradient-8);}.cls-99{fill:url(#linear-gradient-9);}.cls-100{fill:url(#linear-gradient-10);}.cls-101{clip-path:url(#clip-path);}.cls-102{fill:#f6f7f8;}.cls-103{fill:#e0e2e5;}.cls-104{fill:#dfdfdf;}.cls-106,.cls-120{fill:#9197a3;}.cls-107{fill:#b9babd;}.cls-108{fill:#b7c2c9;}.cls-109{clip-path:url(#clip-path-2);}.cls-110{fill:#fefefe;}.cls-111{fill:#4e5665;}.cls-112,.cls-113{stroke:#4e5665;}.cls-112,.cls-113,.cls-117,.cls-119,.cls-130,.cls-139,.cls-142{stroke-miterlimit:10;}.cls-112,.cls-119{stroke-width:0.4px;}.cls-113{stroke-width:0.33px;}.cls-114{fill:#ddd;}.cls-115{fill:#141823;}.cls-116{fill:#658dff;}.cls-117{stroke:#646363;stroke-width:0.58px;}.cls-118{fill:#646363;}.cls-119{stroke:#d8d9da;}.cls-120{font-size:5.01px;}.cls-120,.cls-122{font-family:DINOT-Medium, DINOT Medium;font-weight:500;}.cls-121{clip-path:url(#clip-path-3);}.cls-122{font-size:6.13px;}.cls-123{letter-spacing:0.01em;}.cls-124{fill:url(#linear-gradient-11);}.cls-125{fill:#afdff9;}.cls-126{fill:#007cc5;}.cls-127{fill:#e0053b;}.cls-128{fill:url(#radial-gradient);}.cls-129{fill:#f09a21;}.cls-130,.cls-139,.cls-142{stroke:#603126;stroke-linecap:round;}.cls-130{stroke-width:0.76px;}.cls-131{fill:url(#linear-gradient-12);}.cls-132,.cls-135{fill:#fcf6bd;}.cls-132{opacity:0.5;}.cls-133{fill:#fffbda;}.cls-134{fill:#e30051;}.cls-136{fill:#e8e3be;}.cls-137{fill:#ad0e33;}.cls-138{fill:url(#radial-gradient-2);}.cls-139{stroke-width:1.03px;}.cls-140{fill:url(#linear-gradient-13);}.cls-141{fill:url(#radial-gradient-3);}.cls-142{stroke-width:1.31px;}.cls-143{fill:url(#linear-gradient-14);}.cls-144{fill:url(#radial-gradient-4);}.cls-145{fill:url(#linear-gradient-15);}.cls-146{fill:#e55059;}.cls-147{fill:url(#radial-gradient-5);}.cls-148{fill:url(#linear-gradient-16);}</style><linearGradient id="linear-gradient" x1="0.38" y1="202.74" x2="337.34" y2="202.74" gradientUnits="userSpaceOnUse"><stop offset="0" stop-color="#4c4c4c"/><stop offset="0.7" stop-color="#fff"/></linearGradient><linearGradient id="linear-gradient-2" x1="12.6" y1="195.85" x2="325.16" y2="195.85" xlink:href="#linear-gradient"/><linearGradient id="linear-gradient-3" x1="12.52" y1="244.9" x2="325.16" y2="244.9" gradientUnits="userSpaceOnUse"><stop offset="0" stop-color="#4c4c4c"/><stop offset="0" stop-color="#4d4d4d"/><stop offset="0.1" stop-color="#828282"/><stop offset="0.2" stop-color="#afafaf"/><stop offset="0.29" stop-color="#d2d2d2"/><stop offset="0.37" stop-color="#ebebeb"/><stop offset="0.45" stop-color="#fafafa"/><stop offset="0.52" stop-color="#fff"/><stop offset="0.57" stop-color="#f7f7f7"/><stop offset="0.65" stop-color="#e1e1e1"/><stop offset="0.75" stop-color="#bebebe"/><stop offset="0.87" stop-color="#8c8c8c"/><stop offset="1" stop-color="#4e4e4e"/><stop offset="1" stop-color="#4c4c4c"/></linearGradient><linearGradient id="linear-gradient-4" x1="0.29" y1="256.84" x2="337.34" y2="256.84" xlink:href="#linear-gradient-3"/><linearGradient id="linear-gradient-5" x1="-7211.01" y1="165.73" x2="-6918.65" y2="165.73" gradientTransform="matrix(-1, 0, 0, 1, -6887.8, 0)" gradientUnits="userSpaceOnUse"><stop offset="0" stop-color="#e0e0e0"/><stop offset="1" stop-color="#727271"/></linearGradient><linearGradient id="linear-gradient-6" x1="-7210.12" y1="190.66" x2="-6919.81" y2="190.66" gradientTransform="matrix(-1, 0, 0, 1, -6887.8, 0)" gradientUnits="userSpaceOnUse"><stop offset="0" stop-color="#fff"/><stop offset="1" stop-color="#c8c8c8"/></linearGradient><linearGradient id="linear-gradient-7" x1="-7193.95" y1="155.43" x2="-7186.95" y2="155.43" gradientTransform="matrix(-1, 0, 0, 1, -6887.8, 0)" gradientUnits="userSpaceOnUse"><stop offset="0" stop-color="#fff"/><stop offset="1" stop-color="#e0e0e0"/></linearGradient><linearGradient id="linear-gradient-8" x1="-7181.75" y1="164.09" x2="-7169.76" y2="164.09" xlink:href="#linear-gradient-7"/><linearGradient id="linear-gradient-9" x1="-7168.15" y1="171.66" x2="-7156.16" y2="171.66" xlink:href="#linear-gradient-7"/><linearGradient id="linear-gradient-10" x1="-7201.02" y1="160.84" x2="-6917.58" y2="160.84" gradientTransform="matrix(-1, 0, 0, 1, -6887.8, 0)" gradientUnits="userSpaceOnUse"><stop offset="0" stop-color="#00c9bc"/><stop offset="0.13" stop-color="#07bcb5"/><stop offset="0.38" stop-color="#189ba4"/><stop offset="0.7" stop-color="#356688"/><stop offset="1" stop-color="#522f6b"/></linearGradient><clipPath id="clip-path"><path class="cls-1" d="M40.23,181.35l179.24-103a6.23,6.23,0,0,1,6.22,0l16.71,9.63c-.28.91-.54,1.7-.94,3.48a3.1,3.1,0,0,0,1.64,3.67c6.68,4.08,26.69,16.09,36.91,21.69,3.29,1.81,4.77,2.63,7.08,2.14a21.4,21.4,0,0,0,5.66-2l20.83,12a6.24,6.24,0,0,1,0,10.81L134.05,243a9.16,9.16,0,0,1-9.18,0L40.21,193.82A7.2,7.2,0,0,1,40.23,181.35Z"/></clipPath><clipPath id="clip-path-2"><path class="cls-1" d="M70.91,176.42c-3.58,2-8.57,2.48-11.14,1S58,173.05,61.6,171s8.57-2.48,11.14-1S74.49,174.39,70.91,176.42Z"/></clipPath><clipPath id="clip-path-3"><path class="cls-1" d="M215.71,97.17c-4.44,2.53-10.62,3.08-13.81,1.23s-2.17-5.4,2.27-7.93S214.8,87.4,218,89.25,220.15,94.65,215.71,97.17Z"/></clipPath><linearGradient id="linear-gradient-11" x1="-7203.91" y1="193.64" x2="-7060.65" y2="159.93" gradientTransform="matrix(-1, 0, 0, 1, -6887.8, 0)" gradientUnits="userSpaceOnUse"><stop offset="0" stop-color="#fff"/><stop offset="0.09" stop-color="#fff" stop-opacity="0.95"/><stop offset="0.25" stop-color="#fff" stop-opacity="0.82"/><stop offset="0.47" stop-color="#fff" stop-opacity="0.61"/><stop offset="0.74" stop-color="#fff" stop-opacity="0.32"/><stop offset="1" stop-color="#fff" stop-opacity="0"/></linearGradient><radialGradient id="radial-gradient" cx="465.95" cy="-1500.52" r="23.43" gradientTransform="matrix(0.62, 0.79, -0.51, 0.96, -929.11, 1202.45)" gradientUnits="userSpaceOnUse"><stop offset="0" stop-color="#ffe200"/><stop offset="1" stop-color="#f4ae1e"/></radialGradient><linearGradient id="linear-gradient-12" x1="459.78" y1="-1492.23" x2="459.78" y2="-1486.55" gradientTransform="matrix(0.91, 0.42, -0.02, 1.09, -323.76, 1564.89)" gradientUnits="userSpaceOnUse"><stop offset="0" stop-color="#460a01"/><stop offset="1" stop-color="#700b10"/></linearGradient><radialGradient id="radial-gradient-2" cx="515.78" cy="-1579.35" r="31.78" gradientTransform="matrix(0.62, 0.79, -0.51, 0.96, -953.29, 1174.92)" xlink:href="#radial-gradient"/><linearGradient id="linear-gradient-13" x1="507.42" y1="-1568.1" x2="507.42" y2="-1560.4" xlink:href="#linear-gradient-12"/><radialGradient id="radial-gradient-3" cx="566.56" cy="-1557.59" r="40.66" gradientTransform="matrix(0.62, 0.79, -0.51, 0.96, -927.44, 1160.02)" xlink:href="#radial-gradient"/><linearGradient id="linear-gradient-14" x1="555.86" y1="-1543.2" x2="555.86" y2="-1533.34" xlink:href="#linear-gradient-12"/><radialGradient id="radial-gradient-4" cx="489.1" cy="-1530.86" r="16.31" gradientTransform="matrix(0.91, 0.42, -0.02, 1.09, -323.76, 1564.89)" xlink:href="#radial-gradient"/><linearGradient id="linear-gradient-15" x1="464.72" y1="-836.85" x2="464.72" y2="-834.69" gradientTransform="matrix(0.9, 0.21, 0.15, 1.14, -148.32, 970.77)" xlink:href="#linear-gradient-12"/><radialGradient id="radial-gradient-5" cx="608.52" cy="-1574.31" r="32.65" gradientTransform="matrix(0.62, 0.79, -0.51, 0.96, -923.78, 1141.21)" xlink:href="#radial-gradient"/><linearGradient id="linear-gradient-16" x1="585.76" y1="-850.74" x2="585.76" y2="-846.4" gradientTransform="matrix(0.9, 0.21, 0.15, 1.14, -148.32, 970.77)" xlink:href="#linear-gradient-12"/></defs><g class="cls-2"><g id="Layer_2" data-name="Layer 2"><g id="Layer_1-2" data-name="Layer 1"><g class="cls-3"><path class="cls-4" d="M337,217.1V216c0,.37,0,.75-.05,1.13.58-25.46-15.89-51.06-49.54-70.49-33-19-76-28.54-119.09-28.54s-86,9.51-118.75,28.53S.66,190.37.69,215.21c0-.08,0-.16,0-.24v1.15c0-.31,0-.6,0-.9,0-.08,0-.16,0-.25L.6,226c-.07,25.09,16.5,50.22,49.67,69.37,32.95,19,76,28.54,119.09,28.53s86-9.5,118.77-28.53c32.52-18.9,48.8-43.62,48.87-68.39L337,216C337,216.33,337,216.72,337,217.1Z"/><path class="cls-5" d="M337,216.5v-1.16c0,.38,0,.75-.05,1.13C337.51,191,321,165.42,287.39,146c-33-19-76-28.53-119.09-28.53S82.28,127,49.55,146,.66,189.76.69,214.61c0-.08,0-.16,0-.24v1.14c0-.3,0-.6,0-.9,0-.08,0-.16,0-.24l0,11c-.07,25.09,16.5,50.22,49.67,69.37,32.95,19,76,28.53,119.09,28.53s86-9.51,118.77-28.53c32.52-18.9,48.8-43.63,48.87-68.4l0-11C337,215.73,337,216.11,337,216.5Z"/><path class="cls-6" d="M337,215.89v-1.15c0,.37,0,.75-.05,1.13.58-25.46-15.89-51.06-49.54-70.49-33-19-76-28.54-119.09-28.54s-86,9.51-118.75,28.53S.66,189.16.69,214c0-.08,0-.16,0-.24v1.14c0-.3,0-.59,0-.89,0-.08,0-.16,0-.25l0,11.05C.53,249.9,17.1,275,50.27,294.18c32.95,19,76,28.54,119.09,28.53s86-9.5,118.77-28.53c32.52-18.9,48.8-43.63,48.87-68.39l0-11C337,215.12,337,215.51,337,215.89Z"/><path class="cls-7" d="M337,215.29v-1.16c0,.38,0,.75-.05,1.13.58-25.46-15.89-51-49.54-70.49-33-19-76-28.53-119.09-28.53s-86,9.51-118.75,28.53S.66,188.55.69,213.4c0-.08,0-.16,0-.24v1.14c0-.3,0-.6,0-.9,0-.08,0-.16,0-.24l0,11c-.07,25.1,16.5,50.23,49.67,69.38,32.95,19,76,28.53,119.09,28.53s86-9.51,118.77-28.53c32.52-18.9,48.8-43.63,48.87-68.4l0-11.05C337,214.52,337,214.9,337,215.29Z"/><path class="cls-8" d="M337,214.68v-1.15c0,.37,0,.75-.05,1.12.58-25.45-15.89-51.05-49.54-70.48-33-19-76-28.54-119.09-28.54s-86,9.51-118.75,28.53S.66,188,.69,212.79c0-.08,0-.16,0-.24v1.14c0-.3,0-.59,0-.89,0-.08,0-.16,0-.25l0,11C.53,248.69,17.1,273.82,50.27,293c32.95,19,76,28.54,119.09,28.53s86-9.5,118.77-28.53c32.52-18.9,48.8-43.63,48.87-68.39l0-11.05C337,213.91,337,214.3,337,214.68Z"/><path class="cls-9" d="M337,214.07v-1.15c0,.38,0,.75-.05,1.13.58-25.46-15.89-51.05-49.54-70.49-33-19-76-28.53-119.09-28.53s-86,9.51-118.75,28.53S.66,187.34.69,212.19c0-.08,0-.16,0-.24v1.14c0-.3,0-.6,0-.9,0-.08,0-.16,0-.24l0,11c-.07,25.1,16.5,50.23,49.67,69.38,32.95,19,76,28.53,119.09,28.53s86-9.51,118.77-28.53c32.52-18.9,48.8-43.63,48.87-68.4l0-11.05C337,213.31,337,213.69,337,214.07Z"/><path class="cls-10" d="M337,213.47v-1.15c0,.37,0,.75-.05,1.12C337.51,188,321,162.39,287.39,143c-33-19-76-28.54-119.09-28.54s-86,9.51-118.75,28.53S.66,186.74.69,211.58c0-.08,0-.16,0-.24v1.14c0-.3,0-.59,0-.89,0-.08,0-.16,0-.25l0,11c-.07,25.09,16.5,50.22,49.67,69.37,32.95,19,76,28.54,119.09,28.53s86-9.5,118.77-28.53c32.52-18.9,48.8-43.63,48.87-68.39l0-11.05C337,212.7,337,213.09,337,213.47Z"/><path class="cls-11" d="M337,212.86v-1.15c0,.38,0,.75-.05,1.13.58-25.46-15.89-51.05-49.54-70.48-33-19-76-28.54-119.09-28.54s-86,9.51-118.75,28.53S.66,186.13.69,211c0-.08,0-.16,0-.24v1.14c0-.3,0-.6,0-.9,0-.08,0-.16,0-.24l0,11C.53,246.87,17.1,272,50.27,291.16c32.95,19,76,28.53,119.09,28.53s86-9.51,118.77-28.53c32.52-18.9,48.8-43.63,48.87-68.4l0-11C337,212.1,337,212.48,337,212.86Z"/><path class="cls-12" d="M337,212.26v-1.15c0,.37,0,.75-.05,1.12.58-25.45-15.89-51-49.54-70.48-33-19-76-28.54-119.09-28.54s-86,9.51-118.75,28.53S.66,185.52.69,210.37c0-.08,0-.16,0-.24v1.14c0-.3,0-.59,0-.89,0-.08,0-.16,0-.25l0,11.05c-.07,25.09,16.5,50.22,49.67,69.37,32.95,19,76,28.54,119.09,28.53s86-9.5,118.77-28.53c32.52-18.9,48.8-43.63,48.87-68.39l0-11C337,211.49,337,211.88,337,212.26Z"/><path class="cls-13" d="M337,211.65V210.5c0,.38,0,.75-.05,1.13.58-25.46-15.89-51-49.54-70.48-33-19-76-28.54-119.09-28.54s-86,9.51-118.75,28.53S.66,184.92.69,209.77c0-.08,0-.16,0-.24v1.14c0-.3,0-.6,0-.9,0-.08,0-.16,0-.24l0,11C.53,245.66,17.1,270.8,50.27,290c32.95,19,76,28.53,119.09,28.53s86-9.51,118.77-28.53c32.52-18.9,48.8-43.63,48.87-68.4l0-11.05C337,210.89,337,211.27,337,211.65Z"/><path class="cls-14" d="M337,211.05V209.9c0,.37,0,.75-.05,1.12.58-25.45-15.89-51.05-49.54-70.48-33-19-76-28.54-119.09-28.54s-86,9.51-118.75,28.53S.66,184.31.69,209.16c0-.08,0-.16,0-.24v1.14c0-.3,0-.6,0-.9,0-.07,0-.16,0-.24L.6,220c-.07,25.09,16.5,50.22,49.67,69.37,32.95,19,76,28.54,119.09,28.53s86-9.5,118.77-28.53c32.52-18.9,48.8-43.63,48.87-68.4l0-11C337,210.28,337,210.67,337,211.05Z"/><path class="cls-15" d="M337,210.44v-1.15c0,.38,0,.75-.05,1.13.58-25.46-15.89-51-49.54-70.48-33-19-76-28.54-119.09-28.54s-86,9.51-118.75,28.52S.66,183.71.69,208.56c0-.08,0-.16,0-.24v1.14c0-.3,0-.6,0-.9,0-.08,0-.16,0-.24l0,11c-.07,25.09,16.5,50.23,49.67,69.38,32.95,19,76,28.53,119.09,28.53s86-9.51,118.77-28.53c32.52-18.9,48.8-43.63,48.87-68.4l0-11.05C337,209.68,337,210.06,337,210.44Z"/><path class="cls-16" d="M337,209.84v-1.15c0,.37,0,.75-.05,1.12.58-25.45-15.89-51.05-49.54-70.48-33-19-76-28.54-119.09-28.54s-86,9.51-118.75,28.53S.66,183.1.69,208c0-.08,0-.16,0-.24v1.14c0-.3,0-.6,0-.9,0-.08,0-.16,0-.24l0,11C.53,243.85,17.1,269,50.27,288.13c32.95,19,76,28.54,119.09,28.53s86-9.5,118.77-28.53c32.52-18.9,48.8-43.63,48.87-68.4l0-11C337,209.07,337,209.46,337,209.84Z"/><path class="cls-17" d="M337,209.23v-1.15c0,.38,0,.75-.05,1.13.58-25.46-15.89-51.05-49.54-70.48-33-19-76-28.55-119.09-28.55s-86,9.52-118.75,28.53S.66,182.5.69,207.35c0-.08,0-.16,0-.24v1.14c0-.3,0-.6,0-.9,0-.08,0-.16,0-.24l0,11c-.07,25.09,16.5,50.23,49.67,69.38,32.95,19,76,28.53,119.09,28.53s86-9.51,118.77-28.53c32.52-18.91,48.8-43.63,48.87-68.4l0-11C337,208.47,337,208.85,337,209.23Z"/><path class="cls-18" d="M337,208.63v-1.15c0,.37,0,.75-.05,1.12.58-25.45-15.89-51-49.54-70.48-33-19-76-28.54-119.09-28.54s-86,9.51-118.75,28.53S.66,181.89.69,206.74c0-.08,0-.16,0-.24v1.14c0-.3,0-.6,0-.9,0-.08,0-.16,0-.24l0,11.05c-.07,25.09,16.5,50.22,49.67,69.37,32.95,19,76,28.54,119.09,28.53s86-9.5,118.77-28.53c32.52-18.9,48.8-43.63,48.87-68.4l0-11C337,207.86,337,208.24,337,208.63Z"/><path class="cls-19" d="M337,208v-1.15c0,.38,0,.75-.05,1.13.58-25.46-15.89-51.05-49.54-70.48-33-19-76-28.55-119.09-28.55s-86,9.51-118.75,28.53S.66,181.29.69,206.14c0-.08,0-.16,0-.24V207c0-.3,0-.6,0-.9,0-.08,0-.16,0-.24l0,11C.53,242,17.1,267.17,50.27,286.32c32.95,19,76,28.53,119.09,28.53s86-9.51,118.77-28.53c32.52-18.91,48.8-43.63,48.87-68.4l0-11C337,207.26,337,207.64,337,208Z"/><path class="cls-20" d="M337,207.42v-1.15c0,.37,0,.75-.05,1.12.58-25.45-15.89-51-49.54-70.48-33-19-76-28.54-119.09-28.54s-86,9.51-118.75,28.53S.66,180.68.69,205.53c0-.08,0-.16,0-.24v1.14c0-.3,0-.6,0-.9,0-.08,0-.16,0-.24l0,11.05c-.07,25.09,16.5,50.22,49.67,69.37,32.95,19,76,28.53,119.09,28.53s86-9.51,118.77-28.53c32.52-18.9,48.8-43.63,48.87-68.4l0-11C337,206.65,337,207,337,207.42Z"/><path class="cls-21" d="M337,206.81v-1.15c0,.38,0,.75-.05,1.13.58-25.46-15.89-51.06-49.54-70.48-33-19-76-28.55-119.09-28.55s-86,9.51-118.75,28.53S.66,180.08.69,204.93c0-.08,0-.16,0-.24v1.14c0-.3,0-.6,0-.9,0-.08,0-.16,0-.24l0,11C.53,240.82,17.1,266,50.27,285.11c32.95,19,76,28.53,119.09,28.53s86-9.51,118.77-28.53c32.52-18.91,48.8-43.63,48.87-68.4l0-11.05C337,206.05,337,206.43,337,206.81Z"/><path class="cls-22" d="M337,206.21v-1.15c0,.37,0,.75-.05,1.12.58-25.45-15.89-51.05-49.54-70.48-33-19-76-28.54-119.09-28.54s-86,9.51-118.75,28.53S.66,179.47.69,204.32c0-.08,0-.16,0-.24v1.14c0-.3,0-.6,0-.9,0-.08,0-.16,0-.24l0,11c-.07,25.09,16.5,50.22,49.67,69.37,32.95,19,76,28.53,119.09,28.53s86-9.51,118.77-28.53c32.52-18.9,48.8-43.63,48.87-68.4l0-11C337,205.44,337,205.82,337,206.21Z"/><path class="cls-23" d="M337,205.6v-1.15c0,.38,0,.75-.05,1.13.58-25.46-15.89-51.06-49.54-70.48-33-19-76-28.55-119.09-28.55s-86,9.51-118.75,28.53S.66,178.87.69,203.72c0-.08,0-.16,0-.24v1.14c0-.3,0-.6,0-.9,0-.08,0-.16,0-.24l0,11c-.07,25.09,16.5,50.23,49.67,69.38,32.95,19,76,28.53,119.09,28.53s86-9.51,118.77-28.53c32.52-18.91,48.8-43.63,48.87-68.4l0-11.05C337,204.83,337,205.22,337,205.6Z"/><path class="cls-24" d="M337,205v-1.15c0,.37,0,.75-.05,1.12.58-25.45-15.89-51.05-49.54-70.48-33-19-76-28.54-119.09-28.54s-86,9.51-118.75,28.53S.66,178.26.69,203.11c0-.08,0-.16,0-.24V204c0-.3,0-.6,0-.9,0-.08,0-.16,0-.24l0,11C.53,239,17.1,264.14,50.27,283.29c32.95,19,76,28.53,119.09,28.53s86-9.51,118.77-28.53c32.52-18.9,48.8-43.63,48.87-68.4l0-11C337,204.23,337,204.61,337,205Z"/><path class="cls-25" d="M337,204.39v-1.15c0,.38,0,.75-.05,1.13.58-25.46-15.89-51.06-49.54-70.48-33-19-76-28.55-119.09-28.55s-86,9.51-118.75,28.53S.66,177.66.69,202.51c0-.08,0-.16,0-.24v1.14c0-.3,0-.6,0-.9,0-.08,0-.16,0-.24l0,11c-.07,25.09,16.5,50.23,49.67,69.38,32.95,19,76,28.53,119.09,28.52s86-9.5,118.77-28.52c32.52-18.91,48.8-43.64,48.87-68.4l0-11C337,203.62,337,204,337,204.39Z"/></g><path class="cls-26" d="M309.54,256.5c-.88.77-1.82,1.53-2.74,2.28C307.72,258,308.66,257.27,309.54,256.5Z"/><path class="cls-26" d="M313.94,252.41c-.78.76-1.62,1.5-2.43,2.26C312.32,253.91,313.16,253.17,313.94,252.41Z"/><path class="cls-26" d="M304.75,260.49c-1,.81-2.09,1.59-3.15,2.37C302.66,262.08,303.74,261.3,304.75,260.49Z"/><path class="cls-26" d="M23.58,252.27c-.64-.63-1.23-1.27-1.85-1.9C22.35,251,22.94,251.64,23.58,252.27Z"/><path class="cls-26" d="M299.58,264.37c-1.2.86-2.48,1.7-3.74,2.54C297.1,266.07,298.38,265.23,299.58,264.37Z"/><path class="cls-26" d="M28.05,256.4c-.7-.62-1.35-1.25-2-1.88C26.7,255.15,27.35,255.78,28.05,256.4Z"/><path class="cls-26" d="M315.78,250.49c.41-.42.83-.85,1.22-1.28,0,0,0,0,0,0C316.61,249.64,316.19,250.06,315.78,250.49Z"/><path class="cls-26" d="M38.15,264.33c-.74-.53-1.42-1.07-2.14-1.59C36.73,263.26,37.41,263.8,38.15,264.33Z"/><path class="cls-26" d="M294,268.13c-1.92,1.23-3.9,2.45-5.94,3.63C290.13,270.58,292.11,269.36,294,268.13Z"/><path class="cls-26" d="M43.78,268.11c-.65-.41-1.24-.84-1.87-1.25C42.54,267.27,43.13,267.7,43.78,268.11Z"/><path class="cls-26" d="M32.9,260.42c-.73-.58-1.42-1.18-2.13-1.77C31.48,259.24,32.17,259.84,32.9,260.42Z"/><path class="cls-26" d="M12.35,197.85c0,.5,0,1,.06,1.5a.22.22,0,0,0,0-.08C12.39,198.8,12.37,198.32,12.35,197.85Z"/><path class="cls-26" d="M324.69,200.47v0Z"/><path class="cls-27" d="M.24,207.2c.07.8.19,1.6.3,2.4s.16,1.52.29,2.28.33,1.61.5,2.41.29,1.51.48,2.26.46,1.61.7,2.4.41,1.51.67,2.25.59,1.6.9,2.4.53,1.48.84,2.21.75,1.61,1.13,2.42.64,1.43,1,2.15.87,1.59,1.32,2.39.77,1.42,1.21,2.13,1,1.58,1.53,2.36.89,1.4,1.38,2.09,1.17,1.57,1.76,2.35,1,1.36,1.54,2,1.33,1.55,2,2.33,1.11,1.32,1.7,2,1.49,1.54,2.23,2.32c.62.63,1.21,1.27,1.85,1.9s1.62,1.5,2.44,2.25,1.33,1.26,2,1.88c.87.76,1.81,1.5,2.72,2.25.71.59,1.4,1.19,2.13,1.77,1,.78,2.07,1.55,3.11,2.32.72.52,1.4,1.06,2.14,1.59,1.21.85,2.49,1.69,3.76,2.53.63.41,1.22.84,1.87,1.25q2.91,1.86,6,3.66c66,38.11,172.7,38.11,238.3,0,2-1.18,4-2.4,5.94-3.63.62-.4,1.2-.82,1.81-1.22,1.26-.84,2.54-1.68,3.74-2.54.7-.49,1.34-1,2-1.51,1.06-.78,2.14-1.56,3.15-2.37.71-.56,1.37-1.14,2.05-1.71.92-.75,1.86-1.51,2.74-2.28.68-.6,1.31-1.22,2-1.83.81-.76,1.65-1.5,2.43-2.26s1.22-1.28,1.84-1.92c.41-.43.83-.85,1.23-1.29s.64-.65.94-1c.6-.65,1.13-1.31,1.69-2s1.33-1.52,1.95-2.29,1-1.36,1.53-2,1.18-1.54,1.72-2.31.9-1.39,1.35-2.08,1-1.56,1.52-2.34.79-1.43,1.19-2.14.89-1.56,1.29-2.35.68-1.44,1-2.17.75-1.57,1.08-2.37.56-1.46.83-2.19.63-1.59.89-2.38.43-1.48.65-2.22.49-1.6.68-2.4.32-1.48.47-2.23.35-1.6.49-2.41.19-1.49.28-2.24.22-1.61.28-2.41.07-1.5.1-2.25c1.07-25.86-15.46-51.94-49.65-71.68C221.26,95.61,114.6,95.61,49,133.72c-32.69,19-49,43.88-49,68.78,0,.8.06,1.6.1,2.41S.18,206.43.24,207.2Zm12-11.81c0,.07,0,.15,0,.23,0-23.1,15.08-46.18,45.4-63.8,60.84-35.35,159.81-35.35,221.06,0,31.7,18.3,47,42.49,46.06,66.47,0-.67.08-1.33.08-2l0,8c0,.67-.06,1.33-.09,2s0,1.4-.09,2.11-.17,1.48-.26,2.22-.15,1.4-.27,2.09-.3,1.49-.45,2.23-.26,1.39-.43,2.08-.42,1.48-.63,2.21-.38,1.38-.61,2.07-.54,1.46-.81,2.19-.49,1.38-.78,2-.67,1.47-1,2.21-.6,1.33-.94,2-.8,1.47-1.21,2.21-.7,1.3-1.09,1.95-.94,1.46-1.41,2.19-.81,1.28-1.25,1.91-1.07,1.45-1.61,2.17-.91,1.25-1.41,1.87-1.21,1.44-1.82,2.15-1,1.22-1.55,1.82-1.36,1.43-2.05,2.14-1.09,1.17-1.67,1.75c-.74.72-1.53,1.42-2.3,2.14-.6.55-1.17,1.11-1.79,1.65-.84.74-1.73,1.46-2.61,2.19-.61.5-1.19,1-1.83,1.51-.92.73-1.9,1.44-2.86,2.15-.65.49-1.27,1-1.93,1.46-1.13.8-2.3,1.57-3.48,2.35-.56.38-1.09.76-1.67,1.13-1.78,1.14-3.61,2.27-5.51,3.37-60.84,35.35-159.8,35.35-221,0q-2.88-1.67-5.58-3.39c-.63-.4-1.2-.81-1.82-1.22-1.15-.76-2.31-1.51-3.4-2.29-.7-.49-1.33-1-2-1.49-1-.71-1.94-1.41-2.87-2.13-.67-.53-1.29-1.08-1.94-1.62-.86-.7-1.74-1.4-2.56-2.11-.64-.57-1.24-1.15-1.86-1.72s-1.55-1.4-2.28-2.11-1.16-1.2-1.74-1.8-1.4-1.4-2-2.12-1.08-1.24-1.61-1.86-1.24-1.42-1.82-2.13-1-1.27-1.43-1.9-1.12-1.44-1.63-2.18-.86-1.29-1.28-1.94-1-1.45-1.43-2.18-.74-1.33-1.12-2-.85-1.47-1.22-2.21-.63-1.32-.94-2-.73-1.5-1.05-2.26-.52-1.35-.78-2-.59-1.5-.84-2.25-.42-1.38-.62-2.07-.46-1.49-.65-2.24-.3-1.4-.44-2.09-.34-1.5-.47-2.25-.18-1.4-.27-2.1-.21-1.5-.27-2.24-.07-1.41-.1-2.11-.08-1.51-.09-2.25c0-.08,0-.15,0-.23Z"/><path class="cls-28" d="M12.33,205.89c0,.7,0,1.4.1,2.11s.18,1.49.27,2.24.16,1.4.27,2.1.31,1.5.47,2.25.27,1.39.44,2.09.43,1.49.65,2.24.38,1.38.62,2.07.56,1.5.84,2.25.49,1.35.78,2,.7,1.51,1.05,2.26.6,1.32.94,2,.81,1.47,1.22,2.21.72,1.33,1.12,2,.95,1.45,1.43,2.18.83,1.3,1.28,1.94,1.08,1.46,1.63,2.18.93,1.27,1.43,1.9,1.21,1.42,1.82,2.13,1,1.25,1.61,1.86,1.35,1.41,2,2.12,1.13,1.2,1.74,1.8,1.51,1.41,2.28,2.11,1.22,1.15,1.86,1.72c.82.71,1.7,1.41,2.56,2.11.65.54,1.27,1.09,1.94,1.62.93.72,1.91,1.42,2.87,2.13.67.5,1.3,1,2,1.49,1.09.78,2.25,1.53,3.4,2.29.62.41,1.19.82,1.82,1.22q2.7,1.72,5.58,3.39c61.24,35.35,160.2,35.35,221,0,1.9-1.1,3.73-2.23,5.51-3.37.58-.37,1.11-.75,1.67-1.13,1.18-.78,2.35-1.55,3.48-2.35.66-.48,1.28-1,1.93-1.46,1-.71,1.94-1.42,2.86-2.15.64-.49,1.22-1,1.83-1.51.88-.73,1.77-1.45,2.61-2.19.62-.54,1.19-1.1,1.79-1.65.77-.72,1.56-1.42,2.3-2.14.58-.58,1.11-1.17,1.67-1.75s1.4-1.42,2.05-2.14,1-1.21,1.55-1.82,1.25-1.42,1.82-2.15.94-1.25,1.41-1.87,1.1-1.44,1.61-2.17.83-1.27,1.25-1.91,1-1.45,1.41-2.19.72-1.3,1.09-1.95.84-1.47,1.21-2.21.63-1.33.94-2,.7-1.47,1-2.21.52-1.36.78-2,.57-1.46.81-2.19.41-1.38.61-2.07.45-1.47.63-2.21.29-1.39.43-2.08.33-1.48.45-2.23.18-1.39.27-2.09.2-1.49.26-2.22.06-1.41.09-2.11.09-1.33.09-2l0-8c0,.67-.06,1.33-.08,2s0,1.4-.1,2.1v.07c-.06.72-.17,1.44-.26,2.16s-.15,1.4-.26,2.09-.3,1.49-.46,2.23-.26,1.38-.43,2.08-.41,1.47-.63,2.21-.38,1.38-.6,2.07-.55,1.46-.82,2.19-.49,1.37-.78,2.05-.67,1.47-1,2.2-.6,1.34-.94,2-.8,1.47-1.21,2.2-.7,1.31-1.09,2-.92,1.44-1.39,2.16-.82,1.3-1.27,1.94-1.05,1.43-1.59,2.14-.92,1.27-1.43,1.9-1.19,1.41-1.79,2.12-1,1.23-1.58,1.85-1.33,1.4-2,2.09-1.12,1.2-1.72,1.79-1.49,1.4-2.23,2.09-1.22,1.15-1.85,1.72c-.81.7-1.68,1.4-2.53,2.1-.64.53-1.25,1.07-1.91,1.6-.9.71-1.86,1.4-2.8,2.1-.67.5-1.31,1-2,1.5-1.12.79-2.3,1.57-3.47,2.35-.57.37-1.1.76-1.68,1.13q-2.65,1.72-5.51,3.37c-60.83,35.35-159.8,35.35-221,0q-2.88-1.67-5.58-3.39c-.59-.38-1.14-.77-1.72-1.16-1.18-.78-2.38-1.56-3.5-2.35-.64-.45-1.23-.92-1.85-1.38-1-.75-2-1.49-3-2.25-.67-.52-1.29-1.07-1.94-1.6-.85-.7-1.74-1.41-2.56-2.12-.65-.57-1.24-1.15-1.87-1.73s-1.55-1.39-2.28-2.1S33,240.62,32.4,240s-1.42-1.43-2.08-2.16-1.06-1.23-1.59-1.85-1.25-1.42-1.83-2.15-1-1.27-1.45-1.91-1.11-1.43-1.62-2.15-.86-1.31-1.29-2-1-1.44-1.42-2.18-.74-1.32-1.11-2-.85-1.46-1.23-2.2-.64-1.35-1-2-.71-1.47-1-2.22-.52-1.36-.78-2.05-.59-1.48-.84-2.22-.41-1.38-.61-2.07-.47-1.49-.66-2.24-.29-1.4-.44-2.09-.34-1.5-.46-2.25-.18-1.4-.28-2.1-.2-1.5-.27-2.24c0-.22,0-.43,0-.63,0-.51,0-1-.06-1.5,0-.74-.08-1.49-.08-2.23,0-.08,0-.16,0-.23l0,8c0,.08,0,.15,0,.23C12.25,204.38,12.3,205.13,12.33,205.89Z"/><path class="cls-29" d="M12.35,197.85c0,.47,0,1,.07,1.42,0,.23,0,.47,0,.71.07.74.18,1.49.27,2.24s.16,1.4.28,2.1.3,1.5.46,2.25.27,1.39.44,2.09.43,1.49.66,2.24.37,1.38.61,2.07.55,1.48.84,2.22.5,1.38.78,2.05.69,1.48,1,2.22.62,1.35,1,2,.81,1.47,1.23,2.2.71,1.33,1.11,2,.95,1.46,1.42,2.18.83,1.31,1.29,2,1.08,1.44,1.62,2.15.93,1.28,1.45,1.91,1.21,1.44,1.83,2.15,1,1.24,1.59,1.85,1.38,1.44,2.08,2.16,1.11,1.18,1.7,1.76,1.52,1.4,2.28,2.1,1.22,1.16,1.87,1.73c.82.71,1.71,1.42,2.56,2.12.65.53,1.27,1.08,1.94,1.6,1,.76,2,1.5,3,2.25.62.46,1.21.93,1.85,1.38,1.12.79,2.32,1.57,3.5,2.35.58.39,1.13.78,1.72,1.16q2.7,1.72,5.58,3.39c61.24,35.35,160.21,35.35,221,0q2.85-1.65,5.51-3.37c.58-.37,1.11-.76,1.68-1.13,1.17-.78,2.35-1.56,3.47-2.35.69-.5,1.33-1,2-1.5.94-.7,1.9-1.39,2.8-2.1.66-.53,1.27-1.07,1.91-1.6.85-.7,1.72-1.4,2.53-2.1.63-.57,1.23-1.15,1.85-1.72s1.51-1.38,2.23-2.09,1.14-1.19,1.72-1.79,1.37-1.38,2-2.09,1.06-1.24,1.58-1.85,1.23-1.41,1.79-2.12,1-1.27,1.43-1.9,1.09-1.42,1.59-2.14.85-1.29,1.27-1.94.95-1.43,1.39-2.16.73-1.31,1.09-2,.84-1.46,1.21-2.2.63-1.34.94-2,.7-1.46,1-2.2.52-1.36.78-2.05.57-1.46.82-2.19.4-1.38.6-2.07.45-1.47.63-2.21.29-1.39.43-2.08.33-1.48.46-2.23.17-1.39.26-2.09.2-1.46.26-2.19v0c.06-.7.07-1.4.1-2.1,1-24-14.36-48.17-46.06-66.47-61.25-35.36-160.22-35.36-221.06,0-30.32,17.62-45.44,40.7-45.4,63.8C12.27,196.36,12.32,197.11,12.35,197.85Z"/><path class="cls-30" d="M.57,207.2c.07.8.2,1.6.3,2.4s.17,1.52.3,2.28.32,1.61.49,2.41.3,1.51.48,2.26.46,1.61.7,2.4.42,1.51.67,2.25.59,1.6.9,2.4.54,1.48.85,2.21.74,1.61,1.12,2.42.65,1.43,1,2.15.88,1.59,1.33,2.39.77,1.42,1.2,2.13,1,1.58,1.54,2.36.88,1.4,1.37,2.09,1.17,1.57,1.76,2.35,1,1.36,1.55,2,1.32,1.55,2,2.33,1.1,1.32,1.7,2,1.48,1.54,2.23,2.32c.62.63,1.2,1.27,1.85,1.9s1.61,1.5,2.43,2.25,1.33,1.26,2,1.88c.87.76,1.8,1.5,2.71,2.25.72.59,1.4,1.19,2.14,1.77,1,.78,2.06,1.55,3.11,2.32.71.52,1.39,1.06,2.13,1.59,1.21.85,2.5,1.69,3.77,2.53.63.41,1.22.84,1.86,1.25q2.91,1.86,6,3.66c66,38.11,172.7,38.11,238.3,0,2-1.18,4-2.4,5.93-3.63.62-.4,1.2-.82,1.81-1.22,1.26-.84,2.54-1.68,3.74-2.54.7-.49,1.35-1,2-1.51,1.06-.78,2.14-1.56,3.15-2.37.72-.56,1.37-1.14,2.06-1.71.92-.75,1.85-1.51,2.73-2.28.69-.6,1.31-1.22,2-1.83s1.65-1.5,2.42-2.26,1.23-1.28,1.84-1.92c.41-.43.84-.85,1.24-1.29s.64-.65.94-1c.59-.65,1.13-1.31,1.69-2s1.33-1.52,1.94-2.29,1-1.36,1.53-2,1.18-1.54,1.72-2.31.91-1.39,1.36-2.08,1-1.56,1.51-2.34.8-1.43,1.2-2.14.89-1.56,1.28-2.35.68-1.44,1-2.17.76-1.57,1.09-2.37.55-1.46.83-2.19.62-1.59.88-2.38.44-1.48.65-2.22.49-1.6.69-2.4.31-1.48.46-2.23.36-1.6.49-2.41.19-1.49.28-2.24.22-1.61.28-2.41.07-1.5.1-2.25c1.07-25.86-15.46-51.94-49.64-71.68-66-38.12-172.72-38.12-238.32,0C16.64,152.72.34,177.6.38,202.5c0,.8,0,1.6.09,2.41S.51,206.43.57,207.2Zm12-11.81c0,.07,0,.15,0,.23,0-23.1,15.09-46.18,45.41-63.8,60.83-35.35,159.8-35.35,221.06,0,31.69,18.3,47,42.49,46.05,66.47,0-.67.09-1.33.09-2l0,8c0,.67-.06,1.33-.09,2s0,1.4-.09,2.11-.17,1.48-.26,2.22-.15,1.4-.27,2.09-.29,1.49-.44,2.23-.26,1.39-.44,2.08-.41,1.48-.63,2.21-.38,1.38-.61,2.07-.54,1.46-.81,2.19-.49,1.38-.78,2-.67,1.47-1,2.21-.59,1.33-.93,2-.81,1.47-1.22,2.21-.7,1.3-1.09,1.95-.93,1.46-1.41,2.19-.81,1.28-1.25,1.91-1.07,1.45-1.61,2.17-.91,1.25-1.4,1.87-1.21,1.44-1.83,2.15-1,1.22-1.54,1.82-1.37,1.43-2.05,2.14-1.09,1.17-1.68,1.75-1.53,1.42-2.3,2.14c-.6.55-1.16,1.11-1.78,1.65-.84.74-1.74,1.46-2.62,2.19-.61.5-1.19,1-1.82,1.51-.92.73-1.9,1.44-2.86,2.15-.65.49-1.27,1-1.94,1.46-1.12.8-2.3,1.57-3.48,2.35-.56.38-1.09.76-1.67,1.13-1.77,1.14-3.61,2.27-5.5,3.37-60.84,35.35-159.81,35.35-221,0-1.91-1.11-3.78-2.24-5.58-3.39-.62-.4-1.2-.81-1.82-1.22-1.14-.76-2.3-1.51-3.4-2.29-.69-.49-1.33-1-2-1.49-1-.71-1.94-1.41-2.86-2.13-.68-.53-1.3-1.08-2-1.62-.86-.7-1.74-1.4-2.55-2.11-.65-.57-1.24-1.15-1.87-1.72s-1.55-1.4-2.28-2.11-1.16-1.2-1.74-1.8-1.39-1.4-2-2.12S29.56,244.65,29,244s-1.24-1.42-1.82-2.13-.95-1.27-1.43-1.9-1.12-1.44-1.63-2.18-.85-1.29-1.28-1.94-1-1.45-1.42-2.18-.75-1.33-1.12-2-.85-1.47-1.23-2.21-.62-1.32-.93-2-.74-1.5-1.06-2.26-.52-1.35-.77-2-.6-1.5-.85-2.25-.41-1.38-.62-2.07-.46-1.49-.64-2.24-.3-1.4-.45-2.09-.34-1.5-.46-2.25-.19-1.4-.27-2.1-.22-1.5-.28-2.24-.07-1.41-.09-2.11-.09-1.51-.09-2.25c0-.08,0-.15,0-.23Z"/><path class="cls-31" d="M12.69,197.85c0,.47,0,1,.07,1.42,0,.23,0,.47,0,.71.06.74.17,1.49.27,2.24s.15,1.4.27,2.1.31,1.5.46,2.25.27,1.39.45,2.09.43,1.49.65,2.24.38,1.38.61,2.07.56,1.48.84,2.22.5,1.38.79,2.05.68,1.48,1,2.22.61,1.35.95,2,.82,1.47,1.23,2.2.72,1.33,1.12,2,.94,1.46,1.42,2.18.83,1.31,1.28,2,1.08,1.44,1.62,2.15.94,1.28,1.45,1.91,1.22,1.44,1.83,2.15,1,1.24,1.59,1.85S32,239.31,32.73,240s1.11,1.18,1.7,1.76,1.52,1.4,2.28,2.1,1.22,1.16,1.87,1.73c.82.71,1.71,1.42,2.57,2.12.65.53,1.26,1.08,1.93,1.6,1,.76,2,1.5,3,2.25.62.46,1.21.93,1.85,1.38,1.13.79,2.32,1.57,3.5,2.35.59.39,1.13.78,1.73,1.16,1.8,1.15,3.65,2.28,5.58,3.39,61.23,35.35,160.2,35.35,221,0q2.83-1.65,5.51-3.37c.57-.37,1.11-.76,1.67-1.13,1.17-.78,2.35-1.56,3.47-2.35.69-.5,1.33-1,2-1.5.94-.7,1.9-1.39,2.8-2.1.66-.53,1.27-1.07,1.92-1.6.84-.7,1.71-1.4,2.52-2.1.64-.57,1.23-1.15,1.85-1.72s1.52-1.38,2.23-2.09,1.15-1.19,1.72-1.79,1.37-1.38,2-2.09,1.05-1.24,1.58-1.85,1.22-1.41,1.79-2.12.95-1.27,1.42-1.9,1.09-1.42,1.59-2.14.85-1.29,1.27-1.94,1-1.43,1.39-2.16.73-1.31,1.1-2,.83-1.46,1.21-2.2.62-1.34.93-2,.71-1.46,1-2.2.51-1.36.77-2.05.57-1.46.82-2.19.4-1.38.6-2.07.46-1.47.64-2.21.28-1.39.43-2.08.33-1.48.45-2.23.18-1.39.26-2.09.2-1.46.26-2.19a.08.08,0,0,1,0,0c.05-.7.06-1.4.09-2.1,1-24-14.36-48.17-46.05-66.47-61.26-35.36-160.23-35.36-221.06,0-30.32,17.62-45.45,40.7-45.41,63.8C12.6,196.36,12.65,197.11,12.69,197.85Z"/><path class="cls-28" d="M337,205.41c0,.75,0,1.5-.1,2.25s-.18,1.61-.28,2.41-.16,1.5-.28,2.24-.33,1.61-.49,2.41-.28,1.49-.47,2.23-.45,1.6-.68,2.4-.41,1.48-.65,2.22-.59,1.58-.89,2.38-.52,1.46-.83,2.19-.72,1.58-1.08,2.37-.65,1.45-1,2.17-.86,1.57-1.29,2.35-.77,1.43-1.19,2.14-1,1.56-1.52,2.34-.87,1.39-1.35,2.08-1.14,1.54-1.72,2.31-1,1.37-1.53,2-1.3,1.53-1.95,2.29-1.09,1.33-1.69,2c-.3.34-.63.67-.95,1s-.81.86-1.22,1.28c-.62.64-1.2,1.29-1.84,1.92s-1.62,1.5-2.43,2.26c-.66.61-1.29,1.23-2,1.83-.88.77-1.82,1.53-2.74,2.28-.68.57-1.34,1.15-2.05,1.71-1,.81-2.09,1.59-3.15,2.37-.68.51-1.32,1-2,1.51-1.2.86-2.48,1.7-3.74,2.54-.61.4-1.19.82-1.81,1.22-1.92,1.23-3.9,2.45-5.94,3.63-65.6,38.12-172.27,38.12-238.3,0q-3.1-1.8-6-3.66c-.65-.41-1.24-.84-1.87-1.25-1.27-.84-2.55-1.68-3.76-2.53-.74-.53-1.42-1.07-2.14-1.59-1-.77-2.11-1.54-3.11-2.32-.73-.58-1.42-1.18-2.13-1.77-.91-.75-1.85-1.49-2.72-2.25-.7-.62-1.35-1.25-2-1.88s-1.66-1.49-2.44-2.25-1.23-1.27-1.85-1.9c-.74-.78-1.52-1.54-2.23-2.32s-1.13-1.32-1.7-2-1.36-1.55-2-2.33-1-1.36-1.54-2-1.21-1.56-1.76-2.35-.92-1.39-1.38-2.09-1.05-1.57-1.53-2.36-.81-1.42-1.21-2.13-.92-1.59-1.32-2.39-.68-1.44-1-2.15-.78-1.61-1.13-2.42-.56-1.48-.84-2.21-.64-1.6-.9-2.4-.45-1.5-.67-2.25-.5-1.59-.7-2.4-.32-1.5-.48-2.26-.36-1.6-.5-2.41-.2-1.51-.29-2.28-.23-1.6-.3-2.4-.07-1.53-.1-2.29S0,203.3,0,202.5c0-.08,0-.17,0-.24l0,11.06c-.07,25.15,16.53,50.32,49.76,69.52,66,38.11,172.7,38.11,238.3,0,32.58-18.93,48.9-43.71,49-68.53l0-11.07C337.06,204,337,204.68,337,205.41Z"/><path class="cls-32" d="M12.62,205.89c0,.7,0,1.4.1,2.11s.17,1.49.27,2.24.15,1.4.27,2.1.31,1.5.46,2.25.27,1.39.45,2.09.43,1.49.65,2.24.38,1.38.61,2.07.57,1.5.85,2.25.49,1.35.78,2,.7,1.51,1.05,2.26.59,1.32.93,2,.82,1.47,1.23,2.21.72,1.33,1.12,2,.95,1.45,1.42,2.18.83,1.3,1.28,1.94,1.09,1.46,1.64,2.18.92,1.27,1.43,1.9S28.37,243.32,29,244s1,1.25,1.6,1.86,1.36,1.41,2,2.12,1.14,1.2,1.75,1.8,1.51,1.41,2.28,2.11,1.21,1.15,1.86,1.72c.82.71,1.7,1.41,2.55,2.11.65.54,1.27,1.09,1.95,1.62.92.72,1.9,1.42,2.86,2.13.67.5,1.32,1,2,1.49,1.1.78,2.26,1.53,3.41,2.29.61.41,1.19.82,1.82,1.22q2.7,1.72,5.58,3.39c61.23,35.35,160.2,35.35,221,0,1.89-1.1,3.73-2.23,5.5-3.37.58-.37,1.11-.75,1.68-1.13,1.17-.78,2.35-1.55,3.47-2.35.67-.48,1.29-1,1.94-1.46,1-.71,1.94-1.42,2.86-2.15.63-.49,1.21-1,1.82-1.51.88-.73,1.78-1.45,2.62-2.19.62-.54,1.19-1.1,1.79-1.65.77-.72,1.56-1.42,2.29-2.14s1.12-1.17,1.68-1.75,1.4-1.42,2.05-2.14,1-1.21,1.55-1.82,1.24-1.42,1.82-2.15.94-1.25,1.41-1.87,1.1-1.44,1.61-2.17.83-1.27,1.24-1.91,1-1.45,1.41-2.19.73-1.3,1.09-1.95.84-1.47,1.22-2.21.62-1.33.93-2,.71-1.47,1-2.21.53-1.36.79-2,.57-1.46.81-2.19.4-1.38.61-2.07.44-1.47.63-2.21.29-1.39.43-2.08.32-1.48.45-2.23.18-1.39.26-2.09.21-1.49.27-2.22.06-1.41.09-2.11.08-1.33.09-2l0-8c0,.67-.06,1.33-.09,2s0,1.4-.1,2.1v.07c-.05.72-.16,1.44-.26,2.16s-.15,1.4-.26,2.09-.29,1.49-.45,2.23-.26,1.38-.43,2.08-.42,1.47-.64,2.21-.37,1.38-.6,2.07-.54,1.46-.82,2.19-.48,1.37-.77,2.05-.67,1.47-1,2.2-.6,1.34-.94,2-.8,1.47-1.21,2.2-.7,1.31-1.09,2-.93,1.44-1.4,2.16-.82,1.3-1.26,1.94-1.06,1.43-1.59,2.14-.92,1.27-1.43,1.9-1.19,1.41-1.79,2.12-1,1.23-1.58,1.85-1.33,1.4-2,2.09-1.12,1.2-1.72,1.79-1.48,1.4-2.23,2.09-1.21,1.15-1.85,1.72c-.8.7-1.67,1.4-2.52,2.1-.64.53-1.26,1.07-1.91,1.6-.91.71-1.87,1.4-2.81,2.1-.67.5-1.3,1-2,1.5-1.12.79-2.31,1.57-3.47,2.35-.57.37-1.1.76-1.68,1.13-1.78,1.15-3.61,2.27-5.51,3.37-60.84,35.35-159.81,35.35-221,0q-2.88-1.67-5.59-3.39c-.58-.38-1.13-.77-1.71-1.16-1.18-.78-2.38-1.56-3.51-2.35-.63-.45-1.22-.92-1.85-1.38-1-.75-2-1.49-3-2.25-.67-.52-1.28-1.07-1.93-1.6-.86-.7-1.74-1.41-2.57-2.12-.65-.57-1.24-1.15-1.86-1.73s-1.55-1.39-2.28-2.1-1.13-1.17-1.7-1.76-1.42-1.43-2.09-2.16S29.55,236.64,29,236s-1.26-1.42-1.84-2.15-1-1.27-1.44-1.91-1.11-1.43-1.63-2.15-.85-1.31-1.28-2-1-1.44-1.42-2.18-.75-1.32-1.12-2-.85-1.46-1.23-2.2-.63-1.35-.95-2-.72-1.47-1-2.22-.52-1.36-.78-2.05-.6-1.48-.84-2.22-.42-1.38-.62-2.07-.46-1.49-.65-2.24-.3-1.4-.45-2.09-.33-1.5-.45-2.25-.19-1.4-.28-2.1-.21-1.5-.27-2.24c0-.22,0-.43-.05-.63,0-.51,0-1,0-1.5,0-.74-.08-1.49-.09-2.23,0-.08,0-.16,0-.23l0,8c0,.08,0,.15,0,.23C12.53,204.38,12.59,205.13,12.62,205.89Z"/><path class="cls-33" d="M337.25,205.41c0,.75,0,1.5-.1,2.25s-.19,1.61-.29,2.41-.16,1.5-.28,2.24-.32,1.61-.48,2.41-.29,1.49-.47,2.23-.45,1.6-.68,2.4-.41,1.48-.65,2.22-.59,1.58-.89,2.38-.53,1.46-.83,2.19-.72,1.58-1.09,2.37-.65,1.45-1,2.17-.86,1.57-1.3,2.35-.76,1.43-1.18,2.14-1,1.56-1.52,2.34-.87,1.39-1.35,2.08-1.15,1.54-1.73,2.31-1,1.37-1.53,2-1.29,1.53-1.94,2.29-1.09,1.33-1.69,2c-.3.34-.64.67-.95,1s-.82.86-1.23,1.28c-.61.64-1.2,1.29-1.84,1.92s-1.61,1.5-2.42,2.26-1.29,1.23-2,1.83c-.87.77-1.81,1.53-2.73,2.28-.69.57-1.34,1.15-2,1.71-1,.81-2.1,1.59-3.15,2.37-.69.51-1.32,1-2,1.51-1.21.86-2.48,1.7-3.75,2.54-.6.4-1.18.82-1.81,1.22-1.91,1.23-3.89,2.45-5.93,3.63-65.61,38.12-172.27,38.12-238.3,0-2.07-1.2-4.07-2.42-6-3.66-.64-.41-1.23-.84-1.86-1.25-1.27-.84-2.55-1.68-3.77-2.53-.73-.53-1.41-1.07-2.13-1.59-1-.77-2.11-1.54-3.11-2.32-.74-.58-1.42-1.18-2.13-1.77-.91-.75-1.85-1.49-2.72-2.25-.71-.62-1.36-1.25-2-1.88s-1.67-1.49-2.44-2.25S22.64,251,22,250.37c-.75-.78-1.52-1.54-2.23-2.32s-1.13-1.32-1.7-2-1.36-1.55-2-2.33-1-1.36-1.55-2-1.2-1.56-1.75-2.35-.92-1.39-1.38-2.09-1.06-1.57-1.54-2.36-.8-1.42-1.2-2.13-.92-1.59-1.33-2.39-.68-1.44-1-2.15-.79-1.61-1.13-2.42-.57-1.48-.85-2.21-.63-1.6-.9-2.4S3,219.7,2.79,219s-.5-1.59-.7-2.4-.32-1.5-.48-2.26-.36-1.6-.49-2.41-.2-1.51-.3-2.28S.6,208,.53,207.2s-.07-1.53-.11-2.29S.33,203.3.33,202.5c0-.08,0-.17,0-.24l0,11.06c-.07,25.15,16.52,50.32,49.76,69.52,66,38.11,172.7,38.11,238.3,0,32.58-18.93,48.89-43.71,49-68.53l0-11.07C337.34,204,337.28,204.68,337.25,205.41Z"/><g class="cls-3"><path class="cls-4" d="M381.1,167c5.74,20.75-72.38,60.47-174.49,88.72S17.07,290,11.33,269.29s72.39-60.47,174.49-88.72S375.36,146.24,381.1,167Z"/><path class="cls-34" d="M373.65,169.05c5.51,19.91-69.47,58-167.46,85.14s-181.9,32.95-187.41,13,69.48-58,167.46-85.14S368.14,149.14,373.65,169.05Z"/><path class="cls-35" d="M366.19,171.11c5.28,19.08-66.54,55.6-160.42,81.57S31.52,284.24,26.24,265.16s66.55-55.59,160.42-81.56S360.91,152,366.19,171.11Z"/><path class="cls-36" d="M358.74,173.18c5,18.23-63.63,53.15-153.39,78S38.74,281.34,33.7,263.1s63.63-53.16,153.38-78S353.69,154.94,358.74,173.18Z"/><path class="cls-37" d="M351.28,175.24c4.82,17.4-60.7,50.72-146.35,74.41S46,278.44,41.15,261s60.72-50.72,146.35-74.41S346.47,157.84,351.28,175.24Z"/><path class="cls-38" d="M343.83,177.3c4.58,16.57-57.79,48.28-139.32,70.83S53.19,275.54,48.61,259s57.79-48.28,139.31-70.84S339.24,160.74,343.83,177.3Z"/><path class="cls-39" d="M336.37,179.36c4.35,15.73-54.87,45.84-132.27,67.26s-143.69,26-148,10.29,54.88-45.84,132.28-67.25S332,163.63,336.37,179.36Z"/><path class="cls-40" d="M328.92,181.43C333,196.32,277,224.83,203.68,245.1s-136,24.64-140.16,9.75,52-43.4,125.24-63.68S324.8,166.53,328.92,181.43Z"/><path class="cls-41" d="M321.46,183.49c3.89,14-49,41-118.2,60.1S74.86,266.84,71,252.79s49-41,118.21-60.1S317.57,169.43,321.46,183.49Z"/><path class="cls-42" d="M314,185.55c3.65,13.22-46.11,38.53-111.17,56.52S82.09,263.94,78.43,250.72s46.11-38.52,111.16-56.52S310.35,172.33,314,185.55Z"/><path class="cls-43" d="M306.55,187.61C310,200,263.36,223.7,202.42,240.56S89.31,261,85.88,248.66s43.2-36.08,104.13-52.94S303.13,175.23,306.55,187.61Z"/><path class="cls-44" d="M299.1,189.68c3.19,11.54-40.27,33.64-97.1,49.36S96.53,258.14,93.34,246.6s40.28-33.65,97.09-49.37S295.9,178.13,299.1,189.68Z"/><path class="cls-45" d="M291.64,191.74c3,10.71-37.35,31.21-90.06,45.79s-97.82,17.71-100.78,7,37.35-31.21,90.05-45.79S288.68,181,291.64,191.74Z"/><path class="cls-46" d="M284.19,193.8c2.73,9.87-34.44,28.77-83,42.21s-90.18,16.34-92.91,6.46,34.44-28.77,83-42.21S281.45,183.93,284.19,193.8Z"/><path class="cls-47" d="M276.73,195.86c2.5,9-31.51,26.34-76,38.64s-82.53,14.95-85,5.91,31.51-26.33,76-38.63S274.23,186.83,276.73,195.86Z"/><path class="cls-48" d="M269.28,197.93c2.26,8.19-28.6,23.89-69,35.06s-74.89,13.56-77.16,5.36,28.6-23.9,69-35.06S267,189.73,269.28,197.93Z"/><path class="cls-49" d="M261.82,200c2,7.36-25.67,21.45-61.92,31.48s-67.25,12.18-69.28,4.82,25.67-21.46,61.91-31.48S259.78,192.63,261.82,200Z"/><path class="cls-50" d="M254.37,202.05c1.8,6.53-22.76,19-54.88,27.91s-59.61,10.79-61.42,4.26,22.76-19,54.88-27.9S252.56,195.53,254.37,202.05Z"/><path class="cls-51" d="M246.91,204.11c1.57,5.69-19.84,16.58-47.84,24.33s-52,9.41-53.54,3.72,19.84-16.58,47.84-24.32S245.34,198.42,246.91,204.11Z"/><path class="cls-52" d="M239.46,206.18c1.34,4.85-16.92,14.14-40.81,20.75s-44.32,8-45.67,3.17S169.9,216,193.79,209.35,238.11,201.32,239.46,206.18Z"/><path class="cls-53" d="M232,208.24c1.11,4-14,11.7-33.77,17.17s-36.68,6.64-37.79,2.63,14-11.71,33.76-17.18S230.89,204.22,232,208.24Z"/><path class="cls-54" d="M224.55,210.3c.87,3.18-11.08,9.26-26.74,13.6s-29,5.25-29.91,2.07,11.07-9.26,26.72-13.59S223.67,207.12,224.55,210.3Z"/></g><path class="cls-55" d="M320.09,156.09,142.4,258.69a18.25,18.25,0,0,1-18.25,0l-81.44-47a15,15,0,0,1,0-25.93L220.41,83.15a18.25,18.25,0,0,1,18.25,0l81.43,47A15,15,0,0,1,320.09,156.09Z"/><path class="cls-56" d="M320,156,142.27,258.56a18.25,18.25,0,0,1-18.25,0l-81.43-47a15,15,0,0,1,0-25.93L220.28,83a18.25,18.25,0,0,1,18.25,0L320,130A15,15,0,0,1,320,156Z"/><path class="cls-57" d="M319.85,155.85,142.15,258.44a18.25,18.25,0,0,1-18.25,0l-81.43-47a15,15,0,0,1,0-25.93L220.16,82.9a18.25,18.25,0,0,1,18.25,0l81.44,47A15,15,0,0,1,319.85,155.85Z"/><path class="cls-58" d="M319.73,155.73,142,258.32a18.25,18.25,0,0,1-18.25,0l-81.43-47a15,15,0,0,1,0-25.94L220,82.78a18.25,18.25,0,0,1,18.25,0l81.44,47A15,15,0,0,1,319.73,155.73Z"/><path class="cls-59" d="M319.61,155.61,141.91,258.2a18.25,18.25,0,0,1-18.25,0l-81.44-47a15,15,0,0,1,0-25.93L219.92,82.66a18.25,18.25,0,0,1,18.25,0l81.44,47A15,15,0,0,1,319.61,155.61Z"/><path class="cls-60" d="M319.48,155.49,141.79,258.08a18.25,18.25,0,0,1-18.25,0l-81.44-47a15,15,0,0,1,0-25.93L219.8,82.54a18.25,18.25,0,0,1,18.25,0l81.43,47A15,15,0,0,1,319.48,155.49Z"/><path class="cls-61" d="M319.36,155.37,141.67,258a18.25,18.25,0,0,1-18.25,0L42,210.94A15,15,0,0,1,42,185L219.68,82.42a18.25,18.25,0,0,1,18.25,0l81.43,47A15,15,0,0,1,319.36,155.37Z"/><path class="cls-62" d="M319.24,155.24,141.55,257.84a18.25,18.25,0,0,1-18.25,0l-81.44-47a15,15,0,0,1,0-25.93L219.56,82.3a18.25,18.25,0,0,1,18.25,0l81.43,47A15,15,0,0,1,319.24,155.24Z"/><path class="cls-63" d="M319.12,155.12,141.42,257.71a18.25,18.25,0,0,1-18.25,0l-81.43-47a15,15,0,0,1,0-25.93L219.43,82.17a18.25,18.25,0,0,1,18.25,0l81.44,47A15,15,0,0,1,319.12,155.12Z"/><path class="cls-64" d="M319,155,141.3,257.59a18.25,18.25,0,0,1-18.25,0l-81.43-47a15,15,0,0,1,0-25.93L219.31,82.05a18.25,18.25,0,0,1,18.25,0l81.44,47A15,15,0,0,1,319,155Z"/><path class="cls-65" d="M318.88,154.88,141.18,257.47a18.25,18.25,0,0,1-18.25,0l-81.43-47a15,15,0,0,1,0-25.94L219.19,81.93a18.25,18.25,0,0,1,18.25,0l81.44,47A15,15,0,0,1,318.88,154.88Z"/><path class="cls-66" d="M318.75,154.76,141.06,257.35a18.25,18.25,0,0,1-18.25,0l-81.44-47a15,15,0,0,1,0-25.93L219.07,81.81a18.25,18.25,0,0,1,18.25,0l81.43,47A15,15,0,0,1,318.75,154.76Z"/><path class="cls-67" d="M318.63,154.64,140.94,257.23a18.25,18.25,0,0,1-18.25,0l-81.44-47a15,15,0,0,1,0-25.93L219,81.69a18.25,18.25,0,0,1,18.25,0l81.43,47A15,15,0,0,1,318.63,154.64Z"/><path class="cls-68" d="M318.51,154.51,140.82,257.11a18.25,18.25,0,0,1-18.25,0l-81.44-47a15,15,0,0,1,0-25.93L218.83,81.57a18.25,18.25,0,0,1,18.25,0l81.43,47A15,15,0,0,1,318.51,154.51Z"/><path class="cls-69" d="M318.39,154.39,140.7,257a18.25,18.25,0,0,1-18.25,0L41,210A15,15,0,0,1,41,184L218.71,81.45a18.25,18.25,0,0,1,18.25,0l81.43,47A15,15,0,0,1,318.39,154.39Z"/><path class="cls-70" d="M318.27,154.27,140.57,256.86a18.25,18.25,0,0,1-18.25,0l-81.43-47a15,15,0,0,1,0-25.93L218.58,81.32a18.25,18.25,0,0,1,18.25,0l81.44,47A15,15,0,0,1,318.27,154.27Z"/><path class="cls-71" d="M318.15,154.15,140.45,256.74a18.25,18.25,0,0,1-18.25,0l-81.43-47a15,15,0,0,1,0-25.93L218.46,81.2a18.25,18.25,0,0,1,18.25,0l81.44,47A15,15,0,0,1,318.15,154.15Z"/><path class="cls-72" d="M318,154,140.33,256.62a18.25,18.25,0,0,1-18.25,0l-81.43-47a15,15,0,0,1,0-25.93L218.34,81.08a18.25,18.25,0,0,1,18.25,0l81.44,47A15,15,0,0,1,318,154Z"/><path class="cls-73" d="M317.9,153.91,140.21,256.5a18.25,18.25,0,0,1-18.25,0l-81.44-47a15,15,0,0,1,0-25.93L218.22,81a18.25,18.25,0,0,1,18.25,0l81.43,47A15,15,0,0,1,317.9,153.91Z"/><path class="cls-74" d="M317.78,153.79,140.09,256.38a18.25,18.25,0,0,1-18.25,0l-81.44-47a15,15,0,0,1,0-25.93L218.1,80.84a18.25,18.25,0,0,1,18.25,0l81.43,47A15,15,0,0,1,317.78,153.79Z"/><path class="cls-75" d="M317.66,153.66,140,256.26a18.25,18.25,0,0,1-18.25,0l-81.44-47a15,15,0,0,1,0-25.93L218,80.72a18.25,18.25,0,0,1,18.25,0l81.43,47A15,15,0,0,1,317.66,153.66Z"/><path class="cls-76" d="M317.54,153.54l-177.7,102.6a18.25,18.25,0,0,1-18.25,0l-81.43-47a15,15,0,0,1,0-25.93L217.86,80.6a18.25,18.25,0,0,1,18.25,0l81.43,47A15,15,0,0,1,317.54,153.54Z"/><path class="cls-77" d="M317.42,153.42,139.72,256a18.25,18.25,0,0,1-18.25,0L40,209a15,15,0,0,1,0-25.93L217.73,80.47a18.25,18.25,0,0,1,18.25,0l81.44,47A15,15,0,0,1,317.42,153.42Z"/><path class="cls-78" d="M317.3,153.3,139.6,255.89a18.25,18.25,0,0,1-18.25,0l-81.43-47a15,15,0,0,1,0-25.93L217.61,80.35a18.25,18.25,0,0,1,18.25,0l81.44,47A15,15,0,0,1,317.3,153.3Z"/><path class="cls-79" d="M317.18,153.18,139.48,255.77a18.25,18.25,0,0,1-18.25,0l-81.43-47a15,15,0,0,1,0-25.93L217.49,80.23a18.25,18.25,0,0,1,18.25,0l81.44,47A15,15,0,0,1,317.18,153.18Z"/><path class="cls-80" d="M317.05,153.06,139.36,255.65a18.25,18.25,0,0,1-18.25,0l-81.44-47a15,15,0,0,1,0-25.93L217.37,80.11a18.25,18.25,0,0,1,18.25,0l81.43,47A15,15,0,0,1,317.05,153.06Z"/><path class="cls-81" d="M316.93,152.94,139.24,255.53a18.25,18.25,0,0,1-18.25,0l-81.44-47a15,15,0,0,1,0-25.93L217.25,80a18.25,18.25,0,0,1,18.25,0l81.43,47A15,15,0,0,1,316.93,152.94Z"/><path class="cls-82" d="M316.81,152.81,139.12,255.41a18.25,18.25,0,0,1-18.25,0l-81.44-47a15,15,0,0,1,0-25.93L217.13,79.87a18.25,18.25,0,0,1,18.25,0l81.43,47A15,15,0,0,1,316.81,152.81Z"/><path class="cls-83" d="M316.69,152.69,139,255.29a18.25,18.25,0,0,1-18.25,0l-81.43-47a15,15,0,0,1,0-25.93L217,79.75a18.25,18.25,0,0,1,18.25,0l81.44,47A15,15,0,0,1,316.69,152.69Z"/><path class="cls-84" d="M316.57,152.57,138.87,255.16a18.25,18.25,0,0,1-18.25,0l-81.43-47a15,15,0,0,1,0-25.93L216.88,79.62a18.25,18.25,0,0,1,18.25,0l81.44,47A15,15,0,0,1,316.57,152.57Z"/><path class="cls-85" d="M316.45,152.45,138.75,255a18.25,18.25,0,0,1-18.25,0L39.07,208a15,15,0,0,1,0-25.94L216.76,79.5a18.25,18.25,0,0,1,18.25,0l81.44,47A15,15,0,0,1,316.45,152.45Z"/><path class="cls-86" d="M316.33,152.33,138.63,254.92a18.25,18.25,0,0,1-18.25,0L39,207.9A15,15,0,0,1,39,182L216.64,79.38a18.25,18.25,0,0,1,18.25,0l81.44,47A15,15,0,0,1,316.33,152.33Z"/><path class="cls-87" d="M316.2,152.21,138.51,254.8a18.25,18.25,0,0,1-18.25,0l-81.44-47a15,15,0,0,1,0-25.93L216.52,79.26a18.25,18.25,0,0,1,18.25,0l81.43,47A15,15,0,0,1,316.2,152.21Z"/><path class="cls-88" d="M316.08,152.09,138.39,254.68a18.25,18.25,0,0,1-18.25,0l-81.44-47a15,15,0,0,1,0-25.93L216.4,79.14a18.25,18.25,0,0,1,18.25,0l81.43,47A15,15,0,0,1,316.08,152.09Z"/><path class="cls-89" d="M316,152,138.27,254.56a18.25,18.25,0,0,1-18.25,0l-81.44-47a15,15,0,0,1,0-25.93L216.28,79a18.25,18.25,0,0,1,18.25,0L316,126A15,15,0,0,1,316,152Z"/><path class="cls-90" d="M315.84,151.84l-177.7,102.6a18.25,18.25,0,0,1-18.25,0l-81.43-47a15,15,0,0,1,0-25.93L216.15,78.9a18.25,18.25,0,0,1,18.25,0l81.44,47A15,15,0,0,1,315.84,151.84Z"/><path class="cls-91" d="M315.72,151.72,138,254.31a18.25,18.25,0,0,1-18.25,0l-81.43-47a15,15,0,0,1,0-25.93L216,78.77a18.25,18.25,0,0,1,18.25,0l81.44,47A15,15,0,0,1,315.72,151.72Z"/><path class="cls-92" d="M315.72,150.9,138,253.5a18.25,18.25,0,0,1-18.25,0l-81.43-47a15,15,0,0,1,0-25.93L216,78a18.25,18.25,0,0,1,18.25,0l81.44,47A15,15,0,0,1,315.72,150.9Z"/><path class="cls-93" d="M38.34,204.35l81.44,47a18.25,18.25,0,0,0,18.25,0L315.72,148.78a14.82,14.82,0,0,0,7.45-11.91,14.87,14.87,0,0,1-7.45,14L138,253.5a18.25,18.25,0,0,1-18.25,0l-81.44-47a14.84,14.84,0,0,1-7.44-14A14.77,14.77,0,0,0,38.34,204.35Z"/><path class="cls-94" d="M316.82,141.06,137.64,244.5a17.33,17.33,0,0,1-17.34,0l-83-47.91a8.92,8.92,0,0,1,0-15.45L216.42,77.73a17.49,17.49,0,0,1,17.48,0l82.92,47.88A8.92,8.92,0,0,1,316.82,141.06Z"/><path class="cls-95" d="M32.56,188.89a8.86,8.86,0,0,0,4.32,9.28l83,47.92a17.35,17.35,0,0,0,17.35,0L316.39,142.64c5.1-2.79,6.63-7.37,4.65-11.35a9.2,9.2,0,0,1-3.18,12.56L138.36,247.48a19.09,19.09,0,0,1-19.09,0l-83.07-48C33.38,197.88,30.85,192.31,32.56,188.89Z"/><path class="cls-96" d="M299.69,155.66l5.39-3.07a.79.79,0,0,1,.22-.09c.34-.06.6.21.61.69a1.83,1.83,0,0,1-.79,1.52l-5.39,3.07a.48.48,0,0,1-.75-.22.86.86,0,0,1-.07-.38A1.8,1.8,0,0,1,299.69,155.66Z"/><path class="cls-97" d="M299.93,155.9l5.4-3.07a.65.65,0,0,1,.22-.08c.33-.07.59.2.6.68a1.85,1.85,0,0,1-.78,1.52L300,158a.48.48,0,0,1-.75-.22,1,1,0,0,1-.07-.38A1.88,1.88,0,0,1,299.93,155.9Z"/><path class="cls-96" d="M282.49,165.74l10.39-5.9a.68.68,0,0,1,.22-.09c.34-.06.59.2.6.69a1.88,1.88,0,0,1-.78,1.52l-10.39,5.9a.49.49,0,0,1-.75-.22,1.13,1.13,0,0,1-.07-.39A1.85,1.85,0,0,1,282.49,165.74Z"/><path class="cls-98" d="M282.74,166l10.38-5.9a.74.74,0,0,1,.22-.08c.34-.07.59.2.6.68a1.85,1.85,0,0,1-.78,1.52l-10.38,5.9a.48.48,0,0,1-.75-.22,1,1,0,0,1-.08-.38A1.83,1.83,0,0,1,282.74,166Z"/><path class="cls-96" d="M268.9,173.31l10.38-5.9a.57.57,0,0,1,.22-.09c.34-.06.6.2.61.69a1.88,1.88,0,0,1-.78,1.52l-10.39,5.9a.49.49,0,0,1-.75-.22,1.13,1.13,0,0,1-.07-.39A1.85,1.85,0,0,1,268.9,173.31Z"/><path class="cls-99" d="M269.14,173.55l10.39-5.9a1,1,0,0,1,.22-.09c.34-.06.59.21.6.69a1.85,1.85,0,0,1-.78,1.52l-10.39,5.9a.47.47,0,0,1-.74-.22.89.89,0,0,1-.08-.38A1.85,1.85,0,0,1,269.14,173.55Z"/><path class="cls-100" d="M43.19,179.65,219.47,78.3a6.23,6.23,0,0,1,6.22,0l16.71,9.63c-.28.91-.54,1.7-.94,3.48a3.1,3.1,0,0,0,1.64,3.67c6.68,4.08,26.69,16.09,36.91,21.69,3.29,1.81,4.77,2.63,7.08,2.14a21.4,21.4,0,0,0,5.66-2l20.83,12a6.24,6.24,0,0,1,0,10.81L134.05,243a9.16,9.16,0,0,1-9.18,0L43.16,195.54A9.17,9.17,0,0,1,43.19,179.65Z"/><g class="cls-101"><polygon class="cls-102" points="170.89 224.4 66.57 163.83 46.38 175.31 150.7 235.88 170.89 224.4"/><polygon class="cls-102" points="150.71 235.87 46.38 175.31 26.19 186.79 130.51 247.35 150.71 235.87"/><polygon class="cls-103" points="171.04 224.31 66.72 163.75 66.57 163.83 170.89 224.4 171.04 224.31"/><path class="cls-104" d="M164.33,223.52c.24.14.16.41-.17.6l-11.58,6.58a1.18,1.18,0,0,1-1,.09L67.41,182c-.24-.14-.16-.41.17-.6l11.58-6.58a1.18,1.18,0,0,1,1-.09Zm.17-.1L80.37,174.58a1.55,1.55,0,0,0-1.34.12l-11.57,6.58c-.43.24-.53.59-.22.76l84.13,48.84a1.52,1.52,0,0,0,1.33-.11l11.58-6.58C164.71,223.94,164.8,223.6,164.5,223.42Z"/><path class="cls-105" d="M164.16,224.12c.33-.19.41-.46.17-.6L80.2,174.68a1.18,1.18,0,0,0-1,.09l-11.58,6.58c-.33.19-.41.46-.17.6l84.13,48.84a1.18,1.18,0,0,0,1-.09Z"/><path class="cls-106" d="M76.64,178.73l.46.27c-1.4,1.09-1.58,1.23-1.89,1.44l2.5-1.09.46.27c-1.43,1.08-1.57,1.18-1.92,1.43L78.81,180l.43.25-3.6,1.39-.41-.24c1.27-1,1.53-1.15,2-1.53-.66.3-.91.4-2.69,1.16l-.4-.23Z"/><path class="cls-106" d="M78.68,180.82l.39.22-.39.22a1.19,1.19,0,0,1,.87,0l.06.05-.6.34-.1-.07a.9.9,0,0,0-.9.09l-1.17.67-.4-.23Z"/><path class="cls-106" d="M80.47,181.55l-.4-.23.55-.31.4.23Zm-.26.15L78,183l-.4-.23,2.25-1.28Z"/><path class="cls-106" d="M81,182.18l.25.15-.42.24-.25-.15-1.22.7c-.13.07-.18.1,0,.2l.1,0-.45.25-.2-.1,0,0c-.34-.2-.21-.35.08-.51l1.36-.78-.2-.12.42-.24.21.12.6-.34.4.23Z"/><path class="cls-106" d="M81.25,184.13a1.64,1.64,0,0,1-1.39,0c-.42-.25-.45-.61.48-1.13a2.09,2.09,0,0,1,1.86-.23c.3.18.5.54-.52,1.12l-.11.06-1-.6c-.16.1-.51.33-.19.51a.57.57,0,0,0,.5,0Zm.29-.62c.34-.22.3-.37.17-.45a.9.9,0,0,0-.78.09Z"/><path class="cls-106" d="M83.33,185.59c-.27.15-.28.21-.26.25l-.09,0-.43-.25a1.72,1.72,0,0,1,.23-.17,1.27,1.27,0,0,1-.82-.1c-.22-.13-.27-.37.2-.64a1.35,1.35,0,0,1,1.16-.15l.44.16a.35.35,0,0,0,.31,0c.25-.14.11-.24,0-.3a.58.58,0,0,0-.55,0l-.39-.23a1.39,1.39,0,0,1,1.46,0c.22.13.51.41,0,.72Zm.27-.6a1,1,0,0,1-.4-.08.64.64,0,0,0-.61,0c-.2.12-.16.22-.08.26a.88.88,0,0,0,.8,0Z"/><path class="cls-106" d="M86.16,186.8a1.85,1.85,0,0,1-1.57.1c-.57-.33,0-.78.42-1a2,2,0,0,1,2-.29c.24.14.48.46-.19.88l-.4-.24c.13-.09.3-.26.1-.36s-.69,0-1,.19-.73.42-.42.59a.81.81,0,0,0,.66-.06Z"/><path class="cls-106" d="M86.25,187.86c-.41-.24-.4-.66.41-1.12a2.06,2.06,0,0,1,2-.22c.4.23.4.66-.41,1.12A2.06,2.06,0,0,1,86.25,187.86Zm1.87-1.06c-.31-.18-.76,0-1.05.18s-.63.42-.32.6.76,0,1-.18S88.43,187,88.12,186.8Z"/><path class="cls-106" d="M89.53,189.7l-.4-.23,1.37-.78c.33-.19.34-.31.22-.38a.77.77,0,0,0-.73.11l-1.34.76-.4-.23,1.35-.77c.19-.11.45-.26.22-.39a.71.71,0,0,0-.69.1l-1.37.78-.4-.23,2.25-1.28.38.22-.33.19a1.17,1.17,0,0,1,.82,0c.22.13.21.25.07.45a1.18,1.18,0,0,1,.76,0c.3.17.27.45-.22.73Z"/><path class="cls-106" d="M92.06,191.17l-.39-.23,1.36-.78c.33-.19.34-.31.23-.38a.77.77,0,0,0-.73.11l-1.35.76-.4-.23,1.35-.77c.19-.1.46-.26.22-.39a.72.72,0,0,0-.69.1l-1.37.78-.4-.23,2.25-1.28.38.22-.33.19a1.2,1.2,0,0,1,.83,0c.22.13.2.25.06.45a1.18,1.18,0,0,1,.76,0c.3.17.27.45-.22.73Z"/><path class="cls-106" d="M94.39,191.76a1.61,1.61,0,0,1-1.38,0c-.43-.25-.45-.61.47-1.14a2.12,2.12,0,0,1,1.86-.22c.3.17.5.53-.52,1.12l-.11.06-1-.61c-.16.11-.51.34-.19.52a.57.57,0,0,0,.5,0Zm.29-.62c.35-.22.3-.37.17-.45a.87.87,0,0,0-.78.09Z"/><path class="cls-106" d="M95.38,193.09l-.4-.23,1.37-.77c.16-.1.44-.26.18-.41a.88.88,0,0,0-.83.12l-1.29.73-.4-.23L96.26,191l.38.22-.33.19a1.21,1.21,0,0,1,.85,0c.3.17.27.45-.22.73Z"/><path class="cls-106" d="M98.45,192.29l.25.15-.43.24-.24-.15-1.23.7c-.13.07-.17.1,0,.19l.09.05-.45.25-.19-.1-.06,0c-.34-.2-.21-.35.08-.51l1.37-.78-.21-.12.42-.24.21.12.61-.35.4.24Z"/><path class="cls-106" d="M96.91,194c-.11-.07-.08-.2.09-.29h0a.56.56,0,0,1,.51-.05c.12.07.08.2-.08.29l0,0A.58.58,0,0,1,96.91,194Z"/><path class="cls-106" d="M97.71,194.44c-.12-.07-.09-.2.08-.29h0a.56.56,0,0,1,.51,0c.12.07.08.2-.08.29l0,0A.59.59,0,0,1,97.71,194.44Z"/><path class="cls-106" d="M98.5,194.9c-.12-.07-.08-.2.08-.29h0a.56.56,0,0,1,.51,0c.12.07.08.2-.08.29l0,0A.59.59,0,0,1,98.5,194.9Z"/><path class="cls-107" d="M156.71,224.19l-.91-.53a.15.15,0,0,1,0-.24l.41-.53a.17.17,0,0,0,0-.28l-1-.57-1-.58a.63.63,0,0,0-.48,0l-.93.23a.55.55,0,0,1-.41,0l-.91-.52a.66.66,0,0,0-.59,0l-4.71,2.68c-.19.1-.23.26-.09.33l5.3,3.08a.66.66,0,0,0,.59-.05l4.71-2.68C156.8,224.42,156.84,224.27,156.71,224.19Z"/><path class="cls-107" d="M149.94,225c-.69-.4-.47-1.17.49-1.72a3.42,3.42,0,0,1,3-.26c.69.4.47,1.17-.49,1.71A3.39,3.39,0,0,1,149.94,225Z"/><path class="cls-105" d="M153.08,223.2c.55.32.38.94-.4,1.38a2.77,2.77,0,0,1-2.41.22c-.55-.33-.37-1,.4-1.39A2.76,2.76,0,0,1,153.08,223.2Zm.67-.38a4.06,4.06,0,0,0-3.56.31c-1.15.65-1.41,1.57-.59,2.05a4.08,4.08,0,0,0,3.57-.32C154.31,224.21,154.57,223.3,153.75,222.82Z"/><path class="cls-108" d="M70.91,176.42c-3.58,2-8.57,2.48-11.14,1S58,173.05,61.6,171s8.57-2.48,11.14-1S74.49,174.39,70.91,176.42Z"/><g class="cls-109"><path class="cls-110" d="M65.17,177a1.93,1.93,0,0,1-.22-1.09,1.77,1.77,0,0,1,.69-.66.77.77,0,0,1,.7-.07l.19.11h.06a.34.34,0,0,1,.21-.2,1.47,1.47,0,0,0,.44.19A.77.77,0,0,0,68,175a.75.75,0,0,1,.47-.33A8.78,8.78,0,0,0,71,173.36c2.24-1.74,1.18-2.47,1.18-2.47a1.15,1.15,0,0,0-1-.28c-.91-.84-3.32.15-4.14.46a5.9,5.9,0,0,0-2.33,1.43,1,1,0,0,1-.58.26c-.32.07-.55.29-.43.43a1.15,1.15,0,0,0,.33.25c-.08.1-.35.12-.35.12l0,0,.19.11c.16.09.1.28-.14.4a3.83,3.83,0,0,1-1.15.39,10,10,0,0,1-1.89-.14,5.62,5.62,0,0,0-2.8.2l-.11.05-.54.31c-.63.36-.77.86-.32,1.13l5.26,3a2.23,2.23,0,0,0,2-.17l.54-.31a.24.24,0,0,0,.09-.06A1.3,1.3,0,0,0,65.17,177Z"/></g><polygon class="cls-105" points="171.04 224.31 66.72 163.75 221.16 75.54 326.57 135.51 171.04 224.31"/><path class="cls-111" d="M160.44,209.61c-.18.11-.47.35,0,.6a.9.9,0,0,0,.93,0c.26-.15.15-.3,0-.49l-.17-.2c-.26-.29-.52-.58.22-1a2,2,0,0,1,1.95,0c.73.43.26.92-.15,1.16l-.48-.28c.14-.09.45-.32,0-.57a.84.84,0,0,0-.82,0c-.26.15-.16.27-.1.35l.39.45c.21.26.33.54-.27.88a2.05,2.05,0,0,1-2,.07c-.88-.51-.32-1,.09-1.23Z"/><path class="cls-111" d="M162.8,212.16l-.46-.27,1.5-.85c.18-.11.48-.28.18-.46a1,1,0,0,0-.94.12l-1.41.8-.47-.27,3.34-1.9.46.27-1.18.68a1.25,1.25,0,0,1,.91.08c.34.2.33.52-.22.83Z"/><path class="cls-111" d="M165.09,212.93c-.3.17-.31.23-.29.28l-.09.06-.51-.29a1.36,1.36,0,0,1,.25-.2,1.43,1.43,0,0,1-.93-.13c-.27-.15-.33-.43.18-.72a1.53,1.53,0,0,1,1.31-.15l.51.19a.38.38,0,0,0,.36,0c.27-.16.1-.27,0-.34a.63.63,0,0,0-.63,0l-.45-.27a1.58,1.58,0,0,1,1.66,0c.25.15.6.47,0,.82Zm.26-.67a1.2,1.2,0,0,1-.45-.11.71.71,0,0,0-.69,0c-.23.13-.17.24-.08.29a1,1,0,0,0,.9,0Z"/><path class="cls-111" d="M167.49,212l.45.26-.43.24a1.4,1.4,0,0,1,1,0l.08.06-.66.37-.13-.08a1,1,0,0,0-1,.09l-1.28.73-.47-.27Z"/><path class="cls-111" d="M168.57,214.68a1.87,1.87,0,0,1-1.57,0c-.5-.29-.55-.7.47-1.28a2.31,2.31,0,0,1,2.1-.22c.35.21.6.62-.53,1.26l-.11.07-1.22-.71c-.18.11-.57.37-.19.59a.73.73,0,0,0,.57,0Zm.3-.7c.37-.24.31-.42.16-.51a1,1,0,0,0-.89.09Z"/><path class="cls-112" d="M154.48,208.31l-.59.34,5.25-.44.82-3-.46.26-1.28.72-.11.07c-2.72-1.58-6.45.77-6.45.77,3.31-.43,4.24.48,4.24.48l-.3.17Z"/><path class="cls-111" d="M124.9,187.62c.16-.14.46-.39,0-.63-.24-.14-.81-.22-1.75.31-.59.34-1,.74-.54,1a1.34,1.34,0,0,0,1.15,0l.49.29a2.56,2.56,0,0,1-2.25.09c-.63-.37-.49-1,.65-1.62a3.05,3.05,0,0,1,2.84-.36c.71.42.32,1-.14,1.27Z"/><path class="cls-111" d="M124.24,189.87c-.47-.28-.49-.76.4-1.26a2.28,2.28,0,0,1,2.18-.21c.48.27.5.75-.39,1.26A2.3,2.3,0,0,1,124.24,189.87Zm2-1.16a1.26,1.26,0,0,0-1.17.18c-.31.18-.68.46-.32.67a1.27,1.27,0,0,0,1.17-.18C126.27,189.2,126.64,188.92,126.28,188.71Z"/><path class="cls-111" d="M128.05,192l-.46-.27,1.48-.84c.37-.21.37-.35.24-.42a.81.81,0,0,0-.82.1l-1.47.83-.46-.26,1.47-.84c.21-.12.5-.29.22-.45a.82.82,0,0,0-.77.11l-1.49.85-.46-.27,2.45-1.39.44.25-.36.21a1.27,1.27,0,0,1,.93,0c.26.15.24.29.1.51a1.24,1.24,0,0,1,.86.05c.35.2.33.51-.21.82Z"/><path class="cls-111" d="M131,193.71l-.46-.27,1.48-.85c.37-.2.37-.34.24-.42a.83.83,0,0,0-.82.11l-1.47.83-.46-.27L131,192c.21-.11.5-.28.22-.44a.77.77,0,0,0-.77.11l-1.49.84-.46-.27,2.45-1.39.44.26-.36.2a1.33,1.33,0,0,1,.93.06c.26.14.24.28.1.5a1.37,1.37,0,0,1,.86,0c.34.2.33.52-.21.82Z"/><path class="cls-111" d="M133.74,194.48a1.85,1.85,0,0,1-1.56,0c-.5-.28-.54-.69.47-1.27a2.3,2.3,0,0,1,2.08-.21c.34.2.59.61-.53,1.25l-.11.06-1.21-.7c-.17.11-.56.36-.18.58a.67.67,0,0,0,.56,0Zm.29-.69c.37-.24.31-.42.16-.5a1,1,0,0,0-.88.08Z"/><path class="cls-111" d="M134.84,195.94l-.46-.27,1.48-.84c.18-.1.48-.28.19-.45a1,1,0,0,0-.93.11l-1.41.8-.46-.27,2.45-1.39.44.25-.36.21a1.42,1.42,0,0,1,1,.07c.35.2.33.51-.21.82Z"/><path class="cls-111" d="M138.24,195.1l.29.17-.46.26-.29-.17-1.33.76c-.15.08-.2.11,0,.22l.11,0-.49.28-.23-.12-.06,0c-.4-.24-.26-.4.06-.58l1.49-.85-.24-.13.46-.27.24.14.66-.37.46.26Z"/><path class="cls-112" d="M122.65,184.17,120,182.6a1.75,1.75,0,0,0-1.51.13l-2.55,1.45c-.49.28-.6.67-.25.87l.16.09s0,.08,0,.12l-1,.56c-.1.06-.07.13,0,.13h2.38l1.15.67a1.72,1.72,0,0,0,1.51-.14L122.4,185C122.89,184.76,123,184.37,122.65,184.17Z"/><path class="cls-111" d="M91.62,170.23l1.23.71-.63.36-1.74-1,3.44-1.95.51.3Z"/><path class="cls-111" d="M95.89,170.15l-.48-.28.62-.35.48.28Zm-.3.17L93,171.77l-.48-.28L95.1,170Z"/><path class="cls-111" d="M94,172.32l-.48-.28L97,170.09l.48.28-1.86,1.06,1.58-.2.59.34-1.64.19L95.21,173l-.58-.34.65-.87-.48.05Z"/><path class="cls-111" d="M97.73,173.63a1.92,1.92,0,0,1-1.62,0c-.52-.3-.57-.73.48-1.32a2.39,2.39,0,0,1,2.17-.23c.36.21.62.64-.55,1.3l-.12.07-1.25-.73c-.18.12-.58.38-.19.6a.71.71,0,0,0,.58,0Zm.3-.72c.39-.25.32-.43.17-.52a1,1,0,0,0-.91.09Z"/><path class="cls-112" d="M91.41,168.05l.14-.08c.26-.15.31-.36.11-.47l0,0h0l-.72-.42-.43-.25s-.06-.06,0-.08,0,0,.08,0c.21,0,.9-.27.9-.27a3,3,0,0,0,.73-.31c1.07-.61.51-.84.48-.86a.83.83,0,0,0-.61.05l-.44.25a1.13,1.13,0,0,1-.45.14l-.47,0a11.18,11.18,0,0,0-1.25.17l-.13,0a5,5,0,0,0-.77.22,7.05,7.05,0,0,0-1.07.49l-2.12,1.21c-.1.06-.12.14,0,.19l2,1.17.5.29h0a.81.81,0,0,0,.69,0l.08,0a.34.34,0,0,0,.18-.25h0a1,1,0,0,0,.7-.11c.18-.1.26-.24.22-.34s0,0,0,0a1,1,0,0,0,.72-.09l0,0c.19-.11.26-.27.21-.4h0A1.06,1.06,0,0,0,91.41,168.05Z"/><path class="cls-113" d="M87.72,166l-.53-.31a.6.6,0,0,0-.53.05L84,167.29c-.17.1-.21.24-.09.31l.53.31a.6.6,0,0,0,.53,0l2.66-1.51C87.8,166.25,87.84,166.11,87.72,166Z"/><polygon class="cls-114" points="186.85 215.32 82.53 154.76 186.24 95.39 290.56 155.96 186.85 215.32"/><path class="cls-115" d="M293.9,141.27a1.6,1.6,0,0,1-1.38.12c-.32-.19-.21-.54.23-.79a1.55,1.55,0,0,1,1.37-.12C294.44,140.66,294.34,141,293.9,141.27Z"/><path class="cls-115" d="M296,142.51a1.6,1.6,0,0,1-1.38.12c-.32-.18-.21-.54.23-.79a1.58,1.58,0,0,1,1.37-.12C296.58,141.9,296.48,142.26,296,142.51Z"/><path class="cls-115" d="M298.18,143.75a1.57,1.57,0,0,1-1.38.12c-.32-.18-.21-.54.23-.79a1.58,1.58,0,0,1,1.37-.12C298.72,143.15,298.62,143.5,298.18,143.75Z"/><path class="cls-116" d="M54.21,185.06l-4.54-2.64a3.29,3.29,0,0,0-2.89.26l-6.33,3.59c-.93.53-1.14,1.27-.47,1.66l4.54,2.64a3.32,3.32,0,0,0,2.89-.26l6.32-3.6C54.66,186.19,54.88,185.44,54.21,185.06Z"/><path class="cls-105" d="M43.88,184.78l-3.11,1.77c-.56.31-.69.76-.29,1l4.66,2.7a2,2,0,0,0,1.73-.15L50,188.32Z"/><path class="cls-105" d="M48.42,184.49a2,2,0,0,1-1.69.15c-.39-.23-.27-.66.27-1a1.92,1.92,0,0,1,1.69-.15C49.08,183.74,49,184.18,48.42,184.49Z"/><polygon class="cls-105" points="52.11 186.37 49.28 184.73 49.91 184.38 52.73 186.02 52.11 186.37"/><polygon class="cls-105" points="50.99 187.01 48.16 185.37 48.79 185.01 51.61 186.65 50.99 187.01"/><path class="cls-117" d="M68,195.94a3.78,3.78,0,0,1-3.31.3c-.76-.45-.52-1.3.55-1.9a3.79,3.79,0,0,1,3.3-.29C69.3,194.49,69.06,195.34,68,195.94Z"/><path class="cls-117" d="M62.93,199.67c-1.65.94-5.94-1.55-4.29-2.49s4-1.14,5.13-.45S64.58,198.73,62.93,199.67Z"/><path class="cls-117" d="M70.69,197.88a3.06,3.06,0,0,1-2.71.24c-.62-.36-.42-1.06.45-1.55a3.09,3.09,0,0,1,2.71-.24C71.76,196.69,71.56,197.39,70.69,197.88Z"/><path class="cls-117" d="M64.32,198.38a4.09,4.09,0,0,1,2.91.15c1,.56.66,1.64-.69,2.41-1,.56-3.1-.36-3.68-1.2"/><polygon class="cls-117" points="90.55 206.39 87.69 207.15 94.41 211.05 95.76 209.41 90.55 206.39"/><path class="cls-117" d="M94.41,211.05c-1.16.65-1.92,1-2.79.63-.66-.26-.21-.92-.21-.92s-2.46.5-1.66-1c-1.58.49-2.48-.23-1.82-.9-1.88.4-2.12-.82-.24-1.74"/><path class="cls-117" d="M86.47,208.53l-4.56,2.6c-.38.22-.47.52-.2.68l4.59,2.67a1.37,1.37,0,0,0,1.2-.11l4.56-2.59"/><polyline class="cls-117" points="83.04 212.62 86.83 210.47 88.56 211.48 84.78 213.63"/><path class="cls-117" d="M108.93,222.73c1.82-1,3.93-1.89,6-1.2s.53,2.19-.36,2.9a1.61,1.61,0,0,0-.78,1.51,1.54,1.54,0,0,1-2,.75c-1.1-.39-4.43-1.55-5.48-1.95s-.89-1.13.51-1.34A4.46,4.46,0,0,0,108.93,222.73Z"/><path class="cls-117" d="M113.86,221.22c1.34-1.06,3.12-.31,1.66.52"/><path class="cls-117" d="M106.58,224.92c-1.71,1.29.83,2.19,2.61.86"/><polygon class="cls-118" points="126.03 232.73 132.61 236.55 133.21 236.21 126.63 232.39 126.03 232.73"/><polygon class="cls-118" points="129.66 230.67 136.24 234.49 136.84 234.14 130.26 230.33 129.66 230.67"/><polygon class="cls-118" points="122.44 234.78 129.01 238.59 129.61 238.25 123.04 234.44 122.44 234.78"/><path class="cls-116" d="M136.74,234.47a3.36,3.36,0,0,1-3,.26c-.69-.39-.47-1.16.49-1.7a3.39,3.39,0,0,1,3-.26C137.92,233.16,137.7,233.93,136.74,234.47Z"/><line class="cls-119" x1="46.38" y1="175.31" x2="150.71" y2="235.87"/><path class="cls-106" d="M227.3,107.36l-.19,0a.28.28,0,0,1-.35-.36.45.45,0,0,1,.38-.31A.33.33,0,0,1,227.3,107.36Z"/><path class="cls-106" d="M229.49,109.5a.53.53,0,0,1-.06-.31.64.64,0,0,1,.32-.26l.13.08h0A.08.08,0,0,1,230,109a.58.58,0,0,0,.31.07.22.22,0,0,1,.17-.18,2.65,2.65,0,0,0,.72-.38c.65-.5.34-.71.34-.71a.36.36,0,0,0-.28-.09c-.26-.24-1,0-1.2.14a1.77,1.77,0,0,0-.67.41c0,.08-.32.1-.32.1s.13.17.13.17a.17.17,0,0,1-.1,0v0l.14.07a1.28,1.28,0,0,1-.45.19,4.58,4.58,0,0,1-.55,0,1.46,1.46,0,0,0-.82.06l-.28.16c-.12.07-.15.17-.06.22l1.67,1a.43.43,0,0,0,.38,0l.28-.16A.39.39,0,0,0,229.49,109.5Z"/><path class="cls-106" d="M230.91,110.59a.41.41,0,0,0,.14-.52.71.71,0,0,1-.07-.35.76.76,0,0,1,.43-.31l.41-.12a1.05,1.05,0,0,0,.42-.16s.08-.08,0-.07h0a.9.9,0,0,1,.37-.16.33.33,0,0,0,.13,0c.54-.34.16-.56.12-.58a.59.59,0,0,0-.36-.12.2.2,0,0,1-.11,0c-.07,0-.11,0-.15,0s-.75.36-.86.43h0s-.09,0-.11,0c-.22.12-.29.21-.29.25s-.15.18-.2.23a1.19,1.19,0,0,1-.55.24,1.4,1.4,0,0,1-.36,0c.29.17.26.52-.15.75l-.62.35.91.53a.43.43,0,0,0,.38,0Z"/><text class="cls-120" transform="matrix(0.62, 0.36, -0.87, 0.49, 213.25, 100.5)">10 mins</text><path class="cls-108" d="M215.71,97.17c-4.44,2.53-10.62,3.08-13.81,1.23s-2.17-5.4,2.27-7.93S214.8,87.4,218,89.25,220.15,94.65,215.71,97.17Z"/><g class="cls-121"><path class="cls-110" d="M208.6,97.84a2.55,2.55,0,0,1-.28-1.35,2.13,2.13,0,0,1,.86-.81,1,1,0,0,1,.87-.1l.24.14.08,0a.38.38,0,0,1,.25-.25,2.2,2.2,0,0,0,.55.24,1,1,0,0,0,.92-.3.92.92,0,0,1,.58-.41,11,11,0,0,0,3.12-1.64c2.78-2.16,1.46-3.06,1.46-3.06A1.35,1.35,0,0,0,216,90c-1.13-1-4.12.18-5.14.57A7.31,7.31,0,0,0,208,92.31a1.31,1.31,0,0,1-.72.33c-.4.08-.68.35-.53.53a1.44,1.44,0,0,0,.4.31c-.1.12-.43.15-.43.15s0,0,0,0l.24.14c.2.12.12.35-.18.5a4.44,4.44,0,0,1-1.41.48,12.35,12.35,0,0,1-2.36-.17,6.87,6.87,0,0,0-3.47.25l-.13.06-.67.38c-.78.45-1,1.07-.4,1.4l6.53,3.79a2.8,2.8,0,0,0,2.44-.21l.66-.38.12-.08A1.62,1.62,0,0,0,208.6,97.84Z"/></g><text class="cls-122" transform="matrix(0.62, 0.36, -0.87, 0.49, 218.79, 97.87)"><tspan class="cls-123">M</tspan><tspan x="4.97" y="0">y user</tspan></text></g><path class="cls-124" d="M225.69,78.3l16.71,9.63c-.28.91-.54,1.7-.94,3.48a3.1,3.1,0,0,0,1.64,3.67c6.68,4.08,26.69,16.09,36.91,21.69,3.29,1.81,4.77,2.63,7.08,2.14a21.4,21.4,0,0,0,5.66-2l20.83,12a6.24,6.24,0,0,1,0,10.81L134.05,243a9.09,9.09,0,0,1-4,1.19L222,77.51A6.19,6.19,0,0,1,225.69,78.3Z"/><path class="cls-125" d="M223.41,67.7l-.56-.3a36.07,36.07,0,0,0,.68-6.47c.36-20.72-14.27-46-32.67-56.42C174.74-4.65,161.07.62,157.69,16a33.47,33.47,0,0,0-6.26-4.68c-11.3-6.42-20.65-1.3-20.87,11.42S139.33,51,150.63,57.41l72.25,41c7.53,4.28,13.76.87,13.91-7.62S231,72,223.41,67.7Z"/><path class="cls-105" d="M218.28,67.7l-.56-.3a36.1,36.1,0,0,0,.67-6.47c.36-20.72-14.26-46-32.66-56.42C169.61-4.65,155.94.62,152.56,16a33.8,33.8,0,0,0-6.26-4.68C135,4.9,125.65,10,125.43,22.74S134.19,51,145.5,57.41l72.24,41c7.54,4.28,13.77.87,13.92-7.62S225.81,72,218.28,67.7Z"/><path class="cls-125" d="M189.25,119l-.28-.16a20.51,20.51,0,0,0,.35-3.37c.18-10.77-7.43-23.91-17-29.35-8.38-4.76-15.5-2-17.25,6a17.26,17.26,0,0,0-3.26-2.43c-5.88-3.34-10.74-.68-10.86,5.94s4.56,14.69,10.44,18L189,135c3.92,2.23,7.16.45,7.23-4S193.17,121.23,189.25,119Z"/><path class="cls-105" d="M186.58,119a2.69,2.69,0,0,0-.29-.16,18.54,18.54,0,0,0,.35-3.37c.19-10.77-7.42-23.91-17-29.35-8.38-4.76-15.5-2-17.25,6a17.59,17.59,0,0,0-3.26-2.43c-5.88-3.34-10.74-.68-10.86,5.94s4.56,14.69,10.44,18L186.31,135c3.92,2.23,7.16.45,7.23-4S190.5,121.23,186.58,119Z"/><path class="cls-125" d="M278.08,61.6l-.29-.15a19.82,19.82,0,0,0,.35-3.39c.18-10.83-7.46-24-17.08-29.5-8.43-4.79-15.58-2-17.35,6a17.13,17.13,0,0,0-3.27-2.45c-5.91-3.35-10.8-.68-10.91,6S234.11,52.86,240,56.22L277.8,77.67c3.94,2.24,7.19.45,7.27-4S282,63.84,278.08,61.6Z"/><path class="cls-105" d="M275.39,61.6l-.29-.15a18.87,18.87,0,0,0,.35-3.39c.19-10.83-7.46-24-17.08-29.5-8.43-4.79-15.57-2-17.34,6a17.77,17.77,0,0,0-3.27-2.45c-5.92-3.35-10.8-.68-10.92,6s4.59,14.76,10.5,18.12l37.77,21.45c3.94,2.24,7.2.45,7.28-4S279.33,63.84,275.39,61.6Z"/><ellipse class="cls-126" cx="157.72" cy="147.45" rx="13.15" ry="20.21" transform="translate(-49.95 88.38) rotate(-27.2)"/><path class="cls-105" d="M164.85,150.18v-.38A2.15,2.15,0,0,0,163.7,148l-.12-.06-.05,0-2.37-1.08-1.42-.65a.77.77,0,0,1-.28-.26.2.2,0,0,1,0-.19,9.25,9.25,0,0,0,.74-1.59,3.77,3.77,0,0,0,.32-1.67c0-3-1.52-3.49-1.62-3.54-.58-.26-.86.33-.87.61s0,.93,0,1.23a1,1,0,0,1-.36.82L157,142a7.48,7.48,0,0,0-1.58,1.49l-.15.18a3.91,3.91,0,0,0-.64,1.36,9.17,9.17,0,0,0-.37,2.57l-.1,5.94a.85.85,0,0,0,.47.75l6.66,3,1.63.75h0a.66.66,0,0,0,1-.65v-.21a1.77,1.77,0,0,0-.4-1.05s0-.06,0-.06c.48.05.84-.3.85-.88a2.15,2.15,0,0,0-.61-1.44s0-.07,0-.06c.52.11.91-.23.92-.85v-.16a2.5,2.5,0,0,0-.76-1.61s0-.07,0-.07C164.49,151.11,164.84,150.76,164.85,150.18Z"/><path class="cls-105" d="M153.71,145.46l-3-1.36c-.07,0-.12,0-.12.09l-.15,8.92a.23.23,0,0,0,.12.2l3,1.35c.07,0,.12,0,.12-.09l.15-8.92A.22.22,0,0,0,153.71,145.46Z"/><path class="cls-126" d="M180.94,107.46c-.09,5.39-3.84,8.09-8.38,6s-8.15-8.12-8.06-13.51,3.84-8.1,8.38-6S181,102.06,180.94,107.46Z"/><path class="cls-105" d="M176.65,105.22V105a1.21,1.21,0,0,0-.64-1l-.07,0h0l-1.31-.59-.79-.36a.53.53,0,0,1-.15-.15.11.11,0,0,1,0-.1,5.18,5.18,0,0,0,.41-.88,2,2,0,0,0,.17-.92c0-1.67-.83-1.92-.89-2-.32-.15-.48.18-.48.33s0,.51,0,.68a.62.62,0,0,1-.2.46l-.36.25a3.9,3.9,0,0,0-.87.83l-.09.1a2.09,2.09,0,0,0-.35.75,5.29,5.29,0,0,0-.21,1.42l0,3.27a.49.49,0,0,0,.26.42l3.67,1.67.9.41h0a.36.36,0,0,0,.55-.36v-.12a.87.87,0,0,0-.22-.57s0,0,0,0c.26,0,.46-.16.47-.49a1.23,1.23,0,0,0-.34-.79s0,0,0,0c.29.06.51-.13.51-.47v-.09a1.35,1.35,0,0,0-.42-.89s0,0,0,0C176.46,105.74,176.65,105.54,176.65,105.22Z"/><path class="cls-105" d="M170.5,102.62l-1.64-.75s-.07,0-.07,0l-.08,4.92a.14.14,0,0,0,.07.11l1.64.74s.06,0,.06,0l.09-4.93A.11.11,0,0,0,170.5,102.62Z"/><path class="cls-126" d="M273.66,146.34c-.08,5.4-3.84,8.1-8.38,6s-8.15-8.11-8.06-13.51,3.84-8.09,8.38-6S273.75,141,273.66,146.34Z"/><path class="cls-105" d="M269.37,144.11v-.21a1.2,1.2,0,0,0-.64-1l-.06,0h0l-1.31-.6-.79-.36a.39.39,0,0,1-.15-.14.11.11,0,0,1,0-.1,5.18,5.18,0,0,0,.41-.88,2.1,2.1,0,0,0,.18-.92c0-1.67-.84-1.93-.9-2-.32-.14-.47.18-.48.34s0,.51,0,.68a.52.52,0,0,1-.2.45l-.36.26a3.9,3.9,0,0,0-.87.82l-.09.1a2.38,2.38,0,0,0-.35.75,5.35,5.35,0,0,0-.21,1.42l-.05,3.28a.47.47,0,0,0,.26.41l3.67,1.68.91.41h0a.37.37,0,0,0,.55-.37V148a1,1,0,0,0-.22-.58s0,0,0,0c.27,0,.47-.17.47-.49a1.16,1.16,0,0,0-.34-.79s0,0,0,0c.28.06.5-.13.51-.46v-.09a1.39,1.39,0,0,0-.43-.89s0,0,0,0C269.18,144.62,269.37,144.43,269.37,144.11Z"/><path class="cls-105" d="M263.22,141.5l-1.64-.75a0,0,0,0,0-.06.05l-.09,4.93a.11.11,0,0,0,.07.1l1.64.75s.07,0,.07-.05l.08-4.92A.14.14,0,0,0,263.22,141.5Z"/><path class="cls-126" d="M229.89,83.61c-.23,13.9-9.89,20.86-21.59,15.54s-21-20.91-20.77-34.81,9.89-20.86,21.59-15.53S230.12,69.71,229.89,83.61Z"/><path class="cls-105" d="M218.84,77.85v-.54a3.07,3.07,0,0,0-1.64-2.62l-.17-.08-.07,0-3.37-1.53-2-.93a1.13,1.13,0,0,1-.39-.37.28.28,0,0,1,0-.27,13.45,13.45,0,0,0,1.06-2.26,5.29,5.29,0,0,0,.45-2.37c0-4.29-2.16-5-2.31-5-.82-.37-1.22.46-1.23.86s0,1.32,0,1.75a1.47,1.47,0,0,1-.51,1.17l-.94.66a10.6,10.6,0,0,0-2.24,2.12l-.22.26a5.65,5.65,0,0,0-.91,1.94,13.18,13.18,0,0,0-.53,3.65l-.14,8.44a1.23,1.23,0,0,0,.67,1.07l9.47,4.31,2.32,1.06.05,0a1,1,0,0,0,1.44-.93v-.3a2.48,2.48,0,0,0-.56-1.48s0-.09,0-.09c.68.07,1.19-.43,1.21-1.26a3.08,3.08,0,0,0-.87-2s0-.1,0-.09c.74.15,1.29-.33,1.31-1.2v-.23a3.54,3.54,0,0,0-1.09-2.29s0-.1,0-.1C218.33,79.18,218.83,78.68,218.84,77.85Z"/><path class="cls-105" d="M203,71.14l-4.23-1.93c-.09,0-.17,0-.17.13L198.38,82a.32.32,0,0,0,.17.28l4.23,1.92c.09,0,.17,0,.17-.12l.21-12.69A.3.3,0,0,0,203,71.14Z"/><ellipse class="cls-127" cx="113.02" cy="76.38" rx="18.79" ry="28.9" transform="translate(-22.41 60.1) rotate(-27.2)"/><path class="cls-105" d="M118.54,71.49c-2.55-1.13-4.73-.1-5.49,2.33-.73-3.08-2.88-6-5.43-7.16-3.17-1.4-5.77.53-5.79,4.31-.07,9.72,11.11,17.69,11.11,17.69s11.23,1.49,11.3-7.79C124.26,77.09,121.71,72.89,118.54,71.49Z"/><ellipse class="cls-127" cx="179.47" cy="134.36" rx="8.4" ry="12.91" transform="translate(-41.56 96.87) rotate(-27.19)"/><path class="cls-105" d="M181.94,132.17a1.67,1.67,0,0,0-2.46,1,4.78,4.78,0,0,0-2.43-3.2c-1.41-.62-2.57.24-2.58,1.93,0,4.34,5,7.9,5,7.9s5,.67,5-3.48A4.85,4.85,0,0,0,181.94,132.17Z"/><path class="cls-127" d="M244.22,164.93c-.1,6.24-4.45,9.37-9.7,7s-9.44-9.4-9.34-15.64,4.45-9.37,9.71-7S244.32,158.68,244.22,164.93Z"/><path class="cls-105" d="M237.17,158.41a1.68,1.68,0,0,0-2.46,1,4.79,4.79,0,0,0-2.42-3.2c-1.42-.62-2.58.24-2.59,1.93,0,4.34,5,7.9,5,7.9s5,.67,5.05-3.48A4.87,4.87,0,0,0,237.17,158.41Z"/><path class="cls-127" d="M185,39.71c-.11,6.25-4.45,9.38-9.71,7S165.85,37.3,166,31.06s4.45-9.37,9.71-7S185.09,33.47,185,39.71Z"/><path class="cls-105" d="M177.94,33.2a1.67,1.67,0,0,0-2.46,1,4.75,4.75,0,0,0-2.43-3.2c-1.41-.62-2.57.24-2.58,1.93,0,4.34,5,7.9,5,7.9s5,.67,5-3.48A4.85,4.85,0,0,0,177.94,33.2Z"/><ellipse class="cls-128" cx="122.8" cy="132.31" rx="11.43" ry="17.57" transform="translate(-46.89 70.75) rotate(-27.19)"/><path class="cls-129" d="M123.54,145.9c-6.77-3.08-12.15-12.1-12-20.15.09-5.63,2.86-9.29,6.84-9.93-4.88,0-8.41,4.05-8.52,10.59-.14,8.5,5.55,18,12.71,21.29,6.47,2.94,11.92-.26,13-7.18C134.05,146.08,129.21,148.48,123.54,145.9Z"/><path class="cls-130" d="M117.16,127.65c.54-2.31,4.19-1,4.83,2.2"/><path class="cls-130" d="M124.56,131c.55-2.31,4.19-1,4.84,2.2"/><path class="cls-131" d="M114.4,129.49c5.55,4.13,12.48,7.79,17.37,7.9-.77,5.42-4.28,8.47-9.24,5.92C117,140.48,114.21,133.49,114.4,129.49Z"/><path class="cls-132" d="M132.13,128.33c-.4.53-2-.66-3.59-2.64s-2.54-4-2.14-4.55,2,.66,3.59,2.65S132.53,127.81,132.13,128.33Z"/><path class="cls-133" d="M118,134.34c1.61,1.11,7.25,4.16,10,4.53,1.65.23,2.26-.17,2.29-1.62-4.3-.63-9.74-3.45-14.46-6.75v.15C115.78,132.12,116.4,133.22,118,134.34Z"/><path class="cls-134" d="M123,141c-1.53-.7-2.82-.5-3.12.4a12.47,12.47,0,0,0,2.7,1.89,7.32,7.32,0,0,0,3.49.91A5.53,5.53,0,0,0,123,141Z"/><path class="cls-135" d="M124.2,144.93c0,.14-.51,0-1.13-.25s-1.12-.63-1.12-.78.51,0,1.13.25S124.2,144.78,124.2,144.93Z"/><path class="cls-136" d="M130.2,137.9a3.08,3.08,0,0,0,.07-.65c-4.3-.63-9.74-3.45-14.46-6.75v.15a3.64,3.64,0,0,0,0,.74C118.1,133.11,123.9,137.1,130.2,137.9Z"/><path class="cls-137" d="M120.44,140.76a1.1,1.1,0,0,0-.61.66,12.47,12.47,0,0,0,2.7,1.89,7.32,7.32,0,0,0,3.49.91,3.4,3.4,0,0,0-.51-1.08A6.18,6.18,0,0,1,120.44,140.76Z"/><ellipse class="cls-138" cx="167.6" cy="68.58" rx="15.5" ry="23.84" transform="translate(-12.82 84.18) rotate(-27.2)"/><path class="cls-129" d="M168.6,87c-9.18-4.18-16.49-16.41-16.31-27.33.13-7.64,3.89-12.6,9.28-13.47-6.62,0-11.4,5.49-11.55,14.37-.19,11.53,7.53,24.46,17.23,28.87,8.78,4,16.18-.34,17.65-9.74C182.85,87.26,176.29,90.52,168.6,87Z"/><path class="cls-139" d="M159.94,62.27c.74-3.13,5.69-1.39,6.56,3"/><path class="cls-139" d="M170,66.84c.74-3.13,5.68-1.39,6.56,3"/><path class="cls-140" d="M156.2,64.76c7.54,5.6,16.93,10.57,23.57,10.72-1.05,7.34-5.81,11.49-12.54,8C159.78,79.68,155.94,70.19,156.2,64.76Z"/><path class="cls-132" d="M180.26,63.19c-.55.72-2.73-.89-4.88-3.59s-3.45-5.46-2.9-6.17,2.72.9,4.87,3.6S180.8,62.48,180.26,63.19Z"/><path class="cls-133" d="M161.1,71.34c2.19,1.51,9.83,5.65,13.53,6.15,2.23.3,3.06-.23,3.1-2.2-5.84-.86-13.22-4.68-19.61-9.15v.19C158.08,68.33,158.91,69.83,161.1,71.34Z"/><path class="cls-134" d="M167.81,80.4c-2.08-1-3.83-.68-4.24.55a17.42,17.42,0,0,0,3.66,2.56A10,10,0,0,0,172,84.74,7.54,7.54,0,0,0,167.81,80.4Z"/><path class="cls-135" d="M169.5,85.7c0,.2-.69,0-1.53-.33s-1.52-.85-1.52-1.05.69-.06,1.53.33S169.5,85.5,169.5,85.7Z"/><path class="cls-136" d="M177.64,76.17a4.5,4.5,0,0,0,.09-.88c-5.84-.86-13.22-4.68-19.61-9.15v.19a6.67,6.67,0,0,0,.07,1C161.23,69.67,169.09,75.09,177.64,76.17Z"/><path class="cls-137" d="M164.4,80.05a1.53,1.53,0,0,0-.83.9,17.42,17.42,0,0,0,3.66,2.56A10,10,0,0,0,172,84.74a4.6,4.6,0,0,0-.68-1.47A8.31,8.31,0,0,1,164.4,80.05Z"/><ellipse class="cls-141" cx="211.33" cy="114.57" rx="19.84" ry="30.5" transform="translate(-29 109.25) rotate(-27.2)"/><path class="cls-129" d="M212.62,138.16c-11.75-5.35-21.09-21-20.86-35,.16-9.78,5-16.12,11.87-17.23-8.47.05-14.59,7-14.78,18.38-.24,14.75,9.63,31.29,22,36.94,11.23,5.11,20.7-.44,22.58-12.46C230.85,138.47,222.45,142.63,212.62,138.16Z"/><path class="cls-142" d="M201.54,106.49c1-4,7.27-1.78,8.39,3.81"/><path class="cls-142" d="M214.39,112.33c1-4,7.28-1.77,8.39,3.82"/><path class="cls-143" d="M196.76,109.68c9.64,7.16,21.66,13.53,30.14,13.71-1.34,9.4-7.42,14.7-16,10.27C201.33,128.76,196.42,116.62,196.76,109.68Z"/><path class="cls-132" d="M227.53,107.68c-.7.91-3.49-1.15-6.24-4.6s-4.41-7-3.71-7.89,3.49,1.15,6.23,4.6S228.22,106.77,227.53,107.68Z"/><path class="cls-133" d="M203,118.09c2.8,1.94,12.58,7.24,17.31,7.87,2.86.39,3.92-.29,4-2.81-7.47-1.1-16.91-6-25.1-11.71v.25C199.16,114.24,200.22,116.16,203,118.09Z"/><path class="cls-134" d="M211.6,129.69c-2.66-1.21-4.89-.87-5.42.7a22.2,22.2,0,0,0,4.68,3.27,12.71,12.71,0,0,0,6.06,1.58C216.43,133.23,214.25,130.89,211.6,129.69Z"/><path class="cls-135" d="M213.77,136.47c0,.26-.88.07-2-.42s-1.95-1.1-1.94-1.35.88-.07,1.95.42S213.77,136.22,213.77,136.47Z"/><path class="cls-136" d="M224.18,124.28a6.12,6.12,0,0,0,.12-1.13c-7.47-1.1-16.91-6-25.1-11.71v.25a6.88,6.88,0,0,0,.09,1.29C203.19,116,213.25,122.89,224.18,124.28Z"/><path class="cls-137" d="M207.24,129.24a1.94,1.94,0,0,0-1.06,1.15,22.2,22.2,0,0,0,4.68,3.27,12.71,12.71,0,0,0,6.06,1.58,5.75,5.75,0,0,0-.88-1.87C212.29,133.7,209.1,131.45,207.24,129.24Z"/><path class="cls-144" d="M155.35,112.08c-.1,5.92-4.22,8.88-9.2,6.62s-8.94-8.9-8.84-14.82,4.21-8.89,9.19-6.62S155.44,106.16,155.35,112.08Z"/><path class="cls-129" d="M146.84,117.44c-4.71-2.14-8.46-8.42-8.37-14,.07-3.92,2-6.47,4.76-6.91-3.39,0-5.85,2.82-5.92,7.38-.1,5.92,3.86,12.55,8.84,14.82,4.51,2,8.3-.18,9.06-5C154.16,117.57,150.79,119.24,146.84,117.44Z"/><path class="cls-129" d="M143.07,101.61c-.91,0-1.48.76-1.46,1.86a3.22,3.22,0,0,0-2.44-2c-1.13,0-1.73,1.18-1.35,2.7.94,3.73,5.29,5.22,5.29,5.22a4,4,0,0,0,2.71-5C145.43,102.89,144.2,101.64,143.07,101.61Z"/><path class="cls-129" d="M148.61,103.32a4.24,4.24,0,0,1,1.75,3,1.5,1.5,0,0,1,2.3-.33,4.1,4.1,0,0,1,1.73,3.76c-.53,3.22-4.88,1.72-4.88,1.72s-4-3.76-3.42-7.13C146.3,103,147.43,102.55,148.61,103.32Z"/><path class="cls-132" d="M152.82,105.21c-.27.37-1.39-.46-2.5-1.84s-1.77-2.8-1.49-3.17,1.4.46,2.5,1.85S153.1,104.85,152.82,105.21Z"/><path class="cls-145" d="M144.4,111.57c2.18,1.13,4.81,2,6.53,1.54,0,2.24-1,3.79-2.89,3.23C146,115.72,144.56,113.19,144.4,111.57Z"/><path class="cls-133" d="M145.94,113.17a10.65,10.65,0,0,0,3.75.89c.59-.07.78-.28.71-.86a11.58,11.58,0,0,1-5.45-1.36v.06A1.48,1.48,0,0,0,145.94,113.17Z"/><path class="cls-134" d="M148.05,115.38c-.57-.13-1,.07-1.07.45a3.84,3.84,0,0,0,1.06.51,2.22,2.22,0,0,0,1.27,0A1.82,1.82,0,0,0,148.05,115.38Z"/><path class="cls-135" d="M148.72,116.83c0,.06-.18.06-.41,0s-.43-.15-.44-.21.17-.06.41,0S148.71,116.77,148.72,116.83Z"/><path class="cls-136" d="M150.41,113.46a1.17,1.17,0,0,0,0-.26,11.58,11.58,0,0,1-5.45-1.36v.06a1.36,1.36,0,0,0,.06.29A9.75,9.75,0,0,0,150.41,113.46Z"/><path class="cls-137" d="M147.16,115.51a.52.52,0,0,0-.18.32,3.84,3.84,0,0,0,1.06.51,2.22,2.22,0,0,0,1.27,0,1.25,1.25,0,0,0-.24-.39A1.88,1.88,0,0,1,147.16,115.51Z"/><path class="cls-127" d="M143.29,101c-.91,0-1.48.76-1.46,1.86a3.18,3.18,0,0,0-2.43-2c-1.14,0-1.74,1.18-1.36,2.7,1,3.73,5.3,5.22,5.3,5.22a4,4,0,0,0,2.7-5C145.66,102.24,144.43,101,143.29,101Z"/><path class="cls-127" d="M148.83,102.66a4.25,4.25,0,0,1,1.75,3,1.51,1.51,0,0,1,2.3-.32,4.13,4.13,0,0,1,1.74,3.76c-.54,3.22-4.89,1.72-4.89,1.72s-4-3.76-3.42-7.13C146.52,102.34,147.65,101.9,148.83,102.66Z"/><path class="cls-146" d="M143.74,101.41c-1-.3-.77.82-.06,1.17s2.61,2.24,1.89,3.81C146.49,104.21,145,101.78,143.74,101.41Z"/><path class="cls-146" d="M154.15,107.4c-.45-1.28-1.17-1-1-.06s0,3.33-1.68,2.43C153.85,110.92,154.73,109,154.15,107.4Z"/><ellipse class="cls-147" cx="252.04" cy="112.73" rx="15.93" ry="24.49" transform="translate(-23.66 127.65) rotate(-27.2)"/><path class="cls-129" d="M253.08,131.67c-9.44-4.29-16.94-16.86-16.76-28.08.13-7.85,4-13,9.54-13.83-6.8,0-11.72,5.64-11.87,14.76-.19,11.84,7.73,25.12,17.7,29.66,9,4.1,16.62-.36,18.14-10C267.72,131.92,261,135.26,253.08,131.67Z"/><path class="cls-129" d="M245.53,100c-1.82,0-3,1.52-2.93,3.72-1.1-2.23-3-3.87-4.87-3.91-2.27-.06-3.48,2.36-2.71,5.4,1.89,7.47,10.6,10.45,10.6,10.45s7.39-2.23,5.41-10C250.26,102.55,247.8,100,245.53,100Z"/><path class="cls-129" d="M256.61,103.4a8.5,8.5,0,0,1,3.51,5.94c.86-1.56,2.7-1.89,4.59-.66a8.25,8.25,0,0,1,3.48,7.54c-1.06,6.45-9.77,3.43-9.77,3.43s-8-7.52-6.86-14.27C252,102.75,254.25,101.86,256.61,103.4Z"/><path class="cls-132" d="M265.05,107.19c-.56.73-2.8-.92-5-3.69s-3.54-5.61-3-6.34,2.8.93,5,3.7S265.61,106.46,265.05,107.19Z"/><path class="cls-148" d="M248.18,119.91c4.37,2.27,9.64,3.92,13.08,3.1.08,4.47-2,7.57-5.79,6.45C251.29,128.22,248.51,123.15,248.18,119.91Z"/><path class="cls-133" d="M251.27,123.12c1.26.59,5.56,2,7.51,1.78,1.18-.13,1.56-.56,1.42-1.73-3.09.29-7.23-.94-10.91-2.71v.12A3,3,0,0,0,251.27,123.12Z"/><path class="cls-134" d="M255.5,127.55c-1.15-.28-2,.12-2.14.9a7.59,7.59,0,0,0,2.11,1,4.56,4.56,0,0,0,2.55.08A3.66,3.66,0,0,0,255.5,127.55Z"/><path class="cls-135" d="M256.83,130.44c0,.12-.36.13-.82,0s-.86-.3-.88-.42.35-.12.82,0S256.81,130.32,256.83,130.44Z"/><path class="cls-136" d="M260.22,123.7a3.33,3.33,0,0,0,0-.53c-3.09.29-7.23-.94-10.91-2.71v.12a5,5,0,0,0,.12.58C251.19,122.12,255.72,124.24,260.22,123.7Z"/><path class="cls-137" d="M253.71,127.81a1,1,0,0,0-.35.64,7.59,7.59,0,0,0,2.11,1,4.56,4.56,0,0,0,2.55.08,2.53,2.53,0,0,0-.48-.77A3.8,3.8,0,0,1,253.71,127.81Z"/><path class="cls-127" d="M246,98.67c-1.83,0-3,1.52-2.94,3.73-1.09-2.23-3-3.87-4.87-3.92-2.26-.06-3.48,2.36-2.71,5.41,1.89,7.46,10.6,10.44,10.6,10.44s7.39-2.23,5.41-10C250.7,101.24,248.24,98.73,246,98.67Z"/><path class="cls-127" d="M257.05,102.09a8.49,8.49,0,0,1,3.51,5.94c.87-1.55,2.7-1.89,4.6-.65a8.21,8.21,0,0,1,3.47,7.53c-1.06,6.45-9.77,3.44-9.77,3.44s-8-7.52-6.85-14.28C252.44,101.45,254.7,100.56,257.05,102.09Z"/><path class="cls-146" d="M246.87,99.57c-2-.59-1.54,1.65-.12,2.35s5.23,4.48,3.79,7.62C252.38,105.18,249.38,100.32,246.87,99.57Z"/><path class="cls-146" d="M267.71,111.57c-.91-2.56-2.35-1.94-1.92-.13s.08,6.67-3.37,4.88C267.1,118.61,268.85,114.77,267.71,111.57Z"/></g></g></g></svg>