<svg xmlns="http://www.w3.org/2000/svg" xmlns:xlink="http://www.w3.org/1999/xlink" viewBox="0 0 364.52 344.05"><defs><style>.cls-1{fill:#919aa3;}.cls-2{fill:none;}.cls-3{fill:#eff3f6;}.cls-4{fill:#024462;}.cls-5{isolation:isolate;}.cls-6,.cls-67{mix-blend-mode:multiply;}.cls-112,.cls-113,.cls-49,.cls-7{fill:#fff;}.cls-7{opacity:0;}.cls-8{fill:#f9f9f9;opacity:0.05;}.cls-9{fill:#f3f3f3;opacity:0.1;}.cls-10{fill:#ededed;opacity:0.14;}.cls-11{fill:#e7e7e7;opacity:0.19;}.cls-12{fill:#e1e1e1;opacity:0.24;}.cls-13{fill:#dadada;opacity:0.29;}.cls-14{fill:#d4d4d4;opacity:0.33;}.cls-15{fill:#cecece;opacity:0.38;}.cls-16{fill:#c8c8c8;opacity:0.43;}.cls-17{fill:#c2c2c2;opacity:0.48;}.cls-18{fill:#bcbcbc;opacity:0.52;}.cls-19{fill:#b6b6b6;opacity:0.57;}.cls-20{fill:#b0b0b0;opacity:0.62;}.cls-21{fill:#aaa;opacity:0.67;}.cls-22{fill:#a4a4a4;opacity:0.71;}.cls-23{fill:#9d9d9d;opacity:0.76;}.cls-24{fill:#979797;opacity:0.81;}.cls-25,.cls-88{fill:#919191;}.cls-25{opacity:0.86;}.cls-26{fill:#8b8b8b;opacity:0.9;}.cls-27{fill:#858585;opacity:0.95;}.cls-28{fill:#7f7f7f;}.cls-29{fill:#ed7000;}.cls-30{fill:#459cf7;}.cls-31{fill:#1783f5;}.cls-32{fill:#72b7ff;}.cls-33,.cls-34{opacity:0.42;}.cls-33,.cls-34,.cls-35,.cls-36{mix-blend-mode:overlay;}.cls-33{fill:url(#linear-gradient);}.cls-34{fill:url(#linear-gradient-2);}.cls-35,.cls-36{opacity:0.48;}.cls-35{fill:url(#linear-gradient-3);}.cls-36{fill:url(#linear-gradient-4);}.cls-37{fill:url(#linear-gradient-5);}.cls-38{fill:#e1320b;}.cls-39{fill:#e8e8e8;}.cls-40{fill:#b5bdc5;}.cls-41{fill:#b9c1c9;}.cls-42{fill:url(#Áåçûìÿííûé_ãðàäèåíò_925);}.cls-43{fill:#757d85;}.cls-44{fill:#f2402d;}.cls-45{fill:#bd3d00;}.cls-46{fill:#ffa200;}.cls-47{fill:#bd5b00;}.cls-48{fill:#ffd15e;}.cls-50{fill:#e18d01;}.cls-51{fill:#ffef6b;}.cls-52{fill:#ffcb03;}.cls-53{fill:#fcce00;}.cls-54{fill:#f7a317;}.cls-55{fill:#b11d0a;}.cls-56{fill:#ff8c79;}.cls-57{fill:#f64a3a;}.cls-58{fill:#fdfffe;}.cls-59{fill:#e2e2e2;}.cls-60{fill:#b9b9b9;}.cls-61{fill:#f6f6f6;}.cls-62{fill:#c7d6e1;}.cls-63{fill:#7fa9db;}.cls-64{fill:#deb08a;}.cls-65{fill:#f1be8f;}.cls-66{fill:#38332e;}.cls-67{fill:gray;opacity:0.41;}.cls-68{clip-path:url(#clip-path);}.cls-69{fill:#788189;}.cls-70{clip-path:url(#clip-path-2);}.cls-71{fill:#999a9c;}.cls-72{fill:#a6b1bb;}.cls-73{fill:#b7c2cc;}.cls-74{fill:#c9d4de;}.cls-75{clip-path:url(#clip-path-3);}.cls-76{fill:#012738;}.cls-77{fill:#0d2d49;}.cls-78{clip-path:url(#clip-path-4);}.cls-79{clip-path:url(#clip-path-5);}.cls-80{clip-path:url(#clip-path-6);}.cls-81{fill:#025a82;}.cls-82{fill:#dfeaf4;}.cls-83{fill:#134169;}.cls-84{fill:#e54332;}.cls-85{fill:#bec6ce;}.cls-86{fill:#899199;}.cls-87{fill:#8d9da6;}.cls-89{fill:#bfbfbf;}.cls-90{fill:#be7e14;}.cls-91{fill:#bc8430;}.cls-92{fill:#8e6424;}.cls-93{fill:#8f6424;}.cls-94{fill:#ffc71e;}.cls-95{fill:#d9d9d9;}.cls-96{fill:#e5e5e5;}.cls-97{fill:#b92512;}.cls-98{fill:#db8c09;}.cls-99{fill:#ffd51e;}.cls-100{fill:#00d9d0;}.cls-101{fill:#00a39c;}.cls-102{fill:#b9bcbe;}.cls-103{fill:#f8f9fc;}.cls-104{fill:#f7bd00;}.cls-105{fill:#f59f00;}.cls-106{fill:#57d4ff;}.cls-107{fill:#2eabe3;}.cls-108{fill:#ade9f4;}.cls-109{fill:#7fe2f4;}.cls-110{fill:#38d7f4;}.cls-111{fill:#c7ad00;}.cls-112{opacity:0.2;}.cls-112,.cls-113{mix-blend-mode:screen;}.cls-113{opacity:0.4;}</style><linearGradient id="linear-gradient" x1="27.5" y1="222.87" x2="364.47" y2="222.87" gradientUnits="userSpaceOnUse"><stop offset="0" stop-color="#4c4c4c"/><stop offset="0.7" stop-color="#fff"/></linearGradient><linearGradient id="linear-gradient-2" x1="39.73" y1="215.97" x2="352.29" y2="215.97" xlink:href="#linear-gradient"/><linearGradient id="linear-gradient-3" x1="39.7" y1="265.1" x2="352.33" y2="265.1" gradientUnits="userSpaceOnUse"><stop offset="0" stop-color="#4c4c4c"/><stop offset="0" stop-color="#4d4d4d"/><stop offset="0.1" stop-color="#828282"/><stop offset="0.2" stop-color="#afafaf"/><stop offset="0.29" stop-color="#d2d2d2"/><stop offset="0.37" stop-color="#ebebeb"/><stop offset="0.45" stop-color="#fafafa"/><stop offset="0.52" stop-color="#fff"/><stop offset="0.57" stop-color="#f7f7f7"/><stop offset="0.65" stop-color="#e1e1e1"/><stop offset="0.75" stop-color="#bebebe"/><stop offset="0.87" stop-color="#8c8c8c"/><stop offset="1" stop-color="#4e4e4e"/><stop offset="1" stop-color="#4c4c4c"/></linearGradient><linearGradient id="linear-gradient-4" x1="27.46" y1="277.04" x2="364.52" y2="277.04" xlink:href="#linear-gradient-3"/><linearGradient id="linear-gradient-5" x1="311.41" y1="106.05" x2="340.99" y2="54.82" gradientUnits="userSpaceOnUse"><stop offset="0.16" stop-color="#851500"/><stop offset="0.16" stop-color="#eb2207"/><stop offset="0.56" stop-color="#eb2207"/><stop offset="0.56" stop-color="#ff5c46"/><stop offset="0.87" stop-color="#ff5c46"/><stop offset="0.87" stop-color="#ff4428"/></linearGradient><linearGradient id="Áåçûìÿííûé_ãðàäèåíò_925" x1="321.56" y1="109.3" x2="349.06" y2="61.66" gradientUnits="userSpaceOnUse"><stop offset="0.13" stop-color="#e9403e"/><stop offset="0.13" stop-color="#ee5757"/><stop offset="0.44" stop-color="#ee5757"/><stop offset="0.44" stop-color="#c23030"/><stop offset="0.84" stop-color="#c23030"/><stop offset="0.84" stop-color="#7f0b06"/></linearGradient><clipPath id="clip-path"><path class="cls-1" d="M236.08,212l0-4.78a3.34,3.34,0,0,1-2,2.75v4.79A3.36,3.36,0,0,0,236.08,212Z"/></clipPath><clipPath id="clip-path-2"><path class="cls-2" d="M153.13,220.62v4.79a3.31,3.31,0,0,0,1.94,2.71v-4.79A3.26,3.26,0,0,1,153.13,220.62Z"/></clipPath><clipPath id="clip-path-3"><path class="cls-2" d="M178.25,236.81v4.78a10.38,10.38,0,0,0,9.43,0v-4.78A10.38,10.38,0,0,1,178.25,236.81Z"/></clipPath><clipPath id="clip-path-4"><path class="cls-3" d="M239.3,9.62l7.17,4.17a4,4,0,0,0-4,.38L235.29,10C236.86,9.11,238.28,9,239.3,9.62Z"/></clipPath><clipPath id="clip-path-5"><path class="cls-4" d="M123.16,225.75,116,221.59a4,4,0,0,1-1.64-3.62l7.17,4.17A3.94,3.94,0,0,0,123.16,225.75Z"/></clipPath><clipPath id="clip-path-6"><path class="cls-2" d="M121.3,90.59l-7.15-4.16a12.32,12.32,0,0,1,5.61-9.72l7.16,4.16A12.4,12.4,0,0,0,121.3,90.59Z"/></clipPath></defs><g class="cls-5"><g id="Layer_2" data-name="Layer 2"><g id="Layer_1-2" data-name="Layer 1"><g class="cls-6"><path class="cls-7" d="M364.31,237.23v-1.15c0,.37,0,.75-.05,1.12.58-25.46-15.89-51-49.54-70.48-33-19-76.05-28.54-119.1-28.54s-86,9.51-118.75,28.53S28,210.5,28,235.34c0-.08,0-.16,0-.24v1.14c0-.3,0-.6,0-.89,0-.09,0-.17,0-.25l0,11.05c-.07,25.09,16.49,50.22,49.66,69.37,33,19,76,28.54,119.1,28.53s86-9.5,118.77-28.53c32.52-18.9,48.8-43.63,48.87-68.4l0-11C364.36,236.46,364.33,236.85,364.31,237.23Z"/><path class="cls-8" d="M364.31,236.62v-1.15c0,.38,0,.75-.05,1.13.58-25.46-15.89-51.06-49.54-70.49-33-19-76.05-28.53-119.1-28.53s-86,9.5-118.75,28.52S28,209.89,28,234.74c0-.08,0-.16,0-.24v1.14c0-.3,0-.6,0-.9,0-.08,0-.16,0-.24l0,11c-.07,25.09,16.49,50.22,49.66,69.38,33,19,76,28.53,119.1,28.53s86-9.51,118.77-28.53c32.52-18.91,48.8-43.63,48.87-68.4l0-11.05C364.36,235.85,364.33,236.24,364.31,236.62Z"/><path class="cls-9" d="M364.31,236v-1.15c0,.37,0,.75-.05,1.12.58-25.46-15.89-51.05-49.54-70.48-33-19-76.05-28.54-119.1-28.54s-86,9.51-118.75,28.53S28,209.29,28,234.13c0-.08,0-.16,0-.24V235c0-.3,0-.6,0-.9,0-.08,0-.16,0-.24l0,11.05c-.07,25.09,16.49,50.22,49.66,69.37,33,19,76,28.54,119.1,28.53s86-9.5,118.77-28.53c32.52-18.9,48.8-43.63,48.87-68.4l0-11C364.36,235.25,364.33,235.64,364.31,236Z"/><path class="cls-10" d="M364.31,235.41v-1.15c0,.38,0,.75-.05,1.13.58-25.46-15.89-51.06-49.54-70.49-33-19-76.05-28.53-119.1-28.53s-86,9.5-118.75,28.52S28,208.68,28,233.53c0-.09,0-.16,0-.24v1.14c0-.3,0-.6,0-.9,0-.08,0-.16,0-.24l0,11c-.07,25.09,16.49,50.22,49.66,69.38,33,19,76,28.53,119.1,28.53s86-9.51,118.77-28.53c32.52-18.91,48.8-43.64,48.87-68.4l0-11.05C364.36,234.64,364.33,235,364.31,235.41Z"/><path class="cls-11" d="M364.31,234.81v-1.15c0,.37,0,.75-.05,1.12.58-25.46-15.89-51.05-49.54-70.48-33-19-76.05-28.54-119.1-28.54s-86,9.51-118.75,28.53S28,208.08,28,232.92c0-.08,0-.16,0-.24v1.14c0-.3,0-.6,0-.9,0-.08,0-.16,0-.24l0,11C27.86,268.82,44.42,294,77.59,313.1c33,19,76,28.54,119.1,28.53s86-9.51,118.77-28.53c32.52-18.9,48.8-43.63,48.87-68.4l0-11C364.36,234,364.33,234.43,364.31,234.81Z"/><path class="cls-12" d="M364.31,234.2v-1.15c0,.38,0,.75-.05,1.13.58-25.46-15.89-51.06-49.54-70.49-33-19-76.05-28.54-119.1-28.54s-86,9.51-118.75,28.53S28,207.47,28,232.32c0-.09,0-.16,0-.24v1.14c0-.3,0-.6,0-.9,0-.08,0-.16,0-.24l0,11c-.07,25.09,16.49,50.22,49.66,69.38,33,19,76,28.53,119.1,28.53s86-9.51,118.77-28.53c32.52-18.91,48.8-43.64,48.87-68.4l0-11C364.36,233.43,364.33,233.82,364.31,234.2Z"/><path class="cls-13" d="M364.31,233.6v-1.15c0,.37,0,.75-.05,1.12.58-25.46-15.89-51-49.54-70.48-33-19-76.05-28.54-119.1-28.54s-86,9.51-118.75,28.53S28,206.87,28,231.71c0-.08,0-.16,0-.24v1.14c0-.3,0-.6,0-.9,0-.08,0-.16,0-.24l0,11.05c-.07,25.09,16.49,50.22,49.66,69.37,33,19,76,28.54,119.1,28.53s86-9.51,118.77-28.53c32.52-18.9,48.8-43.63,48.87-68.4l0-11C364.36,232.83,364.33,233.22,364.31,233.6Z"/><path class="cls-14" d="M364.31,233v-1.15c0,.38,0,.75-.05,1.13.58-25.46-15.89-51.06-49.54-70.49-33-19-76.05-28.54-119.1-28.54s-86,9.51-118.75,28.53S28,206.26,28,231.11c0-.09,0-.16,0-.24V232c0-.3,0-.6,0-.9,0-.08,0-.16,0-.24l0,11c-.07,25.09,16.49,50.22,49.66,69.38,33,19,76,28.53,119.1,28.53s86-9.51,118.77-28.54c32.52-18.9,48.8-43.63,48.87-68.39l0-11C364.36,232.22,364.33,232.61,364.31,233Z"/><path class="cls-15" d="M364.31,232.39v-1.15c0,.37,0,.75-.05,1.12.58-25.46-15.89-51.05-49.54-70.48-33-19-76.05-28.54-119.1-28.54s-86,9.51-118.75,28.53S28,205.66,28,230.5c0-.08,0-.16,0-.24v1.14c0-.3,0-.6,0-.9,0-.08,0-.16,0-.24l0,11.05c-.07,25.09,16.49,50.22,49.66,69.37,33,19,76,28.53,119.1,28.53s86-9.51,118.77-28.53c32.52-18.9,48.8-43.63,48.87-68.4l0-11C364.36,231.62,364.33,232,364.31,232.39Z"/><path class="cls-16" d="M364.31,231.78v-1.15c0,.38,0,.75-.05,1.13.58-25.46-15.89-51.06-49.54-70.49-33-19-76.05-28.54-119.1-28.54s-86,9.51-118.75,28.53S28,205.05,28,229.9c0-.09,0-.16,0-.24v1.14c0-.3,0-.6,0-.9,0-.08,0-.16,0-.24l0,11c-.07,25.09,16.49,50.22,49.66,69.38,33,19,76,28.53,119.1,28.53s86-9.51,118.77-28.54c32.52-18.9,48.8-43.63,48.87-68.39l0-11.05C364.36,231,364.33,231.4,364.31,231.78Z"/><path class="cls-17" d="M364.31,231.18V230c0,.38,0,.76-.05,1.13.58-25.46-15.89-51.05-49.54-70.48-33-19-76.05-28.54-119.1-28.54s-86,9.51-118.75,28.53S28,204.45,28,229.29c0-.08,0-.16,0-.24v1.14c0-.3,0-.6,0-.9,0-.08,0-.16,0-.24l0,11c-.07,25.09,16.49,50.22,49.66,69.37,33,19,76,28.53,119.1,28.53s86-9.51,118.77-28.53c32.52-18.9,48.8-43.63,48.87-68.4l0-11C364.36,230.41,364.33,230.79,364.31,231.18Z"/><path class="cls-18" d="M364.31,230.57v-1.15c0,.38,0,.75-.05,1.13.58-25.46-15.89-51.06-49.54-70.49-33-19-76.05-28.54-119.1-28.54s-86,9.51-118.75,28.53S28,203.84,28,228.69c0-.09,0-.16,0-.24v1.13c0-.29,0-.59,0-.89,0-.08,0-.16,0-.24l0,11c-.07,25.09,16.49,50.22,49.66,69.38,33,19,76,28.53,119.1,28.53s86-9.51,118.77-28.54c32.52-18.9,48.8-43.63,48.87-68.39l0-11.05C364.36,229.8,364.33,230.19,364.31,230.57Z"/><path class="cls-19" d="M364.31,230v-1.16c0,.38,0,.76-.05,1.13.58-25.46-15.89-51.05-49.54-70.48-33-19-76.05-28.54-119.1-28.54s-86,9.51-118.75,28.53S28,203.23,28,228.08c0-.08,0-.16,0-.24V229c0-.3,0-.6,0-.9,0-.08,0-.16,0-.24l0,11c-.07,25.09,16.49,50.22,49.66,69.37,33,19,76,28.53,119.1,28.53s86-9.51,118.77-28.53c32.52-18.9,48.8-43.63,48.87-68.4l0-11.05C364.36,229.2,364.33,229.58,364.31,230Z"/><path class="cls-20" d="M364.31,229.36v-1.15c0,.38,0,.75-.05,1.13.58-25.46-15.89-51.06-49.54-70.49-33-19-76.05-28.54-119.1-28.54s-86,9.51-118.75,28.53S28,202.63,28,227.48c0-.09,0-.16,0-.24v1.13c0-.29,0-.59,0-.89,0-.08,0-.16,0-.24l0,11c-.07,25.09,16.49,50.22,49.66,69.38,33,19,76,28.53,119.1,28.52s86-9.5,118.77-28.53c32.52-18.9,48.8-43.63,48.87-68.39l0-11C364.36,228.59,364.33,229,364.31,229.36Z"/><path class="cls-21" d="M364.31,228.76V227.6c0,.38,0,.76-.05,1.13.58-25.46-15.89-51-49.54-70.48-33-19-76.05-28.54-119.1-28.54s-86,9.5-118.75,28.53S28,202,28,226.87c0-.08,0-.16,0-.24v1.14c0-.3,0-.6,0-.9,0-.08,0-.16,0-.24l0,11.05c-.07,25.09,16.49,50.22,49.66,69.37,33,19,76,28.53,119.1,28.53s86-9.51,118.77-28.53c32.52-18.9,48.8-43.63,48.87-68.4l0-11.05C364.36,228,364.33,228.37,364.31,228.76Z"/><path class="cls-22" d="M364.31,228.15V227c0,.38,0,.75-.05,1.13.58-25.46-15.89-51.06-49.54-70.49-33-19-76.05-28.54-119.1-28.54s-86,9.51-118.75,28.53S28,201.42,28,226.27c0-.09,0-.16,0-.24v1.13c0-.29,0-.59,0-.89,0-.08,0-.16,0-.24l0,11c-.07,25.09,16.49,50.22,49.66,69.38,33,19,76,28.53,119.1,28.52s86-9.5,118.77-28.53c32.52-18.9,48.8-43.63,48.87-68.39l0-11.05C364.36,227.38,364.33,227.77,364.31,228.15Z"/><path class="cls-23" d="M364.31,227.55v-1.16c0,.38,0,.76-.05,1.13.58-25.46-15.89-51.05-49.54-70.48-33-19-76.05-28.54-119.1-28.54S109.61,138,76.87,157,28,200.81,28,225.66c0-.08,0-.16,0-.24v1.14c0-.3,0-.6,0-.9,0-.08,0-.16,0-.24l0,11.05c-.07,25.09,16.49,50.22,49.66,69.37,33,19,76,28.53,119.1,28.53s86-9.51,118.77-28.53c32.52-18.9,48.8-43.63,48.87-68.4l0-11.05C364.36,226.78,364.33,227.16,364.31,227.55Z"/><path class="cls-24" d="M364.31,226.94v-1.15c0,.38,0,.75-.05,1.13.58-25.46-15.89-51.06-49.54-70.49-33-19-76.05-28.54-119.1-28.54s-86,9.51-118.75,28.53S28,200.21,28,225.06c0-.09,0-.16,0-.25V226c0-.29,0-.59,0-.89,0-.08,0-.16,0-.25l0,11.05c-.07,25.09,16.49,50.22,49.66,69.38,33,19,76,28.53,119.1,28.52s86-9.5,118.77-28.53c32.52-18.9,48.8-43.63,48.87-68.39l0-11.05C364.36,226.17,364.33,226.56,364.31,226.94Z"/><path class="cls-25" d="M364.31,226.34v-1.16c0,.38,0,.76-.05,1.13.58-25.46-15.89-51.05-49.54-70.48-33-19-76.05-28.54-119.1-28.54s-86,9.5-118.75,28.53S28,199.6,28,224.45c0-.08,0-.16,0-.24v1.14c0-.3,0-.6,0-.9,0-.08,0-.16,0-.24l0,11c-.07,25.09,16.49,50.22,49.66,69.37,33,19,76,28.53,119.1,28.53s86-9.51,118.77-28.53c32.52-18.9,48.8-43.63,48.87-68.4l0-11C364.36,225.57,364.33,226,364.31,226.34Z"/><path class="cls-26" d="M364.31,225.73v-1.15c0,.38,0,.75-.05,1.13.58-25.46-15.89-51.06-49.54-70.49-33-19-76.05-28.54-119.1-28.54s-86,9.51-118.75,28.53S28,199,28,223.85c0-.09,0-.16,0-.25v1.14c0-.29,0-.59,0-.89,0-.08,0-.16,0-.25l0,11.05c-.07,25.09,16.49,50.22,49.66,69.38,33,19,76,28.53,119.1,28.52s86-9.5,118.77-28.53c32.52-18.9,48.8-43.63,48.87-68.39l0-11C364.36,225,364.33,225.35,364.31,225.73Z"/><path class="cls-27" d="M364.31,225.13V224c0,.38,0,.76-.05,1.13.58-25.46-15.89-51-49.54-70.48-33-19-76.05-28.54-119.1-28.54s-86,9.5-118.75,28.52S28,198.39,28,223.24c0-.08,0-.16,0-.24v1.14c0-.3,0-.6,0-.9,0-.08,0-.16,0-.24l0,11.05c-.07,25.09,16.49,50.22,49.66,69.37,33,19,76,28.53,119.1,28.53s86-9.51,118.77-28.53c32.52-18.9,48.8-43.63,48.87-68.4l0-11.05C364.36,224.36,364.33,224.74,364.31,225.13Z"/><path class="cls-28" d="M364.31,224.52v-1.15c0,.37,0,.75-.05,1.13.58-25.46-15.89-51.06-49.54-70.49-33-19-76.05-28.54-119.1-28.54S109.61,135,76.87,154,28,197.79,28,222.64c0-.09,0-.17,0-.25v1.14c0-.29,0-.59,0-.89,0-.08,0-.17,0-.25l0,11.05c-.07,25.09,16.49,50.22,49.66,69.38,33,19,76,28.53,119.1,28.52s86-9.5,118.77-28.53c32.52-18.9,48.8-43.63,48.87-68.39l0-11C364.36,223.75,364.33,224.14,364.31,224.52Z"/></g><path class="cls-29" d="M336.86,276.63c-.87.77-1.81,1.52-2.72,2.28C335.05,278.15,336,277.4,336.86,276.63Z"/><path class="cls-29" d="M341.26,272.54c-.77.76-1.61,1.51-2.42,2.25C339.65,274,340.49,273.3,341.26,272.54Z"/><path class="cls-29" d="M332.08,280.62c-1,.8-2.1,1.58-3.15,2.37C330,282.2,331.07,281.42,332.08,280.62Z"/><path class="cls-29" d="M50.91,272.4c-.65-.63-1.23-1.27-1.85-1.91C49.68,271.13,50.26,271.77,50.91,272.4Z"/><path class="cls-29" d="M326.91,284.5c-1.21.86-2.48,1.7-3.75,2.54C324.43,286.2,325.7,285.36,326.91,284.5Z"/><path class="cls-29" d="M55.38,276.52c-.71-.61-1.36-1.25-2-1.87C54,275.27,54.67,275.91,55.38,276.52Z"/><path class="cls-29" d="M343.1,270.62c.41-.43.83-.85,1.23-1.28h0C343.94,269.76,343.52,270.19,343.1,270.62Z"/><path class="cls-29" d="M65.47,284.45c-.73-.52-1.41-1.06-2.13-1.59C64.06,283.39,64.74,283.93,65.47,284.45Z"/><path class="cls-29" d="M321.35,288.26c-1.91,1.24-3.89,2.44-5.93,3.63C317.46,290.7,319.44,289.5,321.35,288.26Z"/><path class="cls-29" d="M71.1,288.24c-.64-.41-1.23-.84-1.86-1.25C69.87,287.4,70.46,287.83,71.1,288.24Z"/><path class="cls-29" d="M60.23,280.55c-.74-.58-1.42-1.19-2.13-1.77C58.81,279.36,59.49,280,60.23,280.55Z"/><path class="cls-29" d="M39.68,218c0,.5,0,1,0,1.49a.19.19,0,0,0,0-.07C39.71,218.92,39.7,218.45,39.68,218Z"/><path class="cls-29" d="M352,220.6v-.07a.08.08,0,0,1,0,0S352,220.58,352,220.6Z"/><path class="cls-30" d="M27.57,227.32c.07.81.19,1.61.29,2.41s.17,1.52.3,2.28.32,1.61.49,2.41.3,1.51.48,2.26.46,1.6.7,2.4.42,1.5.67,2.25.6,1.6.9,2.4.54,1.48.85,2.21.74,1.61,1.13,2.41.64,1.44,1,2.16.89,1.59,1.33,2.39.77,1.42,1.2,2.12,1,1.58,1.54,2.37.89,1.4,1.37,2.09S41,261,41.59,261.83s1,1.36,1.55,2,1.32,1.55,2,2.32,1.1,1.33,1.7,2,1.48,1.54,2.23,2.31,1.2,1.28,1.85,1.91,1.62,1.5,2.44,2.25,1.32,1.26,2,1.87c.87.77,1.81,1.51,2.72,2.26.71.58,1.39,1.19,2.13,1.77,1,.78,2.07,1.54,3.11,2.31.72.53,1.4,1.07,2.13,1.59,1.21.86,2.5,1.7,3.77,2.54.63.41,1.22.84,1.86,1.25,2,1.24,4,2.46,6,3.65,66,38.12,172.7,38.12,238.3,0,2-1.19,4-2.39,5.93-3.63.63-.4,1.21-.82,1.81-1.22,1.27-.84,2.54-1.68,3.75-2.54.7-.49,1.33-1,2-1.51,1.05-.79,2.14-1.57,3.15-2.37.71-.56,1.36-1.14,2.06-1.71.91-.76,1.85-1.51,2.72-2.28.69-.61,1.32-1.23,2-1.84.81-.74,1.65-1.49,2.42-2.25s1.23-1.28,1.84-1.92c.42-.43.84-.86,1.24-1.29s.64-.65.94-1c.6-.66,1.13-1.33,1.69-2s1.33-1.52,1.94-2.29,1-1.36,1.53-2,1.19-1.54,1.73-2.32.9-1.38,1.35-2.07,1-1.56,1.52-2.35.79-1.42,1.19-2.14.89-1.55,1.29-2.34.67-1.44,1-2.17.76-1.58,1.09-2.37.55-1.46.83-2.19.62-1.59.89-2.39.43-1.47.65-2.21.48-1.6.68-2.4.31-1.49.47-2.23.35-1.61.48-2.41.19-1.49.28-2.24.22-1.61.29-2.42.07-1.49.1-2.25c1.06-25.85-15.47-51.93-49.65-71.67-66-38.13-172.72-38.13-238.32,0-32.68,19-49,43.88-48.95,68.77,0,.81.05,1.61.09,2.42S27.51,226.56,27.57,227.32Zm12-11.8c0,.07,0,.15,0,.22,0-23.09,15.09-46.17,45.41-63.79,60.84-35.35,159.81-35.35,221.06,0,31.69,18.3,47,42.49,46.05,66.47,0-.67.09-1.34.09-2l0,8c0,.67-.07,1.33-.09,2s0,1.4-.09,2.1-.18,1.48-.27,2.22-.15,1.4-.26,2.1-.29,1.49-.45,2.23-.26,1.38-.43,2.07-.42,1.49-.63,2.22-.39,1.38-.61,2.07-.54,1.46-.81,2.19-.5,1.37-.79,2-.67,1.47-1,2.2-.59,1.34-.93,2-.81,1.47-1.22,2.2-.7,1.31-1.09,2-.93,1.45-1.41,2.18-.8,1.29-1.24,1.92-1.07,1.45-1.61,2.17-.92,1.25-1.41,1.87-1.21,1.44-1.82,2.15-1,1.22-1.55,1.82-1.36,1.43-2,2.14-1.09,1.17-1.68,1.74c-.73.73-1.52,1.43-2.29,2.14-.6.55-1.17,1.11-1.79,1.66-.83.74-1.74,1.46-2.62,2.18-.6.51-1.19,1-1.82,1.52-.92.73-1.9,1.44-2.86,2.15-.65.49-1.27,1-1.94,1.46-1.11.79-2.3,1.57-3.47,2.35-.56.37-1.1.76-1.68,1.13-1.77,1.14-3.61,2.27-5.5,3.37-60.84,35.35-159.81,35.35-221,0q-2.88-1.66-5.58-3.39c-.63-.4-1.21-.82-1.82-1.22-1.15-.76-2.31-1.52-3.41-2.29-.68-.49-1.33-1-2-1.49-1-.71-1.94-1.42-2.86-2.14-.68-.53-1.3-1.07-2-1.61-.85-.7-1.74-1.4-2.55-2.12-.65-.56-1.24-1.14-1.86-1.71s-1.55-1.4-2.28-2.11-1.17-1.2-1.75-1.8-1.39-1.41-2-2.12-1.07-1.24-1.6-1.87-1.25-1.41-1.82-2.12-1-1.27-1.43-1.9-1.13-1.45-1.64-2.18-.85-1.29-1.28-1.94-1-1.46-1.42-2.19-.74-1.32-1.12-2-.85-1.47-1.23-2.21-.62-1.32-.94-2-.72-1.5-1-2.26-.52-1.35-.78-2-.6-1.5-.85-2.26-.41-1.37-.62-2.07-.45-1.49-.64-2.23-.3-1.4-.44-2.09-.34-1.5-.47-2.25-.18-1.4-.27-2.11-.21-1.49-.27-2.24-.07-1.4-.1-2.11-.09-1.5-.09-2.25c0-.07,0-.15,0-.22Z"/><path class="cls-31" d="M39.66,226c0,.71,0,1.41.1,2.11s.17,1.5.27,2.24.16,1.41.27,2.11.3,1.5.47,2.25.26,1.39.44,2.09.42,1.49.64,2.23.39,1.39.62,2.07.56,1.51.85,2.26.49,1.35.78,2,.7,1.51,1,2.26.6,1.32.94,2,.82,1.47,1.23,2.21.72,1.33,1.12,2,1,1.46,1.42,2.19.83,1.3,1.28,1.94,1.09,1.45,1.64,2.18.92,1.27,1.43,1.9,1.21,1.42,1.82,2.12,1,1.26,1.6,1.87,1.36,1.41,2,2.12,1.14,1.2,1.75,1.8,1.51,1.41,2.28,2.11,1.21,1.15,1.86,1.71c.81.72,1.7,1.42,2.55,2.12.65.54,1.27,1.08,2,1.61.92.72,1.9,1.43,2.86,2.14.67.49,1.32,1,2,1.49,1.1.77,2.26,1.53,3.41,2.29.61.4,1.19.82,1.82,1.22q2.7,1.72,5.58,3.39c61.23,35.35,160.2,35.35,221,0,1.89-1.1,3.73-2.23,5.5-3.37.58-.37,1.12-.76,1.68-1.13,1.17-.78,2.36-1.56,3.47-2.35.67-.48,1.29-1,1.94-1.46,1-.71,1.94-1.42,2.86-2.15.63-.5,1.22-1,1.82-1.52.88-.72,1.79-1.44,2.62-2.18.62-.55,1.19-1.11,1.79-1.66.77-.71,1.56-1.41,2.29-2.14.59-.57,1.12-1.16,1.68-1.74s1.4-1.42,2-2.14,1-1.21,1.55-1.82,1.24-1.43,1.82-2.15.94-1.25,1.41-1.87,1.1-1.44,1.61-2.17.83-1.27,1.24-1.92,1-1.45,1.41-2.18.73-1.3,1.09-2,.84-1.46,1.22-2.2.62-1.34.93-2,.71-1.46,1-2.2.52-1.37.79-2,.56-1.46.81-2.19.4-1.38.61-2.07.44-1.47.63-2.22.29-1.38.43-2.07.32-1.48.45-2.23.18-1.4.26-2.1.21-1.47.27-2.22.06-1.4.09-2.1.08-1.33.09-2l0-8c0,.67-.06,1.34-.09,2s0,1.4-.09,2.1v.07c-.07.72-.17,1.44-.26,2.15s-.16,1.4-.27,2.1-.3,1.49-.45,2.23-.26,1.38-.43,2.07-.42,1.48-.64,2.22-.37,1.38-.6,2.07-.54,1.46-.82,2.19-.49,1.37-.77,2.05-.67,1.47-1,2.2-.6,1.34-.94,2-.8,1.46-1.21,2.2-.7,1.3-1.09,2-.93,1.44-1.4,2.16-.82,1.3-1.26,1.94-1.06,1.42-1.59,2.13-.93,1.28-1.43,1.91-1.19,1.41-1.79,2.11-1,1.25-1.58,1.86-1.33,1.39-2,2.09-1.12,1.2-1.72,1.79-1.48,1.39-2.23,2.08-1.21,1.16-1.85,1.72c-.8.71-1.67,1.4-2.52,2.11-.64.53-1.25,1.07-1.92,1.59-.9.71-1.86,1.41-2.8,2.11-.67.49-1.3,1-2,1.49-1.11.8-2.3,1.58-3.47,2.36-.56.37-1.1.76-1.67,1.13-1.78,1.14-3.61,2.27-5.51,3.37-60.84,35.35-159.81,35.35-221,0q-2.88-1.67-5.58-3.39c-.59-.38-1.14-.77-1.72-1.16-1.19-.78-2.38-1.56-3.5-2.36-.64-.45-1.23-.92-1.86-1.37-1-.75-2-1.49-3-2.25-.67-.53-1.28-1.07-1.93-1.6-.86-.71-1.75-1.41-2.57-2.13-.64-.56-1.24-1.14-1.86-1.72s-1.55-1.39-2.28-2.11-1.13-1.17-1.7-1.75-1.42-1.43-2.09-2.16-1.06-1.23-1.58-1.85-1.26-1.43-1.84-2.15-1-1.27-1.45-1.91-1.11-1.43-1.62-2.16-.85-1.3-1.28-2-1-1.45-1.42-2.18-.75-1.33-1.12-2-.85-1.46-1.23-2.2-.63-1.35-1-2-.71-1.48-1-2.22-.53-1.36-.79-2.05-.6-1.48-.84-2.23-.41-1.37-.62-2.06-.46-1.5-.65-2.25-.3-1.39-.45-2.09-.33-1.49-.45-2.24-.19-1.4-.28-2.11-.21-1.49-.27-2.24c0-.21,0-.42-.05-.63,0-.49,0-1,0-1.49,0-.75-.09-1.49-.09-2.24,0-.07,0-.15,0-.22l0,8c0,.07,0,.15,0,.22C39.57,224.51,39.63,225.27,39.66,226Z"/><path class="cls-32" d="M39.68,218c0,.47,0,.94.07,1.42,0,.23,0,.47,0,.7.06.75.18,1.5.27,2.24s.16,1.41.28,2.11.3,1.5.45,2.24.27,1.4.45,2.09.43,1.5.65,2.25.39,1.37.62,2.06.55,1.49.84,2.23.49,1.37.79,2.05.68,1.48,1,2.22.61,1.35,1,2,.82,1.47,1.23,2.2.72,1.33,1.12,2,.94,1.45,1.42,2.18.83,1.31,1.28,2,1.08,1.44,1.62,2.16.94,1.28,1.45,1.91,1.22,1.44,1.84,2.15,1,1.24,1.58,1.85,1.39,1.44,2.09,2.16,1.1,1.17,1.7,1.75S63,263.32,63.71,264s1.22,1.16,1.86,1.72c.82.72,1.71,1.42,2.57,2.13.65.53,1.26,1.07,1.93,1.6,1,.76,2,1.5,3,2.25.63.45,1.22.92,1.86,1.37,1.12.8,2.31,1.58,3.5,2.36.58.39,1.13.78,1.72,1.16q2.7,1.72,5.58,3.39c61.23,35.35,160.2,35.35,221,0,1.9-1.1,3.73-2.23,5.51-3.37.57-.37,1.11-.76,1.67-1.13,1.17-.78,2.36-1.56,3.47-2.36.7-.49,1.33-1,2-1.49.94-.7,1.9-1.4,2.8-2.11.67-.52,1.28-1.06,1.92-1.59.85-.71,1.72-1.4,2.52-2.11.64-.56,1.23-1.14,1.85-1.72s1.52-1.37,2.23-2.08,1.15-1.19,1.72-1.79,1.37-1.39,2-2.09,1-1.24,1.58-1.86,1.23-1.4,1.79-2.11.95-1.27,1.43-1.91,1.08-1.41,1.59-2.13.84-1.3,1.26-1.94,1-1.44,1.4-2.16.73-1.31,1.09-2,.84-1.47,1.21-2.2.63-1.34.94-2,.7-1.46,1-2.2.52-1.37.77-2.05.58-1.46.82-2.19.41-1.38.6-2.07.46-1.47.64-2.22.29-1.38.43-2.07.33-1.48.45-2.23.18-1.4.27-2.1.19-1.45.25-2.18a.08.08,0,0,0,0,0c.06-.7.06-1.4.09-2.1,1-24-14.36-48.17-46.05-66.47C244.81,116.6,145.84,116.6,85,152c-30.32,17.62-45.44,40.7-45.41,63.79C39.59,216.49,39.64,217.23,39.68,218Z"/><path class="cls-33" d="M27.7,227.32c.07.81.19,1.61.29,2.41s.17,1.52.3,2.28.32,1.61.49,2.41.3,1.51.49,2.26.46,1.6.7,2.4.41,1.5.66,2.25.6,1.6.91,2.4.53,1.48.84,2.21.75,1.61,1.13,2.41.64,1.44,1,2.16.89,1.59,1.33,2.39.77,1.42,1.2,2.12,1,1.58,1.54,2.37.89,1.4,1.38,2.09,1.16,1.56,1.75,2.35,1,1.36,1.55,2,1.32,1.55,2,2.32,1.11,1.33,1.7,2,1.48,1.54,2.23,2.31,1.21,1.28,1.85,1.91,1.62,1.5,2.44,2.25,1.33,1.26,2,1.87c.87.77,1.81,1.51,2.72,2.26.72.58,1.39,1.19,2.13,1.77,1,.78,2.07,1.54,3.11,2.31.72.53,1.4,1.07,2.14,1.59,1.21.86,2.49,1.7,3.76,2.54.63.41,1.22.84,1.86,1.25,2,1.24,4,2.46,6,3.65,66,38.12,172.7,38.12,238.3,0,2-1.19,4-2.39,5.94-3.63.62-.4,1.2-.82,1.81-1.22,1.26-.84,2.53-1.68,3.74-2.54.7-.49,1.34-1,2-1.51,1.06-.79,2.14-1.57,3.15-2.37.71-.56,1.37-1.14,2.06-1.71.91-.76,1.85-1.51,2.72-2.28.69-.61,1.32-1.23,2-1.84s1.65-1.49,2.43-2.25,1.22-1.28,1.84-1.92c.41-.43.83-.86,1.23-1.29s.65-.65.95-1c.59-.66,1.12-1.33,1.69-2s1.33-1.52,1.94-2.29,1-1.36,1.53-2,1.18-1.54,1.72-2.32.9-1.38,1.35-2.07,1-1.56,1.52-2.35.79-1.42,1.19-2.14.89-1.55,1.29-2.34.68-1.44,1-2.17.76-1.58,1.09-2.37.56-1.46.83-2.19.63-1.59.89-2.39.43-1.47.65-2.21.49-1.6.68-2.4.31-1.49.47-2.23.35-1.61.48-2.41.19-1.49.28-2.24.23-1.61.29-2.42.07-1.49.1-2.25c1.07-25.85-15.47-51.93-49.65-71.67-66-38.13-172.71-38.13-238.31,0-32.69,19-49,43.88-49,68.77,0,.81.06,1.61.09,2.42S27.64,226.56,27.7,227.32Zm12-11.8c0,.07,0,.15,0,.22,0-23.09,15.08-46.17,45.4-63.79C146,116.6,244.94,116.6,306.19,152c31.7,18.3,47,42.49,46.06,66.47,0-.67.08-1.34.08-2l0,8c0,.67-.06,1.33-.09,2s0,1.4-.09,2.1-.17,1.48-.27,2.22-.15,1.4-.26,2.1-.29,1.49-.45,2.23-.26,1.38-.43,2.07-.42,1.49-.63,2.22-.38,1.38-.61,2.07-.54,1.46-.81,2.19-.49,1.37-.78,2-.67,1.47-1,2.2-.6,1.34-.94,2-.81,1.47-1.22,2.2-.69,1.31-1.08,2-.94,1.45-1.42,2.18-.8,1.29-1.24,1.92-1.07,1.45-1.61,2.17-.92,1.25-1.41,1.87-1.21,1.44-1.82,2.15-1,1.22-1.55,1.82-1.36,1.43-2,2.14-1.09,1.17-1.68,1.74c-.73.73-1.52,1.43-2.29,2.14-.6.55-1.17,1.11-1.78,1.66-.84.74-1.74,1.46-2.62,2.18-.61.51-1.19,1-1.83,1.52-.91.73-1.9,1.44-2.86,2.15-.65.49-1.27,1-1.93,1.46-1.12.79-2.3,1.57-3.48,2.35-.56.37-1.09.76-1.67,1.13-1.78,1.14-3.61,2.27-5.51,3.37-60.83,35.35-159.8,35.35-221,0q-2.88-1.66-5.58-3.39c-.63-.4-1.21-.82-1.82-1.22-1.15-.76-2.31-1.52-3.4-2.29-.69-.49-1.33-1-2-1.49-1-.71-2-1.42-2.87-2.14-.67-.53-1.3-1.07-2-1.61-.85-.7-1.73-1.4-2.55-2.12-.64-.56-1.24-1.14-1.86-1.71-.77-.71-1.55-1.4-2.28-2.11s-1.16-1.2-1.74-1.8-1.4-1.41-2-2.12-1.08-1.24-1.61-1.87-1.24-1.41-1.82-2.12-.95-1.27-1.43-1.9-1.12-1.45-1.64-2.18S50.41,256.66,50,256s-1-1.46-1.43-2.19-.74-1.32-1.11-2-.86-1.47-1.23-2.21-.63-1.32-.94-2-.73-1.5-1.05-2.26-.52-1.35-.77-2-.6-1.5-.86-2.26-.41-1.37-.61-2.07-.46-1.49-.65-2.23-.3-1.4-.44-2.09-.34-1.5-.47-2.25-.18-1.4-.27-2.11-.21-1.49-.27-2.24-.07-1.4-.1-2.11-.08-1.5-.09-2.25v-.22Z"/><path class="cls-34" d="M39.81,218c0,.47,0,.94.07,1.42,0,.23,0,.47,0,.7.07.75.18,1.5.27,2.24s.16,1.41.28,2.11.3,1.5.46,2.24.27,1.4.44,2.09.43,1.5.65,2.25.39,1.37.62,2.06.55,1.49.84,2.23.49,1.37.79,2.05.68,1.48,1,2.22.62,1.35,1,2,.81,1.47,1.22,2.2.72,1.33,1.12,2,1,1.45,1.43,2.18.82,1.31,1.28,2,1.08,1.44,1.62,2.16.93,1.28,1.45,1.91,1.21,1.44,1.83,2.15,1,1.24,1.59,1.85,1.38,1.44,2.08,2.16,1.11,1.17,1.7,1.75,1.52,1.41,2.28,2.11,1.22,1.16,1.87,1.72c.82.72,1.7,1.42,2.56,2.13.65.53,1.27,1.07,1.93,1.6,1,.76,2,1.5,3,2.25.62.45,1.21.92,1.85,1.37,1.12.8,2.32,1.58,3.5,2.36.58.39,1.13.78,1.72,1.16q2.7,1.72,5.58,3.39c61.24,35.35,160.2,35.35,221,0,1.9-1.1,3.73-2.23,5.51-3.37.58-.37,1.11-.76,1.68-1.13,1.17-.78,2.35-1.56,3.47-2.36.69-.49,1.33-1,2-1.49.94-.7,1.9-1.4,2.8-2.11.66-.52,1.27-1.06,1.91-1.59.85-.71,1.72-1.4,2.52-2.11.65-.56,1.24-1.14,1.85-1.72s1.52-1.37,2.23-2.08,1.15-1.19,1.73-1.79,1.37-1.39,2-2.09,1.05-1.24,1.58-1.86,1.23-1.4,1.8-2.11.95-1.27,1.42-1.91,1.09-1.41,1.59-2.13.84-1.3,1.26-1.94,1-1.44,1.4-2.16.73-1.31,1.1-2,.83-1.47,1.2-2.2.63-1.34.94-2,.7-1.46,1-2.2.52-1.37.78-2.05.57-1.46.82-2.19.4-1.38.6-2.07.45-1.47.63-2.22.29-1.38.44-2.07.32-1.48.45-2.23.17-1.4.26-2.1.2-1.45.26-2.18v0c.06-.7.06-1.4.1-2.1,1-24-14.36-48.17-46.06-66.47C244.94,116.6,146,116.6,85.13,152c-30.32,17.62-45.43,40.7-45.4,63.79C39.73,216.49,39.78,217.23,39.81,218Z"/><path class="cls-31" d="M364.29,225.53c0,.76,0,1.51-.1,2.25s-.19,1.61-.29,2.42-.15,1.49-.28,2.24-.32,1.6-.48,2.41-.29,1.49-.47,2.23-.45,1.6-.68,2.4-.41,1.48-.65,2.21-.59,1.6-.89,2.39-.53,1.46-.83,2.19-.72,1.58-1.09,2.37-.65,1.45-1,2.17-.86,1.56-1.29,2.34-.77,1.43-1.19,2.14-1,1.57-1.52,2.35-.87,1.39-1.35,2.07-1.15,1.55-1.73,2.32-1,1.37-1.53,2-1.29,1.53-1.94,2.29-1.09,1.33-1.69,2l-.95,1c-.4.43-.82.85-1.23,1.28-.61.64-1.2,1.29-1.84,1.92s-1.61,1.5-2.42,2.25c-.66.61-1.29,1.23-2,1.84-.87.77-1.81,1.52-2.72,2.28-.7.57-1.35,1.15-2.06,1.71-1,.8-2.1,1.58-3.15,2.37-.69.5-1.32,1-2,1.51-1.21.86-2.48,1.7-3.75,2.54-.6.4-1.18.82-1.81,1.22-1.91,1.24-3.89,2.44-5.93,3.63-65.6,38.12-172.27,38.12-238.3,0-2.07-1.19-4.07-2.41-6-3.65-.64-.41-1.23-.84-1.86-1.25-1.27-.84-2.56-1.68-3.77-2.54-.73-.52-1.41-1.06-2.13-1.59-1-.77-2.11-1.53-3.11-2.31-.74-.58-1.42-1.19-2.13-1.77-.91-.75-1.85-1.49-2.72-2.26-.71-.61-1.36-1.25-2-1.87s-1.67-1.49-2.44-2.25-1.23-1.27-1.85-1.91-1.52-1.53-2.23-2.31-1.13-1.32-1.7-2-1.36-1.54-2-2.32-1-1.36-1.55-2-1.2-1.56-1.76-2.35-.91-1.39-1.37-2.09-1.06-1.57-1.54-2.37-.8-1.41-1.2-2.12-.92-1.59-1.33-2.39-.68-1.44-1-2.16-.79-1.6-1.13-2.41-.57-1.48-.85-2.21-.63-1.6-.9-2.4-.45-1.5-.67-2.25-.5-1.59-.7-2.4-.32-1.5-.48-2.26-.36-1.6-.49-2.41-.2-1.52-.3-2.28-.22-1.6-.29-2.41-.08-1.52-.11-2.28-.09-1.61-.09-2.42c0-.08,0-.16,0-.24l0,11.07c-.07,25.14,16.52,50.32,49.76,69.51,66,38.12,172.7,38.12,238.29,0,32.59-18.94,48.9-43.72,49-68.53l0-11.07C364.38,224.08,364.32,224.81,364.29,225.53Z"/><path class="cls-35" d="M39.79,226.09c0,.71,0,1.41.1,2.11s.18,1.5.27,2.25.16,1.4.27,2.1.31,1.49.47,2.25.27,1.39.44,2.08.43,1.5.65,2.24.38,1.39.61,2.07.57,1.5.86,2.25.49,1.36.77,2,.7,1.5,1.05,2.25.6,1.33.94,2,.81,1.47,1.23,2.21.72,1.33,1.11,2,.95,1.46,1.43,2.19.82,1.3,1.27,1.94,1.09,1.46,1.64,2.18.93,1.27,1.43,1.89,1.21,1.42,1.82,2.13,1.05,1.26,1.61,1.87,1.35,1.41,2,2.11,1.13,1.21,1.74,1.81,1.51,1.4,2.28,2.1,1.22,1.16,1.86,1.72c.82.72,1.7,1.41,2.55,2.12.66.53,1.28,1.08,2,1.61.92.72,1.9,1.43,2.86,2.14.67.49,1.31,1,2,1.49,1.09.77,2.25,1.53,3.4,2.29.62.4,1.19.82,1.82,1.22q2.7,1.73,5.58,3.39c61.24,35.35,160.21,35.35,221,0,1.9-1.11,3.73-2.23,5.51-3.37.58-.37,1.11-.76,1.67-1.14,1.18-.77,2.36-1.55,3.48-2.35.67-.47,1.28-1,1.94-1.45,1-.71,1.94-1.42,2.85-2.15.64-.5,1.22-1,1.83-1.52.88-.72,1.78-1.44,2.62-2.18.61-.54,1.18-1.11,1.78-1.66.77-.71,1.56-1.42,2.3-2.14.58-.57,1.11-1.16,1.67-1.74s1.4-1.42,2-2.14,1-1.22,1.55-1.82,1.25-1.43,1.82-2.15.94-1.25,1.41-1.88,1.1-1.43,1.61-2.16.83-1.28,1.25-1.92,1-1.45,1.41-2.18.73-1.3,1.09-2,.84-1.47,1.21-2.21.63-1.34.94-2,.7-1.46,1-2.2.52-1.37.78-2.05.57-1.46.81-2.2.41-1.37.61-2.06.45-1.47.63-2.22.29-1.38.43-2.07.33-1.48.45-2.23.18-1.4.26-2.1.21-1.48.27-2.22.07-1.4.09-2.1.09-1.34.09-2l0-8c0,.67-.06,1.34-.08,2s0,1.41-.1,2.11v.07c-.06.72-.17,1.43-.26,2.15s-.15,1.4-.26,2.1-.3,1.48-.45,2.22-.27,1.39-.44,2.08-.42,1.48-.63,2.22-.37,1.37-.6,2.06-.54,1.47-.82,2.2-.49,1.37-.77,2-.68,1.47-1,2.2-.59,1.34-.93,2-.81,1.46-1.21,2.19-.7,1.32-1.1,2-.92,1.44-1.39,2.16-.82,1.3-1.27,1.94-1.06,1.42-1.59,2.14-.92,1.27-1.42,1.9-1.19,1.41-1.79,2.11-1,1.24-1.59,1.85-1.33,1.41-2,2.1-1.12,1.2-1.72,1.79-1.49,1.39-2.23,2.08-1.21,1.15-1.86,1.72c-.8.71-1.67,1.41-2.52,2.11-.64.53-1.25,1.07-1.91,1.59-.9.72-1.86,1.4-2.8,2.1-.67.5-1.31,1-2,1.5-1.12.8-2.3,1.58-3.47,2.35-.57.38-1.1.77-1.68,1.13-1.77,1.15-3.61,2.27-5.5,3.37-60.84,35.36-159.81,35.36-221,0-1.91-1.11-3.78-2.24-5.58-3.39-.59-.38-1.14-.78-1.72-1.16-1.18-.78-2.38-1.56-3.5-2.36-.64-.45-1.23-.92-1.85-1.38-1-.74-2-1.48-3-2.24-.66-.53-1.28-1.07-1.93-1.6-.86-.71-1.74-1.41-2.56-2.13-.65-.57-1.24-1.15-1.87-1.72s-1.55-1.39-2.28-2.11-1.13-1.17-1.7-1.75-1.42-1.44-2.08-2.16-1.06-1.23-1.59-1.85-1.25-1.42-1.83-2.15-1-1.27-1.45-1.91-1.11-1.43-1.62-2.16-.86-1.3-1.28-1.95-1-1.45-1.42-2.18-.75-1.33-1.12-2-.85-1.46-1.23-2.2-.64-1.35-1-2-.72-1.47-1-2.21-.53-1.37-.79-2-.59-1.48-.84-2.23-.41-1.37-.61-2.07-.47-1.49-.66-2.24-.29-1.39-.44-2.09-.34-1.49-.46-2.24-.18-1.4-.27-2.11-.21-1.49-.28-2.24c0-.21,0-.42,0-.63,0-.5,0-1-.06-1.49,0-.75-.08-1.49-.08-2.24,0-.07,0-.15,0-.22l0,8c0,.07,0,.15,0,.22C39.71,224.59,39.76,225.34,39.79,226.09Z"/><path class="cls-36" d="M364.42,225.62c0,.74,0,1.49-.1,2.24s-.19,1.61-.28,2.42-.16,1.49-.28,2.24-.32,1.61-.49,2.41-.28,1.49-.47,2.23-.45,1.6-.68,2.4-.4,1.48-.65,2.21-.59,1.59-.89,2.39-.52,1.46-.83,2.19-.72,1.58-1.08,2.37-.65,1.45-1,2.17-.86,1.56-1.29,2.34-.76,1.43-1.19,2.14-1,1.56-1.52,2.34-.87,1.39-1.35,2.08-1.14,1.55-1.72,2.32-1,1.36-1.53,2-1.29,1.53-1.94,2.29-1.1,1.33-1.69,2c-.31.34-.65.67-.95,1s-.82.85-1.23,1.28c-.62.64-1.2,1.28-1.84,1.91s-1.62,1.51-2.43,2.26-1.28,1.23-2,1.84c-.88.77-1.82,1.52-2.73,2.28-.69.57-1.35,1.15-2.06,1.71-1,.8-2.09,1.58-3.15,2.37-.68.5-1.32,1-2,1.51-1.2.86-2.48,1.7-3.74,2.54-.61.4-1.19.82-1.81,1.22q-2.88,1.85-5.94,3.63c-65.6,38.12-172.27,38.12-238.3,0q-3.1-1.79-6-3.65c-.64-.41-1.24-.84-1.87-1.25-1.27-.84-2.55-1.68-3.76-2.54-.74-.52-1.42-1.06-2.13-1.59-1-.77-2.12-1.53-3.11-2.32-.75-.58-1.42-1.17-2.14-1.76-.91-.75-1.84-1.49-2.72-2.25-.7-.62-1.35-1.26-2-1.88s-1.66-1.49-2.44-2.25-1.23-1.28-1.84-1.91S47.67,269,47,268.25s-1.14-1.32-1.71-2-1.35-1.54-2-2.32-1-1.37-1.54-2.05-1.21-1.55-1.76-2.34-.92-1.4-1.37-2.09-1.06-1.57-1.55-2.36-.8-1.43-1.19-2.13-.93-1.59-1.33-2.39-.69-1.44-1-2.16-.79-1.6-1.13-2.41-.56-1.48-.84-2.21-.64-1.6-.91-2.4-.44-1.5-.66-2.25-.5-1.6-.7-2.4-.32-1.51-.48-2.26-.36-1.61-.5-2.41-.2-1.52-.3-2.28-.22-1.6-.28-2.41-.08-1.52-.12-2.28-.09-1.61-.09-2.41c0-.09,0-.17,0-.25l0,11.07C27.39,258.67,44,283.85,77.22,303c66,38.12,172.7,38.12,238.3,0,32.58-18.94,48.9-43.72,49-68.53l0-11.07C364.52,224.16,364.45,224.89,364.42,225.62Z"/><path class="cls-37" d="M323,108.41c-.8.17.57,2.56-.22,2.61-2.71.17-7.35-2.66-9.5-3.89a14.33,14.33,0,0,1-5.52-6c-2.63-5-3.28-11.87-1.84-19.25,2.79-14.31,12.78-26.81,23.25-29.07a16.67,16.67,0,0,1,2.4-.33A13,13,0,0,1,338,53.62c2.65,1.23,7.45,2.92,9,6,2.63,5,.69,12.37-.75,19.75-2.79,14.31-12.78,26.81-23.25,29.07Z"/><path class="cls-38" d="M328.49,111.13a16.67,16.67,0,0,1-2.4.33c-5.54.35-10.1-2.35-12.84-7.6-2.62-5-3.28-11.87-1.84-19.25,2.79-14.31,12.79-26.8,23.25-29.06a15.63,15.63,0,0,1,2.39-.34c5.55-.35,10.12,2.35,12.86,7.61,2.62,5,3.28,11.86,1.84,19.24C349,96.37,339,108.87,328.49,111.13Z"/><path class="cls-39" d="M350,82.17c-2.86,14.65-13.41,27-23.55,27.68s-16.08-10.71-13.24-25.34c.13-.63.26-1.25.42-1.86a42.81,42.81,0,0,1,7-15.23,30.55,30.55,0,0,1,8.27-7.89,17,17,0,0,1,7.41-2.65l.42-.05C346.9,56.18,352.82,67.53,350,82.17Z"/><path class="cls-40" d="M313.34,86.05c.12-.63.25-1.25.41-1.86A42.66,42.66,0,0,1,320.8,69a30.67,30.67,0,0,1,8.26-7.89,17,17,0,0,1,7.41-2.65l.43-.05c7.42-.47,12.57,5.46,13.7,14.4-.71-9.79-6-16.44-13.86-15.94l-.42.05a17,17,0,0,0-7.41,2.65,30.55,30.55,0,0,0-8.27,7.89,42.81,42.81,0,0,0-7,15.23c-.16.61-.29,1.23-.42,1.86a34.66,34.66,0,0,0-.47,10.91A35.61,35.61,0,0,1,313.34,86.05Z"/><path class="cls-40" d="M314.47,84.51c.13-.63.26-1.25.42-1.86a42.81,42.81,0,0,1,7-15.23,30.55,30.55,0,0,1,8.27-7.89,17,17,0,0,1,7.41-2.65l.42-.05h.13a13.45,13.45,0,0,0-1.42,0l-.42.05a17,17,0,0,0-7.41,2.65,30.55,30.55,0,0,0-8.27,7.89,42.81,42.81,0,0,0-7,15.23c-.16.61-.29,1.23-.42,1.86-2.83,14.57,3,25.89,13.11,25.34C317,109.4,311.76,98.45,314.47,84.51Z"/><polygon class="cls-41" points="344.25 66.25 343.95 65.22 325.58 89.22 326.21 89.81 344.25 66.25"/><polygon class="cls-41" points="330.79 83.52 325.26 87.51 319.4 89.62 319.4 89.04 324.17 85.19 330.61 82.34 330.79 83.52"/><polygon class="cls-41" points="331 82.07 331.89 69.89 330.97 63.17 330.54 63.37 329.62 70.27 330.43 82.39 331 82.07"/><path class="cls-41" d="M331,80.45c-.88.06-1.8,1.13-2,2.4s.27,2.25,1.14,2.2,1.79-1.13,2-2.4S331.92,80.4,331,80.45Z"/><path class="cls-42" d="M336.74,56.83c-.12,0-.24,0-.37,0,9.74-.08,15.4,10.86,12.65,24.89-2.79,14.34-13.29,26.46-23.44,27.05a11.34,11.34,0,0,1-9.16-3.61,11.31,11.31,0,0,0,10,4.65c10.16-.64,20.7-13,23.55-27.67S346.9,56.18,336.74,56.83Z"/><polygon class="cls-43" points="332.12 62.88 331.04 63.5 331.04 59.67 332.12 59.03 332.12 62.88"/><polygon class="cls-43" points="338.98 62.96 337.97 62.71 339.09 59.03 340.09 59.29 338.98 62.96"/><polygon class="cls-43" points="323.03 107.3 322.01 107.05 323.13 103.37 324.14 103.62 323.03 107.3"/><polygon class="cls-43" points="343.93 68.2 343.39 67.2 345.93 64.33 346.47 65.32 343.93 68.2"/><polygon class="cls-43" points="339.83 98.84 340.59 98.02 338.64 94.72 337.88 95.53 339.83 98.84"/><polygon class="cls-43" points="324.74 69.37 325.5 68.56 323.55 65.25 322.79 66.06 324.74 69.37"/><polygon class="cls-43" points="346.57 87 346.94 85.96 343.39 84.88 343.02 85.92 346.57 87"/><polygon class="cls-43" points="319.19 80.62 319.56 79.58 316.01 78.51 315.64 79.54 319.19 80.62"/><polygon class="cls-43" points="315.91 101.49 315.37 100.49 317.91 97.61 318.45 98.61 315.91 101.49"/><polygon class="cls-43" points="332.12 106.18 331.04 106.81 331.04 102.97 332.12 102.34 332.12 106.18"/><polygon class="cls-43" points="345.39 75.53 345.39 74.25 348.63 72.18 348.63 73.46 345.39 75.53"/><polygon class="cls-43" points="312.78 94.24 312.78 92.96 316.02 90.9 316.02 92.18 312.78 94.24"/><polygon class="cls-44" points="345.1 66.77 344.8 65.75 326.43 89.74 327.06 90.33 345.1 66.77"/><path class="cls-43" d="M332,81c-.89.06-1.8,1.13-2,2.4s.26,2.24,1.14,2.19,1.79-1.13,2-2.39S332.9,81,332,81Z"/><polygon class="cls-43" points="331.76 83.71 326.24 87.7 320.38 89.81 320.38 89.23 325.14 85.38 331.58 82.53 331.76 83.71"/><polygon class="cls-43" points="331.98 82.26 332.87 70.08 331.94 63.37 331.52 63.56 330.59 70.46 331.4 82.58 331.98 82.26"/><polygon class="cls-45" points="324.27 60.47 321.1 58.58 316.45 54.55 319.61 56.44 324.27 60.47"/><polygon class="cls-46" points="319.61 56.42 324.31 60.53 319.61 32.03 286.19 51.43 286.19 75.82 319.61 56.42"/><polygon class="cls-47" points="286.19 51.43 283.02 49.54 283.02 73.93 286.19 75.82 286.19 51.43"/><polygon class="cls-48" points="319.61 32.04 286.19 51.43 283.02 49.54 316.45 30.14 319.61 32.04"/><path class="cls-49" d="M297.53,65.48l-7.61,4.4v-2.2l2.52-5.46c.7-1.5,1.17-2.59,1.43-3.27a12.75,12.75,0,0,0,.57-1.86,7.76,7.76,0,0,0,.19-1.62c0-.61-.12-1-.37-1.16a.85.85,0,0,0-.94.1,3.17,3.17,0,0,0-1,.85A13.22,13.22,0,0,0,291.27,57l-1.48-.88a15.78,15.78,0,0,1,1.89-2.87,8.14,8.14,0,0,1,1.9-1.57c1.14-.66,2-.8,2.68-.42s1,1.24,1,2.58a9.44,9.44,0,0,1-.18,1.82,12.61,12.61,0,0,1-.53,1.94c-.23.68-.53,1.42-.88,2.22s-1.28,2.68-2.76,5.64v.09l4.65-2.69Z"/><path class="cls-49" d="M307.31,56.49l-1.43.83v3.33l-2.49,1.44V58.76l-4.63,2.67V59l4.29-12.62,2.83-1.63V54.88l1.43-.83Zm-3.92-.17V53l.05-1.5.07-1.45-.08,0c-.23.92-.47,1.78-.74,2.57L301,57.71Z"/><path class="cls-49" d="M314.09,55.9V48.7c0-1.77-.4-2.43-1.2-2a2.82,2.82,0,0,0-1.25,1.77,12,12,0,0,0-.36,3.22v5.8L308.7,59V42.13l2.58-1.49V44.4c0,.48,0,1.37-.11,2.66l.13-.08a5.59,5.59,0,0,1,2.39-3.16c1-.57,1.74-.63,2.24-.18s.76,1.42.76,2.87V54.4Z"/><path class="cls-49" d="M297.77,31.7a.52.52,0,0,1-.51-.52V1.41L254.39,26.52a.51.51,0,1,1-.52-.88L297.51.07a.53.53,0,0,1,.52,0,.51.51,0,0,1,.26.44V31.18A.52.52,0,0,1,297.77,31.7Z"/><path class="cls-49" d="M255.07,23c1.23-.71,2.22-.14,2.23,1.27a4.87,4.87,0,0,1-2.21,3.82c-1.22.71-2.22.14-2.22-1.27a4.87,4.87,0,0,1,2.2-3.82Z"/><path class="cls-49" d="M297.9,29.51a4.9,4.9,0,0,0-2.23,3.86c0,1.43,1,2,2.25,1.28a4.91,4.91,0,0,0,2.23-3.87c0-1.42-1-2-2.25-1.27Z"/><path class="cls-49" d="M81,160.28a.47.47,0,0,1-.25-.07.5.5,0,0,1-.25-.43V134.06a.5.5,0,0,1,.5-.5.5.5,0,0,1,.5.5v24.86l23.74-13.36a.5.5,0,0,1,.68.19.49.49,0,0,1-.19.68L81.21,160.22A.54.54,0,0,1,81,160.28Z"/><path class="cls-49" d="M105.46,148.4c-1.2.69-2.16.14-2.16-1.23a4.71,4.71,0,0,1,2.14-3.71c1.19-.69,2.15-.13,2.16,1.23a4.73,4.73,0,0,1-2.14,3.71Z"/><path class="cls-49" d="M81,135.68a4.78,4.78,0,0,0,2.17-3.75c0-1.39-1-1.94-2.19-1.24a4.78,4.78,0,0,0-2.17,3.76c0,1.37,1,1.93,2.19,1.23Z"/><path class="cls-50" d="M123.72,49.71l-.15-2.44.48-.43,3.31-3.79L129.21,35c0-.68-2.24-1.84-2.77-2.1a1.65,1.65,0,0,0-1.58,0l-25,14.57a4.77,4.77,0,0,0-2.38,4.14V62.11a1.62,1.62,0,0,0,.81,1.42c.49.3,2.33,1.71,2.89,1.38Z"/><path class="cls-51" d="M102.13,51.68l26.93-16,.15-.66c0-.68-2.24-1.84-2.77-2.1a1.62,1.62,0,0,0-1.51,0L99.79,47.56a4.94,4.94,0,0,0-1.66,1.71Z"/><path class="cls-52" d="M128.33,49.44h0A5.49,5.49,0,0,0,129.48,46l0-1.66V35.63a1.67,1.67,0,0,0-2.5-1.44L102,48.76A4.77,4.77,0,0,0,99.6,52.9V63.37a1.65,1.65,0,0,0,2.49,1.43Z"/><polygon class="cls-53" points="99.59 62.77 103.74 63.77 96.68 71.09 94.53 69.88 99.59 62.77"/><polygon class="cls-54" points="97.54 61.61 99.59 62.77 96.68 71.09 94.53 69.88 97.54 61.61"/><path class="cls-55" d="M38.84,76.72l9.59-2.29.7-.63-4.88-7L47,54.9c0-1-3.31-2.71-4.09-3.11a2.46,2.46,0,0,0-2.35.07l-37,21.59A7.08,7.08,0,0,0,0,79.58V95.09a2.43,2.43,0,0,0,1.21,2.12c.72.43,3.45,2.52,4.28,2Z"/><path class="cls-56" d="M6.86,79.64l39.9-23.76.22-1c0-1-3.31-2.72-4.09-3.11a2.42,2.42,0,0,0-2.25,0L3.39,73.54A7.09,7.09,0,0,0,.93,76.07Z"/><path class="cls-57" d="M45.68,76.32l8.17-.55-6.51-7V55.86a2.46,2.46,0,0,0-3.7-2.13l-37,21.58A7.09,7.09,0,0,0,3.1,81.45V97a2.46,2.46,0,0,0,3.7,2.13Z"/><path class="cls-57" d="M25.77,68.24a15.75,15.75,0,0,0-7.14,12.35c0,4.53,3.23,6.37,7.18,4.1a15.76,15.76,0,0,0,7.13-12.35C32.93,67.8,29.71,66,25.77,68.24Zm2.09,9.4v3.47l-4.12,2.37V80l-3,1.74,0-4.73,3-1.75V71.82l4.12-2.38v3.47l3-1.75,0,4.74Z"/><polygon class="cls-49" points="27.84 72.91 27.84 69.44 23.72 71.81 23.72 75.28 20.7 77.03 20.71 81.76 23.74 80.02 23.75 83.48 27.86 81.11 27.86 77.64 30.88 75.9 30.86 71.17 27.84 72.91"/><path class="cls-58" d="M25.77,67.58C21.51,70,18.05,76,18.06,80.92s3.49,6.88,7.75,4.42S33.53,76.9,33.51,72,30,65.13,25.77,67.58Zm0,17.11c-3.95,2.27-7.16.43-7.18-4.1a15.75,15.75,0,0,1,7.14-12.35c3.94-2.27,7.16-.44,7.17,4.1A15.76,15.76,0,0,1,25.81,84.69Z"/><path class="cls-49" d="M100.73,111.89l-9,5.09-6.93,4L52.94,139.4l-8.83-5.08.47-31.1L56.43,81.87c.88-.34,2-1.26,3-1.55,1.15-.39,2.31-.74,3.48-1.06a4,4,0,0,0-.3,4.83L71.67,90c2.47,3.67,6.63,17.89,6.63,17.89s8-24.31,7.61-30l-1.3-1.54c1.16,0,2.26.05,3.42.13a14.17,14.17,0,0,1,5.82,1.65,13.86,13.86,0,0,1,1.58,1,1.08,1.08,0,0,0,.28.21c.46.37.88.74,1.28,1.11s.35.83.8,1.4A13.07,13.07,0,0,1,100,86.1s0,0,0,.08a14.46,14.46,0,0,1,.65,4.41Z"/><path class="cls-59" d="M97,80.44A2.83,2.83,0,0,1,95.93,80c-3.06-1.65-5.47-2.33-7.21-2.2-1.11,0-2.23.16-3.34.28-1.9.17-1.48,3.17-3.33,3.5l-1.74.37c-.33,0-.62.12-.91.16a73.15,73.15,0,0,0-8,2.23.31.31,0,0,0-.17,0c-.08,0-.12,0-.16,0H71c-.86.33-1.73.61-2.6.94,0,0-3.5.63-4.67,1.46-.68.47-2,1.55-2.58,2.06-5,4.36-7.45,15.72-7.57,22.32l-.66,28.21-8.84-5.08.49-31.1S46,88.14,56.44,81.87a16.48,16.48,0,0,1,2.94-1.55c1.57-.54,3.14-1,4.75-1.41a3.53,3.53,0,0,1,.87-.24c1.44-.38,2.88-.71,4.37-1,.79-.17,1.57-.29,2.35-.42.09,0,.13,0,.21,0h.21a55.16,55.16,0,0,1,5.9-.66,9.06,9.06,0,0,1,1.45-.08,1,1,0,0,1,.33,0H80c.5,0,1,0,1.45,0h0a1.38,1.38,0,0,1,.45-.05h.13a.7.7,0,0,1,.29.05.56.56,0,0,1,.28-.05l-.46-2.74c1.2,0,2.35,0,3.55.12,2.06.12,6.33,2.62,8.1,3.94C94.3,78,96.58,80.07,97,80.44Z"/><path class="cls-60" d="M64.75,76.37s-6.24,3.29-6.63,6.5S57.26,89,58,91.46s2.88,7.7,2.88,7.7l5.79.8-4.07,4.56,17.86,20.19,9.77-31-3.62-2,4.75-3S92.46,81.07,89,78.17a20.32,20.32,0,0,0-7.24-3.82Z"/><path class="cls-61" d="M65.31,75.6s-6.24,3.29-6.64,6.5-.85,6.15-.15,8.65S61.4,98.4,61.4,98.4l5.8.8-4.07,4.55L81,123.94l9.77-31-3.62-2,4.75-3s.78-9-2.73-11.88a16.5,16.5,0,0,0-6.9-3.49Z"/><path class="cls-62" d="M78.3,107.87S70.21,92.26,67.74,88.59l-5.18-4.5a4,4,0,0,1,.3-4.83c.42-.13.84-.24,1.27-.35v0a8.44,8.44,0,0,1,.87-.2c1.44-.38,2.89-.71,4.37-1,.78-.17,1.58-.29,2.36-.42.08,0,.12,0,.21,0h.19A55.06,55.06,0,0,1,78,76.56a9.06,9.06,0,0,1,1.45-.08,1.05,1.05,0,0,1,.33,0H80c.5,0,1,0,1.45,0h0a1.41,1.41,0,0,1,.45-.05h2.69l1.3,1.54C86.26,83.56,78.3,107.87,78.3,107.87Z"/><polygon class="cls-44" points="78.02 83.06 74.41 89.04 78.02 92.91 81.16 86.42 78.02 83.06"/><polygon class="cls-44" points="77.98 90.54 74.97 95.52 74.97 101.53 78.64 109.96 81.25 98.38 80.99 93.76 77.98 90.54"/><path class="cls-63" d="M63.89,86.05l-1.47-2.18a3.73,3.73,0,0,1,1.67-5.55,74.7,74.7,0,0,1,18.18-4.74l3.64,4.31A215.4,215.4,0,0,0,63.89,86.05Z"/><path class="cls-62" d="M80.28,82.61,82,77.82l-1-1.88-1.2,1.2S78.29,82.23,80.28,82.61Z"/><path class="cls-64" d="M64.84,67.84l-.16,10.85s1.23,4.39,5.15,5.23,7.2.38,8.72-.45c1.35-.73,1.37-1,1.37-1l.16-10.72Z"/><path class="cls-49" d="M80.91,76.67c1.07,2.81-1.42,5.8-1.42,5.8l2.56,4.1s3-2.27,3.86-4.75a5.11,5.11,0,0,0,0-3.93l-2.4-2.84Z"/><path class="cls-64" d="M80.08,71.7l0,2.47L70,71.63l-.15,10.85a8.19,8.19,0,0,0,.67,1.57l-.69-.13c-3.92-.84-5.15-5.23-5.15-5.23l.16-10.85Z"/><path class="cls-65" d="M63.05,70.39h0a27,27,0,0,0,6.11,5.07c11.91,7,18.49-3.16,19.9-11.72.9-5.45,2.36-13.94,1.38-21-1.45-1-3.62-1.46-6.86-.72-10,2.29-15.06,3.17-15,9.34s-.16,10.32-.16,10.32l-2.56,0S62.73,50.15,59.69,53C52.89,59.26,63.3,60.59,63.05,70.39Z"/><path class="cls-65" d="M83.1,37.94a7.15,7.15,0,0,1,3.69.58A7.39,7.39,0,0,1,89,40.22,5.22,5.22,0,0,1,90.18,42a1,1,0,0,1,0,.79c1,2.19-4,2.85-4.73,3-5.22.88-7.22-.66-11-1-4.1-.33-4.4,9.38-4.69,13.5a67.71,67.71,0,0,0,1.18,18.1c-.58-.28-1.17-.58-1.77-.94a26.78,26.78,0,0,1-6.11-5.08C61.59,61.78,51.84,57.89,59.69,53c5-3.14,6.17,8.66,6.17,8.66l2.56,0a33.87,33.87,0,0,1-1.58-10.36c0-.91,1.6-1.62,1.38-2.51-.34-1.37.4-2,.7-3.19.38-1.45.69-2.92,1-4.38a1.58,1.58,0,0,1,.24-.6,1.48,1.48,0,0,1,.36-.3,7.86,7.86,0,0,1,2.92-1.07c1.23-.19,2.47.2,3.71-.09.27-.07.53-.19.8-.27a6.85,6.85,0,0,1,.89-.14C80.32,38.56,81.65,38.05,83.1,37.94Z"/><path class="cls-66" d="M52.85,50.77s-.07,13,10.2,19.62A12.62,12.62,0,0,0,61,63.24c-.55-.88-1.19-1.69-1.8-2.52a6.65,6.65,0,0,1-1.34-3.22,4.66,4.66,0,0,1,1.49-4.12,2.2,2.2,0,0,1,3.17.39,21.22,21.22,0,0,1,2.9,6.34c.16.51.32,1,.46,1.52l2.56,0s-.3-1-.35-7.2a37.22,37.22,0,0,1,1.4-8.12C71.11,42,74.36,42.56,75,42.79a25.78,25.78,0,0,0,8.63,1.93c4.13,0,6.39-1.58,6.67-2.21s-.12-1.41-.23-1.91a20.11,20.11,0,0,0-.65-2.3,12.52,12.52,0,0,0-3.56-5.47c-7.41-6.33-14.14-8.46-24.29-3.25S52.85,50.77,52.85,50.77Z"/><path class="cls-49" d="M64.71,76.67s-1.77.91-2.94,1.59S61.47,84.65,65,87a24.46,24.46,0,0,0,8.47,3.45l1-6.42a14.6,14.6,0,0,1-6.42-1.58C64.73,80.79,64.71,76.67,64.71,76.67Z"/><polygon class="cls-67" points="262.24 216.19 248.84 216.19 222.23 200.66 269.94 172.89 267.48 210.77 262.24 216.19"/><path class="cls-67" d="M180.83,243c1-.08,3.51-.3,3.48-1.17L182.07,233a1.55,1.55,0,0,0-.68-1.22l-19.34-13.26a1.54,1.54,0,0,0-1.65-.07l-13.87,8a1.55,1.55,0,0,0,0,2.68l.42.24,12.14,7.05,6.83,4c2.5,1.45,4.72,2.81,7.75,2.82C176.06,243.25,178.45,243.19,180.83,243Z"/><polygon class="cls-67" points="159.3 217.27 188.1 200.64 178.52 195.1 149.71 211.73 159.3 217.27"/><path class="cls-67" d="M202,172.57l-56.67-33a4.91,4.91,0,0,0-4.92,0L65,183.1a4.93,4.93,0,0,0,0,8.53l56.67,33a4.91,4.91,0,0,0,4.92,0L202,181.1A4.93,4.93,0,0,0,202,172.57Z"/><g class="cls-5"><g class="cls-5"><path class="cls-1" d="M236.08,212l0-4.78a3.34,3.34,0,0,1-2,2.75v4.79A3.36,3.36,0,0,0,236.08,212Z"/><g class="cls-68"><path class="cls-69" d="M234.09,210v4.79a3.36,3.36,0,0,0,2-2.76l0-4.78a3.34,3.34,0,0,1-2,2.75Z"/></g></g><g class="cls-5"><g class="cls-70"><g class="cls-5"><path class="cls-71" d="M153.13,220.62v4.79a2.2,2.2,0,0,0,.05.44l0-4.79a2.12,2.12,0,0,1,0-.44Z"/><path class="cls-72" d="M153.16,221.06l0,4.79a3.14,3.14,0,0,0,1.18,1.79v-4.78a3.18,3.18,0,0,1-1.19-1.8Z"/><path class="cls-73" d="M154.35,222.86v4.78a5.5,5.5,0,0,0,.71.48v-4.79a5.83,5.83,0,0,1-.71-.47Z"/></g></g></g><polygon class="cls-74" points="155.06 223.33 155.07 228.12 178.26 241.59 178.25 236.81 155.06 223.33"/><polygon class="cls-1" points="187.68 236.81 187.69 241.59 234.1 214.8 234.09 210.01 187.68 236.81"/><g class="cls-5"><g class="cls-75"><g class="cls-5"><path class="cls-73" d="M178.25,236.81v4.78a8.71,8.71,0,0,0,2.87,1l0-4.79a8.56,8.56,0,0,1-2.86-1Z"/><path class="cls-72" d="M181.11,237.79l0,4.79a11.46,11.46,0,0,0,3.36,0l0-4.79a11.46,11.46,0,0,1-3.36-.05Z"/><path class="cls-1" d="M184.47,237.84l0,4.79a8.68,8.68,0,0,0,3.2-1v-4.78a8.72,8.72,0,0,1-3.21,1Z"/></g></g></g><path class="cls-3" d="M155.09,217.87c-2.62,1.51-2.63,3.95,0,5.46l23.19,13.48a10.38,10.38,0,0,0,9.43,0L234.09,210c2.62-1.51,2.63-3.95,0-5.46l-23.19-13.48a10.38,10.38,0,0,0-9.43,0Z"/></g><g class="cls-5"><polygon class="cls-76" points="175.4 222.21 165.63 216.53 165.43 142.52 175.19 151.35 175.4 222.21"/><polygon class="cls-77" points="175.19 151.35 165.43 142.52 198.45 123.46 208.21 132.29 175.19 151.35"/><polygon class="cls-4" points="208.21 132.29 208.41 203.15 175.4 222.21 175.19 151.35 208.21 132.29"/></g><g class="cls-5"><path class="cls-3" d="M239.3,9.62l7.17,4.17a4,4,0,0,0-4,.38L235.29,10C236.86,9.11,238.28,9,239.3,9.62Z"/><g class="cls-78"><path class="cls-4" d="M242.46,14.17,235.29,10c1.57-.91,3-1,4-.4l7.17,4.17a4,4,0,0,0-4,.38Z"/></g><path class="cls-4" d="M123.16,225.75,116,221.59a4,4,0,0,1-1.64-3.62l7.17,4.17A3.94,3.94,0,0,0,123.16,225.75Z"/><g class="cls-79"><path class="cls-4" d="M123.16,225.75,116,221.59a4,4,0,0,1-1.64-3.62l7.17,4.17a3.94,3.94,0,0,0,1.64,3.61Z"/></g><polygon class="cls-4" points="121.52 222.14 114.35 217.97 114.15 86.43 121.3 90.59 121.52 222.14"/><polygon class="cls-4" points="126.92 80.87 119.76 76.71 235.29 10.02 242.46 14.17 126.92 80.87"/><g class="cls-5"><g class="cls-80"><path class="cls-4" d="M121.3,90.59l-7.15-4.16a12.32,12.32,0,0,1,5.61-9.72l7.16,4.16a12.4,12.4,0,0,0-5.62,9.72Z"/></g></g><path class="cls-81" d="M242.46,14.17c3.11-1.79,5.64-.35,5.65,3.23L248.32,149a12.38,12.38,0,0,1-5.61,9.72L127.17,225.36c-3.12,1.79-5.65.35-5.65-3.22L121.3,90.59a12.4,12.4,0,0,1,5.62-9.72Z"/><path class="cls-82" d="M126.84,90.57a7,7,0,0,1,2.84-4.91L242.59,20.5l.2,128.46a7,7,0,0,1-2.84,4.91L127,219Z"/><polygon class="cls-40" points="195.26 80.17 203.71 75.29 203.71 65.77 195.26 70.65 195.26 80.17"/><polygon class="cls-40" points="206.05 73.94 227.64 61.48 227.64 51.96 206.05 64.42 206.05 73.94"/><polygon class="cls-40" points="195.26 96.32 203.71 91.44 203.71 81.92 195.26 86.8 195.26 96.32"/><polygon class="cls-40" points="206.05 90.09 227.64 77.63 227.64 68.11 206.05 80.57 206.05 90.09"/><polygon class="cls-40" points="195.26 112.47 203.71 107.59 203.71 98.07 195.26 102.95 195.26 112.47"/><polygon class="cls-40" points="206.05 106.24 227.64 93.78 227.64 84.26 206.05 96.72 206.05 106.24"/><polygon class="cls-40" points="195.26 128.62 203.71 123.74 203.71 114.22 195.26 119.1 195.26 128.62"/><polygon class="cls-40" points="206.05 122.39 227.64 109.93 227.64 100.41 206.05 112.87 206.05 122.39"/><path class="cls-83" d="M177.78,75a12.87,12.87,0,0,1,1.28-.6,5.68,5.68,0,0,1,4.57.07l-.52.92.53-.89c3.58,2.26,3,6.84,1.9,15.15-.21,1.56-.43,3.33-.66,5.24-.13,1.11-.49,3.26-.62,4l-1.44.4c.13-.79.48-2.81.6-3.82.22-1.92.46-3.7.65-5.26,1.07-8.23,1.57-12-1.49-14a4.7,4.7,0,0,0-3.81,0,9.07,9.07,0,0,0-1,.48,1.46,1.46,0,0,0,.16-.61v-.73A.55.55,0,0,0,177.78,75Z"/><path class="cls-84" d="M149.82,111.86c2.18-1.26,5-1.81,6.92,1.82,1.49,2.86.83,9.5.14,16.49-.77,7.86-1.65,16.76.91,19,.82.71,2,.72,3.57,0a14.39,14.39,0,0,0,6.46-5.72c4-6.56,3.72-16.45,3.6-21.22,0-.18,0-.35,0-.52,0-.52,0-1,0-1.39l1.27-.73,1.28-.74c0,.39,0,.85,0,1.38,0,.15,0,.3,0,.46.16,5.58.44,16-4.41,23.93a19.27,19.27,0,0,1-6.8,6.78,17.21,17.21,0,0,1-1.66.84c-2.25,1-4,1-5.28-.12-3.23-2.81-2.32-12-1.44-20.87.62-6.27,1.26-12.74.06-15-1-2-2.4-2.52-4.19-1.67a4.23,4.23,0,0,0-.42.22c-3.21,1.85-6.92,7.35-8.67,10.3a1.8,1.8,0,0,0-1.84-.93c2.12-3.64,6.28-9.63,10.13-12.06Z"/><path class="cls-84" d="M182.45,99.42l.37-.11,1.44-.4.67-.19c-.06.26-1.24,6.32-1.86,8.55a21.73,21.73,0,0,1-9.13,13c0-.53,0-1,0-1.38l-1.28.74v-1.46a16,16,0,0,0,8.05-10.55C181.25,105.57,182.44,99.48,182.45,99.42Z"/><path class="cls-84" d="M162.75,110.79s1.24,4.75,1.81,6.13c1.35,3.35,3.78,3.71,8.08,1.23v1.46l-1.27.73c0,.41,0,.87,0,1.39-4.6,2.27-7.63,1.49-9.22-2.4-.61-1.52-1.84-6.18-1.89-6.39l.51-.44,1.44-1.26Z"/><path class="cls-84" d="M169.29,79.22c.3-.17.53,0,.53.31v1.79a1.11,1.11,0,0,1-.53.91l-.11,0-1.58.63a.44.44,0,0,1-.46-.06.54.54,0,0,1-.17-.41V81.7a1.46,1.46,0,0,1,.13-.54,1.59,1.59,0,0,1,.49-.64l1.58-1.23Z"/><path class="cls-83" d="M167.11,81.16a1.46,1.46,0,0,0-.13.54v.74a.54.54,0,0,0,.17.41c-.42.26-.79.51-1,.69a16.85,16.85,0,0,0-3.8,4.43c-3,5.47-2.51,8.65-1.4,15.61.22,1.33.45,2.84.68,4.5.13.89.5,2.56.63,3.16l-1.44,1.26c-.13-.57-.51-2.35-.65-3.34-.23-1.64-.47-3.14-.69-4.45-1.11-7-1.74-10.91,1.81-17.3l.54.28-.53-.32A20,20,0,0,1,165.83,82C166.15,81.79,166.61,81.48,167.11,81.16Z"/><path class="cls-84" d="M175.61,75.57l.1,0,1.58-.61a.41.41,0,0,1,.49.08.55.55,0,0,1,.14.39v.73a1.46,1.46,0,0,1-.16.61,1.79,1.79,0,0,1-.46.58l-1.58,1.21-.11.07c-.29.17-.52,0-.52-.31V76.49A1.13,1.13,0,0,1,175.61,75.57Z"/><path class="cls-82" d="M137.94,126.29c1.17-.68,2.12-.13,2.12,1.22a4.67,4.67,0,0,1-2.11,3.68c-1.19.68-2.14.12-2.14-1.23A4.66,4.66,0,0,1,137.94,126.29Z"/><path class="cls-84" d="M141.14,125.09a3.1,3.1,0,0,1,.37,1.58,7.88,7.88,0,0,1-3.56,6.18c-2,1.14-3.58.22-3.59-2a7.89,7.89,0,0,1,3.57-6.17,3.34,3.34,0,0,1,1.37-.47A1.8,1.8,0,0,1,141.14,125.09Zm-3.19,6.1a4.67,4.67,0,0,0,2.11-3.68c0-1.35-.95-1.9-2.12-1.22a4.66,4.66,0,0,0-2.13,3.67c0,1.35.95,1.91,2.14,1.23Z"/></g><polygon class="cls-57" points="221.57 155.21 221.57 129.96 159.93 165.61 159.93 190.86 221.57 155.21"/><polygon class="cls-55" points="159.93 165.61 157.52 164.15 157.52 189.39 159.93 190.86 159.93 165.61"/><polygon class="cls-56" points="221.58 129.97 159.93 165.61 157.52 164.15 219.17 128.5 221.58 129.97"/><path class="cls-49" d="M166.39,166.93a3.67,3.67,0,0,0-.88.7,4.16,4.16,0,0,0-.68,1,5.49,5.49,0,0,0-.42,1.18,6.06,6.06,0,0,0-.14,1.37v1.18a4.11,4.11,0,0,0,.15,1.21,1.33,1.33,0,0,0,.41.69.91.91,0,0,0,.67.19,2.49,2.49,0,0,0,.9-.33,4,4,0,0,0,1.51-1.49,4.44,4.44,0,0,0,.58-2.13l-1.23.7a3.16,3.16,0,0,1-.06.66,2,2,0,0,1-.16.47,1.1,1.1,0,0,1-.26.34,2.2,2.2,0,0,1-.38.28.85.85,0,0,1-.44.15.31.31,0,0,1-.27-.16,1.13,1.13,0,0,1-.15-.48,6,6,0,0,1,0-.8v-1.2a7.3,7.3,0,0,1,0-.87,2.57,2.57,0,0,1,.16-.65,1.43,1.43,0,0,1,.28-.47,1.74,1.74,0,0,1,.42-.34,1.48,1.48,0,0,1,.39-.17.28.28,0,0,1,.26.06.56.56,0,0,1,.15.32,3.85,3.85,0,0,1,.06.59l1.23-.71a1.86,1.86,0,0,0-.59-1.49c-.34-.22-.84-.15-1.51.24Z"/><path class="cls-49" d="M171.33,170.06a.9.9,0,0,1-.42.14.42.42,0,0,1-.31-.13,1.26,1.26,0,0,1-.18-.46,3.93,3.93,0,0,1-.06-.77v-1.17a5.8,5.8,0,0,1,.06-.88,4,4,0,0,1,.18-.68,1.9,1.9,0,0,1,.3-.5,1.53,1.53,0,0,1,.42-.34.84.84,0,0,1,.41-.14.41.41,0,0,1,.3.16,1.15,1.15,0,0,1,.18.47,3.63,3.63,0,0,1,.07.81v1.16a5.39,5.39,0,0,1-.06.85,2.55,2.55,0,0,1-.18.66,1.66,1.66,0,0,1-.29.48,1.49,1.49,0,0,1-.41.34Zm0-6a3.93,3.93,0,0,0-.88.7,4.32,4.32,0,0,0-.69,1,5.42,5.42,0,0,0-.45,1.21,6.38,6.38,0,0,0-.15,1.42v1.15a3.93,3.93,0,0,0,.16,1.19,1.35,1.35,0,0,0,.46.66,1,1,0,0,0,.69.16,2.45,2.45,0,0,0,.89-.33,3.92,3.92,0,0,0,.89-.7,4.68,4.68,0,0,0,.68-.95,4.73,4.73,0,0,0,.44-1.18,5.53,5.53,0,0,0,.16-1.37v-1.15a3.78,3.78,0,0,0-.16-1.23,1.31,1.31,0,0,0-.45-.7,1,1,0,0,0-.69-.18,2.3,2.3,0,0,0-.89.32Z"/><polygon class="cls-49" points="178.59 159.98 177.37 160.68 177.39 165.24 175.59 161.71 174.36 162.42 174.38 169.38 175.61 168.67 175.59 164.1 177.39 167.64 178.61 166.93 178.59 159.98 178.59 159.98"/><path class="cls-49" d="M181.47,158.22a4.1,4.1,0,0,0-.78.59,4.35,4.35,0,0,0-.61.75,3.77,3.77,0,0,0-.39.84,2.94,2.94,0,0,0-.14.88,1.54,1.54,0,0,0,.14.71.82.82,0,0,0,.38.38,1.21,1.21,0,0,0,.55.14,3.66,3.66,0,0,0,.65,0,1.89,1.89,0,0,1,.46,0,.47.47,0,0,1,.26.1.35.35,0,0,1,.13.2,1.32,1.32,0,0,1,0,.3,1.86,1.86,0,0,1,0,.33,1,1,0,0,1-.1.31.94.94,0,0,1-.21.28,1.4,1.4,0,0,1-.29.23,1.84,1.84,0,0,1-.38.16.34.34,0,0,1-.27,0,.43.43,0,0,1-.17-.26,2.2,2.2,0,0,1-.05-.5l-1.23.7a1.92,1.92,0,0,0,.18.92,1,1,0,0,0,.48.44,1.11,1.11,0,0,0,.68,0,2.3,2.3,0,0,0,.76-.31,3.77,3.77,0,0,0,.78-.58,3.71,3.71,0,0,0,.59-.72,3.31,3.31,0,0,0,.37-.81,3.38,3.38,0,0,0,.13-.9,2.08,2.08,0,0,0-.11-.71.94.94,0,0,0-.32-.43,1.08,1.08,0,0,0-.53-.18,3.21,3.21,0,0,0-.74,0,1.55,1.55,0,0,1-.37,0A1.16,1.16,0,0,1,181,161a.4.4,0,0,1-.18-.16.51.51,0,0,1-.06-.27,2,2,0,0,1,0-.34,1.33,1.33,0,0,1,.13-.33,1.37,1.37,0,0,1,.2-.29,1.47,1.47,0,0,1,.31-.23.85.85,0,0,1,.32-.12.33.33,0,0,1,.22.08.65.65,0,0,1,.13.25,1.92,1.92,0,0,1,0,.38l1.21-.7a2,2,0,0,0-.13-.79.92.92,0,0,0-.39-.47,1,1,0,0,0-.6-.09,1.93,1.93,0,0,0-.78.29Z"/><path class="cls-49" d="M188.11,154.48l-1.22.71V160a3.25,3.25,0,0,1-.05.59,1.38,1.38,0,0,1-.14.42,1.23,1.23,0,0,1-.24.31,2.13,2.13,0,0,1-.33.23,1.32,1.32,0,0,1-.33.15.27.27,0,0,1-.24,0,.36.36,0,0,1-.15-.25,1.85,1.85,0,0,1,0-.53v-4.78l-1.24.71,0,4.78a2.45,2.45,0,0,0,.15.95.81.81,0,0,0,.41.47,1,1,0,0,0,.63,0,3,3,0,0,0,.81-.34,3.85,3.85,0,0,0,.8-.59,3.92,3.92,0,0,0,.63-.77,4,4,0,0,0,.41-.94,4,4,0,0,0,.14-1.12v-4.78Z"/><polygon class="cls-49" points="190.26 153.24 189.03 153.95 189.05 160.91 192.42 158.96 192.42 157.79 190.28 159.03 190.26 153.24 190.26 153.24"/><polygon class="cls-49" points="196.18 149.82 191.98 152.25 191.99 153.41 193.46 152.56 193.48 158.35 194.7 157.64 194.69 151.85 196.18 150.99 196.18 149.82 196.18 149.82"/><path class="cls-49" d="M197.88,153.21l.56-2.81.57,2.15-1.13.66Zm1.11-5-1.11.64-1.87,8,1.29-.74.32-1.61,1.66-1,.33,1.24,1.31-.76L199,148.2Z"/><polygon class="cls-49" points="204.89 144.8 200.69 147.22 200.69 148.39 202.16 147.54 202.18 153.33 203.41 152.62 203.4 146.83 204.89 145.96 204.89 144.8 204.89 144.8"/><polygon class="cls-49" points="206.87 143.66 205.64 144.36 205.66 151.32 206.88 150.61 206.87 143.66 206.87 143.66"/><path class="cls-49" d="M210,147.74a1,1,0,0,1-.41.14.4.4,0,0,1-.31-.14,1.19,1.19,0,0,1-.19-.45,4.07,4.07,0,0,1-.06-.77v-1.17a7.61,7.61,0,0,1,0-.88,3.69,3.69,0,0,1,.19-.68,2,2,0,0,1,.3-.51,1.69,1.69,0,0,1,.41-.34,1,1,0,0,1,.42-.14.39.39,0,0,1,.29.17,1.09,1.09,0,0,1,.19.47,4.35,4.35,0,0,1,.06.8v1.17a5.39,5.39,0,0,1-.06.85,3.18,3.18,0,0,1-.18.66,2.27,2.27,0,0,1-.29.48,2,2,0,0,1-.42.34Zm0-6a4,4,0,0,0-.89.7,4.32,4.32,0,0,0-.69,1,5.4,5.4,0,0,0-.44,1.21,6.27,6.27,0,0,0-.16,1.41v1.15a4,4,0,0,0,.16,1.2,1.29,1.29,0,0,0,.46.66,1,1,0,0,0,.69.15,2.37,2.37,0,0,0,.88-.32,4,4,0,0,0,.89-.7,4.36,4.36,0,0,0,.69-1,4.88,4.88,0,0,0,.44-1.18,6.08,6.08,0,0,0,.15-1.38v-1.15a3.82,3.82,0,0,0-.16-1.23,1.39,1.39,0,0,0-.45-.69.93.93,0,0,0-.69-.18,2.24,2.24,0,0,0-.89.32Z"/><polygon class="cls-49" points="217.26 137.65 216.04 138.36 216.05 142.92 214.25 139.39 213.03 140.1 213.05 147.05 214.27 146.34 214.26 141.78 216.06 145.31 217.28 144.61 217.26 137.65 217.26 137.65"/><path class="cls-49" d="M181.36,173.42a.87.87,0,0,1-.42.13.38.38,0,0,1-.31-.13,1.05,1.05,0,0,1-.18-.45,3.89,3.89,0,0,1-.07-.77V171a5.84,5.84,0,0,1,.06-.89,2.91,2.91,0,0,1,.18-.68,1.62,1.62,0,0,1,.3-.5,1.57,1.57,0,0,1,.42-.35.72.72,0,0,1,.41-.13.35.35,0,0,1,.3.16,1,1,0,0,1,.18.46,4.47,4.47,0,0,1,.07.82v1.16a5.39,5.39,0,0,1-.06.85,2.65,2.65,0,0,1-.18.65,1.61,1.61,0,0,1-.3.49,1.64,1.64,0,0,1-.4.34Zm0-6a4,4,0,0,0-.88.71,4.06,4.06,0,0,0-.7,1,5.32,5.32,0,0,0-.44,1.2,6.51,6.51,0,0,0-.15,1.42v1.16a3.64,3.64,0,0,0,.16,1.19,1.33,1.33,0,0,0,.45.66,1,1,0,0,0,.7.15,2.33,2.33,0,0,0,.89-.33,3.67,3.67,0,0,0,.89-.69,4.48,4.48,0,0,0,.68-1,5.07,5.07,0,0,0,.44-1.17,6.07,6.07,0,0,0,.16-1.38v-1.15a4.14,4.14,0,0,0-.17-1.23,1.47,1.47,0,0,0-.45-.7,1,1,0,0,0-.69-.17,2.11,2.11,0,0,0-.89.31Z"/><polygon class="cls-49" points="188.63 163.33 187.41 164.03 187.42 168.6 185.61 165.07 184.39 165.77 184.41 172.73 185.63 172.02 185.62 167.46 187.42 170.99 188.64 170.28 188.63 163.33 188.63 163.33"/><polygon class="cls-49" points="190.83 162.06 189.6 162.76 189.62 169.72 192.99 167.77 192.99 166.61 190.84 167.84 190.83 162.06 190.83 162.06"/><polygon class="cls-49" points="194.95 159.67 193.73 160.38 193.75 167.33 194.97 166.63 194.95 159.67 194.95 159.67"/><polygon class="cls-49" points="200.21 156.64 198.99 157.34 199.01 161.91 197.21 158.37 195.98 159.08 196 166.04 197.22 165.33 197.21 160.76 199.01 164.3 200.23 163.59 200.21 156.64 200.21 156.64"/><polygon class="cls-49" points="204.66 154.07 201.2 156.07 201.22 163.02 204.69 161.02 204.69 159.85 202.43 161.15 202.43 159.31 204.33 158.21 204.33 157.08 202.42 158.18 202.42 156.54 204.67 155.24 204.66 154.07 204.66 154.07"/><polygon class="cls-85" points="231.69 168.93 222.46 161.11 229.46 156.7 226.57 154.98 208.93 155.84 216.08 166.44 223.25 167.03 228.97 176.48 231.69 168.93"/><polygon class="cls-49" points="235.42 171.07 226.18 163.26 229.46 156.7 211.81 157.55 219.28 177.06 222.62 170.38 231.86 178.2 235.42 171.07"/><polygon class="cls-86" points="211.81 157.55 208.93 155.84 215.55 174.91 219.28 177.06 211.81 157.55"/><polygon class="cls-87" points="222.62 170.38 222.37 170.89 228.97 176.48 231.86 178.2 222.62 170.38"/><path class="cls-67" d="M301.05,296.69s-7,.44-11.37-.53a15,15,0,0,1-3.29-1.17l-63.11-36.38a3.38,3.38,0,0,1,0-5.86L236,245.51a3.36,3.36,0,0,1,3.66.21L299,289.14a3.43,3.43,0,0,1,1.26,1.8l4,1.44A3.38,3.38,0,0,1,301.05,296.69Z"/><g class="cls-5"><path class="cls-76" d="M229.14,251.82l67,38.93a12.37,12.37,0,0,0,11.18,0l50.41-29.11a4,4,0,0,0,2.33-3.26v4.54a4,4,0,0,1-2.32,3.26l-50.41,29.11a12.39,12.39,0,0,1-11.19,0l-67-38.92a4,4,0,0,1-2.29-3.22v-4.54A3.9,3.9,0,0,0,229.14,251.82Z"/><path class="cls-81" d="M229.17,245.35c-3.08,1.78-3.1,4.69,0,6.47l67,38.93a12.37,12.37,0,0,0,11.18,0l50.41-29.11c3.09-1.78,3.1-4.69,0-6.47l-67-38.93a12.37,12.37,0,0,0-11.18,0Z"/></g><g class="cls-5"><polygon class="cls-88" points="267.11 226.32 267.12 230.73 268.89 231.76 268.88 227.35 267.11 226.32"/><g class="cls-5"><g class="cls-5"><path class="cls-89" d="M268.88,227.35v4.41a.8.8,0,0,1,.48.67V228a.81.81,0,0,0-.48-.67Z"/></g></g><g class="cls-5"><path class="cls-90" d="M251.92,228.46v4.4a1,1,0,0,1,.6-.83,3.15,3.15,0,0,1,2.85,0,1,1,0,0,1,.59.82v-4.4a1,1,0,0,0-.59-.83,3.17,3.17,0,0,0-2.86,0,1,1,0,0,0-.59.84Z"/></g><g class="cls-5"><g class="cls-5"><path class="cls-91" d="M268.87,228.7v4.41a.82.82,0,0,0,.49-.68V228a.81.81,0,0,1-.49.68Z"/></g></g><path class="cls-90" d="M248.29,234.91a1.27,1.27,0,0,1-.15-.56l0-4.41a1.63,1.63,0,0,0,.93,1.34l1.82,1.05v4.41l-.67-.39v4.13l-1.73-1a.83.83,0,0,1-.48-.68l0-4.41A.73.73,0,0,0,248.29,234.91Z"/><polygon class="cls-92" points="250.21 236.08 250.22 240.49 251.99 241.51 251.98 237.11 250.21 236.08"/><polygon class="cls-93" points="254.32 237.11 254.33 241.51 268.88 233.11 268.87 228.71 254.32 237.11"/><g class="cls-5"><g class="cls-5"><path class="cls-91" d="M252,237.11v4.4a2.54,2.54,0,0,0,2.34,0v-4.4a2.61,2.61,0,0,1-2.34,0Z"/></g></g><path class="cls-94" d="M250.87,232.33l-1.82-1.05c-1.31-.77-1.22-2.08.23-2.91l4.53-2.62a5.54,5.54,0,0,1,5-.11l1.82,1.05,2.39-1.38a2.6,2.6,0,0,1,2.35,0l1.73,1,1.77,1a.71.71,0,0,1,0,1.35l-14.55,8.41a2.61,2.61,0,0,1-2.34,0l-1.77-1-1.73-1a.72.72,0,0,1,0-1.36Zm4.5-3.05a.87.87,0,0,0,0-1.65,3.17,3.17,0,0,0-2.86,0,.88.88,0,0,0,0,1.66,3.16,3.16,0,0,0,2.87,0Z"/><path class="cls-95" d="M298.84,226c-2.6,5.86-8.22,10.46-13.76,13.45A58.5,58.5,0,0,1,259.6,246c-4.82.08-9.64-.51-14.44-.84a30.48,30.48,0,0,1-6.82-1.53l-5.63,2.58v2.07l54.62,31.88,14.86,8.24.07,0V227.88Z"/><polygon class="cls-96" points="354.02 256.4 302.26 227.88 302.26 288.33 354.02 258.24 354.02 256.4"/><path class="cls-49" d="M284.72,216.15l-17.61,10.17,1.77,1a.71.71,0,0,1,0,1.35l-14.55,8.41a2.61,2.61,0,0,1-2.34,0l-1.77-1-17.5,10.1,69.48,40.12L354,256.4Z"/></g><polygon class="cls-40" points="287.31 273.69 293.44 277.25 336.59 250.85 330.45 247.28 287.31 273.69"/><polygon class="cls-40" points="278.06 268.32 284.2 271.88 327.35 245.48 321.21 241.91 278.06 268.32"/><polygon class="cls-40" points="268.82 262.94 274.95 266.51 318.1 240.1 311.97 236.54 268.82 262.94"/><polygon class="cls-40" points="242.52 247.92 248.65 251.49 293.91 225.27 287.78 221.7 242.52 247.92"/><polygon class="cls-40" points="250.47 252.54 256.6 256.11 301.86 229.89 295.73 226.33 250.47 252.54"/><polygon class="cls-40" points="258.42 257.16 264.56 260.73 309.82 234.51 303.69 230.95 258.42 257.16"/><path class="cls-67" d="M342.45,255.43a6.59,6.59,0,0,0-5.2-.33l-38.1-22-4.66-.18,1.62,2.4.35.2,1,.57,1.54.9,2,1.17,2.42,1.41,2.74,1.6,3,1.74,3.16,1.84,3.26,1.9,3.28,1.91,3.22,1.88,3.08,1.79,2.87,1.67,2.58,1.51,2.21,1.28,1.76,1c.61.31,1.16.71,1.77,1a6.84,6.84,0,0,0,5.17.5,5.15,5.15,0,0,0,.93-.41C344.07,257.9,344.08,256.37,342.45,255.43Z"/><path class="cls-44" d="M300.74,230.68l36.8,21.24a4.66,4.66,0,0,1-2.13,3.48,1.47,1.47,0,0,1-1.48.13l-34.44-20a1.49,1.49,0,0,0,1.48-.13l0,0-2.15-1.24A4.64,4.64,0,0,1,300.74,230.68Z"/><path class="cls-97" d="M299.49,235.52l34.44,20a1.52,1.52,0,0,1-.63-1.41l-34.43-20A1.52,1.52,0,0,0,299.49,235.52Z"/><path class="cls-97" d="M301,230.44a1.49,1.49,0,0,1,1.48-.13l34.44,20a1.5,1.5,0,0,1,.62,1.41,1.13,1.13,0,0,1,0,.18l-36.8-21.24A3.07,3.07,0,0,1,301,230.44Z"/><path class="cls-44" d="M334.46,255.64a1.78,1.78,0,0,1-.27-1,4.64,4.64,0,0,1,2.16-3.66,1.83,1.83,0,0,1,.95-.25,1.11,1.11,0,0,0-.35-.39l.88.51,1.3.75.9.52.66.39-.16-.09.25.15.12.07-.21-.13.43.25.1.07-.12-.08h0l0,0,.07,0a1.14,1.14,0,0,1,.35.45l0,0a2,2,0,0,1,.15.73v.14a3.5,3.5,0,0,1-.18,1,3.45,3.45,0,0,1-.14.34,5.93,5.93,0,0,1-.31.68,3,3,0,0,1-.26.36,4.44,4.44,0,0,1-.4.54c-.11.11-.22.18-.34.28a2.71,2.71,0,0,1-.41.35l-.12.07a2,2,0,0,1-.83.27c-.08,0-.14,0-.22,0a1.08,1.08,0,0,1-.44-.09l-1.09-.63h0l-.9-.52a1.18,1.18,0,0,0,.43.09h0a1.18,1.18,0,0,1-.43-.09l-1.3-.76-.88-.51A1,1,0,0,0,334.46,255.64Z"/><path class="cls-97" d="M334.19,254.63h0l5.46,3.16-.07,0a2,2,0,0,1-.83.27c-.08,0-.14,0-.22,0a1.08,1.08,0,0,1-.44-.09l-1.09-.63h0l-.9-.52a1.18,1.18,0,0,0,.43.09h0a1.18,1.18,0,0,1-.43-.09l-1.3-.76-.88-.51a1,1,0,0,0,.53.11A1.78,1.78,0,0,1,334.19,254.63Z"/><path class="cls-98" d="M338.15,257.86l1.68,1a1.47,1.47,0,0,1-.6-1.37l-1.68-1A1.45,1.45,0,0,0,338.15,257.86Z"/><path class="cls-94" d="M342.75,253.81l-1.68-1a1.44,1.44,0,0,0-1.43.12,4.52,4.52,0,0,0-2.09,3.54l1.68,1a4.5,4.5,0,0,1,2.09-3.53A1.45,1.45,0,0,1,342.75,253.81Z"/><path class="cls-99" d="M339.83,258.84a2.9,2.9,0,0,0,4.23-3.41,3.05,3.05,0,0,0-1.31-1.62,1.45,1.45,0,0,0-1.43.13,4.57,4.57,0,0,0-2.05,3,5.75,5.75,0,0,0,0,.92A1.29,1.29,0,0,0,339.83,258.84Z"/><path class="cls-97" d="M296.11,230.07l1.54,2.62a1.11,1.11,0,0,1-.12-.52Z"/><path class="cls-44" d="M299.15,230.12l-3-.05,1.42,2.1a2.45,2.45,0,0,1,1.13-1.91A.9.9,0,0,1,299.15,230.12Z"/><path class="cls-98" d="M297.66,232.7l1.44,2.42a1.89,1.89,0,0,1-.23-1l-1.34-1.94A1.06,1.06,0,0,0,297.66,232.7Z"/><path class="cls-94" d="M302,230.17l-2.83,0a.92.92,0,0,0-.49.14,2.45,2.45,0,0,0-1.13,1.91l1.34,1.94a4.67,4.67,0,0,1,2.16-3.67A1.87,1.87,0,0,1,302,230.17Z"/><path class="cls-98" d="M333.93,255.53l.88.51a1.5,1.5,0,0,1-.62-1.41l-.89-.51A1.52,1.52,0,0,0,333.93,255.53Z"/><path class="cls-94" d="M337.83,250.84l-.88-.51a1.49,1.49,0,0,0-1.48.12,4.71,4.71,0,0,0-2.17,3.67l.89.51a4.64,4.64,0,0,1,2.16-3.66A1.47,1.47,0,0,1,337.83,250.84Z"/><path class="cls-94" d="M340,252.11l-.9-.52a1.49,1.49,0,0,0-1.48.13,4.71,4.71,0,0,0-2.17,3.66l.9.53a4.71,4.71,0,0,1,2.17-3.67A1.49,1.49,0,0,1,340,252.11Z"/><path class="cls-98" d="M336.11,256.8l.9.52a1.5,1.5,0,0,1-.63-1.41l-.9-.53A1.53,1.53,0,0,0,336.11,256.8Z"/><path class="cls-44" d="M336.38,255.83v.08l.11.06v-.06Z"/><path class="cls-97" d="M335.48,255.38a1.53,1.53,0,0,0,.63,1.42l-1.3-.76a1.5,1.5,0,0,1-.62-1.41Z"/><path class="cls-97" d="M339.64,253l-.13.1-1.15-.67c.06,0,.12-.11.19-.15a1.49,1.49,0,0,1,1.48-.13h0l.66.39-.16-.09.25.15.12.07-.21-.13.43.25.1.07-.12-.08h0l0,0,.07,0c.07,0,.1.13.16.2l-.31-.18A1.44,1.44,0,0,0,339.64,253Z"/><path class="cls-97" d="M337.65,251.72c-.07,0-.13.11-.2.15l-1.3-.75c.07,0,.13-.11.2-.15a1.76,1.76,0,0,1,.65-.21,1,1,0,0,1,.29,0,1,1,0,0,1,.54.11l1.3.75A1.49,1.49,0,0,0,337.65,251.72Z"/><path class="cls-98" d="M339.64,253a1.44,1.44,0,0,1,1.43-.12l.31.18,1.37.79a1.31,1.31,0,0,0-1.05,0,2.23,2.23,0,0,0-.39.13s-.07.07-.12.09l-1.68-1Z"/><path class="cls-98" d="M335.47,250.45a1.49,1.49,0,0,1,1.48-.12l.88.51a1,1,0,0,0-.54-.11,1,1,0,0,0-.29,0,1.59,1.59,0,0,0-.65.21c-.07,0-.13.11-.2.15l-.88-.51C335.34,250.57,335.4,250.49,335.47,250.45Z"/><path class="cls-94" d="M336.35,251a1.59,1.59,0,0,1,.65-.21A1.76,1.76,0,0,0,336.35,251Z"/><polygon class="cls-94" points="340.03 252.12 340.03 252.12 339.13 251.59 340.03 252.12"/><path class="cls-98" d="M338.55,252.24c-.07,0-.13.11-.19.15l-.91-.52c.07,0,.13-.11.2-.15a1.49,1.49,0,0,1,1.48-.13l.9.52A1.49,1.49,0,0,0,338.55,252.24Z"/><g class="cls-5"><g class="cls-5"><path class="cls-89" d="M312.69,117.28,308,114.55a.92.92,0,0,0-.39-.85l4.71,2.73a.93.93,0,0,1,.39.85Z"/></g></g><g class="cls-5"><g class="cls-5"><path class="cls-100" d="M311.36,116.52l-4.7-2.74a1.07,1.07,0,0,1,.38-.15l4.71,2.73a1.53,1.53,0,0,0-.39.16Z"/><path class="cls-101" d="M311.75,116.36,307,113.63a.73.73,0,0,1,.55.07l4.71,2.73a.84.84,0,0,0-.55-.07Z"/></g></g><g class="cls-5"><path class="cls-102" d="M310.12,113.74,305.41,111a5.68,5.68,0,0,1,1.61-.64l4.71,2.74a5.68,5.68,0,0,0-1.61.64Z"/><path class="cls-102" d="M311.73,113.1,307,110.36a3.06,3.06,0,0,1,2.18.28l4.7,2.74a3,3,0,0,0-2.17-.28Z"/></g><g class="cls-5"><g class="cls-5"><path class="cls-102" d="M260.67,215.89l-4.7-2.73a3.72,3.72,0,0,1-1.56-3.4l4.71,2.74a3.72,3.72,0,0,0,1.55,3.39Z"/></g></g><path class="cls-102" d="M289.51,194.71c1.15-.67,2.09-.14,2.09,1.19a4.6,4.6,0,0,1-2.08,3.61L285.26,202c-1.15.66-2.09.13-2.1-1.2a4.58,4.58,0,0,1,2.08-3.6Z"/><path class="cls-103" d="M310.12,113.74c2.92-1.69,5.33-.33,5.33,3l.19,65.24c0,3.36-2.39,5.34-5.31,7l-45.88,26.49c-2.92,1.69-5.32.32-5.33-3l-.18-63.1a11.71,11.71,0,0,1,5.29-9.17Zm2.74,64.45-.17-60.91a.81.81,0,0,0-1.33-.76L263,144.42a3,3,0,0,0-1.33,2.3l.17,60.91c0,.82.61,1.17,1.34.75l48.34-27.91a2.94,2.94,0,0,0,1.31-2.28Zm-23.34,21.32a4.6,4.6,0,0,0,2.08-3.61c0-1.33-.94-1.86-2.09-1.19l-4.27,2.46a4.58,4.58,0,0,0-2.08,3.6c0,1.33.95,1.86,2.1,1.2l4.26-2.46Z"/><path class="cls-83" d="M311.36,116.52a.81.81,0,0,1,1.33.76l.17,60.91a2.94,2.94,0,0,1-1.31,2.28l-48.34,27.91c-.73.42-1.34.07-1.34-.75l-.17-60.91a3,3,0,0,1,1.33-2.3Z"/><polygon class="cls-102" points="259.12 212.5 254.41 209.76 254.24 146.66 258.94 149.4 259.12 212.5"/><polygon class="cls-102" points="264.23 140.23 259.53 137.5 305.41 111 310.12 113.74 264.23 140.23"/><g class="cls-5"><path class="cls-102" d="M258.94,149.4l-4.7-2.74a11.51,11.51,0,0,1,2.72-6.91l4.71,2.73a11.64,11.64,0,0,0-2.73,6.92Z"/><path class="cls-102" d="M261.67,142.48,257,139.75a9.49,9.49,0,0,1,2.57-2.25l4.7,2.73a9.62,9.62,0,0,0-2.56,2.25Z"/></g><path class="cls-104" d="M288.61,142.19c.19-.86,1.09-1.91,2.92-2.77,1.25-.59,3-.06,3.18,1.22,1.33-1.3,3.61-2,4.67-1.68a2.24,2.24,0,0,1,1.45,1.48,3.71,3.71,0,0,1,.08,1.91c1.87-1.53,3.79-1.23,4.57.16a4.54,4.54,0,0,1,.29,3.25,8.59,8.59,0,0,1-.6,1.63c.59-.34,3.82-1,3.77,2.86a11.34,11.34,0,0,1-2.49,6.29c3.19.25,1.72,6.17-1.22,8a.71.71,0,0,0,.08.15c2.25,1.95-1.71,8.15-4.76,8.65a10.28,10.28,0,0,1-1.26,3.1c-1.19,2-3.48,3.82-4.77,3.39-.28.46-.57.87-.79,1.16-1.39,1.82-3.52,3.47-4.75,2.68-.24-.15-.39-.69-.49-1.22V144.77A16.64,16.64,0,0,1,288.61,142.19Z"/><path class="cls-105" d="M291.11,184a2.47,2.47,0,0,1-2.61.3c-.17-.11-.42-.38-.61-1.43a.31.31,0,0,1,0-.1V145.12a15.47,15.47,0,0,1,.13-2.74,5.31,5.31,0,0,1,2.79-3.2c.25-.14.52-.28.8-.41a2.73,2.73,0,0,1,3.55.86,6.58,6.58,0,0,1,.73-.48,5.73,5.73,0,0,1,3.91-.89,2.53,2.53,0,0,1,1.64,1.67,3.81,3.81,0,0,1,.18,1.31h0c1.79-1,3.61-.75,4.43.7a5.14,5.14,0,0,1,.32,3.64c-.07.26-.16.57-.28.89a3.41,3.41,0,0,1,1.88.18c1.06.46,1.61,1.59,1.59,3.25a11.33,11.33,0,0,1-2.14,6.06c1.27.46,1.75,2,1.24,4.11a8.89,8.89,0,0,1-2.49,4.33c.58.87.56,2.23-.09,3.84a11.2,11.2,0,0,1-4.29,5.2,5.61,5.61,0,0,1-.83.39,12.06,12.06,0,0,1-1.21,2.72,10.37,10.37,0,0,1-3.39,3.45,3.44,3.44,0,0,1-1.79.56,8,8,0,0,1-.48.68A10.68,10.68,0,0,1,291.11,184Zm-2-2c.15.82.32.95.34,1,.42.27,1,.2,1.66-.2a8.34,8.34,0,0,0,2.25-2.09c.22-.29.48-.67.71-1s.62-.61.86-.53a1.9,1.9,0,0,0,1.42-.32,7.63,7.63,0,0,0,2.49-2.53,9.13,9.13,0,0,0,1.11-2.73,1.36,1.36,0,0,1,.32-.6,1,1,0,0,1,.52-.32,3,3,0,0,0,1-.38,8.55,8.55,0,0,0,3.2-3.91c.31-.79.71-2.23-.19-3a.52.52,0,0,1-.13-.2v0a.69.69,0,0,1,0-.6,1.42,1.42,0,0,1,.5-.58,5.74,5.74,0,0,0,2.27-3.47c.33-1.39.17-3-1.37-3.17a.29.29,0,0,1-.28-.29,1,1,0,0,1,.18-.6l.23-.33a9.8,9.8,0,0,0,2.09-5.44c0-3.4-2.76-2.79-3.16-2.58-.23.13-.43.13-.54,0a.63.63,0,0,1,0-.65,7.38,7.38,0,0,0,.51-1.4,4.06,4.06,0,0,0-.25-2.87,2.27,2.27,0,0,0-3.3-.61,4.82,4.82,0,0,0-.57.39.61.61,0,0,1-.57.18c-.16-.07-.22-.25-.17-.49a3.11,3.11,0,0,0-.07-1.59,2,2,0,0,0-1.27-1.31,4.74,4.74,0,0,0-3.09.74,4.4,4.4,0,0,0-.94.69.87.87,0,0,1-.54.27.3.3,0,0,1-.3-.28c-.15-1-1.68-1.45-2.64-1-1.26.59-2.12,1.33-2.26,1.93a16.76,16.76,0,0,0-.09,2.4Z"/><path class="cls-105" d="M297,149.18c-.29.17-.55.12-.61-.14a1.18,1.18,0,0,1,.49-1,8.33,8.33,0,0,0,3.5-6.1,1.27,1.27,0,0,1,.62-1h0c.34-.2.61-.08.61.26a11,11,0,0,1-4.49,7.88Z"/><path class="cls-105" d="M300.41,174.48l-.19.08c-.32.08-.5-.16-.4-.54v0c.11-.41,1.05-4-.32-5.09-.75-.58-2.11-.3-4,.85-.36.2-.62.09-.63-.25a1.29,1.29,0,0,1,.61-1c2.36-1.39,4.05-1.7,5.05-.92,1.7,1.31.71,5.31.5,6.1A1.35,1.35,0,0,1,300.41,174.48Z"/><path class="cls-105" d="M297.3,163.12a.62.62,0,0,1-.34.09c-.28,0-.36-.36-.17-.75a4,4,0,0,0-.33-3.77c-.5-.63-1.45-1.18-3.19-.17-3.46,2-4.14,6.57-4.17,6.76a1.27,1.27,0,0,1-.7.92c-.33.14-.57,0-.52-.4.29-2,1.77-6.43,5.39-8.52,1.83-1.06,3.35-1,4.27.2a5.15,5.15,0,0,1,.28,5.06A1.41,1.41,0,0,1,297.3,163.12Z"/><path class="cls-105" d="M296.9,158.31a.53.53,0,0,1-.41.08c-.25-.09-.27-.47,0-.85a17.57,17.57,0,0,1,5.71-6.23c3.21-1.94,5.55-1,5.65-.95s.24.5,0,.88-.63.6-.87.5a5.72,5.72,0,0,0-4.77.79,15.15,15.15,0,0,0-4.81,5.31A1.3,1.3,0,0,1,296.9,158.31Z"/><path class="cls-105" d="M294.52,180.4c-.33.2-.61.09-.62-.24a2.21,2.21,0,0,1,.07-.43c.19-.91.29-1.86-.41-2-.26-.07-.29-.44-.07-.83s.61-.64.87-.57c1.37.36,1,2.3.81,3,0,.06,0,.11,0,.15a1.25,1.25,0,0,1-.59.92Z"/><path class="cls-105" d="M295,153.73h0c-2.1,1.14-4.26,1-5-.37-.67-1.16-.31-3,1-5.27a5.52,5.52,0,0,0,1.08-3.41c-.25-1.27-1.8-1.26-1.81-1.26-.3,0-.41-.3-.25-.7a1.15,1.15,0,0,1,.84-.72,2.35,2.35,0,0,1,2.43,1.77c.22,1.13-.24,2.68-1.37,4.61-1,1.69-1.26,3-.79,3.84.59,1,2.32,1.13,3.94.25.34-.18.61,0,.59.29A1.31,1.31,0,0,1,295,153.73Z"/><path class="cls-105" d="M288.94,178.41a2.79,2.79,0,0,1-.61.28c-.33.1-.52-.13-.43-.51a1.29,1.29,0,0,1,.76-.87,2.31,2.31,0,0,0,1-.74,4.26,4.26,0,0,0,.82-2.14,1.3,1.3,0,0,1,.7-.92c.34-.15.57,0,.52.4a6.63,6.63,0,0,1-1.38,3.33A5.05,5.05,0,0,1,288.94,178.41Z"/><path class="cls-105" d="M302.14,164.65c-.28.16-.54.11-.6-.14a1.13,1.13,0,0,1,.46-1,2.52,2.52,0,0,0,.84-1,1.45,1.45,0,0,0-.28-1.32c-.18-.19-.08-.63.21-1a3.65,3.65,0,0,0,.93-1.63c0-.59-.64-.75-.64-.75a.31.31,0,0,1-.24-.31,1,1,0,0,1,.17-.57c.31-.49.63-1.15.43-1.51a.36.36,0,0,0-.46-.17c-.33.27-.65.26-.74,0a1.17,1.17,0,0,1,.46-1,1.27,1.27,0,0,1,1.76-.1c.42.49.35,1.38-.17,2.47a1.37,1.37,0,0,1,.66,1.34,4.68,4.68,0,0,1-1.06,2.37,2.46,2.46,0,0,1,.1,2,5,5,0,0,1-1.69,2.24Z"/><path class="cls-105" d="M297.93,164.21c-.27.16-.52.12-.6-.11,0,0,0-.06,0-.09-.07-.44-.26-.72-.5-.74a1.16,1.16,0,0,0-.76.37c-.33.27-.67.26-.75,0a1.14,1.14,0,0,1,.45-1,2.49,2.49,0,0,1,1.75-.76c.74.08,1,.84,1,1.29h0a1.17,1.17,0,0,1-.45,1Z"/><path class="cls-105" d="M303.09,148c-.33.19-.6.09-.62-.24a.8.8,0,0,1,0-.23c.17-.79.14-1.35-.1-1.52s-.49-.06-1,.2-.61.07-.61-.27a1.31,1.31,0,0,1,.62-1h0c.86-.48,1.51-.58,1.92-.28s.59,1.22.32,2.45h0a1.37,1.37,0,0,1-.58.84Z"/><path class="cls-105" d="M291.35,170.73a.53.53,0,0,1-.44.08,1.33,1.33,0,0,1-.9-1.53,4.34,4.34,0,0,1,1.23-2.22l-.09.12c.23-.34.58-.55.82-.48s.28.45.06.84a1.23,1.23,0,0,1-.22.28,2,2,0,0,0-.58.94c0,.27.16.51.55.67s.24.49,0,.87A1.35,1.35,0,0,1,291.35,170.73Z"/><path class="cls-105" d="M296.88,145.49c-.82.47-1.43.59-1.81.36s-.56-.61-.32-1.74a1.05,1.05,0,0,0,0,.12,1.27,1.27,0,0,1,.53-.92c.34-.25.65-.19.7.12a1.1,1.1,0,0,1,0,.28c-.13.58,0,.75.06.8s.56,0,1.11-.4c.34-.22.63-.13.65.2a1.22,1.22,0,0,1-.57,1C297.09,145.37,297,145.43,296.88,145.49Z"/><path class="cls-106" d="M286.16,143.6c-.2-.63-1.09-.65-2.92.61a9.3,9.3,0,0,0-3.18,4.89c-1.33.24-3.61,2.17-4.67,3.71a10.06,10.06,0,0,0-1.46,3.17,4.23,4.23,0,0,0-.07,2c-1.87.63-3.79,3.14-4.58,5.44A6.07,6.07,0,0,0,269,167a2.28,2.28,0,0,0,.59.94c-.58.34-3.82,3.42-3.77,7.21.05,3.25,2.2,3.29,2.5,3.41-3.19,3.93-1.72,8.15,1.22,6.55a1.83,1.83,0,0,1-.08.25c-2.25,4.55,1.71,6.17,4.76,3.15a2.54,2.54,0,0,0,1.25,1.65c1.19.61,3.49-.2,4.78-2.12a3.23,3.23,0,0,0,.79.25,5,5,0,0,0,4.75-2.81,5.89,5.89,0,0,0,.48-1.78V146.05A15.38,15.38,0,0,0,286.16,143.6Z"/><path class="cls-107" d="M283.65,188.3h0a4.73,4.73,0,0,1-3,.69l-.49-.12a6.67,6.67,0,0,1-1.78,1.49,3.76,3.76,0,0,1-3.39.47,2.71,2.71,0,0,1-1.22-1.32,6.26,6.26,0,0,1-.82.56c-1.72,1-3.44.9-4.29-.24a3.88,3.88,0,0,1-.09-3.73,2,2,0,0,1-2.5-1.46c-.51-1.53,0-3.62,1.25-5.54-.8-.25-2.11-1-2.14-3.59a9.41,9.41,0,0,1,1.59-5.09,13.17,13.17,0,0,1,1.87-2.34,3,3,0,0,1-.27-.58,6.73,6.73,0,0,1,.32-4,11.44,11.44,0,0,1,4.44-5.83,6,6,0,0,1,.18-1.53,11.47,11.47,0,0,1,1.64-3.56,13.62,13.62,0,0,1,3.91-3.62,7.18,7.18,0,0,1,.73-.37,11.31,11.31,0,0,1,3.55-5c.28-.19.55-.36.8-.5,2.14-1.24,2.66-.43,2.79,0a14.22,14.22,0,0,1,.13,2.61v37.62a.41.41,0,0,1,0,.11,6.16,6.16,0,0,1-.61,2.14A7,7,0,0,1,283.65,188.3Zm-3.4-.89a.52.52,0,0,1,.44-.07,2.78,2.78,0,0,0,.71.23,3.55,3.55,0,0,0,2.25-.5h0a4.43,4.43,0,0,0,1.66-1.72,4.55,4.55,0,0,0,.35-1.36V146.41a14.37,14.37,0,0,0-.1-2.31c-.13-.44-1-.19-2.26.68a8.26,8.26,0,0,0-2.63,4.05,1.32,1.32,0,0,1-.3.62,1,1,0,0,1-.54.35,3.24,3.24,0,0,0-.94.39,11,11,0,0,0-3.1,2.85,9.14,9.14,0,0,0-1.27,2.77,3.56,3.56,0,0,0-.06,1.67.91.91,0,0,1-.17.67,1.19,1.19,0,0,1-.58.5,3.09,3.09,0,0,0-.56.26,8.68,8.68,0,0,0-3.3,4.41,5.38,5.38,0,0,0-.26,3.17,2,2,0,0,0,.52.81.59.59,0,0,1,0,.62,1.36,1.36,0,0,1-.55.63c-.39.25-3.19,2.87-3.15,6.23,0,2.56,1.52,2.9,2.08,3a1.46,1.46,0,0,1,.24.07c.13,0,.19.2.17.4a1.27,1.27,0,0,1-.27.61c-1.55,1.9-1.7,3.74-1.37,4.74a1.45,1.45,0,0,0,2.27.86c.2-.11.39-.12.5,0a.54.54,0,0,1,0,.55v0a2,2,0,0,1-.14.36c-.9,1.81-.5,2.8-.18,3.22.63.84,2,.93,3.2.21a4.78,4.78,0,0,0,1-.77.87.87,0,0,1,.52-.28.29.29,0,0,1,.32.23,2.21,2.21,0,0,0,1.11,1.45,2.78,2.78,0,0,0,2.48-.34,4.22,4.22,0,0,0,1.42-1.32A1.44,1.44,0,0,1,280.25,187.41Z"/><path class="cls-107" d="M277.77,160.28a.34.34,0,0,1-.12.06c-3.55,1.34-4.49-1.17-4.49-2.69a1.23,1.23,0,0,1,.61-1h0c.34-.2.62-.09.62.25,0,.15.08,3.36,3.5,2.06.33-.12.55.08.48.45A1.26,1.26,0,0,1,277.77,160.28Z"/><path class="cls-107" d="M273.77,189.44l.59-.53-.59.52a8.23,8.23,0,0,1,.49-6.67,12.25,12.25,0,0,1,5.06-4.91c.34-.19.61-.07.6.27a1.25,1.25,0,0,1-.62,1,9.86,9.86,0,0,0-4.05,3.83,6.93,6.93,0,0,0-.31,5.45l-.58.54Z"/><path class="cls-107" d="M277.46,174.57a.42.42,0,0,1-.51,0c-.8-.75-.68-3.06.27-5.38a10.52,10.52,0,0,1,4.28-5.14c3.62-2.08,5.1.6,5.38,2.31a1.2,1.2,0,0,1-.52,1c-.33.24-.65.19-.7-.11h0c0-.17-.71-4-4.16-2a7.76,7.76,0,0,0-3.19,3.86c-.79,1.92-.81,3.7-.33,4.15.19.17.11.6-.18,1A1.19,1.19,0,0,1,277.46,174.57Z"/><path class="cls-107" d="M277.86,169.3a.45.45,0,0,1-.45.06,4.89,4.89,0,0,0-4.82.25,16.2,16.2,0,0,0-4.76,4.71c-.24.38-.63.6-.87.5s-.24-.49,0-.87a18.29,18.29,0,0,1,5.65-5.58,5.77,5.77,0,0,1,5.71-.36c.23.11.21.51,0,.89A1.22,1.22,0,0,1,277.86,169.3Z"/><path class="cls-107" d="M280.25,188.64l0,0c-.32.17-.58.06-.6-.24a.61.61,0,0,0,0-.11,4.36,4.36,0,0,1,.81-4c.26-.37.64-.56.86-.43s.19.55-.07.92a2.71,2.71,0,0,0-.4,2.5,1,1,0,0,1,.06.36A1.28,1.28,0,0,1,280.25,188.64Z"/><path class="cls-107" d="M279.76,162.53c-.33.19-.61.09-.62-.24a1.28,1.28,0,0,1,.6-1,10.54,10.54,0,0,0,3.94-4.8c.47-1.37.2-2.38-.79-2.93a2.68,2.68,0,0,1-1.38-3A11,11,0,0,1,284,146c.3-.33.67-.44.84-.24s0,.65-.25,1a8.49,8.49,0,0,0-1.81,3.37,1.93,1.93,0,0,0,1.08,2.15c1.31.72,1.67,2.18,1,4.11a13.24,13.24,0,0,1-5,6.18Z"/><path class="cls-107" d="M285.83,180.21a2.6,2.6,0,0,1-1.36.39c-.74,0-1.2-.63-1.38-1.73a1.2,1.2,0,0,1,.51-1c.34-.24.65-.19.7.11.13.76.41,1.16.83,1.2a1.64,1.64,0,0,0,1-.4c.33-.27.67-.27.75,0a1.1,1.1,0,0,1-.42,1A4.32,4.32,0,0,1,285.83,180.21Z"/><path class="cls-107" d="M272.63,181.68l-.14.07c-1.07.37-1.51.05-1.7-.28a3,3,0,0,1,.11-2.13,1.17,1.17,0,0,1-1.06-1.16,4.16,4.16,0,0,1,.66-2.1,1.88,1.88,0,0,1-.17-2.26,3.65,3.65,0,0,1,1.76-1.94c.33-.1.53.12.44.5a1.29,1.29,0,0,1-.73.87,1.53,1.53,0,0,0-.45.7.73.73,0,0,0,.43,1,.36.36,0,0,1,.17.38,1.24,1.24,0,0,1-.24.58,3.08,3.08,0,0,0-.64,1.49c0,.44.52.54.93.55s.39.34.21.73-.49,1.28-.28,1.65c.11.19.39.2.84,0s.54.09.46.47A1.35,1.35,0,0,1,272.63,181.68Z"/><path class="cls-107" d="M276.84,176.39l-.16.07c-.31.1-.5-.1-.45-.44a5,5,0,0,1,1-2.47,3.85,3.85,0,0,1,1.75-1.26c.33-.11.54.11.46.48a1.3,1.3,0,0,1-.75.89,1.48,1.48,0,0,0-.76.5,2.81,2.81,0,0,0-.5,1.32.3.3,0,0,1,0,.1A1.36,1.36,0,0,1,276.84,176.39Z"/><path class="cls-107" d="M271.68,166.17l0,0c-.29.15-.52.07-.58-.17a3.74,3.74,0,0,1,.31-2.81,5.08,5.08,0,0,1,1.93-2c.34-.19.62-.09.62.25a1.25,1.25,0,0,1-.6,1,2.61,2.61,0,0,0-1,.91,2.2,2.2,0,0,0-.09,1.63.59.59,0,0,1,0,.21A1.29,1.29,0,0,1,271.68,166.17Z"/><path class="cls-107" d="M283.42,175.31a.52.52,0,0,1-.44.07c-.24-.1-.23-.5,0-.88a2.63,2.63,0,0,0,.55-1.3c0-.11-.12-.29-.59-.26a.35.35,0,0,1-.21,0c-.22-.12-.2-.53.06-.9a1,1,0,0,1,.72-.48c.91-.05,1.17.4,1.23.79a4.1,4.1,0,0,1-.89,2.57A1.28,1.28,0,0,1,283.42,175.31Z"/><path class="cls-107" d="M277.89,156.45l-.32.18c-.34.17-.6,0-.58-.33a1.31,1.31,0,0,1,.66-1,2.61,2.61,0,0,0,1.1-.88,1.11,1.11,0,0,0,.07-.87.44.44,0,0,1,0-.25,1.29,1.29,0,0,1,.69-.93c.27-.12.48,0,.53.2a2.73,2.73,0,0,1-.32,2.1A4.73,4.73,0,0,1,277.89,156.45Z"/><path class="cls-107" d="M277.69,184.06a.34.34,0,0,1-.12.06c-2.37.89-3.08-.54-3.13-1.42a1.3,1.3,0,0,1,.59-1c.34-.21.62-.12.64.21,0,.17.18,1.59,2.14.85.34-.12.55.08.48.45A1.3,1.3,0,0,1,277.69,184.06Z"/><path class="cls-67" d="M106.2,248.74c-8-4.59-20.89-4.59-28.86,0s-8,12.06,0,16.66,20.89,4.6,28.86,0S114.17,253.34,106.2,248.74Z"/><path class="cls-108" d="M121.27,250.32c-.7-2.86-2.59-5-4.38-7.25.08.11.17.23.24.34-2.39-3.33-5.11-6.46-7.67-9.67h-16c-2.56,3.21-5.28,6.34-7.67,9.67.07-.11.16-.23.24-.34-1.79,2.25-3.68,4.39-4.38,7.25A10.05,10.05,0,0,0,85,260c4.32,4,10.67,5.45,16.46,5.48S113.62,264,117.94,260A10.05,10.05,0,0,0,121.27,250.32Z"/><rect class="cls-108" x="93.5" y="226.08" width="15.97" height="11.16"/><path class="cls-108" d="M108.45,216.46c3.7,2.23,3.57,5.78-.29,7.93s-10,2.1-13.69-.13-3.58-5.78.28-7.94A15.1,15.1,0,0,1,108.45,216.46Zm-7,3.9Z"/><path class="cls-109" d="M101.43,224.62a12.55,12.55,0,0,1-6.26-1.52c-1.34-.8-2.06-1.78-2-2.75s.85-2,2.29-2.85a12.76,12.76,0,0,1,6.08-1.4,12.47,12.47,0,0,1,6.26,1.52c1.33.8,2.06,1.78,2,2.75s-.85,2-2.28,2.84A12.7,12.7,0,0,1,101.43,224.62Z"/><path class="cls-110" d="M95.41,218.69a12.76,12.76,0,0,1,6.08-1.4,12.47,12.47,0,0,1,6.26,1.52,4.09,4.09,0,0,1,1.94,2.12,1.84,1.84,0,0,0,.1-.56c0-1-.71-2-2-2.75a12.47,12.47,0,0,0-6.26-1.52,12.76,12.76,0,0,0-6.08,1.4c-1.44.8-2.27,1.84-2.29,2.85a2.3,2.3,0,0,0,.1.63A4.44,4.44,0,0,1,95.41,218.69Z"/><path class="cls-109" d="M91.78,223.12v-2.73c0,1.39.9,2.78,2.7,3.87,3.7,2.23,9.83,2.29,13.69.13,2-1.1,3-2.58,3-4.06v2.74c0,1.47-1,3-3,4.06-3.86,2.15-10,2.09-13.69-.14C92.68,225.91,91.78,224.52,91.78,223.12Z"/><path class="cls-104" d="M118.2,246.35h0l-4.35-5.4a9.7,9.7,0,0,0-2.52-2.13c-5.21-3.13-13.83-3.22-19.25-.19A9.66,9.66,0,0,0,89.15,241l-.43.54-.22.27-.43.54-.43.55-.22.27-.43.54-.43.54-.22.27-.43.55-.43.54-.22.27-.43.54h0A11.52,11.52,0,0,0,83.27,249a9,9,0,0,0-.74,3,8.08,8.08,0,0,0,1.81,5.59,15.25,15.25,0,0,0,5.84,4.33,23.43,23.43,0,0,0,4,1.37,32.19,32.19,0,0,0,4.11.71,31.17,31.17,0,0,0,5.65.06,29,29,0,0,0,5.42-.93,20.49,20.49,0,0,0,7.81-4,9.09,9.09,0,0,0,3.33-6.11A9.53,9.53,0,0,0,118.2,246.35Z"/><path class="cls-111" d="M120.12,249.78a11,11,0,0,0-1.9-3.39v0l-4.35-5.4c2.39,3,1.39,6.62-2.92,9-5.43,3-14,2.94-19.25-.19-4-2.4-4.82-5.9-2.54-8.76l-.43.54-.22.27-.43.54-.43.55-.22.27-.43.54-.43.54-.22.27-.43.55-.43.54-.22.27-.43.54,0,.05a10.69,10.69,0,0,0-2,4,8.71,8.71,0,0,0-.24,2.16,8.42,8.42,0,0,0,.24,1.79,8.16,8.16,0,0,0,.78,1.94,9.61,9.61,0,0,0,1.1,1.58,14.34,14.34,0,0,0,3.47,2.88,20.81,20.81,0,0,0,3.62,1.7,22.47,22.47,0,0,0,2.56.77,24.63,24.63,0,0,0,2.69.52,31.48,31.48,0,0,0,11.17-.39,24,24,0,0,0,5.19-1.78,16.78,16.78,0,0,0,2.3-1.3,16.22,16.22,0,0,0,1.32-1,11.25,11.25,0,0,0,2.52-3,8,8,0,0,0,1-3.36A8.15,8.15,0,0,0,120.12,249.78Z"/><polygon class="cls-84" points="113.86 240.96 113.86 240.96 113.86 240.96 113.86 240.96"/><path class="cls-112" d="M92.49,248c-1.35,1.83-3.55,2.49-4.9,1.49s-1.37-3.3,0-5.12,3.54-2.49,4.9-1.49S93.83,246.15,92.49,248Z"/><path class="cls-113" d="M91,253.75a1.54,1.54,0,1,1-.69-2.34A1.75,1.75,0,0,1,91,253.75Z"/></g></g></g></svg>