<svg xmlns="http://www.w3.org/2000/svg" xmlns:xlink="http://www.w3.org/1999/xlink" viewBox="0 0 337.35 352"><defs><style>.cls-1,.cls-3,.cls-5{mask:url(#mask);}.cls-1{filter:url(#luminosity-noclip-5);}.cls-10,.cls-2,.cls-4,.cls-6,.cls-63,.cls-64,.cls-65,.cls-8{mix-blend-mode:multiply;}.cls-2{fill:url(#radial-gradient);}.cls-3{filter:url(#luminosity-noclip-6);}.cls-4{fill:url(#radial-gradient-2);}.cls-5{filter:url(#luminosity-noclip-7);}.cls-6{fill:url(#radial-gradient-3);}.cls-7{mask:url(#mask-4);filter:url(#luminosity-noclip-8);}.cls-8{fill:url(#radial-gradient-4);}.cls-9{isolation:isolate;}.cls-11{fill:#fff;opacity:0;}.cls-12{fill:#f9f9f9;}.cls-12,.cls-41{opacity:0.05;}.cls-13{fill:#f3f3f3;}.cls-13,.cls-42{opacity:0.1;}.cls-14{fill:#ededed;}.cls-14,.cls-43{opacity:0.14;}.cls-15{fill:#e7e7e7;}.cls-15,.cls-44{opacity:0.19;}.cls-16{fill:#e1e1e1;}.cls-16,.cls-45{opacity:0.24;}.cls-17{fill:#dadada;}.cls-17,.cls-46{opacity:0.29;}.cls-18{fill:#d4d4d4;}.cls-18,.cls-47{opacity:0.33;}.cls-19{fill:#cecece;}.cls-19,.cls-48{opacity:0.38;}.cls-20{fill:#c8c8c8;}.cls-20,.cls-49{opacity:0.43;}.cls-21,.cls-48{fill:#c2c2c2;}.cls-21,.cls-50{opacity:0.48;}.cls-22{fill:#bcbcbc;}.cls-22,.cls-51{opacity:0.52;}.cls-23{fill:#b6b6b6;}.cls-23,.cls-52{opacity:0.57;}.cls-24{fill:#b0b0b0;}.cls-24,.cls-53{opacity:0.62;}.cls-25{fill:#aaa;}.cls-25,.cls-54{opacity:0.67;}.cls-26{fill:#a4a4a4;}.cls-26,.cls-55{opacity:0.71;}.cls-27{fill:#9d9d9d;}.cls-27,.cls-56{opacity:0.76;}.cls-28{fill:#979797;}.cls-28,.cls-57{opacity:0.81;}.cls-29{fill:#919191;}.cls-29,.cls-58{opacity:0.86;}.cls-30{fill:#8b8b8b;}.cls-30,.cls-59{opacity:0.9;}.cls-31{fill:#858585;}.cls-31,.cls-60{opacity:0.95;}.cls-32{fill:#7f7f7f;}.cls-33{fill:#ed7000;}.cls-34{fill:#0d4a8a;}.cls-35{fill:#0a3868;}.cls-36{fill:#1162b8;}.cls-37,.cls-38{opacity:0.42;}.cls-37,.cls-38,.cls-39,.cls-40,.cls-66,.cls-67,.cls-68,.cls-70,.cls-71,.cls-80{mix-blend-mode:overlay;}.cls-37{fill:url(#linear-gradient);}.cls-38{fill:url(#linear-gradient-2);}.cls-39,.cls-40{opacity:0.48;}.cls-39{fill:url(#linear-gradient-3);}.cls-40{fill:url(#linear-gradient-4);}.cls-41{fill:#f7f7f7;}.cls-42{fill:#f0f0f0;}.cls-43{fill:#e8e8e8;}.cls-44{fill:#e0e0e0;}.cls-45{fill:#d9d9d9;}.cls-46{fill:#d1d1d1;}.cls-47{fill:#c9c9c9;}.cls-49{fill:#bababa;}.cls-50{fill:#b2b2b2;}.cls-51{fill:#ababab;}.cls-52{fill:#a3a3a3;}.cls-53{fill:#9b9b9b;}.cls-54{fill:#949494;}.cls-55{fill:#8c8c8c;}.cls-56{fill:#848484;}.cls-57{fill:#7d7d7d;}.cls-58{fill:#757575;}.cls-59{fill:#6d6d6d;}.cls-60{fill:#666;}.cls-61{fill:#5e5e5e;}.cls-62{fill:#30393f;}.cls-63,.cls-64,.cls-65,.cls-66,.cls-67,.cls-68{opacity:0.45;}.cls-63{fill:url(#linear-gradient-5);}.cls-64{fill:url(#linear-gradient-6);}.cls-65{fill:url(#linear-gradient-7);}.cls-66{fill:url(#linear-gradient-8);}.cls-67{fill:url(#linear-gradient-9);}.cls-68{fill:url(#linear-gradient-10);}.cls-69{fill:#f14c23;}.cls-70{opacity:0.76;fill:url(#linear-gradient-11);}.cls-71{opacity:0.82;fill:url(#radial-gradient-5);}.cls-72,.cls-74,.cls-76,.cls-78{opacity:0.5;mix-blend-mode:screen;}.cls-72{fill:url(#radial-gradient-6);}.cls-73{mask:url(#mask-5);}.cls-74{fill:url(#radial-gradient-7);}.cls-75{mask:url(#mask-6);}.cls-76{fill:url(#radial-gradient-8);}.cls-77{mask:url(#mask-7);}.cls-78{fill:url(#radial-gradient-9);}.cls-79{mask:url(#mask-8);}.cls-80{opacity:0.89;fill:url(#radial-gradient-10);}.cls-81{filter:url(#luminosity-noclip-4);}.cls-82{filter:url(#luminosity-noclip);}</style><filter id="luminosity-noclip" x="183.04" y="-11310.4" width="14.65" height="32766" filterUnits="userSpaceOnUse" color-interpolation-filters="sRGB"><feFlood flood-color="#fff" result="bg"/><feBlend in="SourceGraphic" in2="bg"/></filter><mask id="mask" x="183.04" y="-11310.4" width="14.65" height="32766" maskUnits="userSpaceOnUse"><g class="cls-82"/></mask><radialGradient id="radial-gradient" cx="8020.13" cy="-4290.62" r="20.13" gradientTransform="matrix(0.36, -0.17, 0.06, 0.14, -2405.7, 2178.76)" gradientUnits="userSpaceOnUse"><stop offset="0.07" stop-color="#fff"/><stop offset="0.26" stop-color="#fcfcfc"/><stop offset="0.38" stop-color="#f3f3f3"/><stop offset="0.49" stop-color="#e4e4e4"/><stop offset="0.59" stop-color="#cfcfcf"/><stop offset="0.68" stop-color="#b3b3b3"/><stop offset="0.76" stop-color="#919191"/><stop offset="0.84" stop-color="#686868"/><stop offset="0.92" stop-color="#393939"/><stop offset="0.99" stop-color="#060606"/><stop offset="1"/></radialGradient><radialGradient id="radial-gradient-2" cx="8038.44" cy="-4392.32" r="20.12" xlink:href="#radial-gradient"/><radialGradient id="radial-gradient-3" cx="8056.13" cy="-4490.55" r="20.13" xlink:href="#radial-gradient"/><filter id="luminosity-noclip-4" x="55.41" y="-11310.4" width="219.26" height="32766" filterUnits="userSpaceOnUse" color-interpolation-filters="sRGB"><feFlood flood-color="#fff" result="bg"/><feBlend in="SourceGraphic" in2="bg"/></filter><mask id="mask-4" x="55.41" y="-11310.4" width="219.26" height="32766" maskUnits="userSpaceOnUse"><g class="cls-81"/></mask><radialGradient id="radial-gradient-4" cx="165.04" cy="109.64" r="109.64" gradientUnits="userSpaceOnUse"><stop offset="0" stop-color="#fff"/><stop offset="0.12" stop-color="#fbfbfb"/><stop offset="0.25" stop-color="#efefef"/><stop offset="0.37" stop-color="#dadada"/><stop offset="0.5" stop-color="#bdbdbd"/><stop offset="0.63" stop-color="#989898"/><stop offset="0.76" stop-color="#6a6a6a"/><stop offset="0.89" stop-color="#353535"/><stop offset="1"/></radialGradient><linearGradient id="linear-gradient" x1="0.38" y1="230.82" x2="337.34" y2="230.82" gradientUnits="userSpaceOnUse"><stop offset="0" stop-color="#4c4c4c"/><stop offset="0.7" stop-color="#fff"/></linearGradient><linearGradient id="linear-gradient-2" x1="12.6" y1="223.92" x2="325.16" y2="223.92" xlink:href="#linear-gradient"/><linearGradient id="linear-gradient-3" x1="12.52" y1="272.97" x2="325.16" y2="272.97" gradientUnits="userSpaceOnUse"><stop offset="0" stop-color="#4c4c4c"/><stop offset="0" stop-color="#4d4d4d"/><stop offset="0.1" stop-color="#828282"/><stop offset="0.2" stop-color="#afafaf"/><stop offset="0.29" stop-color="#d2d2d2"/><stop offset="0.37" stop-color="#ebebeb"/><stop offset="0.45" stop-color="#fafafa"/><stop offset="0.52" stop-color="#fff"/><stop offset="0.57" stop-color="#f7f7f7"/><stop offset="0.65" stop-color="#e1e1e1"/><stop offset="0.75" stop-color="#bebebe"/><stop offset="0.87" stop-color="#8c8c8c"/><stop offset="1" stop-color="#4e4e4e"/><stop offset="1" stop-color="#4c4c4c"/></linearGradient><linearGradient id="linear-gradient-4" x1="0.29" y1="284.91" x2="337.35" y2="284.91" xlink:href="#linear-gradient-3"/><linearGradient id="linear-gradient-5" x1="166.2" y1="248.67" x2="166.43" y2="217.56" gradientUnits="userSpaceOnUse"><stop offset="0" stop-color="#4c4c4c"/><stop offset="0.04" stop-color="#696969"/><stop offset="0.13" stop-color="#969696"/><stop offset="0.21" stop-color="#bcbcbc"/><stop offset="0.29" stop-color="#d9d9d9"/><stop offset="0.36" stop-color="#eee"/><stop offset="0.44" stop-color="#fbfbfb"/><stop offset="0.52" stop-color="#fff"/><stop offset="0.57" stop-color="#f9f9f9"/><stop offset="0.65" stop-color="#e7e7e7"/><stop offset="0.74" stop-color="#cacaca"/><stop offset="0.83" stop-color="#a1a1a1"/><stop offset="0.94" stop-color="#6e6e6e"/><stop offset="1" stop-color="#4c4c4c"/></linearGradient><linearGradient id="linear-gradient-6" x1="165.87" y1="232.97" x2="166.57" y2="200.93" xlink:href="#linear-gradient-5"/><linearGradient id="linear-gradient-7" x1="166.34" y1="216.63" x2="166.58" y2="174.29" xlink:href="#linear-gradient-5"/><linearGradient id="linear-gradient-8" x1="203.02" y1="231.56" x2="129.76" y2="231.56" gradientUnits="userSpaceOnUse"><stop offset="0.3" stop-color="#fff"/><stop offset="1" stop-color="#4c4c4c"/></linearGradient><linearGradient id="linear-gradient-9" x1="203.06" y1="215.69" x2="129.82" y2="215.69" xlink:href="#linear-gradient-8"/><linearGradient id="linear-gradient-10" x1="203.11" y1="196.3" x2="129.86" y2="196.3" xlink:href="#linear-gradient-8"/><linearGradient id="linear-gradient-11" x1="166.2" y1="178.51" x2="228.07" y2="178.51" gradientUnits="userSpaceOnUse"><stop offset="0" stop-color="#4c4c4c"/><stop offset="0.02" stop-color="#505050"/><stop offset="0.14" stop-color="#6d6d6d"/><stop offset="0.27" stop-color="#828282"/><stop offset="0.39" stop-color="#8f8f8f"/><stop offset="0.51" stop-color="#939393"/><stop offset="0.61" stop-color="#8d8d8d"/><stop offset="0.75" stop-color="#7b7b7b"/><stop offset="0.91" stop-color="#5e5e5e"/><stop offset="1" stop-color="#4c4c4c"/></linearGradient><radialGradient id="radial-gradient-5" cx="189.13" cy="93.62" r="76.88" gradientUnits="userSpaceOnUse"><stop offset="0.07" stop-color="#fff"/><stop offset="0.28" stop-color="#fcfcfc"/><stop offset="0.42" stop-color="#f3f3f3"/><stop offset="0.54" stop-color="#e4e4e4"/><stop offset="0.65" stop-color="#cfcfcf"/><stop offset="0.76" stop-color="#b3b3b3"/><stop offset="0.85" stop-color="#919191"/><stop offset="0.94" stop-color="#696969"/><stop offset="1" stop-color="#4c4c4c"/></radialGradient><radialGradient id="radial-gradient-6" cx="186.26" cy="94.6" r="20.12" xlink:href="#radial-gradient-5"/><filter id="luminosity-noclip-5" x="183.04" y="228.61" width="14.65" height="8.76" filterUnits="userSpaceOnUse" color-interpolation-filters="sRGB"><feFlood flood-color="#fff" result="bg"/><feBlend in="SourceGraphic" in2="bg"/></filter><mask id="mask-5" x="183.04" y="228.61" width="14.65" height="8.76" maskUnits="userSpaceOnUse"><g class="cls-1"><path class="cls-2" d="M197.57,229.57c.72,1.51-1.93,4.27-5.91,6.16s-7.78,2.18-8.5.67,1.93-4.27,5.91-6.15S196.86,228.06,197.57,229.57Z"/></g></mask><radialGradient id="radial-gradient-7" cx="8020.13" cy="-4290.62" r="20.13" gradientTransform="matrix(0.36, -0.17, 0.06, 0.14, -2405.7, 2178.76)" xlink:href="#radial-gradient-5"/><filter id="luminosity-noclip-6" x="183.04" y="211.65" width="14.65" height="8.76" filterUnits="userSpaceOnUse" color-interpolation-filters="sRGB"><feFlood flood-color="#fff" result="bg"/><feBlend in="SourceGraphic" in2="bg"/></filter><mask id="mask-6" x="183.04" y="211.65" width="14.65" height="8.76" maskUnits="userSpaceOnUse"><g class="cls-3"><path class="cls-4" d="M197.57,212.62c.72,1.51-1.93,4.27-5.91,6.15s-7.78,2.19-8.5.68,1.93-4.27,5.91-6.15S196.86,211.11,197.57,212.62Z"/></g></mask><radialGradient id="radial-gradient-8" cx="8038.44" cy="-4392.32" r="20.12" gradientTransform="matrix(0.36, -0.17, 0.06, 0.14, -2405.7, 2178.76)" xlink:href="#radial-gradient-5"/><filter id="luminosity-noclip-7" x="183.04" y="195.29" width="14.65" height="8.76" filterUnits="userSpaceOnUse" color-interpolation-filters="sRGB"><feFlood flood-color="#fff" result="bg"/><feBlend in="SourceGraphic" in2="bg"/></filter><mask id="mask-7" x="183.04" y="195.29" width="14.65" height="8.76" maskUnits="userSpaceOnUse"><g class="cls-5"><path class="cls-6" d="M197.57,196.25c.72,1.51-1.93,4.27-5.91,6.15s-7.78,2.19-8.5.68,1.93-4.27,5.91-6.16S196.86,194.74,197.57,196.25Z"/></g></mask><radialGradient id="radial-gradient-9" cx="8056.13" cy="-4490.55" r="20.13" gradientTransform="matrix(0.36, -0.17, 0.06, 0.14, -2405.7, 2178.76)" xlink:href="#radial-gradient-5"/><filter id="luminosity-noclip-8" x="55.41" y="0" width="219.26" height="219.28" filterUnits="userSpaceOnUse" color-interpolation-filters="sRGB"><feFlood flood-color="#fff" result="bg"/><feBlend in="SourceGraphic" in2="bg"/></filter><mask id="mask-8" x="55.41" y="0" width="219.26" height="219.28" maskUnits="userSpaceOnUse"><g class="cls-7"><path class="cls-8" d="M274.67,109.65A109.63,109.63,0,1,1,165,0,109.63,109.63,0,0,1,274.67,109.65Z"/></g></mask><radialGradient id="radial-gradient-10" cx="165.04" cy="109.64" r="109.64" gradientUnits="userSpaceOnUse"><stop offset="0" stop-color="#fff"/><stop offset="0.13" stop-color="#fffefb"/><stop offset="0.26" stop-color="#fffcef"/><stop offset="0.39" stop-color="#fff8da"/><stop offset="0.53" stop-color="#fef2bd"/><stop offset="0.67" stop-color="#feea98"/><stop offset="0.8" stop-color="#fde16a"/><stop offset="0.94" stop-color="#fcd635"/><stop offset="1" stop-color="#fcd11a"/></radialGradient></defs><g class="cls-9"><g id="Layer_2" data-name="Layer 2"><g id="Layer_1-2" data-name="Layer 1"><g class="cls-10"><path class="cls-11" d="M337,245.17V244c0,.38,0,.75-.05,1.13.57-25.46-15.9-51.06-49.55-70.49-33-19-76-28.53-119.09-28.53s-86,9.5-118.76,28.52S.65,218.44.69,243.29c0-.08,0-.17,0-.25v1.15c0-.3,0-.6,0-.9,0-.08,0-.16,0-.25l0,11.05c-.07,25.09,16.49,50.22,49.66,69.38,33,19,76.06,28.53,119.1,28.53s86-9.51,118.77-28.53c32.52-18.91,48.8-43.64,48.87-68.4l0-11C337,244.41,337,244.79,337,245.17Z"/><path class="cls-12" d="M337,244.57v-1.16c0,.38,0,.76-.05,1.13.57-25.46-15.9-51-49.55-70.48-33-19-76-28.54-119.09-28.54s-86,9.51-118.76,28.53S.65,217.83.69,242.68c0-.08,0-.16,0-.24v1.14c0-.3,0-.6,0-.89,0-.09,0-.17,0-.25l0,11.05c-.07,25.09,16.49,50.22,49.66,69.37,33,19,76.06,28.54,119.1,28.53s86-9.5,118.77-28.53c32.52-18.9,48.8-43.63,48.87-68.4l0-11.05C337,243.8,337,244.19,337,244.57Z"/><path class="cls-13" d="M337,244v-1.15c0,.38,0,.75-.05,1.13.57-25.46-15.9-51.06-49.55-70.49-33-19-76-28.54-119.09-28.54s-86,9.51-118.76,28.53S.65,217.23.69,242.08c0-.08,0-.17,0-.25V243c0-.3,0-.6,0-.9,0-.08,0-.16,0-.25l0,11C.53,278,17.09,303.1,50.26,322.26c33,19,76.06,28.53,119.1,28.53s86-9.51,118.77-28.53c32.52-18.91,48.8-43.64,48.87-68.4l0-11.05C337,243.2,337,243.58,337,244Z"/><path class="cls-14" d="M337,243.36V242.2c0,.38,0,.76-.05,1.13.57-25.46-15.9-51.05-49.55-70.48-33-19-76-28.54-119.09-28.54s-86,9.51-118.76,28.53S.65,216.62.69,241.47c0-.08,0-.16,0-.24v1.14c0-.3,0-.6,0-.9,0-.08,0-.16,0-.24l0,11.05c-.07,25.09,16.49,50.22,49.66,69.37,33,19,76.06,28.54,119.1,28.53s86-9.5,118.77-28.53c32.52-18.9,48.8-43.63,48.87-68.4l0-11.05C337,242.59,337,243,337,243.36Z"/><path class="cls-15" d="M337,242.75V241.6c0,.38,0,.75-.05,1.13.57-25.46-15.9-51.06-49.55-70.49-33-19-76-28.54-119.09-28.54s-86,9.51-118.76,28.53S.65,216,.69,240.87c0-.08,0-.17,0-.25v1.15c0-.3,0-.6,0-.9,0-.08,0-.16,0-.25l0,11C.53,276.76,17.09,301.89,50.26,321c33,19,76.06,28.54,119.1,28.54s86-9.51,118.77-28.54c32.52-18.9,48.8-43.63,48.87-68.39l0-11.05C337,242,337,242.37,337,242.75Z"/><path class="cls-16" d="M337,242.15V241c0,.38,0,.76-.05,1.13.57-25.46-15.9-51.05-49.55-70.48-33-19-76-28.54-119.09-28.54s-86,9.51-118.76,28.53S.65,215.41.69,240.26c0-.08,0-.16,0-.24v1.14c0-.3,0-.6,0-.9,0-.08,0-.16,0-.24l0,11c-.07,25.09,16.49,50.22,49.66,69.37,33,19,76.06,28.54,119.1,28.53s86-9.51,118.77-28.53c32.52-18.9,48.8-43.63,48.87-68.4l0-11C337,241.38,337,241.76,337,242.15Z"/><path class="cls-17" d="M337,241.54v-1.15c0,.38,0,.75-.05,1.13.57-25.46-15.9-51.06-49.55-70.49-33-19-76-28.54-119.09-28.54S82.28,152,49.54,171,.65,214.81.69,239.66c0-.08,0-.17,0-.25v1.15c0-.3,0-.6,0-.9,0-.08,0-.16,0-.25l0,11.05c-.07,25.09,16.49,50.22,49.66,69.37,33,19,76.06,28.54,119.1,28.54s86-9.51,118.77-28.54c32.52-18.9,48.8-43.63,48.87-68.39l0-11.05C337,240.78,337,241.16,337,241.54Z"/><path class="cls-18" d="M337,240.94v-1.16c0,.38,0,.76-.05,1.13.57-25.46-15.9-51-49.55-70.49-33-19-76-28.53-119.09-28.53s-86,9.51-118.76,28.53S.65,214.2.69,239.05c0-.08,0-.16,0-.24V240c0-.3,0-.6,0-.9,0-.08,0-.16,0-.24l0,11.05C.53,275,17.09,300.08,50.26,319.23c33,19,76.06,28.53,119.1,28.53s86-9.51,118.77-28.53c32.52-18.9,48.8-43.63,48.87-68.4l0-11.05C337,240.17,337,240.55,337,240.94Z"/><path class="cls-19" d="M337,240.33v-1.15c0,.38,0,.75-.05,1.13.57-25.46-15.9-51.06-49.55-70.49-33-19-76-28.54-119.09-28.54s-86,9.51-118.76,28.53S.65,213.6.69,238.45c0-.08,0-.17,0-.25v1.15c0-.3,0-.6,0-.9,0-.08,0-.16,0-.25l0,11.05c-.07,25.09,16.49,50.22,49.66,69.37,33,19,76.06,28.54,119.1,28.54s86-9.51,118.77-28.54c32.52-18.9,48.8-43.63,48.87-68.39l0-11C337,239.56,337,240,337,240.33Z"/><path class="cls-20" d="M337,239.73v-1.16c0,.38,0,.76-.05,1.13.57-25.46-15.9-51-49.55-70.49-33-19-76-28.53-119.09-28.53s-86,9.51-118.76,28.53S.65,213,.69,237.84c0-.08,0-.16,0-.24v1.14c0-.3,0-.6,0-.9,0-.08,0-.16,0-.24l0,11.05C.53,273.74,17.09,298.87,50.26,318c33,19,76.06,28.53,119.1,28.53s86-9.51,118.77-28.53c32.52-18.9,48.8-43.63,48.87-68.4l0-11.05C337,239,337,239.34,337,239.73Z"/><path class="cls-21" d="M337,239.12V238c0,.38,0,.75-.05,1.13.57-25.46-15.9-51.06-49.55-70.49-33-19-76-28.54-119.09-28.54s-86,9.51-118.76,28.53S.65,212.39.69,237.24c0-.08,0-.17,0-.25v1.15c0-.31,0-.61,0-.9,0-.08,0-.16,0-.25l0,11c-.07,25.09,16.49,50.22,49.66,69.37,33,19,76.06,28.54,119.1,28.54s86-9.51,118.77-28.54c32.52-18.9,48.8-43.63,48.87-68.39L337,238C337,238.35,337,238.74,337,239.12Z"/><path class="cls-22" d="M337,238.52v-1.16c0,.38,0,.75-.05,1.13C337.51,213,321,187.44,287.39,168c-33-19-76-28.53-119.09-28.53S82.28,149,49.54,168,.65,211.78.69,236.63c0-.08,0-.16,0-.24v1.14c0-.3,0-.6,0-.9,0-.08,0-.16,0-.24l0,11.05c-.07,25.09,16.49,50.22,49.66,69.37,33,19,76.06,28.53,119.1,28.53s86-9.51,118.77-28.53c32.52-18.9,48.8-43.63,48.87-68.4l0-11C337,237.75,337,238.13,337,238.52Z"/><path class="cls-23" d="M337,237.91v-1.15c0,.38,0,.75-.05,1.13.57-25.46-15.9-51.06-49.55-70.49-33-19-76-28.54-119.09-28.54s-86,9.51-118.76,28.53S.65,211.18.69,236c0-.08,0-.17,0-.25v1.14c0-.3,0-.6,0-.89,0-.08,0-.16,0-.25l0,11.05c-.07,25.09,16.49,50.22,49.66,69.37,33,19,76.06,28.54,119.1,28.54s86-9.51,118.77-28.54c32.52-18.9,48.8-43.63,48.87-68.39l0-11.05C337,237.14,337,237.53,337,237.91Z"/><path class="cls-24" d="M337,237.3v-1.15c0,.38,0,.75-.05,1.13.57-25.46-15.9-51.05-49.55-70.49-33-19-76-28.53-119.09-28.53s-86,9.5-118.76,28.53S.65,210.57.69,235.42c0-.08,0-.16,0-.24v1.14c0-.3,0-.6,0-.9,0-.08,0-.16,0-.24l0,11c-.07,25.09,16.49,50.22,49.66,69.37,33,19,76.06,28.53,119.1,28.53s86-9.51,118.77-28.53c32.52-18.9,48.8-43.63,48.87-68.4l0-11C337,236.54,337,236.92,337,237.3Z"/><path class="cls-25" d="M337,236.7v-1.15c0,.38,0,.75-.05,1.13.57-25.46-15.9-51.06-49.55-70.49-33-19-76-28.54-119.09-28.54s-86,9.51-118.76,28.53S.65,210,.69,234.82c0-.08,0-.17,0-.25v1.14c0-.3,0-.6,0-.89,0-.08,0-.16,0-.25l0,11.05C.53,270.71,17.09,295.84,50.26,315c33,19,76.06,28.54,119.1,28.53s86-9.5,118.77-28.53c32.52-18.9,48.8-43.63,48.87-68.39l0-11C337,235.93,337,236.32,337,236.7Z"/><path class="cls-26" d="M337,236.09v-1.15c0,.38,0,.75-.05,1.13.57-25.46-15.9-51-49.55-70.49-33-19-76-28.53-119.09-28.53s-86,9.5-118.76,28.53S.65,209.36.69,234.21c0-.08,0-.16,0-.24v1.14c0-.3,0-.6,0-.9,0-.08,0-.16,0-.24L.6,245c-.07,25.09,16.49,50.22,49.66,69.37,33,19,76.06,28.53,119.1,28.53s86-9.51,118.77-28.53c32.52-18.9,48.8-43.63,48.87-68.4l0-11.05C337,235.33,337,235.71,337,236.09Z"/><path class="cls-27" d="M337,235.49v-1.15c0,.38,0,.75-.05,1.13C337.51,210,321,184.41,287.39,165c-33-19-76-28.54-119.09-28.54S82.28,146,49.54,165,.65,208.76.69,233.61c0-.08,0-.17,0-.25v1.14c0-.3,0-.6,0-.89,0-.08,0-.16,0-.25l0,11c-.07,25.09,16.49,50.22,49.66,69.37,33,19,76.06,28.54,119.1,28.53s86-9.5,118.77-28.53c32.52-18.9,48.8-43.63,48.87-68.39l0-11C337,234.72,337,235.11,337,235.49Z"/><path class="cls-28" d="M337,234.88v-1.15c0,.38,0,.75-.05,1.13.57-25.46-15.9-51.05-49.55-70.49-33-19-76-28.54-119.09-28.54s-86,9.51-118.76,28.54S.65,208.15.69,233c0-.08,0-.16,0-.24v1.14c0-.3,0-.6,0-.9,0-.08,0-.16,0-.24l0,11.05C.53,268.9,17.09,294,50.26,313.18c33,19,76.06,28.53,119.1,28.53s86-9.51,118.77-28.53c32.52-18.9,48.8-43.63,48.87-68.4l0-11.05C337,234.12,337,234.5,337,234.88Z"/><path class="cls-29" d="M337,234.28v-1.15c0,.38,0,.75-.05,1.13.57-25.46-15.9-51.06-49.55-70.49-33-19-76-28.54-119.09-28.54s-86,9.51-118.76,28.53S.65,207.54.69,232.4c0-.08,0-.17,0-.25v1.14c0-.3,0-.6,0-.89,0-.08,0-.17,0-.25l0,11c-.07,25.09,16.49,50.22,49.66,69.37,33,19,76.06,28.54,119.1,28.53s86-9.5,118.77-28.53c32.52-18.9,48.8-43.63,48.87-68.39l0-11.05C337,233.51,337,233.89,337,234.28Z"/><path class="cls-30" d="M337,233.67v-1.15c0,.38,0,.75-.05,1.13.57-25.46-15.9-51.05-49.55-70.49-33-19-76-28.54-119.09-28.54s-86,9.51-118.76,28.53S.65,206.94.69,231.79c0-.08,0-.16,0-.24v1.14c0-.3,0-.6,0-.9,0-.08,0-.16,0-.24l0,11C.53,267.69,17.09,292.82,50.26,312c33,19,76.06,28.53,119.1,28.53s86-9.51,118.77-28.53c32.52-18.9,48.8-43.63,48.87-68.4l0-11C337,232.91,337,233.29,337,233.67Z"/><path class="cls-31" d="M337,233.07v-1.15c0,.37,0,.75-.05,1.13.57-25.46-15.9-51.06-49.55-70.49-33-19-76-28.54-119.09-28.54s-86,9.51-118.76,28.53S.65,206.33.69,231.19c0-.08,0-.17,0-.25v1.14c0-.3,0-.6,0-.89,0-.08,0-.17,0-.25L.6,242c-.07,25.09,16.49,50.22,49.66,69.37,33,19,76.06,28.54,119.1,28.53s86-9.5,118.77-28.53c32.52-18.9,48.8-43.63,48.87-68.39l0-11.05C337,232.3,337,232.68,337,233.07Z"/><path class="cls-32" d="M337,232.46v-1.15c0,.38,0,.75-.05,1.13C337.51,207,321,181.38,287.39,162c-33-19-76-28.54-119.09-28.54s-86,9.51-118.76,28.53S.65,205.73.69,230.58c0-.08,0-.16,0-.24v1.14c0-.3,0-.6,0-.9,0-.08,0-.16,0-.24l0,11c-.07,25.09,16.49,50.21,49.66,69.37,33,19,76.06,28.53,119.1,28.53s86-9.51,118.77-28.53c32.52-18.91,48.8-43.63,48.87-68.4l0-11.05C337,231.7,337,232.08,337,232.46Z"/></g><path class="cls-33" d="M309.53,284.57c-.87.77-1.81,1.53-2.73,2.29C307.72,286.1,308.66,285.34,309.53,284.57Z"/><path class="cls-33" d="M313.93,280.48c-.77.76-1.6,1.51-2.42,2.26C312.33,282,313.16,281.24,313.93,280.48Z"/><path class="cls-33" d="M304.75,288.57c-1,.8-2.09,1.58-3.15,2.37C302.66,290.15,303.74,289.37,304.75,288.57Z"/><path class="cls-33" d="M23.58,280.34c-.64-.62-1.23-1.27-1.85-1.9C22.35,279.07,22.94,279.72,23.58,280.34Z"/><path class="cls-33" d="M299.58,292.44c-1.2.87-2.48,1.7-3.75,2.54C297.1,294.14,298.38,293.31,299.58,292.44Z"/><path class="cls-33" d="M28.05,284.47c-.7-.62-1.35-1.25-2-1.88C26.7,283.22,27.35,283.85,28.05,284.47Z"/><path class="cls-33" d="M315.78,278.57c.41-.43.82-.85,1.22-1.28v0C316.61,277.71,316.19,278.13,315.78,278.57Z"/><path class="cls-33" d="M38.15,292.4c-.74-.53-1.42-1.06-2.14-1.59C36.73,291.34,37.41,291.87,38.15,292.4Z"/><path class="cls-33" d="M294,296.2q-2.88,1.86-5.94,3.63Q291.15,298.06,294,296.2Z"/><path class="cls-33" d="M43.77,296.18c-.64-.41-1.23-.83-1.86-1.25C42.54,295.35,43.13,295.77,43.77,296.18Z"/><path class="cls-33" d="M32.9,288.49c-.73-.58-1.42-1.18-2.13-1.77C31.48,287.31,32.17,287.91,32.9,288.49Z"/><path class="cls-33" d="M12.35,225.92c0,.5,0,1,.06,1.49v-.07Z"/><path class="cls-33" d="M324.68,228.54a.13.13,0,0,0,0-.06s0,0,0,0Z"/><path class="cls-34" d="M.24,235.27c.07.8.19,1.6.3,2.4S.7,239.19.83,240s.33,1.61.49,2.42.29,1.51.49,2.26.46,1.6.69,2.39.42,1.51.67,2.26.6,1.59.9,2.39.54,1.48.85,2.21.75,1.61,1.13,2.42.65,1.43,1,2.15S8,260,8.39,260.84s.77,1.42,1.2,2.13,1,1.58,1.54,2.37.89,1.39,1.38,2.09,1.17,1.56,1.76,2.34,1,1.37,1.54,2,1.32,1.56,2,2.33,1.11,1.33,1.7,2,1.49,1.54,2.23,2.32,1.21,1.28,1.85,1.9,1.62,1.5,2.44,2.25,1.33,1.26,2,1.88c.87.76,1.81,1.5,2.72,2.25.71.59,1.4,1.19,2.13,1.77,1,.78,2.07,1.55,3.11,2.32.72.53,1.4,1.06,2.14,1.59,1.21.86,2.49,1.7,3.76,2.53.63.42,1.22.84,1.86,1.25,1.95,1.24,3.95,2.46,6,3.66,66,38.11,172.7,38.11,238.3,0q3.06-1.77,5.94-3.63c.62-.4,1.2-.81,1.8-1.22,1.27-.84,2.55-1.67,3.75-2.54.7-.49,1.34-1,2-1.5,1.06-.79,2.14-1.57,3.15-2.37.71-.57,1.37-1.15,2.05-1.71.92-.76,1.86-1.52,2.73-2.29.69-.6,1.32-1.22,2-1.83.82-.75,1.65-1.5,2.42-2.26s1.23-1.28,1.85-1.91c.41-.44.83-.86,1.23-1.3s.64-.65.95-1c.59-.66,1.12-1.32,1.68-2s1.33-1.52,1.95-2.29,1-1.35,1.53-2,1.18-1.54,1.72-2.31.9-1.39,1.35-2.08,1-1.56,1.52-2.35.79-1.42,1.18-2.13.9-1.56,1.3-2.35.67-1.44,1-2.17.76-1.57,1.09-2.36.56-1.47.83-2.2.62-1.59.89-2.38.43-1.48.65-2.22.49-1.59.69-2.4.3-1.48.46-2.22.35-1.61.48-2.42.19-1.49.29-2.24.21-1.61.28-2.41.07-1.5.1-2.25c1.06-25.86-15.47-51.94-49.65-71.67-66.05-38.13-172.71-38.13-238.31,0-32.69,19-49,43.87-49,68.77,0,.8.06,1.61.09,2.41S.18,234.5.24,235.27Zm12-11.81v.23c0-23.1,15.09-46.17,45.41-63.79,60.84-35.36,159.81-35.36,221.06,0,31.7,18.3,47,42.49,46,66.47,0-.67.09-1.34.09-2l0,8c0,.67-.06,1.34-.08,2s0,1.4-.09,2.11-.17,1.48-.26,2.22-.15,1.4-.27,2.1-.29,1.48-.45,2.22-.26,1.39-.43,2.08-.42,1.48-.63,2.22-.38,1.37-.61,2.06-.54,1.46-.81,2.19-.5,1.38-.78,2.06-.67,1.46-1,2.2-.6,1.34-.94,2-.81,1.47-1.21,2.21-.7,1.3-1.09,1.95-.94,1.46-1.41,2.19-.81,1.28-1.25,1.91-1.07,1.45-1.61,2.17-.91,1.26-1.41,1.88-1.21,1.43-1.82,2.14-1,1.22-1.55,1.82-1.36,1.43-2.05,2.14S304,277.43,303.4,278s-1.52,1.42-2.29,2.14c-.6.55-1.17,1.11-1.79,1.66-.83.73-1.73,1.45-2.61,2.18-.61.51-1.2,1-1.82,1.51-.92.74-1.9,1.44-2.87,2.16-.65.48-1.27,1-1.93,1.45-1.12.8-2.31,1.57-3.48,2.35-.56.38-1.1.76-1.67,1.13-1.78,1.14-3.62,2.27-5.51,3.37-60.84,35.35-159.81,35.35-221,0q-2.88-1.66-5.58-3.39c-.63-.4-1.21-.81-1.82-1.22-1.15-.76-2.31-1.51-3.41-2.29-.68-.49-1.32-1-2-1.49-1-.71-2-1.41-2.87-2.13-.67-.53-1.29-1.08-1.95-1.62-.85-.7-1.73-1.4-2.55-2.11-.65-.57-1.24-1.15-1.86-1.72s-1.55-1.4-2.28-2.11-1.16-1.2-1.75-1.8-1.39-1.4-2-2.11-1.06-1.25-1.6-1.87-1.24-1.41-1.82-2.13-1-1.27-1.43-1.89-1.12-1.45-1.63-2.18S23,264.6,22.52,264s-1-1.45-1.42-2.18-.74-1.33-1.12-2-.85-1.47-1.22-2.21-.63-1.32-.94-2-.73-1.5-1.05-2.25-.52-1.36-.78-2-.59-1.5-.85-2.25-.41-1.38-.61-2.07-.46-1.49-.65-2.24-.3-1.39-.45-2.09-.33-1.49-.46-2.24-.18-1.41-.27-2.11-.21-1.49-.27-2.24-.07-1.41-.1-2.11-.09-1.5-.09-2.25c0-.08,0-.15,0-.23Z"/><path class="cls-35" d="M12.33,234c0,.7,0,1.41.1,2.11s.18,1.49.27,2.24.16,1.4.27,2.11.31,1.49.46,2.24.27,1.4.45,2.09.43,1.49.65,2.24.38,1.38.61,2.07.56,1.5.85,2.25.49,1.36.78,2,.69,1.5,1.05,2.25.59,1.33.94,2,.81,1.48,1.22,2.21.72,1.33,1.12,2,.95,1.45,1.42,2.18.83,1.3,1.29,1.95,1.08,1.45,1.63,2.18.93,1.26,1.43,1.89,1.21,1.42,1.82,2.13,1,1.25,1.6,1.87,1.36,1.41,2,2.11,1.14,1.21,1.75,1.8,1.52,1.41,2.28,2.11,1.21,1.15,1.86,1.72c.82.71,1.7,1.41,2.55,2.11.66.54,1.28,1.09,1.95,1.62.92.72,1.91,1.42,2.87,2.13.67.5,1.31,1,2,1.49,1.1.77,2.26,1.53,3.41,2.29.61.41,1.19.82,1.82,1.22q2.7,1.73,5.58,3.39c61.23,35.35,160.2,35.35,221,0,1.89-1.1,3.73-2.23,5.51-3.37.57-.37,1.11-.75,1.67-1.13,1.17-.78,2.36-1.55,3.48-2.35.66-.48,1.28-1,1.93-1.45,1-.72,2-1.42,2.87-2.16.62-.49,1.21-1,1.82-1.51.88-.73,1.78-1.45,2.61-2.18.62-.55,1.19-1.11,1.79-1.66.77-.72,1.56-1.42,2.29-2.14s1.12-1.17,1.68-1.75,1.4-1.42,2.05-2.14,1-1.21,1.55-1.82,1.25-1.42,1.82-2.14.94-1.26,1.41-1.88,1.1-1.44,1.61-2.17.83-1.27,1.25-1.91,1-1.45,1.41-2.19.72-1.3,1.09-1.95.83-1.47,1.21-2.21.62-1.34.94-2,.7-1.47,1-2.2.52-1.37.78-2.06.57-1.46.81-2.19.4-1.38.61-2.06.44-1.48.63-2.22.29-1.38.43-2.08.33-1.48.45-2.22.18-1.4.27-2.1.2-1.48.26-2.22.06-1.4.09-2.11.08-1.33.08-2l0-8c0,.66-.06,1.33-.09,2s0,1.4-.09,2.11a.13.13,0,0,1,0,.06c-.05.72-.17,1.44-.25,2.16s-.15,1.4-.27,2.09-.29,1.49-.45,2.23-.26,1.38-.43,2.08-.42,1.47-.63,2.21-.38,1.38-.6,2.07-.55,1.46-.82,2.19-.49,1.38-.78,2.05-.67,1.47-1,2.2-.6,1.35-.94,2-.8,1.47-1.21,2.2-.7,1.31-1.09,2-.93,1.44-1.4,2.16-.81,1.3-1.26,1.94-1.05,1.43-1.59,2.14-.92,1.27-1.43,1.9-1.19,1.41-1.79,2.12-1,1.24-1.58,1.85-1.33,1.4-2,2.09-1.12,1.2-1.72,1.8-1.49,1.39-2.24,2.08-1.2,1.15-1.85,1.72-1.67,1.4-2.52,2.1c-.64.53-1.25,1.07-1.91,1.6-.9.71-1.87,1.4-2.81,2.1-.67.5-1.3,1-2,1.5-1.12.8-2.3,1.57-3.47,2.35-.57.37-1.1.76-1.68,1.13-1.78,1.14-3.61,2.27-5.51,3.37-60.83,35.35-159.8,35.35-221,0-1.92-1.1-3.78-2.24-5.58-3.39-.6-.38-1.14-.77-1.72-1.15-1.19-.79-2.38-1.56-3.5-2.36-.64-.45-1.23-.92-1.85-1.38-1-.74-2-1.49-3-2.25-.67-.52-1.29-1.06-1.94-1.6-.86-.7-1.75-1.4-2.57-2.12-.64-.57-1.24-1.15-1.86-1.72s-1.55-1.4-2.28-2.11-1.13-1.17-1.7-1.76-1.42-1.43-2.09-2.16-1-1.23-1.58-1.84-1.26-1.43-1.84-2.15-1-1.28-1.44-1.91-1.11-1.44-1.62-2.16-.86-1.31-1.29-2-1-1.45-1.42-2.18-.74-1.32-1.12-2-.84-1.46-1.22-2.2-.64-1.35-1-2-.71-1.47-1-2.22-.52-1.36-.78-2.05-.59-1.47-.84-2.22-.41-1.38-.62-2.07-.46-1.49-.65-2.24-.3-1.4-.44-2.09-.34-1.5-.46-2.25-.19-1.4-.28-2.1-.21-1.5-.27-2.25c0-.2,0-.41,0-.63,0-.49,0-1-.06-1.49,0-.74-.08-1.49-.09-2.23v-.23l0,8c0,.08,0,.15,0,.23C12.24,232.46,12.3,233.21,12.33,234Z"/><path class="cls-36" d="M12.35,225.92l.06,1.42c0,.24,0,.47,0,.7.06.75.18,1.5.27,2.25s.16,1.4.28,2.1.3,1.5.46,2.25.27,1.39.44,2.09.43,1.49.65,2.24.39,1.38.62,2.07.55,1.48.84,2.22.49,1.38.78,2.05.68,1.48,1,2.22.61,1.35,1,2,.81,1.47,1.22,2.2.72,1.34,1.12,2,.94,1.46,1.42,2.18.83,1.31,1.29,2,1.07,1.44,1.62,2.16.93,1.27,1.44,1.91,1.22,1.43,1.84,2.15,1,1.23,1.58,1.84,1.39,1.44,2.09,2.16,1.1,1.18,1.7,1.76,1.52,1.41,2.28,2.11,1.22,1.15,1.86,1.72c.82.72,1.71,1.42,2.57,2.12.65.54,1.27,1.08,1.94,1.6,1,.76,2,1.51,3,2.25.62.46,1.21.93,1.85,1.38,1.12.8,2.31,1.57,3.5,2.36.58.38,1.12.77,1.72,1.15,1.8,1.15,3.66,2.29,5.58,3.39,61.24,35.35,160.21,35.35,221,0,1.9-1.1,3.73-2.23,5.51-3.37.58-.37,1.11-.76,1.68-1.13,1.17-.78,2.35-1.55,3.47-2.35.69-.49,1.32-1,2-1.5.94-.7,1.91-1.39,2.81-2.1.66-.53,1.27-1.07,1.91-1.6.85-.7,1.72-1.39,2.52-2.1s1.23-1.15,1.85-1.72,1.52-1.38,2.24-2.08,1.14-1.2,1.72-1.8,1.37-1.38,2-2.09,1.06-1.24,1.58-1.85,1.22-1.41,1.79-2.12,1-1.27,1.43-1.9,1.09-1.42,1.59-2.14.84-1.29,1.26-1.94,1-1.43,1.4-2.16.73-1.31,1.09-2,.84-1.46,1.21-2.2.63-1.34.94-2,.7-1.46,1-2.2.52-1.36.78-2.05.57-1.46.82-2.19.4-1.38.6-2.07.45-1.47.63-2.21.29-1.38.43-2.08.33-1.48.45-2.23.18-1.39.27-2.09.19-1.46.25-2.19c0,0,0,0,0,0,.06-.71.06-1.41.09-2.11,1-24-14.35-48.17-46-66.47-61.25-35.36-160.22-35.36-221.06,0-30.32,17.62-45.44,40.69-45.41,63.79C12.27,224.43,12.32,225.18,12.35,225.92Z"/><path class="cls-37" d="M.58,235.27c.07.8.19,1.6.29,2.4s.17,1.52.3,2.28.32,1.61.49,2.42.3,1.51.48,2.26.46,1.6.7,2.39.41,1.51.67,2.26.6,1.59.9,2.39.54,1.48.85,2.21.74,1.61,1.12,2.42.65,1.43,1,2.15.88,1.59,1.33,2.39.77,1.42,1.2,2.13,1,1.58,1.54,2.37.89,1.39,1.37,2.09S14,269,14.6,269.77s1,1.37,1.55,2,1.32,1.56,2,2.33,1.11,1.33,1.71,2,1.48,1.54,2.23,2.32,1.2,1.28,1.85,1.9,1.62,1.5,2.43,2.25,1.33,1.26,2,1.88c.87.76,1.8,1.5,2.71,2.25.72.59,1.4,1.19,2.14,1.77,1,.78,2.06,1.55,3.11,2.32.71.53,1.39,1.06,2.13,1.59,1.22.86,2.5,1.7,3.77,2.53.63.42,1.22.84,1.86,1.25q2.91,1.86,6,3.66c66,38.11,172.69,38.11,238.3,0q3.06-1.77,5.93-3.63c.62-.4,1.2-.81,1.81-1.22,1.26-.84,2.54-1.67,3.75-2.54.69-.49,1.34-1,2-1.5,1.06-.79,2.14-1.57,3.16-2.37.71-.57,1.36-1.15,2.05-1.71.92-.76,1.86-1.52,2.73-2.29.69-.6,1.31-1.22,2-1.83s1.65-1.5,2.42-2.26,1.23-1.28,1.84-1.91c.41-.44.84-.86,1.24-1.3s.64-.65.94-1c.59-.66,1.13-1.32,1.69-2s1.33-1.52,1.94-2.29,1-1.35,1.53-2,1.18-1.54,1.73-2.31.9-1.39,1.35-2.08,1-1.56,1.51-2.35.8-1.42,1.19-2.13.9-1.56,1.29-2.35.68-1.44,1-2.17.76-1.57,1.09-2.36.55-1.47.83-2.2.62-1.59.89-2.38.43-1.48.64-2.22.49-1.59.69-2.4.31-1.48.46-2.22.36-1.61.49-2.42.19-1.49.28-2.24.22-1.61.29-2.41.07-1.5.1-2.25c1.06-25.86-15.47-51.94-49.65-71.67-66-38.13-172.72-38.13-238.32,0-32.69,19-49,43.87-48.95,68.77,0,.8,0,1.61.09,2.41S.51,234.5.58,235.27Zm12-11.81c0,.07,0,.15,0,.23,0-23.1,15.09-46.17,45.41-63.79,60.83-35.36,159.8-35.36,221.06,0,31.69,18.3,47,42.49,46.05,66.47,0-.67.09-1.34.09-2l0,8c0,.67-.06,1.34-.08,2s0,1.4-.1,2.11-.17,1.48-.26,2.22-.15,1.4-.26,2.1-.3,1.48-.45,2.22-.27,1.39-.43,2.08-.42,1.48-.64,2.22-.38,1.37-.6,2.06-.54,1.46-.82,2.19-.49,1.38-.77,2.06-.68,1.46-1,2.2-.59,1.34-.94,2-.8,1.47-1.21,2.21-.7,1.3-1.09,1.95-.93,1.46-1.41,2.19-.8,1.28-1.25,1.91-1.07,1.45-1.61,2.17-.91,1.26-1.4,1.88-1.21,1.43-1.83,2.14-1,1.22-1.54,1.82-1.36,1.43-2.05,2.14-1.09,1.17-1.68,1.75-1.53,1.42-2.3,2.14c-.6.55-1.16,1.11-1.78,1.66-.84.73-1.74,1.45-2.62,2.18-.61.51-1.19,1-1.82,1.51-.92.74-1.9,1.44-2.86,2.16-.65.48-1.27,1-1.94,1.45-1.12.8-2.3,1.57-3.47,2.35-.57.38-1.1.76-1.68,1.13-1.77,1.14-3.61,2.27-5.5,3.37-60.84,35.35-159.81,35.35-221,0q-2.88-1.66-5.58-3.39c-.62-.4-1.2-.81-1.81-1.22-1.15-.76-2.31-1.51-3.41-2.29-.69-.49-1.33-1-2-1.49-1-.71-1.94-1.41-2.86-2.13-.67-.53-1.3-1.08-2-1.62-.86-.7-1.73-1.4-2.55-2.11-.65-.57-1.24-1.15-1.87-1.72s-1.55-1.4-2.28-2.11-1.16-1.2-1.74-1.8-1.39-1.4-2-2.11-1.07-1.25-1.6-1.87-1.25-1.41-1.82-2.13-1-1.27-1.44-1.89-1.11-1.45-1.63-2.18-.85-1.3-1.28-1.95-1-1.45-1.42-2.18-.75-1.33-1.12-2-.85-1.47-1.23-2.21-.62-1.32-.93-2-.73-1.5-1.06-2.25-.51-1.36-.77-2-.59-1.5-.85-2.25-.41-1.38-.61-2.07-.47-1.49-.66-2.24-.29-1.39-.44-2.09-.34-1.49-.46-2.24-.18-1.41-.27-2.11-.21-1.49-.28-2.24-.06-1.41-.09-2.11-.09-1.5-.09-2.25c0-.08,0-.15,0-.23Z"/><path class="cls-38" d="M12.69,225.92c0,.47,0,1,.07,1.42,0,.24,0,.47,0,.7.06.75.18,1.5.27,2.25s.16,1.4.27,2.1.31,1.5.46,2.25.27,1.39.45,2.09.43,1.49.65,2.24.38,1.38.61,2.07.56,1.48.84,2.22.5,1.38.79,2.05.68,1.48,1,2.22.61,1.35.95,2,.82,1.47,1.23,2.2.72,1.34,1.12,2,.94,1.46,1.42,2.18.83,1.31,1.28,2,1.08,1.44,1.63,2.16.93,1.27,1.44,1.91,1.22,1.43,1.83,2.15,1,1.23,1.59,1.84,1.39,1.44,2.09,2.16,1.1,1.18,1.7,1.76S36,271.27,36.71,272s1.22,1.15,1.87,1.72c.83.72,1.71,1.42,2.57,2.12.65.54,1.26,1.08,1.93,1.6,1,.76,2,1.51,3,2.25.62.46,1.21.93,1.85,1.38,1.13.8,2.32,1.57,3.5,2.36.59.38,1.13.77,1.73,1.15,1.8,1.15,3.66,2.29,5.58,3.39,61.23,35.35,160.2,35.35,221,0,1.89-1.1,3.73-2.23,5.51-3.37.58-.37,1.11-.76,1.67-1.13,1.17-.78,2.35-1.55,3.47-2.35.69-.49,1.33-1,2-1.5.94-.7,1.9-1.39,2.8-2.1.66-.53,1.27-1.07,1.92-1.6.84-.7,1.71-1.39,2.52-2.1.64-.57,1.23-1.15,1.85-1.72s1.52-1.38,2.23-2.08,1.15-1.2,1.72-1.8,1.37-1.38,2-2.09,1.05-1.24,1.58-1.85,1.22-1.41,1.79-2.12.95-1.27,1.43-1.9,1.09-1.42,1.58-2.14.85-1.29,1.27-1.94,1-1.43,1.39-2.16.73-1.31,1.1-2,.83-1.46,1.21-2.2.62-1.34.94-2,.7-1.46,1-2.2.52-1.36.77-2.05.58-1.46.82-2.19.41-1.38.6-2.07.46-1.47.64-2.21.29-1.38.43-2.08.33-1.48.45-2.23.18-1.39.26-2.09.2-1.46.26-2.19v0c.06-.71.07-1.41.1-2.11,1-24-14.36-48.17-46.05-66.47-61.26-35.36-160.23-35.36-221.06,0-30.32,17.62-45.45,40.69-45.41,63.79C12.6,224.43,12.65,225.18,12.69,225.92Z"/><path class="cls-35" d="M337,233.48c0,.75,0,1.5-.1,2.25s-.18,1.61-.28,2.41-.16,1.5-.29,2.24-.32,1.61-.48,2.42-.28,1.48-.46,2.22-.46,1.6-.69,2.4-.41,1.49-.65,2.22-.59,1.59-.89,2.38-.52,1.47-.83,2.2-.72,1.58-1.09,2.36-.64,1.46-1,2.17-.86,1.57-1.3,2.35-.76,1.43-1.18,2.13-1,1.57-1.52,2.35-.87,1.39-1.35,2.08-1.15,1.54-1.72,2.31-1,1.37-1.53,2-1.29,1.53-1.95,2.29-1.09,1.33-1.68,2c-.31.34-.64.66-1,1s-.81.85-1.22,1.28c-.62.63-1.2,1.28-1.85,1.91s-1.6,1.51-2.42,2.26c-.66.61-1.29,1.23-2,1.83-.87.77-1.81,1.53-2.73,2.29-.68.56-1.34,1.14-2.05,1.71-1,.8-2.09,1.58-3.15,2.37-.68.5-1.32,1-2,1.5-1.2.87-2.48,1.7-3.75,2.54-.6.41-1.18.82-1.8,1.22q-2.88,1.86-5.94,3.63c-65.6,38.12-172.27,38.12-238.3,0-2.07-1.2-4.07-2.42-6-3.66-.64-.41-1.23-.83-1.86-1.25-1.27-.83-2.55-1.67-3.76-2.53-.74-.53-1.42-1.06-2.14-1.59-1-.77-2.11-1.54-3.11-2.32-.73-.58-1.42-1.18-2.13-1.77-.91-.75-1.85-1.49-2.72-2.25-.7-.62-1.35-1.25-2-1.88s-1.66-1.49-2.44-2.25-1.23-1.27-1.85-1.9-1.52-1.54-2.23-2.32-1.13-1.32-1.7-2-1.36-1.54-2-2.33-1-1.36-1.54-2-1.21-1.56-1.76-2.34-.92-1.4-1.38-2.09-1.06-1.58-1.54-2.37-.8-1.42-1.2-2.13-.92-1.59-1.33-2.39-.68-1.43-1-2.15-.78-1.61-1.13-2.42-.56-1.47-.85-2.21-.63-1.59-.9-2.39-.45-1.51-.67-2.26-.49-1.59-.69-2.39-.33-1.51-.49-2.26S1,240.76.83,240s-.2-1.51-.29-2.28-.23-1.6-.3-2.4S.17,233.74.13,233,0,231.37,0,230.57c0-.08,0-.16,0-.24L0,241.4c-.07,25.14,16.53,50.32,49.76,69.51,66,38.12,172.7,38.12,238.3,0C320.64,292,337,267.19,337,242.37l0-11.07C337.05,232,337,232.76,337,233.48Z"/><path class="cls-39" d="M12.62,234c0,.7,0,1.41.1,2.11s.17,1.49.27,2.24.16,1.4.27,2.11.3,1.49.46,2.24.27,1.4.45,2.09.43,1.49.65,2.24.38,1.38.61,2.07.56,1.5.85,2.25.49,1.36.78,2,.7,1.5,1.05,2.25.59,1.33.93,2,.82,1.48,1.23,2.21.72,1.33,1.12,2,.95,1.45,1.42,2.18.83,1.3,1.28,1.95,1.09,1.45,1.64,2.18.92,1.26,1.43,1.89,1.21,1.42,1.82,2.13,1,1.25,1.6,1.87,1.36,1.41,2,2.11,1.14,1.21,1.75,1.8,1.52,1.41,2.28,2.11,1.21,1.15,1.86,1.72c.82.71,1.7,1.41,2.55,2.11.65.54,1.27,1.09,1.95,1.62.92.72,1.9,1.42,2.86,2.13.68.5,1.32,1,2,1.49,1.1.77,2.26,1.53,3.41,2.29.61.41,1.19.82,1.82,1.22q2.7,1.73,5.58,3.39c61.23,35.35,160.2,35.35,221,0,1.89-1.1,3.73-2.23,5.51-3.37.57-.37,1.1-.75,1.67-1.13,1.17-.78,2.36-1.55,3.47-2.35.67-.48,1.29-1,1.94-1.45,1-.72,1.95-1.42,2.87-2.16.62-.49,1.21-1,1.82-1.51.88-.73,1.77-1.45,2.61-2.18.62-.55,1.19-1.11,1.79-1.66.77-.72,1.56-1.42,2.29-2.14s1.12-1.17,1.68-1.75,1.4-1.42,2.05-2.14,1-1.21,1.55-1.82,1.24-1.42,1.82-2.14.94-1.26,1.41-1.88,1.1-1.44,1.61-2.17.83-1.27,1.24-1.91,1-1.45,1.42-2.19.72-1.3,1.08-1.95.84-1.47,1.22-2.21.62-1.34.93-2,.71-1.47,1-2.2.52-1.37.78-2.06.57-1.46.81-2.19.4-1.38.61-2.06.44-1.48.63-2.22.29-1.38.43-2.08.33-1.48.45-2.22.18-1.4.27-2.1.2-1.48.26-2.22.06-1.4.09-2.11.08-1.33.08-2l0-8c0,.66-.06,1.33-.09,2s0,1.4-.09,2.11a.13.13,0,0,1,0,.06c-.05.72-.17,1.44-.25,2.16s-.15,1.4-.27,2.09-.29,1.49-.45,2.23-.26,1.38-.43,2.08-.42,1.47-.63,2.21-.38,1.38-.61,2.07-.54,1.46-.81,2.19-.5,1.38-.78,2.05-.67,1.47-1,2.2-.6,1.35-.94,2-.8,1.47-1.21,2.2-.7,1.31-1.09,2-.93,1.44-1.4,2.16-.81,1.3-1.26,1.94-1.06,1.43-1.59,2.14-.92,1.27-1.43,1.9-1.19,1.41-1.79,2.12-1,1.24-1.58,1.85-1.33,1.4-2,2.09-1.12,1.2-1.71,1.8-1.49,1.39-2.24,2.08-1.21,1.15-1.85,1.72c-.8.71-1.67,1.4-2.52,2.1-.64.53-1.25,1.07-1.91,1.6-.91.71-1.87,1.4-2.81,2.1-.67.5-1.3,1-2,1.5-1.11.8-2.29,1.57-3.46,2.35-.57.37-1.11.76-1.68,1.13-1.78,1.14-3.61,2.27-5.51,3.37-60.83,35.35-159.8,35.35-221,0-1.92-1.1-3.78-2.24-5.58-3.39-.6-.38-1.14-.77-1.72-1.15-1.19-.79-2.37-1.56-3.5-2.36-.64-.45-1.23-.92-1.86-1.38-1-.74-2-1.49-3-2.25-.67-.52-1.28-1.06-1.93-1.6-.86-.7-1.74-1.4-2.57-2.12-.64-.57-1.24-1.15-1.86-1.72s-1.55-1.4-2.28-2.11-1.13-1.17-1.7-1.76-1.42-1.43-2.09-2.16-1.05-1.23-1.58-1.84-1.26-1.43-1.84-2.15-1-1.28-1.45-1.91-1.1-1.44-1.61-2.16-.86-1.31-1.29-2-1-1.45-1.42-2.18-.74-1.32-1.12-2-.85-1.46-1.22-2.2-.64-1.35-1-2-.71-1.47-1-2.22-.52-1.36-.78-2.05-.59-1.47-.84-2.22-.42-1.38-.62-2.07-.46-1.49-.65-2.24-.3-1.4-.44-2.09-.34-1.5-.46-2.25-.19-1.4-.28-2.1-.21-1.5-.27-2.25c0-.2,0-.41,0-.63,0-.49,0-1-.06-1.49,0-.74-.08-1.49-.09-2.23,0-.08,0-.16,0-.23l0,8c0,.08,0,.15,0,.23C12.53,232.46,12.59,233.21,12.62,234Z"/><path class="cls-40" d="M337.25,233.48c0,.75,0,1.5-.1,2.25s-.18,1.61-.28,2.41-.17,1.5-.29,2.24-.32,1.61-.48,2.42-.28,1.48-.47,2.22-.45,1.6-.68,2.4-.41,1.49-.65,2.22-.59,1.59-.89,2.38-.52,1.47-.83,2.2-.72,1.58-1.09,2.36-.64,1.46-1,2.17-.86,1.57-1.3,2.35-.76,1.43-1.18,2.13-1,1.57-1.52,2.35-.87,1.39-1.35,2.08S324,269.2,323.4,270s-1,1.37-1.53,2-1.28,1.53-1.94,2.29-1.09,1.33-1.68,2c-.31.34-.65.66-1,1s-.82.85-1.22,1.28c-.62.63-1.21,1.28-1.84,1.91-.78.76-1.62,1.51-2.43,2.26s-1.29,1.23-2,1.83c-.87.77-1.81,1.53-2.73,2.29-.69.56-1.34,1.14-2,1.71-1,.8-2.1,1.58-3.15,2.37-.68.5-1.32,1-2,1.5-1.2.87-2.48,1.7-3.75,2.54-.6.41-1.18.82-1.81,1.22q-2.87,1.86-5.93,3.63c-65.61,38.12-172.27,38.12-238.3,0-2.07-1.2-4.07-2.42-6-3.66-.64-.41-1.23-.83-1.86-1.25-1.27-.83-2.55-1.67-3.76-2.53-.74-.53-1.42-1.06-2.14-1.59-1-.77-2.11-1.54-3.11-2.32-.74-.58-1.42-1.18-2.13-1.77-.91-.75-1.85-1.49-2.72-2.25-.7-.62-1.35-1.25-2-1.88s-1.66-1.49-2.44-2.25-1.23-1.27-1.84-1.9c-.76-.78-1.53-1.54-2.24-2.32s-1.13-1.32-1.7-2-1.36-1.54-2-2.33-1-1.36-1.55-2-1.2-1.56-1.75-2.34-.92-1.4-1.38-2.09-1.06-1.58-1.54-2.37-.8-1.42-1.2-2.13-.92-1.59-1.33-2.39-.68-1.43-1-2.15-.78-1.61-1.13-2.42-.57-1.47-.85-2.21-.63-1.59-.9-2.39S3,247.77,2.79,247s-.49-1.59-.7-2.39-.32-1.51-.48-2.26-.36-1.61-.49-2.42-.2-1.51-.29-2.28-.23-1.6-.3-2.4S.45,233.74.42,233s-.09-1.61-.09-2.41c0-.08,0-.16,0-.24l0,11.07c-.07,25.14,16.52,50.32,49.76,69.51,66,38.12,172.7,38.12,238.3,0,32.58-18.93,48.89-43.71,49-68.53l0-11.07C337.34,232,337.28,232.76,337.25,233.48Z"/><g class="cls-10"><path class="cls-11" d="M243.48,243.69c0,19.9-33.62,36-75.1,36s-75.09-16.14-75.09-36,33.62-36.05,75.09-36.05S243.48,223.78,243.48,243.69Z"/><path class="cls-41" d="M240.45,243.69c0,19.1-32.27,34.59-72.07,34.59s-72.06-15.49-72.06-34.59,32.26-34.59,72.06-34.59S240.45,224.58,240.45,243.69Z"/><path class="cls-42" d="M237.42,243.69c0,18.3-30.91,33.13-69,33.13s-69-14.83-69-33.13,30.91-33.14,69-33.14S237.42,225.39,237.42,243.69Z"/><path class="cls-43" d="M234.4,243.69c0,17.49-29.56,31.68-66,31.68s-66-14.19-66-31.68,29.56-31.69,66-31.69S234.4,226.19,234.4,243.69Z"/><path class="cls-44" d="M231.37,243.69c0,16.69-28.2,30.23-63,30.23s-63-13.54-63-30.23,28.2-30.24,63-30.24S231.37,227,231.37,243.69Z"/><path class="cls-45" d="M228.34,243.69c0,15.89-26.84,28.77-60,28.77s-59.95-12.88-59.95-28.77,26.84-28.78,59.95-28.78S228.34,227.79,228.34,243.69Z"/><path class="cls-46" d="M225.31,243.69c0,15.09-25.49,27.32-56.93,27.32s-56.92-12.23-56.92-27.32,25.48-27.33,56.92-27.33S225.31,228.6,225.31,243.69Z"/><path class="cls-47" d="M222.28,243.69c0,14.28-24.13,25.87-53.9,25.87S114.49,258,114.49,243.69s24.13-25.88,53.89-25.88S222.28,229.4,222.28,243.69Z"/><path class="cls-48" d="M219.25,243.69c0,13.48-22.77,24.41-50.87,24.41s-50.87-10.93-50.87-24.41,22.78-24.42,50.87-24.42S219.25,230.2,219.25,243.69Z"/><path class="cls-49" d="M216.23,243.69c0,12.68-21.42,23-47.85,23s-47.84-10.28-47.84-23,21.42-23,47.84-23S216.23,231,216.23,243.69Z"/><path class="cls-50" d="M213.2,243.69c0,11.87-20.06,21.51-44.82,21.51s-44.81-9.64-44.81-21.51,20.06-21.52,44.81-21.52S213.2,231.81,213.2,243.69Z"/><path class="cls-51" d="M210.17,243.69c0,11.07-18.71,20.05-41.79,20.05s-41.78-9-41.78-20.05,18.71-20.06,41.78-20.06S210.17,232.61,210.17,243.69Z"/><path class="cls-52" d="M207.14,243.69c0,10.27-17.35,18.6-38.76,18.6s-38.75-8.33-38.75-18.6,17.35-18.61,38.75-18.61S207.14,233.41,207.14,243.69Z"/><path class="cls-53" d="M204.11,243.69c0,9.46-16,17.15-35.73,17.15s-35.73-7.69-35.73-17.15,16-17.16,35.73-17.16S204.11,234.21,204.11,243.69Z"/><path class="cls-54" d="M201.09,243.69c0,8.66-14.64,15.69-32.71,15.69s-32.7-7-32.7-15.69,14.64-15.7,32.7-15.7S201.09,235,201.09,243.69Z"/><path class="cls-55" d="M198.06,243.69c0,7.86-13.29,14.24-29.68,14.24s-29.67-6.38-29.67-14.24,13.28-14.25,29.67-14.25S198.06,235.82,198.06,243.69Z"/><path class="cls-56" d="M195,243.69c0,7.06-11.93,12.79-26.65,12.79s-26.64-5.73-26.64-12.79,11.93-12.8,26.64-12.8S195,236.62,195,243.69Z"/><path class="cls-57" d="M192,243.69c0,6.25-10.57,11.33-23.62,11.33s-23.61-5.08-23.61-11.33,10.57-11.34,23.61-11.34S192,237.42,192,243.69Z"/><path class="cls-58" d="M189,243.69c0,5.45-9.21,9.88-20.59,9.88s-20.59-4.43-20.59-9.88,9.22-9.89,20.59-9.89S189,238.23,189,243.69Z"/><path class="cls-59" d="M186,243.69c0,4.65-7.86,8.43-17.57,8.43s-17.56-3.78-17.56-8.43,7.86-8.44,17.56-8.44S186,239,186,243.69Z"/><path class="cls-60" d="M182.92,243.69c0,3.84-6.51,7-14.54,7s-14.53-3.13-14.53-7,6.5-7,14.53-7S182.92,239.83,182.92,243.69Z"/><path class="cls-61" d="M179.89,243.69c0,3-5.15,5.52-11.51,5.52s-11.5-2.48-11.5-5.52,5.15-5.53,11.5-5.53S179.89,240.63,179.89,243.69Z"/></g><path class="cls-62" d="M163,248.51c.74.08,1.69.13,2.72.15a35.09,35.09,0,0,1-5-.47C161.48,248.31,162.22,248.42,163,248.51Z"/><path class="cls-62" d="M173.46,247.92l.21,0,.5-.13h0Z"/><path class="cls-62" d="M158.7,247.77c.52.12,1.06.23,1.63.33-.5-.09-1-.19-1.46-.31Z"/><path class="cls-62" d="M167.48,248.66h0Z"/><path class="cls-62" d="M168.41,248.27h0c-.48,0-1.09,0-1.78,0l-1.24,0h-.71c-.68,0-1.38-.06-2.1-.11l-.19,0c-.83-.06-1.69-.14-2.57-.25l-.16,0-.76-.09c.48.12,1,.22,1.46.31l.44.09a35.09,35.09,0,0,0,5,.47l.33,0c.47,0,.92,0,1.36,0h0a32.65,32.65,0,0,0,6-.74l.68-.15C172.49,248,170.62,248.18,168.41,248.27Z"/><path class="cls-62" d="M149.82,245.67c-.49-.17-1-.37-1.46-.55C148.84,245.3,149.34,245.5,149.82,245.67Z"/><path class="cls-62" d="M143.66,243c-.57-.3-1.12-.6-1.64-.92C142.55,242.44,143.1,242.74,143.66,243Z"/><path class="cls-62" d="M140.81,241.35c-.26-.17-.52-.34-.77-.52Z"/><path class="cls-62" d="M146.54,244.43l.1,0c-.86-.37-1.68-.75-2.47-1.15Q145.32,243.92,146.54,244.43Z"/><path class="cls-62" d="M135.74,237.15a24,24,0,0,1-2.62-3.3A21.29,21.29,0,0,0,135.74,237.15Z"/><path class="cls-62" d="M130.49,228.11c-.13-.49-.26-1-.36-1.47C130.23,227.15,130.36,227.63,130.49,228.11Z"/><path class="cls-62" d="M131.07,229.83c-.17-.44-.33-.88-.46-1.33C130.75,229,130.91,229.41,131.07,229.83Z"/><path class="cls-62" d="M130,226.07c-.07-.42-.14-.85-.18-1.27C129.9,225.24,130,225.65,130,226.07Z"/><path class="cls-62" d="M132.86,233.46c.07.13.16.25.24.37-.36-.56-.69-1.13-1-1.7C132.36,232.61,132.61,233.05,132.86,233.46Z"/><path class="cls-62" d="M137.18,238.55c-.37-.34-.73-.68-1.07-1C136.46,237.87,136.81,238.21,137.18,238.55Z"/><path class="cls-62" d="M131.84,231.59c-.19-.4-.38-.79-.55-1.19C131.47,230.82,131.65,231.21,131.84,231.59Z"/><path class="cls-62" d="M153.14,246.65c-.5-.13-1-.29-1.53-.44C152.12,246.36,152.64,246.52,153.14,246.65Z"/><path class="cls-62" d="M174.53,247.71l-.26,0Z"/><path class="cls-62" d="M202.75,226.24c0-.25.09-.69.15-1.17a19.94,19.94,0,0,1-.93,4.18A15.53,15.53,0,0,0,202.75,226.24Z"/><path class="cls-62" d="M201.77,229.84c0-.07,0-.12.07-.19-.14.38-.28.73-.43,1.08C201.57,230.36,201.71,230,201.77,229.84Z"/><path class="cls-62" d="M201.25,231.09c-.08.18-.17.35-.25.52Z"/><path class="cls-62" d="M200.65,232.31l-.18.31Z"/><path class="cls-62" d="M203,221.63v0Z"/><path class="cls-62" d="M130.52,217.64a22.88,22.88,0,0,1,.95-2.56A18.47,18.47,0,0,0,130.52,217.64Z"/><path class="cls-62" d="M199.49,234.19a24.48,24.48,0,0,1-2,2.56A20.91,20.91,0,0,0,199.49,234.19Z"/><path class="cls-62" d="M200,233.49l.06-.11a1.76,1.76,0,0,1-.14.23Z"/><path class="cls-62" d="M192.27,241.22c-.8.53-1.6,1-2.36,1.46C190.38,242.41,191.24,241.9,192.27,241.22Z"/><path class="cls-62" d="M180.19,246.55l-.59.15Z"/><path class="cls-62" d="M185.13,244.94l-.09,0Z"/><path class="cls-62" d="M193.53,240.33c-.36.27-.72.52-1.08.77C192.79,240.86,193.16,240.61,193.53,240.33Z"/><path class="cls-62" d="M156.49,247.39c-.7-.13-1.41-.29-2.13-.45C155.08,247.1,155.79,247.26,156.49,247.39Z"/><path class="cls-62" d="M138.81,239.91c-.24-.18-.48-.37-.7-.56C138.34,239.54,138.57,239.73,138.81,239.91Z"/><path class="cls-62" d="M202.93,224.76c0-.59.09-1.25.08-2,0,.11,0,.23,0,.34C203,223.7,203,224.23,202.93,224.76Z"/><path class="cls-62" d="M193.64,240.25a24.88,24.88,0,0,0,3.33-2.93l.24-.27A26.69,26.69,0,0,1,193.64,240.25Z"/><path class="cls-62" d="M201.47,215.58l-.17-.39h0Z"/><path class="cls-62" d="M131.52,215l0,0,0,0Z"/><path class="cls-62" d="M159.79,247.9c.88.11,1.74.19,2.57.25C161.55,248.09,160.69,248,159.79,247.9Z"/><path class="cls-62" d="M168.41,248.27h0Z"/><path class="cls-62" d="M162.55,248.17c.72.05,1.42.09,2.1.11C164,248.26,163.29,248.22,162.55,248.17Z"/><path class="cls-62" d="M159.63,247.88c-.82-.1-1.68-.24-2.56-.39.55.1,1.1.21,1.63.28l.17,0Z"/><path class="cls-62" d="M166.6,248.31l-1.24,0Z"/><path class="cls-62" d="M200.77,216.26a2.1,2.1,0,0,1-.13.26c-.13.24-.27.49-.42.73s-.15.25-.23.38c-.18.28-.36.57-.56.85l-.09.12a23.36,23.36,0,0,1-1.65,2.11l-.12.14a31.3,31.3,0,0,1-7.63,6,36.8,36.8,0,0,1-4.51,2.15,44.64,44.64,0,0,1-4.7,1.59l-.81.2-.06,0a51.4,51.4,0,0,1-5.16,1l-.53.08c-1.43.2-3,.35-4.88.45l-.79,0h-.05c-1.14.05-2.91.06-5-.06l-.56,0c-1.54-.1-3.25-.29-5.09-.59l-.54-.08c-1.59-.28-3.28-.66-5-1.14l-.65-.19a44.73,44.73,0,0,1-4.75-1.65l-.14-.07-.07,0c-.64-.27-1.39-.62-2.18-1l-.52-.26c-.5-.27-1-.56-1.55-.88a28.24,28.24,0,0,1-8.07-6.88c-.13-.17-.24-.35-.37-.52-.35-.48-.69-1-1-1.46-.08-.14-.19-.26-.27-.4s-.28-.52-.42-.78L132,216c-.17-.34-.35-.68-.5-1l0,0a.08.08,0,0,1,0,0,22.88,22.88,0,0,0-.95,2.56,18.37,18.37,0,0,0-.66,7.16c0,.42.11.85.18,1.27l.09.57c.1.49.23,1,.36,1.47l.12.39c.13.45.29.89.46,1.33.07.19.14.38.22.57.17.4.36.79.55,1.19l.26.54c.31.57.64,1.14,1,1.7l0,0a24,24,0,0,0,2.62,3.3l.37.38c.34.34.7.68,1.07,1s.61.54.93.8.46.38.7.56c.4.31.81.62,1.23.92.25.18.51.35.77.52s.79.52,1.21.77,1.07.62,1.64.92l.51.28c.79.4,1.61.78,2.47,1.15l.13.06c.53.22,1.06.39,1.59.59s1,.38,1.46.55,1.19.36,1.79.54,1,.31,1.53.44l1.22.29c.72.16,1.43.32,2.13.45l.58.1c.88.15,1.74.29,2.56.39l.16,0c.9.11,1.76.19,2.57.25l.19,0c.74.05,1.44.09,2.1.11h.71l1.24,0c.69,0,1.3,0,1.78,0h0c2.21-.09,4.08-.27,5.73-.5h.13l.26,0c1.95-.29,3.58-.64,5.07-1l.59-.15.5-.12c.54-.15,2.43-.7,4.35-1.46l.09,0,.27-.1a36.84,36.84,0,0,0,4.51-2.16c.76-.44,1.56-.93,2.36-1.46l.18-.12c.36-.25.72-.5,1.08-.77l.11-.08a26.69,26.69,0,0,0,3.57-3.2l.27-.3a24.48,24.48,0,0,0,2-2.56c.06-.08.12-.15.17-.23s.15-.24.22-.35a1.76,1.76,0,0,0,.14-.23c.15-.24.3-.49.45-.76l.18-.31.35-.7c.08-.17.17-.34.25-.52l.16-.36c.15-.35.29-.7.43-1.08l.13-.4a19.94,19.94,0,0,0,.93-4.18l0-.31c0-.53.08-1.06.09-1.62,0-.11,0-.23,0-.34,0-.33,0-.69,0-1.1v-.09a19.58,19.58,0,0,0-1.49-6l-.17-.39C201.14,215.54,201,215.9,200.77,216.26Z"/><path class="cls-62" d="M201.44,199.52c0-.1-.06-.17-.1-.26h0C201.37,199.35,201.41,199.43,201.44,199.52Z"/><path class="cls-62" d="M130.57,201.74a21.06,21.06,0,0,1,1-2.56A17.27,17.27,0,0,0,130.57,201.74Z"/><path class="cls-62" d="M129.86,208.25c0-.25,0-.5,0-.75C129.83,207.75,129.84,208,129.86,208.25Z"/><path class="cls-62" d="M130.13,210.54c-.09-.48-.15-1-.2-1.44C130,209.59,130.05,210.07,130.13,210.54Z"/><path class="cls-62" d="M131.24,214.32a20.23,20.23,0,0,1-1.07-3.6A18.78,18.78,0,0,0,131.24,214.32Z"/><path class="cls-62" d="M131.56,199.1l0,0a.05.05,0,0,1,0,0Z"/><path class="cls-62" d="M202.25,212.69a16.54,16.54,0,0,0,.7-3.59,20.08,20.08,0,0,1-.78,3.8Z"/><path class="cls-62" d="M202.83,204.24a17.23,17.23,0,0,0-.47-2.13,20.88,20.88,0,0,1,.48,2.16S202.84,204.25,202.83,204.24Z"/><path class="cls-62" d="M202,200.86c.1.28.19.55.27.82C202.16,201.42,202.07,201.15,202,200.86Z"/><path class="cls-62" d="M197.57,220.85l.12-.14a31,31,0,0,1-7.75,6.13A31.3,31.3,0,0,0,197.57,220.85Z"/><path class="cls-62" d="M151.56,230.33l.65.19Z"/><path class="cls-62" d="M162.84,232.33l.56,0Z"/><path class="cls-62" d="M157.21,231.66l.54.08Z"/><path class="cls-62" d="M142.35,226.42c.53.32,1.05.61,1.55.88C143.36,227,142.85,226.72,142.35,226.42Z"/><path class="cls-62" d="M174.17,231.92l.53-.08Z"/><path class="cls-62" d="M169.29,232.37l-.79,0Z"/><path class="cls-62" d="M179.86,230.8l.06,0Z"/><path class="cls-62" d="M146.67,228.61q-1.17-.51-2.25-1.05c.79.4,1.54.75,2.18,1Z"/><path class="cls-62" d="M132.91,217.56c-.24-.39-.47-.78-.69-1.18.14.26.27.52.42.78S132.83,217.42,132.91,217.56Z"/><path class="cls-62" d="M133.91,219c.13.17.24.35.37.52C134.15,219.37,134,219.19,133.91,219Z"/><path class="cls-62" d="M200,217.63c.08-.13.16-.25.23-.38C200.15,217.38,200.07,217.51,200,217.63Z"/><path class="cls-62" d="M200.64,216.52a2.1,2.1,0,0,0,.13-.26A2.1,2.1,0,0,1,200.64,216.52Z"/><path class="cls-62" d="M132,216c-.28-.55-.54-1.1-.76-1.65.08.21.16.42.26.63h0C131.67,215.33,131.85,215.67,132,216Z"/><path class="cls-62" d="M199.34,218.6l.09-.12Z"/><path class="cls-62" d="M201.21,199.55c-.06.13-.11.26-.17.38a24.58,24.58,0,0,1-1.41,2.43l-.08.13c-.06.08-.14.16-.2.25a18,18,0,0,1-1.45,1.87,3.22,3.22,0,0,1-.24.28l0,.06a29.14,29.14,0,0,1-7.64,6,36.11,36.11,0,0,1-4.51,2.15l-.24.09-.14.06a44.68,44.68,0,0,1-4.32,1.44l-.5.13-.58.15a50,50,0,0,1-5.13,1l-.18,0a57.67,57.67,0,0,1-5.88.52h0c-.84,0-1.66,0-2.46,0l-1,0c-.46,0-.9,0-1.34-.06-.77,0-1.53-.09-2.3-.17l-.58-.05c-.58-.06-1.17-.14-1.75-.22s-1.08-.15-1.54-.23l-.5-.08c-.35-.05-.67-.11-.93-.16a41.37,41.37,0,0,1-6.62-1.79c-1-.34-1.92-.69-2.84-1.09a33.53,33.53,0,0,1-6.38-3.52L140,209c-.28-.2-.56-.43-.85-.65s-.79-.61-1.17-.92l-.24-.22q-.87-.77-1.65-1.56l-.12-.12c-.58-.61-1.13-1.24-1.64-1.88l-.11-.13a23.12,23.12,0,0,1-1.49-2.16s-.05-.06-.07-.1l0,0-.2-.37c-.2-.33-.4-.73-.62-1.18-.09-.19-.19-.37-.27-.56a.05.05,0,0,0,0,0l0,0a21.06,21.06,0,0,0-1,2.56,18.34,18.34,0,0,0-.75,5.76c0,.25,0,.5,0,.75s0,.57.07.85c0,.48.11,1,.2,1.44a1.16,1.16,0,0,1,0,.18,20.23,20.23,0,0,0,1.07,3.6l0,0c.22.55.48,1.1.76,1.65l.2.37c.22.4.45.79.69,1.18s.65,1,1,1.46c.13.17.24.35.37.52a28.24,28.24,0,0,0,8.07,6.88c.5.3,1,.59,1.55.88l.52.26q1.08.54,2.25,1.05l.14.07a44.73,44.73,0,0,0,4.75,1.65l.65.19c1.72.48,3.41.86,5,1.14l.54.08c1.84.3,3.55.49,5.09.59l.56,0c2.14.12,3.91.11,5,.06h.05l.79,0c1.84-.1,3.45-.25,4.88-.45l.53-.08a51.4,51.4,0,0,0,5.16-1l.06,0,.81-.2a44.64,44.64,0,0,0,4.7-1.59,36.8,36.8,0,0,0,4.51-2.15,31,31,0,0,0,7.75-6.13,23.36,23.36,0,0,0,1.65-2.11l.09-.12c.2-.28.38-.57.56-.85.08-.12.16-.25.23-.38s.29-.49.42-.73a2.1,2.1,0,0,0,.13-.26c.19-.36.37-.72.53-1.07h0a19.05,19.05,0,0,0,.87-2.29,20.08,20.08,0,0,0,.78-3.8c.06-.65.1-1.27.11-1.86a17.71,17.71,0,0,0-.22-3,20.88,20.88,0,0,0-.48-2.16c0-.15-.07-.28-.12-.43s-.17-.54-.27-.82c-.15-.43-.33-.89-.53-1.34,0-.09-.07-.17-.1-.25C201.29,199.36,201.25,199.46,201.21,199.55Z"/><path class="cls-62" d="M196.93,176.88c.35.36.68.74,1,1.13C197.58,177.58,197.24,177.2,196.93,176.88Z"/><path class="cls-62" d="M202,184.85a22.09,22.09,0,0,1,.68,2.35A20.91,20.91,0,0,0,202,184.85Z"/><path class="cls-62" d="M199.94,180.72c.29.45.57.89.81,1.35Q200.36,181.37,199.94,180.72Z"/><path class="cls-62" d="M202.74,187.62c.1.52.18,1,.23,1.49C202.91,188.59,202.84,188.1,202.74,187.62Z"/><path class="cls-62" d="M131.55,199.08c-.07-.17-.13-.34-.21-.52C131.41,198.74,131.48,198.92,131.55,199.08Z"/><path class="cls-62" d="M203.07,190a.68.68,0,0,1,0-.14c0,.29,0,.56,0,.83C203.08,190.48,203.08,190.26,203.07,190Z"/><path class="cls-62" d="M130.51,186.24c-.06.21-.08.41-.13.62.08-.35.17-.7.27-1.06A3.73,3.73,0,0,0,130.51,186.24Z"/><path class="cls-62" d="M130,189.3c0-.39.11-.77.17-1.16C130.07,188.53,130,188.92,130,189.3Z"/><path class="cls-62" d="M196.73,176.69l-.33-.34v0C196.51,176.48,196.63,176.58,196.73,176.69Z"/><path class="cls-62" d="M129.86,191.46c0-.3,0-.61,0-.91C129.88,190.85,129.85,191.17,129.86,191.46Z"/><path class="cls-62" d="M131,184.85c.11-.32.22-.64.35-.95C131.18,184.21,131.07,184.53,131,184.85Z"/><path class="cls-62" d="M132.71,181.12c.3-.49.62-1,1-1.46C133.33,180.14,133,180.63,132.71,181.12Z"/><path class="cls-62" d="M133.92,179.31c.35-.47.73-.93,1.12-1.39C134.65,178.38,134.27,178.84,133.92,179.31Z"/><path class="cls-62" d="M131.77,182.88c.17-.36.35-.72.55-1.08C132.13,182.15,131.94,182.52,131.77,182.88Z"/><path class="cls-62" d="M200.75,182.07a22.16,22.16,0,0,1,1.22,2.75A19.5,19.5,0,0,0,200.75,182.07Z"/><path class="cls-62" d="M135.65,177.21l.27-.28Z"/><path class="cls-62" d="M203.1,191.42a19.9,19.9,0,0,1-.9,5.67A19.43,19.43,0,0,0,203.1,191.42Z"/><path class="cls-62" d="M201.21,199.55c0-.09.08-.19.13-.28h0c.15-.34.32-.66.45-1s.23-.62.38-1.07A19.93,19.93,0,0,1,201.21,199.55Z"/><path class="cls-62" d="M163.7,216.47c.44,0,.88.05,1.34.06C164.59,216.52,164.15,216.5,163.7,216.47Z"/><path class="cls-62" d="M160.82,216.25l.58.05Z"/><path class="cls-62" d="M168.49,216.52c-.81,0-1.64,0-2.46,0C166.83,216.56,167.65,216.56,168.49,216.52Z"/><path class="cls-62" d="M174.38,216l.18,0Z"/><path class="cls-62" d="M157.53,215.8c.46.08,1,.16,1.54.23C158.56,216,158,215.89,157.53,215.8Z"/><path class="cls-62" d="M157,215.72a48.82,48.82,0,0,1-7.55-1.95,41.37,41.37,0,0,0,6.62,1.79C156.36,215.61,156.68,215.67,157,215.72Z"/><path class="cls-62" d="M179.69,215l.58-.15Z"/><path class="cls-62" d="M146.64,212.68a35.57,35.57,0,0,1-6.38-3.52A33.53,33.53,0,0,0,146.64,212.68Z"/><path class="cls-62" d="M185.09,213.24l.14-.06Z"/><path class="cls-62" d="M199.63,202.36a24.58,24.58,0,0,0,1.41-2.43A25.36,25.36,0,0,1,199.63,202.36Z"/><path class="cls-62" d="M134.24,203.52l.11.13Z"/><path class="cls-62" d="M136.11,205.65l-.12-.12Z"/><path class="cls-62" d="M197.9,204.61a18,18,0,0,0,1.45-1.87A20.87,20.87,0,0,1,197.9,204.61Z"/><path class="cls-62" d="M132.75,201.36l-.1-.15,0,0S132.73,201.32,132.75,201.36Z"/><path class="cls-62" d="M131.83,199.66c.22.45.42.85.62,1.18C132.22,200.45,132,200.06,131.83,199.66Z"/><path class="cls-62" d="M139.17,208.35c.29.22.57.45.85.65C139.73,208.79,139.46,208.57,139.17,208.35Z"/><path class="cls-62" d="M197.62,205l0-.06a30.62,30.62,0,0,1-7.68,6.05A29.14,29.14,0,0,0,197.62,205Z"/><path class="cls-62" d="M137.76,207.21l.24.22Z"/><path class="cls-62" d="M196.22,179.62h0a9.72,9.72,0,0,0-.05,1.43c0,.55,0,1.1,0,1.65,0,.13,0,.25,0,.38s0,.22,0,.33,0,.2,0,.3a2.29,2.29,0,0,1,0,.25,1.36,1.36,0,0,1,0,.2c0,.06,0,.11,0,.16a.41.41,0,0,0,0,.11v.07h0v0a11.59,11.59,0,0,1-2.3,5.89,20.57,20.57,0,0,1-6.65,5.61c-.73.41-1.49.79-2.28,1.15a38.17,38.17,0,0,1-7.61,2.52,49.34,49.34,0,0,1-11.18,1.14A48.57,48.57,0,0,1,155,199.43a35.21,35.21,0,0,1-9.71-3.87h0a19.7,19.7,0,0,1-6.37-5.74,11.34,11.34,0,0,1-2-5.5,0,0,0,0,0,0,0h0v-.06s0-.09,0-.12,0-.1,0-.15a1.49,1.49,0,0,0,0-.21c0-.08,0-.17,0-.25a2.83,2.83,0,0,1,0-.29c0-.12,0-.23,0-.34s0-.25,0-.37c0-.56,0-1.11.05-1.66a8.52,8.52,0,0,0,0-1.43h0c0-1.13-.09-2.19-.17-3.26l-.71.73-.27.28-.28.3c-.12.13-.22.27-.33.41-.39.46-.77.92-1.12,1.39-.08.12-.16.24-.25.35-.34.49-.66,1-1,1.46l-.39.68c-.2.36-.38.72-.55,1.08s-.32.68-.46,1-.24.63-.35.95-.16.4-.22.6-.06.24-.09.35c-.1.36-.19.71-.27,1.06s-.18.86-.25,1.28-.12.77-.17,1.16-.05.83-.07,1.25,0,.61,0,.91a18.88,18.88,0,0,0,1.48,7.1c.08.18.14.35.21.52v0h0c.08.19.18.37.27.56.19.4.39.79.62,1.18l.2.37.1.15a23.12,23.12,0,0,0,1.49,2.16l.11.13c.51.64,1.06,1.27,1.64,1.88l.12.12q.78.79,1.65,1.56l.24.22c.38.31.77.62,1.17.92s.56.44.85.65l.24.16a35.57,35.57,0,0,0,6.38,3.52c.92.4,1.87.75,2.84,1.09a48.82,48.82,0,0,0,7.55,1.95l.5.08c.51.09,1,.16,1.54.23s1.17.16,1.75.22l.58.05c.77.08,1.53.14,2.3.17.45,0,.89.05,1.34.06l1,0c.82,0,1.65,0,2.46,0h0a57.67,57.67,0,0,0,5.88-.52l.18,0a50,50,0,0,0,5.13-1l.58-.15.5-.13a44.68,44.68,0,0,0,4.32-1.44l.14-.06.24-.09a36.11,36.11,0,0,0,4.51-2.15,30.62,30.62,0,0,0,7.68-6.05,3.22,3.22,0,0,0,.24-.28,20.87,20.87,0,0,0,1.45-1.87c.06-.09.14-.17.2-.25l.08-.13a25.36,25.36,0,0,0,1.41-2.43c.06-.12.11-.25.17-.38a19.93,19.93,0,0,0,1-2.37l0-.09a19.9,19.9,0,0,0,.9-5.67s0,0,0-.08c0-.19,0-.43,0-.63s0-.54,0-.83-.05-.51-.08-.77c-.05-.47-.13-1-.23-1.49,0-.14-.05-.27-.08-.42a22.09,22.09,0,0,0-.68-2.35v0a22.16,22.16,0,0,0-1.22-2.75c-.24-.46-.52-.9-.81-1.35a20.55,20.55,0,0,0-2-2.71c-.33-.39-.66-.77-1-1.13l-.2-.19c-.1-.11-.22-.21-.33-.32C196.33,177.46,196.22,178.53,196.22,179.62Z"/><path class="cls-63" d="M200.77,216.25l-.13.26q-.19.36-.42.72c-.07.13-.15.26-.23.39-.18.28-.36.56-.56.84l-.09.13a21.94,21.94,0,0,1-1.65,2.1.81.81,0,0,1-.12.14,30.79,30.79,0,0,1-7.63,6,37.22,37.22,0,0,1-4.51,2.16,47.23,47.23,0,0,1-4.7,1.59l-.81.2-.06,0c-1.52.38-3.18.74-5.16,1l-.53.08c-1.43.2-3,.35-4.88.45l-.79,0h-.05c-1.14.05-2.91.06-5-.06l-.56,0c-1.54-.11-3.25-.3-5.09-.6l-.54-.08a47.24,47.24,0,0,1-5-1.14l-.65-.18a44.83,44.83,0,0,1-4.75-1.66l-.14-.07-.07,0c-.64-.27-1.39-.63-2.18-1l-.52-.26c-.5-.26-1-.56-1.55-.87a28.26,28.26,0,0,1-8.07-6.89c-.13-.16-.24-.34-.37-.51-.35-.48-.69-1-1-1.46-.08-.14-.19-.26-.27-.4s-.28-.52-.42-.78L132,216c-.17-.34-.35-.68-.5-1l0,.05s0,0,0,0a22,22,0,0,0-.95,2.55,18.4,18.4,0,0,0-.66,7.17c0,.42.11.84.18,1.26l.09.57c.1.49.23,1,.36,1.47l.12.4c.13.44.29.89.46,1.33.07.19.14.38.22.56.17.4.36.8.55,1.19.09.19.17.37.26.55.31.57.64,1.13,1,1.69l0,0a24.6,24.6,0,0,0,2.62,3.3l.37.38c.34.34.7.68,1.07,1s.61.54.93.81.46.37.7.56c.4.31.81.62,1.23.92l.77.51c.4.26.79.52,1.21.77s1.07.63,1.64.92c.17.1.33.2.51.29.79.4,1.61.78,2.47,1.15l.13.06c.53.22,1.06.39,1.59.59s1,.38,1.46.54,1.19.37,1.79.55,1,.31,1.53.43.81.2,1.22.29c.72.16,1.43.33,2.13.46l.58.1c.88.15,1.74.29,2.56.39l.16,0c.9.11,1.76.19,2.57.25h.19c.74.06,1.44.09,2.1.11l.71,0h1.24c.69,0,1.3,0,1.78,0h0c2.21-.1,4.08-.28,5.73-.51h.13l.26,0c1.95-.29,3.58-.64,5.07-1l.59-.15.5-.13c.54-.14,2.43-.7,4.35-1.45l.09,0,.27-.11a36.44,36.44,0,0,0,4.51-2.15c.76-.45,1.56-.93,2.36-1.47l.18-.12c.36-.24.72-.5,1.08-.76l.11-.08a26.69,26.69,0,0,0,3.57-3.2l.27-.3a25.58,25.58,0,0,0,2-2.56l.17-.24c.08-.11.15-.23.22-.35l.14-.22c.15-.24.3-.49.45-.76l.18-.32.35-.69c.08-.17.17-.34.25-.52l.16-.36c.15-.35.29-.71.43-1.08,0-.13.09-.27.13-.41a19.79,19.79,0,0,0,.93-4.18l0-.3c0-.53.08-1.07.09-1.63,0-.1,0-.22,0-.34,0-.32,0-.69,0-1.1v-.09a19.59,19.59,0,0,0-1.49-6c-.06-.13-.11-.26-.17-.4C201.14,215.53,201,215.89,200.77,216.25Z"/><path class="cls-64" d="M201.21,199.54c-.06.12-.11.25-.17.37a23.65,23.65,0,0,1-1.41,2.44l-.08.12c-.06.09-.14.17-.2.26a19.18,19.18,0,0,1-1.45,1.87c-.08.09-.15.19-.24.28l0,.06a29.13,29.13,0,0,1-7.64,6,36.52,36.52,0,0,1-4.51,2.16l-.24.09-.14.05c-1.91.75-3.78,1.31-4.32,1.45l-.5.12c-.19.06-.39.1-.58.15a49.61,49.61,0,0,1-5.13,1l-.18,0a57.67,57.67,0,0,1-5.88.52h0q-1.26,0-2.46,0l-1,0c-.46,0-.9,0-1.34-.06-.77,0-1.53-.1-2.3-.17l-.58-.06c-.58-.06-1.17-.13-1.75-.21l-1.54-.23-.5-.08-.93-.16a42.48,42.48,0,0,1-6.62-1.79c-1-.34-1.92-.7-2.84-1.09a34.11,34.11,0,0,1-6.38-3.52L140,209c-.28-.2-.56-.44-.85-.66s-.79-.6-1.17-.92c-.08-.07-.16-.15-.24-.21q-.87-.76-1.65-1.56l-.12-.12c-.58-.61-1.13-1.24-1.64-1.89l-.11-.13a21.87,21.87,0,0,1-1.49-2.16l-.07-.09a.09.09,0,0,0,0-.05l-.2-.37c-.2-.34-.4-.73-.62-1.18-.09-.19-.19-.38-.27-.56l0,0s0,0,0,0a21.06,21.06,0,0,0-1,2.56,18.3,18.3,0,0,0-.75,5.76c0,.24,0,.49,0,.74s0,.57.07.86c0,.48.11,1,.2,1.44a1.16,1.16,0,0,1,0,.18,20.48,20.48,0,0,0,1.07,3.6l0,0c.22.56.48,1.11.76,1.66l.2.37c.22.39.45.79.69,1.18s.65,1,1,1.46l.37.51a28.26,28.26,0,0,0,8.07,6.89c.5.3,1,.59,1.55.87l.52.26q1.08.56,2.25,1.05l.14.07a44.83,44.83,0,0,0,4.75,1.66l.65.18a47.24,47.24,0,0,0,5,1.14l.54.08c1.84.3,3.55.49,5.09.6l.56,0c2.14.12,3.91.11,5,.06h.05l.79,0c1.84-.1,3.45-.25,4.88-.45l.53-.08c2-.3,3.64-.66,5.16-1l.06,0,.81-.2a47.23,47.23,0,0,0,4.7-1.59,37.22,37.22,0,0,0,4.51-2.16,30.74,30.74,0,0,0,7.75-6.13,21.94,21.94,0,0,0,1.65-2.1l.09-.13c.2-.28.38-.56.56-.84.08-.13.16-.26.23-.39s.29-.48.42-.72l.13-.26c.19-.36.37-.72.53-1.08h0a18.92,18.92,0,0,0,.87-2.28,20.17,20.17,0,0,0,.78-3.81c.06-.64.1-1.26.11-1.86a17.78,17.78,0,0,0-.22-3,22.1,22.1,0,0,0-.48-2.16c0-.14-.07-.28-.12-.42s-.17-.54-.27-.82c-.15-.44-.33-.89-.53-1.34,0-.09-.07-.17-.1-.26C201.29,199.35,201.25,199.44,201.21,199.54Z"/><path class="cls-65" d="M196.22,179.61h0a9.81,9.81,0,0,0-.05,1.44c0,.55,0,1.1,0,1.65,0,.12,0,.25,0,.37s0,.23,0,.34,0,.2,0,.29a2,2,0,0,1,0,.25,1.49,1.49,0,0,1,0,.21c0,.05,0,.1,0,.15a.49.49,0,0,0,0,.12v0a11.55,11.55,0,0,1-2.3,5.88,20.57,20.57,0,0,1-6.65,5.61c-.73.41-1.49.8-2.28,1.16a38.81,38.81,0,0,1-7.61,2.51,50,50,0,0,1-22.3-.22,35.84,35.84,0,0,1-9.71-3.87h0a19.92,19.92,0,0,1-6.37-5.74,11.34,11.34,0,0,1-2-5.5,0,0,0,0,0,0,0h0v-.07s0-.08,0-.11,0-.11,0-.16a1.23,1.23,0,0,0,0-.2c0-.09,0-.17,0-.25s0-.2,0-.3,0-.22,0-.33,0-.25,0-.38c0-.55,0-1.1.05-1.65a8.52,8.52,0,0,0,0-1.43h0c0-1.14-.09-2.2-.17-3.26-.24.23-.47.48-.71.72l-.27.29-.28.29c-.12.14-.22.28-.33.42-.39.45-.77.92-1.12,1.39l-.25.35c-.34.48-.66,1-1,1.46l-.39.68c-.2.35-.38.72-.55,1.08s-.32.67-.46,1-.24.64-.35,1-.16.4-.22.6a3.58,3.58,0,0,0-.09.35c-.1.35-.19.71-.27,1.06s-.18.85-.25,1.28-.12.77-.17,1.15-.05.83-.07,1.25,0,.61,0,.92a18.92,18.92,0,0,0,1.48,7.1c.08.17.14.35.21.52v0h0c.08.18.18.37.27.56.19.39.39.79.62,1.18l.2.37.1.14a21.87,21.87,0,0,0,1.49,2.16l.11.13c.51.65,1.06,1.28,1.64,1.89l.12.12q.78.8,1.65,1.56c.08.06.16.14.24.21.38.32.77.62,1.17.92s.56.45.85.66l.24.16a35.57,35.57,0,0,0,6.38,3.52c.92.39,1.87.75,2.84,1.09a50,50,0,0,0,7.55,2l.5.08,1.54.23c.58.08,1.17.15,1.75.21l.58.06c.77.07,1.53.13,2.3.17.45,0,.89,0,1.34.06l1,0c.82,0,1.65,0,2.46,0h0a57.67,57.67,0,0,0,5.88-.52l.18,0a49.61,49.61,0,0,0,5.13-1l.58-.15.5-.12c.54-.14,2.41-.7,4.32-1.45l.14-.05.24-.09a36.52,36.52,0,0,0,4.51-2.16,30.82,30.82,0,0,0,7.68-6c.09-.09.16-.19.24-.28a20.87,20.87,0,0,0,1.45-1.87c.06-.09.14-.17.2-.26l.08-.12a24.32,24.32,0,0,0,1.41-2.44c.06-.12.11-.25.17-.37a19.41,19.41,0,0,0,1-2.38l0-.09a19.9,19.9,0,0,0,.9-5.67s0-.05,0-.07c0-.19,0-.43,0-.64s0-.53,0-.83-.05-.5-.08-.77c-.05-.47-.13-1-.23-1.48,0-.14-.05-.27-.08-.42a22.23,22.23,0,0,0-.68-2.36s0,0,0,0a22.16,22.16,0,0,0-1.22-2.75c-.24-.46-.52-.91-.81-1.36a21.23,21.23,0,0,0-2-2.71c-.33-.38-.66-.76-1-1.13l-.2-.19-.33-.31C196.33,177.44,196.22,178.51,196.22,179.61Z"/><path class="cls-66" d="M200.77,216.17c0,.09-.08.18-.13.27q-.19.36-.42.72c-.07.13-.15.26-.23.39s-.36.56-.56.85l-.09.12a23.27,23.27,0,0,1-1.65,2.1l-.12.14a30.79,30.79,0,0,1-7.63,6,37.22,37.22,0,0,1-4.51,2.16,43.81,43.81,0,0,1-4.7,1.58l-.81.21h-.06c-1.52.38-3.18.75-5.16,1l-.53.08c-1.43.2-3,.35-4.88.45l-.79.05h-.05a50.08,50.08,0,0,1-5-.07l-.56,0c-1.54-.11-3.25-.3-5.09-.6l-.54-.08a49.85,49.85,0,0,1-5-1.14l-.65-.18a44.83,44.83,0,0,1-4.75-1.66l-.14-.07-.07,0c-.64-.27-1.39-.62-2.18-1l-.52-.27c-.5-.26-1-.55-1.55-.87a28.26,28.26,0,0,1-8.07-6.89c-.13-.16-.24-.34-.37-.51-.35-.49-.69-1-1-1.46-.08-.14-.19-.26-.27-.4s-.28-.52-.42-.78l-.2-.38c-.17-.33-.35-.67-.5-1l0,0s0,0,0,.05a22,22,0,0,0-.95,2.55,18.4,18.4,0,0,0-.66,7.17c0,.42.11.84.18,1.27q0,.27.09.57c.1.48.23,1,.36,1.46l.12.4c.13.44.29.89.46,1.33.07.19.14.38.22.56.17.4.36.8.55,1.19.09.19.17.37.26.54.31.58.64,1.14,1,1.71l0,0a24.6,24.6,0,0,0,2.62,3.3l.37.38c.34.34.7.68,1.07,1l.93.81c.22.19.46.37.7.56.4.31.81.62,1.23.92l.77.51c.4.26.79.53,1.21.78s1.07.61,1.64.92l.51.28c.79.4,1.61.78,2.47,1.14l.13.06c.53.23,1.06.4,1.59.6s1,.38,1.46.54,1.19.37,1.79.55l1.53.44,1.22.28c.72.17,1.43.33,2.13.46l.58.1c.88.15,1.74.28,2.56.39l.16,0c.9.11,1.76.19,2.57.25h.19c.74.06,1.44.09,2.1.11l.71,0h1.24c.69,0,1.3,0,1.78,0h0c2.21-.1,4.08-.28,5.73-.5h.13l.26,0a50,50,0,0,0,5.07-1l.59-.15.5-.13a43.4,43.4,0,0,0,4.35-1.45l.09,0,.27-.1a38,38,0,0,0,4.51-2.15c.76-.45,1.56-.93,2.36-1.47l.18-.12c.36-.24.72-.49,1.08-.76l.11-.08a26.8,26.8,0,0,0,3.57-3.21l.27-.29a23.62,23.62,0,0,0,2-2.57c.06-.08.12-.15.17-.23s.15-.23.22-.34.1-.15.14-.23c.15-.24.3-.5.45-.76l.18-.32.35-.69c.08-.17.17-.34.25-.52l.16-.36c.15-.35.29-.71.43-1.08,0-.13.09-.27.13-.41a19.94,19.94,0,0,0,.93-4.18l0-.3c0-.53.08-1.07.09-1.63,0-.1,0-.23,0-.34,0-.32,0-.69,0-1.1v-.09a19.59,19.59,0,0,0-1.49-6c-.06-.13-.11-.26-.17-.4C201.14,215.46,201,215.82,200.77,216.17Z"/><path class="cls-67" d="M201.21,199.47c-.06.12-.11.25-.17.37a23.65,23.65,0,0,1-1.41,2.44l-.08.12c-.06.09-.14.17-.2.26a19.18,19.18,0,0,1-1.45,1.87c-.08.09-.15.19-.24.28l0,.05a29.15,29.15,0,0,1-7.64,6,37.63,37.63,0,0,1-4.51,2.15l-.24.09-.14.05c-1.91.75-3.78,1.31-4.32,1.45l-.5.12c-.19.06-.39.1-.58.15a49.61,49.61,0,0,1-5.13,1l-.18,0a57.67,57.67,0,0,1-5.88.52h0q-1.26,0-2.46,0l-1,0-1.34-.06c-.77,0-1.53-.1-2.3-.17l-.58-.06c-.58-.06-1.17-.13-1.75-.21l-1.54-.23-.5-.08-.93-.16a42.48,42.48,0,0,1-6.62-1.79c-1-.34-1.92-.7-2.84-1.09a34.11,34.11,0,0,1-6.38-3.52l-.24-.16c-.28-.2-.56-.44-.85-.65s-.79-.61-1.17-.93l-.24-.21q-.87-.76-1.65-1.56l-.12-.12c-.58-.61-1.13-1.24-1.64-1.89l-.11-.13a21.87,21.87,0,0,1-1.49-2.16l-.07-.09a.09.09,0,0,0,0-.05l-.2-.37c-.2-.34-.4-.73-.62-1.18-.09-.19-.19-.37-.27-.56,0,0,0,0,0,0l0,0a21.55,21.55,0,0,0-1,2.55,18.41,18.41,0,0,0-.75,5.77c0,.25,0,.49,0,.74s0,.57.07.86c0,.48.11,1,.2,1.44a1,1,0,0,1,0,.18,20.48,20.48,0,0,0,1.07,3.6l0,0a17.51,17.51,0,0,0,.76,1.65l.2.38c.22.39.45.79.69,1.18s.65,1,1,1.46l.37.51a28.26,28.26,0,0,0,8.07,6.89c.5.3,1,.59,1.55.87l.52.27c.72.36,1.47.71,2.25,1l.14.07a44.83,44.83,0,0,0,4.75,1.66l.65.18a49.85,49.85,0,0,0,5,1.14l.54.08c1.84.3,3.55.49,5.09.6l.56,0a50.08,50.08,0,0,0,5,.07h.05l.79-.05c1.84-.1,3.45-.25,4.88-.45l.53-.08c2-.3,3.64-.67,5.16-1h.06l.81-.21a43.81,43.81,0,0,0,4.7-1.58,37.22,37.22,0,0,0,4.51-2.16,31,31,0,0,0,7.75-6.13,23.27,23.27,0,0,0,1.65-2.1l.09-.12c.2-.29.38-.57.56-.85s.16-.26.23-.39.29-.48.42-.72c.05-.09.09-.18.13-.27.19-.35.37-.71.53-1.07h0a18.92,18.92,0,0,0,.87-2.28A20.17,20.17,0,0,0,203,209c.06-.64.1-1.26.11-1.86a17.78,17.78,0,0,0-.22-3,22.1,22.1,0,0,0-.48-2.16c0-.14-.07-.28-.12-.42s-.17-.54-.27-.82c-.15-.44-.33-.89-.53-1.35,0-.08-.07-.16-.1-.25C201.29,199.28,201.25,199.37,201.21,199.47Z"/><path class="cls-68" d="M196.22,179.54h0a9.72,9.72,0,0,0-.05,1.43c0,.55,0,1.11,0,1.66,0,.13,0,.25,0,.38s0,.22,0,.33,0,.2,0,.29a2,2,0,0,1,0,.25,1.49,1.49,0,0,1,0,.21s0,.1,0,.15a.49.49,0,0,0,0,.12v0a11.52,11.52,0,0,1-2.3,5.88,20.45,20.45,0,0,1-6.65,5.61c-.73.41-1.49.8-2.28,1.16a38.81,38.81,0,0,1-7.61,2.51,50,50,0,0,1-22.3-.22,35.84,35.84,0,0,1-9.71-3.87h0a19.72,19.72,0,0,1-6.37-5.75,11.27,11.27,0,0,1-2-5.49,0,0,0,0,0,0,0v-.08s0-.08,0-.11,0-.11,0-.16a1.49,1.49,0,0,0,0-.21c0-.08,0-.16,0-.24s0-.2,0-.3,0-.22,0-.33,0-.25,0-.38c0-.55,0-1.1.05-1.65a8.63,8.63,0,0,0,0-1.44h0c0-1.13-.09-2.19-.17-3.25-.24.23-.47.48-.71.72l-.27.29-.28.29-.33.41c-.39.46-.77.93-1.12,1.4l-.25.35c-.34.48-.66,1-1,1.46l-.39.68c-.2.35-.38.72-.55,1.08s-.32.67-.46,1-.24.64-.35,1-.16.39-.22.59-.06.24-.09.36c-.1.35-.19.71-.27,1.06s-.18.85-.25,1.28-.12.77-.17,1.15-.05.84-.07,1.25,0,.61,0,.92a18.92,18.92,0,0,0,1.48,7.1c.08.17.14.35.21.52h0c.08.19.18.37.27.56.19.39.39.79.62,1.18l.2.37.1.14a21.87,21.87,0,0,0,1.49,2.16l.11.13c.51.65,1.06,1.28,1.64,1.89l.12.12q.78.8,1.65,1.56l.24.21c.38.32.77.62,1.17.93s.56.44.85.65l.24.16a36.2,36.2,0,0,0,6.38,3.52c.92.39,1.87.75,2.84,1.09a51.2,51.2,0,0,0,7.55,1.95l.5.08c.51.09,1,.16,1.54.23s1.17.15,1.75.21l.58.06c.77.07,1.53.13,2.3.17.45,0,.89.05,1.34.06l1,0c.82,0,1.65,0,2.46,0h0a57.67,57.67,0,0,0,5.88-.52l.18,0a49.61,49.61,0,0,0,5.13-1l.58-.15.5-.12c.54-.14,2.41-.7,4.32-1.45l.14-.05.24-.09a37.63,37.63,0,0,0,4.51-2.15,31.08,31.08,0,0,0,7.68-6.05c.09-.09.16-.19.24-.28a22.4,22.4,0,0,0,1.45-1.87c.06-.09.14-.17.2-.26l.08-.12a24.32,24.32,0,0,0,1.41-2.44c.06-.12.11-.25.17-.37a19.41,19.41,0,0,0,1-2.38l0-.09a19.9,19.9,0,0,0,.9-5.67s0-.05,0-.08c0-.18,0-.42,0-.63s0-.53,0-.83-.05-.5-.08-.77c-.05-.47-.13-1-.23-1.48,0-.14-.05-.28-.08-.42a21.58,21.58,0,0,0-.68-2.36v0a22.73,22.73,0,0,0-1.22-2.74c-.24-.46-.52-.91-.81-1.36a21.23,21.23,0,0,0-2-2.71c-.33-.38-.66-.76-1-1.13l-.2-.19c-.1-.11-.22-.2-.33-.31C196.33,177.37,196.22,178.44,196.22,179.54Z"/><path class="cls-69" d="M136.93,181l0-.21a11.71,11.71,0,0,1-.16-1.31,10.36,10.36,0,0,0,.08,1.25C136.89,180.8,136.92,180.89,136.93,181Z"/><path class="cls-69" d="M133.69,159.76c-.38-.23-.7-.48-1.06-.71v0C133,159.3,133.31,159.54,133.69,159.76Z"/><path class="cls-69" d="M196.25,178.45c0-.77.09-1.7.19-2.77a2.35,2.35,0,0,1,0-.26C196.35,176.38,196.29,177.4,196.25,178.45Z"/><path class="cls-69" d="M136.61,175.52c.09,1.3.2,2.61.19,3.94C136.79,178.57,136.76,177.19,136.61,175.52Z"/><path class="cls-69" d="M196.76,173.17c0,.32-.1.64-.15,1Z"/><path class="cls-69" d="M196.44,175.68c0-.31.06-.63.1-1l-.09.71A2.35,2.35,0,0,0,196.44,175.68Z"/><path class="cls-69" d="M198.37,166.81q-.24.66-.48,1.47C198,167.79,198.19,167.3,198.37,166.81Z"/><path class="cls-69" d="M197.05,171.57c0,.2-.08.4-.12.62Z"/><path class="cls-69" d="M198.42,166.66a36.86,36.86,0,0,1,1.89-4.35,35.28,35.28,0,0,0-1.85,4.23Z"/><path class="cls-69" d="M201.55,158.6l.63-.44Z"/><path class="cls-69" d="M197.39,170.09l-.08.29C197.34,170.28,197.36,170.18,197.39,170.09Z"/><path class="cls-69" d="M196.25,178.45c0,.39,0,.77,0,1.17,0-1.09.11-2.16.18-3.25v0c0-.22,0-.45,0-.67C196.34,176.75,196.28,177.68,196.25,178.45Z"/><path class="cls-69" d="M196.15,180.72a.28.28,0,0,0,0-.09h0c0,.14,0,.29,0,.43a9.72,9.72,0,0,1,.05-1.43,10.63,10.63,0,0,1-.08,1.25C196.14,180.82,196.15,180.77,196.15,180.72Z"/><path class="cls-69" d="M196.21,182.71c0-.55,0-1.1,0-1.65C196.18,181.6,196.21,182.15,196.21,182.71Z"/><path class="cls-69" d="M136.86,180.46h0v.08s0,.11,0,.16a10.36,10.36,0,0,1-.08-1.25h0a8.52,8.52,0,0,1,0,1.43c0-.14,0-.29,0-.43Z"/><path class="cls-69" d="M135.89,170.77c-.22-1-.51-2.08-.85-3.16C135.35,168.61,135.65,169.65,135.89,170.77Z"/><path class="cls-69" d="M136.52,174.62c-.13-1.14-.32-2.38-.6-3.7C136.17,172.09,136.37,173.33,136.52,174.62Z"/><path class="cls-69" d="M130.85,158.83a18.12,18.12,0,0,0-1.16-1.51C130.06,157.76,130.45,158.26,130.85,158.83Z"/><path class="cls-69" d="M132,160.71c-.35-.6-.69-1.15-1-1.63C131.36,159.57,131.7,160.14,132,160.71Z"/><path class="cls-69" d="M133.06,162.66c-.13-.28-.26-.55-.4-.81C132.8,162.11,132.93,162.39,133.06,162.66Z"/><path class="cls-69" d="M134.24,165.38c.18.46.37.89.53,1.38,0-.08-.05-.16-.08-.25C134.55,166.11,134.39,165.76,134.24,165.38Z"/><path class="cls-69" d="M128.66,156.22l-.06-.05a11.54,11.54,0,0,1,1,1c-.19-.23-.36-.42-.52-.58S128.79,156.33,128.66,156.22Z"/><path class="cls-69" d="M132.63,159.05c-.69-.44-1.39-.88-2-1.34.64.47,1.33.91,2,1.36Z"/><path class="cls-69" d="M136.8,179.46c0-1.33-.1-2.64-.19-3.94l0-.23c0,.29,0,.61,0,.91C136.71,177.27,136.8,178.33,136.8,179.46Z"/><path class="cls-69" d="M106.34,101.06a55.52,55.52,0,0,0-.47,6.24c.06-2.1.24-4.31.51-6.45C106.37,100.92,106.35,101,106.34,101.06Z"/><path class="cls-69" d="M110.09,86.48l.51-1.27C110.42,85.66,110.25,86.07,110.09,86.48Z"/><path class="cls-69" d="M115.93,75.2c-.39.62-.81,1.31-1.24,2,.89-1.42,1.88-3,2.89-4.38C116.94,73.69,116.37,74.51,115.93,75.2Z"/><path class="cls-69" d="M108.28,91.7c0,.17-.08.36-.13.53.3-1.06.63-2.17,1-3.21C108.73,90.17,108.44,91.12,108.28,91.7Z"/><path class="cls-69" d="M109.2,88.8c.11-.32.23-.61.34-.92Z"/><path class="cls-69" d="M140.8,53.73c-.89.4-1.83.88-2.74,1.37,1.69-.89,3.36-1.65,4.56-2.19C141.92,53.22,141.28,53.5,140.8,53.73Z"/><path class="cls-69" d="M154.49,49.18c.5-.1,1-.21,1.52-.3C155.48,49,155,49.08,154.49,49.18Z"/><path class="cls-69" d="M171.56,48.13c.92.07,1.79.17,2.63.27C173.38,48.3,172.51,48.21,171.56,48.13Z"/><path class="cls-69" d="M117.72,72.64c.26-.35.5-.66.75-1Z"/><path class="cls-69" d="M167.68,48c1.27,0,2.49.07,3.65.16C170.21,48,169,48,167.68,48Z"/><path class="cls-69" d="M151.77,49.8l1.36-.33Z"/><path class="cls-69" d="M149.57,50.4l.8-.23Z"/><path class="cls-69" d="M159.14,48.4h0c1.39-.17,2.74-.29,4.07-.36C161.89,48.12,160.55,48.22,159.14,48.4Z"/><path class="cls-69" d="M176.49,48.73l.53.08Z"/><path class="cls-69" d="M106.24,115.57c-.13-1.26-.22-2.39-.27-3.2C106,113.49,106.11,114.5,106.24,115.57Z"/><path class="cls-69" d="M133.59,57.74c-1.78,1.17-2.77,1.86-3.79,2.64,1.44-1.08,3.37-2.41,6-4C134.86,56.92,134.1,57.4,133.59,57.74Z"/><path class="cls-69" d="M111.8,82.5c0,.09-.07.17-.12.26.06-.12.12-.25.17-.37Z"/><path class="cls-69" d="M113.93,139l-.09-.16Z"/><path class="cls-69" d="M224.53,127.7c-.1.31-.19.65-.29.94C224.34,128.34,224.43,128,224.53,127.7Z"/><path class="cls-69" d="M217.36,142.51c-.21.3-.41.61-.62.92Z"/><path class="cls-69" d="M203.87,60.6l.55.43Z"/><path class="cls-69" d="M222.66,132.75c0,.09-.08.19-.12.27C222.58,132.94,222.62,132.84,222.66,132.75Z"/><path class="cls-69" d="M221,136.33c-.26.51-.62,1.17-1,1.9C220.29,137.61,220.63,137,221,136.33Z"/><path class="cls-69" d="M219.51,139c-.42.74-.91,1.55-1.45,2.42C218.54,140.67,219,139.87,219.51,139Z"/><path class="cls-69" d="M217.14,74.68c.28.4.59.87.89,1.35C217.78,75.63,217.48,75.18,217.14,74.68Z"/><path class="cls-69" d="M208.79,64.81l0,0,0,0Z"/><path class="cls-69" d="M210.26,66.26l.53.54Z"/><path class="cls-69" d="M164,48c1.18,0,2.33-.08,3.45-.06C166.31,47.93,165.15,48,164,48Z"/><path class="cls-69" d="M211.53,67.61a69.3,69.3,0,0,1,5.42,6.8A64.11,64.11,0,0,0,211.53,67.61Z"/><path class="cls-69" d="M198.45,56.87c-2-1.25-3.35-1.93-3.74-2.12.95.5,1.79,1,2.56,1.42C197.68,56.39,198.06,56.63,198.45,56.87Z"/><path class="cls-69" d="M117.42,144.45l.32.42c-.26-.35-.49-.68-.73-1Z"/><path class="cls-69" d="M115.62,141.8l-.24-.37Z"/><path class="cls-69" d="M119.77,147.48c-.39-.47-.79-1-1.18-1.5C119,146.5,119.37,147,119.77,147.48Z"/><path class="cls-69" d="M211.69,149.72l-.24.27A3.27,3.27,0,0,0,211.69,149.72Z"/><path class="cls-69" d="M181,49.61l.63.16Z"/><path class="cls-69" d="M205.25,155.82a59.27,59.27,0,0,0,4.87-4.43A62.42,62.42,0,0,1,205.25,155.82Z"/><path class="cls-69" d="M121.58,149.57c-.47-.51-1-1.07-1.43-1.64C120.63,148.49,121.1,149.05,121.58,149.57Z"/><path class="cls-69" d="M106.81,119.54a60.9,60.9,0,0,0,2,7.93c.17.52.41,1.2.68,2a59.93,59.93,0,0,1-2.59-9.47C106.85,119.82,106.83,119.68,106.81,119.54Z"/><path class="cls-69" d="M126.82,62.84l-.78.66a57.67,57.67,0,0,0-7,7.44A58.26,58.26,0,0,1,126.82,62.84Z"/><path class="cls-69" d="M178.36,49.05h0l1.87.39C179.62,49.3,179,49.16,178.36,49.05Z"/><path class="cls-69" d="M122.06,150.09c.79.84,1.55,1.61,2.29,2.32C123.61,151.71,122.85,150.93,122.06,150.09Z"/><path class="cls-69" d="M187.67,51.65c-.63-.22-1.59-.56-2.75-.92,2.53.82,4.57,1.6,6.27,2.34A32.41,32.41,0,0,0,187.67,51.65Z"/><path class="cls-69" d="M130.38,157.55a70.26,70.26,0,0,1-5.44-4.56c1.41,1.32,2.65,2.38,3.66,3.18l.06.05C129.36,156.78,130,157.25,130.38,157.55Z"/><path class="cls-69" d="M202.77,157.76c-.19.14-.4.27-.59.4l-.63.44c-.92.62-1.88,1.23-2.92,1.82-18.19,10.2-47.26,9.91-64.94-.66-.38-.22-.7-.46-1.06-.69-.69-.45-1.38-.89-2-1.36-.07-.05-.16-.1-.23-.16-.41-.3-1-.77-1.72-1.33.13.11.24.24.37.36s.33.35.52.58l.14.16a18.12,18.12,0,0,1,1.16,1.51l.18.25c.32.48.66,1,1,1.63.21.36.41.73.62,1.14s.27.53.4.81c.4.82.8,1.73,1.18,2.72.15.38.31.73.45,1.13,0,.09.05.17.08.25.1.29.18.57.27.85.34,1.08.63,2.14.85,3.16l0,.15c.28,1.32.47,2.56.6,3.7l.06.67,0,.23c.15,1.67.18,3,.19,3.94h0c0,.44,0,2.53,0,3.09,0,.12,0,.25,0,.37s0,.22,0,.34a2.83,2.83,0,0,0,0,.29c0,.08,0,.17,0,.25a1.49,1.49,0,0,1,0,.21c0,.05,0,.1,0,.15s0,.08,0,.12v.06h0a0,0,0,0,1,0,0,11.34,11.34,0,0,0,2,5.5,19.7,19.7,0,0,0,6.37,5.74h0a35.21,35.21,0,0,0,9.71,3.87,48.57,48.57,0,0,0,11.12,1.37,49.34,49.34,0,0,0,11.18-1.14,38.17,38.17,0,0,0,7.61-2.52c.79-.36,1.55-.74,2.28-1.15a20.57,20.57,0,0,0,6.65-5.61,11.59,11.59,0,0,0,2.3-5.89v0h0v-.07a.41.41,0,0,1,0-.11c0-.05,0-.1,0-.16a1.36,1.36,0,0,0,0-.2,2.29,2.29,0,0,0,0-.25c0-.1,0-.2,0-.3s0-.22,0-.33,0-.25,0-.38c0-.56,0-2.64,0-3.09h0c0-.4,0-.78,0-1.17,0-1,.1-2.07.2-3l.09-.71c0-.18.05-.38.07-.56,0-.34.1-.66.15-1s.11-.67.17-1,.08-.42.12-.62c.09-.41.17-.81.26-1.19l.08-.29c.16-.65.33-1.25.5-1.81s.32-1,.48-1.47a.88.88,0,0,1,0-.15l0-.12a35.28,35.28,0,0,1,1.85-4.23,23.73,23.73,0,0,1,4-5.67c.1-.08.18-.18.28-.27C204,156.83,203.4,157.29,202.77,157.76Z"/><path class="cls-70" d="M202.77,157.76c-.19.14-.4.27-.59.4l-.63.44c-.92.62-1.88,1.23-2.92,1.82-18.19,10.2-47.26,9.91-64.94-.66-.38-.22-.7-.46-1.06-.69-.69-.45-1.38-.89-2-1.36-.07-.05-.16-.1-.23-.16-.41-.3-1-.77-1.72-1.33.13.11.24.24.37.36s.33.35.52.58l.14.16a18.12,18.12,0,0,1,1.16,1.51l.18.25c.32.48.66,1,1,1.63.21.36.41.73.62,1.14s.27.53.4.81c.4.82.8,1.73,1.18,2.72.15.38.31.73.45,1.13,0,.09.05.17.08.25.1.29.18.57.27.85.34,1.08.63,2.14.85,3.16l0,.15c.28,1.32.47,2.56.6,3.7l.06.67,0,.23c.15,1.67.18,3,.19,3.94h0c0,.44,0,2.53,0,3.09,0,.12,0,.25,0,.37s0,.22,0,.34a2.83,2.83,0,0,0,0,.29c0,.08,0,.17,0,.25a1.49,1.49,0,0,1,0,.21c0,.05,0,.1,0,.15s0,.08,0,.12v.06h0a0,0,0,0,1,0,0,11.34,11.34,0,0,0,2,5.5,19.7,19.7,0,0,0,6.37,5.74h0a35.21,35.21,0,0,0,9.71,3.87,48.57,48.57,0,0,0,11.12,1.37,49.34,49.34,0,0,0,11.18-1.14,38.17,38.17,0,0,0,7.61-2.52c.79-.36,1.55-.74,2.28-1.15a20.57,20.57,0,0,0,6.65-5.61,11.59,11.59,0,0,0,2.3-5.89v0h0v-.07a.41.41,0,0,1,0-.11c0-.05,0-.1,0-.16a1.36,1.36,0,0,0,0-.2,2.29,2.29,0,0,0,0-.25c0-.1,0-.2,0-.3s0-.22,0-.33,0-.25,0-.38c0-.56,0-2.64,0-3.09h0c0-.4,0-.78,0-1.17,0-1,.1-2.07.2-3l.09-.71c0-.18.05-.38.07-.56,0-.34.1-.66.15-1s.11-.67.17-1,.08-.42.12-.62c.09-.41.17-.81.26-1.19l.08-.29c.16-.65.33-1.25.5-1.81s.32-1,.48-1.47a.88.88,0,0,1,0-.15l0-.12a35.28,35.28,0,0,1,1.85-4.23,23.73,23.73,0,0,1,4-5.67c.1-.08.18-.18.28-.27C204,156.83,203.4,157.29,202.77,157.76Z"/><path class="cls-69" d="M227.57,109c0-1.2,0-2.24-.07-3a60.81,60.81,0,0,0-121.61.82v.15c0,.14,0,.29,0,.43-.05,1.5,0,2.94,0,4.26,0,.2,0,.49,0,.81,0,.81.14,1.94.27,3.2s.32,2.66.57,4c0,.14,0,.28.07.42a59.93,59.93,0,0,0,2.59,9.47c.09.26.17.5.28.78a57.25,57.25,0,0,0,4.09,8.67l.09.16c.45.77.93,1.57,1.45,2.39l.24.37c.43.67.9,1.35,1.39,2,.24.34.47.67.73,1l.28.39c.19.26.38.48.57.72.39.51.79,1,1.18,1.5l.38.45c.48.57,1,1.13,1.43,1.64l.48.52c.79.84,1.55,1.62,2.29,2.32.19.2.4.4.59.58a70.26,70.26,0,0,0,5.44,4.56c.07.06.16.11.23.16.63.46,1.33.9,2,1.34.36.23.68.48,1.06.71,17.68,10.57,46.75,10.86,64.94.66,1-.59,2-1.2,2.92-1.82l.63-.44c.19-.13.4-.26.59-.4.63-.47,1.22-.93,1.79-1.39l.69-.55a62.42,62.42,0,0,0,4.87-4.43c.48-.48.92-.95,1.33-1.4l.24-.27c.89-1,1.64-1.85,2.23-2.56,1-1.23,2-2.5,2.82-3.73.21-.31.41-.62.62-.92l.7-1.08c.54-.87,1-1.68,1.45-2.42.16-.27.3-.52.44-.78.4-.73.76-1.39,1-1.9l.38-.75c.33-.64.75-1.54,1.19-2.56,0-.08.08-.18.12-.27.5-1.17,1-2.52,1.58-4.11.1-.29.19-.63.29-.94.33-1,.65-2.08.95-3.23.16-.58.31-1.16.46-1.78.32-1.4.62-2.86.87-4.42.08-.48.12-1,.19-1.5.17-1.3.31-2.65.41-4,0-.28.06-.54.08-.82,0-1.05.07-2,.08-2.93v0Z"/><path class="cls-71" d="M227.57,109c0-1.2,0-2.24-.07-3a60.81,60.81,0,0,0-121.61.82v.15c0,.14,0,.29,0,.43-.05,1.5,0,2.94,0,4.26,0,.2,0,.49,0,.81,0,.81.14,1.94.27,3.2s.32,2.66.57,4c0,.14,0,.28.07.42a59.93,59.93,0,0,0,2.59,9.47c.09.26.17.5.28.78a57.25,57.25,0,0,0,4.09,8.67l.09.16c.45.77.93,1.57,1.45,2.39l.24.37c.43.67.9,1.35,1.39,2,.24.34.47.67.73,1l.28.39c.19.26.38.48.57.72.39.51.79,1,1.18,1.5l.38.45c.48.57,1,1.13,1.43,1.64l.48.52c.79.84,1.55,1.62,2.29,2.32.19.2.4.4.59.58a70.26,70.26,0,0,0,5.44,4.56c.07.06.16.11.23.16.63.46,1.33.9,2,1.34.36.23.68.48,1.06.71,17.68,10.57,46.75,10.86,64.94.66,1-.59,2-1.2,2.92-1.82l.63-.44c.19-.13.4-.26.59-.4.63-.47,1.22-.93,1.79-1.39l.69-.55a62.42,62.42,0,0,0,4.87-4.43c.48-.48.92-.95,1.33-1.4l.24-.27c.89-1,1.64-1.85,2.23-2.56,1-1.23,2-2.5,2.82-3.73.21-.31.41-.62.62-.92l.7-1.08c.54-.87,1-1.68,1.45-2.42.16-.27.3-.52.44-.78.4-.73.76-1.39,1-1.9l.38-.75c.33-.64.75-1.54,1.19-2.56,0-.08.08-.18.12-.27.5-1.17,1-2.52,1.58-4.11.1-.29.19-.63.29-.94.33-1,.65-2.08.95-3.23.16-.58.31-1.16.46-1.78.32-1.4.62-2.86.87-4.42.08-.48.12-1,.19-1.5.17-1.3.31-2.65.41-4,0-.28.06-.54.08-.82,0-1.05.07-2,.08-2.93v0Z"/><circle class="cls-72" cx="186.26" cy="94.6" r="20.12"/><g class="cls-73"><path class="cls-74" d="M197.57,229.57c.72,1.51-1.93,4.27-5.91,6.16s-7.78,2.18-8.5.67,1.93-4.27,5.91-6.15S196.86,228.06,197.57,229.57Z"/></g><g class="cls-75"><path class="cls-76" d="M197.57,212.62c.72,1.51-1.93,4.27-5.91,6.15s-7.78,2.19-8.5.68,1.93-4.27,5.91-6.15S196.86,211.11,197.57,212.62Z"/></g><g class="cls-77"><path class="cls-78" d="M197.57,196.25c.72,1.51-1.93,4.27-5.91,6.15s-7.78,2.19-8.5.68,1.93-4.27,5.91-6.16S196.86,194.74,197.57,196.25Z"/></g><g class="cls-79"><path class="cls-80" d="M274.67,109.65A109.63,109.63,0,1,1,165,0,109.63,109.63,0,0,1,274.67,109.65Z"/></g></g></g></g></svg>