<svg xmlns="http://www.w3.org/2000/svg" xmlns:xlink="http://www.w3.org/1999/xlink" viewBox="0 0 341.48 375.77"><defs><style>.cls-1{isolation:isolate;}.cls-2,.cls-33,.cls-36,.cls-53,.cls-55,.cls-57,.cls-59,.cls-61,.cls-64,.cls-74,.cls-85,.cls-90{mix-blend-mode:multiply;}.cls-3,.cls-43,.cls-48,.cls-49,.cls-69,.cls-70{fill:#fff;}.cls-3{opacity:0;}.cls-4{fill:#f9f9f9;opacity:0.05;}.cls-5{fill:#f3f3f3;opacity:0.1;}.cls-6{fill:#ededed;opacity:0.14;}.cls-60,.cls-61,.cls-7{fill:#e7e7e7;}.cls-7{opacity:0.19;}.cls-8{fill:#e1e1e1;opacity:0.24;}.cls-9{fill:#dadada;opacity:0.29;}.cls-10{fill:#d4d4d4;opacity:0.33;}.cls-11{fill:#cecece;opacity:0.38;}.cls-12{fill:#c8c8c8;opacity:0.43;}.cls-13{fill:#c2c2c2;opacity:0.48;}.cls-14{fill:#bcbcbc;opacity:0.52;}.cls-15,.cls-28{fill:#b6b6b6;}.cls-15{opacity:0.57;}.cls-16{fill:#b0b0b0;opacity:0.62;}.cls-17{fill:#aaa;opacity:0.67;}.cls-18{fill:#a4a4a4;opacity:0.71;}.cls-19{fill:#9d9d9d;opacity:0.76;}.cls-20{fill:#979797;opacity:0.81;}.cls-21{fill:#919191;opacity:0.86;}.cls-22{fill:#8b8b8b;opacity:0.9;}.cls-23{fill:#858585;opacity:0.95;}.cls-24{fill:#7f7f7f;}.cls-25{fill:#ed7000;}.cls-26{fill:#898989;}.cls-27{fill:#5b5b5b;}.cls-29,.cls-30{opacity:0.42;}.cls-29,.cls-30,.cls-31,.cls-32{mix-blend-mode:overlay;}.cls-29{fill:url(#linear-gradient);}.cls-30{fill:url(#linear-gradient-2);}.cls-31,.cls-32,.cls-64,.cls-94{opacity:0.48;}.cls-31{fill:url(#linear-gradient-3);}.cls-32{fill:url(#linear-gradient-4);}.cls-33,.cls-52,.cls-57{fill:#e84c48;}.cls-33{opacity:0.18;}.cls-34{fill:#708b8e;}.cls-35,.cls-36{fill:#a2c1c8;}.cls-36,.cls-50{opacity:0.29;}.cls-37{fill:#252538;}.cls-38{fill:#6d7f88;}.cls-39{fill:#34344e;}.cls-40,.cls-85{fill:#cadde5;}.cls-41{fill:#dceaea;}.cls-42{fill:#66c1ff;}.cls-44{fill:#3e98d4;}.cls-45{fill:#c6e8f7;}.cls-46{fill:#b5d7ea;}.cls-47{fill:#8da6aa;}.cls-48{opacity:0.58;}.cls-49{opacity:0.33;}.cls-50{fill:#e9f4f4;}.cls-51,.cls-53{fill:#ffce43;}.cls-53,.cls-59,.cls-91{opacity:0.37;}.cls-54,.cls-55{fill:#664d42;}.cls-55{opacity:0.17;}.cls-56{fill:#5db770;}.cls-57{opacity:0.28;}.cls-58,.cls-59{fill:#ffc835;}.cls-62{fill:#f4f4f4;}.cls-63,.cls-64{fill:#ff9fc2;}.cls-65{fill:#f9f5cd;}.cls-66{fill:#3a3a3a;}.cls-67,.cls-74{fill:#f6f7e8;}.cls-68{fill:#76ceff;}.cls-69{opacity:0.21;}.cls-70{opacity:0.24;}.cls-71{fill:#3d8e61;}.cls-72{fill:#43af76;}.cls-73{fill:#ffeb31;}.cls-74{opacity:0.63;}.cls-75{fill:#4c9cd3;}.cls-76{fill:#60b2f4;}.cls-77{fill:#efb729;}.cls-78{fill:#f7d23e;}.cls-79{fill:#46a555;}.cls-80{fill:#ef8bd0;}.cls-81{fill:#f6cee8;}.cls-82{fill:#8fc945;}.cls-83{fill:#cdea55;}.cls-84{fill:#34425f;}.cls-85{opacity:0.39;}.cls-86{fill:#dfeef4;opacity:0.56;}.cls-87{fill:#6c96c8;}.cls-88{fill:#7cafdc;}.cls-89{fill:#ffd81a;}.cls-90{fill:#ffe739;opacity:0.47;}.cls-91{fill:#fffa4d;}.cls-92{fill:#9ac2e5;}.cls-93,.cls-94,.cls-95{fill:#b0d3ed;}.cls-93{opacity:0.72;}.cls-95{opacity:0.26;}</style><linearGradient id="linear-gradient" x1="4.51" y1="254.59" x2="341.48" y2="254.59" gradientUnits="userSpaceOnUse"><stop offset="0" stop-color="#4c4c4c"/><stop offset="0.7" stop-color="#fff"/></linearGradient><linearGradient id="linear-gradient-2" x1="16.73" y1="247.69" x2="329.29" y2="247.69" xlink:href="#linear-gradient"/><linearGradient id="linear-gradient-3" x1="16.65" y1="296.74" x2="329.29" y2="296.74" gradientUnits="userSpaceOnUse"><stop offset="0" stop-color="#4c4c4c"/><stop offset="0" stop-color="#4d4d4d"/><stop offset="0.1" stop-color="#828282"/><stop offset="0.2" stop-color="#afafaf"/><stop offset="0.29" stop-color="#d2d2d2"/><stop offset="0.37" stop-color="#ebebeb"/><stop offset="0.45" stop-color="#fafafa"/><stop offset="0.52" stop-color="#fff"/><stop offset="0.57" stop-color="#f7f7f7"/><stop offset="0.65" stop-color="#e1e1e1"/><stop offset="0.75" stop-color="#bebebe"/><stop offset="0.87" stop-color="#8c8c8c"/><stop offset="1" stop-color="#4e4e4e"/><stop offset="1" stop-color="#4c4c4c"/></linearGradient><linearGradient id="linear-gradient-4" x1="4.42" y1="308.68" x2="341.48" y2="308.68" xlink:href="#linear-gradient-3"/></defs><g class="cls-1"><g id="Layer_2" data-name="Layer 2"><g id="Layer_1-2" data-name="Layer 1"><g class="cls-2"><path class="cls-3" d="M341.4,268.94v-1.15c0,.38,0,.75,0,1.13.58-25.46-15.89-51.05-49.54-70.49-33-19-76.05-28.54-119.09-28.54S86.7,179.4,54,198.42,5.08,242.21,5.11,267.06c0-.08,0-.17,0-.24V268c0-.3,0-.6,0-.9v-.24l0,11C5,303,21.52,328.09,54.68,347.24c33,19,76.06,28.53,119.1,28.53s86-9.51,118.77-28.53c32.52-18.9,48.8-43.63,48.87-68.4l0-11C341.45,268.18,341.42,268.56,341.4,268.94Z"/><path class="cls-4" d="M341.4,268.34v-1.16c0,.38,0,.76,0,1.13.58-25.46-15.89-51.05-49.54-70.48-33-19-76.05-28.54-119.09-28.54S86.7,178.8,54,197.82,5.08,241.6,5.11,266.45c0-.08,0-.16,0-.24v1.14c0-.3,0-.6,0-.9v-.24l0,11.05c-.07,25.09,16.5,50.22,49.66,69.37,33,19,76.06,28.54,119.1,28.53s86-9.5,118.77-28.53c32.52-18.9,48.8-43.63,48.87-68.4l0-11.05C341.45,267.57,341.42,268,341.4,268.34Z"/><path class="cls-5" d="M341.4,267.73v-1.15c0,.38,0,.75,0,1.13.58-25.46-15.89-51-49.54-70.49-33-19-76.05-28.54-119.09-28.54S86.7,178.19,54,197.21,5.08,241,5.11,265.85c0-.08,0-.17,0-.24v1.14c0-.3,0-.6,0-.9v-.24l0,11C5,301.74,21.52,326.88,54.68,346c33,19,76.06,28.53,119.1,28.53s86-9.51,118.77-28.53c32.52-18.9,48.8-43.63,48.87-68.4l0-11.05C341.45,267,341.42,267.35,341.4,267.73Z"/><path class="cls-6" d="M341.4,267.13V266c0,.38,0,.76,0,1.13.58-25.46-15.89-51.05-49.54-70.48-33-19-76.05-28.54-119.09-28.54S86.7,177.59,54,196.61,5.08,240.39,5.11,265.24c0-.08,0-.16,0-.24v1.14c0-.3,0-.6,0-.9V265l0,11.05c-.07,25.09,16.5,50.22,49.66,69.37,33,19,76.06,28.54,119.1,28.53s86-9.51,118.77-28.53c32.52-18.9,48.8-43.63,48.87-68.4l0-11C341.45,266.36,341.42,266.75,341.4,267.13Z"/><path class="cls-7" d="M341.4,266.52v-1.15c0,.38,0,.75,0,1.13.58-25.46-15.89-51.05-49.54-70.49-33-19-76.05-28.54-119.09-28.54S86.7,177,54,196,5.08,239.79,5.11,264.64c0-.08,0-.17,0-.24v1.14c0-.3,0-.6,0-.9v-.24l0,11c-.07,25.09,16.5,50.22,49.66,69.38,33,19,76.06,28.53,119.1,28.53s86-9.51,118.77-28.53c32.52-18.91,48.8-43.63,48.87-68.4l0-11.05C341.45,265.76,341.42,266.14,341.4,266.52Z"/><path class="cls-8" d="M341.4,265.92v-1.16c0,.38,0,.76,0,1.13.58-25.46-15.89-51-49.54-70.48-33-19-76.05-28.54-119.09-28.54S86.7,176.38,54,195.4,5.08,239.18,5.11,264c0-.08,0-.16,0-.24v1.14c0-.3,0-.6,0-.9v-.24l0,11c-.07,25.09,16.5,50.22,49.66,69.37,33,19,76.06,28.54,119.1,28.53s86-9.51,118.77-28.53c32.52-18.9,48.8-43.63,48.87-68.4l0-11.05C341.45,265.15,341.42,265.53,341.4,265.92Z"/><path class="cls-9" d="M341.4,265.31v-1.15c0,.38,0,.75,0,1.13.58-25.46-15.89-51.06-49.54-70.49-33-19-76.05-28.54-119.09-28.54S86.7,175.77,54,194.79,5.08,238.58,5.11,263.43c0-.08,0-.17,0-.24v1.14c0-.3,0-.6,0-.9v-.24l0,11c-.07,25.09,16.5,50.22,49.66,69.38,33,19,76.06,28.53,119.1,28.53s86-9.51,118.77-28.53c32.52-18.91,48.8-43.63,48.87-68.4l0-11C341.45,264.54,341.42,264.93,341.4,265.31Z"/><path class="cls-10" d="M341.4,264.71v-1.16c0,.38,0,.76,0,1.13.58-25.46-15.89-51.05-49.54-70.48-33-19-76.05-28.54-119.09-28.54S86.7,175.17,54,194.19,5.08,238,5.11,262.82c0-.08,0-.16,0-.24v1.14c0-.3,0-.6,0-.9v-.24l0,11.05C5,298.72,21.52,323.85,54.68,343c33,19,76.06,28.53,119.1,28.53s86-9.51,118.77-28.53c32.52-18.9,48.8-43.63,48.87-68.4l0-11.05C341.45,263.94,341.42,264.32,341.4,264.71Z"/><path class="cls-11" d="M341.4,264.1V263c0,.38,0,.75,0,1.13.58-25.46-15.89-51.06-49.54-70.49-33-19-76.05-28.54-119.09-28.54S86.7,174.56,54,193.58,5.08,237.37,5.11,262.22c0-.08,0-.17,0-.24v1.14c0-.3,0-.6,0-.9V262l0,11C5,298.11,21.52,323.24,54.68,342.4c33,19,76.06,28.53,119.1,28.52s86-9.5,118.77-28.52c32.52-18.91,48.8-43.63,48.87-68.4l0-11.05C341.45,263.33,341.42,263.72,341.4,264.1Z"/><path class="cls-12" d="M341.4,263.5v-1.16c0,.38,0,.76,0,1.13.58-25.46-15.89-51.05-49.54-70.48-33-19-76.05-28.54-119.09-28.54S86.7,174,54,193,5.08,236.76,5.11,261.61c0-.08,0-.16,0-.24v1.14c0-.3,0-.6,0-.9v-.24l0,11.05c-.07,25.09,16.5,50.22,49.66,69.37,33,19,76.06,28.53,119.1,28.53s86-9.51,118.77-28.53c32.52-18.9,48.8-43.63,48.87-68.4l0-11.05C341.45,262.73,341.42,263.11,341.4,263.5Z"/><path class="cls-13" d="M341.4,262.89v-1.15c0,.38,0,.75,0,1.13.58-25.46-15.89-51.06-49.54-70.49-33-19-76.05-28.54-119.09-28.54S86.7,173.35,54,192.37,5.08,236.16,5.11,261c0-.08,0-.17,0-.24v1.14c0-.3,0-.6,0-.9v-.24l0,11C5,296.9,21.52,322,54.68,341.19c33,19,76.06,28.53,119.1,28.52s86-9.5,118.77-28.52c32.52-18.91,48.8-43.64,48.87-68.4l0-11.05C341.45,262.12,341.42,262.51,341.4,262.89Z"/><path class="cls-14" d="M341.4,262.29v-1.16c0,.38,0,.76,0,1.13.58-25.46-15.89-51-49.54-70.48-33-19-76.05-28.54-119.09-28.54S86.7,172.75,54,191.77,5.08,235.55,5.11,260.4c0-.08,0-.16,0-.24v1.14c0-.3,0-.6,0-.9v-.24l0,11C5,296.3,21.52,321.43,54.68,340.58c33,19,76.06,28.53,119.1,28.53s86-9.51,118.77-28.53c32.52-18.9,48.8-43.63,48.87-68.4l0-11.05C341.45,261.52,341.42,261.9,341.4,262.29Z"/><path class="cls-15" d="M341.4,261.68v-1.15c0,.38,0,.75,0,1.13.58-25.46-15.89-51.06-49.54-70.49-33-19-76.05-28.54-119.09-28.54S86.7,172.14,54,191.16,5.08,235,5.11,259.8c0-.08,0-.17,0-.24v1.14c0-.3,0-.6,0-.9v-.24l0,11C5,295.69,21.52,320.82,54.68,340c33,19,76.06,28.53,119.1,28.52s86-9.5,118.77-28.52c32.52-18.91,48.8-43.64,48.87-68.4l0-11.05C341.45,260.91,341.42,261.3,341.4,261.68Z"/><path class="cls-16" d="M341.4,261.08v-1.16c0,.38,0,.76,0,1.13.58-25.46-15.89-51.05-49.54-70.48-33-19-76.05-28.54-119.09-28.54S86.7,171.54,54,190.56,5.08,234.34,5.11,259.19c0-.08,0-.16,0-.24v1.14c0-.3,0-.6,0-.9V259L5,270c-.07,25.09,16.5,50.22,49.66,69.37,33,19,76.06,28.53,119.1,28.53s86-9.51,118.77-28.53c32.52-18.9,48.8-43.63,48.87-68.4l0-11.05C341.45,260.31,341.42,260.69,341.4,261.08Z"/><path class="cls-17" d="M341.4,260.47v-1.15c0,.38,0,.75,0,1.13.58-25.46-15.89-51.06-49.54-70.49-33-19-76.05-28.54-119.09-28.54S86.7,170.93,54,190,5.08,233.74,5.11,258.59c0-.08,0-.17,0-.24v1.13c0-.29,0-.59,0-.89v-.24l0,11c-.07,25.09,16.5,50.22,49.66,69.37,33,19,76.06,28.54,119.1,28.53s86-9.5,118.77-28.53c32.52-18.9,48.8-43.63,48.87-68.39l0-11.05C341.45,259.7,341.42,260.09,341.4,260.47Z"/><path class="cls-18" d="M341.4,259.87v-1.16c0,.38,0,.76,0,1.13.58-25.46-15.89-51-49.54-70.48-33-19-76.05-28.54-119.09-28.54S86.7,170.33,54,189.35,5.08,233.13,5.11,258c0-.08,0-.16,0-.24v1.14c0-.3,0-.6,0-.9v-.24l0,11.05C5,293.88,21.52,319,54.68,338.16c33,19,76.06,28.53,119.1,28.53s86-9.51,118.77-28.53c32.52-18.9,48.8-43.63,48.87-68.4l0-11.05C341.45,259.1,341.42,259.48,341.4,259.87Z"/><path class="cls-19" d="M341.4,259.26v-1.15c0,.38,0,.75,0,1.13.58-25.46-15.89-51.06-49.54-70.49-33-19-76.05-28.54-119.09-28.54S86.7,169.72,54,188.74,5.08,232.53,5.11,257.38c0-.08,0-.17,0-.24v1.13c0-.29,0-.59,0-.89v-.24l0,11C5,293.27,21.52,318.4,54.68,337.55c33,19,76.06,28.54,119.1,28.53s86-9.5,118.77-28.53c32.52-18.9,48.8-43.63,48.87-68.39l0-11.05C341.45,258.49,341.42,258.88,341.4,259.26Z"/><path class="cls-20" d="M341.4,258.66V257.5c0,.38,0,.76,0,1.13.58-25.46-15.89-51-49.54-70.49-33-19-76.05-28.53-119.09-28.53S86.7,169.12,54,188.14,5.08,231.92,5.11,256.77c0-.08,0-.16,0-.24v1.14c0-.3,0-.6,0-.9v-.24l0,11.05C5,292.67,21.52,317.8,54.68,337c33,19,76.06,28.53,119.1,28.53s86-9.51,118.77-28.53c32.52-18.9,48.8-43.63,48.87-68.4l0-11.05C341.45,257.89,341.42,258.27,341.4,258.66Z"/><path class="cls-21" d="M341.4,258.05V256.9c0,.37,0,.75,0,1.13.58-25.46-15.89-51.06-49.54-70.49-33-19-76.05-28.54-119.09-28.54S86.7,168.51,54,187.53,5.08,231.32,5.11,256.17c0-.08,0-.17,0-.24v1.13c0-.3,0-.6,0-.89v-.24l0,11c-.07,25.09,16.5,50.22,49.66,69.37,33,19,76.06,28.54,119.1,28.53s86-9.5,118.77-28.53c32.52-18.9,48.8-43.63,48.87-68.39l0-11.05C341.45,257.28,341.42,257.67,341.4,258.05Z"/><path class="cls-22" d="M341.4,257.45v-1.16c0,.38,0,.75,0,1.13.58-25.46-15.89-51.05-49.54-70.49-33-19-76.05-28.53-119.09-28.53S86.7,167.91,54,186.92,5.08,230.71,5.11,255.56c0-.08,0-.16,0-.24v1.14c0-.3,0-.6,0-.9v-.24l0,11.05c-.07,25.09,16.5,50.22,49.66,69.37,33,19,76.06,28.53,119.1,28.53s86-9.51,118.77-28.53c32.52-18.9,48.8-43.63,48.87-68.4l0-11C341.45,256.68,341.42,257.06,341.4,257.45Z"/><path class="cls-23" d="M341.4,256.84v-1.15c0,.37,0,.75,0,1.13.58-25.46-15.89-51.06-49.54-70.49-33-19-76.05-28.54-119.09-28.54S86.7,167.3,54,186.32,5.08,230.11,5.11,255c0-.08,0-.17,0-.24v1.13c0-.3,0-.6,0-.89v-.24l0,11C5,290.85,21.52,316,54.68,335.13c33,19,76.06,28.54,119.1,28.53s86-9.5,118.77-28.53c32.52-18.9,48.8-43.63,48.87-68.39l0-11.05C341.45,256.07,341.42,256.46,341.4,256.84Z"/><path class="cls-24" d="M341.4,256.23v-1.15c0,.38,0,.75,0,1.13.58-25.46-15.89-51-49.54-70.49-33-19-76.05-28.54-119.09-28.54S86.7,166.7,54,185.71,5.08,229.5,5.11,254.35c0-.08,0-.16,0-.24v1.14c0-.3,0-.6,0-.9v-.24l0,11c-.07,25.1,16.5,50.23,49.66,69.38,33,19,76.06,28.53,119.1,28.53s86-9.51,118.77-28.53c32.52-18.91,48.8-43.63,48.87-68.4l0-11C341.45,255.47,341.42,255.85,341.4,256.23Z"/></g><path class="cls-25" d="M314,308.34c-.88.77-1.82,1.53-2.73,2.29C312.14,309.87,313.08,309.11,314,308.34Z"/><path class="cls-25" d="M318.36,304.25c-.78.76-1.62,1.51-2.43,2.26C316.74,305.76,317.58,305,318.36,304.25Z"/><path class="cls-25" d="M309.17,312.34c-1,.8-2.09,1.58-3.15,2.37C307.08,313.92,308.16,313.14,309.17,312.34Z"/><path class="cls-25" d="M28,304.11c-.64-.62-1.23-1.27-1.84-1.9C26.77,302.84,27.36,303.49,28,304.11Z"/><path class="cls-25" d="M304,316.22c-1.21.86-2.48,1.69-3.74,2.53C301.52,317.91,302.79,317.08,304,316.22Z"/><path class="cls-25" d="M32.47,308.24c-.7-.61-1.35-1.25-2-1.88C31.12,307,31.77,307.63,32.47,308.24Z"/><path class="cls-25" d="M320.2,302.33c.41-.42.83-.84,1.23-1.27h0C321,301.48,320.61,301.9,320.2,302.33Z"/><path class="cls-25" d="M42.57,316.17c-.74-.52-1.42-1.06-2.13-1.59C41.15,315.11,41.83,315.65,42.57,316.17Z"/><path class="cls-25" d="M298.45,320q-2.88,1.84-5.94,3.63Q295.57,321.83,298.45,320Z"/><path class="cls-25" d="M48.2,320c-.65-.41-1.24-.83-1.87-1.25C47,319.12,47.55,319.54,48.2,320Z"/><path class="cls-25" d="M37.33,312.26c-.74-.58-1.42-1.18-2.14-1.76C35.91,311.08,36.59,311.68,37.33,312.26Z"/><path class="cls-25" d="M16.77,249.69c0,.5,0,1,.06,1.49,0,0,0,0,0-.07C16.81,250.64,16.79,250.16,16.77,249.69Z"/><path class="cls-25" d="M329.11,252.31v0Z"/><path class="cls-26" d="M4.66,259c.07.8.19,1.6.29,2.4s.17,1.53.3,2.28.33,1.61.5,2.42.29,1.5.48,2.26.46,1.6.69,2.4.42,1.5.67,2.24.6,1.6.91,2.4.53,1.48.84,2.21.75,1.61,1.13,2.42.65,1.44,1,2.15.89,1.6,1.33,2.39.77,1.42,1.2,2.13,1,1.58,1.54,2.37.89,1.39,1.38,2.09,1.17,1.56,1.76,2.34,1,1.37,1.54,2,1.32,1.56,2,2.33,1.11,1.33,1.7,2,1.49,1.55,2.24,2.32,1.2,1.28,1.84,1.9,1.62,1.51,2.44,2.25,1.33,1.27,2,1.88c.87.76,1.81,1.5,2.72,2.26.72.58,1.4,1.18,2.14,1.76,1,.79,2.06,1.55,3.11,2.32.71.53,1.39,1.07,2.13,1.59,1.21.86,2.5,1.69,3.76,2.53.63.42,1.22.84,1.87,1.25q2.91,1.86,6,3.66c66,38.11,172.7,38.11,238.3,0q3.06-1.78,5.94-3.63c.62-.4,1.2-.82,1.81-1.23,1.26-.84,2.53-1.67,3.74-2.53.7-.5,1.34-1,2-1.51,1.06-.79,2.14-1.57,3.15-2.37.71-.57,1.37-1.15,2.06-1.71.91-.76,1.85-1.52,2.73-2.29.68-.6,1.31-1.22,2-1.83s1.65-1.5,2.43-2.26,1.22-1.28,1.84-1.92c.41-.43.83-.85,1.23-1.28s.65-.66.95-1c.58-.66,1.12-1.32,1.69-2s1.32-1.52,1.94-2.3,1-1.35,1.52-2,1.19-1.55,1.73-2.32.9-1.39,1.35-2.08,1-1.55,1.52-2.34.79-1.43,1.19-2.14.89-1.56,1.29-2.35.68-1.44,1-2.16.76-1.58,1.09-2.37.56-1.47.83-2.2.63-1.58.89-2.38.43-1.48.65-2.21.48-1.6.68-2.41.31-1.48.47-2.22.36-1.61.49-2.41.19-1.5.28-2.25.22-1.61.28-2.41.07-1.5.1-2.25c1.06-25.86-15.47-51.94-49.65-71.67-66.05-38.13-172.71-38.13-238.31,0-32.69,19-49,43.87-49,68.77,0,.8.06,1.61.09,2.41S4.6,258.27,4.66,259Zm12-11.81c0,.08,0,.15,0,.23,0-23.1,15.08-46.17,45.4-63.79,60.84-35.36,159.81-35.36,221.06,0,31.7,18.3,47,42.49,46.05,66.47,0-.67.09-1.33.09-2l0,8c0,.67-.06,1.34-.09,2s0,1.4-.09,2.11-.17,1.48-.27,2.22-.14,1.4-.26,2.1-.29,1.48-.45,2.23-.26,1.38-.43,2.07-.42,1.48-.63,2.22-.38,1.38-.61,2.06-.54,1.46-.81,2.19-.49,1.38-.78,2.06-.67,1.46-1,2.2-.6,1.34-.94,2-.8,1.47-1.22,2.21-.69,1.31-1.08,1.95-.94,1.46-1.41,2.19-.81,1.28-1.25,1.92-1.07,1.44-1.61,2.16-.91,1.26-1.41,1.87-1.21,1.44-1.82,2.15-1,1.22-1.55,1.82-1.36,1.43-2.05,2.14-1.09,1.17-1.68,1.75-1.52,1.43-2.29,2.14c-.6.55-1.17,1.11-1.79,1.66-.84.73-1.73,1.45-2.61,2.18-.61.51-1.19,1-1.83,1.52-.91.73-1.9,1.43-2.86,2.15-.65.48-1.26,1-1.93,1.45-1.12.8-2.3,1.57-3.48,2.35-.56.38-1.09.76-1.67,1.13-1.78,1.14-3.61,2.27-5.51,3.37-60.84,35.36-159.81,35.36-221,0-1.92-1.1-3.78-2.24-5.58-3.39-.63-.4-1.2-.81-1.82-1.22-1.15-.76-2.31-1.51-3.4-2.29-.69-.48-1.33-1-2-1.49-1-.71-1.94-1.41-2.87-2.14-.67-.52-1.29-1.07-2-1.61-.85-.7-1.73-1.4-2.55-2.11-.64-.57-1.24-1.15-1.86-1.72-.77-.7-1.55-1.4-2.28-2.11s-1.16-1.2-1.74-1.8-1.4-1.4-2-2.11-1.07-1.25-1.61-1.87-1.24-1.41-1.82-2.13-.95-1.27-1.43-1.89-1.12-1.45-1.64-2.18-.85-1.3-1.27-1.95-1-1.45-1.43-2.18-.74-1.32-1.12-2-.84-1.47-1.23-2.21-.62-1.32-.93-2-.73-1.5-1-2.25-.52-1.35-.78-2-.59-1.5-.85-2.25-.41-1.38-.61-2.07-.46-1.49-.65-2.24-.3-1.39-.45-2.09-.33-1.49-.46-2.25-.18-1.4-.27-2.1-.21-1.5-.27-2.24-.07-1.41-.1-2.11-.09-1.5-.09-2.25c0-.08,0-.15,0-.23Z"/><path class="cls-27" d="M16.75,257.73c0,.7,0,1.4.1,2.11s.18,1.49.27,2.24.16,1.4.27,2.1.31,1.5.46,2.25.27,1.4.45,2.09.43,1.49.65,2.24.38,1.38.61,2.07.57,1.5.85,2.25.5,1.35.78,2,.69,1.5,1,2.25.6,1.32.93,2,.82,1.48,1.23,2.21.73,1.33,1.12,2,.95,1.46,1.43,2.18.82,1.3,1.27,1.95,1.09,1.45,1.64,2.18.93,1.26,1.43,1.89,1.21,1.42,1.82,2.13,1,1.25,1.61,1.87,1.35,1.41,2,2.11,1.13,1.21,1.74,1.8,1.51,1.41,2.28,2.11c.62.57,1.22,1.15,1.86,1.72.82.71,1.7,1.41,2.55,2.11.66.54,1.28,1.09,2,1.61.93.73,1.91,1.43,2.87,2.14.67.5,1.31,1,2,1.49,1.09.78,2.25,1.53,3.4,2.29.62.41,1.19.82,1.82,1.22,1.8,1.15,3.66,2.29,5.58,3.39,61.23,35.36,160.2,35.36,221,0,1.9-1.1,3.73-2.23,5.51-3.37.58-.37,1.11-.75,1.67-1.13,1.18-.78,2.36-1.55,3.48-2.35.67-.47,1.28-1,1.93-1.45,1-.72,1.95-1.42,2.86-2.15.64-.5,1.22-1,1.83-1.52.88-.73,1.77-1.45,2.61-2.18.62-.55,1.19-1.11,1.79-1.66.77-.71,1.56-1.42,2.29-2.14s1.12-1.17,1.68-1.75,1.4-1.42,2.05-2.14,1-1.21,1.55-1.82,1.24-1.42,1.82-2.15.94-1.24,1.41-1.87,1.1-1.44,1.61-2.16.83-1.28,1.25-1.92,1-1.46,1.41-2.19.72-1.3,1.08-1.95.85-1.47,1.22-2.21.63-1.33.94-2,.7-1.47,1-2.2.52-1.37.78-2.06.57-1.45.81-2.19.41-1.38.61-2.06.45-1.48.63-2.22.29-1.38.43-2.07.33-1.49.45-2.23.18-1.4.26-2.1.21-1.48.27-2.22.06-1.4.09-2.11.09-1.33.09-2l0-8c0,.67-.06,1.33-.09,2s0,1.4-.09,2.11v.06c-.06.72-.17,1.44-.26,2.16s-.15,1.4-.27,2.09-.29,1.49-.44,2.23-.27,1.39-.44,2.08-.42,1.47-.63,2.21-.38,1.38-.61,2.07-.54,1.46-.81,2.19-.49,1.38-.78,2.05-.67,1.47-1,2.21-.6,1.34-.94,2-.8,1.47-1.21,2.2-.7,1.31-1.09,2-.93,1.44-1.39,2.16-.82,1.3-1.27,1.94-1.06,1.43-1.59,2.14-.92,1.27-1.43,1.9-1.19,1.41-1.79,2.12-1,1.24-1.57,1.85-1.34,1.4-2,2.1-1.12,1.19-1.72,1.79-1.49,1.39-2.24,2.08-1.21,1.15-1.85,1.72c-.8.71-1.67,1.4-2.52,2.1-.64.53-1.25,1.07-1.92,1.6-.89.71-1.85,1.4-2.79,2.1-.68.5-1.31,1-2,1.5-1.12.8-2.3,1.57-3.48,2.35-.56.38-1.09.76-1.67,1.13-1.77,1.15-3.61,2.27-5.5,3.37-60.85,35.35-159.82,35.35-221,0-1.92-1.1-3.78-2.24-5.58-3.39-.59-.38-1.14-.77-1.72-1.15-1.18-.78-2.38-1.56-3.5-2.36-.64-.45-1.23-.92-1.85-1.38-1-.75-2-1.49-3-2.25-.66-.52-1.28-1.06-1.93-1.59-.86-.71-1.74-1.41-2.56-2.13-.65-.57-1.24-1.15-1.87-1.72s-1.55-1.4-2.28-2.11-1.13-1.17-1.7-1.75-1.42-1.44-2.08-2.17-1.06-1.23-1.59-1.84-1.26-1.43-1.84-2.15-1-1.28-1.44-1.91-1.11-1.44-1.62-2.16-.86-1.31-1.29-2-1-1.44-1.42-2.18-.74-1.32-1.11-2-.85-1.46-1.23-2.2-.64-1.34-1-2-.71-1.47-1-2.21-.52-1.37-.78-2-.59-1.48-.84-2.23-.41-1.38-.61-2.07-.47-1.49-.66-2.24-.29-1.39-.44-2.09-.34-1.5-.46-2.25-.19-1.4-.27-2.1-.21-1.5-.28-2.24c0-.21,0-.42,0-.64,0-.49,0-1-.06-1.49,0-.74-.08-1.49-.08-2.23,0-.08,0-.15,0-.23l0,8c0,.08,0,.15,0,.23C16.66,256.23,16.72,257,16.75,257.73Z"/><path class="cls-28" d="M16.77,249.69c0,.47,0,.95.07,1.42,0,.24,0,.47,0,.71.07.74.18,1.49.28,2.24s.15,1.4.27,2.1.3,1.5.46,2.25.27,1.39.44,2.09.44,1.49.66,2.24.38,1.38.61,2.07.55,1.48.84,2.23.5,1.37.78,2,.69,1.47,1,2.21.61,1.35,1,2,.81,1.47,1.23,2.2.72,1.34,1.11,2,.95,1.46,1.42,2.18.83,1.31,1.29,2,1.07,1.44,1.62,2.16.93,1.27,1.44,1.91,1.22,1.43,1.84,2.15,1,1.23,1.59,1.84,1.38,1.45,2.08,2.17,1.11,1.17,1.7,1.75S40,295,40.8,295.74s1.22,1.15,1.87,1.72c.82.72,1.7,1.42,2.56,2.13.65.53,1.27,1.07,1.93,1.59,1,.76,2,1.5,3,2.25.62.46,1.21.93,1.85,1.38,1.12.8,2.32,1.58,3.5,2.36.58.38,1.13.77,1.72,1.15,1.8,1.15,3.66,2.29,5.58,3.39,61.23,35.35,160.2,35.35,221.05,0,1.89-1.1,3.73-2.22,5.5-3.37.58-.37,1.11-.75,1.67-1.13,1.18-.78,2.36-1.55,3.48-2.35.69-.5,1.32-1,2-1.5.94-.7,1.9-1.39,2.79-2.1.67-.53,1.28-1.07,1.92-1.6.85-.7,1.72-1.39,2.52-2.1.64-.57,1.23-1.15,1.85-1.72s1.52-1.38,2.24-2.08,1.14-1.2,1.72-1.79,1.36-1.39,2-2.1,1-1.24,1.57-1.85,1.23-1.41,1.79-2.12,1-1.27,1.43-1.9,1.09-1.42,1.59-2.14.84-1.29,1.27-1.94.95-1.43,1.39-2.16.73-1.31,1.09-2,.84-1.46,1.21-2.2.63-1.34.94-2,.7-1.47,1-2.21.52-1.36.78-2.05.57-1.46.81-2.19.41-1.38.61-2.07.45-1.47.63-2.21.29-1.38.44-2.08.32-1.48.44-2.23.18-1.39.27-2.09.2-1.46.26-2.19v0c.06-.71.06-1.41.09-2.11,1-24-14.35-48.17-46.05-66.47-61.25-35.36-160.22-35.36-221.06,0-30.32,17.62-45.44,40.69-45.4,63.79C16.69,248.2,16.74,249,16.77,249.69Z"/><path class="cls-29" d="M4.71,259c.07.8.19,1.6.29,2.4s.17,1.53.3,2.28.32,1.61.49,2.42.29,1.5.48,2.26.46,1.6.7,2.4.42,1.5.67,2.24.6,1.6.9,2.4.54,1.48.85,2.21.74,1.61,1.12,2.42.65,1.44,1,2.15.88,1.6,1.33,2.39.77,1.42,1.2,2.13,1,1.58,1.54,2.37.89,1.39,1.37,2.09,1.17,1.56,1.77,2.34,1,1.37,1.54,2,1.32,1.56,2,2.33,1.1,1.33,1.7,2,1.48,1.55,2.23,2.32,1.21,1.28,1.85,1.9,1.62,1.51,2.44,2.25,1.32,1.27,2,1.88c.87.76,1.81,1.5,2.72,2.26.71.58,1.39,1.18,2.13,1.76,1,.79,2.07,1.55,3.11,2.32.72.53,1.4,1.07,2.14,1.59,1.2.86,2.49,1.69,3.76,2.53.63.42,1.22.84,1.86,1.25q2.91,1.86,6,3.66c66,38.11,172.69,38.11,238.29,0q3.07-1.78,5.95-3.63c.62-.4,1.2-.82,1.8-1.23,1.27-.84,2.54-1.67,3.75-2.53.7-.5,1.34-1,2-1.51,1.05-.79,2.13-1.57,3.15-2.37.71-.57,1.36-1.15,2-1.71.92-.76,1.86-1.52,2.73-2.29.69-.6,1.32-1.22,2-1.83s1.65-1.5,2.42-2.26,1.23-1.28,1.85-1.92c.41-.43.83-.85,1.23-1.28s.64-.66.94-1c.6-.66,1.13-1.32,1.69-2s1.33-1.52,1.95-2.3,1-1.35,1.52-2,1.18-1.55,1.73-2.32.9-1.39,1.35-2.08,1-1.55,1.51-2.34.8-1.43,1.19-2.14.9-1.56,1.3-2.35.67-1.44,1-2.16.76-1.58,1.09-2.37.56-1.47.83-2.2.62-1.58.89-2.38.43-1.48.65-2.21.48-1.6.68-2.41.31-1.48.47-2.22.35-1.61.48-2.41.19-1.5.28-2.25.22-1.61.29-2.41.06-1.5.1-2.25c1.06-25.86-15.47-51.94-49.65-71.67-66-38.13-172.71-38.13-238.31,0-32.69,19-49,43.87-49,68.77,0,.8.06,1.61.09,2.41S4.65,258.27,4.71,259Zm12-11.81c0,.08,0,.15,0,.23,0-23.1,15.09-46.17,45.41-63.79,60.84-35.36,159.81-35.36,221.06,0,31.7,18.3,47,42.49,46.05,66.47,0-.67.08-1.33.09-2l0,8c0,.67-.05,1.34-.08,2s0,1.4-.09,2.11-.18,1.48-.27,2.22-.15,1.4-.26,2.1-.3,1.48-.45,2.23-.26,1.38-.43,2.07-.42,1.48-.64,2.22-.37,1.38-.6,2.06-.54,1.46-.81,2.19-.5,1.38-.79,2.06-.66,1.46-1,2.2-.59,1.34-.93,2-.81,1.47-1.22,2.21-.7,1.31-1.08,1.95-.94,1.46-1.42,2.19-.8,1.28-1.24,1.92-1.07,1.44-1.62,2.16-.91,1.26-1.4,1.87-1.21,1.44-1.82,2.15-1,1.22-1.55,1.82-1.36,1.43-2.05,2.14-1.09,1.17-1.68,1.75-1.52,1.43-2.29,2.14c-.6.55-1.17,1.11-1.79,1.66-.84.73-1.74,1.45-2.61,2.18-.62.51-1.2,1-1.83,1.52-.92.73-1.9,1.43-2.86,2.15-.65.48-1.27,1-1.94,1.45-1.11.8-2.3,1.57-3.47,2.35-.57.38-1.1.76-1.67,1.13-1.78,1.14-3.62,2.27-5.51,3.37-60.84,35.36-159.81,35.36-221,0-1.92-1.1-3.78-2.24-5.58-3.39-.63-.4-1.21-.81-1.82-1.22-1.15-.76-2.31-1.51-3.41-2.29-.69-.48-1.33-1-2-1.49-1-.71-2-1.41-2.87-2.14-.68-.52-1.3-1.07-1.95-1.61-.85-.7-1.74-1.4-2.55-2.11-.65-.57-1.24-1.15-1.86-1.72s-1.56-1.4-2.29-2.11-1.15-1.2-1.74-1.8-1.39-1.4-2-2.11-1.06-1.25-1.6-1.87-1.25-1.41-1.82-2.13-1-1.27-1.44-1.89-1.12-1.45-1.63-2.18-.85-1.3-1.28-1.95-1-1.45-1.42-2.18-.74-1.32-1.12-2-.85-1.47-1.23-2.21-.62-1.32-.94-2-.73-1.5-1-2.25-.52-1.35-.78-2-.59-1.5-.85-2.25-.41-1.38-.61-2.07-.46-1.49-.65-2.24-.3-1.39-.45-2.09-.33-1.49-.46-2.25-.18-1.4-.27-2.1-.21-1.5-.27-2.24-.07-1.41-.1-2.11-.09-1.5-.09-2.25c0-.08,0-.15,0-.23Z"/><path class="cls-30" d="M16.82,249.69c0,.47,0,.95.06,1.42,0,.24,0,.47,0,.71.06.74.18,1.49.27,2.24s.16,1.4.28,2.1.3,1.5.46,2.25.26,1.39.44,2.09.43,1.49.65,2.24.39,1.38.62,2.07.55,1.48.84,2.23.49,1.37.78,2,.68,1.47,1,2.21.61,1.35,1,2,.81,1.47,1.22,2.2.72,1.34,1.12,2,.94,1.46,1.42,2.18.83,1.31,1.29,2,1.07,1.44,1.61,2.16.95,1.27,1.45,1.91,1.22,1.43,1.84,2.15,1,1.23,1.58,1.84,1.39,1.45,2.09,2.17,1.1,1.17,1.7,1.75,1.51,1.41,2.28,2.11c.62.57,1.22,1.15,1.86,1.72.82.72,1.71,1.42,2.57,2.13.65.53,1.26,1.07,1.93,1.59,1,.76,2,1.5,3,2.25.63.46,1.21.93,1.85,1.38,1.13.8,2.32,1.58,3.5,2.36.59.38,1.13.77,1.73,1.15,1.8,1.15,3.66,2.29,5.58,3.39,61.23,35.35,160.2,35.35,221,0,1.9-1.1,3.73-2.22,5.51-3.37.57-.37,1.11-.75,1.67-1.13,1.17-.78,2.36-1.55,3.48-2.35.69-.5,1.32-1,2-1.5.94-.7,1.9-1.39,2.8-2.1.67-.53,1.28-1.07,1.92-1.6.85-.7,1.71-1.39,2.52-2.1.64-.57,1.23-1.15,1.85-1.72s1.52-1.38,2.23-2.08,1.15-1.2,1.72-1.79,1.37-1.39,2-2.1,1.05-1.24,1.58-1.85,1.22-1.41,1.79-2.12.95-1.27,1.43-1.9,1.09-1.42,1.59-2.14.84-1.29,1.26-1.94,1-1.43,1.4-2.16.73-1.31,1.09-2,.84-1.46,1.21-2.2.63-1.34.94-2,.7-1.47,1-2.21.52-1.36.78-2.05.57-1.46.81-2.19.41-1.38.61-2.07.45-1.47.63-2.21.29-1.38.43-2.08.33-1.48.45-2.23.18-1.39.27-2.09.19-1.46.25-2.19v0c0-.71.06-1.41.09-2.11,1-24-14.35-48.17-46.05-66.47C222,148.31,123,148.31,62.14,183.67c-30.32,17.62-45.44,40.69-45.41,63.79C16.73,248.2,16.79,249,16.82,249.69Z"/><path class="cls-27" d="M341.38,257.25c0,.75,0,1.5-.1,2.25s-.19,1.61-.28,2.41-.16,1.5-.28,2.25-.32,1.6-.49,2.41-.28,1.48-.47,2.22-.45,1.6-.68,2.41-.4,1.47-.65,2.21-.59,1.59-.89,2.38-.52,1.47-.83,2.2-.72,1.58-1.09,2.37-.64,1.44-1,2.16-.86,1.57-1.29,2.35-.76,1.43-1.19,2.14-1,1.56-1.52,2.34-.87,1.39-1.35,2.08-1.14,1.54-1.73,2.32-1,1.36-1.52,2-1.29,1.53-1.94,2.3-1.11,1.32-1.69,2c-.31.33-.65.66-.95,1s-.82.85-1.23,1.27c-.62.64-1.2,1.29-1.84,1.92s-1.62,1.51-2.43,2.26-1.29,1.23-2,1.83c-.88.77-1.82,1.53-2.73,2.29-.69.56-1.35,1.14-2.06,1.71-1,.8-2.09,1.58-3.15,2.37-.68.5-1.32,1-2,1.51-1.21.86-2.48,1.69-3.74,2.53-.61.41-1.19.83-1.81,1.23q-2.88,1.84-5.94,3.63c-65.6,38.11-172.27,38.11-238.3,0q-3.1-1.8-6-3.66c-.65-.41-1.24-.83-1.87-1.25-1.26-.84-2.55-1.67-3.76-2.53-.74-.52-1.42-1.06-2.13-1.59-1-.77-2.12-1.53-3.11-2.32-.74-.58-1.42-1.18-2.14-1.76-.91-.76-1.85-1.5-2.72-2.26-.7-.61-1.35-1.25-2-1.88s-1.66-1.49-2.44-2.25-1.23-1.27-1.84-1.9-1.53-1.54-2.24-2.32-1.13-1.32-1.7-2-1.36-1.55-2-2.33-1-1.36-1.54-2-1.21-1.56-1.76-2.34-.92-1.4-1.38-2.09-1.06-1.58-1.54-2.37-.8-1.42-1.2-2.13-.92-1.59-1.33-2.39-.68-1.44-1-2.15-.79-1.61-1.13-2.42-.56-1.47-.84-2.21-.64-1.59-.91-2.4-.44-1.5-.67-2.24-.49-1.6-.69-2.4-.33-1.51-.48-2.26-.36-1.61-.5-2.42-.2-1.51-.3-2.28-.22-1.6-.29-2.4-.07-1.53-.11-2.29-.09-1.61-.09-2.41c0-.08,0-.16,0-.24l0,11.07C4.35,290.31,21,315.49,54.18,334.68c66,38.12,172.7,38.12,238.3,0,32.58-18.93,48.89-43.71,49-68.52l0-11.08C341.48,255.8,341.41,256.53,341.38,257.25Z"/><path class="cls-31" d="M16.75,257.73c0,.7,0,1.4.1,2.11s.18,1.49.27,2.24.16,1.4.27,2.1.31,1.5.46,2.25.27,1.4.45,2.09.43,1.49.65,2.24.38,1.38.61,2.07.57,1.5.85,2.25.5,1.35.78,2,.69,1.5,1,2.25.6,1.32.93,2,.82,1.48,1.23,2.21.73,1.33,1.12,2,.95,1.46,1.43,2.18.82,1.3,1.27,1.95,1.09,1.45,1.64,2.18.93,1.26,1.43,1.89,1.21,1.42,1.82,2.13,1,1.25,1.61,1.87,1.35,1.41,2,2.11,1.13,1.21,1.74,1.8,1.51,1.41,2.28,2.11c.62.57,1.22,1.15,1.86,1.72.82.71,1.7,1.41,2.55,2.11.66.54,1.28,1.09,2,1.61.93.73,1.91,1.43,2.87,2.14.67.5,1.31,1,2,1.49,1.09.78,2.25,1.53,3.4,2.29.62.41,1.19.82,1.82,1.22,1.8,1.15,3.66,2.29,5.58,3.39,61.23,35.36,160.2,35.36,221,0,1.9-1.1,3.73-2.23,5.51-3.37.58-.37,1.11-.75,1.67-1.13,1.18-.78,2.36-1.55,3.48-2.35.67-.47,1.28-1,1.93-1.45,1-.72,1.95-1.42,2.86-2.15.64-.5,1.22-1,1.83-1.52.88-.73,1.77-1.45,2.61-2.18.62-.55,1.19-1.11,1.79-1.66.77-.71,1.56-1.42,2.29-2.14s1.12-1.17,1.68-1.75,1.4-1.42,2.05-2.14,1-1.21,1.55-1.82,1.24-1.42,1.82-2.15.94-1.24,1.41-1.87,1.1-1.44,1.61-2.16.83-1.28,1.25-1.92,1-1.46,1.41-2.19.72-1.3,1.08-1.95.85-1.47,1.22-2.21.63-1.33.94-2,.7-1.47,1-2.2.52-1.37.78-2.06.57-1.45.81-2.19.41-1.38.61-2.06.45-1.48.63-2.22.29-1.38.43-2.07.33-1.49.45-2.23.18-1.4.26-2.1.21-1.48.27-2.22.06-1.4.09-2.11.09-1.33.09-2l0-8c0,.67-.06,1.33-.09,2s0,1.4-.09,2.11v.06c-.06.72-.17,1.44-.26,2.16s-.15,1.4-.27,2.09-.29,1.49-.44,2.23-.27,1.39-.44,2.08-.42,1.47-.63,2.21-.38,1.38-.61,2.07-.54,1.46-.81,2.19-.49,1.38-.78,2.05-.67,1.47-1,2.21-.6,1.34-.94,2-.8,1.47-1.21,2.2-.7,1.31-1.09,2-.93,1.44-1.39,2.16-.82,1.3-1.27,1.94-1.06,1.43-1.59,2.14-.92,1.27-1.43,1.9-1.19,1.41-1.79,2.12-1,1.24-1.57,1.85-1.34,1.4-2,2.1-1.12,1.19-1.72,1.79-1.49,1.39-2.24,2.08-1.21,1.15-1.85,1.72c-.8.71-1.67,1.4-2.52,2.1-.64.53-1.25,1.07-1.92,1.6-.89.71-1.85,1.4-2.79,2.1-.68.5-1.31,1-2,1.5-1.12.8-2.3,1.57-3.48,2.35-.56.38-1.09.76-1.67,1.13-1.77,1.15-3.61,2.27-5.5,3.37-60.85,35.35-159.82,35.35-221,0-1.92-1.1-3.78-2.24-5.58-3.39-.59-.38-1.14-.77-1.72-1.15-1.18-.78-2.38-1.56-3.5-2.36-.64-.45-1.23-.92-1.85-1.38-1-.75-2-1.49-3-2.25-.66-.52-1.28-1.06-1.93-1.59-.86-.71-1.74-1.41-2.56-2.13-.65-.57-1.24-1.15-1.87-1.72s-1.55-1.4-2.28-2.11-1.13-1.17-1.7-1.75-1.42-1.44-2.08-2.17-1.06-1.23-1.59-1.84-1.26-1.43-1.84-2.15-1-1.28-1.44-1.91-1.11-1.44-1.62-2.16-.86-1.31-1.29-2-1-1.44-1.42-2.18-.74-1.32-1.11-2-.85-1.46-1.23-2.2-.64-1.34-1-2-.71-1.47-1-2.21-.52-1.37-.78-2-.59-1.48-.84-2.23-.41-1.38-.61-2.07-.47-1.49-.66-2.24-.29-1.39-.44-2.09-.34-1.5-.46-2.25-.19-1.4-.27-2.1-.21-1.5-.28-2.24c0-.21,0-.42,0-.64,0-.49,0-1-.06-1.49,0-.74-.08-1.49-.08-2.23,0-.08,0-.15,0-.23l0,8c0,.08,0,.15,0,.23C16.66,256.23,16.72,257,16.75,257.73Z"/><path class="cls-32" d="M341.38,257.25c0,.75,0,1.5-.1,2.25s-.19,1.61-.28,2.41-.16,1.5-.28,2.25-.32,1.6-.49,2.41-.28,1.48-.47,2.22-.45,1.6-.68,2.41-.4,1.47-.65,2.21-.59,1.59-.89,2.38-.52,1.47-.83,2.2-.72,1.58-1.09,2.37-.64,1.44-1,2.16-.86,1.57-1.29,2.35-.76,1.43-1.19,2.14-1,1.56-1.52,2.34-.87,1.39-1.35,2.08-1.14,1.54-1.73,2.32-1,1.36-1.52,2-1.29,1.53-1.94,2.3-1.11,1.32-1.69,2c-.31.33-.65.66-.95,1s-.82.85-1.23,1.27c-.62.64-1.2,1.29-1.84,1.92s-1.62,1.51-2.43,2.26-1.29,1.23-2,1.83c-.88.77-1.82,1.53-2.73,2.29-.69.56-1.35,1.14-2.06,1.71-1,.8-2.09,1.58-3.15,2.37-.68.5-1.32,1-2,1.51-1.21.86-2.48,1.69-3.74,2.53-.61.41-1.19.83-1.81,1.23q-2.88,1.84-5.94,3.63c-65.6,38.11-172.27,38.11-238.3,0q-3.1-1.8-6-3.66c-.65-.41-1.24-.83-1.87-1.25-1.26-.84-2.55-1.67-3.76-2.53-.74-.52-1.42-1.06-2.13-1.59-1-.77-2.12-1.53-3.11-2.32-.74-.58-1.42-1.18-2.14-1.76-.91-.76-1.85-1.5-2.72-2.26-.7-.61-1.35-1.25-2-1.88s-1.66-1.49-2.44-2.25-1.23-1.27-1.84-1.9-1.53-1.54-2.24-2.32-1.13-1.32-1.7-2-1.36-1.55-2-2.33-1-1.36-1.54-2-1.21-1.56-1.76-2.34-.92-1.4-1.38-2.09-1.06-1.58-1.54-2.37-.8-1.42-1.2-2.13-.92-1.59-1.33-2.39-.68-1.44-1-2.15-.79-1.61-1.13-2.42-.56-1.47-.84-2.21-.64-1.59-.91-2.4-.44-1.5-.67-2.24-.49-1.6-.69-2.4-.33-1.51-.48-2.26-.36-1.61-.5-2.42-.2-1.51-.3-2.28-.22-1.6-.29-2.4-.07-1.53-.11-2.29-.09-1.61-.09-2.41c0-.08,0-.16,0-.24l0,11.07C4.35,290.31,21,315.49,54.18,334.68c66,38.12,172.7,38.12,238.3,0,32.58-18.93,48.89-43.71,49-68.52l0-11.08C341.48,255.8,341.41,256.53,341.38,257.25Z"/><path class="cls-33" d="M136.52,234l2.72-4.6,45.06-25.84s-3.59,8.8,0,13.07c2.33,2.77,11.08,7.51,17.84,12.39,5.19,3.75,9.12,6.67,9.12,6.67v2.72l-40.85,24.31s-14.58-7.65-25-13.51A17.3,17.3,0,0,1,136.52,234Z"/><path class="cls-34" d="M177.13,261.57l-.19-2.72S154.29,247,153.3,246.41s-8.23-4-7.69-15.07l-2.37,1.51a17.26,17.26,0,0,0,8.92,15.2C162.54,253.92,177.13,261.57,177.13,261.57Z"/><path class="cls-35" d="M218,234.54l-41,24.31s-17.84-9.39-22.34-11.73S144.08,241,146,228.25L191,202.41s-3.6,8.79,0,13.07c2.33,2.77,11.08,7.51,17.84,12.39C214.05,231.62,218,234.54,218,234.54Z"/><path class="cls-36" d="M190.37,214.5c-14.78,7.94-28.84,17.16-43.13,26-1.41-2.78-2.1-6.64-1.28-12.23L191,202.41S187.93,210,190.37,214.5Z"/><path class="cls-37" d="M261.34,11.14s-7-3.41-8.13-3.41S83.39,105.17,79.73,107.14s-9,4.22-9,17.74v134.9c0,4.79-.85,9.05,6.76,11.14V121.78Z"/><path class="cls-38" d="M70.72,251.08c2.26.37,4.52.81,6.76,1.35v18.49c-7.61-2.09-6.76-6.35-6.76-11.14Z"/><path class="cls-39" d="M263.35,19V155c0,3.94.56,9.57-6.76,14.08S88.18,266.54,84,269.07s-9,3.95-9-5.91V126.85c0-5.07-2-11,9.86-18S244.48,17,250.11,13.64,263.35,5.75,263.35,19Z"/><path class="cls-40" d="M263.35,141.58V155c0,3.94.56,9.57-6.76,14.08S88.18,266.54,84,269.07s-9,3.95-9-5.91V251.61Z"/><polygon class="cls-41" points="254.15 19.84 254.15 137.56 83.48 236.12 83.48 118.4 254.15 19.84"/><polygon class="cls-42" points="232.85 46.45 232.85 139.14 173.89 173.18 173.89 80.49 232.85 46.45"/><path class="cls-43" d="M220,135.06c0,2.28,0,4.57,0,6.85l-41.22,23.8v-6.86Z"/><path class="cls-43" d="M221.46,134.23l7.19-4.15v6.85l-7.19,4.16C221.46,138.8,221.45,136.51,221.46,134.23Z"/><polygon class="cls-44" points="166.23 84.96 166.23 94.4 107.27 128.44 107.27 119 166.23 84.96"/><polygon class="cls-44" points="228.77 57.72 228.77 101.61 177.97 130.94 177.97 87.05 228.77 57.72"/><polygon class="cls-45" points="228.77 109.12 228.77 124.4 177.97 153.73 177.97 138.44 228.77 109.12"/><polygon class="cls-46" points="166.23 96.97 166.23 177.28 107.27 211.33 107.27 131.01 166.23 96.97"/><polygon class="cls-45" points="162.48 106.23 162.48 146.37 111.42 175.85 111.42 135.71 162.48 106.23"/><polygon class="cls-47" points="217.98 234.54 217.98 237.26 177.13 261.57 176.94 258.85 217.98 234.54"/><path class="cls-43" d="M160.4,91.91A1.68,1.68,0,1,0,162,89.77,1.93,1.93,0,0,0,160.4,91.91Z"/><path class="cls-48" d="M153.75,95.82a1.68,1.68,0,1,0,1.62-2.14A1.94,1.94,0,0,0,153.75,95.82Z"/><ellipse class="cls-49" cx="149.06" cy="99.7" rx="1.62" ry="2.14"/><path class="cls-50" d="M232,119.48c-29.91-12.63-60.41-23.71-91.1-34.26l17.18-9.92q22.23,8.07,44.17,16.91c17.23,6.93,34.4,14.09,51.86,20.42v16.54Q243.15,124.18,232,119.48Z"/><polygon class="cls-50" points="83.48 135.59 83.48 118.4 118.88 97.96 241.5 144.86 193.28 172.71 83.48 135.59"/><path class="cls-43" d="M300.86,68.43a.27.27,0,0,0,.27-.27V66.37a.27.27,0,1,0-.53,0v1.79A.27.27,0,0,0,300.86,68.43Z"/><path class="cls-43" d="M300.6,63.14V59.91a.27.27,0,1,1,.53,0v3.23a.27.27,0,1,1-.53,0Zm0-6.46V53.45a.27.27,0,1,1,.53,0v3.23a.27.27,0,0,1-.53,0Zm0-6.47V47a.27.27,0,1,1,.53,0v3.23a.27.27,0,1,1-.53,0Zm0-6.46V40.52a.27.27,0,1,1,.53,0v3.23a.27.27,0,1,1-.53,0Z"/><path class="cls-43" d="M300.86,37.56a.27.27,0,0,0,.27-.27V35.5a.28.28,0,0,0-.13-.23.26.26,0,0,0-.27,0l-1.55.88a.27.27,0,0,0-.1.37.26.26,0,0,0,.36.1L300.6,36v1.33A.27.27,0,0,0,300.86,37.56Z"/><path class="cls-43" d="M251.57,63.54a.26.26,0,0,1,.1-.36l3-1.69a.27.27,0,0,1,.27.47l-3,1.69a.31.31,0,0,1-.13,0A.27.27,0,0,1,251.57,63.54Zm5.94-3.37a.27.27,0,0,1,.1-.37l3-1.69a.28.28,0,0,1,.37.1.28.28,0,0,1-.11.37l-3,1.69a.35.35,0,0,1-.14,0A.28.28,0,0,1,257.51,60.17Zm5.94-3.38a.28.28,0,0,1,.1-.37l3-1.69a.27.27,0,0,1,.36.1.27.27,0,0,1-.1.37l-3,1.69a.28.28,0,0,1-.13,0A.26.26,0,0,1,263.45,56.79Zm5.94-3.38a.27.27,0,0,1,.1-.37l3-1.69a.27.27,0,0,1,.36.11.26.26,0,0,1-.1.36l-3,1.69a.33.33,0,0,1-.13,0A.27.27,0,0,1,269.39,53.41ZM275.32,50a.27.27,0,0,1,.1-.36l3-1.69a.27.27,0,0,1,.37.1.26.26,0,0,1-.1.36l-3,1.69a.22.22,0,0,1-.13,0A.27.27,0,0,1,275.32,50Zm5.94-3.38a.26.26,0,0,1,.1-.36l3-1.69a.27.27,0,0,1,.37.1.26.26,0,0,1-.1.36l-3,1.69a.22.22,0,0,1-.13,0A.27.27,0,0,1,281.26,46.65Zm5.94-3.38a.26.26,0,0,1,.1-.36l3-1.69a.28.28,0,0,1,.37.1.29.29,0,0,1-.1.37l-3,1.69a.35.35,0,0,1-.14,0A.27.27,0,0,1,287.2,43.27Zm5.94-3.37a.27.27,0,0,1,.1-.37l3-1.69a.26.26,0,0,1,.36.1.27.27,0,0,1-.1.37l-3,1.69a.28.28,0,0,1-.36-.1Z"/><path class="cls-43" d="M247.28,66.25a.28.28,0,0,0,.13,0l1.56-.89a.26.26,0,0,0,.1-.36.27.27,0,0,0-.37-.1l-1.55.88a.28.28,0,0,0-.1.37A.26.26,0,0,0,247.28,66.25Z"/><path class="cls-43" d="M246.08,66a1.21,1.21,0,1,0,1.2-1.21A1.2,1.2,0,0,0,246.08,66Z"/><path class="cls-43" d="M299.66,68.62a1.21,1.21,0,1,0,1.2-1.2A1.21,1.21,0,0,0,299.66,68.62Z"/><path class="cls-43" d="M171.16,275.86a.26.26,0,0,1,.1-.36l2.12-1.23a.27.27,0,0,1,.27.47L171.53,276a.22.22,0,0,1-.13,0A.27.27,0,0,1,171.16,275.86Zm5.22-3a.26.26,0,0,1,.1-.36l3.1-1.79a.26.26,0,0,1,.36.1.26.26,0,0,1-.09.36l-3.1,1.79a.33.33,0,0,1-.13,0A.27.27,0,0,1,176.38,272.85Zm6.2-3.57a.27.27,0,0,1,.09-.37l3.1-1.78a.27.27,0,1,1,.27.46l-3.1,1.79a.31.31,0,0,1-.13,0A.28.28,0,0,1,182.58,269.28Zm6.19-3.58a.26.26,0,0,1,.1-.36l3.1-1.79a.26.26,0,0,1,.36.1.27.27,0,0,1-.1.37l-3.09,1.78a.25.25,0,0,1-.14,0A.27.27,0,0,1,188.77,265.7Zm6.19-3.57a.28.28,0,0,1,.1-.37l3.1-1.78a.28.28,0,0,1,.37.1.26.26,0,0,1-.1.36l-3.1,1.79a.31.31,0,0,1-.13,0A.26.26,0,0,1,195,262.13Zm6.2-3.57a.27.27,0,0,1,.1-.37l3.09-1.79a.27.27,0,0,1,.27.47l-3.1,1.79a.28.28,0,0,1-.36-.1Zm6.19-3.58a.26.26,0,0,1,.1-.36l3.1-1.79a.26.26,0,0,1,.36.1.25.25,0,0,1-.1.36l-3.09,1.79a.33.33,0,0,1-.14,0A.27.27,0,0,1,207.35,255Zm6.19-3.57a.28.28,0,0,1,.1-.37l3.1-1.78a.27.27,0,1,1,.27.46l-3.1,1.79a.31.31,0,0,1-.13,0A.26.26,0,0,1,213.54,251.41Zm6.2-3.57a.27.27,0,0,1,.1-.37l3.09-1.79a.27.27,0,1,1,.27.47l-3.1,1.78a.2.2,0,0,1-.13,0A.28.28,0,0,1,219.74,247.84Zm6.19-3.58a.28.28,0,0,1,.1-.37l3.1-1.78a.27.27,0,0,1,.27.46l-3.1,1.79a.33.33,0,0,1-.13,0A.27.27,0,0,1,225.93,244.26Zm6.2-3.57a.27.27,0,0,1,.09-.37l3.1-1.79a.27.27,0,0,1,.27.47l-3.1,1.79a.31.31,0,0,1-.13,0A.28.28,0,0,1,232.13,240.69Zm6.19-3.58a.26.26,0,0,1,.1-.36l3.1-1.79a.26.26,0,0,1,.36.1.27.27,0,0,1-.1.37l-3.09,1.78a.25.25,0,0,1-.14,0A.27.27,0,0,1,238.32,237.11Zm6.19-3.57a.28.28,0,0,1,.1-.37l3.1-1.78a.27.27,0,1,1,.27.46l-3.1,1.79a.31.31,0,0,1-.13,0A.26.26,0,0,1,244.51,233.54Zm3.34-5.34v-3.57a.27.27,0,0,1,.54,0v3.57a.27.27,0,0,1-.54,0Zm0-7.15v-3.57a.27.27,0,0,1,.54,0v3.57a.27.27,0,0,1-.54,0Zm0-7.15v-3.57a.27.27,0,0,1,.54,0v3.57a.27.27,0,0,1-.54,0Zm0-7.15v-3.58a.27.27,0,0,1,.54,0v3.58a.27.27,0,0,1-.54,0Zm0-7.15V196a.27.27,0,0,1,.54,0v3.58a.27.27,0,0,1-.54,0Zm0-7.15v-3.58a.27.27,0,0,1,.54,0v3.58a.27.27,0,0,1-.54,0Zm0-7.15v-3.58a.27.27,0,0,1,.54,0v3.58a.27.27,0,0,1-.54,0Z"/><path class="cls-43" d="M246.91,181a1.21,1.21,0,1,0,1.21-1.21A1.21,1.21,0,0,0,246.91,181Z"/><path class="cls-43" d="M170,275.91a1.21,1.21,0,1,0,1.2-1.21A1.2,1.2,0,0,0,170,275.91Z"/><path class="cls-43" d="M63.22,172.71a1.21,1.21,0,1,0,1.2-1.21A1.21,1.21,0,0,0,63.22,172.71Z"/><path class="cls-43" d="M118.72,139.79a1.21,1.21,0,1,0,1.2-1.21A1.2,1.2,0,0,0,118.72,139.79Z"/><path class="cls-43" d="M64.19,172.6a.28.28,0,0,1,.1-.37l0,0a.25.25,0,0,1,.35.11.3.3,0,0,1-.12.38.32.32,0,0,1-.14,0A.26.26,0,0,1,64.19,172.6Zm3.12-1.84a.26.26,0,0,1,.1-.36l3.08-1.82a.28.28,0,0,1,.37.1.26.26,0,0,1-.1.36l-3.08,1.82a.33.33,0,0,1-.13,0A.27.27,0,0,1,67.31,170.76Zm6.17-3.62a.26.26,0,0,1,.09-.37L76.65,165a.28.28,0,0,1,.37.1.27.27,0,0,1-.1.37l-3.08,1.81a.22.22,0,0,1-.13,0A.28.28,0,0,1,73.48,167.14Zm6.16-3.63a.27.27,0,0,1,.09-.37l3.08-1.81a.26.26,0,0,1,.37.09.27.27,0,0,1-.09.37L80,163.6a.25.25,0,0,1-.14,0A.28.28,0,0,1,79.64,163.51Zm6.16-3.63a.28.28,0,0,1,.1-.37L89,157.7a.25.25,0,0,1,.36.09.26.26,0,0,1-.09.37L86.17,160a.23.23,0,0,1-.14,0A.28.28,0,0,1,85.8,159.88ZM92,156.25a.28.28,0,0,1,.1-.37l3.08-1.81a.27.27,0,1,1,.27.46l-3.08,1.82a.32.32,0,0,1-.14,0A.26.26,0,0,1,92,156.25Zm6.16-3.63a.26.26,0,0,1,.1-.36l3.08-1.82a.28.28,0,0,1,.37.1.26.26,0,0,1-.1.36l-3.08,1.82a.31.31,0,0,1-.13,0A.26.26,0,0,1,98.12,152.62Zm6.17-3.63a.25.25,0,0,1,.09-.36l3.08-1.82a.28.28,0,0,1,.37.1.27.27,0,0,1-.1.37l-3.08,1.81a.33.33,0,0,1-.13,0A.27.27,0,0,1,104.29,149Zm6.16-3.62a.27.27,0,0,1,.09-.37l3.08-1.82a.27.27,0,0,1,.28.47l-3.08,1.81a.25.25,0,0,1-.14,0A.28.28,0,0,1,110.45,145.37Zm6.16-3.63a.28.28,0,0,1,.1-.37l3.08-1.81a.25.25,0,0,1,.36.09.26.26,0,0,1-.09.37L117,141.83a.23.23,0,0,1-.14,0A.28.28,0,0,1,116.61,141.74Z"/><path class="cls-43" d="M128.68,33.51a1.21,1.21,0,1,0,1.21-1.2A1.21,1.21,0,0,0,128.68,33.51Z"/><path class="cls-43" d="M184.8,89.77A1.21,1.21,0,1,0,186,88.56,1.21,1.21,0,0,0,184.8,89.77Z"/><path class="cls-43" d="M185.74,89.61V86a.27.27,0,1,1,.54,0v3.58a.27.27,0,0,1-.54,0Zm0-7.15V78.88a.27.27,0,1,1,.54,0v3.58a.27.27,0,0,1-.54,0Zm0-7.16V71.73a.27.27,0,0,1,.54,0V75.3a.27.27,0,1,1-.54,0Zm0-7.15V64.58a.27.27,0,1,1,.54,0v3.57a.27.27,0,1,1-.54,0Zm0-7.15V57.43a.27.27,0,1,1,.54,0V61a.27.27,0,1,1-.54,0Zm0-7.15V50.28a.27.27,0,1,1,.54,0v3.57a.27.27,0,1,1-.54,0Zm0-7.15V43.13a.27.27,0,1,1,.54,0V46.7a.27.27,0,1,1-.54,0Zm0-7.15V36a.27.27,0,0,1,.54,0v3.58a.27.27,0,1,1-.54,0Zm-55.46-6.47a.26.26,0,0,1,.09-.36l3.08-1.82a.27.27,0,0,1,.37.1.26.26,0,0,1-.09.36l-3.08,1.82a.35.35,0,0,1-.14,0A.26.26,0,0,1,130.28,33.08Zm55.46-.68V28.82a.27.27,0,0,1,.54,0V32.4a.27.27,0,1,1-.54,0Zm-49.3-2.95a.26.26,0,0,1,.1-.36l3.08-1.82a.26.26,0,0,1,.36.1.25.25,0,0,1-.09.36l-3.08,1.82a.33.33,0,0,1-.14,0A.27.27,0,0,1,136.44,29.45Zm6.16-3.62a.27.27,0,0,1,.1-.37l3.08-1.82a.27.27,0,0,1,.27.47L143,25.92a.23.23,0,0,1-.14,0A.28.28,0,0,1,142.6,25.83Zm43.14-.58V21.67a.27.27,0,1,1,.54,0v3.58a.27.27,0,0,1-.54,0Zm-37-3.05a.28.28,0,0,1,.1-.37L151.94,20a.26.26,0,0,1,.37.09.28.28,0,0,1-.1.37l-3.08,1.81a.22.22,0,0,1-.13,0A.28.28,0,0,1,148.76,22.2Zm6.17-3.63a.26.26,0,0,1,.09-.37l3.08-1.81a.27.27,0,0,1,.28.46l-3.09,1.81a.22.22,0,0,1-.13,0A.28.28,0,0,1,154.93,18.57Zm30.81-.47V14.52a.27.27,0,0,1,.54,0V18.1a.27.27,0,0,1-.54,0Zm-24.65-3.16a.27.27,0,0,1,.09-.37l3.08-1.81a.27.27,0,0,1,.28.46L161.46,15a.35.35,0,0,1-.14,0A.26.26,0,0,1,161.09,14.94Zm6.16-3.63a.26.26,0,0,1,.1-.36l3.08-1.82a.26.26,0,0,1,.36.1.25.25,0,0,1-.09.36l-3.08,1.82a.32.32,0,0,1-.14,0A.26.26,0,0,1,167.25,11.31ZM185.74,11V7.37a.27.27,0,0,1,.54,0V11a.27.27,0,0,1-.54,0ZM173.41,7.68a.26.26,0,0,1,.1-.36l3.08-1.82a.27.27,0,1,1,.27.47l-3.08,1.81a.33.33,0,0,1-.14,0A.27.27,0,0,1,173.41,7.68Zm6.17-3.62a.26.26,0,0,1,.09-.37l3.08-1.81a.26.26,0,0,1,.37.09.28.28,0,0,1-.1.37l-3.08,1.81a.22.22,0,0,1-.13,0A.26.26,0,0,1,179.58,4.06Zm6.16-.26V.38a.3.3,0,0,1,.13-.34.29.29,0,0,1,.27,0,.27.27,0,0,1,.14.24V3.8a.27.27,0,0,1-.54,0Z"/><path class="cls-43" d="M81,57.73a1.21,1.21,0,1,0,1.21-1.21A1.21,1.21,0,0,0,81,57.73Z"/><path class="cls-43" d="M27.77,99.39A1.21,1.21,0,1,0,29,98.18,1.21,1.21,0,0,0,27.77,99.39Z"/><path class="cls-43" d="M28.7,95.83V92.26a.27.27,0,0,1,.54,0v3.57a.27.27,0,1,1-.54,0Zm0-7.15v-.19a.26.26,0,0,1,.14-.23l2.93-1.69A.27.27,0,1,1,32,87l-2.8,1.61v0a.27.27,0,0,1-.54,0Zm6.07-3.53a.27.27,0,0,1,.1-.37L38,83a.27.27,0,0,1,.27.47l-3.09,1.78a.25.25,0,0,1-.14,0A.28.28,0,0,1,34.77,85.15ZM41,81.57a.26.26,0,0,1,.1-.36l3.1-1.79a.27.27,0,1,1,.27.47l-3.1,1.78a.22.22,0,0,1-.13,0A.27.27,0,0,1,41,81.57ZM47.16,78a.27.27,0,0,1,.1-.37l3.09-1.78a.27.27,0,0,1,.37.1.26.26,0,0,1-.1.36l-3.1,1.79a.28.28,0,0,1-.13,0A.26.26,0,0,1,47.16,78Zm6.19-3.57a.28.28,0,0,1,.1-.37l3.1-1.78a.26.26,0,0,1,.36.09.27.27,0,0,1-.09.37l-3.1,1.79a.31.31,0,0,1-.13,0A.28.28,0,0,1,53.35,74.43Zm6.2-3.57a.27.27,0,0,1,.1-.37l3.09-1.79a.27.27,0,1,1,.27.47L59.91,71a.2.2,0,0,1-.13,0A.28.28,0,0,1,59.55,70.86Zm6.19-3.58a.26.26,0,0,1,.1-.36l3.1-1.79a.26.26,0,0,1,.36.1.27.27,0,0,1-.09.37l-3.1,1.78a.23.23,0,0,1-.14,0A.27.27,0,0,1,65.74,67.28Zm6.2-3.57a.26.26,0,0,1,.09-.36l3.1-1.79a.28.28,0,0,1,.37.1.26.26,0,0,1-.1.36l-3.1,1.79a.33.33,0,0,1-.13,0A.27.27,0,0,1,71.94,63.71Zm6.19-3.57a.28.28,0,0,1,.1-.37L81.33,58a.25.25,0,0,1,.36.1.26.26,0,0,1-.09.36l-3.1,1.79a.32.32,0,0,1-.14,0A.26.26,0,0,1,78.13,60.14Z"/><path class="cls-51" d="M235.29,75.09A90.88,90.88,0,0,0,242.08,41c0-19.13-5.34-39.32-8.26-39.32s-9,26.1-9,39.68,5.46,33.76,5.46,33.76Z"/><path class="cls-52" d="M239,64.2c-.38,1.45-.77,2.78-1.14,4-3.13-.06-6.25-.17-9.36-.41-.27-1.22-.56-2.55-.85-4C231.39,64,235.18,64.14,239,64.2Z"/><path class="cls-53" d="M233.82,1.65a1.16,1.16,0,0,1,.76.4c-2,15-3.61,30-3.26,45.16.22,9.32.91,18.61,1.76,27.88h-2.84s-5.46-20.17-5.46-33.76S230.89,1.65,233.82,1.65Z"/><path class="cls-54" d="M235.29,75.09s3.61.51,3.61,4.8c0,5.56-4.37,5.35-5.09,9.65-.59,3.47,2,6.16,1.79,6.26a11.58,11.58,0,0,1-9.48-11c-.59-9.4,4.12-9.68,4.12-9.68Z"/><path class="cls-55" d="M238.79,78.72a7,7,0,0,1,.11,1.17c0,3.54-1.77,4.75-3.25,6.26A30.34,30.34,0,0,0,238.79,78.72Z"/><path class="cls-55" d="M237.62,77.15c-.54,4.95-3.77,8.8-5.37,13.31a7.93,7.93,0,0,1,.22-2.16c.64-2.55,2.57-4.59,3.57-7a9.4,9.4,0,0,0,.83-5.57,4.54,4.54,0,0,1,1,.92A.77.77,0,0,0,237.62,77.15Z"/><path class="cls-55" d="M232.9,93.89a15,15,0,0,1,.66-3c.06-.16.12-.32.17-.47-.09,3.05,2.08,5.33,1.87,5.42a7.26,7.26,0,0,1-2.22-.63C233.2,94.75,233,94.32,232.9,93.89Z"/><path class="cls-55" d="M233.2,80.93c.79-1.82,2-3.69,2.05-5.66,1.63,3.25-1.56,7.14-3.29,10.5A15.1,15.1,0,0,1,233.2,80.93Z"/><path class="cls-55" d="M232.55,75.09h1.25a14.2,14.2,0,0,1-1.63,5.37C232.32,78.68,232.46,76.89,232.55,75.09Z"/><path class="cls-55" d="M231.08,75.74c-.21,3.73-.63,7.41-.84,11.13C229.6,83.18,229.12,78.93,231.08,75.74Z"/><path class="cls-55" d="M229.21,90.42c-1.4-4.4-2.17-9-.43-12.91C227.57,81.36,228.13,86,229.21,90.42Z"/><path class="cls-55" d="M227.25,77.44c-1.56,3.91-.88,8.44.43,12.77a12.39,12.39,0,0,1-1.56-5.44C225.89,81.12,226.46,78.86,227.25,77.44Z"/><path class="cls-56" d="M235.82,95.8c-.33.23-3.2,0-6.17-2.8a.54.54,0,0,1,.54-.92c.67.16,1.56,1.28,2.19,1.23s0-1.32.53-1.25.79,1.13,1.05,1.12-.28-1-.05-1,.5,1.21.93,1.85A7.07,7.07,0,0,1,235.82,95.8Z"/><path class="cls-57" d="M197.75,299.4l12-2.4,1.17-.65h0L269,264.23h0l2.74-1.51s4.74-2.44.58-5.74-9.13-.15-9.13-.15l-59,33.81h0l-1.91,1.1Z"/><polygon class="cls-58" points="261.67 254.18 200.78 289.08 208.23 294.35 270.22 260.07 261.67 254.18"/><polygon class="cls-59" points="261.67 254.18 200.78 289.08 205.34 292.3 267.14 257.95 261.67 254.18"/><polygon class="cls-60" points="270.22 260.07 267.48 261.58 258.98 255.72 261.67 254.18 270.22 260.07"/><path class="cls-61" d="M261.05,257.15,259,255.72l2.69-1.54,2.16,1.49C262.91,256.17,262,256.66,261.05,257.15Z"/><path class="cls-62" d="M264.72,256.28l1.57,1.09c-1,.44-2,.9-2.93,1.37l-1.41-1C262.88,257.28,263.8,256.79,264.72,256.28Z"/><path class="cls-61" d="M267.22,258l3,2.07-2.74,1.51-3.21-2.21C265.25,258.9,266.23,258.45,267.22,258Z"/><path class="cls-63" d="M261.67,254.18l8.55,5.89s4.74-2.45.58-5.74S261.67,254.18,261.67,254.18Z"/><path class="cls-64" d="M265.33,256.7l-3.66-2.52s4.67-2.94,8.74-.12C268.69,254.88,267,255.77,265.33,256.7Z"/><polygon class="cls-65" points="208.23 294.35 196.22 296.74 200.78 289.08 202.7 287.99 202.7 290.44 206.36 290.44 206.36 293.02 209.41 293.7 208.23 294.35"/><polygon class="cls-66" points="196.22 296.74 198.96 296.2 197.59 294.45 196.22 296.74"/><polygon class="cls-67" points="0 243.95 57.95 209.78 57.95 143.05 0 177.22 0 243.95"/><polygon class="cls-68" points="4.37 220.07 53.67 191.23 53.67 149.86 4.37 178.7 4.37 220.07"/><path class="cls-69" d="M47.05,169.16c.28,5.11-5.38,3.37-9.54,4.09s4.89,3.18,2,4.85S23,182.9,24.88,179.49s-6.08-5.16,2.86-8.76S46.81,164.87,47.05,169.16Z"/><path class="cls-70" d="M7.58,190.35c.61-4.5,5.25-2,9-2s-3.71-3.58-.94-4.56,15.21-1.4,13,1.25,4.43,5.51-4,7.14S7.07,194.12,7.58,190.35Z"/><polygon class="cls-71" points="11.85 215.7 31.82 204.01 17.7 190.55 11.85 215.7"/><polygon class="cls-72" points="51.25 192.65 23.41 208.93 29.02 175.85 51.25 192.65"/><circle class="cls-73" cx="43.11" cy="169.08" r="4.4"/><polygon class="cls-67" points="281.48 202.53 317.69 180.94 317.69 232.24 281.48 252.96 281.48 202.53"/><path class="cls-74" d="M288.27,198.48l29.42-17.54v44.79C307.71,216.84,298.06,207.56,288.27,198.48Z"/><path class="cls-75" d="M304.38,78.21l-1.74-.92s-4.14-.83-8.31,4.93c-3,4.19-2.33,9.26-1.31,10.38a5.64,5.64,0,0,0,2.56,1.5C296.8,94.25,304.38,78.21,304.38,78.21Z"/><path class="cls-76" d="M298.92,79.26c3.56-2.59,7.22-2.05,7.22,3.49,0,5.28-4.55,9.66-6.68,10.82-1.37.74-5.93,2-6.39-3.31S295.84,81.49,298.92,79.26Z"/><path class="cls-77" d="M304.38,105.87l-1.74-.93s-4.14-.83-8.31,4.93c-3,4.2-2.33,9.27-1.31,10.38a5.62,5.62,0,0,0,2.56,1.51C296.8,121.91,304.38,105.87,304.38,105.87Z"/><path class="cls-78" d="M298.92,106.91c3.56-2.58,7.22-2,7.22,3.49,0,5.28-4.55,9.67-6.68,10.83-1.37.73-5.93,2-6.39-3.31S295.84,109.15,298.92,106.91Z"/><path class="cls-79" d="M304.38,133.05l-1.74-.93s-4.14-.83-8.31,4.93c-3,4.2-2.33,9.27-1.31,10.38a5.62,5.62,0,0,0,2.56,1.51C296.8,149.09,304.38,133.05,304.38,133.05Z"/><path class="cls-56" d="M298.92,134.09c3.56-2.58,7.22-2.05,7.22,3.49,0,5.28-4.55,9.67-6.68,10.83-1.37.73-5.93,2-6.39-3.31S295.84,136.33,298.92,134.09Z"/><path class="cls-80" d="M304.38,161l-1.74-.92s-4.14-.84-8.31,4.93c-3,4.19-2.33,9.26-1.31,10.38a5.64,5.64,0,0,0,2.56,1.5C296.8,177,304.38,161,304.38,161Z"/><path class="cls-81" d="M298.92,162c3.56-2.59,7.22-2,7.22,3.49,0,5.27-4.55,9.66-6.68,10.82-1.37.74-5.93,2-6.39-3.31S295.84,164.24,298.92,162Z"/><path class="cls-82" d="M45.63,105.08l-4.87-2.58s-11.55-2.32-23.19,13.76c-8.48,11.72-6.5,25.87-3.65,29,0,0,3.74,3.78,7.14,4.2S45.63,105.08,45.63,105.08Z"/><path class="cls-83" d="M30.37,108c10-7.21,20.18-5.72,20.18,9.75,0,14.73-12.71,27-18.67,30.2-3.81,2.07-16.55,5.59-17.83-9.23S21.78,114.23,30.37,108Z"/><polygon class="cls-43" points="38.41 117.48 38.41 134.15 22.48 132.87 38.41 117.48"/><path class="cls-84" d="M93.26,296.32a.71.71,0,0,0,.71-.71V183.08a.72.72,0,0,0-1.43,0V295.61A.71.71,0,0,0,93.26,296.32Z"/><path class="cls-84" d="M109.32,286.67A.71.71,0,0,0,110,286V173.43a.71.71,0,0,0-.72-.71.71.71,0,0,0-.71.71V286A.71.71,0,0,0,109.32,286.67Z"/><path class="cls-84" d="M93.26,276.16a.62.62,0,0,0,.37-.11l16.07-10a.71.71,0,1,0-.76-1.21l-16.06,10a.71.71,0,0,0-.23,1A.72.72,0,0,0,93.26,276.16Z"/><path class="cls-84" d="M93.26,258.21a.7.7,0,0,0,.37-.11l16.07-10a.72.72,0,0,0,.23-1,.73.73,0,0,0-1-.23l-16.06,10a.71.71,0,0,0-.23,1A.72.72,0,0,0,93.26,258.21Z"/><path class="cls-84" d="M93.26,237.76a.7.7,0,0,0,.37-.11l16.07-10a.72.72,0,0,0,.23-1,.73.73,0,0,0-1-.23l-16.06,10a.7.7,0,0,0-.23,1A.72.72,0,0,0,93.26,237.76Z"/><path class="cls-84" d="M93.26,220.08a.69.69,0,0,0,.37-.1l16.07-10a.71.71,0,1,0-.76-1.21l-16.06,10a.71.71,0,0,0-.23,1A.72.72,0,0,0,93.26,220.08Z"/><path class="cls-84" d="M93.26,204.18a.7.7,0,0,0,.37-.11l16.07-10a.72.72,0,0,0,.23-1,.73.73,0,0,0-1-.23l-16.06,10a.7.7,0,0,0-.23,1A.72.72,0,0,0,93.26,204.18Z"/><path class="cls-33" d="M148,290.63c-3.06-2.12-16-10.92-21-14.95s-4-9.85,3.3-13.47,11.84,1.5,16.19,4c2.66,1.52,12.08,8.28,13.65,9.88s3.45,7.65-.62,12S149.83,291.92,148,290.63Z"/><path class="cls-40" d="M150,288c-3.06-2.12-16-10.91-21-14.94s-4-9.86,3.3-13.48,11.84,1.5,16.19,4c2.66,1.52,12.08,8.28,13.65,9.88s3.45,7.65-.62,12S151.81,289.32,150,288Z"/><path class="cls-85" d="M144.88,276.48c5.52,2.64,12.88,4.74,19.05,3a9,9,0,0,1-2.44,6c-4.13,4.4-9.68,3.86-11.54,2.57-3.06-2.12-16-10.91-21-14.94-4.12-3.35-4.16-7.91.12-11.44A35.79,35.79,0,0,0,144.88,276.48Z"/><path class="cls-34" d="M134,262.81c1.06.71,1.43.92,2,1.3s.24,1.43-.33,1.32a13.89,13.89,0,0,1-2.47-1.64C132.66,263.47,133.12,262.24,134,262.81Z"/><path class="cls-86" d="M151.55,270a126.28,126.28,0,0,0-11.65-7.65.8.8,0,0,1,.81-1.39,125,125,0,0,1,11.65,7.65c.83.61,0,2-.81,1.39Z"/><path class="cls-86" d="M137.5,261.12a2.47,2.47,0,0,0-1.54.11.83.83,0,0,1-1.1-.29.81.81,0,0,1,.29-1.1,4.29,4.29,0,0,1,2.78-.27.8.8,0,0,1-.43,1.55Z"/><rect class="cls-87" x="94.38" y="69.41" width="15.97" height="6.54" rx="1.52" transform="translate(204.73 145.35) rotate(-180)"/><rect class="cls-88" x="90.63" y="64.5" width="23.47" height="7.02" rx="1.63" transform="translate(204.73 136.02) rotate(-180)"/><path class="cls-89" d="M79.79,31.8c0,12.46,10.11,28.72,22.58,28.72s22.57-16.26,22.57-28.72a22.58,22.58,0,1,0-45.15,0Z"/><path class="cls-90" d="M87.12,47.61c5.71.68,11.29-1.88,15.69-5.35,9.33-7.34,11.77-19,10.38-30.27A22.56,22.56,0,0,1,124.94,31.8c0,12.46-10.11,28.72-22.57,28.72-7.63,0-14.36-6.08-18.45-13.66A16.21,16.21,0,0,0,87.12,47.61Z"/><path class="cls-91" d="M103.74,17.75c-2.3-.35-5.1-.79-6.95,1-2.15,2-5.42-1.22-3.26-3.27,3.2-3,7.36-2.76,11.43-2.15,2.93.44,1.69,4.89-1.22,4.46Z"/><path class="cls-91" d="M92.39,23.65c-2.57,5.06-4.3,10.78-1.26,16.05,1.49,2.57-2.5,4.9-4,2.33-3.91-6.78-2.09-14.12,1.25-20.71,1.35-2.65,5.33-.32,4,2.33Z"/><rect class="cls-92" x="87.55" y="55.82" width="29.63" height="9.32" rx="2.16" transform="translate(204.73 120.97) rotate(-180)"/><path class="cls-93" d="M104.64,60,95,59.78a1.16,1.16,0,0,1,0-2.31l9.62.2a1.16,1.16,0,0,1,0,2.31Z"/><path class="cls-93" d="M92,59.69H90.89a1.16,1.16,0,0,1,0-2.31H92a1.16,1.16,0,0,1,0,2.31Z"/><path class="cls-94" d="M94.45,66.14c2.92,0,5.84,0,8.75.29,1.47.11,1.48,2.42,0,2.3q-4.36-.35-8.75-.28a1.16,1.16,0,0,1,0-2.31Z"/><path class="cls-95" d="M96.56,73.07c1.8,0,3.59,0,5.39.08.74,0,.74,1.2,0,1.16-1.8-.1-3.59-.13-5.39-.09a.58.58,0,0,1,0-1.15Z"/></g></g></g></svg>