<svg xmlns="http://www.w3.org/2000/svg" viewBox="0 0 373.48 140.15"><defs><style>.cls-1{fill:#ecc935;}</style></defs><g id="Layer_2" data-name="Layer 2"><g id="Layer_1-2" data-name="Layer 1"><path class="cls-1" d="M80.8,0c20.32,0,33.7,15.29,33.7,36.41,0,21.93-13.78,36.31-33.7,36.31S47.11,57.54,47.11,36.41,60.49,0,80.8,0Zm0,65.28c15.39,0,26-11.67,26-28.87,0-16.49-10.16-29-26-29S55,19.92,55,36.41,65.52,65.28,80.8,65.28Z"/><path class="cls-1" d="M161.07,25.15a3.79,3.79,0,0,1,3.63-3.83,3.74,3.74,0,0,1,3.72,3.83V67.79a3.74,3.74,0,0,1-3.72,3.83,3.49,3.49,0,0,1-3.63-3.32c0-1.21-.7-1.11-1.91,0-3.52,3.22-8,4.42-13.27,4.42-12.18,0-20.32-8.75-20.32-22.13V25.15a3.64,3.64,0,0,1,3.52-3.83,3.82,3.82,0,0,1,3.82,3.83V50.59c0,9.36,5.13,15,13.78,15,9.56,0,14.38-8.95,14.38-14.78Z"/><path class="cls-1" d="M204,19.71a3.54,3.54,0,0,1,3.72,3.73A3.71,3.71,0,0,1,204,27.16c-9.56,0-15.19,8.65-15.19,14.48V67.79a3.67,3.67,0,1,1-7.34,0V25.05a3.8,3.8,0,0,1,3.72-3.83A3.7,3.7,0,0,1,188.84,25c0,1.2.8.7,1.51.1A19,19,0,0,1,204,19.71Z"/><path class="cls-1" d="M44.36,73.76c3.32,2.51,3.92,4.63,3.92,6.94s-2.41,5.93-6,5.93c-2.62,0-3.63-.2-5.33-1.81A18.48,18.48,0,0,0,24.44,80.4c-6.54,0-9.75,2.91-9.75,7.54,0,4.43,3.11,6.84,13.47,9,15,3.22,22.64,9.86,22.64,21.83,0,12.88-9.46,21.12-23.74,21.12a34.9,34.9,0,0,1-24-9.45,9.18,9.18,0,0,1-3-5.94c0-3.62,2.11-6.63,6.14-6.63a7.18,7.18,0,0,1,5.33,2.61,21,21,0,0,0,15.69,6.74c6.64,0,10.46-3.22,10.46-8,0-4.32-3.12-6.64-13.08-9-13.48-2.92-23.13-9-23.13-22.13,0-11.47,8.55-20.62,23.13-20.62C34.4,67.42,40.54,70.84,44.36,73.76Z"/><path class="cls-1" d="M99.48,123.85a5.42,5.42,0,0,1,5.53,5.43,5.5,5.5,0,0,1-2.31,4.33c-6.54,5.33-12.47,6.54-19.71,6.54-15.8,0-26.66-11.87-26.66-26.46,0-16.19,10.86-26.55,26-26.55,16.6,0,25,13.58,25,23.23,0,5.23-2.72,6.74-6.34,6.74H71.72a1.24,1.24,0,0,0-1.31,1.51C72.32,125.86,77,129.38,84,129.38a18.35,18.35,0,0,0,11.27-3.82A6.87,6.87,0,0,1,99.48,123.85Zm-28.87-17.2c-.2.91,0,1.51,1.31,1.51H93.55c1.3,0,1.51-.81,1.3-1.51-1.81-6.44-6.33-9.86-12.37-9.86S71.92,100.41,70.61,106.65Z"/><path class="cls-1" d="M129.06,112.38V132a6.67,6.67,0,0,1-6.74,6.94,6.85,6.85,0,0,1-7-6.94V95.59a6.84,6.84,0,0,1,7-6.94,6.49,6.49,0,0,1,6.53,5.23.92.92,0,0,0,1.71.3c2.72-3.93,5.64-6.14,10.06-6.14A6.32,6.32,0,0,1,147,94.38a6.22,6.22,0,0,1-6.34,6.23C134.59,100.61,129.06,104.84,129.06,112.38Z"/><path class="cls-1" d="M185.08,93A6.08,6.08,0,0,1,191,88.75,6.84,6.84,0,0,1,198,95.48a7.43,7.43,0,0,1-.61,2.92l-16.89,38.12c-1.31,3-4.13,3.63-7,3.63s-5.74-.71-7-3.73l-16.29-38a8,8,0,0,1-.6-2.92,7.08,7.08,0,0,1,7-6.83,6.46,6.46,0,0,1,6,4.32l10.06,26.55a1.11,1.11,0,0,0,2.11,0Z"/><path class="cls-1" d="M211.44,66a6.84,6.84,0,1,1,0,13.68,6.84,6.84,0,1,1,0-13.68ZM204.5,95.59a6.85,6.85,0,0,1,7-6.94,6.66,6.66,0,0,1,6.74,6.94V132a6.67,6.67,0,0,1-6.74,6.94,6.85,6.85,0,0,1-7-6.94Z"/><path class="cls-1" d="M272.69,97.6c0,3.22-2.61,5.23-5.83,5.23a5.91,5.91,0,0,1-3.42-1.21c-3.12-2.51-5-3.92-9.86-3.92-9.05,0-13.17,6.23-13.17,16s4.93,16.09,13.07,16.09c5.43,0,7.85-1.81,10.56-4a6.08,6.08,0,0,1,3.63-1.41,5.17,5.17,0,0,1,5.23,5.13c0,6.54-10.57,10.67-19.82,10.67-15.59,0-26.76-10.87-26.76-26.46s12.18-26.45,27.16-26.45a26.26,26.26,0,0,1,16.8,5.63A5.56,5.56,0,0,1,272.69,97.6Z"/><path class="cls-1" d="M320.57,123.85a5.43,5.43,0,0,1,5.54,5.43,5.51,5.51,0,0,1-2.32,4.33c-6.53,5.33-12.47,6.54-19.71,6.54-15.79,0-26.66-11.87-26.66-26.46,0-16.19,10.87-26.55,25.95-26.55,16.6,0,24.95,13.58,24.95,23.23,0,5.23-2.72,6.74-6.34,6.74H292.81a1.23,1.23,0,0,0-1.3,1.51c1.91,7.24,6.53,10.76,13.57,10.76a18.35,18.35,0,0,0,11.27-3.82A6.89,6.89,0,0,1,320.57,123.85Zm-28.86-17.2c-.2.91,0,1.51,1.3,1.51h21.63c1.31,0,1.51-.81,1.31-1.51-1.81-6.44-6.34-9.86-12.37-9.86S293,100.41,291.71,106.65Z"/><path class="cls-1" d="M347.33,101.92c0,2.11,1.91,3,7.85,5,13,4.33,18.3,9.26,18.3,16.8,0,9.35-7.64,16.09-19.11,16.09-8.65,0-21-6.43-21-11.66a5.28,5.28,0,0,1,5.23-5.34c1.31,0,3.12.91,4.83,2.52a15.71,15.71,0,0,0,11,4.22c4.93,0,7.55-2,7.55-5.43,0-2.31-2.62-3.42-9.46-5.63-9.55-3-16.9-6.74-16.9-16.09,0-9.06,7.15-15.19,17.61-15.19A29.09,29.09,0,0,1,370.06,93a5.37,5.37,0,0,1,2.12,4,5.73,5.73,0,0,1-5.33,5.33,4.8,4.8,0,0,1-2.92-1.1,18.31,18.31,0,0,0-10.76-3.62C348.94,97.6,347.33,99.41,347.33,101.92Z"/></g></g></svg>