<svg xmlns="http://www.w3.org/2000/svg" viewBox="0 0 35.45 215.51"><defs><style>.cls-1{fill:#ecc935;}</style></defs><g id="Layer_2" data-name="Layer 2"><g id="Layer_1-2" data-name="Layer 1"><path class="cls-1" d="M34.15,200.43c1.74,7.19-1.85,13-8.75,14.65s-12.69-1.68-14.47-9a12,12,0,0,1,.63-7.89,2.47,2.47,0,0,1,1.57-1.4,2.2,2.2,0,0,1,2.66,1.63,2.68,2.68,0,0,1-.38,1.79,7.33,7.33,0,0,0-.36,4.94c1.09,4.53,4.71,6.27,9.16,5.19s6.88-4.28,5.78-8.8a7.15,7.15,0,0,0-2.88-4.36,2.18,2.18,0,0,1,.67-3.94,2,2,0,0,1,1.65.35A11.57,11.57,0,0,1,34.15,200.43Z"/><path class="cls-1" d="M6.05,182.47a11.95,11.95,0,1,1,23.53-4.16,11.76,11.76,0,0,1-9.64,14.07C13.11,193.59,7.31,189.59,6.05,182.47Zm13,5.07c4.35-.77,7.07-4.16,6.32-8.42s-4.48-6.55-8.84-5.78-7.06,4.2-6.31,8.46S14.69,188.31,19.05,187.54Z"/><path class="cls-1" d="M12.28,159.15c-.3.36-.09.74.3.7l11.22-1.24a2.34,2.34,0,1,1,.52,4.66L6,165.29a2.29,2.29,0,0,1-2.58-2.08,2.4,2.4,0,0,1,.68-2l11.71-12.39c.27-.26.19-.75-.31-.69L4.26,149.41a2.34,2.34,0,0,1-.51-4.66l18.3-2a2.3,2.3,0,0,1,2.59,2.11,2.4,2.4,0,0,1-.68,1.93Z"/><path class="cls-1" d="M5.1,138.45a2,2,0,0,1-2,2.19,2,2,0,0,1-2.15-2l-.8-15.07a2,2,0,0,1,1.93-2.21,2,2,0,0,1,2.19,2l.25,4.78c0,.3.19.42.48.41l16.15-.86a2.34,2.34,0,1,1,.25,4.68l-16.15.86c-.29,0-.45.15-.43.45Z"/><path class="cls-1" d="M1.41,110.26A2.39,2.39,0,0,1,0,108.07a2.28,2.28,0,0,1,1.43-2.27l18.51-8.31a2.4,2.4,0,0,1,.93-.2,2.29,2.29,0,0,1,2.23,2.35,2.26,2.26,0,0,1-1.39,2.11l-4.4,1.77a.35.35,0,0,0-.23.36l0,8.41a.34.34,0,0,0,.23.34l4.38,1.83A2.13,2.13,0,0,1,23,116.51a2.33,2.33,0,0,1-2.25,2.4,2.45,2.45,0,0,1-.93-.23Zm11,.27a.36.36,0,0,0,.53-.33v-4.39a.33.33,0,0,0-.49-.33l-5.25,2.16c-.4.13-.4.52,0,.69Z"/><path class="cls-1" d="M24.21,83.36c-.41,7.38-5.52,11.89-12.6,11.49C4.36,94.45-.06,89.58.36,82a12,12,0,0,1,2.89-7.38,2.47,2.47,0,0,1,1.9-.88,2.21,2.21,0,0,1,2.08,2.33,2.75,2.75,0,0,1-.88,1.6,7.37,7.37,0,0,0-1.78,4.63c-.26,4.64,2.7,7.35,7.28,7.6s7.81-2.11,8.07-6.75a7.25,7.25,0,0,0-1.5-5,2.15,2.15,0,0,1-.51-1.51,2.2,2.2,0,0,1,2.29-2.06,2.07,2.07,0,0,1,1.48.81A11.57,11.57,0,0,1,24.21,83.36Z"/><path class="cls-1" d="M5.79,69.24A2,2,0,0,1,3.5,71.08a2,2,0,0,1-1.81-2.32l1.65-15A2,2,0,0,1,5.6,51.89a2,2,0,0,1,1.84,2.33L6.92,59a.4.4,0,0,0,.41.48l16.08,1.77a2.34,2.34,0,1,1-.51,4.65L6.82,64.11c-.3,0-.47.08-.51.38Z"/><path class="cls-1" d="M22.72,21.68c6.22,1.18,8.78,5.56,7.64,11.62s-5.06,9.19-11.3,8L7.77,39.24a2.34,2.34,0,0,1,.87-4.6L20,36.78c3.24.61,5.54-.7,6.21-4.24s-1-5.62-4.23-6.24L10.63,24.16a2.28,2.28,0,0,1-1.87-2.73,2.31,2.31,0,0,1,2.74-1.87Z"/><path class="cls-1" d="M15.41.79a2.6,2.6,0,0,1,2.52-.7,2.12,2.12,0,0,1,1.42,2.39,2,2,0,0,1-1,1.55A6.05,6.05,0,0,0,16,7.66c-.52,2.08.16,3.33,1.63,3.7S20,10.9,21.54,7.78c2.2-4.52,4.92-6.43,8.73-5.49,4.1,1,6,4.68,4.85,9.22a11.4,11.4,0,0,1-4.9,6.91,3,3,0,0,1-2.13.5,2,2,0,0,1-1.63-2.48A2.36,2.36,0,0,1,27.72,15a6.91,6.91,0,0,0,3.38-4.47c.52-2.11-.2-3.58-1.74-4C28,6.18,27,7,25.45,10c-2,4.06-4.71,6.65-8.87,5.62-3.65-.9-5.89-4.34-4.75-9A10.3,10.3,0,0,1,15.41.79Z"/></g></g></svg>