<svg xmlns="http://www.w3.org/2000/svg" xmlns:xlink="http://www.w3.org/1999/xlink" viewBox="0 0 337.06 306.32"><defs><style>.cls-1{isolation:isolate;}.cls-2,.cls-60,.cls-61,.cls-62,.cls-63,.cls-64,.cls-65,.cls-66,.cls-67,.cls-68,.cls-78,.cls-79,.cls-80{mix-blend-mode:multiply;}.cls-3,.cls-70{fill:#fff;}.cls-3{opacity:0;}.cls-4{fill:#f9f9f9;}.cls-33,.cls-4{opacity:0.05;}.cls-5{fill:#f3f3f3;}.cls-34,.cls-5{opacity:0.1;}.cls-6{fill:#ededed;}.cls-35,.cls-6{opacity:0.14;}.cls-7{fill:#e7e7e7;}.cls-36,.cls-7{opacity:0.19;}.cls-8{fill:#e1e1e1;}.cls-37,.cls-8{opacity:0.24;}.cls-9{fill:#dadada;}.cls-38,.cls-9{opacity:0.29;}.cls-10{fill:#d4d4d4;}.cls-10,.cls-39{opacity:0.33;}.cls-11{fill:#cecece;}.cls-11,.cls-40{opacity:0.38;}.cls-12{fill:#c8c8c8;}.cls-12,.cls-41{opacity:0.43;}.cls-13,.cls-40{fill:#c2c2c2;}.cls-13,.cls-42{opacity:0.48;}.cls-14{fill:#bcbcbc;}.cls-14,.cls-43{opacity:0.52;}.cls-15{fill:#b6b6b6;}.cls-15,.cls-44{opacity:0.57;}.cls-16{fill:#b0b0b0;}.cls-16,.cls-45{opacity:0.62;}.cls-17{fill:#aaa;}.cls-17,.cls-46{opacity:0.67;}.cls-18{fill:#a4a4a4;}.cls-18,.cls-47{opacity:0.71;}.cls-19{fill:#9d9d9d;}.cls-19,.cls-48{opacity:0.76;}.cls-20{fill:#979797;}.cls-20,.cls-49{opacity:0.81;}.cls-21{fill:#919191;}.cls-21,.cls-50{opacity:0.86;}.cls-22{fill:#8b8b8b;}.cls-22,.cls-51{opacity:0.9;}.cls-23{fill:#858585;}.cls-23,.cls-52{opacity:0.95;}.cls-24{fill:#7f7f7f;}.cls-25{fill:#ed7000;}.cls-26{fill:#8f8f8f;}.cls-27{fill:#6b6b6b;}.cls-28{fill:#bfbfbf;}.cls-29,.cls-30{opacity:0.42;}.cls-29,.cls-30,.cls-31,.cls-32,.cls-56,.cls-58,.cls-71,.cls-72,.cls-73,.cls-74,.cls-81,.cls-84,.cls-87,.cls-89{mix-blend-mode:overlay;}.cls-29{fill:url(#linear-gradient);}.cls-30{fill:url(#linear-gradient-2);}.cls-31,.cls-32{opacity:0.48;}.cls-31{fill:url(#linear-gradient-3);}.cls-32{fill:url(#linear-gradient-4);}.cls-33{fill:#f7f7f7;}.cls-34{fill:#f0f0f0;}.cls-35{fill:#e8e8e8;}.cls-36{fill:#e0e0e0;}.cls-37{fill:#d9d9d9;}.cls-38{fill:#d1d1d1;}.cls-39{fill:#c9c9c9;}.cls-41{fill:#bababa;}.cls-42{fill:#b2b2b2;}.cls-43{fill:#ababab;}.cls-44{fill:#a3a3a3;}.cls-45{fill:#9b9b9b;}.cls-46{fill:#949494;}.cls-47{fill:#8c8c8c;}.cls-48{fill:#848484;}.cls-49{fill:#7d7d7d;}.cls-50{fill:#757575;}.cls-51{fill:#6d6d6d;}.cls-52{fill:#666;}.cls-53{fill:#5e5e5e;}.cls-54{fill:#0c427b;}.cls-55{fill:#1471d3;}.cls-56{opacity:0.55;fill:url(#linear-gradient-5);}.cls-57{fill:#1783f5;}.cls-58{opacity:0.49;fill:url(#linear-gradient-6);}.cls-59{fill:#1162b8;}.cls-60,.cls-61,.cls-62,.cls-63,.cls-64,.cls-65,.cls-66,.cls-67,.cls-68{opacity:0.5;}.cls-60{fill:url(#linear-gradient-7);}.cls-61{fill:url(#linear-gradient-8);}.cls-62{fill:url(#linear-gradient-9);}.cls-63{fill:url(#linear-gradient-10);}.cls-64{fill:url(#linear-gradient-11);}.cls-65{fill:url(#linear-gradient-12);}.cls-66{fill:url(#linear-gradient-13);}.cls-67{fill:url(#linear-gradient-14);}.cls-68{fill:url(#linear-gradient-15);}.cls-69{fill:#181d20;}.cls-71,.cls-72,.cls-73,.cls-74{opacity:0.57;}.cls-71{fill:url(#linear-gradient-16);}.cls-72{fill:url(#linear-gradient-17);}.cls-73{fill:url(#linear-gradient-18);}.cls-74{fill:url(#linear-gradient-19);}.cls-75{fill:#30393f;}.cls-76,.cls-77{opacity:0.17;}.cls-76,.cls-77,.cls-85{mix-blend-mode:screen;}.cls-76{fill:url(#linear-gradient-20);}.cls-77{fill:url(#linear-gradient-21);}.cls-78,.cls-79,.cls-80{opacity:0.47;}.cls-78{fill:url(#linear-gradient-22);}.cls-79{fill:url(#linear-gradient-23);}.cls-80{fill:url(#linear-gradient-24);}.cls-81{opacity:0.59;fill:url(#linear-gradient-25);}.cls-82{fill:#f14c23;}.cls-83{fill:#ea977a;}.cls-84{opacity:0.72;fill:url(#radial-gradient);}.cls-85{opacity:0.39;fill:url(#radial-gradient-2);}.cls-86{fill:#7b1d06;}.cls-87{opacity:0.45;fill:url(#linear-gradient-26);}.cls-88{fill:#3e0f03;}.cls-89{opacity:0.61;fill:url(#linear-gradient-27);}</style><linearGradient id="linear-gradient" x1="0.69" y1="185.36" x2="337.06" y2="185.36" gradientUnits="userSpaceOnUse"><stop offset="0" stop-color="#4c4c4c"/><stop offset="0.7" stop-color="#fff"/></linearGradient><linearGradient id="linear-gradient-2" x1="12.89" y1="178.47" x2="324.9" y2="178.47" xlink:href="#linear-gradient"/><linearGradient id="linear-gradient-3" x1="12.81" y1="227.44" x2="324.89" y2="227.44" gradientUnits="userSpaceOnUse"><stop offset="0" stop-color="#4c4c4c"/><stop offset="0" stop-color="#4d4d4d"/><stop offset="0.1" stop-color="#828282"/><stop offset="0.2" stop-color="#afafaf"/><stop offset="0.29" stop-color="#d2d2d2"/><stop offset="0.37" stop-color="#ebebeb"/><stop offset="0.45" stop-color="#fafafa"/><stop offset="0.52" stop-color="#fff"/><stop offset="0.57" stop-color="#f7f7f7"/><stop offset="0.65" stop-color="#e1e1e1"/><stop offset="0.75" stop-color="#bebebe"/><stop offset="0.87" stop-color="#8c8c8c"/><stop offset="1" stop-color="#4e4e4e"/><stop offset="1" stop-color="#4c4c4c"/></linearGradient><linearGradient id="linear-gradient-4" x1="0.6" y1="239.35" x2="337.06" y2="239.35" xlink:href="#linear-gradient-3"/><linearGradient id="linear-gradient-5" x1="70.64" y1="173.58" x2="269.24" y2="173.58" xlink:href="#linear-gradient"/><linearGradient id="linear-gradient-6" x1="67.75" y1="174.66" x2="272.02" y2="174.66" xlink:href="#linear-gradient"/><linearGradient id="linear-gradient-7" x1="200.67" y1="130.26" x2="235.69" y2="130.26" xlink:href="#linear-gradient"/><linearGradient id="linear-gradient-8" x1="103.53" y1="130.26" x2="138.58" y2="130.26" xlink:href="#linear-gradient"/><linearGradient id="linear-gradient-9" x1="250.5" y1="152.92" x2="271.53" y2="152.92" xlink:href="#linear-gradient"/><linearGradient id="linear-gradient-10" x1="67.9" y1="152.93" x2="89.07" y2="152.93" xlink:href="#linear-gradient"/><linearGradient id="linear-gradient-11" x1="88.93" y1="156.7" x2="155.23" y2="156.7" xlink:href="#linear-gradient"/><linearGradient id="linear-gradient-12" x1="184.53" y1="156.7" x2="250.4" y2="156.7" xlink:href="#linear-gradient"/><linearGradient id="linear-gradient-13" x1="104.08" y1="202.28" x2="236.24" y2="202.28" xlink:href="#linear-gradient"/><linearGradient id="linear-gradient-14" x1="201.19" y1="229.88" x2="272.02" y2="229.88" xlink:href="#linear-gradient"/><linearGradient id="linear-gradient-15" x1="68.4" y1="229.89" x2="139.1" y2="229.89" xlink:href="#linear-gradient"/><linearGradient id="linear-gradient-16" x1="168.38" y1="117.97" x2="179.11" y2="117.97" xlink:href="#linear-gradient"/><linearGradient id="linear-gradient-17" x1="168.33" y1="100.24" x2="179.19" y2="100.24" xlink:href="#linear-gradient"/><linearGradient id="linear-gradient-18" x1="173.74" y1="98.11" x2="185.72" y2="98.11" xlink:href="#linear-gradient"/><linearGradient id="linear-gradient-19" x1="161.68" y1="107" x2="173.74" y2="107" xlink:href="#linear-gradient"/><linearGradient id="linear-gradient-20" x1="127.53" y1="138.13" x2="161.67" y2="138.13" xlink:href="#linear-gradient"/><linearGradient id="linear-gradient-21" x1="185.67" y1="121.28" x2="219.96" y2="121.28" xlink:href="#linear-gradient"/><linearGradient id="linear-gradient-22" x1="173.74" y1="74.12" x2="213.77" y2="74.12" xlink:href="#linear-gradient"/><linearGradient id="linear-gradient-23" x1="149.72" y1="86.38" x2="185.66" y2="86.38" xlink:href="#linear-gradient"/><linearGradient id="linear-gradient-24" x1="115.6" y1="137.93" x2="161.68" y2="137.93" xlink:href="#linear-gradient"/><linearGradient id="linear-gradient-25" x1="129.29" y1="131.75" x2="219.69" y2="131.75" xlink:href="#linear-gradient"/><radialGradient id="radial-gradient" cx="177.56" cy="46.27" r="42.07" gradientUnits="userSpaceOnUse"><stop offset="0.07" stop-color="#fff"/><stop offset="0.28" stop-color="#fcfcfc"/><stop offset="0.42" stop-color="#f3f3f3"/><stop offset="0.54" stop-color="#e4e4e4"/><stop offset="0.65" stop-color="#cfcfcf"/><stop offset="0.76" stop-color="#b3b3b3"/><stop offset="0.85" stop-color="#919191"/><stop offset="0.94" stop-color="#696969"/><stop offset="1" stop-color="#4c4c4c"/></radialGradient><radialGradient id="radial-gradient-2" cx="175.99" cy="46.81" r="11.01" xlink:href="#radial-gradient"/><linearGradient id="linear-gradient-26" x1="154.14" y1="48.1" x2="209.61" y2="48.1" xlink:href="#linear-gradient"/><linearGradient id="linear-gradient-27" x1="128.24" y1="63.66" x2="192.23" y2="8.03" gradientUnits="userSpaceOnUse"><stop offset="0" stop-color="#4c4c4c"/><stop offset="0.04" stop-color="#696969"/><stop offset="0.13" stop-color="#969696"/><stop offset="0.21" stop-color="#bcbcbc"/><stop offset="0.29" stop-color="#d9d9d9"/><stop offset="0.36" stop-color="#eee"/><stop offset="0.44" stop-color="#fbfbfb"/><stop offset="0.52" stop-color="#fff"/><stop offset="0.57" stop-color="#f9f9f9"/><stop offset="0.65" stop-color="#e7e7e7"/><stop offset="0.74" stop-color="#cacaca"/><stop offset="0.83" stop-color="#a1a1a1"/><stop offset="0.94" stop-color="#6e6e6e"/><stop offset="1" stop-color="#4c4c4c"/></linearGradient></defs><g class="cls-1"><g id="Layer_2" data-name="Layer 2"><g id="Layer_1-2" data-name="Layer 1"><g class="cls-2"><path class="cls-3" d="M336.38,199.69v-1.15c0,.37,0,.75-.06,1.12.59-25.41-15.86-51-49.46-70.36C254,110.31,211,100.82,168,100.81s-85.87,9.5-118.54,28.48S.66,173,.69,197.81c0-.08,0-.16,0-.24v1.13c0-.3,0-.6,0-.89,0-.08,0-.16,0-.24l0,11c-.07,25,16.47,50.13,49.58,69.25,32.89,19,75.91,28.48,118.88,28.48s85.88-9.49,118.56-28.48c32.46-18.87,48.71-43.55,48.78-68.27l0-11C336.43,198.92,336.4,199.31,336.38,199.69Z"/><path class="cls-4" d="M336.38,199.08v-1.15c0,.38,0,.75-.06,1.13.59-25.41-15.86-51-49.46-70.36C254,109.71,211,100.21,168,100.21S82.13,109.7,49.46,128.69.66,172.4.69,197.2c0-.08,0-.16,0-.24v1.14c0-.3,0-.6,0-.9,0-.08,0-.16,0-.24l0,11c-.07,25,16.47,50.13,49.58,69.25,32.89,19,75.91,28.48,118.88,28.48s85.88-9.49,118.56-28.48c32.46-18.87,48.71-43.56,48.78-68.28l0-11C336.43,198.32,336.4,198.7,336.38,199.08Z"/><path class="cls-5" d="M336.38,198.48v-1.15c0,.38,0,.75-.06,1.12.59-25.41-15.86-51-49.46-70.36C254,109.1,211,99.61,168,99.61S82.13,109.1,49.46,128.08.66,171.79.69,196.6c0-.08,0-.16,0-.24v1.13c0-.29,0-.59,0-.89,0-.08,0-.16,0-.24l0,11c-.07,25.05,16.47,50.14,49.58,69.25,32.89,19,75.91,28.49,118.88,28.48s85.88-9.49,118.56-28.48c32.46-18.87,48.71-43.55,48.78-68.27l0-11C336.43,197.71,336.4,198.1,336.38,198.48Z"/><path class="cls-6" d="M336.38,197.88v-1.15c0,.37,0,.75-.06,1.12.59-25.41-15.86-51-49.46-70.36C254,108.5,211,99,168,99s-85.87,9.5-118.54,28.48S.66,171.19.69,196c0-.08,0-.16,0-.24v1.14c0-.3,0-.6,0-.9,0-.08,0-.16,0-.24l0,11C.53,231.83,17.07,256.91,50.18,276c32.89,19,75.91,28.48,118.88,28.48S254.94,295,287.62,276c32.46-18.87,48.71-43.55,48.78-68.28l0-11C336.43,197.11,336.4,197.49,336.38,197.88Z"/><path class="cls-7" d="M336.38,197.27v-1.15c0,.38,0,.75-.06,1.13.59-25.42-15.86-51-49.46-70.36C254,107.9,211,98.4,168,98.4s-85.87,9.49-118.54,28.48S.66,170.59.69,195.39c0-.08,0-.16,0-.24v1.14c0-.3,0-.6,0-.9,0-.08,0-.16,0-.24l0,11c-.07,25,16.47,50.13,49.58,69.25,32.89,19,75.91,28.48,118.88,28.47s85.88-9.49,118.56-28.48c32.46-18.86,48.71-43.55,48.78-68.27l0-11C336.43,196.5,336.4,196.89,336.38,197.27Z"/><path class="cls-8" d="M336.38,196.67v-1.15c0,.37,0,.75-.06,1.12.59-25.41-15.86-51-49.46-70.36C254,107.29,211,97.8,168,97.79s-85.87,9.5-118.54,28.48S.66,170,.69,194.79c0-.08,0-.16,0-.24v1.13c0-.3,0-.6,0-.89,0-.08,0-.16,0-.24l0,11c-.07,25.05,16.47,50.13,49.58,69.25,32.89,19,75.91,28.48,118.88,28.48s85.88-9.49,118.56-28.48c32.46-18.87,48.71-43.55,48.78-68.27l0-11C336.43,195.9,336.4,196.28,336.38,196.67Z"/><path class="cls-9" d="M336.38,196.06v-1.15c0,.38,0,.75-.06,1.13.59-25.41-15.86-51-49.46-70.36C254,106.69,211,97.19,168,97.19s-85.87,9.49-118.54,28.48S.66,169.38.69,194.18c0-.08,0-.16,0-.24v1.14c0-.3,0-.6,0-.9,0-.08,0-.16,0-.24l0,11c-.07,25,16.47,50.13,49.58,69.25,32.89,19,75.91,28.48,118.88,28.48s85.88-9.49,118.56-28.48c32.46-18.87,48.71-43.56,48.78-68.28l0-11C336.43,195.3,336.4,195.68,336.38,196.06Z"/><path class="cls-10" d="M336.38,195.46v-1.15c0,.37,0,.75-.06,1.12.59-25.41-15.86-51-49.46-70.36C254,106.08,211,96.59,168,96.59s-85.87,9.49-118.54,28.47S.66,168.77.69,193.58c0-.08,0-.16,0-.24v1.13c0-.29,0-.59,0-.89,0-.08,0-.16,0-.24l0,11c-.07,25,16.47,50.13,49.58,69.25,32.89,19,75.91,28.48,118.88,28.48s85.88-9.49,118.56-28.48c32.46-18.87,48.71-43.55,48.78-68.27l0-11C336.43,194.69,336.4,195.08,336.38,195.46Z"/><path class="cls-11" d="M336.38,194.86v-1.15c0,.37,0,.75-.06,1.12.59-25.41-15.86-51-49.46-70.36C254,105.48,211,96,168,96s-85.87,9.5-118.54,28.48S.66,168.17.69,193c0-.08,0-.16,0-.24v1.14c0-.3,0-.6,0-.89,0-.09,0-.17,0-.25l0,11C.53,228.81,17.07,253.89,50.18,273c32.89,19,75.91,28.48,118.88,28.48S254.94,292,287.62,273c32.46-18.87,48.71-43.55,48.78-68.28l0-11C336.43,194.09,336.4,194.47,336.38,194.86Z"/><path class="cls-12" d="M336.38,194.25V193.1c0,.38,0,.75-.06,1.13.59-25.42-15.86-51-49.46-70.36C254,104.87,211,95.38,168,95.38s-85.87,9.49-118.54,28.48S.66,167.57.69,192.37c0-.08,0-.16,0-.24v1.14c0-.3,0-.6,0-.9,0-.08,0-.16,0-.24l0,11c-.07,25,16.47,50.13,49.58,69.24,32.89,19,75.91,28.49,118.88,28.48s85.88-9.49,118.56-28.48c32.46-18.86,48.71-43.55,48.78-68.27l0-11C336.43,193.48,336.4,193.87,336.38,194.25Z"/><path class="cls-13" d="M336.38,193.65V192.5c0,.37,0,.75-.06,1.12.59-25.41-15.86-51-49.46-70.36C254,104.27,211,94.77,168,94.77s-85.87,9.5-118.54,28.48S.66,167,.69,191.77c0-.09,0-.16,0-.24v1.13c0-.3,0-.59,0-.89,0-.09,0-.16,0-.24l0,11c-.07,25,16.47,50.13,49.58,69.25,32.89,19,75.91,28.48,118.88,28.48s85.88-9.49,118.56-28.48c32.46-18.87,48.71-43.55,48.78-68.27l0-11C336.43,192.88,336.4,193.26,336.38,193.65Z"/><path class="cls-14" d="M336.38,193v-1.15c0,.38,0,.75-.06,1.13.59-25.41-15.86-51-49.46-70.36C254,103.67,211,94.17,168,94.17s-85.87,9.49-118.54,28.48S.66,166.36.69,191.16c0-.08,0-.16,0-.24v1.14c0-.3,0-.6,0-.9,0-.08,0-.16,0-.24l0,11c-.07,25,16.47,50.13,49.58,69.25,32.89,19,75.91,28.48,118.88,28.48s85.88-9.5,118.56-28.48c32.46-18.87,48.71-43.56,48.78-68.28l0-11C336.43,192.28,336.4,192.66,336.38,193Z"/><path class="cls-15" d="M336.38,192.44v-1.15c0,.37,0,.75-.06,1.13.59-25.42-15.86-51-49.46-70.36C254,103.06,211,93.57,168,93.57S82.13,103.06,49.46,122,.66,165.75.69,190.56c0-.08,0-.16,0-.24v1.13c0-.29,0-.59,0-.89,0-.08,0-.16,0-.24l0,11c-.07,25,16.47,50.13,49.58,69.25,32.89,19,75.91,28.48,118.88,28.48s85.88-9.49,118.56-28.48c32.46-18.87,48.71-43.55,48.78-68.27l0-11C336.43,191.67,336.4,192.05,336.38,192.44Z"/><path class="cls-16" d="M336.38,191.84v-1.15c0,.37,0,.75-.06,1.12.59-25.41-15.86-51-49.46-70.36C254,102.46,211,93,168,93s-85.87,9.5-118.54,28.48S.66,165.15.69,190c0-.08,0-.16,0-.24v1.14c0-.3,0-.6,0-.89,0-.09,0-.17,0-.25l0,11c-.07,25,16.47,50.13,49.58,69.25,32.89,19,75.91,28.48,118.88,28.48S254.94,289,287.62,270c32.46-18.87,48.71-43.56,48.78-68.28l0-11C336.43,191.07,336.4,191.45,336.38,191.84Z"/><path class="cls-17" d="M336.38,191.23v-1.15c0,.38,0,.75-.06,1.13.59-25.42-15.86-51-49.46-70.36C254,101.85,211,92.36,168,92.36s-85.87,9.49-118.54,28.48S.66,164.55.69,189.35c0-.08,0-.16,0-.24v1.14c0-.3,0-.6,0-.9,0-.08,0-.16,0-.24l0,11c-.07,25,16.47,50.13,49.58,69.24,32.89,19,75.91,28.49,118.88,28.48s85.88-9.49,118.56-28.48c32.46-18.86,48.71-43.55,48.78-68.27l0-11C336.43,190.46,336.4,190.85,336.38,191.23Z"/><path class="cls-18" d="M336.38,190.63v-1.15c0,.37,0,.75-.06,1.12.59-25.41-15.86-51-49.46-70.36C254,101.25,211,91.75,168,91.75s-85.87,9.5-118.54,28.48S.66,163.94.69,188.75c0-.09,0-.17,0-.24v1.13c0-.29,0-.59,0-.89,0-.09,0-.17,0-.24l0,11c-.07,25.05,16.47,50.13,49.58,69.25,32.89,19,75.91,28.48,118.88,28.48s85.88-9.49,118.56-28.48c32.46-18.87,48.71-43.55,48.78-68.27l0-11C336.43,189.86,336.4,190.24,336.38,190.63Z"/><path class="cls-19" d="M336.38,190v-1.15c0,.38,0,.75-.06,1.13.59-25.42-15.86-51-49.46-70.36C254,100.65,211,91.15,168,91.15s-85.87,9.49-118.54,28.48S.66,163.34.69,188.14c0-.08,0-.16,0-.24V189c0-.3,0-.6,0-.9,0-.08,0-.16,0-.24l0,11c-.07,25,16.47,50.13,49.58,69.25,32.89,19,75.91,28.48,118.88,28.48s85.88-9.5,118.56-28.49c32.46-18.86,48.71-43.55,48.78-68.27l0-11C336.43,189.26,336.4,189.64,336.38,190Z"/><path class="cls-20" d="M336.38,189.42v-1.15c0,.37,0,.75-.06,1.13.59-25.42-15.86-51-49.46-70.36C254,100,211,90.55,168,90.55S82.13,100,49.46,119,.66,162.73.69,187.54c0-.08,0-.16,0-.24v1.14c0-.3,0-.6,0-.9,0-.08,0-.16,0-.24l0,11c-.07,25.05,16.47,50.13,49.58,69.25,32.89,19,75.91,28.48,118.88,28.48s85.88-9.49,118.56-28.48C320.08,248.7,336.33,224,336.4,199.3l0-11C336.43,188.65,336.4,189,336.38,189.42Z"/><path class="cls-21" d="M336.38,188.82v-1.16c0,.38,0,.76-.06,1.13.59-25.41-15.86-51-49.46-70.36C254,99.44,211,89.94,168,89.94s-85.87,9.5-118.54,28.48S.66,162.13.69,186.93c0-.08,0-.16,0-.24v1.14c0-.3,0-.6,0-.89,0-.09,0-.17,0-.25l0,11C.53,222.77,17.07,247.85,50.18,267c32.89,19,75.91,28.48,118.88,28.48S254.94,286,287.62,267c32.46-18.87,48.71-43.56,48.78-68.28l0-11C336.43,188.05,336.4,188.43,336.38,188.82Z"/><path class="cls-22" d="M336.38,188.21v-1.15c0,.37,0,.75-.06,1.13.59-25.42-15.86-51-49.46-70.36C254,98.83,211,89.34,168,89.34S82.13,98.83,49.46,117.81.66,161.53.69,186.33c0-.08,0-.16,0-.24v1.14c0-.3,0-.6,0-.9,0-.08,0-.16,0-.24l0,11c-.07,25,16.47,50.13,49.58,69.24,32.89,19,75.91,28.49,118.88,28.49s85.88-9.5,118.56-28.49c32.46-18.86,48.71-43.55,48.78-68.27l0-11C336.43,187.44,336.4,187.83,336.38,188.21Z"/><path class="cls-23" d="M336.38,187.61v-1.15c0,.37,0,.75-.06,1.12.59-25.41-15.86-51-49.46-70.36C254,98.23,211,88.73,168,88.73s-85.87,9.5-118.54,28.48S.66,160.92.69,185.72c0-.08,0-.16,0-.24v1.14c0-.29,0-.59,0-.89,0-.09,0-.17,0-.25l0,11c-.07,25.05,16.47,50.13,49.58,69.25,32.89,19,75.91,28.48,118.88,28.48s85.88-9.49,118.56-28.48c32.46-18.87,48.71-43.55,48.78-68.27l0-11C336.43,186.84,336.4,187.22,336.38,187.61Z"/><path class="cls-24" d="M336.38,187v-1.15c0,.38,0,.76-.06,1.13.59-25.42-15.86-51-49.46-70.36C254,97.63,211,88.13,168,88.13S82.13,97.62,49.46,116.61.66,160.32.69,185.12c0-.08,0-.16,0-.24V186c0-.3,0-.6,0-.9,0-.08,0-.16,0-.24l0,11C.53,221,17.07,246,50.18,265.16c32.89,19,75.91,28.48,118.88,28.48s85.88-9.5,118.56-28.49c32.46-18.86,48.71-43.55,48.78-68.27l0-11C336.43,186.23,336.4,186.62,336.38,187Z"/></g><path class="cls-25" d="M309,239c-.87.77-1.81,1.52-2.72,2.27C307.17,240.54,308.11,239.79,309,239Z"/><path class="cls-25" d="M313.38,234.93c-.78.76-1.61,1.5-2.42,2.26C311.77,236.43,312.6,235.69,313.38,234.93Z"/><path class="cls-25" d="M304.21,243c-1,.8-2.09,1.58-3.15,2.37C302.12,244.58,303.2,243.8,304.21,243Z"/><path class="cls-25" d="M23.54,234.79c-.64-.62-1.23-1.26-1.84-1.9C22.31,233.53,22.9,234.17,23.54,234.79Z"/><path class="cls-25" d="M299.05,246.87c-1.21.86-2.47,1.7-3.74,2.54C296.58,248.57,297.84,247.73,299.05,246.87Z"/><path class="cls-25" d="M28,238.91c-.7-.61-1.35-1.24-2-1.87C26.65,237.67,27.3,238.3,28,238.91Z"/><path class="cls-25" d="M315.22,233c.4-.43.82-.85,1.22-1.27v0C316.05,232.16,315.63,232.59,315.22,233Z"/><path class="cls-25" d="M38.08,246.83c-.74-.52-1.42-1.06-2.13-1.59C36.66,245.77,37.34,246.31,38.08,246.83Z"/><path class="cls-25" d="M293.5,250.63q-2.87,1.85-5.92,3.63Q290.64,252.48,293.5,250.63Z"/><path class="cls-25" d="M43.7,250.61c-.64-.41-1.23-.84-1.86-1.25C42.47,249.77,43.06,250.2,43.7,250.61Z"/><path class="cls-25" d="M32.85,242.93c-.74-.58-1.42-1.18-2.13-1.77C31.43,241.75,32.11,242.35,32.85,242.93Z"/><path class="cls-25" d="M12.33,180.47c0,.5,0,1,.06,1.49a.17.17,0,0,1,0-.07C12.36,181.42,12.35,181,12.33,180.47Z"/><path class="cls-25" d="M324.11,183.09v0Z"/><path class="cls-26" d="M.24,189.8c.07.8.19,1.6.3,2.41s.16,1.51.29,2.27.33,1.61.49,2.4.3,1.51.48,2.26.47,1.6.7,2.39.42,1.51.67,2.25.6,1.6.9,2.4.54,1.47.85,2.21.74,1.6,1.12,2.4.65,1.44,1,2.15.88,1.59,1.33,2.39.77,1.42,1.19,2.12,1,1.58,1.55,2.36.88,1.4,1.37,2.09,1.16,1.56,1.75,2.34,1,1.37,1.55,2,1.31,1.55,2,2.32,1.1,1.33,1.7,2,1.48,1.54,2.23,2.31,1.2,1.28,1.84,1.9S25.16,236.3,26,237s1.33,1.26,2,1.87c.87.76,1.81,1.51,2.72,2.25.71.59,1.39,1.19,2.13,1.77,1,.78,2,1.54,3.1,2.31.71.53,1.39,1.07,2.13,1.59,1.21.86,2.49,1.69,3.76,2.53.63.41,1.22.84,1.86,1.25q2.91,1.84,6,3.65c65.92,38,172.39,38,237.88,0q3.06-1.78,5.92-3.63c.62-.4,1.2-.82,1.81-1.22,1.27-.84,2.53-1.68,3.74-2.54.69-.49,1.34-1,2-1.5,1.06-.79,2.14-1.57,3.15-2.37.71-.56,1.36-1.14,2.05-1.71.91-.75,1.85-1.5,2.72-2.27.69-.6,1.31-1.22,2-1.83s1.64-1.5,2.42-2.26,1.22-1.27,1.84-1.91c.41-.43.83-.86,1.23-1.29s.64-.65.94-1c.59-.66,1.12-1.32,1.69-2s1.32-1.52,1.94-2.29,1-1.36,1.52-2,1.18-1.54,1.72-2.32.9-1.38,1.35-2.07,1-1.55,1.51-2.34.8-1.42,1.19-2.13.9-1.56,1.29-2.34.68-1.45,1-2.17.76-1.57,1.09-2.37.55-1.45.83-2.19.62-1.58.88-2.38.44-1.47.65-2.21.49-1.59.69-2.39.31-1.49.46-2.23.35-1.6.48-2.4.19-1.49.28-2.24.22-1.6.29-2.41.07-1.5.1-2.24c1.06-25.81-15.44-51.85-49.56-71.55-65.93-38.06-172.41-38.06-237.89,0C16.28,135.42,0,160.26,0,185.11c0,.81.06,1.6.09,2.41S.18,189,.24,189.8Zm12-11.78c0,.07,0,.15,0,.22,0-23.05,15.05-46.09,45.32-63.68,60.73-35.29,159.52-35.29,220.67,0,31.64,18.27,46.94,42.41,46,66.35,0-.67.09-1.33.09-2l0,8c0,.66-.06,1.33-.09,2s0,1.41-.09,2.11-.18,1.47-.26,2.21-.15,1.4-.27,2.1-.29,1.49-.44,2.23-.27,1.38-.43,2.06-.42,1.48-.64,2.22-.38,1.37-.6,2.06-.54,1.46-.82,2.19-.49,1.37-.77,2.05-.67,1.46-1,2.19-.6,1.34-.93,2-.81,1.47-1.22,2.21-.7,1.3-1.08,1.95-.94,1.45-1.41,2.18-.81,1.28-1.25,1.91-1.07,1.45-1.61,2.16-.91,1.26-1.4,1.87-1.21,1.44-1.82,2.15-1,1.22-1.55,1.82-1.36,1.42-2,2.13-1.09,1.17-1.68,1.74-1.52,1.43-2.29,2.14c-.59.55-1.16,1.11-1.78,1.66-.84.73-1.73,1.45-2.61,2.17-.61.51-1.19,1-1.82,1.52-.92.73-1.9,1.43-2.86,2.15-.65.48-1.26,1-1.93,1.45-1.12.79-2.3,1.56-3.46,2.35-.57.37-1.1.76-1.68,1.13-1.77,1.14-3.61,2.26-5.5,3.36-60.72,35.29-159.52,35.29-220.64,0q-2.88-1.66-5.58-3.38c-.62-.4-1.2-.82-1.81-1.22-1.15-.76-2.3-1.52-3.4-2.29-.68-.49-1.32-1-2-1.49-1-.71-1.95-1.41-2.86-2.13-.68-.53-1.3-1.08-1.95-1.61-.85-.7-1.73-1.4-2.54-2.11-.65-.57-1.24-1.14-1.86-1.72s-1.55-1.39-2.28-2.1-1.16-1.2-1.74-1.8-1.39-1.4-2-2.11-1.06-1.24-1.6-1.86-1.24-1.42-1.82-2.13-.95-1.26-1.43-1.89-1.11-1.45-1.63-2.17-.85-1.3-1.28-1.95-1-1.44-1.41-2.18-.75-1.32-1.12-2-.85-1.46-1.23-2.2-.62-1.33-.93-2-.73-1.5-1.05-2.25-.51-1.35-.77-2-.6-1.49-.85-2.24-.41-1.38-.61-2.07-.47-1.48-.66-2.23-.29-1.39-.44-2.09-.34-1.49-.45-2.24-.19-1.4-.28-2.1-.21-1.49-.27-2.24-.07-1.41-.1-2.11-.09-1.49-.09-2.24c0-.08,0-.15,0-.23Z"/><path class="cls-27" d="M12.31,188.49c0,.7,0,1.41.1,2.11s.18,1.49.27,2.24.16,1.4.28,2.1.3,1.5.45,2.24.27,1.39.44,2.09.43,1.49.66,2.23.38,1.38.61,2.07.56,1.5.85,2.24.49,1.36.77,2,.7,1.5,1.05,2.25.59,1.32.93,2,.82,1.47,1.23,2.2.72,1.33,1.12,2,.94,1.46,1.41,2.18.83,1.3,1.28,1.95,1.09,1.44,1.63,2.17.93,1.26,1.43,1.89,1.21,1.42,1.82,2.13,1,1.24,1.6,1.86,1.35,1.41,2,2.11,1.13,1.21,1.74,1.8,1.52,1.4,2.28,2.1,1.21,1.15,1.86,1.72c.81.71,1.69,1.41,2.54,2.11.65.53,1.27,1.08,1.95,1.61.91.72,1.9,1.42,2.86,2.13.67.5,1.31,1,2,1.49,1.1.77,2.25,1.53,3.4,2.29.61.4,1.19.82,1.81,1.22q2.7,1.71,5.58,3.38c61.12,35.29,159.92,35.29,220.64,0,1.89-1.1,3.73-2.22,5.5-3.36.58-.37,1.11-.76,1.68-1.13,1.16-.79,2.34-1.56,3.46-2.35.67-.48,1.28-1,1.93-1.45,1-.72,1.94-1.42,2.86-2.15.63-.5,1.21-1,1.82-1.52.88-.72,1.77-1.44,2.61-2.17.62-.55,1.19-1.11,1.78-1.66.77-.71,1.56-1.42,2.29-2.14s1.12-1.16,1.68-1.74,1.39-1.41,2-2.13,1-1.22,1.55-1.82,1.24-1.42,1.82-2.15.93-1.24,1.4-1.87,1.1-1.43,1.61-2.16.83-1.27,1.25-1.91,1-1.45,1.41-2.18.72-1.3,1.08-1.95.84-1.47,1.22-2.21.62-1.33.93-2,.7-1.46,1-2.19.52-1.37.77-2.05.58-1.46.82-2.19.4-1.37.6-2.06.45-1.48.64-2.22.28-1.37.43-2.06.32-1.49.44-2.23.18-1.4.27-2.1.2-1.47.26-2.21.06-1.4.09-2.11.08-1.33.09-2l0-8c0,.67-.06,1.33-.09,2s0,1.4-.09,2.1v.07c-.06.71-.17,1.43-.26,2.15s-.15,1.39-.26,2.09-.3,1.48-.45,2.22-.26,1.39-.44,2.08-.41,1.47-.63,2.21-.37,1.37-.6,2.06-.54,1.46-.81,2.19-.5,1.37-.78,2-.67,1.46-1,2.19-.6,1.34-.93,2-.81,1.46-1.21,2.19-.7,1.31-1.09,2-.93,1.44-1.4,2.16-.81,1.3-1.26,1.94-1.05,1.42-1.59,2.13-.92,1.27-1.42,1.9-1.19,1.41-1.79,2.11-1,1.24-1.57,1.85-1.33,1.39-2,2.09-1.12,1.2-1.72,1.79-1.48,1.38-2.22,2.07-1.21,1.16-1.85,1.72c-.81.71-1.67,1.4-2.52,2.1-.63.53-1.25,1.07-1.91,1.59-.9.72-1.86,1.41-2.8,2.1-.66.5-1.3,1-2,1.5-1.11.79-2.29,1.57-3.46,2.35-.57.37-1.1.76-1.68,1.13q-2.65,1.71-5.49,3.36c-60.73,35.29-159.53,35.29-220.65,0-1.92-1.11-3.77-2.23-5.57-3.38-.59-.38-1.14-.78-1.72-1.16-1.18-.78-2.37-1.55-3.5-2.35-.64-.45-1.22-.92-1.84-1.37-1-.75-2-1.49-3-2.25-.67-.52-1.28-1.06-1.93-1.59-.86-.71-1.74-1.41-2.56-2.13-.65-.56-1.24-1.14-1.87-1.71S34.77,225,34,224.33s-1.13-1.17-1.7-1.75-1.42-1.43-2.08-2.16-1.05-1.23-1.58-1.84-1.26-1.42-1.83-2.15-1-1.27-1.45-1.9-1.11-1.44-1.61-2.16-.86-1.3-1.28-2-1-1.45-1.42-2.17-.75-1.33-1.12-2-.85-1.46-1.22-2.2-.64-1.35-1-2-.71-1.47-1-2.2-.53-1.37-.79-2.05-.58-1.49-.84-2.23-.41-1.37-.61-2.06-.46-1.49-.65-2.24-.3-1.39-.45-2.09-.33-1.49-.46-2.24-.18-1.4-.27-2.1-.21-1.49-.27-2.24c0-.21,0-.42,0-.63,0-.49,0-1-.06-1.49,0-.74-.08-1.49-.08-2.23,0-.07,0-.15,0-.22l0,8c0,.08,0,.15,0,.23C12.22,187,12.28,187.74,12.31,188.49Z"/><path class="cls-28" d="M12.33,180.47c0,.48,0,.95.07,1.42,0,.23,0,.47,0,.7.06.75.18,1.49.27,2.24s.16,1.4.27,2.1.31,1.5.46,2.24.27,1.39.45,2.09.43,1.49.65,2.24.38,1.37.61,2.06.56,1.48.84,2.23.49,1.36.79,2.05.68,1.46,1,2.2.61,1.35,1,2,.81,1.47,1.22,2.2.72,1.32,1.12,2,.94,1.44,1.42,2.17.82,1.31,1.28,2,1.07,1.43,1.61,2.16.94,1.27,1.45,1.9,1.21,1.43,1.83,2.15,1,1.23,1.58,1.84,1.39,1.44,2.08,2.16,1.11,1.17,1.7,1.75,1.51,1.4,2.27,2.11,1.22,1.15,1.87,1.71c.82.72,1.7,1.42,2.56,2.13.65.53,1.26,1.07,1.93,1.59,1,.76,2,1.5,3,2.25.62.45,1.2.92,1.84,1.37,1.13.8,2.32,1.57,3.5,2.35.58.38,1.13.78,1.72,1.16,1.8,1.15,3.65,2.27,5.57,3.38,61.12,35.29,159.92,35.29,220.65,0q2.84-1.65,5.49-3.36c.58-.37,1.11-.76,1.68-1.13,1.17-.78,2.35-1.56,3.46-2.35.69-.49,1.33-1,2-1.5.94-.69,1.9-1.38,2.8-2.1.66-.52,1.28-1.06,1.91-1.59.85-.7,1.71-1.39,2.52-2.1.64-.56,1.23-1.14,1.85-1.72s1.51-1.37,2.22-2.07,1.15-1.19,1.72-1.79,1.37-1.39,2-2.09,1.05-1.23,1.57-1.85,1.23-1.4,1.79-2.11.95-1.27,1.42-1.9,1.09-1.42,1.59-2.13.84-1.29,1.26-1.94,1-1.44,1.4-2.16.72-1.31,1.09-2,.83-1.46,1.21-2.19.62-1.34.93-2,.7-1.46,1-2.19.52-1.37.78-2,.57-1.46.81-2.19.4-1.38.6-2.06.45-1.47.63-2.21.3-1.38.44-2.08.33-1.48.45-2.22.18-1.39.26-2.09.2-1.45.26-2.18v0c.06-.7.07-1.4.09-2.1,1-23.94-14.32-48.08-46-66.35-61.15-35.3-159.94-35.3-220.67,0-30.27,17.59-45.36,40.63-45.32,63.68C12.25,179,12.3,179.73,12.33,180.47Z"/><path class="cls-29" d="M.89,189.8c.07.8.19,1.6.29,2.41s.17,1.51.3,2.27.32,1.61.49,2.4.29,1.51.48,2.26.46,1.6.7,2.39.41,1.51.67,2.25.59,1.6.89,2.4.54,1.47.85,2.21.75,1.6,1.13,2.4.64,1.44,1,2.15.88,1.59,1.33,2.39.77,1.42,1.19,2.12,1,1.58,1.54,2.36.89,1.4,1.38,2.09,1.16,1.56,1.75,2.34,1,1.37,1.54,2,1.32,1.55,2,2.32,1.1,1.33,1.7,2,1.48,1.54,2.23,2.31,1.19,1.28,1.84,1.9,1.61,1.51,2.43,2.25,1.33,1.26,2,1.87c.87.76,1.81,1.51,2.71,2.25.72.59,1.4,1.19,2.13,1.77,1,.78,2.06,1.54,3.11,2.31.71.53,1.39,1.07,2.13,1.59,1.21.86,2.49,1.69,3.76,2.53.62.41,1.21.84,1.85,1.25q2.91,1.84,6,3.65c65.92,38,172.39,38,237.88,0,2-1.19,4-2.4,5.92-3.63.62-.4,1.2-.82,1.81-1.22,1.26-.84,2.53-1.68,3.73-2.54.7-.49,1.34-1,2-1.5,1.06-.79,2.13-1.57,3.14-2.37.72-.56,1.37-1.14,2.06-1.71.91-.75,1.85-1.5,2.72-2.27.69-.6,1.31-1.22,2-1.83.82-.76,1.65-1.5,2.43-2.26s1.22-1.27,1.83-1.91l1.24-1.29c.3-.33.64-.65.94-1,.59-.66,1.12-1.32,1.68-2s1.33-1.52,1.94-2.29,1-1.36,1.53-2,1.18-1.54,1.72-2.32.9-1.38,1.35-2.07,1-1.55,1.51-2.34.79-1.42,1.19-2.13.89-1.56,1.29-2.34.67-1.45,1-2.17.76-1.57,1.09-2.37.55-1.45.83-2.19.62-1.58.88-2.38.44-1.47.65-2.21.49-1.59.68-2.39.32-1.49.47-2.23.35-1.6.48-2.4.19-1.49.28-2.24.22-1.6.29-2.41.07-1.5.1-2.24c1.06-25.81-15.44-51.85-49.56-71.55-65.93-38.06-172.41-38.06-237.89,0C16.92,135.42.65,160.26.69,185.11c0,.81.06,1.6.09,2.41S.83,189,.89,189.8Zm12-11.78c0,.07,0,.15,0,.22,0-23.05,15.06-46.09,45.33-63.68,60.72-35.29,159.52-35.29,220.66,0,31.64,18.27,46.95,42.41,46,66.35,0-.67.09-1.33.09-2l0,8c0,.66-.06,1.33-.09,2s0,1.41-.09,2.11-.18,1.47-.26,2.21-.15,1.4-.27,2.1-.3,1.49-.44,2.23-.27,1.38-.44,2.06-.41,1.48-.63,2.22-.38,1.37-.61,2.06-.53,1.46-.81,2.19-.49,1.37-.78,2.05-.67,1.46-1,2.19-.59,1.34-.93,2-.8,1.47-1.21,2.21-.7,1.3-1.09,1.95-.93,1.45-1.41,2.18-.8,1.28-1.24,1.91-1.07,1.45-1.61,2.16-.91,1.26-1.4,1.87-1.21,1.44-1.82,2.15-1,1.22-1.55,1.82-1.36,1.42-2,2.13-1.09,1.17-1.68,1.74-1.52,1.43-2.29,2.14c-.6.55-1.16,1.11-1.79,1.66-.83.73-1.73,1.45-2.61,2.17-.6.51-1.18,1-1.81,1.52-.92.73-1.9,1.43-2.86,2.15-.65.48-1.27,1-1.93,1.45-1.12.79-2.3,1.56-3.47,2.35-.57.37-1.1.76-1.67,1.13q-2.67,1.71-5.5,3.36c-60.73,35.29-159.52,35.29-220.65,0q-2.86-1.66-5.57-3.38c-.62-.4-1.2-.82-1.81-1.22-1.15-.76-2.3-1.52-3.4-2.29-.69-.49-1.33-1-2-1.49-1-.71-1.94-1.41-2.85-2.13-.68-.53-1.3-1.08-1.95-1.61-.86-.7-1.73-1.4-2.55-2.11-.64-.57-1.24-1.14-1.86-1.72s-1.54-1.39-2.27-2.1-1.16-1.2-1.74-1.8-1.39-1.4-2-2.11-1.07-1.24-1.6-1.86-1.24-1.42-1.82-2.13-.95-1.26-1.43-1.89-1.12-1.45-1.63-2.17-.85-1.3-1.28-1.95-1-1.44-1.41-2.18-.75-1.32-1.12-2-.85-1.46-1.23-2.2-.62-1.33-.93-2-.73-1.5-1.05-2.25-.52-1.35-.78-2-.59-1.49-.84-2.24-.41-1.38-.62-2.07-.46-1.48-.65-2.23-.29-1.39-.44-2.09-.34-1.49-.46-2.24-.18-1.4-.27-2.1-.21-1.49-.27-2.24-.07-1.41-.1-2.11-.09-1.49-.09-2.24c0-.08,0-.15,0-.23Z"/><path class="cls-30" d="M13,180.47c0,.48,0,.95.07,1.42,0,.23,0,.47,0,.7.07.75.19,1.49.28,2.24s.16,1.4.27,2.1.31,1.5.46,2.24.27,1.39.45,2.09.43,1.49.65,2.24.38,1.37.61,2.06.55,1.48.84,2.23.49,1.36.79,2.05.68,1.46,1,2.2.61,1.35.95,2,.82,1.47,1.23,2.2.71,1.32,1.11,2,.95,1.44,1.42,2.17.83,1.31,1.28,2,1.08,1.43,1.62,2.16.94,1.27,1.44,1.9,1.22,1.43,1.84,2.15,1,1.23,1.58,1.84,1.38,1.44,2.08,2.16,1.1,1.17,1.7,1.75,1.51,1.4,2.27,2.11,1.22,1.15,1.87,1.71c.82.72,1.7,1.42,2.56,2.13.65.53,1.26,1.07,1.93,1.59,1,.76,2,1.5,3,2.25.63.45,1.21.92,1.85,1.37,1.13.8,2.32,1.57,3.5,2.35.58.38,1.12.78,1.72,1.16,1.79,1.15,3.65,2.27,5.57,3.38,61.12,35.29,159.91,35.29,220.65,0q2.83-1.65,5.49-3.36c.58-.37,1.11-.76,1.67-1.13,1.17-.78,2.35-1.56,3.47-2.35.69-.49,1.32-1,2-1.5.94-.69,1.9-1.38,2.8-2.1.66-.52,1.27-1.06,1.91-1.59.85-.7,1.71-1.39,2.52-2.1.64-.56,1.23-1.14,1.84-1.72s1.52-1.37,2.23-2.07,1.15-1.19,1.72-1.79,1.37-1.39,2-2.09,1.05-1.23,1.58-1.85,1.22-1.4,1.79-2.11.95-1.27,1.42-1.9,1.09-1.42,1.59-2.13.84-1.29,1.26-1.94,1-1.44,1.39-2.16.73-1.31,1.09-2,.84-1.46,1.22-2.19.62-1.34.93-2,.7-1.46,1-2.19.52-1.37.77-2,.57-1.46.82-2.19.4-1.38.6-2.06.45-1.47.63-2.21.29-1.38.43-2.08.33-1.48.45-2.22.18-1.39.27-2.09.19-1.45.25-2.18a.06.06,0,0,0,0,0c.06-.7.06-1.4.09-2.1,1-23.94-14.33-48.08-46-66.35-61.14-35.3-159.94-35.3-220.66,0C28,132.15,12.86,155.19,12.89,178.24,12.89,179,12.94,179.73,13,180.47Z"/><path class="cls-27" d="M336.36,188c0,.74,0,1.49-.1,2.24s-.18,1.61-.29,2.41-.15,1.49-.28,2.24-.31,1.6-.48,2.4-.28,1.49-.46,2.23-.46,1.6-.69,2.39-.4,1.48-.65,2.21-.58,1.59-.88,2.38-.53,1.47-.83,2.19-.72,1.58-1.09,2.37-.64,1.45-1,2.17-.85,1.56-1.29,2.34-.76,1.42-1.19,2.13-1,1.56-1.51,2.34-.87,1.39-1.35,2.07-1.14,1.55-1.72,2.32-1,1.36-1.52,2-1.29,1.53-1.94,2.29-1.1,1.32-1.69,2c-.3.33-.64.66-.95,1s-.82.84-1.22,1.27c-.62.64-1.2,1.28-1.84,1.91s-1.61,1.5-2.42,2.26-1.29,1.23-2,1.83c-.87.77-1.81,1.52-2.72,2.27-.69.57-1.34,1.15-2.05,1.71-1,.8-2.09,1.58-3.15,2.37-.67.5-1.32,1-2,1.5-1.21.86-2.47,1.7-3.74,2.54-.61.4-1.19.82-1.81,1.22q-2.87,1.85-5.92,3.63c-65.49,38-172,38-237.88,0q-3.09-1.8-6-3.65c-.64-.41-1.23-.84-1.86-1.25-1.27-.84-2.55-1.67-3.76-2.53-.74-.52-1.42-1.06-2.13-1.59-1.05-.77-2.11-1.53-3.1-2.31-.74-.58-1.42-1.18-2.13-1.77-.91-.74-1.85-1.49-2.72-2.25-.7-.61-1.35-1.24-2-1.87s-1.65-1.49-2.43-2.25-1.23-1.26-1.84-1.9-1.52-1.53-2.23-2.31-1.14-1.32-1.7-2-1.36-1.54-2-2.32-1-1.36-1.55-2-1.2-1.55-1.75-2.34-.92-1.39-1.37-2.09-1.07-1.57-1.55-2.36-.79-1.41-1.19-2.12-.92-1.59-1.33-2.39-.68-1.43-1-2.15-.78-1.6-1.12-2.4-.57-1.48-.85-2.21-.63-1.6-.9-2.4-.45-1.5-.67-2.25-.49-1.59-.7-2.39-.32-1.5-.48-2.26-.36-1.6-.49-2.4-.2-1.52-.29-2.27-.23-1.61-.3-2.41-.07-1.52-.11-2.28S0,185.92,0,185.11c0-.08,0-.16,0-.24l0,11C-.07,221,16.5,246.15,49.67,265.3c65.92,38.05,172.39,38.05,237.87,0,32.53-18.9,48.82-43.63,48.88-68.41l0-11C336.45,186.57,336.39,187.29,336.36,188Z"/><path class="cls-31" d="M12.91,188.49c0,.7,0,1.41.1,2.11s.18,1.49.27,2.24.16,1.4.27,2.1.3,1.5.47,2.24.26,1.39.44,2.09.42,1.49.64,2.23.39,1.38.62,2.07.56,1.5.84,2.24.49,1.36.78,2,.7,1.5,1.05,2.25.59,1.32.94,2,.81,1.47,1.22,2.2.72,1.33,1.12,2,.94,1.46,1.42,2.18.82,1.3,1.27,1.95,1.09,1.44,1.64,2.17.92,1.26,1.42,1.89,1.21,1.42,1.82,2.13,1,1.24,1.6,1.86,1.36,1.41,2,2.11,1.13,1.21,1.74,1.8,1.51,1.4,2.28,2.1,1.21,1.15,1.86,1.72c.81.71,1.69,1.41,2.54,2.11.65.53,1.27,1.08,2,1.61.92.72,1.9,1.42,2.86,2.13.67.5,1.3,1,2,1.49,1.1.77,2.26,1.53,3.4,2.29.61.4,1.19.82,1.82,1.22q2.68,1.71,5.57,3.38c61.12,35.29,159.91,35.29,220.64,0q2.85-1.65,5.5-3.36c.58-.37,1.11-.76,1.67-1.13,1.17-.79,2.35-1.56,3.47-2.35.67-.48,1.29-1,1.94-1.45.95-.72,1.93-1.42,2.85-2.15.63-.5,1.21-1,1.82-1.52.88-.72,1.77-1.44,2.61-2.17.62-.55,1.18-1.11,1.78-1.66.77-.71,1.56-1.42,2.3-2.14.58-.57,1.11-1.16,1.67-1.74s1.39-1.41,2.05-2.13,1-1.22,1.54-1.82,1.25-1.42,1.82-2.15.93-1.24,1.4-1.87,1.11-1.43,1.61-2.16.83-1.27,1.25-1.91,1-1.45,1.41-2.18.72-1.3,1.08-1.95.84-1.47,1.21-2.21.63-1.33.94-2,.7-1.46,1-2.19.52-1.37.78-2.05.57-1.46.81-2.19.4-1.37.6-2.06.45-1.48.63-2.22.3-1.37.44-2.06.32-1.49.44-2.23.18-1.4.27-2.1.2-1.47.26-2.21.06-1.4.09-2.11.09-1.33.09-2l0-8c0,.67-.06,1.33-.09,2s0,1.4-.09,2.1v.07c-.06.71-.17,1.43-.26,2.15s-.15,1.39-.26,2.09-.3,1.48-.45,2.22-.26,1.39-.43,2.08-.42,1.47-.64,2.21-.37,1.37-.6,2.06-.54,1.46-.81,2.19-.5,1.37-.78,2-.66,1.46-1,2.19-.6,1.34-.93,2-.8,1.46-1.21,2.19-.7,1.31-1.09,2-.93,1.44-1.4,2.16-.81,1.3-1.26,1.94-1.05,1.42-1.58,2.13-.93,1.27-1.43,1.9-1.19,1.41-1.78,2.11-1,1.24-1.58,1.85-1.33,1.39-2,2.09-1.11,1.2-1.71,1.79-1.49,1.38-2.23,2.07-1.21,1.16-1.85,1.72c-.8.71-1.67,1.4-2.51,2.1-.65.53-1.25,1.07-1.92,1.59-.9.72-1.85,1.41-2.8,2.1-.66.5-1.3,1-2,1.5-1.11.79-2.29,1.57-3.46,2.35-.57.37-1.1.76-1.67,1.13q-2.67,1.71-5.5,3.36c-60.73,35.29-159.52,35.29-220.65,0-1.92-1.11-3.77-2.23-5.57-3.38-.59-.38-1.14-.78-1.72-1.16-1.18-.78-2.37-1.55-3.5-2.35-.63-.45-1.22-.92-1.84-1.37-1-.75-2-1.49-3-2.25-.67-.52-1.28-1.06-1.93-1.59-.86-.71-1.74-1.41-2.56-2.13-.65-.56-1.24-1.14-1.86-1.71s-1.55-1.4-2.28-2.11-1.13-1.17-1.69-1.75-1.42-1.43-2.09-2.16-1.05-1.23-1.58-1.84-1.25-1.42-1.83-2.15-1-1.27-1.45-1.9-1.1-1.44-1.61-2.16-.86-1.3-1.29-2-1-1.45-1.41-2.17-.75-1.33-1.12-2-.84-1.46-1.23-2.2-.63-1.35-.94-2-.72-1.47-1-2.2-.52-1.37-.78-2.05-.59-1.49-.84-2.23-.41-1.37-.61-2.06-.46-1.49-.65-2.24-.3-1.39-.44-2.09-.34-1.49-.46-2.24-.19-1.4-.27-2.1-.22-1.49-.28-2.24c0-.21,0-.42,0-.63,0-.49,0-1-.06-1.49,0-.74-.08-1.49-.09-2.23V178l0,8c0,.08,0,.15,0,.23C12.82,187,12.88,187.74,12.91,188.49Z"/><path class="cls-32" d="M337,188c0,.74,0,1.49-.09,2.24s-.19,1.61-.29,2.41-.16,1.49-.28,2.24-.33,1.6-.49,2.4-.28,1.49-.47,2.23-.44,1.6-.68,2.39-.4,1.48-.64,2.21-.59,1.59-.89,2.38-.52,1.47-.83,2.19-.72,1.58-1.09,2.37-.64,1.45-1,2.17-.86,1.56-1.29,2.34-.76,1.42-1.18,2.13-1,1.56-1.52,2.34-.87,1.39-1.35,2.07-1.14,1.55-1.72,2.32-1,1.36-1.53,2-1.28,1.53-1.94,2.29-1.09,1.32-1.68,2c-.31.33-.64.66-.95,1s-.82.84-1.22,1.27c-.62.64-1.2,1.28-1.84,1.91s-1.61,1.5-2.42,2.26-1.29,1.23-2,1.83c-.87.77-1.81,1.52-2.72,2.27-.69.57-1.34,1.15-2.05,1.71-1,.8-2.09,1.58-3.15,2.37-.68.5-1.32,1-2,1.5-1.2.86-2.48,1.7-3.74,2.54-.61.4-1.18.82-1.81,1.22-1.9,1.23-3.88,2.44-5.92,3.63-65.49,38-172,38-237.87,0-2.07-1.2-4.08-2.42-6-3.65-.64-.41-1.23-.84-1.86-1.25-1.27-.84-2.55-1.67-3.76-2.53-.74-.52-1.41-1.06-2.13-1.59-1-.77-2.11-1.53-3.11-2.31-.73-.58-1.41-1.18-2.12-1.77-.91-.74-1.85-1.49-2.72-2.25-.7-.61-1.35-1.24-2-1.87s-1.66-1.49-2.44-2.25-1.23-1.26-1.84-1.9-1.52-1.53-2.23-2.31-1.13-1.32-1.7-2-1.36-1.54-2-2.32-1-1.36-1.54-2-1.2-1.55-1.75-2.34-.92-1.39-1.37-2.09-1.06-1.57-1.54-2.36S9.38,216,9,215.33s-.92-1.59-1.33-2.39-.68-1.43-1-2.15-.78-1.6-1.13-2.4-.56-1.48-.84-2.21-.63-1.6-.9-2.4-.45-1.5-.67-2.25-.49-1.59-.69-2.39-.32-1.5-.48-2.26-.37-1.6-.5-2.4-.2-1.52-.3-2.27S.91,190.6.84,189.8s-.07-1.52-.11-2.28-.08-1.6-.09-2.41c0-.08,0-.16,0-.24l0,11C.53,221,17.1,246.15,50.27,265.3c65.92,38.05,172.39,38.05,237.88,0,32.52-18.9,48.8-43.63,48.87-68.41l0-11C337.05,186.57,337,187.29,337,188Z"/><g class="cls-2"><path class="cls-3" d="M268.67,185.58c0,26.6-44.94,48.17-100.36,48.17S68,212.18,68,185.58s44.94-48.17,100.36-48.17S268.67,159,268.67,185.58Z"/><path class="cls-33" d="M264.62,185.58c0,25.53-43.12,46.23-96.31,46.23S72,211.11,72,185.58s43.12-46.23,96.31-46.23S264.62,160.05,264.62,185.58Z"/><path class="cls-34" d="M260.57,185.58c0,24.45-41.31,44.28-92.26,44.28S76.05,210,76.05,185.58s41.31-44.29,92.26-44.29S260.57,161.12,260.57,185.58Z"/><path class="cls-35" d="M256.53,185.58c0,23.38-39.5,42.34-88.22,42.34s-88.22-19-88.22-42.34,39.5-42.35,88.22-42.35S256.53,162.19,256.53,185.58Z"/><path class="cls-36" d="M252.48,185.58c0,22.31-37.69,40.4-84.17,40.4s-84.17-18.09-84.17-40.4,37.69-40.4,84.17-40.4S252.48,163.26,252.48,185.58Z"/><path class="cls-37" d="M248.43,185.58c0,21.24-35.87,38.46-80.12,38.46s-80.12-17.22-80.12-38.46,35.87-38.46,80.12-38.46S248.43,164.34,248.43,185.58Z"/><path class="cls-38" d="M244.39,185.58c0,20.16-34.07,36.51-76.08,36.51s-76.08-16.35-76.08-36.51,34.07-36.52,76.08-36.52S244.39,165.41,244.39,185.58Z"/><path class="cls-39" d="M240.34,185.58c0,19.09-32.25,34.57-72,34.57s-72-15.48-72-34.57,32.25-34.58,72-34.58S240.34,166.48,240.34,185.58Z"/><path class="cls-40" d="M236.29,185.58c0,18-30.43,32.63-68,32.63s-68-14.61-68-32.63,30.44-32.64,68-32.64S236.29,167.56,236.29,185.58Z"/><path class="cls-41" d="M232.25,185.58c0,16.94-28.63,30.69-63.94,30.69s-63.94-13.75-63.94-30.69,28.63-30.69,63.94-30.69S232.25,168.63,232.25,185.58Z"/><path class="cls-42" d="M228.2,185.58c0,15.87-26.81,28.74-59.89,28.74s-59.89-12.87-59.89-28.74,26.82-28.75,59.89-28.75S228.2,169.7,228.2,185.58Z"/><path class="cls-43" d="M224.15,185.58c0,14.8-25,26.8-55.84,26.8s-55.84-12-55.84-26.8,25-26.81,55.84-26.81S224.15,170.77,224.15,185.58Z"/><path class="cls-44" d="M220.11,185.58c0,13.73-23.19,24.86-51.8,24.86s-51.8-11.13-51.8-24.86,23.19-24.87,51.8-24.87S220.11,171.85,220.11,185.58Z"/><path class="cls-45" d="M216.06,185.58c0,12.65-21.38,22.92-47.75,22.92s-47.75-10.27-47.75-22.92,21.38-22.92,47.75-22.92S216.06,172.92,216.06,185.58Z"/><path class="cls-46" d="M212,185.58c0,11.58-19.56,21-43.7,21s-43.7-9.39-43.7-21,19.56-21,43.7-21S212,174,212,185.58Z"/><path class="cls-47" d="M208,185.58c0,10.51-17.75,19-39.66,19s-39.66-8.52-39.66-19,17.76-19,39.66-19S208,175.06,208,185.58Z"/><path class="cls-48" d="M203.92,185.58c0,9.43-15.94,17.09-35.61,17.09S132.7,195,132.7,185.58s15.94-17.1,35.61-17.1S203.92,176.14,203.92,185.58Z"/><path class="cls-49" d="M199.87,185.58c0,8.36-14.12,15.15-31.56,15.15s-31.56-6.79-31.56-15.15,14.13-15.16,31.56-15.16S199.87,177.21,199.87,185.58Z"/><path class="cls-50" d="M195.83,185.58c0,7.29-12.32,13.21-27.52,13.21s-27.52-5.92-27.52-13.21,12.32-13.21,27.52-13.21S195.83,178.28,195.83,185.58Z"/><path class="cls-51" d="M191.78,185.58c0,6.22-10.5,11.26-23.47,11.26s-23.47-5-23.47-11.26,10.51-11.27,23.47-11.27S191.78,179.36,191.78,185.58Z"/><path class="cls-52" d="M187.73,185.58c0,5.14-8.69,9.32-19.42,9.32s-19.42-4.18-19.42-9.32,8.69-9.33,19.42-9.33S187.73,180.43,187.73,185.58Z"/><path class="cls-53" d="M183.69,185.58c0,4.07-6.88,7.38-15.38,7.38s-15.38-3.31-15.38-7.38,6.89-7.39,15.38-7.39S183.69,181.5,183.69,185.58Z"/></g><polygon class="cls-54" points="67.75 115.7 67.74 120.44 67.9 149.2 67.92 144.46 67.75 115.7"/><polygon class="cls-54" points="250.4 136.39 250.39 141.13 250.5 161.41 250.51 156.67 250.4 136.39"/><polygon class="cls-54" points="250.72 192.65 250.71 197.38 250.79 212.92 250.83 212.94 250.72 192.65"/><polygon class="cls-55" points="269.05 204.45 253.57 195.51 253.68 215.81 180.54 173.58 253.21 131.35 253.32 151.63 268.71 142.69 268.56 116.25 222.88 116.24 207.5 125.18 242.51 125.18 169.84 167.41 96.7 125.18 131.75 125.18 116.27 116.24 70.59 116.25 70.74 142.69 86.22 151.63 86.08 131.34 159.23 173.57 86.56 215.8 86.46 195.51 71.09 204.45 71.23 230.92 116.91 230.91 132.29 221.97 97.26 221.98 169.93 179.75 243.07 221.98 208.05 221.97 223.53 230.91 269.18 230.91 269.05 204.45"/><polygon class="cls-56" points="269.11 204.45 253.62 195.51 253.74 215.81 180.6 173.58 253.26 131.35 253.38 151.63 268.76 142.69 268.61 116.25 222.93 116.24 207.55 125.18 242.56 125.18 169.9 167.41 96.75 125.18 131.8 125.18 116.32 116.24 70.64 116.25 70.79 142.69 86.27 151.63 86.14 131.34 159.29 173.57 86.61 215.8 86.52 195.51 71.14 204.45 71.29 230.92 116.96 230.91 132.34 221.97 97.31 221.98 169.99 179.75 243.13 221.98 208.1 221.97 223.58 230.91 269.24 230.91 269.11 204.45"/><polygon class="cls-54" points="68.25 204.86 68.24 209.6 68.4 238.38 68.42 233.64 68.25 204.86"/><path class="cls-57" d="M271.87,204.86l-21.15-12.22.11,20.3,0,0L188.62,177l-4.09-2.36,65.87-38.28.11,20.28,21-12.21-.16-28.76H221.7l-21,12.21h35l-8.16,4.74-57.7,33.54-58.09-33.54-8.21-4.74h35.05l-21.16-12.21H67.75l.17,28.76,21.15,12.21L89,141.15l0-4.77,66.3,38.28-4.1,2.38L89.37,212.93l-.1-20.28-21,12.21.16,28.78h49.68l21-12.21h-35l65.86-38.28,66.3,38.28h-35l21.15,12.21H272Zm-48.34,26L208.05,222h35l-73.15-42.23L97.26,222h35l-15.38,8.94H71.23l-.14-26.47,15.37-8.94.1,20.29,72.67-42.23L86.08,131.34l.14,20.29L70.74,142.7l-.15-26.45h45.68l15.48,8.94h-35l73.14,42.23,72.67-42.23h-35l15.38-8.94h45.68l.15,26.44-15.39,8.94-.11-20.28-72.67,42.23,73.14,42.23-.11-20.3,15.48,8.94.13,26.46Z"/><path class="cls-58" d="M271.87,204.86l-21.15-12.22.11,20.3,0,0L188.62,177l-4.09-2.36,65.87-38.28.11,20.28,21-12.21-.16-28.76H221.7l-21,12.21h35l-8.16,4.74-57.7,33.54-58.09-33.54-8.21-4.74h35.05l-21.16-12.21H67.75l.17,28.76,21.15,12.21L89,141.15l0-4.77,66.3,38.28-4.1,2.38L89.37,212.93l-.1-20.28-21,12.21.16,28.78h49.68l21-12.21h-35l65.86-38.28,66.3,38.28h-35l21.15,12.21H272Zm-48.34,26L208.05,222h35l-73.15-42.23L97.26,222h35l-15.38,8.94H71.23l-.14-26.47,15.37-8.94.1,20.29,72.67-42.23L86.08,131.34l.14,20.29L70.74,142.7l-.15-26.45h45.68l15.48,8.94h-35l73.14,42.23,72.67-42.23h-35l15.38-8.94h45.68l.15,26.44-15.39,8.94-.11-20.28-72.67,42.23,73.14,42.23-.11-20.3,15.48,8.94.13,26.46Z"/><polygon class="cls-59" points="235.69 127.9 200.68 127.9 200.67 132.64 227.53 132.64 235.69 127.9"/><polygon class="cls-59" points="138.56 132.64 138.58 127.9 103.53 127.9 111.74 132.64 138.56 132.64"/><polygon class="cls-59" points="271.53 144.46 250.51 156.67 250.5 161.41 271.52 149.2 271.53 144.46"/><polygon class="cls-59" points="89.07 156.67 67.92 144.46 67.9 149.2 89.05 161.41 89.07 156.67"/><polygon class="cls-59" points="151.13 177.04 155.23 174.66 88.94 136.38 88.97 141.15 151.13 177.04"/><polygon class="cls-59" points="250.39 141.13 250.4 136.39 184.53 174.67 188.62 177.03 250.39 141.13"/><polygon class="cls-59" points="236.24 221.43 169.94 183.15 104.08 221.43 112.22 221.43 169.93 187.89 228.01 221.43 236.24 221.43"/><polygon class="cls-59" points="222.36 233.63 201.21 221.42 201.19 226.16 222.35 238.37 272 238.37 272.02 233.63 222.36 233.63"/><polygon class="cls-59" points="68.42 233.64 68.4 238.38 118.07 238.37 139.09 226.16 139.1 221.42 118.09 233.63 68.42 233.64"/><polygon class="cls-60" points="235.69 127.89 200.68 127.89 200.67 132.63 227.53 132.63 235.69 127.89"/><polygon class="cls-61" points="138.56 132.63 138.58 127.89 103.53 127.89 111.74 132.63 138.56 132.63"/><polygon class="cls-62" points="271.53 144.45 250.51 156.66 250.5 161.4 271.52 149.19 271.53 144.45"/><polygon class="cls-63" points="89.07 156.66 67.92 144.45 67.9 149.19 89.05 161.4 89.07 156.66"/><polygon class="cls-64" points="151.13 177.03 155.23 174.65 88.94 136.37 88.97 141.14 151.13 177.03"/><polygon class="cls-65" points="250.39 141.12 250.4 136.38 184.53 174.66 188.62 177.02 250.39 141.12"/><polygon class="cls-66" points="236.24 221.42 169.94 183.14 104.08 221.42 112.22 221.42 169.93 187.88 228.01 221.41 236.24 221.42"/><polygon class="cls-67" points="222.36 233.62 201.21 221.41 201.19 226.15 222.35 238.36 272 238.36 272.02 233.62 222.36 233.62"/><polygon class="cls-68" points="68.42 233.63 68.4 238.37 118.07 238.36 139.09 226.15 139.1 221.41 118.09 233.62 68.42 233.63"/><polygon class="cls-69" points="185.72 90.85 185.72 90.79 185.72 90.79 185.72 90.85"/><polygon class="cls-69" points="179.11 113.36 184.99 93.48 185.72 90.85 183.23 99.39 179.11 113.36"/><path class="cls-69" d="M198.71,75.29c.74-.42,1.46-.8,2.17-1.13.25-.11.48-.18.73-.28.46-.2.93-.41,1.38-.56.3-.1.58-.16.87-.24s.79-.25,1.17-.33.56-.09.84-.13.75-.14,1.11-.17a7.91,7.91,0,0,1,.84,0l.79,0h.23c.28,0,.54.07.82.1a7.16,7.16,0,0,1,.93.12c.26.05.51.14.76.21s.59.15.88.25.47.22.71.33.54.24.79.38l0,0-12-6.95c-3.85-2.23-9.18-1.92-15.06,1.47l-13,7.52,12,6.94Z"/><polygon class="cls-69" points="185.66 82.85 185.72 90.79 185.72 90.79 185.73 86.02 185.73 86.02 185.7 82.81 173.74 75.86 173.74 75.92 185.66 82.85 185.66 82.85"/><polygon class="cls-59" points="176.1 102.47 173.78 106.49 171.44 105.16 168.38 120.02 173.85 133.48 179.11 113.36 176.1 102.47"/><polygon class="cls-57" points="171.44 105.16 173.78 106.49 176.1 102.47 179.19 97.09 173.74 93.99 168.33 103.35 171.44 105.16"/><polygon class="cls-70" points="168.31 103.38 171.44 105.16 168.33 103.35 168.31 103.38"/><path class="cls-70" d="M185.66,82.85h0c-.75,1-1.56,2-2.39,3l-.06.07c-.83,1-1.69,1.88-2.57,2.74l-.08.06c-.86.85-1.77,1.64-2.68,2.38l-.15.13c-.9.71-1.82,1.36-2.76,2-.41.28-.81.55-1.23.79l5.45,3.1-3.09,5.38,3,10.89,4.12-14,2.49-8.54v-.06Z"/><path class="cls-70" d="M161.78,96.61a10.54,10.54,0,0,0,2.14.24h.29a14.33,14.33,0,0,0,2.22-.16l.32-.06a18.08,18.08,0,0,0,2.42-.59l.17-.07a23.15,23.15,0,0,0,2.45-1l.19-.11c.57-.27,1.17-.55,1.76-.89.42-.24.82-.51,1.23-.79.94-.61,1.86-1.26,2.76-2l.15-.13c.91-.74,1.82-1.53,2.68-2.38l.08-.06c.88-.86,1.74-1.78,2.57-2.74l.06-.07c.83-1,1.64-2,2.39-3l-11.92-6.93,0,0c-.76,1-1.57,2-2.4,3l-.05.08c-.83,1-1.7,1.87-2.58,2.73l-.07.06a33,33,0,0,1-2.69,2.38l-.14.13c-.9.71-1.83,1.36-2.76,2-.42.28-.81.55-1.23.79h0c-.6.34-1.19.62-1.77.9l-.18.1a21.32,21.32,0,0,1-2.46,1l-.16.08a18,18,0,0,1-2.42.58l-.32.06a14.5,14.5,0,0,1-2.23.17H152a11.19,11.19,0,0,1-2.13-.25l-.11.07,12,6.94Z"/><path class="cls-70" d="M171.44,105.16l-3.13-1.78,0,0L173.74,94c-.59.34-1.19.62-1.76.89l-.19.11a23.15,23.15,0,0,1-2.45,1l-.17.07a18.08,18.08,0,0,1-2.42.59l-.32.06a14.33,14.33,0,0,1-2.22.16h-.29a10.54,10.54,0,0,1-2.14-.24l-.1.06,0,8,6.68,15.3Z"/><polygon class="cls-71" points="176.1 102.47 173.78 106.49 171.44 105.16 168.38 120.02 173.85 133.48 179.11 113.36 176.1 102.47"/><polygon class="cls-72" points="171.44 105.16 173.78 106.49 176.1 102.47 179.19 97.09 173.74 93.99 168.33 103.35 171.44 105.16"/><path class="cls-73" d="M185.66,82.85h0c-.75,1-1.56,2-2.39,3l-.06.07c-.83,1-1.69,1.88-2.57,2.74l-.08.06c-.86.85-1.77,1.64-2.68,2.38l-.15.13c-.9.71-1.82,1.36-2.76,2-.41.28-.81.55-1.23.79l5.45,3.1-3.09,5.38,3,10.89,4.12-14,2.49-8.54v-.06Z"/><path class="cls-74" d="M171.44,105.16l-3.13-1.78,0,0L173.74,94c-.59.34-1.19.62-1.76.89l-.19.11a23.15,23.15,0,0,1-2.45,1l-.17.07a18.08,18.08,0,0,1-2.42.59l-.32.06a14.33,14.33,0,0,1-2.22.16h-.29a10.54,10.54,0,0,1-2.14-.24l-.1.06,0,8,6.68,15.3Z"/><path class="cls-75" d="M154.67,100.72l-6,3.46c-11.7,6.75-21.16,23.14-21.12,36.58l0,9.33a8.24,8.24,0,0,0,.14,1.37,3.43,3.43,0,0,0-.14.83c0,1.67.1,3.28.23,4.85,0,.34.05.68.09,1,.16,1.51.36,3,.63,4.4l.15.68c.27,1.28.58,2.51.94,3.7.07.23.13.46.2.69a36.09,36.09,0,0,0,1.41,3.66c.11.26.23.5.35.75a29.82,29.82,0,0,0,1.77,3.26l.06.11a28.94,28.94,0,0,0,2.17,2.91c.17.2.33.4.51.59s.47.44.69.68a27.32,27.32,0,0,1-1.79-2.4l-.08-.13,0-.07a30.29,30.29,0,0,1-1.67-3.09l-.1-.2-.24-.51a34.55,34.55,0,0,1-1.35-3.53l-.09-.31-.1-.35c-.35-1.16-.66-2.37-.92-3.6l-.08-.36-.07-.31c-.25-1.32-.46-2.77-.62-4.33,0-.26,0-.52-.07-.79v-.2c-.16-1.8-.23-3.33-.24-4.68a2.1,2.1,0,0,1,.06-.24l.16-.61-.11-.63a6.19,6.19,0,0,1-.11-.94l0-9.73c0-13,9.07-29.17,20.43-35.72l.3-.18.07,0,6-3.46,2.77-1.61v0l2.82-1.6,0,4.74,0-8Z"/><polygon class="cls-75" points="173.85 133.48 184.99 93.48 179.11 113.36 173.85 133.48"/><polygon class="cls-75" points="161.7 104.72 173.85 133.48 168.38 120.02 161.7 104.72"/><path class="cls-75" d="M219.89,98.5a8.44,8.44,0,0,0,.09-1l0-10.08c0-6.7-2.39-11.41-6.22-13.62-.25-.14-.53-.25-.79-.38s-.47-.24-.71-.33-.59-.17-.88-.25-.5-.16-.76-.21a7.16,7.16,0,0,0-.93-.12c-.28,0-.54-.09-.82-.1h-.23l-.79,0a7.91,7.91,0,0,0-.84,0c-.36,0-.74.11-1.11.17s-.55.07-.84.13-.78.21-1.17.33-.57.14-.87.24c-.45.15-.92.36-1.38.56-.25.1-.48.17-.73.28-.71.33-1.43.71-2.17,1.13l-13,7.51,0,3.22,8.1-4.65,6.3-3.63c.14-.09.29-.15.44-.23l.5-.29c.68-.39,2.23-1,2.89-1.33a1.45,1.45,0,0,1,.26-.11l.4-.16.26-.11c.34-.14.67-.28,1-.39l.36-.11.41-.11.35-.1c.23-.07.46-.14.68-.19l.31,0,.41-.06.35-.06.59-.09h1.53l.28,0,.37,0,.35,0,.38,0,.24.07.35.11.32.08.35.1a1.24,1.24,0,0,1,.2.1l.33.16.3.13c.1.05.21.09.31.15,3.21,1.85,5,6,5,11.63l0,10.5c0,.15,0,.3,0,.44l0,.29,0,.47.1.46,0,.14c0,18.91-8.22,41.19-21.93,59.68l-8.26,11.15c.24-.32.49-.62.73-.94l8.16-11C211.93,139.93,220,117.7,220,98.93Z"/><path class="cls-76" d="M154.64,100.72l-6,3.46c-11.69,6.75-21.16,23.14-21.12,36.58l0,9.33a8.24,8.24,0,0,0,.14,1.37,4,4,0,0,0-.14.83c0,1.67.1,3.28.23,4.85l.09,1c.15,1.51.36,3,.64,4.4,0,.23.1.45.14.68.27,1.28.58,2.51.94,3.7.07.23.13.46.21.69a36.06,36.06,0,0,0,1.4,3.66c.11.26.24.5.36.75a29.77,29.77,0,0,0,1.76,3.26l.06.11a28.94,28.94,0,0,0,2.17,2.91l.51.59c.22.24.47.44.69.68a27.32,27.32,0,0,1-1.79-2.4l-.07-.13-.05-.07a30.29,30.29,0,0,1-1.67-3.09l-.09-.2c-.09-.17-.17-.34-.25-.51a37.06,37.06,0,0,1-1.35-3.53l-.09-.31-.1-.35c-.35-1.16-.66-2.37-.92-3.6l-.07-.36-.07-.31c-.26-1.32-.46-2.77-.63-4.33,0-.26,0-.52-.07-.79v-.2c-.15-1.8-.23-3.33-.24-4.68a2.1,2.1,0,0,1,.06-.24l.16-.61-.1-.63a5.24,5.24,0,0,1-.12-.94l0-9.73c0-13,9.08-29.17,20.43-35.72l.3-.18.07,0,6-3.46,2.77-1.61v0l2.82-1.6,0,4.74,0-8Z"/><path class="cls-77" d="M219.87,98.5c0-.33.08-.67.08-1l0-10.08c0-6.7-2.39-11.41-6.21-13.62-.26-.14-.54-.25-.81-.38s-.46-.24-.7-.33-.58-.17-.87-.25-.5-.16-.77-.21a7.16,7.16,0,0,0-.93-.12c-.28,0-.54-.09-.82-.1h-.23l-.79,0a7.91,7.91,0,0,0-.84,0c-.36,0-.73.11-1.11.17s-.55.07-.84.13-.78.21-1.17.33-.57.14-.86.24c-.46.15-.93.36-1.39.56-.24.1-.48.17-.72.28-.72.33-1.45.71-2.17,1.13l-13,7.51,0,3.22,8.1-4.65,6.3-3.63c.14-.09.29-.15.44-.23l.5-.29c.68-.39,2.22-1,2.89-1.33a1.83,1.83,0,0,1,.26-.11l.4-.16.27-.11c.33-.14.66-.28,1-.39l.36-.11.41-.11.36-.1c.22-.07.45-.14.67-.19l.32,0,.4-.06.35-.06.59-.09h1.53l.28,0,.37,0,.35,0,.39,0,.24.07.35.11.31.08.35.1.21.1.32.16.3.13c.1.05.21.09.31.15,3.21,1.85,5,6,5,11.63l0,10.5a3.13,3.13,0,0,1,0,.44l0,.29-.05.47.1.46,0,.14c0,18.91-8.21,41.19-21.91,59.68l-8.27,11.15c.24-.32.49-.62.73-.94l8.16-11C211.9,139.93,220,117.7,220,98.93Z"/><path class="cls-69" d="M146.45,186.42l-.06,0-.31-.1Z"/><path class="cls-69" d="M140.09,182.87l-.38-.29a22.51,22.51,0,0,1-2.27-2.23l-.48-.55c-.06-.08-.1-.14-.17-.22-.22-.24-.48-.44-.69-.68s-.34-.39-.51-.59a28.94,28.94,0,0,1-2.17-2.91l-.06-.11a29.82,29.82,0,0,1-1.77-3.26c-.12-.25-.24-.49-.35-.75a36.09,36.09,0,0,1-1.41-3.66c-.07-.23-.13-.46-.2-.69-.36-1.19-.67-2.42-.94-3.7l-.15-.68c-.27-1.42-.47-2.89-.63-4.4,0-.33-.06-.67-.09-1-.13-1.57-.22-3.18-.23-4.85a3.43,3.43,0,0,1,.14-.83,8.24,8.24,0,0,1-.14-1.37l0-9.33c0-13.44,9.42-29.83,21.12-36.58l6-3.46,7-4-12-6.94-7,4-6,3.46C125,104,115.57,120.37,115.6,133.81l0,9.34a8.2,8.2,0,0,0,.15,1.36,3.6,3.6,0,0,0-.14.83c0,15,6.35,26.93,15,32.78a83.62,83.62,0,0,0,15.13,8,20.89,20.89,0,0,1-3.32-1.64A21.11,21.11,0,0,1,140.09,182.87Z"/><path class="cls-78" d="M198.71,75.29c.74-.42,1.46-.8,2.17-1.13.25-.11.48-.18.73-.28.46-.2.93-.41,1.38-.56.3-.1.58-.16.87-.24s.79-.25,1.17-.33.56-.09.84-.13.75-.14,1.11-.17a7.91,7.91,0,0,1,.84,0l.79,0h.23c.28,0,.54.07.82.1a7.16,7.16,0,0,1,.93.12c.26.05.51.14.76.21s.59.15.88.25.47.22.71.33.54.24.79.38l0,0-12-6.95c-3.85-2.23-9.18-1.92-15.06,1.47l-13,7.52,12,6.94Z"/><path class="cls-79" d="M161.78,96.61a10.54,10.54,0,0,0,2.14.24h.29a14.33,14.33,0,0,0,2.22-.16l.32-.06a18.08,18.08,0,0,0,2.42-.59l.17-.07a23.15,23.15,0,0,0,2.45-1l.19-.11c.57-.27,1.17-.55,1.76-.89.42-.24.82-.51,1.23-.79.94-.61,1.86-1.26,2.76-2l.15-.13c.91-.74,1.82-1.53,2.68-2.38l.08-.06c.88-.86,1.74-1.78,2.57-2.74l.06-.07c.83-1,1.64-2,2.39-3l-11.92-6.93,0,0c-.76,1-1.57,2-2.4,3l-.05.08c-.83,1-1.7,1.87-2.58,2.73l-.07.06a33,33,0,0,1-2.69,2.38l-.14.13c-.9.71-1.83,1.36-2.76,2-.42.28-.81.55-1.23.79h0c-.6.34-1.19.62-1.77.9l-.18.1a21.32,21.32,0,0,1-2.46,1l-.16.08a18,18,0,0,1-2.42.58l-.32.06a14.5,14.5,0,0,1-2.23.17H152a11.19,11.19,0,0,1-2.13-.25l-.11.07,12,6.94Z"/><path class="cls-80" d="M140.09,182.87l-.38-.29a22.51,22.51,0,0,1-2.27-2.23l-.48-.55c-.06-.08-.1-.14-.17-.22-.22-.24-.48-.44-.69-.68s-.34-.39-.51-.59a28.94,28.94,0,0,1-2.17-2.91l-.06-.11a29.82,29.82,0,0,1-1.77-3.26c-.12-.25-.24-.49-.35-.75a36.09,36.09,0,0,1-1.41-3.66c-.07-.23-.13-.46-.2-.69-.36-1.19-.67-2.42-.94-3.7l-.15-.68c-.27-1.42-.47-2.89-.63-4.4,0-.33-.06-.67-.09-1-.13-1.57-.22-3.18-.23-4.85a3.43,3.43,0,0,1,.14-.83,8.24,8.24,0,0,1-.14-1.37l0-9.33c0-13.44,9.42-29.83,21.12-36.58l6-3.46,7-4-12-6.94-7,4-6,3.46C125,104,115.57,120.37,115.6,133.81l0,9.34a8.2,8.2,0,0,0,.15,1.36,3.6,3.6,0,0,0-.14.83c0,15,6.35,26.93,15,32.78a83.62,83.62,0,0,0,15.13,8,20.89,20.89,0,0,1-3.32-1.64A21.11,21.11,0,0,1,140.09,182.87Z"/><path class="cls-69" d="M219.69,99.32l0-.14-.1-.46,0-.47,0-.29c0-.14,0-.29,0-.44l0-10.5c0-5.65-1.79-9.78-5-11.63-.1-.06-.21-.1-.31-.15l-.3-.13-.33-.16a1.24,1.24,0,0,0-.2-.1l-.35-.1-.32-.08-.35-.11-.24-.07-.38,0-.35,0-.37,0-.28,0h-1.53l-.59.09-.35.06-.41.06-.31,0c-.22,0-.45.12-.68.19l-.35.1-.41.11-.36.11c-.33.11-.66.25-1,.39l-.26.11-.4.16a1.45,1.45,0,0,0-.26.11c-.66.3-2.21.94-2.89,1.33l-.5.29-6.74,3.86L185.73,86h0v4.83L185,93.48l-11.14,40L161.7,104.72l0-4.74-2.82,1.6-2.77,1.59-6.07,3.5-.3.18c-11.36,6.55-20.46,22.68-20.43,35.72l0,9.73a6.19,6.19,0,0,0,.11.94l.11.63-.16.61a2.1,2.1,0,0,0-.06.24c0,1.35.08,2.88.24,4.68v.2c0,.27.05.53.07.79.16,1.56.37,3,.62,4.33l.07.31.08.36c.26,1.23.57,2.44.92,3.6l.1.35.09.31a34.55,34.55,0,0,0,1.35,3.53l.24.51.1.2a30.29,30.29,0,0,0,1.67,3.09l0,.07.08.13a27.32,27.32,0,0,0,1.79,2.4c.07.08.11.14.17.22l.48.55a22.51,22.51,0,0,0,2.27,2.23l.38.29a21.11,21.11,0,0,0,2.34,1.63,20.89,20.89,0,0,0,3.32,1.64l.33.13.31.1a21.81,21.81,0,0,0,3.3.93l8.54,1.63a15,15,0,0,0,2.72.24,25.33,25.33,0,0,0,12.3-3.82,54.68,54.68,0,0,0,16-14.89l.24-.31L197.76,159C211.47,140.51,219.65,118.23,219.69,99.32Z"/><path class="cls-81" d="M219.69,99.32l0-.14-.1-.46,0-.47,0-.29c0-.14,0-.29,0-.44l0-10.5c0-5.65-1.79-9.78-5-11.63-.1-.06-.21-.1-.31-.15l-.3-.13-.33-.16a1.24,1.24,0,0,0-.2-.1l-.35-.1-.32-.08-.35-.11-.24-.07-.38,0-.35,0-.37,0-.28,0h-1.53l-.59.09-.35.06-.41.06-.31,0c-.22,0-.45.12-.68.19l-.35.1-.41.11-.36.11c-.33.11-.66.25-1,.39l-.26.11-.4.16a1.45,1.45,0,0,0-.26.11c-.66.3-2.21.94-2.89,1.33l-.5.29-6.74,3.86L185.73,86h0v4.83L185,93.48l-11.14,40L161.7,104.72l0-4.74-2.82,1.6-2.77,1.59-6.07,3.5-.3.18c-11.36,6.55-20.46,22.68-20.43,35.72l0,9.73a6.19,6.19,0,0,0,.11.94l.11.63-.16.61a2.1,2.1,0,0,0-.06.24c0,1.35.08,2.88.24,4.68v.2c0,.27.05.53.07.79.16,1.56.37,3,.62,4.33l.07.31.08.36c.26,1.23.57,2.44.92,3.6l.1.35.09.31a34.55,34.55,0,0,0,1.35,3.53l.24.51.1.2a30.29,30.29,0,0,0,1.67,3.09l0,.07.08.13a27.32,27.32,0,0,0,1.79,2.4c.07.08.11.14.17.22l.48.55a22.51,22.51,0,0,0,2.27,2.23l.38.29a21.11,21.11,0,0,0,2.34,1.63,20.89,20.89,0,0,0,3.32,1.64l.33.13.31.1a21.81,21.81,0,0,0,3.3.93l8.54,1.63a15,15,0,0,0,2.72.24,25.33,25.33,0,0,0,12.3-3.82,54.68,54.68,0,0,0,16-14.89l.24-.31L197.76,159C211.47,140.51,219.65,118.23,219.69,99.32Z"/><path class="cls-82" d="M132.26,50.34a28.44,28.44,0,0,0-.26,3.42c0-1.15.13-2.36.28-3.53A.43.43,0,0,0,132.26,50.34Z"/><path class="cls-82" d="M134.31,42.37c.09-.24.19-.49.28-.7Z"/><path class="cls-82" d="M137.51,36.19c-.22.34-.45.72-.68,1.11.48-.78,1-1.63,1.58-2.4C138.06,35.37,137.75,35.81,137.51,36.19Z"/><path class="cls-82" d="M133.33,45.22c0,.09-.05.2-.08.29.16-.58.34-1.19.54-1.76C133.57,44.39,133.41,44.9,133.33,45.22Z"/><path class="cls-82" d="M133.82,43.64l.19-.51Z"/><path class="cls-82" d="M138.49,34.79l.41-.54Z"/><path class="cls-82" d="M135.25,40.19c0,.05,0,.09-.07.14l.1-.2Z"/><path class="cls-83" d="M198.59,54.66c0-.66,0-1.22,0-1.67a33.28,33.28,0,0,0-66.55.45v.08c0,.08,0,.16,0,.24,0,.82,0,1.61,0,2.33,0,.11,0,.26,0,.44,0,.44.07,1.06.14,1.75s.18,1.46.31,2.17c0,.08,0,.16.05.23A32.05,32.05,0,0,0,134,65.87l.15.42A31.75,31.75,0,0,0,136.36,71l0,.09c.25.43.51.86.8,1.31a1.37,1.37,0,0,0,.13.2c.23.37.49.74.76,1.12.13.19.26.38.4.56l.15.22c.1.14.21.26.31.39.22.28.44.57.65.82l.21.25c.26.31.52.62.78.9l.26.28c.43.46.85.88,1.25,1.27l.33.32c1.14,1.07,2.16,1.86,3,2.49l.13.09c.34.25.73.49,1.1.73.2.13.37.27.58.39,9.68,5.78,25.59,6,35.54.36.57-.32,1.09-.65,1.6-1l.34-.24.33-.22,1-.76.37-.31A30.93,30.93,0,0,0,189,77.88c.27-.26.51-.52.74-.76l.13-.15c.48-.54.89-1,1.21-1.4.57-.68,1.08-1.37,1.55-2L193,73l.38-.59c.3-.47.56-.92.8-1.32l.23-.43c.23-.4.42-.76.57-1l.2-.41c.18-.35.41-.84.65-1.4a1,1,0,0,1,.07-.15c.27-.64.56-1.38.86-2.25.06-.16.11-.34.16-.51.18-.55.36-1.14.52-1.77.09-.32.17-.64.25-1,.18-.77.34-1.57.48-2.42,0-.26.07-.55.1-.82.1-.71.17-1.45.22-2.22,0-.15,0-.29.05-.45,0-.57,0-1.11,0-1.6Z"/><path class="cls-84" d="M198.59,54.66c0-.66,0-1.22,0-1.67a33.28,33.28,0,0,0-66.55.45v.08c0,.08,0,.16,0,.24,0,.82,0,1.61,0,2.33,0,.11,0,.26,0,.44,0,.44.07,1.06.14,1.75s.18,1.46.31,2.17c0,.08,0,.16.05.23A32.05,32.05,0,0,0,134,65.87l.15.42A31.75,31.75,0,0,0,136.36,71l0,.09c.25.43.51.86.8,1.31a1.37,1.37,0,0,0,.13.2c.23.37.49.74.76,1.12.13.19.26.38.4.56l.15.22c.1.14.21.26.31.39.22.28.44.57.65.82l.21.25c.26.31.52.62.78.9l.26.28c.43.46.85.88,1.25,1.27l.33.32c1.14,1.07,2.16,1.86,3,2.49l.13.09c.34.25.73.49,1.1.73.2.13.37.27.58.39,9.68,5.78,25.59,6,35.54.36.57-.32,1.09-.65,1.6-1l.34-.24.33-.22,1-.76.37-.31A30.93,30.93,0,0,0,189,77.88c.27-.26.51-.52.74-.76l.13-.15c.48-.54.89-1,1.21-1.4.57-.68,1.08-1.37,1.55-2L193,73l.38-.59c.3-.47.56-.92.8-1.32l.23-.43c.23-.4.42-.76.57-1l.2-.41c.18-.35.41-.84.65-1.4a1,1,0,0,1,.07-.15c.27-.64.56-1.38.86-2.25.06-.16.11-.34.16-.51.18-.55.36-1.14.52-1.77.09-.32.17-.64.25-1,.18-.77.34-1.57.48-2.42,0-.26.07-.55.1-.82.1-.71.17-1.45.22-2.22,0-.15,0-.29.05-.45,0-.57,0-1.11,0-1.6Z"/><path class="cls-85" d="M187,46.81a11,11,0,1,1-11-11A11,11,0,0,1,187,46.81Z"/><path class="cls-86" d="M209.59,36.47c0-6.77-1.88-12-5-15.34a13,13,0,0,0-4.85-3.29l-.38-.14a13,13,0,0,0-1.87-.54l-.29-.05a14.35,14.35,0,0,0-1.89-.24l-.3,0a17,17,0,0,0-2.13.05l-.46,0a18.51,18.51,0,0,0-2.26.35l-.22,0c-.73.16-1.48.38-2.23.62l-.44.14c-.79.28-1.59.6-2.41,1l-.49.23c-.85.4-1.7.83-2.57,1.33-14.8,8.55-26.86,28.89-27.59,46.12,0,.58,0,1.17,0,1.75l0,6.37a6.73,6.73,0,0,0,.13,1.4c0,.15.09.27.13.41a5.07,5.07,0,0,0,.24.75c.07.14.17.25.24.37a4.18,4.18,0,0,0,.35.54,2.24,2.24,0,0,0,.34.27c1.18,1,3,1.08,5.09-.12a26.51,26.51,0,0,1-.16-3l0-8.54a28.64,28.64,0,0,1,.15-3c1.41-.69,2.85-1.43,4.28-2.26a89.05,89.05,0,0,0,9.17-6.11c.18-.13.35-.29.54-.43.9-.7,1.8-1.4,2.69-2.16a111.61,111.61,0,0,0,9-8.33c.66-.67,1.29-1.4,1.94-2.09,1.06-1.14,2.11-2.29,3.14-3.48.61-.71,1.21-1.44,1.8-2.16s1-1.22,1.55-1.85c1.26-1.58,2.47-3.17,3.65-4.81,2.75,2.52,4.43,6.69,4.44,12.26v8.52c0,1-.05,2.05-.15,3.14l.51-.29a14.08,14.08,0,0,0,6.35-11Z"/><path class="cls-87" d="M209.59,36.47c0-6.77-1.88-12-5-15.34a13,13,0,0,0-4.85-3.29l-.38-.14a13,13,0,0,0-1.87-.54l-.29-.05a14.35,14.35,0,0,0-1.89-.24l-.3,0a17,17,0,0,0-2.13.05l-.46,0a18.51,18.51,0,0,0-2.26.35l-.22,0c-.73.16-1.48.38-2.23.62l-.44.14c-.79.28-1.59.6-2.41,1l-.49.23c-.85.4-1.7.83-2.57,1.33-14.8,8.55-26.86,28.89-27.59,46.12,0,.58,0,1.17,0,1.75l0,6.37a6.73,6.73,0,0,0,.13,1.4c0,.15.09.27.13.41a5.07,5.07,0,0,0,.24.75c.07.14.17.25.24.37a4.18,4.18,0,0,0,.35.54,2.24,2.24,0,0,0,.34.27c1.18,1,3,1.08,5.09-.12a26.51,26.51,0,0,1-.16-3l0-8.54a28.64,28.64,0,0,1,.15-3c1.41-.69,2.85-1.43,4.28-2.26a89.05,89.05,0,0,0,9.17-6.11c.18-.13.35-.29.54-.43.9-.7,1.8-1.4,2.69-2.16a111.61,111.61,0,0,0,9-8.33c.66-.67,1.29-1.4,1.94-2.09,1.06-1.14,2.11-2.29,3.14-3.48.61-.71,1.21-1.44,1.8-2.16s1-1.22,1.55-1.85c1.26-1.58,2.47-3.17,3.65-4.81,2.75,2.52,4.43,6.69,4.44,12.26v8.52c0,1-.05,2.05-.15,3.14l.51-.29a14.08,14.08,0,0,0,6.35-11Z"/><path class="cls-88" d="M172.62,1.87c-5-2.93-12-2.52-19.72,1.93C138.1,12.35,126,32.69,125.3,49.92c0,.58,0,1.17,0,1.75l0,6.37c0,2,.71,3.43,1.86,4.09L156,79a2.37,2.37,0,0,1-.42-.35,2.24,2.24,0,0,1-.34-.27,4.18,4.18,0,0,1-.35-.54c-.07-.12-.17-.23-.24-.37a5.07,5.07,0,0,1-.24-.75c0-.14-.1-.26-.13-.41a6.73,6.73,0,0,1-.13-1.4l0-6.37c0-.58,0-1.17,0-1.75.73-17.23,12.79-37.57,27.59-46.12.87-.5,1.72-.93,2.57-1.33l.49-.23c.82-.37,1.62-.69,2.41-1l.44-.14c.75-.24,1.5-.46,2.23-.62l.22,0a18.51,18.51,0,0,1,2.26-.35l.46,0a17,17,0,0,1,2.13-.05l.3,0a14.35,14.35,0,0,1,1.89.24l.29.05a13,13,0,0,1,1.87.54l.38.14a14,14,0,0,1,1.75.83l0,0Z"/><path class="cls-89" d="M172.62,1.87c-5-2.93-12-2.52-19.72,1.93C138.1,12.35,126,32.69,125.3,49.92c0,.58,0,1.17,0,1.75l0,6.37c0,2,.71,3.43,1.86,4.09L156,79a2.37,2.37,0,0,1-.42-.35,2.24,2.24,0,0,1-.34-.27,4.18,4.18,0,0,1-.35-.54c-.07-.12-.17-.23-.24-.37a5.07,5.07,0,0,1-.24-.75c0-.14-.1-.26-.13-.41a6.73,6.73,0,0,1-.13-1.4l0-6.37c0-.58,0-1.17,0-1.75.73-17.23,12.79-37.57,27.59-46.12.87-.5,1.72-.93,2.57-1.33l.49-.23c.82-.37,1.62-.69,2.41-1l.44-.14c.75-.24,1.5-.46,2.23-.62l.22,0a18.51,18.51,0,0,1,2.26-.35l.46,0a17,17,0,0,1,2.13-.05l.3,0a14.35,14.35,0,0,1,1.89.24l.29.05a13,13,0,0,1,1.87.54l.38.14a14,14,0,0,1,1.75.83l0,0Z"/><path class="cls-88" d="M202.9,51.05V42.53c0-5.57-1.69-9.74-4.44-12.26-1.18,1.64-2.39,3.23-3.65,4.81-.39.49-.8,1-1.2,1.44a29,29,0,0,1,4.86,15.16l4.3,2.51C202.85,53.1,202.91,52,202.9,51.05Z"/></g></g></g></svg>