<svg xmlns="http://www.w3.org/2000/svg" xmlns:xlink="http://www.w3.org/1999/xlink" viewBox="0 0 1396.49 1477.7"><defs><style>.cls-1{fill:none;}.cls-2{isolation:isolate;}.cls-3{clip-path:url(#clip-path);}.cls-4{fill:#ecc935;}.cls-5,.cls-6{fill:#ee4130;}.cls-6{opacity:0.3;mix-blend-mode:color-dodge;}</style><clipPath id="clip-path"><rect class="cls-1" x="-2388.51" y="-490.64" width="1920" height="2285.62" transform="translate(-2857.02 1304.33) rotate(180)"/></clipPath></defs><g class="cls-2"><g id="Layer_1" data-name="Layer 1"><g class="cls-3"><ellipse class="cls-4" cx="-1428.51" cy="1829.71" rx="1513.32" ry="1601.32"/></g><ellipse class="cls-5" cx="698.24" cy="738.85" rx="698.24" ry="738.85"/><path class="cls-6" d="M698.24,1319a518.85,518.85,0,0,1-213.35-45.53c-65.27-29.21-123.92-71.06-174.31-124.39A581.35,581.35,0,0,1,193,964.61c-28.55-71.42-43-147.37-43-225.76s14.47-154.34,43-225.76A581.47,581.47,0,0,1,310.58,328.64c50.39-53.33,109-95.18,174.31-124.39a522.66,522.66,0,0,1,426.71,0c65.26,29.21,123.91,71.06,174.31,124.39a581.26,581.26,0,0,1,117.55,184.45c28.55,71.42,43,147.37,43,225.76s-14.48,154.34-43,225.76a581.15,581.15,0,0,1-117.55,184.45c-50.4,53.33-109.05,95.18-174.31,124.39A518.93,518.93,0,0,1,698.24,1319Z"/><path class="cls-6" d="M698.24,1160.25a376.72,376.72,0,0,1-154.92-33c-47.39-21.21-90-51.64-126.68-90.44a422.81,422.81,0,0,1-85.47-134,446.66,446.66,0,0,1,0-327.86,422.81,422.81,0,0,1,85.47-134c36.67-38.8,79.29-69.23,126.68-90.44a380.37,380.37,0,0,1,309.85,0c47.38,21.21,90,51.64,126.67,90.44a422.63,422.63,0,0,1,85.47,134,446.52,446.52,0,0,1,0,327.86,422.63,422.63,0,0,1-85.47,134c-36.67,38.8-79.29,69.23-126.67,90.44A376.77,376.77,0,0,1,698.24,1160.25Z"/><path class="cls-6" d="M698.24,1001.53a234.61,234.61,0,0,1-96.49-20.45,247.63,247.63,0,0,1-79-56.49A263.74,263.74,0,0,1,469.32,841a279.44,279.44,0,0,1,0-204.2,263.85,263.85,0,0,1,53.39-83.64,247.63,247.63,0,0,1,79-56.49,237.86,237.86,0,0,1,193,0,247.67,247.67,0,0,1,79,56.49,263.82,263.82,0,0,1,53.38,83.64,279.31,279.31,0,0,1,0,204.2,263.71,263.71,0,0,1-53.38,83.64,247.67,247.67,0,0,1-79,56.49A234.58,234.58,0,0,1,698.24,1001.53Z"/><path class="cls-6" d="M698.24,842.81a91.35,91.35,0,0,1-38.06-7.91,98.71,98.71,0,0,1-31.4-22.54,105,105,0,0,1-21.31-33.24,112.28,112.28,0,0,1,0-80.54,105,105,0,0,1,21.3-33.23,98.51,98.51,0,0,1,31.42-22.55,95.5,95.5,0,0,1,76.11,0,98.64,98.64,0,0,1,31.41,22.54A104.92,104.92,0,0,1,789,698.58a112.14,112.14,0,0,1,0,80.54,104.92,104.92,0,0,1-21.3,33.24A98.64,98.64,0,0,1,736.3,834.9,91.28,91.28,0,0,1,698.24,842.81Z"/></g></g></svg>