<svg xmlns="http://www.w3.org/2000/svg" viewBox="0 0 104.17 26.65"><defs><style>.cls-1{fill:#2162a5;}</style></defs><g id="Layer_2" data-name="Layer 2"><g id="Layer_1-2" data-name="Layer 1"><path id="path7" class="cls-1" d="M22.23,25.7V1A11.54,11.54,0,0,1,30,5,26.22,26.22,0,0,1,35,13.43C37,7.74,41,1.61,47.57,1V9.62a14.35,14.35,0,0,1,4.57-6.89A13.54,13.54,0,0,1,60.61,0c5.52,0,11,3.78,12,9.39H66.27c-1.08-2.51-3.4-3.52-6-3.52a7.22,7.22,0,0,0-7.43,7.37c0,4.41,2.92,7.64,7.39,7.64a7,7,0,0,0,5-1.93,7.69,7.69,0,0,0,1.62-2.67H59.53V10.39H73.08V1H85.79V7H79.15v3.42h6.64v5.89H79.15v3.49h6.64V25.7H73.08V16.28a13,13,0,0,1-13,10.37,12.79,12.79,0,0,1-8.48-2.83,12.69,12.69,0,0,1-4-6.72v8.6h-6V12.35c-2.85,3.79-3.81,8.69-3.9,13.35h-5.6a25.32,25.32,0,0,0-3.94-13.35V25.7Z"/><path id="path11" class="cls-1" d="M98.22,1h6V25.7H98.8c-.79-4.08-2.72-9.27-6.08-11.86V25.7h-6V1c2.7.55,6.23,3.33,8.2,5.21a14.83,14.83,0,0,1,3.25,4.15Z"/><path id="path10" class="cls-1" d="M0,25.7l.17-.6,1-3.47a65.14,65.14,0,0,1,3.21-8.4C7.52,6.33,12.72.93,20.69.93h.55V25.7h-6v-6H7.63l-.17.53L7.1,21.34l-.49,1.73L6.14,25l-.2.72ZM10.33,13.84h4.92V8.21C12.64,9.42,11.55,11.35,10.33,13.84Z"/></g></g></svg>