<svg xmlns="http://www.w3.org/2000/svg" viewBox="0 0 139.98 33.95"><defs><style>.cls-1{fill:#850052;}.cls-2{fill:#fbae17;}</style></defs><g id="Layer_2" data-name="Layer 2"><g id="Layer_1-2" data-name="Layer 1"><path class="cls-1" d="M4.44,27.18,6.76,21l2.18,6.27H4.44Zm6.77,6.32h2.12L7.8,18.44H5.73L0,33.5H2.12L3.8,28.85H9.53Zm10-3.21c0,1.23-1,1.87-2.71,1.87a3,3,0,0,1-2.82-1.28l-2,.34c.79,1.63,2.42,2.37,4.74,2.37,3.16,0,4.79-1.72,4.79-3.6,0-2.37-2.22-3-4.74-3.56-1.24-.24-2.67-.69-2.67-1.77,0-.79.74-1.68,2.27-1.68a2.89,2.89,0,0,1,2.62,1.48l1.78-.74a4.42,4.42,0,0,0-4.15-2.17c-2.67,0-4.4,1.28-4.4,3.35,0,2.37,2,2.82,4,3.26C19.6,28.61,21.23,29,21.23,30.29Zm6.22-11.85-2,.83V22H23.65v1.58h1.83V31c-.05,1.48-.05,2.57,2.22,2.57a12.81,12.81,0,0,0,1.88-.2V31.82a6,6,0,0,1-1.24.24c-.84,0-.84-.59-.84-1.92V23.62h2.08V22H27.5v-3.6ZM31.26,22V33.5h1.92V28.21a5.4,5.4,0,0,1,.5-3c.64-1,1.53-1.38,3.45-1.43v-2a4.12,4.12,0,0,0-3.9,2.22V22Zm17.18-3.6v1.87H57L48.49,31.57v2h11V31.72H50.76L59.3,20.36V18.48H48.44ZM71.55,22V33.5h1.93V27a3.19,3.19,0,0,1,.84-2.57,3,3,0,0,1,2.17-.89A2.48,2.48,0,0,1,79,25.1a7.8,7.8,0,0,1,.1,1.88v6.47H81V26.73a7.84,7.84,0,0,0-.2-2.32A3.78,3.78,0,0,0,77,21.79a3.92,3.92,0,0,0-3.55,2V22.09H71.55Zm29.82,8.69a2.67,2.67,0,0,1-2.66,1.48c-1.29,0-3.46-.79-3.46-4.59,0-1,.2-4.59,3.36-4.59a2.75,2.75,0,0,1,2.67,1.63l1.77-.74a5.11,5.11,0,0,0-4.54-2.28c-3.65,0-5.43,2.92-5.43,6.18,0,2.81,1.53,5.92,5.58,5.92A4.78,4.78,0,0,0,103,31.47Zm-39.1-4.15h6.07c-.15-3-1.88-3.5-3.06-3.5C63.65,23.08,62.51,24.26,62.27,26.58Zm7.65,4.74a4.7,4.7,0,0,1-4.39,2.37c-3.36,0-5.34-2.27-5.34-6.12,0-4.3,2.82-5.93,5.24-5.93a4.78,4.78,0,0,1,4.79,4.05A11.85,11.85,0,0,1,70.41,28H62.22c0,1.93.74,4.35,3.45,4.3A2.75,2.75,0,0,0,68,31Zm14.22-4.74h6.08c-.15-3-1.88-3.5-3.07-3.5C85.47,23.08,84.34,24.26,84.14,26.58Zm7.61,4.74a4.71,4.71,0,0,1-4.4,2.37C84,33.69,82,31.42,82,27.57c0-4.3,2.81-5.93,5.23-5.93A4.77,4.77,0,0,1,92,25.69a11.28,11.28,0,0,1,.2,2.32H84c0,1.93.74,4.35,3.46,4.3A2.75,2.75,0,0,0,89.82,31Zm21.87,2.18h-2a10,10,0,0,1-.25-1.68,5,5,0,0,1-3.85,1.82c-2.22,0-3.85-1.33-3.85-3.26a3,3,0,0,1,.49-1.72c.64-1,1.88-1.73,5.28-2l1.83-.15v-.29c0-1.19,0-3.16-2.57-3.16-1.58,0-2.17.79-2.32,1.48l-1.78-.74c0-.05,0-.15.1-.2a4.25,4.25,0,0,1,3.95-2,5.42,5.42,0,0,1,3.31,1,3.82,3.82,0,0,1,1.24,2.87l.1,5.87A9.25,9.25,0,0,0,113.62,33.5ZM111,30.34c.3-.65.3-.89.3-2.57a27.82,27.82,0,0,0-3,.54c-2.12.45-2.47,1.28-2.47,2.07,0,.94.74,1.68,2.17,1.68A3.08,3.08,0,0,0,111,30.34ZM47.11,33.5h-2a9.44,9.44,0,0,1-.24-1.68A5.06,5.06,0,0,1,41,33.64c-2.22,0-3.9-1.33-3.9-3.26a3,3,0,0,1,.5-1.72c.64-1,1.87-1.73,5.28-2l1.83-.15v-.29c0-1.19,0-3.16-2.57-3.16-1.63,0-2.17.79-2.32,1.48l-1.78-.74c0-.05,0-.15.1-.2a4.24,4.24,0,0,1,3.95-2,5.42,5.42,0,0,1,3.31,1,3.84,3.84,0,0,1,1.23,2.87l.05,5.87A14.23,14.23,0,0,0,47.11,33.5Zm-2.62-3.16c.3-.65.3-.89.3-2.57a28.36,28.36,0,0,0-3,.54c-2.12.45-2.46,1.28-2.46,2.07,0,.94.74,1.68,2.17,1.68A3.19,3.19,0,0,0,44.49,30.34Z"/><path class="cls-2" d="M126.11,23.87l-.89.59c-3.45-1.93-10.86-5.63-11.5-5.93s-1.88-.84-1.73-2c.2-1.58,3-5.09,4.2-6.57,6.42-7.8,9.28-10.22,11.16-10s3.16,2.37,3.31,12.14c-1.14-.34-2.37-.69-3.71-1-.1-1.43-.39-3.56-.49-4.3s-.3-1.13-.59-1.18-1.34.84-2.18,1.72c-.39.4-1.48,1.49-2.66,2.72a2.22,2.22,0,0,0-2,.64,2,2,0,0,0-.19,1.63l-1.58,1.58c-1.34,1.33-2.77,2.42-2.82,3s.59.89,1.58,1.49C118.26,19.62,124,22.78,126.11,23.87Zm9-9.78a70.26,70.26,0,0,0-13.73-3.65c-2-.25-2.81.44-2,2.37a32.38,32.38,0,0,0,5.18,7.5c2.23,2.37,4.65,3,5.44-.64,0-.15,0-.25.09-.4a18.9,18.9,0,0,0,.4-2.66c-1-.45-2.12-.94-3.21-1.38,0,.84.15,2.32.2,3.4V19c0,1.82-.55,1.82-1.58,1.08-1.19-.84-4.89-5.72-5.34-7.9,0-.14,0-.14.1-.1s.05,0,.1.05h0c.84.35,3.61,1.44,6.42,2.62,1.14.49,2.27.94,3.26,1.43s1.88.89,2.57,1.24c1.23.64,1.68,1.08,1.18,1.63-2.52,2.56-11.4,6.22-14.47,10.76l0,.05c-.05.05-.05.1-.1.15a0,0,0,0,1,0,.05,4.51,4.51,0,0,0-.45,1.33c-.15,1,.4,1.88,1.83,2.27a7.17,7.17,0,0,0,1.18.25h.25c2.72.15,9.83-1.43,11.95-2.37s1.58-2,.94-2.47c-.49-.39-3-1.78-4.15-2.42a6.87,6.87,0,0,0-.89.59c2,1.24,2.87,1.88,3.36,2.23.2.14.1.29-.2.34h-.19c-1.93.15-5.63.4-7.36.5-.25,0-.55,0-.69,0,.44-.39.89-.74,1.13-.93,3.71-2.62,9.88-6.27,11.71-7.85C139.3,20.36,143,16.81,135.1,14.09Z"/></g></g></svg>