<svg xmlns="http://www.w3.org/2000/svg" viewBox="0 0 127.5 38.51"><defs><style>.cls-1{fill:#342b75;fill-rule:evenodd;}</style></defs><g id="Layer_2" data-name="Layer 2"><g id="Layer_1-2" data-name="Layer 1"><path class="cls-1" d="M8.3,33.81A18.82,18.82,0,0,1,3,28.51,18.81,18.81,0,0,1,0,18.46,18.42,18.42,0,1,1,32.88,29.9a20.87,20.87,0,0,1-4.34,3.91V23h1.82V30.4A22.25,22.25,0,0,0,33,26.68a17.26,17.26,0,0,0,2.09-8.26,16.71,16.71,0,1,0-33.42.11c0,4.31,1.51,8.1,4.73,11.87V23H8.3V33.81Zm3.64,1.86a10.75,10.75,0,0,1-1.82-.81V23h1.82V35.67Zm3.69,1a5.22,5.22,0,0,1-.93-.2,7,7,0,0,1-.9-.18V11.05h1.83V36.64Zm3.68.15a3.9,3.9,0,0,1-.74,0,7.53,7.53,0,0,1-1.08,0V11.05h1.82V36.79ZM23,36.22a17.15,17.15,0,0,1-1.82.46V11.05H23V36.22ZM23,9.7,18.42,6.13,13.8,9.7l-1-1.33L18.42,4,24,8.37,23,9.7Zm3.69,25.16-1.87.85V23h1.87V34.86Z"/><path class="cls-1" d="M47,7.76V2.83a3.13,3.13,0,0,1,1.2-.23c1.39,0,2.21.93,2.21,2.48,0,1.81-.78,2.68-2.44,2.68Zm-.9-5.9H43.78v.81l1.32.23V14.19l-1.32.24v.76H46c.39,0,.89,0,1.55.05h1.2a6.89,6.89,0,0,0,2.56-.31,3.37,3.37,0,0,0,2.09-3.23,3.48,3.48,0,0,0-3.1-3.59c1.59-.78,2.33-1.75,2.33-3.11,0-2-1.48-3.25-3.68-3.25l-1.21.06-1.63.05ZM47,8.68h.85c2.25,0,3.29.89,3.29,2.79a2.73,2.73,0,0,1-2.94,3,2,2,0,0,1-1.2-.32V8.68ZM58.82,5.5c-2.32,0-3.91,2.09-3.91,5.12,0,2.83,1.51,4.77,3.72,4.77s3.92-2.05,3.92-5.12c0-2.86-1.52-4.77-3.73-4.77Zm-.07.93c1.08,0,1.7,1.29,1.7,3.62,0,2.9-.62,4.38-1.78,4.38S57,13,57,10.55s.66-4.12,1.79-4.12Zm12.09,3.88c0-3.22-1.08-4.77-3.25-4.77S64,7.48,64,10.7c0,3,1.32,4.69,3.65,4.69,1.51,0,2.21-.5,3.17-2.25L70,12.8c-.58.89-1.08,1.24-1.78,1.24-1.4,0-2.06-1.09-2.25-3.73Zm-4.92-.93c.23-2,.7-2.9,1.59-2.9s1.28.8,1.36,2.9ZM48.28,35v-.83L47.15,34V22.68l1.17-.23v-.81H43.86v.85l1.24.19V34l-1.24.24V35Zm10.08,0v-.83l-1-.22V28c0-1.59-.81-2.53-2.29-2.53a3.83,3.83,0,0,0-2.56,1.13V25.39H52l-2.4.63v.77l1.12.15V34l-1.12.24V35h4v-.83l-1-.22V27.65a2.73,2.73,0,0,1,1.83-.86c.73,0,1.08.5,1.08,1.59V34l-1,.2V35Zm9.07-8.3V25.59l-1.59,0h-.35a1.41,1.41,0,0,1-.34,0,3.26,3.26,0,0,1-.86-.15,4.67,4.67,0,0,0-1.24-.2,3.17,3.17,0,0,0-3.22,3.21,2.84,2.84,0,0,0,1.59,2.68c-1.24.78-1.74,1.4-1.74,2.09s.31.89,1.08,1.21c-1.12.73-1.51,1.23-1.51,2,0,1.2,1.36,2,3.45,2,2.79,0,4.62-1.33,4.62-3.38,0-1.44-.86-2.14-2.68-2.21l-2.33-.12c-.58,0-.81-.15-.81-.39s.27-.54.74-.85a3,3,0,0,0,1,.15,3.09,3.09,0,0,0,3.26-3.1,2.65,2.65,0,0,0-.7-1.89Zm-4.3-.59c.93,0,1.39.81,1.39,2.53,0,1.43-.42,2.16-1.31,2.16s-1.32-.73-1.32-2.36.38-2.33,1.24-2.33Zm-.58,8.57c3,.19,3.41.34,3.41,1.17s-1.2,1.59-2.79,1.59c-1.28,0-2.06-.5-2.06-1.37a1.74,1.74,0,0,1,.7-1.42l.74,0Z"/><path class="cls-1" d="M70.42,29.2c.23-2.06.73-2.92,1.63-2.92s1.28.9,1.31,2.92Zm10.27-14v-.8l-1-.2V8.33c0-1.74-.78-2.64-2.29-2.64a3.84,3.84,0,0,0-2.52,1.13V1h-.54l-2.41.51v.67L73,2.36V14.19l-1.17.24v.76h4v-.8l-.93-.2V7.94a2.55,2.55,0,0,1,1.78-.85c.81,0,1.13.5,1.13,1.91v5.23l-.93.2v.76Zm4.23-9.56h-.58L82,6.24v.63l1.13.19v7.13L82,14.43v.76h4.3v-.8L85,14.19V9.11a2.23,2.23,0,0,1,1.2-1.63l1,.54a1.5,1.5,0,0,0,.74-1.15,1,1,0,0,0-1.13-1.13c-.7,0-1.08.35-1.86,1.67V5.63ZM90.7,1a1.23,1.23,0,0,0-1.24,1.25,1.24,1.24,0,0,0,2.48,0A1.23,1.23,0,0,0,90.7,1Zm2.17,14.23v-.8l-1.09-.2V5.69h-.46l-2.45.63V7l1,.23v7l-1,.24v.76ZM75.38,30.09a11.16,11.16,0,0,0-.27-2.41,3,3,0,0,0-3-2.32c-2.25,0-3.61,1.9-3.61,5.11,0,3,1.32,4.74,3.64,4.74,1.52,0,2.33-.58,3.22-2.26l-.85-.34c-.58.89-1.09,1.24-1.82,1.24-1.4,0-2.06-1.09-2.25-3.76ZM80.54,35v-.83L79.49,34V20.75H79l-2.44.54V22l1.08.11V34l-1.12.24V35Zm10.12,0v-.83l-1-.22V28c0-1.59-.81-2.48-2.25-2.48a3.7,3.7,0,0,0-2.56,1.11V20.75h-.5l-2.44.54V22l1.08.19V34l-1.12.24V35h3.91v-.83L84.8,34V27.76a2.8,2.8,0,0,1,1.79-.89c.81,0,1.12.5,1.12,1.9V34l-.93.2V35Zm8.14-4.93a11.16,11.16,0,0,0-.27-2.41,3,3,0,0,0-3-2.32c-2.25,0-3.61,1.9-3.61,5.11,0,3,1.32,4.74,3.64,4.74,1.52,0,2.33-.58,3.22-2.26l-.85-.34c-.58.89-1.08,1.24-1.82,1.24-1.4,0-2.06-1.09-2.25-3.76Zm-5-.89c.23-2.06.74-2.92,1.63-2.92s1.28.9,1.32,2.92Z"/><path class="cls-1" d="M107.76,6.32c.93,0,1.39.81,1.39,2.51,0,1.44-.42,2.18-1.31,2.18s-1.32-.74-1.32-2.36.38-2.33,1.24-2.33ZM103,15.19v-.8l-1-.24v-6c0-1.58-.81-2.5-2.29-2.5a3.79,3.79,0,0,0-2.56,1.11V5.58h-.54l-2.4.62V7l1.12.15v7.06l-1.12.24v.76h4v-.8l-1-.24V7.83A2.76,2.76,0,0,1,99,7c.74,0,1.09.5,1.09,1.59v5.66l-1,.2v.76Zm9-8.3V5.78l-1.59,0h-.35a1.87,1.87,0,0,1-.34,0,2.67,2.67,0,0,1-.86-.16,5,5,0,0,0-1.24-.19,3.16,3.16,0,0,0-3.22,3.22,2.85,2.85,0,0,0,1.59,2.68c-1.24.77-1.74,1.4-1.74,2s.31.94,1.08,1.24c-1.08.7-1.51,1.24-1.51,2,0,1.2,1.36,2,3.45,2,2.79,0,4.62-1.31,4.62-3.36,0-1.44-.85-2.14-2.68-2.22L106.94,13c-.58,0-.81-.15-.81-.43s.27-.51.74-.81a3.27,3.27,0,0,0,1,.15,3.1,3.1,0,0,0,3.26-3.1,2.71,2.71,0,0,0-.7-1.91Zm-5.62,8c3.84.24,4.15.32,4.15,1.21s-1.2,1.59-2.79,1.59c-1.28,0-2.06-.51-2.06-1.36a1.82,1.82,0,0,1,.7-1.44ZM120,10.31c0-3.22-1.08-4.77-3.26-4.77s-3.6,1.94-3.6,5.16c0,3,1.32,4.69,3.64,4.69,1.52,0,2.21-.5,3.18-2.25l-.85-.34c-.58.89-1.09,1.24-1.78,1.24-1.4,0-2.06-1.09-2.25-3.73Zm-4.92-.93c.23-2,.7-2.9,1.59-2.9s1.28.8,1.35,2.9Zm9.42-3.75h-.58l-2.33.61v.63l1.12.19v7.13l-1.12.24v.76h4.31v-.8l-1.36-.2V9.11a2.23,2.23,0,0,1,1.2-1.63l1,.54a1.5,1.5,0,0,0,.74-1.15,1,1,0,0,0-1.13-1.13c-.7,0-1.08.35-1.86,1.67V5.63Zm-22.3,15.12A1.29,1.29,0,0,0,100.9,22a1.22,1.22,0,0,0,1.24,1.24A1.29,1.29,0,0,0,103.42,22a1.24,1.24,0,0,0-1.21-1.24ZM104.31,35v-.83L103.22,34V25.52h-.46l-2.45.61v.63l1,.22v7l-1,.24V35h19.2v-.83L118.42,34v-5.7c0-1.94-.7-2.75-2.36-2.75a3.65,3.65,0,0,0-2.68,1.27,2.37,2.37,0,0,0-2.17-1.24,3.88,3.88,0,0,0-2.64,1.13V25.39h-.5l-2.44.63v.66l1.12.19V34l-1.12.24V35h4v-.83l-.89-.22V27.72a2.34,2.34,0,0,1,1.74-.89c.86,0,1.25.54,1.25,1.74V34l-1.09.24V35h3.92v-.83l-1-.22V27.76c.77-.69,1.2-.93,1.82-.93.81,0,1.16.5,1.16,1.78V34l-1,.24V35H104.31Z"/></g></g></svg>