<svg xmlns="http://www.w3.org/2000/svg" xmlns:xlink="http://www.w3.org/1999/xlink" viewBox="0 0 117.91 49.6"><defs><style>.cls-1{fill:none;}.cls-2{clip-path:url(#clip-path);}.cls-3{fill:url(#linear-gradient);}.cls-4{fill:#033477;}.cls-5{fill:#929497;}.cls-6{fill:#ec1c24;}</style><clipPath id="clip-path"><path id="SVGID" class="cls-1" d="M100,24A33.11,33.11,0,0,1,88.56,49.6c10.89-2.29,19.23-14.33,19.23-27.29,0-1.06,0-2.12-.05-3.06l8.41-2.88c1.07-.37,1.75-1,1.75-2,0-.69,0-1.05,0-1.05-4.55-.08-21-.63-21-.63A22.08,22.08,0,0,1,100,24M96.21,9.8a40.67,40.67,0,0,0,12.52.25S107.63,6,104.44,6a67.83,67.83,0,0,1-8.62-.54C85,3.8,82.25,0,82.25,0c.63,4.2,7.07,8.75,14,9.8"/></clipPath><linearGradient id="linear-gradient" x1="-3754.51" y1="5874.7" x2="-3753.52" y2="5874.7" gradientTransform="matrix(35.96, 0, 0, -35.96, 135112.5, 211307.19)" gradientUnits="userSpaceOnUse"><stop offset="0" stop-color="#00b2ee"/><stop offset="0.2" stop-color="#00b2ee"/><stop offset="0.62" stop-color="#0263a3"/><stop offset="0.9" stop-color="#033477"/><stop offset="1" stop-color="#033477"/></linearGradient></defs><g id="Layer_2" data-name="Layer 2"><g id="Layer_1-2" data-name="Layer 1"><g class="cls-2"><rect class="cls-3" x="82.25" width="35.66" height="49.6"/></g><path class="cls-4" d="M0,30V28.49c1.46-.53,2.54-1.84,2.54-4.84V10.47H4.8v13c0,4-2.34,6.21-4.8,6.49"/><path class="cls-4" d="M13.15,24.55C9.56,24.55,7.9,23,7.9,20.47c0-3.67,3.43-4.74,7.71-5.17v-.86c0-2.12-1.28-2.74-3-2.74a7.5,7.5,0,0,0-3.33.88l-.54-1.34a9.07,9.07,0,0,1,4.23-1c2.57,0,4.82,1.11,4.82,4.49v8.87a9.55,9.55,0,0,1-4.59,1m2.46-8.1c-3.48.44-5.56,1.17-5.56,4,0,2,1.23,2.82,3.28,2.82a5.11,5.11,0,0,0,2.28-.46Z"/><path class="cls-4" d="M29.15,24.29V14.37c0-1.29-.54-2.69-2.89-2.69a5.9,5.9,0,0,0-2.62.48V24.29H21.38V11.19a11.38,11.38,0,0,1,5.05-1c3.85,0,5,2.14,5,4.11v10Z"/><path class="cls-4" d="M37.74,24.49a6.09,6.09,0,0,1-3.54-.95l.62-1.48a4.33,4.33,0,0,0,2.69.82,2.4,2.4,0,0,0,2.57-2.38c0-1.44-.78-2.08-2.29-2.65-2.69-1-3.23-2.43-3.23-3.87a3.87,3.87,0,0,1,4.13-3.8,5.73,5.73,0,0,1,3.23,1l-.59,1.36A3.89,3.89,0,0,0,39,11.72a2.13,2.13,0,0,0-2.31,2.19c0,1.33,1,2,2.31,2.49,2.7,1,3.36,2.46,3.36,4.05,0,2.1-1.82,4-4.64,4"/><path class="cls-4" d="M47.84,24.49a6.12,6.12,0,0,1-3.54-.95l.62-1.48a4.35,4.35,0,0,0,2.69.82,2.4,2.4,0,0,0,2.57-2.38c0-1.44-.77-2.08-2.29-2.65-2.69-1-3.23-2.43-3.23-3.87a3.87,3.87,0,0,1,4.13-3.8,5.71,5.71,0,0,1,3.23,1l-.59,1.36a3.89,3.89,0,0,0-2.31-.78,2.12,2.12,0,0,0-2.3,2.19c0,1.33,1,2,2.3,2.49,2.7,1,3.36,2.46,3.36,4.05,0,2.1-1.82,4-4.64,4"/><path class="cls-4" d="M57.1,18.25c.25,3.12,1.72,4.66,4.2,4.66a6.82,6.82,0,0,0,3.41-.79l.59,1.48a8.38,8.38,0,0,1-4.18.95c-3.61,0-6.15-2.28-6.15-7.2,0-4.7,2.31-7.14,5.56-7.14s5.31,2.16,5.26,6.77Zm3.36-6.57c-2,0-3.49,1.61-3.44,5.36l6.62-1c0-3.13-1.21-4.35-3.18-4.35"/><path class="cls-4" d="M76.66,24.29V14.37c0-1.29-.54-2.69-2.9-2.69a5.88,5.88,0,0,0-2.61.48V24.29H68.89V11.19a11.38,11.38,0,0,1,5-1c3.85,0,5,2.14,5,4.11v10Z"/><path class="cls-5" d="M9.25,31.24c.65,0,1,.31,1,.93s-.61.91-1.11.91H8.58V34H7.9V31.24Zm-.67,1.33H9c.31,0,.53-.06.53-.43s-.33-.4-.54-.4H8.58Z"/><polygon class="cls-5" points="12.35 33.97 12.35 32.8 11.36 32.8 11.36 33.97 10.66 33.97 10.66 31.24 11.36 31.24 11.36 32.23 12.35 32.23 12.35 31.24 13.04 31.24 13.04 33.97 12.35 33.97"/><path class="cls-5" d="M15.45,34l-.14-.43h-1l-.13.43h-.73l1-2.73h.71l1,2.73Zm-.65-2.08L14.46,33h.7Z"/><path class="cls-5" d="M17.88,31.24c.41,0,1.05.11,1.05.88a.74.74,0,0,1-.56.76L19,34h-.75l-.55-1h-.42v1h-.69V31.24Zm-.61,1.26h.57a.36.36,0,0,0,.41-.39c0-.36-.29-.36-.41-.36h-.57Z"/><path class="cls-5" d="M22,34s0-1.5,0-2l-.57,2h-.59l-.57-2c0,.38,0,2,0,2h-.67V31.24h1l.52,1.92.5-1.92h1V34Z"/><path class="cls-5" d="M25,34l-.13-.43h-1l-.13.43H23l1-2.73h.71l1,2.73Zm-.64-2.08L24,33h.69Z"/><path class="cls-5" d="M28.38,33.35a1.34,1.34,0,0,1-1.18.71,1.32,1.32,0,0,1-1.31-1.46,1.36,1.36,0,0,1,1.33-1.44,1.27,1.27,0,0,1,1.15.71l-.54.26a.64.64,0,0,0-.58-.42c-.44,0-.67.41-.67.87s.3.9.67.9a.64.64,0,0,0,.59-.41Z"/><polygon class="cls-5" points="28.87 31.24 30.89 31.24 30.89 31.77 29.55 31.77 29.55 32.27 30.8 32.27 30.8 32.78 29.55 32.78 29.55 33.44 31.01 33.44 31.01 33.97 28.87 33.97 28.87 31.24"/><path class="cls-5" d="M33.86,32.89A1.08,1.08,0,0,1,32.68,34,1,1,0,0,1,31.53,33V31.24h.68V33c0,.36.19.45.5.45s.47-.18.47-.48V31.24h.68Z"/><polygon class="cls-5" points="35.63 31.78 35.63 33.97 34.95 33.97 34.95 31.78 34.23 31.78 34.23 31.24 36.34 31.24 36.34 31.78 35.63 31.78"/><rect class="cls-5" x="36.78" y="31.24" width="0.68" height="2.73"/><path class="cls-5" d="M40.43,33.35a1.34,1.34,0,0,1-1.18.71,1.32,1.32,0,0,1-1.31-1.46,1.36,1.36,0,0,1,1.33-1.44,1.28,1.28,0,0,1,1.15.71l-.55.26a.62.62,0,0,0-.57-.42c-.45,0-.68.41-.68.87s.31.9.68.9a.64.64,0,0,0,.59-.41Z"/><path class="cls-5" d="M42.49,34l-.13-.43h-1l-.14.43h-.72l1-2.73h.71l1,2.73Zm-.64-2.08L41.51,33h.69Z"/><polygon class="cls-5" points="43.55 33.97 43.55 31.24 44.23 31.24 44.23 33.41 45.3 33.41 45.3 33.97 43.55 33.97"/><path class="cls-5" d="M49.27,33.35a1.34,1.34,0,0,1-1.18.71,1.31,1.31,0,0,1-1.3-1.46,1.36,1.36,0,0,1,1.32-1.44,1.29,1.29,0,0,1,1.16.71l-.55.26a.64.64,0,0,0-.58-.42c-.44,0-.67.41-.67.87s.3.9.67.9a.66.66,0,0,0,.6-.41Z"/><path class="cls-5" d="M50.93,31.16a1.45,1.45,0,0,1,0,2.9,1.35,1.35,0,0,1-1.35-1.47,1.33,1.33,0,0,1,1.35-1.43m0,2.31c.51,0,.69-.46.69-.85s-.22-.89-.7-.89-.68.49-.68.85.2.89.69.89"/><path class="cls-5" d="M55.24,34s0-1.5,0-2l-.57,2H54.1l-.57-2c0,.38,0,2,0,2h-.67V31.24h1l.51,1.92.51-1.92h1V34Z"/><path class="cls-5" d="M58,31.24c.65,0,1,.31,1,.93s-.61.91-1.1.91H57.3V34h-.69V31.24Zm-.66,1.33h.44c.31,0,.53-.06.53-.43s-.33-.4-.54-.4H57.3Z"/><path class="cls-5" d="M60.88,34l-.14-.43h-1L59.6,34h-.73l1-2.73h.72l1,2.73Zm-.65-2.08L59.89,33h.69Z"/><polygon class="cls-5" points="63.56 33.97 62.59 32.34 62.59 33.97 61.93 33.97 61.93 31.24 62.6 31.24 63.57 32.91 63.57 31.24 64.23 31.24 64.23 33.97 63.56 33.97"/><rect class="cls-5" x="65.06" y="31.24" width="0.68" height="2.73"/><polygon class="cls-5" points="66.58 31.24 68.6 31.24 68.6 31.77 67.26 31.77 67.26 32.27 68.51 32.27 68.51 32.78 67.26 32.78 67.26 33.44 68.72 33.44 68.72 33.97 66.58 33.97 66.58 31.24"/><path class="cls-5" d="M71,32.06a1,1,0,0,0-.72-.35c-.28,0-.41.16-.41.3s.12.21.35.25l.31,0c.7.1,1,.31,1,.78s-.46,1-1.24,1a1.47,1.47,0,0,1-1.25-.56l.52-.32a1,1,0,0,0,.79.33c.2,0,.5-.08.5-.3s-.23-.25-.47-.29l-.32,0c-.47-.07-.87-.29-.87-.77s.4-.91,1.11-.91a1.64,1.64,0,0,1,1.2.51Z"/><path class="cls-5" d="M75,31.14A1.45,1.45,0,0,1,75,34a1.36,1.36,0,0,1-1.36-1.47A1.34,1.34,0,0,1,75,31.14m0,2.32c.5,0,.68-.47.68-.86s-.21-.89-.7-.89-.67.49-.67.86.19.89.69.89"/><polygon class="cls-5" points="79 31.3 79 31.83 77.59 31.83 77.59 32.4 78.89 32.4 78.89 32.94 77.59 32.94 77.59 34.04 76.91 34.04 76.91 31.3 79 31.3"/><path class="cls-6" d="M11,37.2c0,.08-.18.44-.42,1.08a8.22,8.22,0,0,0-.48,2.77,17.76,17.76,0,0,0,.32,2.51l-.42.55A4.71,4.71,0,0,1,8.9,40.86c0-2.19,1.33-3.72,2-3.72a.05.05,0,0,1,.06.06m18.36,6.15a1.89,1.89,0,0,1,.11.57c0,.21-.07.42-.22.42s-.2-.11-.2-.29a1.45,1.45,0,0,1,.31-.7m-18.83.88a12.57,12.57,0,0,1,.2,1.88c0,1.23-.42,2.68-1.13,2.67-.27,0-.5-.28-.51-.75a6.1,6.1,0,0,1,1.44-3.8m21.24-2.82a2.25,2.25,0,0,0-.41,1.32,1.91,1.91,0,0,0,1.82,2.11,2,2,0,0,0,2-2.19,2.37,2.37,0,0,0,0-.58,2.66,2.66,0,0,0,.68-.44.78.78,0,0,1,.36-.18c.12,0,.17.09.17.26v2.53c0,.41.13.6.45.6a.71.71,0,0,0,.62-.45c.43-.89,1.05-2.08,1.32-2.53.06-.09.11-.18.15-.18s.08,0,.08.21v2c0,.57.26.94.82.94s.89-.56,1.41-1.43a.27.27,0,0,0,0-.14.19.19,0,0,0-.2-.18c-.12,0-.18.12-.57.55-.07.07-.15.19-.29.19s-.09-.07-.09-.15V41.42c0-.6-.27-.84-.62-.84a.89.89,0,0,0-.76.47,21.8,21.8,0,0,0-1.14,2c0,.05-.06.13-.09.13s0,0,0-.13V41.42c0-.48-.12-.84-.63-.84s-.8.36-1.18.62a4.09,4.09,0,0,1-.63.4,1.35,1.35,0,0,0-1.14-1,.65.65,0,0,0-.68.67.86.86,0,0,0,.6.85,1.39,1.39,0,0,0,.64.1h.2a2.16,2.16,0,0,1,0,.45,1.14,1.14,0,0,1-1.08,1.25c-.72,0-1.14-.69-1.14-1.48A2.25,2.25,0,0,1,32.83,41c.12-.12.21-.21.21-.32s-.09-.07-.17-.07a3.31,3.31,0,0,0-1.4.4,8.93,8.93,0,0,0-1.55,1.11c-.23-.5-.52-1-.66-1.31-.05-.14-.09-.31-.19-.31s-.13.09-.2.27a16.31,16.31,0,0,1-1.73,2.95.39.39,0,0,1-.08.09s0,0,0-.1V41.42c0-.6-.25-.84-.58-.84a.86.86,0,0,0-.76.47,23.61,23.61,0,0,0-1.19,2.06c0,.08-.07.1-.09.1s0-.05,0-.13V41.42c0-.6-.25-.84-.59-.84a.86.86,0,0,0-.77.47c-.54.92-1.45,2.33-1.61,2.56a.17.17,0,0,1-.08.07s0,0,0-.08V41.42c0-.6-.24-.84-.58-.84s-.72.42-.89.69-.54.88-.78,1.34a2.32,2.32,0,0,1-.36.6s0-.12,0-.34V41.15A4.84,4.84,0,0,0,20,37.92c0-.7-.31-1.08-.79-1.08-.89,0-1.57,1.38-1.57,3v1.34a3.3,3.3,0,0,1-1.28.47c-.25-.72-.76-1.09-1.17-1.08a.65.65,0,0,0-.68.67c0,.69.66,1,1.25,1h.17a1.76,1.76,0,0,1,0,.41,1.14,1.14,0,0,1-1.07,1.25c-.72,0-1.15-.69-1.15-1.48A2.26,2.26,0,0,1,14.19,41a.62.62,0,0,0,.21-.32c0-.06-.09-.07-.17-.07-.49,0-1.57.65-2.86,1.94a26.36,26.36,0,0,1-.25-3,11.49,11.49,0,0,1,.27-2.3,1.94,1.94,0,0,0,0-.35c0-.1,0-.15-.19-.15-1.05,0-3.34,1.66-3.34,4.15a4.55,4.55,0,0,0,1.77,3.71,7.22,7.22,0,0,0-1.23,3.56c0,.84.19,1.47.81,1.47,1.29,0,2.25-2.68,2.25-4.66,0-.6,0-1.19-.07-1.78a9,9,0,0,1,1.39-1.26,3.49,3.49,0,0,0-.13.83,1.91,1.91,0,0,0,1.82,2.11,2,2,0,0,0,2-2.19c0-.16,0-.31,0-.46a3.58,3.58,0,0,0,1.15-.4v2.58a.43.43,0,0,0,.45.47c.29,0,.45-.21.67-.68s.67-1.28,1-1.81.36-.68.46-.68.05.07.05.22V44.1c0,.59.31.74.58.74a.68.68,0,0,0,.59-.37c.68-.95,1.38-2.09,1.66-2.58.06-.08.12-.15.17-.15s.08,0,.08.18v2.32c0,.41.13.6.45.6a.69.69,0,0,0,.61-.45c.42-.89,1.06-2.07,1.33-2.53.06-.09.13-.19.17-.19s.06.07.06.23v2.2c0,.59.31.74.58.74a1.13,1.13,0,0,0,.83-.54c.42-.57,1-1.55,1.41-2.2a6.15,6.15,0,0,1,.39.73,2.18,2.18,0,0,0-.62,1.26.71.71,0,0,0,.68.75,1.25,1.25,0,0,0,1.14-1.35,2.81,2.81,0,0,0-.21-1,4.59,4.59,0,0,1,1.63-1.13M18.65,39.52c0-1.93.37-2.22.49-2.22s.23.13.23.87a4.47,4.47,0,0,1-.72,2.3Zm-3.6,1.86a.18.18,0,0,1,.18-.19c.17,0,.41.19.56.55-.48,0-.74-.11-.74-.36m18.65,0a.17.17,0,0,1,.18-.19c.16,0,.42.19.56.55h-.18c-.3,0-.56-.14-.56-.37"/><path class="cls-6" d="M44.09,43.52a5.52,5.52,0,0,1-.58,0c-.5,0-.88-.19-.88-.48s.09-.28.35-.28c.41,0,.75.28,1.11.74m2.54.13a7.77,7.77,0,0,0,.85.92,7.22,7.22,0,0,0-1.23,3.56c0,.84.2,1.47.82,1.47,1.28,0,2.25-2.68,2.25-4.66a17.54,17.54,0,0,0-.08-1.78,9,9,0,0,1,1.4-1.26,3,3,0,0,0-.13.83,1.91,1.91,0,0,0,1.82,2.11,2,2,0,0,0,2-2.19,3.44,3.44,0,0,0,0-.46,3.49,3.49,0,0,0,1.15-.4v2.58a.43.43,0,0,0,.45.47c.3,0,.45-.21.67-.68s.67-1.28,1-1.81.36-.68.46-.68.05.07.05.22V44.1c0,.59.31.74.58.74a.7.7,0,0,0,.6-.37c.67-.95,1.38-2.09,1.66-2.58,0-.08.12-.15.17-.15s.08,0,.08.18v2.32c0,.41.13.6.45.6a.67.67,0,0,0,.6-.45c.43-.89,1.06-2.07,1.33-2.53.06-.09.13-.19.17-.19s.07.07.07.23v2.2c0,.59.3.74.57.74a1.11,1.11,0,0,0,.83-.54c.43-.57,1-1.55,1.42-2.2a6.15,6.15,0,0,1,.39.73,2.12,2.12,0,0,0-.62,1.26.7.7,0,0,0,.68.75,1.25,1.25,0,0,0,1.13-1.35,2.59,2.59,0,0,0-.21-1,4.67,4.67,0,0,1,1.63-1.13,2.25,2.25,0,0,0-.4,1.32A1.91,1.91,0,0,0,71,44.84a2,2,0,0,0,2-2.19,3,3,0,0,0,0-.58,2.56,2.56,0,0,0,.69-.44.74.74,0,0,1,.36-.18c.11,0,.17.09.17.26v2.53c0,.41.13.6.45.6a.71.71,0,0,0,.62-.45c.42-.89,1-2.08,1.31-2.53.07-.09.12-.18.15-.18s.09,0,.09.21v2c0,.57.25.94.82.94s.89-.56,1.4-1.43a.3.3,0,0,0,0-.14.19.19,0,0,0-.2-.18c-.12,0-.19.12-.57.55-.08.07-.16.19-.3.19s-.09-.07-.09-.15V41.42c0-.6-.27-.84-.62-.84a.89.89,0,0,0-.76.47,19.44,19.44,0,0,0-1.13,2c0,.05-.06.13-.1.13s0,0,0-.13V41.42c0-.48-.13-.84-.63-.84s-.8.36-1.19.62a3.66,3.66,0,0,1-.63.4,1.35,1.35,0,0,0-1.14-1,.65.65,0,0,0-.68.67.87.87,0,0,0,.61.85,1.37,1.37,0,0,0,.63.1h.2a2.16,2.16,0,0,1,0,.45,1.14,1.14,0,0,1-1.07,1.25c-.72,0-1.15-.69-1.15-1.48A2.31,2.31,0,0,1,70.64,41c.12-.12.21-.21.21-.32s-.09-.07-.16-.07a3.36,3.36,0,0,0-1.41.4,8.93,8.93,0,0,0-1.55,1.11c-.23-.5-.51-1-.65-1.31,0-.14-.09-.31-.2-.31s-.13.09-.19.27A15.74,15.74,0,0,1,65,43.69a.39.39,0,0,1-.08.09s0,0,0-.1V41.42c0-.6-.24-.84-.58-.84a.88.88,0,0,0-.76.47c-.42.64-.94,1.59-1.18,2.06,0,.08-.08.1-.09.1s0-.05,0-.13V41.42c0-.6-.24-.84-.58-.84a.85.85,0,0,0-.77.47c-.55.92-1.45,2.33-1.62,2.56a.12.12,0,0,1-.07.07s0,0,0-.08V41.42c0-.6-.25-.84-.58-.84s-.72.42-.89.69-.54.88-.79,1.34a2.32,2.32,0,0,1-.36.6s0-.12,0-.34V41.15a4.83,4.83,0,0,0,1.31-3.23c0-.7-.31-1.08-.79-1.08-.89,0-1.57,1.38-1.57,3v1.34a3.25,3.25,0,0,1-1.28.47A1.39,1.39,0,0,0,53,40.61a.65.65,0,0,0-.68.67c0,.69.66,1,1.26,1h.17a1.76,1.76,0,0,1,0,.41,1.14,1.14,0,0,1-1.08,1.25c-.72,0-1.14-.69-1.14-1.48A2.31,2.31,0,0,1,52,41a.62.62,0,0,0,.21-.32c0-.06-.09-.07-.17-.07-.49,0-1.57.65-2.86,1.94a26.36,26.36,0,0,1-.25-3,10.54,10.54,0,0,1,.28-2.3,3,3,0,0,0,0-.35c0-.1-.05-.15-.19-.15-1,0-3.34,1.66-3.34,4.15a4.29,4.29,0,0,0,.61,2.37,2.43,2.43,0,0,0-.36,0,4.39,4.39,0,0,0-1.05.16v-.26a3,3,0,0,0-.36-1.58.13.13,0,0,0-.1,0,.79.79,0,0,0-.37.13c-.16.07-.31.16-.31.21a.24.24,0,0,0,0,.11,1.89,1.89,0,0,1,.43,1,2.11,2.11,0,0,0-1.6-.64c-.77,0-1,.35-1,.69,0,.68.89,1,2,1a2.4,2.4,0,0,0,.67-.11c0,.22,0,.41,0,.56s0,.38.18.38.35-.43.37-1.06a4.78,4.78,0,0,1,1.17-.2,3.25,3.25,0,0,1,.58.07m2.15-6.45c0,.08-.18.44-.42,1.08a8.25,8.25,0,0,0-.47,2.77,19.17,19.17,0,0,0,.31,2.51l-.41.55a4.66,4.66,0,0,1-1.07-3.25c0-2.19,1.33-3.72,2-3.72,0,0,.05,0,.05.06m18.36,6.15a1.66,1.66,0,0,1,.12.57c0,.21-.08.42-.22.42s-.21-.11-.21-.29a1.55,1.55,0,0,1,.31-.7m-18.83.88a12.57,12.57,0,0,1,.2,1.88c0,1.23-.41,2.68-1.12,2.67-.28,0-.5-.28-.52-.75a6.15,6.15,0,0,1,1.44-3.8m8.16-4.71c0-1.93.36-2.22.49-2.22s.23.13.23.87a4.47,4.47,0,0,1-.72,2.3Zm-3.6,1.86a.18.18,0,0,1,.18-.19c.16,0,.41.19.55.55-.48,0-.73-.11-.73-.36m18.64,0a.18.18,0,0,1,.19-.19c.16,0,.42.19.56.55h-.19c-.3,0-.56-.14-.56-.37"/></g></g></svg>