<svg xmlns="http://www.w3.org/2000/svg" viewBox="0 0 111.18 17.59"><defs><style>.cls-1{fill:#026197;fill-rule:evenodd;}</style></defs><g id="Layer_2" data-name="Layer 2"><g id="Layer_1-2" data-name="Layer 1"><path class="cls-1" d="M75.14.53V7.87c0,4.91,5,9.72,10,9.72a7.14,7.14,0,0,0,7.2-6.34c.11-.64.33-1.24-.5-1.24H89.44a1.62,1.62,0,0,0-1.69.82c-.84,1.36-.9,2.27-2.72,2.27-2.29,0-5.17-2.66-5.17-5.85a2.55,2.55,0,0,1,2.71-2.74c2.08,0,2.37,1.33,3.7,1.33,1,0,2.24-1.53,3-2.31a.43.43,0,0,0,0-.71A10.09,10.09,0,0,0,83,0H75.62c-.38,0-.48.17-.48.53m18.8.08v16c0,.55,0,.76.6.76,4.28,0,3.52-3.07,6.4-3.05,2.45,0,7,3.05,9.4,3.05.68,0,.84,0,.84-.69,0-.2,0-1.48,0-1.67,0-3.71-5.7-2.92-5.7-5.73,0-1.79,5.71-5,5.71-7.6,0-1-.56-1.63-2-1.63-2,0-2.79.88-3.9,2L98.65,8.82V2.49A2.58,2.58,0,0,0,96,0H94.75C94.23,0,93.94.07,93.94.61ZM56.33.64V16.38c0,.92.17.94,1.23.94,2.21,0,3.46-2,3.48-3.94V6c0-1.43,1.81-1.75,2.77-1.75,2.2,0,4.8,1.17,4.8,3,0,1.12-1.25,1.66-2.5,1.66-1.7,0-2.28-.64-2.9-.64-.27,0-.35.22-.35.43v2.12a1.93,1.93,0,0,0,.82,1.5L69,16.63a3,3,0,0,0,1.9.69h3.42c.67,0,.78-.07.78-.74V15.51c0-.25-.2-.34-.42-.43-1.6-.62-3-2.08-4.4-3.07,2.17-1.18,3.26-2.53,3.26-4.5,0-4.5-6-7.51-9.71-7.51H57C56.37,0,56.33,0,56.33.64ZM37.61.48V7.94c0,4.75,4.63,9.38,9.62,9.38h7.09c.38,0,.53-.13.53-.51V15.22a2.47,2.47,0,0,0-2.52-2.43H47.15c-3.11,0-5-2.81-5-5.51a2.68,2.68,0,0,1,3-2.78c2.37,0,3.54,1.37,4.69,2.65H45c-.7,0-.76.09-.76.67,0,1.87,2,3.16,3.75,3.16h4.29c1.74,0,2.58-.58,2.58-2.33C54.79,4.79,50,0,45,0H38.17C37.71,0,37.61,0,37.61.48ZM0,.51V15a2.76,2.76,0,0,0,2.39,2.36H4c.51,0,.75-.25.75-.68V11.38A2.23,2.23,0,0,1,7.1,9.33c4.35,0,7.34,6.86,10.93,6.86,3.36,0,6.82-6.86,10.86-6.86a2.34,2.34,0,0,1,2.43,2.19v3.29a2.59,2.59,0,0,0,2.62,2.51h1.59a.53.53,0,0,0,.51-.47V2.46A2.76,2.76,0,0,0,33.63,0h-3C28.77.9,24.81,7.93,18,7.93,10,7.93,8.27,0,3.89,0H.53A.51.51,0,0,0,0,.51Z"/></g></g></svg>