<svg xmlns="http://www.w3.org/2000/svg" viewBox="0 0 308.1 140.14"><defs><style>.cls-1{fill:#181854;}</style></defs><g id="Layer_2" data-name="Layer 2"><g id="Layer_1-2" data-name="Layer 1"><path class="cls-1" d="M145.66,0C166,0,179.35,15.29,179.35,36.41c0,21.93-13.78,36.31-33.69,36.31S112,57.54,112,36.41,125.34,0,145.66,0Zm0,65.28c15.38,0,26-11.67,26-28.87,0-16.49-10.16-29-26-29s-25.86,12.48-25.86,29S130.37,65.28,145.66,65.28Z"/><path class="cls-1" d="M225.93,25.15a3.79,3.79,0,0,1,3.62-3.83,3.74,3.74,0,0,1,3.72,3.83V67.79a3.74,3.74,0,0,1-3.72,3.83,3.49,3.49,0,0,1-3.62-3.32c0-1.21-.71-1.11-1.92,0-3.52,3.22-8,4.42-13.27,4.42-12.17,0-20.32-8.75-20.32-22.13V25.15a3.64,3.64,0,0,1,3.52-3.83,3.82,3.82,0,0,1,3.82,3.83V50.59c0,9.36,5.13,15,13.78,15,9.56,0,14.39-8.95,14.39-14.78Z"/><path class="cls-1" d="M268.88,19.71a3.54,3.54,0,0,1,3.72,3.73,3.71,3.71,0,0,1-3.72,3.72c-9.56,0-15.19,8.65-15.19,14.48V67.79a3.67,3.67,0,1,1-7.34,0V25.05a3.8,3.8,0,0,1,3.72-3.83A3.7,3.7,0,0,1,253.69,25c0,1.2.8.7,1.51.1A19,19,0,0,1,268.88,19.71Z"/><path class="cls-1" d="M37.12,140.14C14.58,140.14,0,125.36,0,103.73,0,81.6,14.08,67.32,37.12,67.32a36.78,36.78,0,0,1,22.93,7.54,7.55,7.55,0,0,1,3,5.64,6.74,6.74,0,0,1-6.74,6.74,8.36,8.36,0,0,1-5-2.42C48.08,82,42.75,80.2,36.91,80.2,22.73,80.2,15,89.65,15,103.63s7.74,23.44,21.92,23.44a21.92,21.92,0,0,0,15-5.43,6.62,6.62,0,0,1,11.17,4.82,6.17,6.17,0,0,1-2.22,4.63A35.12,35.12,0,0,1,37.12,140.14Z"/><path class="cls-1" d="M71.12,72a6.84,6.84,0,0,1,7-6.94A6.66,6.66,0,0,1,84.9,72V132a6.67,6.67,0,0,1-6.74,6.94,6.85,6.85,0,0,1-7-6.94Z"/><path class="cls-1" d="M102.9,66a6.84,6.84,0,1,1,0,13.68,6.84,6.84,0,1,1,0-13.68ZM96,95.58a6.85,6.85,0,0,1,7-6.94,6.67,6.67,0,0,1,6.74,6.94V132a6.67,6.67,0,0,1-6.74,6.94A6.85,6.85,0,0,1,96,132Z"/><path class="cls-1" d="M160.94,123.85a5.43,5.43,0,0,1,5.53,5.43,5.52,5.52,0,0,1-2.31,4.33c-6.54,5.33-12.48,6.53-19.72,6.53-15.79,0-26.65-11.86-26.65-26.45,0-16.19,10.86-26.55,26-26.55,16.59,0,24.94,13.57,24.94,23.23,0,5.23-2.71,6.74-6.33,6.74H133.18a1.23,1.23,0,0,0-1.31,1.51c1.91,7.24,6.54,10.76,13.58,10.76a18.32,18.32,0,0,0,11.26-3.82A6.92,6.92,0,0,1,160.94,123.85Zm-28.87-17.2c-.2.9,0,1.51,1.31,1.51H155c1.31,0,1.51-.81,1.31-1.51-1.81-6.44-6.34-9.86-12.37-9.86S133.38,100.41,132.07,106.65Z"/><path class="cls-1" d="M190.51,132a6.66,6.66,0,0,1-6.74,6.94,6.85,6.85,0,0,1-7-6.94V95.58a6.85,6.85,0,0,1,7-6.94,6.5,6.5,0,0,1,6.54,5.13c.2.91,1.11,1.21,1.91.21a18.73,18.73,0,0,1,14.08-6.74c11.77,0,19,7.64,19,19.71v25a6.67,6.67,0,0,1-6.74,6.94,6.76,6.76,0,0,1-6.94-6.94V111.58c0-7.55-3.73-11.87-10.57-11.87-6,0-10.56,4.32-10.56,11.87Z"/><path class="cls-1" d="M237.29,101.22a1.15,1.15,0,0,0-1.21-1.31,5.5,5.5,0,0,1-5.73-5.53,5.61,5.61,0,0,1,5.73-5.74,1.07,1.07,0,0,0,1.21-1.2V81.5a6.77,6.77,0,0,1,6.94-6.94A6.67,6.67,0,0,1,251,81.5v5.94c0,.9.6,1.2,1.41,1.2h6.23a5.68,5.68,0,0,1,5.74,5.74,5.57,5.57,0,0,1-5.74,5.53h-6.33a1.17,1.17,0,0,0-1.31,1.31v19.41c0,4.33,1.71,6.34,6.64,6.64,5.33.3,7.34,2.21,7.34,5.73,0,3.12-2,5.94-9.46,5.94H253c-9.15,0-15.69-6.24-15.69-18.31Z"/><path class="cls-1" d="M282,101.92c0,2.11,1.91,3,7.84,5,13,4.33,18.31,9.26,18.31,16.8,0,9.35-7.64,16.09-19.11,16.09-8.65,0-21-6.43-21-11.67a5.28,5.28,0,0,1,5.23-5.33c1.3,0,3.12.91,4.83,2.52a15.71,15.71,0,0,0,11,4.22c4.93,0,7.54-2,7.54-5.43,0-2.31-2.61-3.42-9.45-5.63-9.56-3-16.9-6.74-16.9-16.1,0-9,7.14-15.18,17.6-15.18A29.13,29.13,0,0,1,304.68,93a5.34,5.34,0,0,1,2.11,4,5.72,5.72,0,0,1-5.33,5.33,4.85,4.85,0,0,1-2.92-1.1,18.26,18.26,0,0,0-10.76-3.62C283.56,97.6,282,99.41,282,101.92Z"/></g></g></svg>