<svg xmlns="http://www.w3.org/2000/svg" viewBox="0 0 111.72 45.7"><defs><style>.cls-1{fill:#164191;}.cls-2{fill:#4993cf;}</style></defs><g id="Layer_2" data-name="Layer 2"><g id="Layer_1-2" data-name="Layer 1"><path class="cls-1" d="M55.43,45.69l6.7-23.79A41.29,41.29,0,0,1,64.87,14a8.15,8.15,0,0,1,5.35-3.77,10.89,10.89,0,0,1,4.07.29,3.63,3.63,0,0,1,2.39,2.14,2.47,2.47,0,0,1-2.24,3.32,2.17,2.17,0,0,1-2.17-1.08,2,2,0,0,1,.27-2,1.07,1.07,0,0,0-.09-1.43,2.93,2.93,0,0,0-2.37.47c-.83.54-1.94,3-2.16,3.77-.13.41-1.22,4.77-1.22,4.77l8.29,0L71.32,33.17H67.4L70,22.45H66L59.71,45.7Z"/><path class="cls-1" d="M60.61,18c-.94-3.09-5.86-3.38-5.86-3.38l-6.47-.08L43.11,33.28h4.31L49,27.17A29.11,29.11,0,0,0,52.89,27c4.21-.57,5.81-2.32,5.81-2.32.67-.76,2.86-3.57,1.91-6.66m-5.29,4.73a4.4,4.4,0,0,1-2.82,1.9,9.58,9.58,0,0,1-2.78.2L52,16.48h1.74c1.29.16,2.43.63,2.78,1.93.27,1.05-.81,3.86-1.18,4.34"/><polygon class="cls-1" points="76.44 20.45 87.45 20.45 79.33 31.27 85.25 31.27 84.66 33.33 73.01 33.33 81.43 22.75 75.8 22.75 76.44 20.45"/><path class="cls-1" d="M98.08,27.21c1-3.38-.69-7-4.56-7s-7,3.42-7.29,6.16.29,7.35,6.22,7.35a7.21,7.21,0,0,0,4.7-1.62L96.26,30a4.12,4.12,0,0,1-3.86,1.37c-2.55-.39-2.5-3-2.25-4.11l7.93-.05m-4.9-4.95c2.6,0,1.62,3,1.62,3H90.29s.3-3,2.89-3"/><path class="cls-1" d="M105.47,20.5h-4L98.12,32.93h4.12s1.3-7.17,3.77-9.64c.88-.88,1.71-.24,1.95.59a1.83,1.83,0,0,0,3,.59,2.35,2.35,0,0,0-1-4c-1.86-.39-4.11,1.37-5,2.55Z"/><path class="cls-2" d="M7.38,8.23,9.54,0A73.9,73.9,0,0,1,29.45,4.84c11.14,4.31,11.48,9.59,11.36,10.23s-1.9,8.48-1.9,8.48C38.63,13,16.46,8.85,7.38,8.23"/><path class="cls-1" d="M20.4,20.55,18.34,28.7s18,2.76,20.57-5.15a7.72,7.72,0,0,0-1.35-4.12c-1.46,1.63-11.9,2.1-17.16,1.12"/><path class="cls-1" d="M33.44,32.88l-2.15,8.23a73.92,73.92,0,0,1-19.92-4.84C.23,32-.11,26.68,0,26.05s1.89-8.49,1.89-8.49c.28,10.56,22.45,14.7,31.53,15.32"/><path class="cls-2" d="M20.42,20.56l2.07-8.15s-18-2.76-20.57,5.15a7.71,7.71,0,0,0,1.34,4.12c1.47-1.63,11.91-2.1,17.16-1.12"/></g></g></svg>