<svg xmlns="http://www.w3.org/2000/svg" viewBox="0 0 86.97 45.14"><defs><style>.cls-1{fill:#006fba;}</style></defs><g id="Layer_2" data-name="Layer 2"><g id="Layer_1-2" data-name="Layer 1"><path class="cls-1" d="M58.83,17.32a3.86,3.86,0,0,0-2.23-.64,4.07,4.07,0,0,0-2.37.78v-5.7H51.41V30.35h2.82v-9.7a1.56,1.56,0,0,1,1.62-1.46,1.73,1.73,0,0,1,1.45.67,3.51,3.51,0,0,1,.33,2v8.52h2.82V21.72c0-2.54-.33-3.45-1.61-4.4"/><path class="cls-1" d="M35.89,23.71c0,1.82-.06,2.33-.07,2.49-.1,1-.53,2.07-1.7,2.07s-1.65-1.14-1.7-2.12a19.84,19.84,0,0,1-.08-2.44,24.47,24.47,0,0,1,.08-2.59c0-1,.54-2.05,1.7-2.05s1.69,1,1.7,2c0,0,.07.77.07,2.6m2.73-2.2c-.4-4-2.66-4.82-4.51-4.82-2.62,0-4.22,1.67-4.51,4.82,0,.25-.06.71-.08,2.2,0,1.08.06,2,.08,2.19.18,2.94,1.87,4.76,4.51,4.76s4.33-1.85,4.52-4.76c0-.21.07-1.11.07-2.19C38.7,23.22,38.66,21.89,38.62,21.51Z"/><path class="cls-1" d="M65.15,22c0-.61,0-.74,0-.92.08-1.11.58-2,1.72-2,1.36,0,1.67,1.31,1.72,2.05,0,.38,0,.64,0,.91H65.15m3.48,3.73a3.1,3.1,0,0,1,0,.46c-.08.65-.34,2.05-1.72,2.05-1.17,0-1.61-1.06-1.69-2.12a17.3,17.3,0,0,1-.07-1.78h6.29s0-.93,0-1.49c0-.22,0-.59-.07-1.37a6.33,6.33,0,0,0-1.21-3.33,4,4,0,0,0-3.24-1.49c-2.53,0-4.12,1.65-4.44,4.82,0,.28-.07.68-.07,2.2,0,1.08.06,2,.07,2.19.17,2.89,1.88,4.76,4.44,4.76s4.27-1.82,4.45-4.9Z"/><path class="cls-1" d="M20.6,2.28H66.44L84,22.78,66.44,43H20.6L3,22.71,20.6,2.28M67.55,0h-48L0,22.64l19.5,22.5h48L87,22.72Z"/><path class="cls-1" d="M21.17,14.29H22.5a2,2,0,0,1,2.28,2.14c0,.1,0,.22,0,.43s0,.34,0,.44a2.15,2.15,0,0,1-2.14,2.24H21.17V14.29M27.85,29.2l-.29-4.56c-.13-2-.66-3.24-1.71-3.86.76-.46,1.75-1.59,1.74-4,0-3.61-2.26-4.88-4.9-4.91H18.38V30.35h2.79V21.92h1.55c.9,0,1.91.78,2.06,3l.29,4.32a6.81,6.81,0,0,0,.14,1.14H28A6.5,6.5,0,0,1,27.85,29.2Z"/><path class="cls-1" d="M46.86,25.63c0,.2,0,.39,0,.52-.08,1-.44,2.12-1.7,2.12s-1.64-1.18-1.72-2.06c0-.53,0-.94,0-2.5a19.74,19.74,0,0,1,.07-2.59c.1-1.15.55-2,1.7-2.05s1.69,1,1.7,2c0,0,0,.25,0,.79h2.79c0-.18,0-.34,0-.43-.31-3.85-2.66-4.78-4.51-4.78-2.63,0-4.23,1.67-4.52,4.82,0,.25-.06.71-.07,2.2,0,1.08.06,2,.07,2.19.18,2.94,1.87,4.75,4.52,4.76S49.37,29,49.63,25.9a1.42,1.42,0,0,0,0-.27H46.86"/></g></g></svg>