<svg xmlns="http://www.w3.org/2000/svg" viewBox="0 0 126.17 26.9"><defs><style>.cls-1,.cls-2{fill:#4d5ca6;}.cls-2,.cls-4{fill-rule:evenodd;}.cls-3{fill:#d4af79;}.cls-4{fill:#bdbd00;}</style></defs><g id="Layer_2" data-name="Layer 2"><g id="Layer_1-2" data-name="Layer 1"><rect class="cls-1" x="87.78" y="4.69" width="2.56" height="17.52"/><path class="cls-2" d="M59.86,6.92a6.39,6.39,0,0,0-6.25,6.6,6.34,6.34,0,1,0,12.67,0A6.34,6.34,0,0,0,59.86,6.92ZM60,4.53a8.92,8.92,0,1,1-8.94,9A8.86,8.86,0,0,1,60,4.53Z"/><path class="cls-2" d="M6,6.67a2.57,2.57,0,0,0-2.8,2.77,2.16,2.16,0,0,0,1.12,1.62,6.69,6.69,0,0,0,1.09.47l1.74.59a10.61,10.61,0,0,1,3.09,1.47,4.52,4.52,0,0,1,1.48,3.35,5.54,5.54,0,0,1-5.8,5.52A5.63,5.63,0,0,1,0,17.08H2.47a3.3,3.3,0,0,0,3.44,3.16,3,3,0,0,0,3.27-2.92A2.48,2.48,0,0,0,7.77,15a6.05,6.05,0,0,0-1-.42l-1.38-.46a15.55,15.55,0,0,1-2.65-1.05,4.11,4.11,0,0,1-2-3.57,5.09,5.09,0,0,1,5.44-5.1A5.23,5.23,0,0,1,11.35,9.2H8.84A2.8,2.8,0,0,0,6,6.67Z"/><path class="cls-2" d="M74.85,4.7h8.28V7H75.71v5.69h7.42v2.34H75.71v7.15H73.15V6.39A1.69,1.69,0,0,1,74.85,4.7Z"/><path class="cls-2" d="M35.78,8.78l0,13.44H33.2V6.31A1.78,1.78,0,0,1,35,4.53a1.69,1.69,0,0,1,1.51.84C39,9.5,43.71,17.27,44.22,18.12V4.69h2.56V20.6A1.77,1.77,0,0,1,45,22.37a1.68,1.68,0,0,1-1.51-.84C41,17.41,36.28,9.63,35.78,8.78Z"/><path class="cls-2" d="M21.69,7.91,19.11,15h5.16Zm-3.43,9.37-1.81,4.94H13.78L20.07,5.63a1.74,1.74,0,0,1,3.24,0L29.6,22.22H26.93l-1.82-4.94Z"/><path class="cls-3" d="M125.54,9.38c-4.33-6.36-9.19-.78-14.07-1.47s-5-7.31,1-7.88l.44,0A13.44,13.44,0,0,1,125.54,9.38Z"/><path class="cls-2" d="M125.66,9.76a13.64,13.64,0,0,1,.51,3.69,13.45,13.45,0,0,1-22,10.35,8.18,8.18,0,0,0,2.94.52C119.25,24.39,114.05,8.19,125.66,9.76Z"/><path class="cls-4" d="M107.8,22.69c-1.69,1-4.36.72-6.22-1.82a12.41,12.41,0,0,1-1-1.71,13.32,13.32,0,0,1-1.28-5.72,12.06,12.06,0,0,1,.1-1.6c2.93,4,6.31,3.83,8.46,5.11a3.37,3.37,0,0,1,0,5.74Z"/></g></g></svg>