<svg xmlns="http://www.w3.org/2000/svg" viewBox="0 0 1920 1080"><defs><style>.cls-1{isolation:isolate;}.cls-2,.cls-6{mix-blend-mode:multiply;}.cls-3{fill:#d8d9da;}.cls-4,.cls-7{fill:#fff;}.cls-5{fill:#ecc935;}.cls-6{fill:#919396;}.cls-7{font-size:39.18px;font-family:EJRounded-Book, EJ Rounded;}</style></defs><g class="cls-1"><g id="Layer_1" data-name="Layer 1"><g class="cls-2"><circle class="cls-3" cx="839.53" cy="532.22" r="60.23"/><rect class="cls-3" x="837.46" width="4.13" height="532.22"/><circle class="cls-3" cx="960" cy="532.22" r="60.23"/><rect class="cls-3" x="957.93" width="4.13" height="532.22"/><circle class="cls-3" cx="1080.47" cy="532.22" r="60.23"/><rect class="cls-3" x="1078.4" width="4.13" height="532.22"/><circle class="cls-3" cx="1200.94" cy="532.22" r="60.23"/><rect class="cls-3" x="1198.87" width="4.13" height="532.22"/><rect class="cls-3" x="356.9" y="249.11" width="536.36" height="4.13" transform="translate(170.79 748.6) rotate(-69.49)"/><circle class="cls-3" cx="531.1" cy="502.35" r="60.23"/></g><path class="cls-4" d="M835,600.74a11.61,11.61,0,1,0,23.21,0V589.32q-11.75,1.18-23.21,2Zm-136.43-9.49.45,10a11.62,11.62,0,0,0,23.21-1.14l-.35-7.42Q709.84,592.09,698.56,591.25ZM448.3,497.94c-5.71,0-9.48,2.29-12.25,6.53l-30.56,48.39c-1.16,1.63-2.29,1.46-3.27,0l-30.41-48.23c-3.27-5.22-7.68-6.69-13.23-6.69-6.22,0-11.78,4.24-12.1,11.11l-4.25,91a11.24,11.24,0,0,0,10.95,12.1,11.36,11.36,0,0,0,12.26-11L368.06,543c.16-1.95,2.12-2.45,3.1-1l23.53,35.63a10.77,10.77,0,0,0,18.47,0L435.89,543c1.47-2.28,3.26-2.61,3.43,0l2.61,58.19a11.36,11.36,0,0,0,12.26,11,11.25,11.25,0,0,0,10.95-12.1l-4.24-91C460.56,502.18,454.68,497.94,448.3,497.94Zm151,102.15a11.62,11.62,0,0,0,23.21,1.14l.84-18.57c-8.59-1.35-16.3-2.7-23.05-4Zm216.15-7.52c-27.07,1.4-52.8,1.51-76.73.77v7.4a11.34,11.34,0,0,0,11.6,11.61h61.47a10.21,10.21,0,0,0,3.66-19.78Zm325.18-87.46q-6.2,3.36-12.42,6.57v54.91c0,16.34-8.65,26.31-26.48,26.31s-26.31-10-26.31-26.31V536.13q-11.55,4.75-23.1,9l.06,21.24c.16,31.38,18.95,47.56,49.52,47.56s49.52-16.51,49.52-47.89V509.54a11.43,11.43,0,0,0-3.56-8.45C1145.53,502.41,1143.14,503.74,1140.63,505.11Zm146,3.94c-.34-6.87-6.21-11.11-12.59-11.11-5.72,0-9.48,2.29-12.26,6.53l-30.57,48.39c-1.14,1.63-2.28,1.46-3.27,0l-30.4-48.23c-3.26-5.22-7.67-6.69-13.23-6.69-6.21,0-11.78,4.24-12.1,11.11l-4.25,91a11.24,11.24,0,0,0,11,12.1,11.36,11.36,0,0,0,12.26-11l2.62-58.19c.16-1.95,2.12-2.45,3.1-1l23.54,35.63a10.77,10.77,0,0,0,18.47,0L1261.59,543c1.46-2.28,3.27-2.61,3.43,0l2.61,58.19a11.36,11.36,0,0,0,12.26,11,11.25,11.25,0,0,0,10.95-12.1ZM916.39,607.93a12,12,0,0,0,9.15,4.42,11.39,11.39,0,0,0,11.77-11.61V577.58q-20.62,4.09-40.76,7Zm66.68-7.19a11.61,11.61,0,1,0,23.21,0V560.53Q994.64,564,983.07,567Z"/><polygon class="cls-5" points="630.38 237.77 540.58 505.24 523.01 497.48 630.38 237.77 630.38 237.77"/><path class="cls-5" d="M531.79,442.19c34.16,0,60.31,26.48,60.31,59.17S566,560.53,531.79,560.53c-35,0-60.31-25.66-60.31-59.17C471.48,467,496,442.19,531.79,442.19Z"/><path class="cls-4" d="M811.79,497.94H750.32a11.34,11.34,0,0,0-11.6,11.6v65.79c7.7.78,15.44,1.42,23.21,2v-9.58c0-1.48.65-2.29,2-2.29h41.35a10.22,10.22,0,1,0,0-20.43H763.89c-1.31,0-2-.82-2-2.29V520.65c0-1.47.65-2.29,2-2.29h47.9a10.21,10.21,0,1,0,0-20.42Zm-106.41,0c-5.72,0-9.48,2.29-12.26,6.53l-30.56,48.39c-1.15,1.63-2.29,1.46-3.27,0l-30.41-48.23c-3.26-5.22-7.68-6.69-13.23-6.69-6.21,0-11.77,4.24-12.1,11.11l-1.83,39.24c7.58,2.24,15.21,4.39,22.89,6.4l.52-11.65c.16-1.95,2.13-2.45,3.1-1l10.7,16.19q19.14,4.61,38.65,8.24L693,543c1.47-2.28,3.26-2.61,3.43,0L697.6,570c7.75,1.22,15.54,2.36,23.37,3.35l-3-64.25C717.64,502.18,711.75,497.94,705.38,497.94Zm220.16,0a11.31,11.31,0,0,0-11.44,11.6V565.6c0,2.46-2.45,2.62-3.6,1.15l-54.59-64.4a12.07,12.07,0,0,0-9.32-4.41,11.34,11.34,0,0,0-11.6,11.6v69.51q11.65-.27,23.21-.92V544.85c0-2,2-2.78,3.59-1.15l27.29,32.11q24.34-2.32,48.23-6.16V509.54A11.39,11.39,0,0,0,925.54,497.94Zm214.28,0a11.35,11.35,0,0,0-11.61,11.6v2.74c7-3.17,13.93-6.48,20.81-9.86A11.58,11.58,0,0,0,1139.82,497.94Zm-107.72,0H957.41c-6.21,0-10.45,4.41-10.45,10.13a10,10,0,0,0,10.29,10.29H981c1.47,0,2.12.82,2.12,2.29v40.2c7.78-1.75,15.52-3.59,23.21-5.57V520.65c0-1.47.66-2.29,2.13-2.29h23.69a10.09,10.09,0,0,0,10.47-10.29C1042.57,502.35,1038.32,497.94,1032.1,497.94Zm31.72,0a11.34,11.34,0,0,0-11.61,11.6l.1,32.22c7.75-2.55,15.47-5.17,23.11-8V509.54A11.34,11.34,0,0,0,1063.82,497.94Z"/><ellipse class="cls-6" cx="531.79" cy="607.98" rx="48.68" ry="6.01"/><text class="cls-7" transform="translate(945.07 476.77)">CREATIVE AGENCY</text></g></g></svg>