<svg xmlns="http://www.w3.org/2000/svg" viewBox="0 0 1920 1080"><defs><style>.cls-1{isolation:isolate;}.cls-2,.cls-6{mix-blend-mode:multiply;}.cls-3{fill:#d8d9da;}.cls-4,.cls-7{fill:#fff;}.cls-5{fill:#ecc935;}.cls-6{fill:#919396;}.cls-7{font-size:59.66px;font-family:EJRounded-Book, EJ Rounded;}</style></defs><g class="cls-1"><g id="Layer_1" data-name="Layer 1"><g class="cls-2"><circle class="cls-3" cx="839.53" cy="532.22" r="60.23"/><rect class="cls-3" x="837.46" width="4.13" height="532.22"/><circle class="cls-3" cx="960" cy="532.22" r="60.23"/><rect class="cls-3" x="957.93" width="4.13" height="532.22"/><circle class="cls-3" cx="1080.47" cy="532.22" r="60.23"/><rect class="cls-3" x="1078.4" width="4.13" height="532.22"/><circle class="cls-3" cx="1200.94" cy="532.22" r="60.23"/><rect class="cls-3" x="1198.87" width="4.13" height="532.22"/><rect class="cls-3" x="356.9" y="249.11" width="536.36" height="4.13" transform="translate(170.79 748.6) rotate(-69.49)"/><circle class="cls-3" cx="531.1" cy="502.35" r="60.23"/></g><path class="cls-4" d="M1092.54,692.14a17.67,17.67,0,0,0,35.34,0v-17.4q-17.87,1.8-35.34,3.08ZM884.8,677.68l.69,15.2c.5,10.46,9,17.18,18.67,16.68s17.16-8,16.67-18.42l-.53-11.29Q902,679,884.8,677.68Zm-381-142.08c-8.7,0-14.43,3.48-18.66,9.95l-46.53,73.67c-1.76,2.49-3.49,2.24-5,0l-46.3-73.42c-5-8-11.69-10.2-20.15-10.2-9.46,0-17.93,6.46-18.42,16.92l-6.48,138.62c-.49,10.45,7,17.93,16.68,18.42s18.17-6.22,18.67-16.68l4-88.6c.24-3,3.23-3.73,4.72-1.48l35.83,54.25a16.41,16.41,0,0,0,28.13,0l34.6-52.77c2.23-3.48,5-4,5.22,0l4,88.6c.51,10.46,9,17.18,18.67,16.68s17.17-8,16.67-18.42l-6.46-138.62C522.42,542.06,513.46,535.6,503.75,535.6ZM733.67,691.14c-.5,10.45,7,17.93,16.67,18.42s18.17-6.22,18.67-16.68l1.27-28.28c-13.08-2.06-24.81-4.11-35.09-6ZM1062.8,679.7c-41.23,2.13-80.4,2.29-116.85,1.16v11.28a17.28,17.28,0,0,0,17.67,17.67h93.59a15.55,15.55,0,0,0,5.59-30.11Zm495.13-133.18q-9.43,5.13-18.91,10v83.6c0,24.88-13.18,40.06-40.31,40.06s-40.07-15.18-40.07-40.06V593.75q-17.6,7.26-35.18,13.79l.09,32.33c.25,47.79,28.87,72.43,75.4,72.43s75.42-25.14,75.42-72.92V553.27a17.37,17.37,0,0,0-5.44-12.87C1565.39,542.41,1561.75,544.44,1557.93,546.52Zm222.25,6c-.5-10.46-9.45-16.92-19.16-16.92-8.71,0-14.43,3.48-18.66,9.95l-46.55,73.67c-1.74,2.49-3.48,2.24-5,0l-46.29-73.42c-5-8-11.69-10.2-20.15-10.2-9.46,0-17.93,6.46-18.42,16.92l-6.48,138.62c-.49,10.45,7,17.93,16.68,18.42s18.17-6.22,18.66-16.68l4-88.6c.25-3,3.24-3.73,4.73-1.48l35.84,54.25a16.4,16.4,0,0,0,28.12,0l34.6-52.77c2.23-3.48,5-4,5.22,0l4,88.6c.5,10.46,9,17.18,18.67,16.68s17.17-8,16.67-18.42Zm-563.7,150.57c4,4.48,8.71,6.72,13.94,6.72,9.95,0,17.92-7.22,17.92-17.67V656.87q-31.39,6.24-62.06,10.68Zm101.54-11a17.67,17.67,0,1,0,35.34,0V630.91q-17.71,5.26-35.34,9.89Z"/><polygon class="cls-5" points="780.99 139.46 644.25 546.72 617.5 534.9 780.99 139.46 780.99 139.46"/><path class="cls-5" d="M630.88,450.72c52,0,91.83,40.32,91.83,90.09s-39.82,90.1-91.83,90.1c-53.27,0-91.84-39.08-91.84-90.1C539,488.54,576.38,450.72,630.88,450.72Z"/><path class="cls-4" d="M1057.21,535.6H963.62A17.28,17.28,0,0,0,946,553.27V653.44c11.73,1.19,23.52,2.17,35.34,3V641.87c0-2.25,1-3.48,3-3.48h63a15.56,15.56,0,1,0,0-31.12h-63c-2,0-3-1.24-3-3.48v-33.6c0-2.24,1-3.49,3-3.49h72.93a15.55,15.55,0,1,0,0-31.1Zm-162,0c-8.7,0-14.44,3.48-18.66,9.95L830,619.22c-1.75,2.49-3.48,2.24-5,0l-46.3-73.42c-5-8-11.69-10.2-20.14-10.2-9.47,0-17.93,6.46-18.43,16.92l-2.79,59.74q17.32,5.13,34.85,9.75l.8-17.73c.25-3,3.24-3.73,4.72-1.48L794,627.45q29.15,7,58.85,12.55l23.42-35.72c2.24-3.48,5-4,5.23,0l1.84,41q17.7,2.81,35.57,5.1l-4.56-97.83C913.86,542.06,904.9,535.6,895.19,535.6Zm335.23,0A17.22,17.22,0,0,0,1213,553.27v85.36c0,3.74-3.73,4-5.48,1.75l-83.12-98.07q-6-6.7-14.19-6.71a17.28,17.28,0,0,0-17.67,17.67V659.11q17.74-.42,35.34-1.41V607c0-3,3-4.23,5.48-1.75l41.54,48.89q37.08-3.52,73.44-9.38V553.27C1248.34,542.82,1240.37,535.6,1230.42,535.6Zm326.27,0A17.28,17.28,0,0,0,1539,553.27v4.17c10.66-4.83,21.21-9.87,31.69-15A17.65,17.65,0,0,0,1556.69,535.6Zm-164,0H1279c-9.46,0-15.92,6.71-15.92,15.42s6.22,15.68,15.67,15.68h36.08c2.25,0,3.24,1.25,3.24,3.49v61.2c11.85-2.66,23.64-5.46,35.34-8.48V570.19c0-2.24,1-3.49,3.24-3.49h36.08c9.47,0,15.94-7,15.94-15.68S1402.15,535.6,1392.68,535.6Zm48.29,0a17.27,17.27,0,0,0-17.67,17.67l.14,49.05c11.81-3.87,23.56-7.87,35.2-12.11V553.27A17.28,17.28,0,0,0,1441,535.6Z"/><ellipse class="cls-6" cx="630.88" cy="703.15" rx="74.12" ry="9.14"/><text class="cls-7" transform="translate(1260.15 503.37)">CREATIVE AGENCY</text></g></g></svg>