<svg xmlns="http://www.w3.org/2000/svg" viewBox="0 0 1920 1080"><defs><style>.cls-1{isolation:isolate;}.cls-2,.cls-6{mix-blend-mode:multiply;}.cls-3{fill:#d8d9da;}.cls-4,.cls-7{fill:#fff;}.cls-5{fill:#ecc935;}.cls-6{fill:#919396;}.cls-7{font-size:83.23px;font-family:EJRounded-Book, EJ Rounded;}</style></defs><g class="cls-1"><g id="Layer_1" data-name="Layer 1"><g class="cls-2"><circle class="cls-3" cx="839.53" cy="532.22" r="60.23"/><rect class="cls-3" x="837.46" width="4.13" height="532.22"/><circle class="cls-3" cx="960" cy="532.22" r="60.23"/><rect class="cls-3" x="957.93" width="4.13" height="532.22"/><circle class="cls-3" cx="1080.47" cy="532.22" r="60.23"/><rect class="cls-3" x="1078.4" width="4.13" height="532.22"/><circle class="cls-3" cx="1200.94" cy="532.22" r="60.23"/><rect class="cls-3" x="1198.87" width="4.13" height="532.22"/><rect class="cls-3" x="356.9" y="249.11" width="536.36" height="4.13" transform="translate(170.79 748.6) rotate(-69.49)"/><circle class="cls-3" cx="531.1" cy="502.35" r="60.23"/></g><path class="cls-4" d="M1389,797.35c0,14.59,11.12,24.65,24.66,24.65s24.65-10.06,24.65-24.65V773.08q-24.93,2.5-49.31,4.29Zm-289.82-20.18,1,21.22c.7,14.58,12.5,24,26,23.27s23.94-11.12,23.25-25.7l-.73-15.75Q1123.19,779,1099.21,777.17ZM567.59,579c-12.14,0-20.14,4.86-26,13.88L476.63,695.62c-2.45,3.47-4.87,3.12-6.95,0l-64.6-102.44C398.15,582.08,388.77,579,377,579c-13.2,0-25,9-25.7,23.6l-9,193.4c-.69,14.58,9.73,25,23.26,25.7s25.36-8.69,26.05-23.27l5.57-123.61c.34-4.16,4.51-5.21,6.58-2.07l50,75.68c4.52,7,12.17,11.12,19.45,11.12a24,24,0,0,0,19.79-11.12l48.27-73.61c3.12-4.86,6.93-5.55,7.29,0l5.55,123.61c.7,14.58,12.5,24,26.05,23.27s23.95-11.12,23.26-25.7l-9-193.4C593.63,588,581.13,579,567.59,579ZM888.35,796c-.69,14.58,9.72,25,23.26,25.7s25.36-8.69,26-23.27l1.77-39.46c-18.24-2.87-34.61-5.73-49-8.42Zm459.18-16c-57.52,3-112.17,3.2-163,1.63v15.73c0,14.59,11.12,24.65,24.65,24.65h130.57c12.83,0,21.86-9.72,21.86-21.53A21.3,21.3,0,0,0,1347.53,780Zm690.79-185.8q-13.17,7.15-26.38,14V724.79c0,34.72-18.4,55.89-56.25,55.89s-55.9-21.17-55.9-55.89V660.08q-24.54,10.13-49.08,19.24l.12,45.11c.35,66.67,40.28,101,105.2,101s105.22-35.07,105.22-101.73V603.61a24.26,24.26,0,0,0-7.58-18C2048.72,588.46,2043.65,591.29,2038.32,594.19Zm310.07,8.37c-.7-14.58-13.19-23.6-26.74-23.6-12.15,0-20.13,4.86-26,13.88l-64.94,102.78c-2.43,3.47-4.86,3.12-6.95,0l-64.58-102.44c-6.93-11.1-16.31-14.22-28.12-14.22-13.19,0-25,9-25.7,23.6l-9,193.4c-.69,14.58,9.72,25,23.27,25.7s25.34-8.69,26-23.27l5.56-123.61c.35-4.16,4.52-5.21,6.6-2.07l50,75.68c4.52,7,12.15,11.12,19.44,11.12a24.07,24.07,0,0,0,19.8-11.12l48.27-73.61c3.1-4.86,6.93-5.55,7.27,0l5.56,123.61c.7,14.58,12.51,24,26,23.27s24-11.12,23.26-25.7ZM1562,812.63c5.56,6.25,12.15,9.37,19.44,9.37,13.88,0,25-10.06,25-24.65v-49.2q-43.8,8.7-86.58,14.9Zm141.66-15.28c0,14.59,11.11,24.65,24.65,24.65s24.65-10.06,24.65-24.65V711.92q-24.72,7.35-49.3,13.81Z"/><polygon class="cls-5" points="954.38 26.28 763.6 594.48 726.28 577.98 954.38 26.28 954.38 26.28"/><path class="cls-5" d="M745,460.53c72.56,0,128.11,56.26,128.11,125.7S817.51,711.92,745,711.92c-74.32,0-128.13-54.51-128.13-125.69C616.82,513.31,668.9,460.53,745,460.53Z"/><path class="cls-4" d="M1339.74,579H1209.17c-13.53,0-24.65,10.06-24.65,24.65V743.35c16.36,1.68,32.8,3,49.3,4.22V727.22c0-3.14,1.4-4.86,4.17-4.86h87.86c12.84,0,21.86-9.73,21.86-21.53,0-12.16-9-21.88-21.86-21.88H1238c-2.77,0-4.17-1.74-4.17-4.86V627.21c0-3.12,1.4-4.86,4.17-4.86h101.75c12.83,0,21.86-9.72,21.86-21.53C1361.6,588.67,1352.57,579,1339.74,579Zm-226,0c-12.14,0-20.13,4.86-26,13.88l-64.93,102.78c-2.44,3.47-4.86,3.12-6.94,0l-64.6-102.44c-6.93-11.1-16.31-14.22-28.1-14.22-13.21,0-25,9-25.71,23.6l-3.89,83.35q24.16,7.15,48.62,13.6l1.11-24.73c.35-4.16,4.52-5.21,6.59-2.07l22.72,34.39q40.66,9.79,82.11,17.51l32.67-49.83c3.13-4.86,6.94-5.55,7.3,0l2.56,57.15q24.7,3.92,49.64,7.11l-6.37-136.48C1139.74,588,1127.24,579,1113.69,579Zm467.7,0c-13.19,0-24.3,10.06-24.3,24.65V722.7c0,5.21-5.21,5.55-7.64,2.43l-116-136.81q-8.34-9.36-19.79-9.36C1400.15,579,1389,589,1389,603.61V751.27q24.75-.59,49.31-2V678.6c0-4.17,4.16-5.89,7.64-2.43l58,68.21q51.72-4.93,102.45-13.09V603.61C1606.39,589,1595.27,579,1581.39,579Zm455.2,0c-13.53,0-24.65,10.06-24.65,24.65v5.81c14.87-6.74,29.58-13.76,44.21-20.93A24.63,24.63,0,0,0,2036.59,579Zm-228.82,0H1649.1c-13.19,0-22.21,9.36-22.21,21.52s8.67,21.87,21.86,21.87h50.34c3.14,0,4.52,1.74,4.52,4.86V712.6q24.78-5.57,49.3-11.83V627.21c0-3.12,1.4-4.86,4.52-4.86h50.34c13.21,0,22.24-9.72,22.24-21.87S1821,579,1807.77,579Zm67.37,0c-13.55,0-24.65,10.06-24.65,24.65l.19,68.43c16.48-5.4,32.88-11,49.11-16.9V603.61C1899.79,589,1888.68,579,1875.14,579Z"/><ellipse class="cls-6" cx="744.94" cy="812.71" rx="103.4" ry="12.76"/><text class="cls-7" transform="translate(1622.87 534)">CREATIVE AGENCY</text></g></g></svg>