<svg xmlns="http://www.w3.org/2000/svg" xmlns:xlink="http://www.w3.org/1999/xlink" viewBox="0 0 1920 1080"><defs><style>.cls-1{fill:none;}.cls-2{isolation:isolate;}.cls-3{clip-path:url(#clip-path);}.cls-4,.cls-9{mix-blend-mode:multiply;}.cls-5{fill:#d8d9da;}.cls-6{clip-path:url(#clip-path-2);}.cls-7{fill:#ecc935;}.cls-8{fill:#fff;}.cls-9{fill:#919396;}</style><clipPath id="clip-path"><rect class="cls-1" width="1920" height="1080"/></clipPath><clipPath id="clip-path-2"><rect class="cls-1" y="1519.14" width="1920" height="1080"/></clipPath></defs><g class="cls-2"><g id="Layer_1" data-name="Layer 1"><g class="cls-3"><g class="cls-4"><circle class="cls-5" cx="839.53" cy="532.22" r="60.23"/><rect class="cls-5" x="837.46" width="4.13" height="532.22"/><circle class="cls-5" cx="960" cy="532.22" r="60.23"/><rect class="cls-5" x="957.93" width="4.13" height="532.22"/><circle class="cls-5" cx="1080.47" cy="532.22" r="60.23"/><rect class="cls-5" x="1078.4" width="4.13" height="532.22"/><circle class="cls-5" cx="1200.94" cy="532.22" r="60.23"/><rect class="cls-5" x="1198.87" width="4.13" height="532.22"/><rect class="cls-5" x="356.9" y="249.11" width="536.36" height="4.13" transform="translate(170.79 748.6) rotate(-69.49)"/><circle class="cls-5" cx="531.1" cy="502.35" r="60.23"/></g></g><g class="cls-6"><polygon class="cls-7" points="1541.04 472.61 1001.67 2079.04 896.16 2032.4 1541.04 472.61 1541.04 472.61"/></g><path class="cls-8" d="M1753.77,926.78c0,19.67,15,33.24,33.24,33.24s33.25-13.57,33.25-33.24V894.06q-33.62,3.38-66.49,5.78ZM1363,899.57l1.29,28.61c1,19.67,16.85,32.31,35.12,31.38s32.29-15,31.36-34.66l-1-21.23Q1395.3,902,1363,899.57ZM646.11,632.29c-16.37,0-27.15,6.56-35.1,18.72L523.46,789.6c-3.3,4.68-6.56,4.21-9.37,0L427,651.47c-9.35-15-22-19.18-37.9-19.18-17.8,0-33.72,12.16-34.65,31.83L342.26,924.9c-.94,19.67,13.11,33.73,31.36,34.66s34.19-11.71,35.12-31.38l7.51-166.68c.46-5.61,6.09-7,8.88-2.79l67.42,102c6.08,9.37,16.4,15,26.22,15,10.31,0,20.59-5.62,26.68-15l65.09-99.26c4.21-6.55,9.35-7.49,9.84,0l7.48,166.68c.95,19.67,16.86,32.31,35.12,31.38s32.3-15,31.37-34.66L682.18,664.12C681.23,644.45,664.38,632.29,646.11,632.29ZM1078.64,924.9c-.93,19.67,13.11,33.73,31.36,34.66s34.19-11.71,35.13-31.38l2.39-53.21c-24.6-3.87-46.68-7.72-66-11.36Zm619.17-21.52c-77.56,4-151.25,4.31-219.81,2.19v21.21c0,19.67,15,33.24,33.24,33.24H1687.3c17.31,0,29.49-13.11,29.49-29C1716.79,918.2,1709.3,907.5,1697.81,903.38Zm931.48-250.55q-17.76,9.64-35.57,18.84V828.94c0,46.81-24.81,75.37-75.85,75.37s-75.37-28.56-75.37-75.37V741.69q-33.11,13.65-66.2,25.94l.18,60.82c.46,89.9,54.3,136.25,141.85,136.25s141.87-47.28,141.87-137.18v-162A32.73,32.73,0,0,0,2650,641.33C2643.32,645.11,2636.47,648.93,2629.29,652.83Zm418.11,11.29c-1-19.67-17.79-31.83-36.06-31.83-16.38,0-27.15,6.56-35.1,18.72L2888.67,789.6c-3.27,4.68-6.55,4.21-9.36,0l-87.09-138.13c-9.35-15-22-19.18-37.91-19.18-17.79,0-33.73,12.16-34.66,31.83L2707.47,924.9c-.93,19.67,13.11,33.73,31.38,34.66S2773,947.85,2774,928.18l7.5-166.68c.47-5.61,6.09-7,8.9-2.79l67.42,102c6.09,9.37,16.39,15,26.22,15,10.3,0,20.6-5.62,26.69-15l65.08-99.26c4.2-6.55,9.35-7.49,9.82,0l7.48,166.68c.95,19.67,16.88,32.31,35.13,31.38s32.31-15,31.36-34.66ZM1986.94,947.38c7.5,8.44,16.38,12.64,26.22,12.64,18.71,0,33.7-13.57,33.7-33.24V860.43q-59.05,11.75-116.75,20.09Zm191-20.6c0,19.67,15,33.24,33.24,33.24s33.24-13.57,33.24-33.24V811.59q-33.34,9.92-66.48,18.61Z"/><polygon class="cls-7" points="1167.67 -112.95 910.42 653.22 860.1 630.98 1167.67 -112.95 1167.67 -112.95"/><path class="cls-7" d="M885.27,472.61c97.85,0,172.75,75.85,172.75,169.49s-74.9,169.49-172.75,169.49c-100.21,0-172.77-73.51-172.77-169.49C712.5,543.77,782.73,472.61,885.27,472.61Z"/><path class="cls-8" d="M1687.3,632.29H1511.24c-18.25,0-33.24,13.58-33.24,33.25V854c22.06,2.26,44.24,4.09,66.48,5.68V832.21c0-4.22,1.88-6.55,5.63-6.55h118.46c17.32,0,29.48-13.11,29.48-29,0-16.38-12.16-29.49-29.48-29.49H1550.11c-3.75,0-5.63-2.35-5.63-6.56V697.36c0-4.2,1.88-6.55,5.63-6.55H1687.3c17.31,0,29.49-13.11,29.49-29C1716.79,645.39,1704.61,632.29,1687.3,632.29Zm-304.8,0c-16.37,0-27.15,6.56-35.11,18.72L1259.85,789.6c-3.3,4.68-6.56,4.21-9.37,0l-87.1-138.13c-9.35-15-22-19.18-37.9-19.18-17.81,0-33.73,12.16-34.66,31.83l-5.25,112.4c21.72,6.42,43.56,12.58,65.56,18.33l1.5-33.35c.47-5.61,6.09-7,8.89-2.79l30.63,46.37q54.84,13.2,110.72,23.61l44.06-67.19c4.21-6.55,9.35-7.49,9.83,0l3.46,77.07c22.21,3.51,44.51,6.76,66.93,9.59l-8.58-184C1417.62,644.45,1400.77,632.29,1382.5,632.29Zm630.66,0c-17.79,0-32.78,13.58-32.78,33.25V826.12c0,7-7,7.49-10.3,3.28L1813.7,644.92q-11.23-12.63-26.69-12.63c-18.25,0-33.24,13.58-33.24,33.25V864.65q33.38-.79,66.49-2.65V766.66c0-5.62,5.6-7.95,10.3-3.28l78.16,92q69.73-6.65,138.14-17.65V665.54C2046.86,645.87,2031.87,632.29,2013.16,632.29Zm613.8,0c-18.25,0-33.24,13.58-33.24,33.25v7.83c20.05-9.08,39.88-18.56,59.6-28.23A33.2,33.2,0,0,0,2627,632.29Zm-308.55,0h-214c-17.79,0-29.95,12.63-29.95,29s11.7,29.5,29.48,29.5h67.89c4.22,0,6.09,2.35,6.09,6.55V812.5c22.28-5,44.46-10.27,66.48-16V697.36c0-4.2,1.88-6.55,6.09-6.55h67.88c17.81,0,30-13.11,30-29.5S2336.22,632.29,2318.41,632.29Zm90.84,0c-18.27,0-33.24,13.58-33.24,33.25l.27,92.27c22.21-7.28,44.32-14.81,66.22-22.78V665.54C2442.5,645.87,2427.51,632.29,2409.25,632.29Z"/><ellipse class="cls-9" cx="885.26" cy="947.5" rx="139.43" ry="17.2"/></g></g></svg>