<svg xmlns="http://www.w3.org/2000/svg" xmlns:xlink="http://www.w3.org/1999/xlink" viewBox="0 0 1920 1080"><defs><style>.cls-1{fill:none;}.cls-2{isolation:isolate;}.cls-3{clip-path:url(#clip-path);}.cls-4{fill:#ecc935;}.cls-5{font-size:34.04px;fill:#181854;font-family:EJRounded-Book, EJ Rounded;}.cls-6{opacity:0.22;}.cls-10,.cls-11,.cls-12,.cls-13,.cls-14,.cls-15,.cls-16,.cls-17,.cls-18,.cls-19,.cls-20,.cls-21,.cls-22,.cls-23,.cls-6,.cls-65,.cls-7,.cls-8,.cls-82,.cls-9{mix-blend-mode:multiply;}.cls-7{fill:#dad4da;}.cls-25,.cls-43,.cls-7{opacity:0;}.cls-8{fill:#dbd5db;}.cls-26,.cls-66,.cls-8{opacity:0.06;}.cls-9{fill:#dcd6dc;}.cls-27,.cls-67,.cls-9{opacity:0.13;}.cls-10{fill:#dcd7dc;}.cls-10,.cls-28,.cls-68{opacity:0.19;}.cls-11{fill:#ddd8dd;}.cls-11,.cls-29,.cls-69{opacity:0.25;}.cls-12{fill:#ded8de;}.cls-12,.cls-30,.cls-70{opacity:0.31;}.cls-13{fill:#dfd9df;}.cls-13,.cls-31,.cls-71{opacity:0.38;}.cls-14{fill:#dfdae0;}.cls-14,.cls-32,.cls-72{opacity:0.44;}.cls-15{fill:#e0dbe1;}.cls-15,.cls-33,.cls-65,.cls-73{opacity:0.5;}.cls-16{fill:#e1dce1;}.cls-16,.cls-34,.cls-74{opacity:0.56;}.cls-17{fill:#e2dde2;}.cls-17,.cls-35,.cls-75{opacity:0.63;}.cls-18{fill:#e2dee3;}.cls-18,.cls-36,.cls-76{opacity:0.69;}.cls-19,.cls-44{fill:#e3dfe4;}.cls-19,.cls-37,.cls-77{opacity:0.75;}.cls-20{fill:#e4dfe5;}.cls-20,.cls-38,.cls-78{opacity:0.81;}.cls-21{fill:#e4e0e5;}.cls-21,.cls-39,.cls-79{opacity:0.88;}.cls-22{fill:#e5e1e6;}.cls-22,.cls-40,.cls-80{opacity:0.94;}.cls-23,.cls-46{fill:#e6e2e7;}.cls-24,.cls-64{mix-blend-mode:soft-light;}.cls-25,.cls-26,.cls-27,.cls-28,.cls-29,.cls-30,.cls-31,.cls-32,.cls-33,.cls-34,.cls-35,.cls-36,.cls-37,.cls-38,.cls-39,.cls-40,.cls-41{fill:#fff;}.cls-42{opacity:0.45;mix-blend-mode:overlay;}.cls-43{fill:#e2dde3;}.cls-44{opacity:0.05;}.cls-45{fill:#e5e0e6;opacity:0.1;}.cls-46{opacity:0.14;}.cls-47{fill:#e8e3e8;opacity:0.19;}.cls-48{fill:#e9e5ea;opacity:0.24;}.cls-49{fill:#eae7eb;opacity:0.29;}.cls-50{fill:#ece8ec;opacity:0.33;}.cls-51{fill:#edeaee;opacity:0.38;}.cls-52,.cls-73{fill:#eeecef;}.cls-52{opacity:0.43;}.cls-53{fill:#f0edf0;opacity:0.48;}.cls-54{fill:#f1eff2;opacity:0.52;}.cls-55{fill:#f3f0f3;opacity:0.57;}.cls-56{fill:#f4f2f4;opacity:0.62;}.cls-57{fill:#f5f4f6;opacity:0.67;}.cls-58{fill:#f7f5f7;opacity:0.71;}.cls-59{fill:#f8f7f8;opacity:0.76;}.cls-60{fill:#f9f9fa;opacity:0.81;}.cls-61,.cls-67{fill:#fbfafb;}.cls-61{opacity:0.86;}.cls-62{fill:#fcfcfc;opacity:0.9;}.cls-63{fill:#fefdfe;opacity:0.95;}.cls-64{opacity:0.29;}.cls-66{fill:#fdfdfd;}.cls-68{fill:#f9f8f9;}.cls-69{fill:#f7f6f7;}.cls-70{fill:#f4f3f5;}.cls-71{fill:#f2f1f3;}.cls-72{fill:#f0eef1;}.cls-74{fill:#eceaec;}.cls-75{fill:#eae7ea;}.cls-76{fill:#e8e5e8;}.cls-77{fill:#e6e3e6;}.cls-78{fill:#e3e0e4;}.cls-79{fill:#e1dee2;}.cls-80{fill:#dfdbe0;}.cls-81{fill:#ddd9de;}.cls-82{opacity:0.34;}</style><clipPath id="clip-path"><rect class="cls-1" width="1920" height="1080"/></clipPath></defs><g class="cls-2"><g id="Layer_1" data-name="Layer 1"><g class="cls-3"><polygon class="cls-4" points="1541.04 -1046.53 1001.67 559.9 896.16 513.27 1541.04 -1046.53 1541.04 -1046.53"/><path class="cls-4" d="M948.93,181.21c205.16,0,362.21,159,362.21,355.38S1154.09,892,948.93,892c-210.11,0-362.24-154.12-362.24-355.37C586.69,330.42,733.94,181.21,948.93,181.21Z"/><text class="cls-5"><tspan x="864.98" y="418.74">we combine</tspan><tspan x="797.41" y="456.18">our creative expertise </tspan><tspan x="775.74" y="493.62">with in-depth knowledge </tspan><tspan x="797.03" y="531.06">of the pharmaceutical </tspan><tspan x="828.33" y="568.5">industry to deliver </tspan><tspan x="767.71" y="605.94">compelling and compliant </tspan><tspan x="818.44" y="643.38">solutions that drive </tspan><tspan x="904.94" y="680.82">results.</tspan></text></g><g class="cls-6"><path class="cls-7" d="M1271,449c0,134.73-139.87,244-312.41,244S646.07,583.69,646.07,449,785.93,205.07,958.6,205.07,1271,314.22,1271,449Z"/><path class="cls-8" d="M1268.76,447.88c0,133.64-138.8,242-310,242s-310.14-108.36-310.14-242S787.38,206,958.72,206,1268.76,314.24,1268.76,447.88Z"/><path class="cls-9" d="M1266.51,446.8c0,132.54-137.74,240-307.67,240S651.1,579.34,651.1,446.8,788.83,206.89,958.84,206.89,1266.51,314.26,1266.51,446.8Z"/><path class="cls-10" d="M1264.26,445.72c0,131.45-136.67,238-305.29,238s-305.36-106.58-305.36-238S790.28,207.79,959,207.79,1264.26,314.27,1264.26,445.72Z"/><path class="cls-11" d="M1262,444.64c0,130.36-135.6,236-302.92,236s-303-105.68-303-236,135.61-235.94,303-235.94S1262,314.29,1262,444.64Z"/><path class="cls-12" d="M1259.76,443.56c0,129.26-134.54,234.05-300.55,234.05s-300.57-104.79-300.57-234S793.18,209.61,959.21,209.61,1259.76,314.3,1259.76,443.56Z"/><path class="cls-13" d="M1257.51,442.48c0,128.17-133.47,232.07-298.17,232.07S661.15,570.65,661.15,442.48s133.48-232,298.19-232S1257.51,314.32,1257.51,442.48Z"/><path class="cls-14" d="M1255.26,441.4c0,127.08-132.41,230.08-295.8,230.08s-295.8-103-295.8-230.08,132.42-230,295.8-230S1255.26,314.34,1255.26,441.4Z"/><path class="cls-15" d="M1253,440.32c0,126-131.34,228.09-293.42,228.09S666.17,566.3,666.17,440.32s131.36-228,293.42-228S1253,314.35,1253,440.32Z"/><path class="cls-16" d="M1250.76,439.24c0,124.89-130.28,226.11-291,226.11s-291-101.22-291-226.11,130.29-226,291-226S1250.76,314.37,1250.76,439.24Z"/><path class="cls-17" d="M1248.51,438.16c0,123.8-129.21,224.12-288.68,224.12S671.2,562,671.2,438.16s129.23-224,288.63-224S1248.51,314.39,1248.51,438.16Z"/><path class="cls-18" d="M1246.26,437.08c0,122.7-128.14,222.13-286.3,222.13S673.71,559.78,673.71,437.08s128.17-222,286.25-222S1246.26,314.4,1246.26,437.08Z"/><path class="cls-19" d="M1244,436c0,121.61-127.08,220.15-283.93,220.15S676.23,557.61,676.23,436s127.1-220,283.85-220S1244,314.42,1244,436Z"/><path class="cls-20" d="M1241.76,434.91c0,120.53-126,218.17-281.56,218.17S678.74,555.44,678.74,434.91s126-218,281.46-218S1241.76,314.43,1241.76,434.91Z"/><path class="cls-21" d="M1239.5,433.83C1239.5,553.26,1114.56,650,960.33,650S681.25,553.26,681.25,433.83s125-216,279.08-216S1239.5,314.45,1239.5,433.83Z"/><path class="cls-22" d="M1237.25,432.75c0,118.34-123.87,214.2-276.8,214.2-152.77,0-276.69-95.86-276.69-214.2s123.92-214,276.69-214C1113.38,218.7,1237.25,314.47,1237.25,432.75Z"/><path class="cls-23" d="M1235,431.67c0,117.25-122.81,212.21-274.42,212.21s-274.3-95-274.3-212.21,122.84-212.06,274.3-212.06C1112.19,219.61,1235,314.48,1235,431.67Z"/></g><g class="cls-24"><path class="cls-25" d="M889,458.84c90.17-69.91,193-7.18,193-7.18s62.75-75.06,56-122.32-231.69-137.1-335.38,4.82C771.41,376.72,889,458.84,889,458.84Z"/><path class="cls-26" d="M889.07,456.28c88.44-68.56,191.19-7,191.19-7s61.27-72.91,54.63-119.27-227.83-133.21-329.74,4.71C774.35,376.26,889.07,456.28,889.07,456.28Z"/><path class="cls-27" d="M889.18,453.73c86.7-67.21,189.36-6.86,189.36-6.86s59.79-70.75,53.28-116.2-224-129.32-324.09,4.6C777.29,375.8,889.18,453.73,889.18,453.73Z"/><path class="cls-28" d="M889.28,451.18c85-65.87,187.54-6.7,187.54-6.7s58.31-68.61,51.93-113.14S908.62,205.9,810.31,335.83C780.24,375.35,889.28,451.18,889.28,451.18Z"/><path class="cls-29" d="M889.38,448.63c83.24-64.53,185.72-6.55,185.72-6.55s56.83-66.45,50.58-110.07S909.4,210.46,812.89,336.39C783.18,374.89,889.38,448.63,889.38,448.63Z"/><path class="cls-30" d="M889.48,446.08c81.51-63.19,183.9-6.4,183.9-6.4s55.35-64.29,49.23-107S910.18,215,815.47,336.94C786.12,374.44,889.48,446.08,889.48,446.08Z"/><path class="cls-31" d="M889.59,443.52c79.77-61.83,182.07-6.23,182.07-6.23s53.87-62.14,47.89-104S911,219.57,818,337.5C789.07,374,889.59,443.52,889.59,443.52Z"/><path class="cls-32" d="M889.69,441c78-60.49,180.25-6.08,180.25-6.08s52.38-60,46.54-100.88S912,224.31,820.62,338.06C792.09,373.59,889.69,441,889.69,441Z"/><path class="cls-33" d="M889.79,438.42c76.31-59.15,178.43-5.92,178.43-5.92s50.9-57.84,45.19-97.82S912.76,228.87,823.2,338.61C795,373.13,889.79,438.42,889.79,438.42Z"/><path class="cls-34" d="M889.9,435.87c74.57-57.8,176.6-5.77,176.6-5.77s49.42-55.68,43.84-94.75-196.8-101.93-284.56,3.82C798,372.68,889.9,435.87,889.9,435.87Z"/><path class="cls-35" d="M890,433.31c72.85-56.45,174.78-5.61,174.78-5.61s47.94-53.52,42.49-91.68-193-98-278.92,3.71C800.91,372.22,890,433.31,890,433.31Z"/><path class="cls-36" d="M890.1,430.76c71.12-55.11,173-5.45,173-5.45s46.46-51.37,41.14-88.62-189.13-94.18-273.27,3.6C803.85,371.76,890.1,430.76,890.1,430.76Z"/><path class="cls-37" d="M890.2,428.21c69.39-53.76,171.14-5.3,171.14-5.3s45-49.21,39.8-85.56-185.49-90.45-267.63,3.49C806.73,371.25,890.2,428.21,890.2,428.21Z"/><path class="cls-38" d="M890.31,425.66c67.65-52.42,169.31-5.14,169.31-5.14s43.5-47.06,38.45-82.5-181.64-86.57-262,3.38C809.67,370.79,890.31,425.66,890.31,425.66Z"/><path class="cls-39" d="M890.41,423.1c65.92-51.07,167.49-5,167.49-5s42-44.91,37.1-79.43S917.21,256,838.67,342C812.62,370.34,890.41,423.1,890.41,423.1Z"/><path class="cls-40" d="M890.51,420.55c64.19-49.72,165.67-4.83,165.67-4.83s40.54-42.75,35.75-76.36S918,260.56,841.24,342.52C815.56,369.88,890.51,420.55,890.51,420.55Z"/><path class="cls-41" d="M890.62,418c62.45-48.38,163.84-4.67,163.84-4.67s39-40.6,34.4-73.3-170.09-74.91-245,3C818.5,369.43,890.62,418,890.62,418Z"/></g><g class="cls-42"><path class="cls-43" d="M846.08,365.2c20.84,30.64,9.44,74.92-25.63,98.88-35.09,23.8-80.45,18.18-101.37-12.53s-9.46-75,25.56-98.93S825.07,334.4,846.08,365.2Z"/><path class="cls-44" d="M843.43,366.88c20,29.38,9.05,71.82-24.57,94.79-33.64,22.81-77.12,17.43-97.17-12s-9.12-72,24.5-94.84S823.29,337.35,843.43,366.88Z"/><path class="cls-45" d="M840.78,368.56c19.12,28.11,8.67,68.72-23.5,90.7-32.19,21.82-73.79,16.67-93-11.5s-8.73-68.87,23.44-90.73S821.51,340.31,840.78,368.56Z"/><path class="cls-46" d="M838.13,370.24c18.26,26.84,8.28,65.61-22.44,86.61-30.74,20.83-70.46,15.92-88.78-11s-8.34-65.76,22.38-86.64S819.73,343.26,838.13,370.24Z"/><path class="cls-47" d="M835.48,371.92c17.4,25.58,7.93,62.57-21.38,82.52S747,469.6,729.52,444s-7.95-62.66,21.32-82.55S818,346.22,835.48,371.92Z"/><path class="cls-48" d="M832.83,373.59c16.54,24.32,7.54,59.48-20.31,78.44s-63.8,14.41-80.4-9.94-7.55-59.56,20.27-78.46S816.18,349.17,832.83,373.59Z"/><path class="cls-49" d="M830.18,375.27c15.68,23.05,7.16,56.38-19.25,74.35s-60.47,13.66-76.2-9.43-7.16-56.44,19.21-74.36S814.4,352.13,830.18,375.27Z"/><path class="cls-50" d="M827.53,377c14.82,21.79,6.77,53.27-18.19,70.26s-57.13,12.9-72-8.91S730.57,385,755.49,368,812.62,355.08,827.53,377Z"/><path class="cls-51" d="M824.88,378.63c14,20.52,6.38,50.17-17.12,66.17S754,457,740,436.41s-6.38-50.23,17.09-66.18S810.84,358,824.88,378.63Z"/><path class="cls-52" d="M822.23,380.31c13.1,19.25,6,47.07-16.06,62.07s-50.47,11.41-63.61-7.86-6-47.13,16-62.09S809.06,361,822.23,380.31Z"/><path class="cls-53" d="M819.58,382c12.24,18,5.6,44-15,58s-47.14,10.65-59.42-7.34-5.6-44,15-58S807.29,364,819.58,382Z"/><path class="cls-54" d="M816.93,383.66c11.38,16.73,5.22,40.87-13.93,53.9s-43.81,9.9-55.23-6.83-5.21-40.91,13.92-53.9S805.51,366.91,816.93,383.66Z"/><path class="cls-55" d="M814.28,385.34c10.52,15.46,4.83,37.77-12.87,49.81s-40.48,9.14-51-6.31S745.56,391,763.25,379,803.73,369.86,814.28,385.34Z"/><path class="cls-56" d="M811.63,387c9.66,14.2,4.44,34.67-11.81,45.72S762.67,441.13,753,427s-4.43-34.71,11.81-45.72S802,372.82,811.63,387Z"/><path class="cls-57" d="M809,388.7c8.81,12.93,4.06,31.57-10.73,41.63s-33.82,7.64-42.65-5.27-4-31.6,10.76-41.63S800.17,375.77,809,388.7Z"/><path class="cls-58" d="M806.32,390.38c7.95,11.66,3.67,28.46-9.67,37.54s-30.51,6.9-38.45-4.76-3.64-28.49,9.7-37.52S798.39,378.73,806.32,390.38Z"/><path class="cls-59" d="M803.67,392.06c7.09,10.4,3.29,25.36-8.61,33.45s-27.18,6.15-34.25-4.24-3.25-25.39,8.64-33.43S796.62,381.68,803.67,392.06Z"/><path class="cls-60" d="M801,393.73c6.22,9.14,2.9,22.27-7.54,29.37s-23.86,5.4-30.06-3.72S760.56,397.1,771,390,794.84,384.64,801,393.73Z"/><path class="cls-61" d="M798.37,395.41c5.36,7.87,2.51,19.17-6.48,25.28s-20.52,4.64-25.86-3.2-2.47-19.18,6.52-25.25S793.06,387.59,798.37,395.41Z"/><path class="cls-62" d="M795.72,397.09c4.5,6.61,2.12,16.06-5.42,21.19s-17.19,3.89-21.67-2.68-2.07-16.08,5.47-21.16S791.28,390.55,795.72,397.09Z"/><path class="cls-63" d="M793.07,398.77c3.64,5.34,1.73,13-4.35,17.1s-13.87,3.14-17.48-2.17-1.68-13,4.41-17.06S789.5,393.51,793.07,398.77Z"/><path class="cls-41" d="M790.42,400.45c2.78,4.07,1.32,9.82-3.29,13s-10.5,2.36-13.28-1.65-1.29-9.85,3.35-13S787.73,396.46,790.42,400.45Z"/></g><g class="cls-42"><path class="cls-43" d="M1278.65,607.6c35.34,30.65-1.57,98.4-62.26,156.17s-119,93.31-157.42,53.07,2.64-103.33,63.34-161.17S1236.6,571.16,1278.65,607.6Z"/><path class="cls-44" d="M1274.07,611.77c33.89,29.43-1.37,94.46-59.55,149.84s-114.24,89.31-151,50.73,2.38-99.16,60.58-154.6S1233.78,576.8,1274.07,611.77Z"/><path class="cls-45" d="M1269.48,615.93c32.45,28.23-1.16,90.53-56.83,143.52S1103.2,844.76,1068,807.85s2.12-95,57.81-148S1231,582.45,1269.48,615.93Z"/><path class="cls-46" d="M1264.9,620.1c31,27-1,86.59-54.13,137.18s-104.65,81.32-138.27,46.08,1.87-90.82,55-141.47S1228.14,588.1,1264.9,620.1Z"/><path class="cls-47" d="M1260.32,624.27c29.56,25.8-.76,82.65-51.42,130.85S1109,832.44,1077,798.86s1.61-86.64,52.28-134.89S1225.31,593.75,1260.32,624.27Z"/><path class="cls-48" d="M1255.74,628.43c28.11,24.6-.56,78.72-48.71,124.53s-95.06,73.32-125.51,41.41S1082.87,711.9,1131,666,1222.49,599.4,1255.74,628.43Z"/><path class="cls-49" d="M1251.16,632.6c26.66,23.38-.36,74.77-46,118.2s-90.27,69.32-119.14,39.08,1.11-78.3,46.76-121.76S1219.67,605.05,1251.16,632.6Z"/><path class="cls-50" d="M1246.58,636.77c25.22,22.17-.16,70.83-43.29,111.87s-85.48,65.32-112.76,36.74.85-74.12,44-115.19S1216.85,610.69,1246.58,636.77Z"/><path class="cls-51" d="M1242,640.93c23.77,21,0,66.9-40.58,105.54S1120.73,807.8,1095,780.89s.59-69.95,41.22-108.62S1214,616.34,1242,640.93Z"/><path class="cls-52" d="M1237.41,645.1c22.33,19.75.24,63-37.86,99.21s-75.9,57.33-100,32.09.34-65.78,38.46-102.06S1211.21,622,1237.41,645.1Z"/><path class="cls-53" d="M1232.83,649.27c20.88,18.53.44,59-35.16,92.88s-71.1,53.33-93.61,29.75.08-61.6,35.69-95.48S1208.39,627.64,1232.83,649.27Z"/><path class="cls-54" d="M1228.25,653.43c19.44,17.33.64,55.09-32.45,86.56s-66.31,49.33-87.23,27.42-.18-57.43,32.93-88.91S1205.57,633.29,1228.25,653.43Z"/><path class="cls-55" d="M1223.67,657.6c18,16.11.84,51.15-29.74,80.22s-61.52,45.34-80.85,25.1-.43-53.26,30.16-82.35S1202.75,638.94,1223.67,657.6Z"/><path class="cls-56" d="M1219.09,661.76c16.54,14.91,1,47.22-27,73.9s-56.72,41.34-74.48,22.76-.68-49.08,27.4-75.77S1199.93,644.59,1219.09,661.76Z"/><path class="cls-57" d="M1214.51,665.93c15.09,13.7,1.24,43.28-24.32,67.57s-51.93,37.34-68.1,20.43-.93-44.92,24.64-69.21S1197.11,650.23,1214.51,665.93Z"/><path class="cls-58" d="M1209.93,670.1c13.65,12.48,1.44,39.34-21.61,61.24s-47.18,33.37-61.72,18.1-1.19-40.75,21.87-62.64S1194.28,655.88,1209.93,670.1Z"/><path class="cls-59" d="M1205.34,674.26c12.21,11.28,1.65,35.41-18.89,54.92s-42.38,29.37-55.34,15.76-1.45-36.57,19.11-56.07S1191.46,661.53,1205.34,674.26Z"/><path class="cls-60" d="M1200.76,678.43c10.76,10.06,1.85,31.47-16.18,48.58s-37.59,25.39-49,13.44-1.7-32.4,16.34-49.5S1188.64,667.18,1200.76,678.43Z"/><path class="cls-61" d="M1196.18,682.6c9.31,8.85,2,27.53-13.48,42.25s-32.79,21.39-42.57,11.11-2-28.23,13.58-42.94S1185.82,672.83,1196.18,682.6Z"/><path class="cls-62" d="M1191.6,686.76c7.87,7.64,2.25,23.6-10.77,35.93s-28,17.39-36.19,8.77-2.19-24,10.81-36.36S1183,678.48,1191.6,686.76Z"/><path class="cls-63" d="M1187,690.93c6.42,6.43,2.45,19.66-8.06,29.6s-23.21,13.39-29.82,6.44-2.43-19.84,8-29.8S1180.18,684.13,1187,690.93Z"/><path class="cls-41" d="M1182.44,695.1c5,5.21,2.65,15.72-5.35,23.26s-18.38,9.36-23.44,4.12-2.72-15.71,5.29-23.23S1177.36,689.77,1182.44,695.1Z"/></g><g class="cls-64"><path class="cls-25" d="M1002.23,491.13c-8.1-.82-45.54.65-61.71,5.42s-24.41,6.8-34.39,10.1c-7.29,2.44-19.7-.71-25.09-7.34s-3.75-16.74,17.08-28.23c13.81-7.68,63.33-20.92,90.15-20.92,13.42,0,33.72,4.27,52.59,10.25s36.29,13.66,44,20.47,7.16,16.07,1.69,22.29-15.93,9.41-28.13,4C1031.67,495.54,1002.23,491.13,1002.23,491.13Z"/><path class="cls-26" d="M988,451.47c13.25,0,33.22,4.09,51.76,9.85,18.11,5.68,34.82,13,42.38,19.46,5,4.29,6.61,9.51,5.9,14.36a12.42,12.42,0,0,1-3.61,7c-5.48,5.59-15.39,8.61-27.44,3.4-1.16-.5-2.33-1-3.5-1.46-24.58-10-50.44-13.89-51.29-14-4.07-.35-14.85-.27-26.67.51-12.21.79-25.43,2.3-33.5,4.61-15.6,4.48-23.84,6.51-33.56,9.72a21.83,21.83,0,0,1-9.81.53c-5.66-.83-11.36-3.39-14.69-7.06-2.85-3.14-3.8-7-1.41-11.77,1.44-2.89,4.19-6.08,8.94-9.58a70.82,70.82,0,0,1,8.58-5.36c5.46-3,16.43-6.81,29.29-10.33C948.65,456.06,972.24,451.47,988,451.47Z"/><path class="cls-27" d="M987.68,452.78c13.07,0,32.72,3.86,50.91,9.44,17.37,5.33,33.37,12.35,40.81,18.45,5,4.14,6.71,9.11,6.36,13.78a9.62,9.62,0,0,1-3.46,6.6c-5.44,5-14.86,7.81-26.75,2.77-1.13-.48-2.27-.95-3.41-1.4a239.28,239.28,0,0,0-50-13.39c-4.13-.35-14.56-.29-26,.43-11.9.74-24.7,2.17-32.66,4.38-15.09,4.26-23.25,6.27-32.72,9.36a22.3,22.3,0,0,1-9.55.62c-5.54-.71-11-3.07-14.35-6.34-2.93-2.86-3.91-6.24-1.81-10.75,1.25-2.7,3.77-5.76,8.54-9.28a67,67,0,0,1,8.39-5.17c5.4-2.88,16.07-6.57,28.57-10C949.35,457.21,972.29,452.78,987.68,452.78Z"/><path class="cls-28" d="M987.39,454.09c12.9,0,32.21,3.66,50.07,9,16.62,5,31.91,11.68,39.23,17.44,5,4,6.83,8.72,6.82,13.19a7.59,7.59,0,0,1-3.3,6.23c-5.37,4.34-14.34,7-26.07,2.14q-1.65-.69-3.33-1.35A229.47,229.47,0,0,0,1002.05,488a220.48,220.48,0,0,0-25.29.34c-11.59.69-24,2-31.82,4.16-14.6,4-22.67,6-31.89,9a22.86,22.86,0,0,1-9.28.7,26.62,26.62,0,0,1-14-5.62c-3-2.58-4-5.46-2.21-9.71,1.07-2.53,3.36-5.45,8.15-9a62.94,62.94,0,0,1,8.19-5c5.34-2.79,15.72-6.35,27.85-9.61C950.05,458.35,972.34,454.09,987.39,454.09Z"/><path class="cls-29" d="M987.1,455.4c12.72,0,31.7,3.46,49.22,8.64,15.88,4.69,30.47,11,37.66,16.43,5.08,3.82,7,8.34,7.28,12.59.19,2.67-.9,4.27-3.15,5.87-5.24,3.74-13.81,6.22-25.38,1.51-1.07-.44-2.16-.87-3.25-1.29-21.32-8.31-44.09-11.93-47.48-12.21a213.83,213.83,0,0,0-24.62.27c-11.27.62-23.25,1.88-31,3.92-14.1,3.73-22.08,5.74-31,8.63a23.66,23.66,0,0,1-9,.78,27.69,27.69,0,0,1-13.68-4.9c-3.11-2.31-4.1-4.69-2.6-8.67.89-2.37,2.94-5.13,7.76-8.7a58.3,58.3,0,0,1,8-4.78c5.27-2.69,15.36-6.11,27.12-9.25C950.75,459.5,972.39,455.4,987.1,455.4Z"/><path class="cls-30" d="M986.81,456.71c12.54,0,31.19,3.26,48.38,8.23,15.13,4.38,29,10.34,36.09,15.42,5.09,3.66,7.13,8,7.72,12,.4,2.69-.38,4.5-3,5.5-4.38,4.07-13.28,5.42-24.69.88-1-.43-2.1-.83-3.16-1.24-20.23-7.76-42-11.27-46.22-11.62a211.31,211.31,0,0,0-23.93.19c-11,.57-22.52,1.75-30.12,3.7-13.6,3.48-21.51,5.47-30.22,8.26a24.44,24.44,0,0,1-8.75.86,29.31,29.31,0,0,1-13.35-4.17c-3.23-2.05-4.83-4.2-3-7.65.32-2.3,2.52-4.81,7.37-8.39a53.29,53.29,0,0,1,7.8-4.6c5.22-2.6,15-5.88,26.4-8.89C951.45,460.64,972.43,456.71,986.81,456.71Z"/><path class="cls-31" d="M986.52,458c12.37,0,30.68,3.06,47.54,7.83,14.37,4.07,27.57,9.67,34.51,14.41,5.12,3.5,7.32,7.6,8.18,11.41.62,2.73-.08,4.37-2.83,5.14-4.17,3.64-12.77,4.65-24,.24l-3.08-1.17c-19.13-7.22-39.87-10.62-44.95-11a207.42,207.42,0,0,0-23.24.12c-10.66.51-21.8,1.61-29.28,3.46-13.1,3.24-20.92,5.2-29.39,7.89a25.16,25.16,0,0,1-8.48,1,31.4,31.4,0,0,1-13-3.46c-3.35-1.77-5.05-3.48-3.38-6.61,0-2.15,2.09-4.5,7-8.1a49.66,49.66,0,0,1,7.61-4.4c5.16-2.51,14.65-5.65,25.68-8.53C952.15,461.79,972.48,458,986.52,458Z"/><path class="cls-32" d="M986.22,459.33c12.2,0,30.17,2.86,46.7,7.42,13.63,3.77,26.14,9,32.94,13.4,5.15,3.34,7.54,7.25,8.64,10.83.85,2.76.22,4.23-2.68,4.78-4,3.2-12.24,3.85-23.32-.4l-3-1.11c-18-6.69-37.76-10-43.69-10.45a203,203,0,0,0-22.56,0c-10.34.45-21.06,1.48-28.43,3.24-12.6,3-20.34,4.93-28.55,7.52a26.84,26.84,0,0,1-8.22,1,34.32,34.32,0,0,1-12.68-2.74c-3.5-1.49-5.28-2.76-3.78-5.57-.22-2,1.67-4.19,6.57-7.81a46.45,46.45,0,0,1,7.42-4.21c5.09-2.41,14.29-5.42,24.95-8.17C952.85,462.93,972.53,459.33,986.22,459.33Z"/><path class="cls-33" d="M985.93,460.64c12,0,29.66,2.67,45.86,7,12.87,3.46,24.7,8.31,31.37,12.39,5.17,3.17,7.76,6.87,9.09,10.24,1.09,2.78.51,4.09-2.52,4.41-3.74,2.76-11.72,3.05-22.64-1l-2.91-1.06c-16.93-6.15-35.64-9.31-42.42-9.86a207.56,207.56,0,0,0-21.87-.05c-10,.42-20.34,1.35-27.58,3-12.1,2.77-19.76,4.67-27.73,7.16a28.7,28.7,0,0,1-8,1.12,38.27,38.27,0,0,1-12.34-2c-3.67-1.19-5.51-2-4.18-4.54-.48-1.84,1.25-3.87,6.18-7.51a43.11,43.11,0,0,1,7.22-4c5-2.32,13.94-5.19,24.23-7.82C953.55,464.08,972.58,460.64,985.93,460.64Z"/><path class="cls-34" d="M985.64,462c11.85,0,29.15,2.48,45,6.62,12.12,3.16,23.27,7.62,29.8,11.37,5.21,3,8,6.5,9.55,9.65,1.35,2.81.81,4-2.37,4.05-3.52,2.33-11.19,2.26-22-1.66-.92-.34-1.87-.66-2.83-1-15.83-5.63-33.52-8.67-41.15-9.28a205.71,205.71,0,0,0-21.19-.12c-9.71.36-19.6,1.22-26.73,2.78-11.59,2.53-19.18,4.4-26.89,6.79a31.35,31.35,0,0,1-7.69,1.2,44.69,44.69,0,0,1-12-1.29c-3.84-.88-5.74-1.32-4.57-3.51-.74-1.69.83-3.56,5.79-7.21a39.27,39.27,0,0,1,7-3.83c5-2.22,13.59-5,23.52-7.45C954.25,465.22,972.63,462,985.64,462Z"/><path class="cls-35" d="M985.35,463.26c11.67,0,28.63,2.3,44.17,6.21,11.36,2.87,21.84,6.93,28.22,10.37,5.24,2.82,8.29,6.11,10,9.06s1.12,3.82-2.21,3.68c-3.3,1.9-10.66,1.46-21.25-2.29l-2.75-1a183.43,183.43,0,0,0-39.88-8.69c-4.66-.37-12.25-.46-20.51-.2-9.4.3-18.87,1.09-25.89,2.55-11.09,2.3-18.59,4.14-26,6.42a34.84,34.84,0,0,1-7.42,1.3,54.4,54.4,0,0,1-11.68-.58c-4-.53-6-.6-5-2.47-1-1.54.4-3.25,5.38-6.92a37.69,37.69,0,0,1,6.84-3.64c4.9-2.12,13.23-4.72,22.79-7.09C955,466.37,972.68,463.26,985.35,463.26Z"/><path class="cls-36" d="M985.06,464.57c11.49,0,28.11,2.12,43.33,5.81a133.34,133.34,0,0,1,26.64,9.36c5.28,2.64,8.57,5.71,10.46,8.47s1.41,3.68-2,3.31c-3.09,1.47-10.13.66-20.57-2.92l-2.67-.89a179.44,179.44,0,0,0-38.61-8.11c-4.73-.37-12-.48-19.82-.27a161,161,0,0,0-25,2.31,251,251,0,0,0-25.23,6.06,40.67,40.67,0,0,1-7.15,1.38,70.87,70.87,0,0,1-11.35.14c-4.19-.16-6.19.13-5.35-1.44-1.28-1.38,0-2.93,5-6.62a34.21,34.21,0,0,1,6.64-3.44A162.57,162.57,0,0,1,941.35,471C955.65,467.51,972.73,464.57,985.06,464.57Z"/><path class="cls-37" d="M984.77,465.88c11.32,0,27.59,1.95,42.48,5.41a136.11,136.11,0,0,1,25.08,8.34c5.31,2.46,8.85,5.3,10.91,7.88,2.24,2.81,1.71,3.56-1.9,2.95-2.87,1-9.6-.14-19.88-3.55l-2.58-.83a175.15,175.15,0,0,0-37.35-7.52c-4.79-.38-11.67-.51-19.14-.36a158.51,158.51,0,0,0-24.19,2.09A220.23,220.23,0,0,0,933.81,486a49.77,49.77,0,0,1-6.89,1.46,107.69,107.69,0,0,1-11,.87c-4.36.25-6.42.84-5.75-.41-1.54-1.23-.44-2.63,4.6-6.33a32.66,32.66,0,0,1,6.44-3.25A163.58,163.58,0,0,1,942.55,472C956.35,468.66,972.78,465.88,984.77,465.88Z"/><path class="cls-38" d="M984.47,467.2c11.15,0,27.08,1.78,41.65,5a140.89,140.89,0,0,1,23.5,7.34c5.36,2.27,9.13,4.87,11.37,7.29,2.55,2.77,2,3.42-1.75,2.58-2.64.61-9.07-.94-19.19-4.18l-2.5-.78a173.51,173.51,0,0,0-36.08-6.93c-4.86-.38-11.38-.54-18.45-.43a158.9,158.9,0,0,0-23.35,1.85,198.1,198.1,0,0,0-23.55,5.33c-2.22.65-4.48,1.13-6.63,1.54-4.23.81-8,1.18-10.67,1.59-4.51.69-6.65,1.57-6.15.63-1.8-1.08-.86-2.32,4.21-6a29.74,29.74,0,0,1,6.25-3.07,167.28,167.28,0,0,1,20.62-6C957.05,469.8,972.83,467.2,984.47,467.2Z"/><path class="cls-39" d="M984.18,468.51A217.88,217.88,0,0,1,1025,473.1a147.08,147.08,0,0,1,21.92,6.32c5.4,2.08,9.42,4.43,11.82,6.71,2.87,2.71,2.44,2.6-1.58,2.21-2.43-.24-8.54-1.75-18.51-4.81l-2.42-.72a171.29,171.29,0,0,0-34.81-6.35c-4.92-.38-11.09-.57-17.76-.51a154.89,154.89,0,0,0-22.5,1.63,176.73,176.73,0,0,0-22.73,5c-2.17.63-4.32,1.15-6.35,1.63-4.12,1-7.71,1.64-10.35,2.3-4.63,1.16-6.87,2.29-6.53,1.66-2.07-.92-1.29-2,3.81-5.73a28.08,28.08,0,0,1,6-2.87,168.48,168.48,0,0,1,19.9-5.66C957.75,471,972.88,468.51,984.18,468.51Z"/><path class="cls-40" d="M983.89,469.82a229.49,229.49,0,0,1,40,4.18,154.58,154.58,0,0,1,20.36,5.32c5.44,1.87,9.69,4,12.27,6.11,3.19,2.65,2.72,2.75-1.43,1.85-2.18-.47-8-2.57-17.82-5.44l-2.33-.67a174.54,174.54,0,0,0-33.55-5.76c-5-.38-10.8-.59-17.08-.59a157,157,0,0,0-21.65,1.4,159.65,159.65,0,0,0-21.89,4.59c-2.12.61-4.17,1.18-6.09,1.72-4,1.13-7.41,2.12-10,3-4.74,1.65-7.1,3-6.93,2.7-2.34-.77-1.72-1.7,3.41-5.44a26.9,26.9,0,0,1,5.86-2.68,172,172,0,0,1,19.18-5.29C958.45,472.09,972.93,469.82,983.89,469.82Z"/><path class="cls-41" d="M920.21,488.37c-2.6-.62-2.12-1.37,3-5.15,2.54-1.83,12.32-4.85,24.12-7.42s25.63-4.67,36.25-4.67a245.78,245.78,0,0,1,39.12,3.78,168,168,0,0,1,18.78,4.3c5.48,1.66,10,3.52,12.73,5.53,3.51,2.56,2.9,3-1.27,1.48a145.07,145.07,0,0,0-19.39-6.68c-11.06-2.9-27-5.66-48.67-5.84a145.78,145.78,0,0,0-47.69,7.19C926.15,484.61,920.21,488.37,920.21,488.37Z"/></g><g class="cls-65"><path class="cls-25" d="M635.62,485.56c-5.1,0-14.75,4.75-13.34,55.74.77,28.87,1.79,159.71,115.54,262,74.94,70.3,194.95,84,198.59,58.06,8.17-57-100.92-70-131.25-93C762.21,735.89,677.54,694,658.82,575,642.87,473.18,635.62,485.56,635.62,485.56Z"/><path class="cls-66" d="M635.42,488.69c-5.09,0-14.14,5-12.6,54.58.92,28.85,3.1,158.27,114.86,258.85,73.36,69,188.23,82.44,191.91,57.9,8.15-54.42-95.75-66.89-128.62-92.11C758.15,735,677,693.74,657.77,576.65,642.05,478.6,635.42,488.69,635.42,488.69Z"/><path class="cls-67" d="M635.23,491.82c-5.1,0-13.54,5.2-11.87,53.42,1.08,28.83,4.4,156.83,114.17,255.72,71.79,67.66,181.56,80.94,185.23,57.75,8.22-51.81-90.6-63.76-126-91.25C754.05,734.24,676,693.53,656.72,578.28,640.93,484.07,635.23,491.82,635.23,491.82Z"/><path class="cls-68" d="M635,495c-5.09,0-13,5.43-11.14,52.26,1.18,28.82,5.72,155.39,113.5,252.59,70.21,66.35,174.88,79.44,178.55,57.6,8.28-49.21-85.46-60.62-123.34-90.4-42.67-33.53-117.28-73.71-136.93-187.08C640,489.5,635,495,635,495Z"/><path class="cls-69" d="M634.84,498.08c-5.09,0-12.48,5.65-10.41,51.1,1.31,28.81,7,154,112.81,249.46,68.63,65,168.21,77.94,171.88,57.45,8.34-46.6-80.33-57.48-120.71-89.54-42.61-33.83-113.79-73.5-133.79-185C639.09,494.94,634.84,498.08,634.84,498.08Z"/><path class="cls-70" d="M634.64,501.21c-5.09,0-11.9,5.88-9.67,49.94,1.45,28.79,8.33,152.51,112.13,246.33,67,63.72,161.54,76.45,165.2,57.3,8.41-44-75.21-54.32-118.08-88.68C741.66,732,673.93,692.81,653.57,583.19,638.19,500.37,634.64,501.21,634.64,501.21Z"/><path class="cls-71" d="M634.45,504.34c-5.09,0-11.32,6.11-9,48.78,1.6,28.78,9.65,151.07,111.46,243.2,65.47,62.4,154.87,74.95,158.52,57.15,8.49-41.4-70.1-51.15-115.45-87.82-42.52-34.4-106.77-73.09-127.5-180.82C637.32,505.8,634.45,504.34,634.45,504.34Z"/><path class="cls-72" d="M634.25,507.47c-5.08,0-10.72,6.34-8.21,47.62,1.75,28.76,11,149.63,110.77,240.07,63.89,61.09,148.21,73.45,151.84,57,8.58-38.8-65-48-112.8-87-42.5-34.66-103.24-72.87-124.37-178.73C636.46,511.23,634.25,507.47,634.25,507.47Z"/><path class="cls-73" d="M634.06,510.6c-5.09,0-10.12,6.56-7.48,46.46,1.9,28.75,12.27,148.19,110.09,236.94,62.31,59.77,141.55,72,145.16,56.85,8.67-36.21-59.89-44.78-110.17-86.11C729.18,729.82,672,692.07,650.43,588.1,635.62,516.65,634.06,510.6,634.06,510.6Z"/><path class="cls-74" d="M633.86,513.73c-5.08,0-9.5,6.79-6.75,45.3,2.06,28.73,13.58,146.75,109.41,233.81,60.74,58.46,134.9,70.45,138.49,56.7,8.78-33.61-54.8-41.58-107.54-85.25-42.46-35.17-96.1-72.47-118.09-174.55C634.8,522.07,633.86,513.73,633.86,513.73Z"/><path class="cls-75" d="M633.67,516.86c-5.08,0-8.89,7-6,44.14,2.22,28.72,14.89,145.31,108.73,230.68,59.16,57.14,128.25,69,131.81,56.55,8.9-31-49.73-38.37-104.9-84.39-42.46-35.42-92.49-72.28-115-172.47C634,527.49,633.67,516.86,633.67,516.86Z"/><path class="cls-76" d="M633.47,520c-5.08,0-8.26,7.24-5.28,43,2.39,28.7,16.2,143.87,108,227.55,57.58,55.83,121.62,67.45,125.14,56.4,9-28.42-44.66-35.15-102.27-83.54C716.65,727.73,670.26,691.29,647.28,593,633.23,532.9,633.47,520,633.47,520Z"/><path class="cls-77" d="M633.28,523.12c-5.08,0-7.64,7.46-4.56,41.82,2.57,28.68,17.52,142.43,107.37,224.42,56,54.51,115,65.95,118.46,56.25,9.2-25.82-39.6-31.92-99.64-82.68C712.46,727,669.76,691,646.23,594.64,632.48,538.31,633.28,523.12,633.28,523.12Z"/><path class="cls-78" d="M633.08,526.25c-5.07,0-7,7.69-3.82,40.66C632,595.58,648.08,707.9,736,788.2c54.42,53.2,108.38,64.46,111.77,56.09,9.41-23.2-34.53-28.67-97-81.81-42.45-36.12-81.4-71.75-105.53-166.2C631.76,543.71,633.08,526.25,633.08,526.25Z"/><path class="cls-79" d="M632.89,529.38c-5.08,0-6.28,7.9-3.09,39.5,3,28.64,20.13,139.55,106,218.16,52.85,51.88,101.8,63,105.1,55.94,9.66-20.57-29.49-25.42-94.36-81-42.46-36.35-77.61-71.61-102.4-164.12C631.06,549.1,632.89,529.38,632.89,529.38Z"/><path class="cls-80" d="M632.69,532.51c-5.07,0-5.68,8.13-2.36,38.33,3.17,28.64,21.45,138.12,105.33,215,51.26,50.57,95.23,61.51,98.42,55.79,10-17.89-24.54-22.06-91.73-80.1-42.52-36.51-73.74-71.48-99.26-162C630.38,554.48,632.69,532.51,632.69,532.51Z"/><path class="cls-81" d="M632.5,535.64c-5.08,0-5.08,8.35-1.63,37.17,3.33,28.62,22.75,136.68,104.64,211.92,49.69,49.24,88.71,60.07,91.75,55.63,10.49-15.06-19.45-18.87-89.1-79.24-42.49-36.78-69.74-71.41-96.12-159.93C629.75,559.84,632.5,535.64,632.5,535.64Z"/></g><g class="cls-82"><path class="cls-25" d="M1284.33,487.06c5.05,0,14.77,4.72,13.4,55.75-.85,28.9-1.78,159.63-115.6,261.9-74.94,70.22-194.93,84-198.61,58.06-8.15-56.87,101-70,131.25-92.95,43-32.47,127.7-74.35,146.33-193.36C1277.13,474.61,1284.33,487.06,1284.33,487.06Z"/><path class="cls-66" d="M1284.53,490.18c5,0,14.27,5,12.66,54.59-.94,28.89-3.09,158.19-114.92,258.79C1108.92,872.47,994,886,990.35,861.47c-8.17-54.29,95.77-66.9,128.61-92.1,42.85-32.88,124.08-74.17,143.19-191.27C1278,480,1284.53,490.18,1284.53,490.18Z"/><path class="cls-67" d="M1284.72,493.3c5.06,0,13.72,5.2,11.94,53.43-1.07,28.88-4.41,156.76-114.24,255.67-71.78,67.6-181.56,81-185.25,57.76-8.23-51.69,90.63-63.77,126-91.24,42.77-33.22,120.74-73.94,140-189.18C1279,485.48,1284.72,493.3,1284.72,493.3Z"/><path class="cls-68" d="M1284.92,496.42c5.06,0,13.15,5.44,11.2,52.28-1.2,28.87-5.73,155.32-113.56,252.54-70.19,66.29-174.88,79.46-178.57,57.62-8.3-49.1,85.49-60.64,123.36-90.39,42.69-33.54,117.25-73.74,136.9-187.09C1279.92,490.92,1284.92,496.42,1284.92,496.42Z"/><path class="cls-69" d="M1285.11,499.54c5.07,0,12.58,5.68,10.47,51.12-1.33,28.86-7,153.89-112.87,249.42-68.62,65-168.22,78-171.9,57.47-8.36-46.51,80.37-57.49,120.73-89.53,42.64-33.85,113.76-73.53,133.75-185C1280.84,496.36,1285.11,499.54,1285.11,499.54Z"/><path class="cls-70" d="M1285.31,502.66c5.06,0,12,5.91,9.74,50-1.47,28.85-8.36,152.46-112.2,246.3-67,63.68-161.55,76.46-165.22,57.33-8.43-43.92,75.25-54.33,118.1-88.68,42.6-34.13,110.26-73.32,130.61-182.91C1281.73,501.79,1285.31,502.66,1285.31,502.66Z"/><path class="cls-71" d="M1285.51,505.78c5.06,0,11.39,6.15,9,48.81-1.61,28.84-9.67,151-111.51,243.17-65.46,62.38-154.89,75-158.55,57.19-8.51-41.34,70.14-51.17,115.48-87.83,42.55-34.41,106.73-73.12,127.46-180.82C1282.61,507.23,1285.51,505.78,1285.51,505.78Z"/><path class="cls-72" d="M1285.7,508.9c5.07,0,10.8,6.39,8.28,47.65-1.76,28.83-11,149.58-110.84,240.05-63.87,61.07-148.23,73.46-151.87,57-8.59-38.75,65-48,112.85-87,42.53-34.68,103.2-72.92,124.32-178.73C1283.47,512.66,1285.7,508.9,1285.7,508.9Z"/><path class="cls-73" d="M1285.9,512c5.07,0,10.19,6.62,7.54,46.49-1.91,28.82-12.31,148.15-110.15,236.93-62.3,59.77-141.58,72-145.19,56.9-8.7-36.17,59.93-44.8,110.21-86.12,42.51-34.93,99.64-72.71,121.18-176.64C1284.31,518.09,1285.9,512,1285.9,512Z"/><path class="cls-74" d="M1286.09,515.14c5.08,0,9.58,6.86,6.82,45.33-2.07,28.82-13.63,146.72-109.48,233.81-60.71,58.46-134.92,70.46-138.51,56.75-8.8-33.59,54.85-41.6,107.59-85.26,42.49-35.18,96-72.52,118-174.55C1285.13,523.51,1286.09,515.14,1286.09,515.14Z"/><path class="cls-75" d="M1286.29,518.26c5.08,0,9,7.1,6.08,44.18-2.23,28.8-14.95,145.28-108.79,230.68-59.14,57.15-128.29,69-131.84,56.61-8.92-31,49.77-38.39,105-84.41,42.48-35.43,92.43-72.33,114.89-172.46C1285.92,528.93,1286.29,518.26,1286.29,518.26Z"/><path class="cls-76" d="M1286.49,521.38c5.07,0,8.32,7.33,5.35,43-2.4,28.79-16.27,143.84-108.12,227.56-57.55,55.85-121.66,67.46-125.16,56.47-9.06-28.43,44.7-35.18,102.33-83.56,42.48-35.67,88.78-72.14,111.74-170.38C1286.7,534.34,1286.49,521.38,1286.49,521.38Z"/><path class="cls-77" d="M1286.68,524.5c5.08,0,7.69,7.56,4.62,41.86-2.57,28.78-17.58,142.41-107.44,224.44-56,54.54-115,66-118.48,56.32-9.24-25.83,39.64-31.94,99.71-82.7,42.48-35.91,85.08-72,108.59-168.29C1287.45,539.75,1286.68,524.5,1286.68,524.5Z"/><path class="cls-78" d="M1286.88,527.62c5.08,0,7,7.8,3.89,40.71-2.76,28.76-18.9,141-106.76,221.31-54.39,53.24-108.44,64.47-111.81,56.18-9.45-23.24,34.59-28.71,97.08-81.85,42.48-36.14,81.34-71.81,105.45-166.2C1288.17,545.15,1286.88,527.62,1286.88,527.62Z"/><path class="cls-79" d="M1287.07,530.74c5.09,0,6.4,8,3.16,39.55-3,28.75-20.22,139.54-106.08,218.19-52.81,51.93-101.85,63-105.13,56-9.71-20.6,29.55-25.45,94.45-81,42.49-36.37,77.54-71.67,102.31-164.11C1288.87,550.55,1287.07,530.74,1287.07,530.74Z"/><path class="cls-80" d="M1287.27,533.86c5.09,0,5.7,8.26,2.43,38.39-3.2,28.73-21.54,138.1-105.4,215.07-51.23,50.62-95.29,61.52-98.45,55.89-10.07-17.92,24.56-22.14,91.82-80.15,42.53-36.54,73.66-71.54,99.16-162C1289.54,555.93,1287.27,533.86,1287.27,533.86Z"/><path class="cls-81" d="M1287.47,537c5.09,0,5.09,8.48,1.69,37.22s-22.85,136.67-104.72,211.95c-49.65,49.32-88.74,60.08-91.77,55.75-10.49-15.16,19.47-18.95,89.19-79.3,42.5-36.82,69.65-71.47,96-159.92C1290.17,561.3,1287.47,537,1287.47,537Z"/></g></g></g></svg>